  0
SECTION
  2
HEADER
  9
$ACADVER
  1
AC1009
  9
$DWGCODEPAGE
  3
ansi_1252
  9
$INSBASE
 10
0.0
 20
0.0
 30
0.0
  9
$EXTMIN
 10
1.16030115221618
 20
1.434967249539401
 30
0.0
  9
$EXTMAX
 10
95.08039700030426
 20
47.3599538696129
 30
0.0
  9
$LIMMIN
 10
0.0
 20
0.0
  9
$LIMMAX
 10
12.0
 20
9.0
  9
$ORTHOMODE
 70
     0
  9
$REGENMODE
 70
     1
  9
$FILLMODE
 70
     1
  9
$QTEXTMODE
 70
     0
  9
$MIRRTEXT
 70
     1
  9
$DRAGMODE
 70
     2
  9
$LTSCALE
 40
1.0
  9
$OSMODE
 70
    37
  9
$ATTMODE
 70
     1
  9
$TEXTSIZE
 40
0.2
  9
$TRACEWID
 40
0.05
  9
$TEXTSTYLE
  7
STANDARD
  9
$CLAYER
  8
0
  9
$CELTYPE
  6
BYLAYER
  9
$CECOLOR
 62
   256
  9
$DIMSCALE
 40
1.0
  9
$DIMASZ
 40
0.18
  9
$DIMEXO
 40
0.0625
  9
$DIMDLI
 40
0.38
  9
$DIMRND
 40
0.0
  9
$DIMDLE
 40
0.0
  9
$DIMEXE
 40
0.18
  9
$DIMTP
 40
0.0
  9
$DIMTM
 40
0.0
  9
$DIMTXT
 40
0.18
  9
$DIMCEN
 40
0.09
  9
$DIMTSZ
 40
0.0
  9
$DIMTOL
 70
     0
  9
$DIMLIM
 70
     0
  9
$DIMTIH
 70
     1
  9
$DIMTOH
 70
     1
  9
$DIMSE1
 70
     0
  9
$DIMSE2
 70
     0
  9
$DIMTAD
 70
     0
  9
$DIMZIN
 70
     0
  9
$DIMBLK
  1

  9
$DIMASO
 70
     1
  9
$DIMSHO
 70
     1
  9
$DIMPOST
  1

  9
$DIMAPOST
  1

  9
$DIMALT
 70
     0
  9
$DIMALTD
 70
     2
  9
$DIMALTF
 40
25.4
  9
$DIMLFAC
 40
1.0
  9
$DIMTOFL
 70
     0
  9
$DIMTVP
 40
0.0
  9
$DIMTIX
 70
     0
  9
$DIMSOXD
 70
     0
  9
$DIMSAH
 70
     0
  9
$DIMBLK1
  1

  9
$DIMBLK2
  1

  9
$DIMSTYLE
  2
STANDARD
  9
$DIMCLRD
 70
     0
  9
$DIMCLRE
 70
     0
  9
$DIMCLRT
 70
     0
  9
$DIMTFAC
 40
1.0
  9
$DIMGAP
 40
0.09
  9
$LUNITS
 70
     2
  9
$LUPREC
 70
     4
  9
$SKETCHINC
 40
0.1
  9
$FILLETRAD
 40
0.5
  9
$AUNITS
 70
     0
  9
$AUPREC
 70
     0
  9
$MENU
  1
.
  9
$ELEVATION
 40
0.0
  9
$PELEVATION
 40
0.0
  9
$THICKNESS
 40
0.0
  9
$LIMCHECK
 70
     0
  9
$CHAMFERA
 40
0.5
  9
$CHAMFERB
 40
0.5
  9
$SKPOLY
 70
     0
  9
$TDCREATE
 40
2454910.5
  9
$TDUPDATE
 40
2455901.4511525
  9
$TDINDWG
 40
0.0000000116
  9
$TDUSRTIMER
 40
0.0000000116
  9
$USRTIMER
 70
     1
  9
$ANGBASE
 50
0.0
  9
$ANGDIR
 70
     0
  9
$PDMODE
 70
     0
  9
$PDSIZE
 40
0.0
  9
$PLINEWID
 40
0.0
  9
$COORDS
 70
     1
  9
$SPLFRAME
 70
     0
  9
$SPLINETYPE
 70
     6
  9
$SPLINESEGS
 70
     8
  9
$ATTDIA
 70
     0
  9
$ATTREQ
 70
     1
  9
$HANDLING
 70
     1
  9
$HANDSEED
  5
232
  9
$SURFTAB1
 70
     6
  9
$SURFTAB2
 70
     6
  9
$SURFTYPE
 70
     6
  9
$SURFU
 70
     6
  9
$SURFV
 70
     6
  9
$UCSNAME
  2

  9
$UCSORG
 10
0.0
 20
0.0
 30
0.0
  9
$UCSXDIR
 10
1.0
 20
0.0
 30
0.0
  9
$UCSYDIR
 10
0.0
 20
1.0
 30
0.0
  9
$PUCSNAME
  2

  9
$PUCSORG
 10
0.0
 20
0.0
 30
0.0
  9
$PUCSXDIR
 10
1.0
 20
0.0
 30
0.0
  9
$PUCSYDIR
 10
0.0
 20
1.0
 30
0.0
  9
$USERI1
 70
     0
  9
$USERI2
 70
     0
  9
$USERI3
 70
     0
  9
$USERI4
 70
     0
  9
$USERI5
 70
     0
  9
$USERR1
 40
0.0
  9
$USERR2
 40
0.0
  9
$USERR3
 40
0.0
  9
$USERR4
 40
0.0
  9
$USERR5
 40
0.0
  9
$WORLDVIEW
 70
     1
  9
$SHADEDGE
 70
     3
  9
$SHADEDIF
 70
    70
  9
$TILEMODE
 70
     1
  9
$MAXACTVP
 70
    64
  9
$PLIMCHECK
 70
     0
  9
$PEXTMIN
 10
1.000000000000000E+20
 20
1.000000000000000E+20
 30
1.000000000000000E+20
  9
$PEXTMAX
 10
-1.000000000000000E+20
 20
-1.000000000000000E+20
 30
-1.000000000000000E+20
  9
$PLIMMIN
 10
0.0
 20
0.0
  9
$PLIMMAX
 10
12.0
 20
9.0
  9
$UNITMODE
 70
     0
  9
$VISRETAIN
 70
     1
  9
$PLINEGEN
 70
     0
  9
$PSLTSCALE
 70
     1
  0
ENDSEC
  0
SECTION
  2
TABLES
  0
TABLE
  2
VPORT
 70
     1
  0
VPORT
  2
*ACTIVE
 70
     0
 10
0.0
 20
0.0
 11
1.0
 21
1.0
 12
10.42990654205607
 22
4.5
 13
0.0
 23
0.0
 14
0.5
 24
0.5
 15
0.5
 25
0.5
 16
0.0
 26
0.0
 36
1.0
 17
0.0
 27
0.0
 37
0.0
 40
9.0
 41
1.972972972850329
 42
50.0
 43
0.0
 44
0.0
 50
0.0
 51
0.0
 71
     0
 72
   100
 73
     1
 74
     3
 75
     0
 76
     0
 77
     0
 78
     0
  0
ENDTAB
  0
TABLE
  2
LTYPE
 70
     2
  0
LTYPE
  2
CONTINUOUS
 70
     0
  3
Solid line
 72
    65
 73
     0
 40
0.0
  0
LTYPE
  2
CONTINUOUS2
 70
     0
  3
Solid Line
 72
    65
 73
     0
 40
0.0
  0
ENDTAB
  0
TABLE
  2
LAYER
 70
     2
  0
LAYER
  2
0
 70
     0
 62
     7
  6
CONTINUOUS
  0
LAYER
  2
THROUGH_CUT
 70
     0
 62
    18
  6
CONTINUOUS
  0
ENDTAB
  0
TABLE
  2
STYLE
 70
     1
  0
STYLE
  2
STANDARD
 70
     0
 40
0.0
 41
1.0
 50
0.0
 71
     0
 42
0.2
  3
txt
  4

  0
ENDTAB
  0
TABLE
  2
VIEW
 70
     0
  0
ENDTAB
  0
TABLE
  2
UCS
 70
     0
  0
ENDTAB
  0
TABLE
  2
APPID
 70
     1
  0
APPID
  2
ACAD
 70
     0
  0
ENDTAB
  0
TABLE
  2
DIMSTYLE
 70
     1
  0
DIMSTYLE
  2
STANDARD
 70
     0
  3

  4

  5

  6

  7

 40
1.0
 41
0.18
 42
0.0625
 43
0.38
 44
0.18
 45
0.0
 46
0.0
 47
0.0
 48
0.0
140
0.18
141
0.09
142
0.0
143
25.4
144
1.0
145
0.0
146
1.0
147
0.09
 71
     0
 72
     0
 73
     1
 74
     1
 75
     0
 76
     0
 77
     0
 78
     0
170
     0
171
     2
172
     0
173
     0
174
     0
175
     0
176
     0
177
     0
178
     0
  0
ENDTAB
  0
ENDSEC
  0
SECTION
  2
BLOCKS
  0
BLOCK
  8
0
  2
$MODEL_SPACE
 70
     0
 10
0.0
 20
0.0
 30
0.0
  3
$MODEL_SPACE
  1

  0
ENDBLK
  5
21
  8
0
  0
BLOCK
 67
     1
  8
0
  2
$PAPER_SPACE
 70
     0
 10
0.0
 20
0.0
 30
0.0
  3
$PAPER_SPACE
  1

  0
ENDBLK
  5
1D
 67
     1
  8
0
  0
ENDSEC
  0
SECTION
  2
ENTITIES
  0
POLYLINE
  5
41
  8
THROUGH_CUT
 66
     1
 10
0.0
 20
0.0
 30
0.0
 70
     1
  0
VERTEX
  5
80
  8
THROUGH_CUT
 10
2.38128225441152
 20
22.13318293963577
 30
0.0
 42
0.9634013525171758
  0
VERTEX
  5
81
  8
THROUGH_CUT
 10
2.42461505865188
 20
21.74081098499763
 30
0.0
 42
0.9642873832495024
  0
VERTEX
  5
82
  8
THROUGH_CUT
 10
2.410266152216155
 20
22.13529424953942
 30
0.0
 42
0.0181809530801011
  0
VERTEX
  5
83
  8
THROUGH_CUT
 10
2.395554364209751
 20
22.13475912400031
 30
0.0
 42
0.0186404310235879
  0
SEQEND
  5
84
  8
THROUGH_CUT
  0
POLYLINE
  5
42
  8
THROUGH_CUT
 66
     1
 10
0.0
 20
0.0
 30
0.0
 70
     1
  0
VERTEX
  5
85
  8
THROUGH_CUT
 10
26.20118425441148
 20
34.64016493963577
 30
0.0
 42
0.9634013525171541
  0
VERTEX
  5
86
  8
THROUGH_CUT
 10
26.24451705865182
 20
34.24779298499746
 30
0.0
 42
0.964287383249565
  0
VERTEX
  5
87
  8
THROUGH_CUT
 10
26.23016815221611
 20
34.64227624953941
 30
0.0
 42
0.0181809530793622
  0
VERTEX
  5
88
  8
THROUGH_CUT
 10
26.21545636420969
 20
34.6417411240003
 30
0.0
 42
0.0186404310236057
  0
SEQEND
  5
89
  8
THROUGH_CUT
  0
POLYLINE
  5
43
  8
THROUGH_CUT
 66
     1
 10
0.0
 20
0.0
 30
0.0
 70
     1
  0
VERTEX
  5
8A
  8
THROUGH_CUT
 10
38.20118425441147
 20
34.63790893963578
 30
0.0
 42
0.9634013525171453
  0
VERTEX
  5
8B
  8
THROUGH_CUT
 10
38.24451705865181
 20
34.24553698499747
 30
0.0
 42
0.9642873832495215
  0
VERTEX
  5
8C
  8
THROUGH_CUT
 10
38.2301681522161
 20
34.64002024953942
 30
0.0
 42
0.0181809530793444
  0
VERTEX
  5
8D
  8
THROUGH_CUT
 10
38.21545636420968
 20
34.63948512400032
 30
0.0
 42
0.018640431023659
  0
SEQEND
  5
8E
  8
THROUGH_CUT
  0
POLYLINE
  5
44
  8
THROUGH_CUT
 66
     1
 10
0.0
 20
0.0
 30
0.0
 70
     1
  0
VERTEX
  5
8F
  8
THROUGH_CUT
 10
53.07984425441143
 20
34.27792793963577
 30
0.0
 42
0.9634013525171446
  0
VERTEX
  5
90
  8
THROUGH_CUT
 10
53.12317705865178
 20
33.88555598499747
 30
0.0
 42
0.9642873832495215
  0
VERTEX
  5
91
  8
THROUGH_CUT
 10
53.10882815221607
 20
34.28003924953941
 30
0.0
 42
0.0181809530793409
  0
VERTEX
  5
92
  8
THROUGH_CUT
 10
53.09411636420965
 20
34.27950412400031
 30
0.0
 42
0.018640431023659
  0
SEQEND
  5
93
  8
THROUGH_CUT
  0
POLYLINE
  5
45
  8
THROUGH_CUT
 66
     1
 10
0.0
 20
0.0
 30
0.0
 70
     1
  0
VERTEX
  5
94
  8
THROUGH_CUT
 10
64.67076625441153
 20
31.17139493963576
 30
0.0
 42
0.9634013525172064
  0
VERTEX
  5
95
  8
THROUGH_CUT
 10
64.7140990586519
 20
30.77902298499755
 30
0.0
 42
0.9642873832494957
  0
VERTEX
  5
96
  8
THROUGH_CUT
 10
64.69975015221617
 20
31.1735062495394
 30
0.0
 42
0.0181809530801189
  0
VERTEX
  5
97
  8
THROUGH_CUT
 10
64.68503836420976
 20
31.1729711240003
 30
0.0
 42
0.0186404310235346
  0
SEQEND
  5
98
  8
THROUGH_CUT
  0
POLYLINE
  5
46
  8
THROUGH_CUT
 66
     1
 10
0.0
 20
0.0
 30
0.0
 70
     1
  0
VERTEX
  5
99
  8
THROUGH_CUT
 10
79.75216825441144
 20
22.47089593963572
 30
0.0
 42
0.9634013525172064
  0
VERTEX
  5
9A
  8
THROUGH_CUT
 10
79.79550105865181
 20
22.07852398499751
 30
0.0
 42
0.9642873832494967
  0
VERTEX
  5
9B
  8
THROUGH_CUT
 10
79.78115215221608
 20
22.47300724953937
 30
0.0
 42
0.0181809530801189
  0
VERTEX
  5
9C
  8
THROUGH_CUT
 10
79.76644036420967
 20
22.47247212400026
 30
0.0
 42
0.0186404310235346
  0
SEQEND
  5
9D
  8
THROUGH_CUT
  0
POLYLINE
  5
47
  8
THROUGH_CUT
 66
     1
 10
0.0
 20
0.0
 30
0.0
 70
     1
  0
VERTEX
  5
9E
  8
THROUGH_CUT
 10
88.23630025441149
 20
13.98446493963574
 30
0.0
 42
0.9634013525172136
  0
VERTEX
  5
9F
  8
THROUGH_CUT
 10
88.27963305865185
 20
13.59209298499745
 30
0.0
 42
0.9642873832495037
  0
VERTEX
  5
A0
  8
THROUGH_CUT
 10
88.26528415221613
 20
13.98657624953939
 30
0.0
 42
0.0181809530801011
  0
VERTEX
  5
A1
  8
THROUGH_CUT
 10
88.25057236420973
 20
13.98604112400028
 30
0.0
 42
0.0186404310233783
  0
SEQEND
  5
A2
  8
THROUGH_CUT
  0
POLYLINE
  5
48
  8
THROUGH_CUT
 66
     1
 10
0.0
 20
0.0
 30
0.0
 70
     1
  0
VERTEX
  5
A3
  8
THROUGH_CUT
 10
62.09156115221614
 20
20.79871033582431
 30
0.0
 42
-0.5402049076495056
  0
VERTEX
  5
A4
  8
THROUGH_CUT
 10
63.14077349405643
 20
21.48643991530338
 30
0.0
 42
-0.0546702482868522
  0
VERTEX
  5
A5
  8
THROUGH_CUT
 10
72.02622956019637
 20
16.40364961801494
 30
0.0
 42
-0.726345359107964
  0
VERTEX
  5
A6
  8
THROUGH_CUT
 10
71.8791788543134
 20
15.9514712564148
 30
0.0
  0
VERTEX
  5
A7
  8
THROUGH_CUT
 10
62.84156115221614
 20
15.95147125641481
 30
0.0
 42
-0.4142135623730951
  0
VERTEX
  5
A8
  8
THROUGH_CUT
 10
62.09156115221614
 20
16.70147125641481
 30
0.0
  0
SEQEND
  5
A9
  8
THROUGH_CUT
  0
POLYLINE
  5
49
  8
THROUGH_CUT
 66
     1
 10
0.0
 20
0.0
 30
0.0
 70
     1
  0
VERTEX
  5
AA
  8
THROUGH_CUT
 10
61.09156115221613
 20
21.80077580368204
 30
0.0
 42
0.314474506008906
  0
VERTEX
  5
AB
  8
THROUGH_CUT
 10
60.60018919962168
 20
22.50477263115727
 30
0.0
 42
0.0507600973874354
  0
VERTEX
  5
AC
  8
THROUGH_CUT
 10
51.38899258881344
 20
24.86298336181375
 30
0.0
 42
0.4586196939095594
  0
VERTEX
  5
AD
  8
THROUGH_CUT
 10
45.70319292744705
 20
19.96797573903181
 30
0.0
  0
VERTEX
  5
AE
  8
THROUGH_CUT
 10
45.70319292744705
 20
16.70147125641481
 30
0.0
 42
0.4142135623730951
  0
VERTEX
  5
AF
  8
THROUGH_CUT
 10
46.45319292744705
 20
15.95147125641481
 30
0.0
  0
VERTEX
  5
B0
  8
THROUGH_CUT
 10
60.34156115221613
 20
15.95147125641481
 30
0.0
 42
0.4142135623730951
  0
VERTEX
  5
B1
  8
THROUGH_CUT
 10
61.09156115221613
 20
16.70147125641481
 30
0.0
  0
SEQEND
  5
B2
  8
THROUGH_CUT
  0
POLYLINE
  5
4A
  8
THROUGH_CUT
 66
     1
 10
0.0
 20
0.0
 30
0.0
 70
     1
  0
VERTEX
  5
B3
  8
THROUGH_CUT
 10
42.65255279121232
 20
5.909013589854368
 30
0.0
 42
0.4142135623730951
  0
VERTEX
  5
B4
  8
THROUGH_CUT
 10
42.45255279121232
 20
5.709013589854365
 30
0.0
 42
0.4142135623730951
  0
VERTEX
  5
B5
  8
THROUGH_CUT
 10
42.65255279121232
 20
5.509013589854362
 30
0.0
 42
0.4142135623730951
  0
VERTEX
  5
B6
  8
THROUGH_CUT
 10
42.85255279121233
 20
5.709013589854365
 30
0.0
 42
0.4142135623730951
  0
SEQEND
  5
B7
  8
THROUGH_CUT
  0
POLYLINE
  5
4B
  8
THROUGH_CUT
 66
     1
 10
0.0
 20
0.0
 30
0.0
 70
     1
  0
VERTEX
  5
B8
  8
THROUGH_CUT
 10
8.649191306433305
 20
4.192800075429608
 30
0.0
 42
0.4142135623730951
  0
VERTEX
  5
B9
  8
THROUGH_CUT
 10
8.449191306433296
 20
3.992800075429599
 30
0.0
 42
0.4142135623730951
  0
VERTEX
  5
BA
  8
THROUGH_CUT
 10
8.649191306433305
 20
3.792800075429589
 30
0.0
 42
0.4142135623730951
  0
VERTEX
  5
BB
  8
THROUGH_CUT
 10
8.849191306433315
 20
3.992800075429599
 30
0.0
 42
0.4142135623730951
  0
SEQEND
  5
BC
  8
THROUGH_CUT
  0
POLYLINE
  5
4C
  8
THROUGH_CUT
 66
     1
 10
0.0
 20
0.0
 30
0.0
 70
     1
  0
VERTEX
  5
BD
  8
THROUGH_CUT
 10
42.65910514132759
 20
11.49352558486001
 30
0.0
 42
0.4142135623730951
  0
VERTEX
  5
BE
  8
THROUGH_CUT
 10
42.4591051413276
 20
11.29352558486001
 30
0.0
 42
0.4142135623730951
  0
VERTEX
  5
BF
  8
THROUGH_CUT
 10
42.65910514132759
 20
11.09352558486001
 30
0.0
 42
0.4142135623730951
  0
VERTEX
  5
C0
  8
THROUGH_CUT
 10
42.85910514132759
 20
11.29352558486001
 30
0.0
 42
0.4142135623730951
  0
SEQEND
  5
C1
  8
THROUGH_CUT
  0
POLYLINE
  5
4D
  8
THROUGH_CUT
 66
     1
 10
0.0
 20
0.0
 30
0.0
 70
     1
  0
VERTEX
  5
C2
  8
THROUGH_CUT
 10
73.65335580512955
 20
14.95147125641481
 30
0.0
 42
-0.1730428970365794
  0
VERTEX
  5
C3
  8
THROUGH_CUT
 10
74.1280837699945
 20
14.78210311859185
 30
0.0
 42
-0.0313712107669009
  0
VERTEX
  5
C4
  8
THROUGH_CUT
 10
78.44220297021299
 20
10.77831866593687
 30
0.0
 42
-0.6590215623974602
  0
VERTEX
  5
C5
  8
THROUGH_CUT
 10
77.02872995666033
 20
7.48496674953941
 30
0.0
  0
VERTEX
  5
C6
  8
THROUGH_CUT
 10
62.84156115221614
 20
7.48496674953941
 30
0.0
 42
-0.4142135623730951
  0
VERTEX
  5
C7
  8
THROUGH_CUT
 10
62.09156115221614
 20
8.23496674953941
 30
0.0
  0
VERTEX
  5
C8
  8
THROUGH_CUT
 10
62.09156115221614
 20
14.20147125641481
 30
0.0
 42
-0.4142135623730951
  0
VERTEX
  5
C9
  8
THROUGH_CUT
 10
62.84156115221614
 20
14.95147125641481
 30
0.0
  0
SEQEND
  5
CA
  8
THROUGH_CUT
  0
POLYLINE
  5
4E
  8
THROUGH_CUT
 66
     1
 10
0.0
 20
0.0
 30
0.0
 70
     1
  0
VERTEX
  5
CB
  8
THROUGH_CUT
 10
60.34156115221613
 20
7.48496674953941
 30
0.0
 42
0.4142135623730951
  0
VERTEX
  5
CC
  8
THROUGH_CUT
 10
61.09156115221613
 20
8.23496674953941
 30
0.0
  0
VERTEX
  5
CD
  8
THROUGH_CUT
 10
61.09156115221613
 20
14.2014712564148
 30
0.0
 42
0.4142135623730951
  0
VERTEX
  5
CE
  8
THROUGH_CUT
 10
60.34156115221613
 20
14.9514712564148
 30
0.0
  0
VERTEX
  5
CF
  8
THROUGH_CUT
 10
46.45319292744705
 20
14.9514712564148
 30
0.0
 42
0.4142135623730951
  0
VERTEX
  5
D0
  8
THROUGH_CUT
 10
45.70319292744705
 20
14.2014712564148
 30
0.0
  0
VERTEX
  5
D1
  8
THROUGH_CUT
 10
45.70319292744705
 20
9.434966749539399
 30
0.0
 42
0.4142135623730823
  0
VERTEX
  5
D2
  8
THROUGH_CUT
 10
47.65319292744704
 20
7.48496674953941
 30
0.0
  0
SEQEND
  5
D3
  8
THROUGH_CUT
  0
POLYLINE
  5
4F
  8
THROUGH_CUT
 66
     1
 10
0.0
 20
0.0
 30
0.0
 70
     1
  0
VERTEX
  5
D4
  8
THROUGH_CUT
 10
51.84259603904856
 20
28.06892895826498
 30
0.0
 42
0.4142135623730951
  0
VERTEX
  5
D5
  8
THROUGH_CUT
 10
51.65259603904855
 20
27.87892895826498
 30
0.0
 42
0.4142135623730951
  0
VERTEX
  5
D6
  8
THROUGH_CUT
 10
51.84259603904856
 20
27.68892895826498
 30
0.0
 42
0.4142135623730951
  0
VERTEX
  5
D7
  8
THROUGH_CUT
 10
52.03259603904856
 20
27.87892895826498
 30
0.0
 42
0.4142135623730951
  0
SEQEND
  5
D8
  8
THROUGH_CUT
  0
POLYLINE
  5
50
  8
THROUGH_CUT
 66
     1
 10
0.0
 20
0.0
 30
0.0
 70
     1
  0
VERTEX
  5
D9
  8
THROUGH_CUT
 10
44.40319292744705
 20
15.64147125641481
 30
0.0
 42
0.4142135623730951
  0
VERTEX
  5
DA
  8
THROUGH_CUT
 10
44.21319292744705
 20
15.45147125641481
 30
0.0
 42
0.4142135623730951
  0
VERTEX
  5
DB
  8
THROUGH_CUT
 10
44.40319292744705
 20
15.26147125641481
 30
0.0
 42
0.4142135623730951
  0
VERTEX
  5
DC
  8
THROUGH_CUT
 10
44.59319292744705
 20
15.45147125641481
 30
0.0
 42
0.4142135623730951
  0
SEQEND
  5
DD
  8
THROUGH_CUT
  0
POLYLINE
  5
51
  8
THROUGH_CUT
 66
     1
 10
0.0
 20
0.0
 30
0.0
 70
     1
  0
VERTEX
  5
DE
  8
THROUGH_CUT
 10
53.8178002568431
 20
25.89360573082904
 30
0.0
 42
0.4142135623730951
  0
VERTEX
  5
DF
  8
THROUGH_CUT
 10
53.6278002568431
 20
25.70360573082904
 30
0.0
 42
0.4142135623730951
  0
VERTEX
  5
E0
  8
THROUGH_CUT
 10
53.8178002568431
 20
25.51360573082904
 30
0.0
 42
0.4142135623730951
  0
VERTEX
  5
E1
  8
THROUGH_CUT
 10
54.0078002568431
 20
25.70360573082904
 30
0.0
 42
0.4142135623730951
  0
SEQEND
  5
E2
  8
THROUGH_CUT
  0
POLYLINE
  5
52
  8
THROUGH_CUT
 66
     1
 10
0.0
 20
0.0
 30
0.0
 70
     1
  0
VERTEX
  5
E3
  8
THROUGH_CUT
 10
76.07920117570363
 20
15.02689005356764
 30
0.0
 42
0.4142135623730951
  0
VERTEX
  5
E4
  8
THROUGH_CUT
 10
75.88920117570363
 20
14.83689005356764
 30
0.0
 42
0.4142135623730951
  0
VERTEX
  5
E5
  8
THROUGH_CUT
 10
76.07920117570363
 20
14.64689005356764
 30
0.0
 42
0.4142135623730951
  0
VERTEX
  5
E6
  8
THROUGH_CUT
 10
76.26920117570363
 20
14.83689005356764
 30
0.0
 42
0.4142135623730951
  0
SEQEND
  5
E7
  8
THROUGH_CUT
  0
POLYLINE
  5
53
  8
THROUGH_CUT
 66
     1
 10
0.0
 20
0.0
 30
0.0
 70
     1
  0
VERTEX
  5
E8
  8
THROUGH_CUT
 10
61.59156115221614
 20
6.374966749539411
 30
0.0
 42
0.4142135623730951
  0
VERTEX
  5
E9
  8
THROUGH_CUT
 10
61.40156115221614
 20
6.184966749539413
 30
0.0
 42
0.4142135623730951
  0
VERTEX
  5
EA
  8
THROUGH_CUT
 10
61.59156115221614
 20
5.994966749539415
 30
0.0
 42
0.4142135623730951
  0
VERTEX
  5
EB
  8
THROUGH_CUT
 10
61.78156115221613
 20
6.184966749539413
 30
0.0
 42
0.4142135623730951
  0
SEQEND
  5
EC
  8
THROUGH_CUT
  0
POLYLINE
  5
54
  8
THROUGH_CUT
 66
     1
 10
0.0
 20
0.0
 30
0.0
 70
     1
  0
VERTEX
  5
ED
  8
THROUGH_CUT
 10
1.16030115221618
 20
31.43478024953942
 30
0.0
 42
-0.4142135623731067
  0
VERTEX
  5
EE
  8
THROUGH_CUT
 10
2.16030115221618
 20
32.43478024953941
 30
0.0
  0
VERTEX
  5
EF
  8
THROUGH_CUT
 10
19.16030115221618
 20
32.43478024953941
 30
0.0
 42
-0.414213562372991
  0
VERTEX
  5
F0
  8
THROUGH_CUT
 10
19.66030115221618
 20
31.93478024953942
 30
0.0
  0
VERTEX
  5
F1
  8
THROUGH_CUT
 10
19.66030115221618
 20
30.81478024953942
 30
0.0
 42
1.0
  0
VERTEX
  5
F2
  8
THROUGH_CUT
 10
19.66030115221618
 20
30.43478024953941
 30
0.0
  0
VERTEX
  5
F3
  8
THROUGH_CUT
 10
20.41030115221618
 20
30.43478024953941
 30
0.0
 42
1.0
  0
VERTEX
  5
F4
  8
THROUGH_CUT
 10
20.41030115221618
 20
30.81478024953942
 30
0.0
  0
VERTEX
  5
F5
  8
THROUGH_CUT
 10
20.41030115221618
 20
31.93478024953942
 30
0.0
 42
-0.414213562372991
  0
VERTEX
  5
F6
  8
THROUGH_CUT
 10
20.91030115221618
 20
32.43478024953941
 30
0.0
  0
VERTEX
  5
F7
  8
THROUGH_CUT
 10
23.23016815221611
 20
32.43478024953941
 30
0.0
 42
0.4142135623731054
  0
VERTEX
  5
F8
  8
THROUGH_CUT
 10
24.23016815221611
 20
33.43478024953941
 30
0.0
  0
VERTEX
  5
F9
  8
THROUGH_CUT
 10
24.23016815221611
 20
34.43478024953941
 30
0.0
 42
-0.4142135623731065
  0
VERTEX
  5
FA
  8
THROUGH_CUT
 10
26.23016815221611
 20
36.43478024953941
 30
0.0
  0
VERTEX
  5
FB
  8
THROUGH_CUT
 10
38.23016815221611
 20
36.43478024953941
 30
0.0
 42
-0.4142135623731054
  0
VERTEX
  5
FC
  8
THROUGH_CUT
 10
40.23016815221611
 20
34.43478024953941
 30
0.0
  0
VERTEX
  5
FD
  8
THROUGH_CUT
 10
40.23016815221611
 20
33.43478024953941
 30
0.0
 42
0.4142135623731076
  0
VERTEX
  5
FE
  8
THROUGH_CUT
 10
41.23016815221611
 20
32.43478024953941
 30
0.0
  0
VERTEX
  5
FF
  8
THROUGH_CUT
 10
43.53530115221618
 20
32.43478024953941
 30
0.0
 42
-0.4142135623729952
  0
VERTEX
  5
100
  8
THROUGH_CUT
 10
44.03530115221618
 20
31.93478024953942
 30
0.0
  0
VERTEX
  5
101
  8
THROUGH_CUT
 10
44.03530115221618
 20
30.81478024953942
 30
0.0
 42
1.0
  0
VERTEX
  5
102
  8
THROUGH_CUT
 10
44.03530115221618
 20
30.43478024953941
 30
0.0
  0
VERTEX
  5
103
  8
THROUGH_CUT
 10
44.78530515221617
 20
30.4345862495394
 30
0.0
 42
1.0
  0
VERTEX
  5
104
  8
THROUGH_CUT
 10
44.78530464357389
 20
30.81458624953906
 30
0.0
  0
VERTEX
  5
105
  8
THROUGH_CUT
 10
44.78530315221623
 20
31.9287600837331
 30
0.0
 42
-0.4190106534454274
  0
VERTEX
  5
106
  8
THROUGH_CUT
 10
45.29347771121407
 20
32.42869385380119
 30
0.0
 42
-0.0210383435868202
  0
VERTEX
  5
107
  8
THROUGH_CUT
 10
49.82801222811181
 20
32.16348323200111
 30
0.0
 42
0.3983185166685224
  0
VERTEX
  5
108
  8
THROUGH_CUT
 10
50.91633604079028
 20
33.00399549541874
 30
0.0
  0
VERTEX
  5
109
  8
THROUGH_CUT
 10
51.08342387506783
 20
34.07289425778075
 30
0.0
 42
-0.4142135623730632
  0
VERTEX
  5
10A
  8
THROUGH_CUT
 10
53.36831205598914
 20
35.74001273610995
 30
0.0
 42
-0.0534193910361545
  0
VERTEX
  5
10B
  8
THROUGH_CUT
 10
65.3052806321135
 20
32.54149742438523
 30
0.0
 42
-0.4142135623731108
  0
VERTEX
  5
10C
  8
THROUGH_CUT
 10
66.45048724581093
 20
29.95528342878865
 30
0.0
  0
VERTEX
  5
10D
  8
THROUGH_CUT
 10
66.06073810541866
 20
28.94604715991475
 30
0.0
 42
0.3983185166684415
  0
VERTEX
  5
10E
  8
THROUGH_CUT
 10
66.58299470532776
 20
27.67397912490404
 30
0.0
 42
-0.0210377237207098
  0
VERTEX
  5
10F
  8
THROUGH_CUT
 10
70.64250030910031
 20
25.63644733745222
 30
0.0
 42
-0.4190072680512185
  0
VERTEX
  5
110
  8
THROUGH_CUT
 10
70.83262839286729
 20
24.94941015661005
 30
0.0
  0
VERTEX
  5
111
  8
THROUGH_CUT
 10
70.27554933826548
 20
23.9844951049335
 30
0.0
 42
1.0
  0
VERTEX
  5
112
  8
THROUGH_CUT
 10
70.08555315221619
 20
23.65540324953941
 30
0.0
  0
VERTEX
  5
113
  8
THROUGH_CUT
 10
70.7350881522161
 20
23.28038924953939
 30
0.0
 42
0.9999999999999568
  0
VERTEX
  5
114
  8
THROUGH_CUT
 10
70.92508489856253
 20
23.60948078145379
 30
0.0
  0
VERTEX
  5
115
  8
THROUGH_CUT
 10
71.4821569835585
 20
24.57437996716823
 30
0.0
 42
-0.4190171421407347
  0
VERTEX
  5
116
  8
THROUGH_CUT
 10
72.17222326662781
 20
24.75324915392066
 30
0.0
 42
-0.0210973618994892
  0
VERTEX
  5
117
  8
THROUGH_CUT
 10
75.97694894694499
 20
22.24880898247668
 30
0.0
 42
0.3983185116128751
  0
VERTEX
  5
118
  8
THROUGH_CUT
 10
77.33976693259174
 20
22.43221415155771
 30
0.0
  0
VERTEX
  5
119
  8
THROUGH_CUT
 10
78.01912809146486
 20
23.27419444550288
 30
0.0
 42
-0.4142135623730754
  0
VERTEX
  5
11A
  8
THROUGH_CUT
 10
80.83153335933812
 20
23.57481927184745
 30
0.0
 42
-0.0534114140027384
  0
VERTEX
  5
11B
  8
THROUGH_CUT
 10
89.56666684646333
 20
14.83560734136848
 30
0.0
 42
-0.4142135623730454
  0
VERTEX
  5
11C
  8
THROUGH_CUT
 10
89.26472951183885
 20
12.02334216706416
 30
0.0
  0
VERTEX
  5
11D
  8
THROUGH_CUT
 10
88.42243222240481
 20
11.34437504077702
 30
0.0
 42
0.3983185166685217
  0
VERTEX
  5
11E
  8
THROUGH_CUT
 10
88.23839046459321
 20
9.981643265732176
 30
0.0
 42
-0.0140421272148075
  0
VERTEX
  5
11F
  8
THROUGH_CUT
 10
89.94011776974455
 20
7.471616684228966
 30
0.0
 42
-0.5921475292869337
  0
VERTEX
  5
120
  8
THROUGH_CUT
 10
89.0969811522161
 20
5.93391724953938
 30
0.0
  0
VERTEX
  5
121
  8
THROUGH_CUT
 10
83.81673715221618
 20
5.93391724953938
 30
0.0
 42
0.4142135623731034
  0
VERTEX
  5
122
  8
THROUGH_CUT
 10
82.81673715221618
 20
4.93391724953938
 30
0.0
  0
VERTEX
  5
123
  8
THROUGH_CUT
 10
82.81627215221613
 20
1.434967249539401
 30
0.0
  0
VERTEX
  5
124
  8
THROUGH_CUT
 10
2.160301152216181
 20
1.434967249539401
 30
0.0
 42
-0.4142135623730946
  0
VERTEX
  5
125
  8
THROUGH_CUT
 10
1.16030115221618
 20
2.434967249539401
 30
0.0
  0
SEQEND
  5
126
  8
THROUGH_CUT
  0
POLYLINE
  5
55
  8
THROUGH_CUT
 66
     1
 10
0.0
 20
0.0
 30
0.0
 70
     1
  0
VERTEX
  5
127
  8
THROUGH_CUT
 10
2.608155152216179
 20
9.96427724953941
 30
0.0
  0
VERTEX
  5
128
  8
THROUGH_CUT
 10
2.60041115221618
 20
9.996988249539402
 30
0.0
  0
VERTEX
  5
129
  8
THROUGH_CUT
 10
2.587232152216179
 20
10.0279112495394
 30
0.0
  0
VERTEX
  5
12A
  8
THROUGH_CUT
 10
2.569001152216179
 20
10.05615224953941
 30
0.0
  0
VERTEX
  5
12B
  8
THROUGH_CUT
 10
2.546246152216179
 20
10.08089224953941
 30
0.0
  0
VERTEX
  5
12C
  8
THROUGH_CUT
 10
2.51962415221618
 20
10.1014162495394
 30
0.0
  0
VERTEX
  5
12D
  8
THROUGH_CUT
 10
2.489908152216179
 20
10.11712824953941
 30
0.0
  0
VERTEX
  5
12E
  8
THROUGH_CUT
 10
2.457958152216179
 20
10.12757424953941
 30
0.0
  0
VERTEX
  5
12F
  8
THROUGH_CUT
 10
2.42469915221618
 20
10.13245024953941
 30
0.0
  0
VERTEX
  5
130
  8
THROUGH_CUT
 10
2.391095152216179
 20
10.13161724953941
 30
0.0
  0
VERTEX
  5
131
  8
THROUGH_CUT
 10
2.35811915221618
 20
10.12509724953941
 30
0.0
  0
VERTEX
  5
132
  8
THROUGH_CUT
 10
2.32672615221618
 20
10.11308124953941
 30
0.0
  0
VERTEX
  5
133
  8
THROUGH_CUT
 10
2.29782615221618
 20
10.09591524953941
 30
0.0
  0
VERTEX
  5
134
  8
THROUGH_CUT
 10
2.272254152216179
 20
10.07409724953941
 30
0.0
  0
VERTEX
  5
135
  8
THROUGH_CUT
 10
2.250753152216179
 20
10.0482592495394
 30
0.0
  0
VERTEX
  5
136
  8
THROUGH_CUT
 10
2.23394415221618
 20
10.01914924953941
 30
0.0
  0
VERTEX
  5
137
  8
THROUGH_CUT
 10
2.222315152216179
 20
9.987610249539404
 30
0.0
  0
VERTEX
  5
138
  8
THROUGH_CUT
 10
2.21620215221618
 20
9.954556249539412
 30
0.0
  0
VERTEX
  5
139
  8
THROUGH_CUT
 10
2.215783152216179
 20
9.920945249539404
 30
0.0
  0
VERTEX
  5
13A
  8
THROUGH_CUT
 10
2.22107315221618
 20
9.887731249539403
 30
0.0
  0
VERTEX
  5
13B
  8
THROUGH_CUT
 10
2.23192215221618
 20
9.855897249539414
 30
0.0
  0
VERTEX
  5
13C
  8
THROUGH_CUT
 10
2.24801515221618
 20
9.82636524953941
 30
0.0
  0
VERTEX
  5
13D
  8
THROUGH_CUT
 10
2.268886152216179
 20
9.799992249539404
 30
0.0
  0
VERTEX
  5
13E
  8
THROUGH_CUT
 10
2.29392815221618
 20
9.777542249539412
 30
0.0
  0
VERTEX
  5
13F
  8
THROUGH_CUT
 10
2.322417152216179
 20
9.759667249539408
 30
0.0
  0
VERTEX
  5
140
  8
THROUGH_CUT
 10
2.353525152216179
 20
9.74688424953941
 30
0.0
  0
VERTEX
  5
141
  8
THROUGH_CUT
 10
2.386351152216179
 20
9.739565249539414
 30
0.0
  0
VERTEX
  5
142
  8
THROUGH_CUT
 10
2.419943152216179
 20
9.7379212495394
 30
0.0
  0
VERTEX
  5
143
  8
THROUGH_CUT
 10
2.45332615221618
 20
9.742001249539403
 30
0.0
  0
VERTEX
  5
144
  8
THROUGH_CUT
 10
2.485534152216179
 20
9.751686249539407
 30
0.0
  0
VERTEX
  5
145
  8
THROUGH_CUT
 10
2.51563115221618
 20
9.766695249539413
 30
0.0
  0
VERTEX
  5
146
  8
THROUGH_CUT
 10
2.54274615221618
 20
9.786593249539411
 30
0.0
  0
VERTEX
  5
147
  8
THROUGH_CUT
 10
2.566091152216179
 20
9.810803249539408
 30
0.0
  0
VERTEX
  5
148
  8
THROUGH_CUT
 10
2.584990152216179
 20
9.838622249539416
 30
0.0
  0
VERTEX
  5
149
  8
THROUGH_CUT
 10
2.59889515221618
 20
9.869245249539407
 30
0.0
  0
VERTEX
  5
14A
  8
THROUGH_CUT
 10
2.607403152216179
 20
9.901784249539407
 30
0.0
  0
VERTEX
  5
14B
  8
THROUGH_CUT
 10
2.61026615221618
 20
9.935294249539414
 30
0.0
  0
VERTEX
  5
14C
  8
THROUGH_CUT
 10
2.609731152216179
 20
9.950005249539405
 30
0.0
  0
SEQEND
  5
14D
  8
THROUGH_CUT
  0
POLYLINE
  5
56
  8
THROUGH_CUT
 66
     1
 10
0.0
 20
0.0
 30
0.0
 70
     1
  0
VERTEX
  5
14E
  8
THROUGH_CUT
 10
1.953868828297711
 20
34.03640383198232
 30
0.0
  0
VERTEX
  5
14F
  8
THROUGH_CUT
 10
7.953868828297711
 20
34.03640383198232
 30
0.0
  0
VERTEX
  5
150
  8
THROUGH_CUT
 10
7.953868828297711
 20
40.03640383198232
 30
0.0
  0
VERTEX
  5
151
  8
THROUGH_CUT
 10
1.953868828297711
 20
40.03640383198232
 30
0.0
  0
SEQEND
  5
152
  8
THROUGH_CUT
  0
POLYLINE
  5
57
  8
THROUGH_CUT
 66
     1
 10
0.0
 20
0.0
 30
0.0
 70
     1
  0
VERTEX
  5
153
  8
THROUGH_CUT
 10
4.953868828297711
 20
39.33640383198232
 30
0.0
 42
0.4142135623730951
  0
VERTEX
  5
154
  8
THROUGH_CUT
 10
4.578868828297711
 20
38.96140383198232
 30
0.0
 42
0.4142135623730951
  0
VERTEX
  5
155
  8
THROUGH_CUT
 10
4.953868828297711
 20
38.58640383198232
 30
0.0
 42
0.4142135623730951
  0
VERTEX
  5
156
  8
THROUGH_CUT
 10
5.328868828297711
 20
38.96140383198232
 30
0.0
 42
0.4142135623730951
  0
SEQEND
  5
157
  8
THROUGH_CUT
  0
POLYLINE
  5
58
  8
THROUGH_CUT
 66
     1
 10
0.0
 20
0.0
 30
0.0
 70
     1
  0
VERTEX
  5
158
  8
THROUGH_CUT
 10
4.95389416401839
 20
35.48636372455169
 30
0.0
 42
0.4142135623730951
  0
VERTEX
  5
159
  8
THROUGH_CUT
 10
4.57889416401839
 20
35.11136372455169
 30
0.0
 42
0.4142135623730951
  0
VERTEX
  5
15A
  8
THROUGH_CUT
 10
4.95389416401839
 20
34.73636372455169
 30
0.0
 42
0.4142135623730951
  0
VERTEX
  5
15B
  8
THROUGH_CUT
 10
5.32889416401839
 20
35.11136372455169
 30
0.0
 42
0.4142135623730951
  0
SEQEND
  5
15C
  8
THROUGH_CUT
  0
POLYLINE
  5
59
  8
THROUGH_CUT
 66
     1
 10
0.0
 20
0.0
 30
0.0
 70
     1
  0
VERTEX
  5
15D
  8
THROUGH_CUT
 10
11.95386882829771
 20
39.33640383198232
 30
0.0
 42
0.4142135623730951
  0
VERTEX
  5
15E
  8
THROUGH_CUT
 10
11.57886882829771
 20
38.96140383198232
 30
0.0
 42
0.4142135623730951
  0
VERTEX
  5
15F
  8
THROUGH_CUT
 10
11.95386882829771
 20
38.58640383198232
 30
0.0
 42
0.4142135623730951
  0
VERTEX
  5
160
  8
THROUGH_CUT
 10
12.32886882829771
 20
38.96140383198232
 30
0.0
 42
0.4142135623730951
  0
SEQEND
  5
161
  8
THROUGH_CUT
  0
POLYLINE
  5
5A
  8
THROUGH_CUT
 66
     1
 10
0.0
 20
0.0
 30
0.0
 70
     1
  0
VERTEX
  5
162
  8
THROUGH_CUT
 10
11.95389416401839
 20
35.48636372455169
 30
0.0
 42
0.4142135623730951
  0
VERTEX
  5
163
  8
THROUGH_CUT
 10
11.57889416401839
 20
35.11136372455169
 30
0.0
 42
0.4142135623730951
  0
VERTEX
  5
164
  8
THROUGH_CUT
 10
11.95389416401839
 20
34.73636372455169
 30
0.0
 42
0.4142135623730951
  0
VERTEX
  5
165
  8
THROUGH_CUT
 10
12.32889416401839
 20
35.11136372455169
 30
0.0
 42
0.4142135623730951
  0
SEQEND
  5
166
  8
THROUGH_CUT
  0
POLYLINE
  5
5B
  8
THROUGH_CUT
 66
     1
 10
0.0
 20
0.0
 30
0.0
 70
     1
  0
VERTEX
  5
167
  8
THROUGH_CUT
 10
18.95389416401839
 20
35.48636372455169
 30
0.0
 42
0.4142135623730951
  0
VERTEX
  5
168
  8
THROUGH_CUT
 10
18.57889416401839
 20
35.11136372455169
 30
0.0
 42
0.4142135623730951
  0
VERTEX
  5
169
  8
THROUGH_CUT
 10
18.95389416401839
 20
34.73636372455169
 30
0.0
 42
0.4142135623730951
  0
VERTEX
  5
16A
  8
THROUGH_CUT
 10
19.32889416401839
 20
35.11136372455169
 30
0.0
 42
0.4142135623730951
  0
SEQEND
  5
16B
  8
THROUGH_CUT
  0
POLYLINE
  5
5C
  8
THROUGH_CUT
 66
     1
 10
0.0
 20
0.0
 30
0.0
 70
     1
  0
VERTEX
  5
16C
  8
THROUGH_CUT
 10
11.95386882829771
 20
46.33640383198232
 30
0.0
 42
0.4142135623730951
  0
VERTEX
  5
16D
  8
THROUGH_CUT
 10
11.57886882829771
 20
45.96140383198232
 30
0.0
 42
0.4142135623730951
  0
VERTEX
  5
16E
  8
THROUGH_CUT
 10
11.95386882829771
 20
45.58640383198232
 30
0.0
 42
0.4142135623730951
  0
VERTEX
  5
16F
  8
THROUGH_CUT
 10
12.32886882829771
 20
45.96140383198232
 30
0.0
 42
0.4142135623730951
  0
SEQEND
  5
170
  8
THROUGH_CUT
  0
POLYLINE
  5
5D
  8
THROUGH_CUT
 66
     1
 10
0.0
 20
0.0
 30
0.0
 70
     1
  0
VERTEX
  5
171
  8
THROUGH_CUT
 10
11.95389416401839
 20
42.48636372455169
 30
0.0
 42
0.4142135623730951
  0
VERTEX
  5
172
  8
THROUGH_CUT
 10
11.57889416401839
 20
42.11136372455169
 30
0.0
 42
0.4142135623730951
  0
VERTEX
  5
173
  8
THROUGH_CUT
 10
11.95389416401839
 20
41.73636372455169
 30
0.0
 42
0.4142135623730951
  0
VERTEX
  5
174
  8
THROUGH_CUT
 10
12.32889416401839
 20
42.11136372455169
 30
0.0
 42
0.4142135623730951
  0
SEQEND
  5
175
  8
THROUGH_CUT
  0
POLYLINE
  5
5E
  8
THROUGH_CUT
 66
     1
 10
0.0
 20
0.0
 30
0.0
 70
     1
  0
VERTEX
  5
176
  8
THROUGH_CUT
 10
1.953868828297711
 20
41.03640383198232
 30
0.0
  0
VERTEX
  5
177
  8
THROUGH_CUT
 10
7.953868828297711
 20
41.03640383198232
 30
0.0
  0
VERTEX
  5
178
  8
THROUGH_CUT
 10
7.953868828297711
 20
47.03640383198232
 30
0.0
  0
VERTEX
  5
179
  8
THROUGH_CUT
 10
1.953868828297711
 20
47.03640383198232
 30
0.0
  0
SEQEND
  5
17A
  8
THROUGH_CUT
  0
POLYLINE
  5
5F
  8
THROUGH_CUT
 66
     1
 10
0.0
 20
0.0
 30
0.0
 70
     1
  0
VERTEX
  5
17B
  8
THROUGH_CUT
 10
4.953868828297711
 20
46.33640383198232
 30
0.0
 42
0.4142135623730951
  0
VERTEX
  5
17C
  8
THROUGH_CUT
 10
4.578868828297711
 20
45.96140383198232
 30
0.0
 42
0.4142135623730951
  0
VERTEX
  5
17D
  8
THROUGH_CUT
 10
4.953868828297711
 20
45.58640383198232
 30
0.0
 42
0.4142135623730951
  0
VERTEX
  5
17E
  8
THROUGH_CUT
 10
5.328868828297711
 20
45.96140383198232
 30
0.0
 42
0.4142135623730951
  0
SEQEND
  5
17F
  8
THROUGH_CUT
  0
POLYLINE
  5
60
  8
THROUGH_CUT
 66
     1
 10
0.0
 20
0.0
 30
0.0
 70
     1
  0
VERTEX
  5
180
  8
THROUGH_CUT
 10
4.95389416401839
 20
42.48636372455169
 30
0.0
 42
0.4142135623730951
  0
VERTEX
  5
181
  8
THROUGH_CUT
 10
4.57889416401839
 20
42.11136372455169
 30
0.0
 42
0.4142135623730951
  0
VERTEX
  5
182
  8
THROUGH_CUT
 10
4.95389416401839
 20
41.73636372455169
 30
0.0
 42
0.4142135623730951
  0
VERTEX
  5
183
  8
THROUGH_CUT
 10
5.32889416401839
 20
42.11136372455169
 30
0.0
 42
0.4142135623730951
  0
SEQEND
  5
184
  8
THROUGH_CUT
  0
POLYLINE
  5
61
  8
THROUGH_CUT
 66
     1
 10
0.0
 20
0.0
 30
0.0
 70
     1
  0
VERTEX
  5
185
  8
THROUGH_CUT
 10
8.953868828297711
 20
34.03640383198232
 30
0.0
  0
VERTEX
  5
186
  8
THROUGH_CUT
 10
14.95386882829771
 20
34.03640383198232
 30
0.0
  0
VERTEX
  5
187
  8
THROUGH_CUT
 10
14.95386882829771
 20
40.03640383198232
 30
0.0
  0
VERTEX
  5
188
  8
THROUGH_CUT
 10
8.953868828297711
 20
40.03640383198232
 30
0.0
  0
SEQEND
  5
189
  8
THROUGH_CUT
  0
POLYLINE
  5
62
  8
THROUGH_CUT
 66
     1
 10
0.0
 20
0.0
 30
0.0
 70
     1
  0
VERTEX
  5
18A
  8
THROUGH_CUT
 10
15.95386882829771
 20
34.03640383198232
 30
0.0
  0
VERTEX
  5
18B
  8
THROUGH_CUT
 10
21.95386882829771
 20
34.03640383198232
 30
0.0
  0
VERTEX
  5
18C
  8
THROUGH_CUT
 10
21.95386882829771
 20
40.03640383198232
 30
0.0
  0
VERTEX
  5
18D
  8
THROUGH_CUT
 10
15.95386882829771
 20
40.03640383198232
 30
0.0
  0
SEQEND
  5
18E
  8
THROUGH_CUT
  0
POLYLINE
  5
63
  8
THROUGH_CUT
 66
     1
 10
0.0
 20
0.0
 30
0.0
 70
     1
  0
VERTEX
  5
18F
  8
THROUGH_CUT
 10
18.95386882829771
 20
39.33640383198232
 30
0.0
 42
0.4142135623730951
  0
VERTEX
  5
190
  8
THROUGH_CUT
 10
18.57886882829771
 20
38.96140383198232
 30
0.0
 42
0.4142135623730951
  0
VERTEX
  5
191
  8
THROUGH_CUT
 10
18.95386882829771
 20
38.58640383198232
 30
0.0
 42
0.4142135623730951
  0
VERTEX
  5
192
  8
THROUGH_CUT
 10
19.32886882829771
 20
38.96140383198232
 30
0.0
 42
0.4142135623730951
  0
SEQEND
  5
193
  8
THROUGH_CUT
  0
POLYLINE
  5
64
  8
THROUGH_CUT
 66
     1
 10
0.0
 20
0.0
 30
0.0
 70
     1
  0
VERTEX
  5
194
  8
THROUGH_CUT
 10
36.95386882829771
 20
41.03640383198232
 30
0.0
  0
VERTEX
  5
195
  8
THROUGH_CUT
 10
42.95386882829771
 20
41.03640383198232
 30
0.0
  0
VERTEX
  5
196
  8
THROUGH_CUT
 10
42.95386882829771
 20
47.03640383198232
 30
0.0
  0
VERTEX
  5
197
  8
THROUGH_CUT
 10
36.95386882829771
 20
47.03640383198232
 30
0.0
  0
SEQEND
  5
198
  8
THROUGH_CUT
  0
POLYLINE
  5
65
  8
THROUGH_CUT
 66
     1
 10
0.0
 20
0.0
 30
0.0
 70
     1
  0
VERTEX
  5
199
  8
THROUGH_CUT
 10
39.95386882829771
 20
46.33640383198232
 30
0.0
 42
0.4142135623730951
  0
VERTEX
  5
19A
  8
THROUGH_CUT
 10
39.57886882829771
 20
45.96140383198232
 30
0.0
 42
0.4142135623730951
  0
VERTEX
  5
19B
  8
THROUGH_CUT
 10
39.95386882829771
 20
45.58640383198232
 30
0.0
 42
0.4142135623730951
  0
VERTEX
  5
19C
  8
THROUGH_CUT
 10
40.32886882829771
 20
45.96140383198232
 30
0.0
 42
0.4142135623730951
  0
SEQEND
  5
19D
  8
THROUGH_CUT
  0
POLYLINE
  5
66
  8
THROUGH_CUT
 66
     1
 10
0.0
 20
0.0
 30
0.0
 70
     1
  0
VERTEX
  5
19E
  8
THROUGH_CUT
 10
39.95389416401839
 20
42.48636372455169
 30
0.0
 42
0.4142135623730951
  0
VERTEX
  5
19F
  8
THROUGH_CUT
 10
39.57889416401839
 20
42.11136372455169
 30
0.0
 42
0.4142135623730951
  0
VERTEX
  5
1A0
  8
THROUGH_CUT
 10
39.95389416401839
 20
41.73636372455169
 30
0.0
 42
0.4142135623730951
  0
VERTEX
  5
1A1
  8
THROUGH_CUT
 10
40.32889416401839
 20
42.11136372455169
 30
0.0
 42
0.4142135623730951
  0
SEQEND
  5
1A2
  8
THROUGH_CUT
  0
POLYLINE
  5
67
  8
THROUGH_CUT
 66
     1
 10
0.0
 20
0.0
 30
0.0
 70
     1
  0
VERTEX
  5
1A3
  8
THROUGH_CUT
 10
29.95386882829771
 20
41.03640383198232
 30
0.0
  0
VERTEX
  5
1A4
  8
THROUGH_CUT
 10
35.95386882829771
 20
41.03640383198232
 30
0.0
  0
VERTEX
  5
1A5
  8
THROUGH_CUT
 10
35.95386882829771
 20
47.03640383198232
 30
0.0
  0
VERTEX
  5
1A6
  8
THROUGH_CUT
 10
29.95386882829771
 20
47.03640383198232
 30
0.0
  0
SEQEND
  5
1A7
  8
THROUGH_CUT
  0
POLYLINE
  5
68
  8
THROUGH_CUT
 66
     1
 10
0.0
 20
0.0
 30
0.0
 70
     1
  0
VERTEX
  5
1A8
  8
THROUGH_CUT
 10
32.95386882829771
 20
46.33640383198232
 30
0.0
 42
0.4142135623730951
  0
VERTEX
  5
1A9
  8
THROUGH_CUT
 10
32.57886882829771
 20
45.96140383198232
 30
0.0
 42
0.4142135623730951
  0
VERTEX
  5
1AA
  8
THROUGH_CUT
 10
32.95386882829771
 20
45.58640383198232
 30
0.0
 42
0.4142135623730951
  0
VERTEX
  5
1AB
  8
THROUGH_CUT
 10
33.32886882829771
 20
45.96140383198232
 30
0.0
 42
0.4142135623730951
  0
SEQEND
  5
1AC
  8
THROUGH_CUT
  0
POLYLINE
  5
69
  8
THROUGH_CUT
 66
     1
 10
0.0
 20
0.0
 30
0.0
 70
     1
  0
VERTEX
  5
1AD
  8
THROUGH_CUT
 10
32.95389416401839
 20
42.48636372455169
 30
0.0
 42
0.4142135623730951
  0
VERTEX
  5
1AE
  8
THROUGH_CUT
 10
32.57889416401839
 20
42.11136372455169
 30
0.0
 42
0.4142135623730951
  0
VERTEX
  5
1AF
  8
THROUGH_CUT
 10
32.95389416401839
 20
41.73636372455169
 30
0.0
 42
0.4142135623730951
  0
VERTEX
  5
1B0
  8
THROUGH_CUT
 10
33.32889416401839
 20
42.11136372455169
 30
0.0
 42
0.4142135623730951
  0
SEQEND
  5
1B1
  8
THROUGH_CUT
  0
POLYLINE
  5
6A
  8
THROUGH_CUT
 66
     1
 10
0.0
 20
0.0
 30
0.0
 70
     1
  0
VERTEX
  5
1B2
  8
THROUGH_CUT
 10
22.95386882829771
 20
41.03640383198232
 30
0.0
  0
VERTEX
  5
1B3
  8
THROUGH_CUT
 10
28.95386882829771
 20
41.03640383198232
 30
0.0
  0
VERTEX
  5
1B4
  8
THROUGH_CUT
 10
28.95386882829771
 20
47.03640383198232
 30
0.0
  0
VERTEX
  5
1B5
  8
THROUGH_CUT
 10
22.95386882829771
 20
47.03640383198232
 30
0.0
  0
SEQEND
  5
1B6
  8
THROUGH_CUT
  0
POLYLINE
  5
6B
  8
THROUGH_CUT
 66
     1
 10
0.0
 20
0.0
 30
0.0
 70
     1
  0
VERTEX
  5
1B7
  8
THROUGH_CUT
 10
25.95386882829771
 20
46.33640383198232
 30
0.0
 42
0.4142135623730951
  0
VERTEX
  5
1B8
  8
THROUGH_CUT
 10
25.57886882829771
 20
45.96140383198232
 30
0.0
 42
0.4142135623730951
  0
VERTEX
  5
1B9
  8
THROUGH_CUT
 10
25.95386882829771
 20
45.58640383198232
 30
0.0
 42
0.4142135623730951
  0
VERTEX
  5
1BA
  8
THROUGH_CUT
 10
26.32886882829771
 20
45.96140383198232
 30
0.0
 42
0.4142135623730951
  0
SEQEND
  5
1BB
  8
THROUGH_CUT
  0
POLYLINE
  5
6C
  8
THROUGH_CUT
 66
     1
 10
0.0
 20
0.0
 30
0.0
 70
     1
  0
VERTEX
  5
1BC
  8
THROUGH_CUT
 10
25.95389416401839
 20
42.48636372455169
 30
0.0
 42
0.4142135623730951
  0
VERTEX
  5
1BD
  8
THROUGH_CUT
 10
25.57889416401839
 20
42.11136372455169
 30
0.0
 42
0.4142135623730951
  0
VERTEX
  5
1BE
  8
THROUGH_CUT
 10
25.95389416401839
 20
41.73636372455169
 30
0.0
 42
0.4142135623730951
  0
VERTEX
  5
1BF
  8
THROUGH_CUT
 10
26.32889416401839
 20
42.11136372455169
 30
0.0
 42
0.4142135623730951
  0
SEQEND
  5
1C0
  8
THROUGH_CUT
  0
POLYLINE
  5
6D
  8
THROUGH_CUT
 66
     1
 10
0.0
 20
0.0
 30
0.0
 70
     1
  0
VERTEX
  5
1C1
  8
THROUGH_CUT
 10
15.95386882829771
 20
41.03640383198232
 30
0.0
  0
VERTEX
  5
1C2
  8
THROUGH_CUT
 10
21.95386882829771
 20
41.03640383198232
 30
0.0
  0
VERTEX
  5
1C3
  8
THROUGH_CUT
 10
21.95386882829771
 20
47.03640383198232
 30
0.0
  0
VERTEX
  5
1C4
  8
THROUGH_CUT
 10
15.95386882829771
 20
47.03640383198232
 30
0.0
  0
SEQEND
  5
1C5
  8
THROUGH_CUT
  0
POLYLINE
  5
6E
  8
THROUGH_CUT
 66
     1
 10
0.0
 20
0.0
 30
0.0
 70
     1
  0
VERTEX
  5
1C6
  8
THROUGH_CUT
 10
18.95386882829771
 20
46.33640383198232
 30
0.0
 42
0.4142135623730951
  0
VERTEX
  5
1C7
  8
THROUGH_CUT
 10
18.57886882829771
 20
45.96140383198232
 30
0.0
 42
0.4142135623730951
  0
VERTEX
  5
1C8
  8
THROUGH_CUT
 10
18.95386882829771
 20
45.58640383198232
 30
0.0
 42
0.4142135623730951
  0
VERTEX
  5
1C9
  8
THROUGH_CUT
 10
19.32886882829771
 20
45.96140383198232
 30
0.0
 42
0.4142135623730951
  0
SEQEND
  5
1CA
  8
THROUGH_CUT
  0
POLYLINE
  5
6F
  8
THROUGH_CUT
 66
     1
 10
0.0
 20
0.0
 30
0.0
 70
     1
  0
VERTEX
  5
1CB
  8
THROUGH_CUT
 10
18.95389416401839
 20
42.48636372455169
 30
0.0
 42
0.4142135623730951
  0
VERTEX
  5
1CC
  8
THROUGH_CUT
 10
18.57889416401839
 20
42.11136372455169
 30
0.0
 42
0.4142135623730951
  0
VERTEX
  5
1CD
  8
THROUGH_CUT
 10
18.95389416401839
 20
41.73636372455169
 30
0.0
 42
0.4142135623730951
  0
VERTEX
  5
1CE
  8
THROUGH_CUT
 10
19.32889416401839
 20
42.11136372455169
 30
0.0
 42
0.4142135623730951
  0
SEQEND
  5
1CF
  8
THROUGH_CUT
  0
POLYLINE
  5
70
  8
THROUGH_CUT
 66
     1
 10
0.0
 20
0.0
 30
0.0
 70
     1
  0
VERTEX
  5
1D0
  8
THROUGH_CUT
 10
8.953868828297711
 20
41.03640383198232
 30
0.0
  0
VERTEX
  5
1D1
  8
THROUGH_CUT
 10
14.95386882829771
 20
41.03640383198232
 30
0.0
  0
VERTEX
  5
1D2
  8
THROUGH_CUT
 10
14.95386882829771
 20
47.03640383198232
 30
0.0
  0
VERTEX
  5
1D3
  8
THROUGH_CUT
 10
8.953868828297711
 20
47.03640383198232
 30
0.0
  0
SEQEND
  5
1D4
  8
THROUGH_CUT
  0
POLYLINE
  5
71
  8
THROUGH_CUT
 66
     1
 10
0.0
 20
0.0
 30
0.0
 70
     1
  0
VERTEX
  5
1D5
  8
THROUGH_CUT
 10
43.79880987619261
 20
36.16100136524823
 30
0.0
 42
0.4142135623730951
  0
VERTEX
  5
1D6
  8
THROUGH_CUT
 10
43.5988098761926
 20
35.96100136524822
 30
0.0
 42
0.4142135623730951
  0
VERTEX
  5
1D7
  8
THROUGH_CUT
 10
43.79880987619261
 20
35.76100136524822
 30
0.0
 42
0.4142135623730951
  0
VERTEX
  5
1D8
  8
THROUGH_CUT
 10
43.99880987619261
 20
35.96100136524822
 30
0.0
 42
0.4142135623730951
  0
SEQEND
  5
1D9
  8
THROUGH_CUT
  0
POLYLINE
  5
72
  8
THROUGH_CUT
 66
     1
 10
0.0
 20
0.0
 30
0.0
 70
     1
  0
VERTEX
  5
1DA
  8
THROUGH_CUT
 10
90.90616499999999
 20
32.94170300000002
 30
0.0
 42
0.4142135623730951
  0
VERTEX
  5
1DB
  8
THROUGH_CUT
 10
90.70616499999994
 20
32.74170300000003
 30
0.0
 42
0.4142135623730951
  0
VERTEX
  5
1DC
  8
THROUGH_CUT
 10
90.90616499999999
 20
32.54170300000004
 30
0.0
 42
0.4142135623730951
  0
VERTEX
  5
1DD
  8
THROUGH_CUT
 10
91.10616500000003
 20
32.74170300000003
 30
0.0
 42
0.4142135623730951
  0
SEQEND
  5
1DE
  8
THROUGH_CUT
  0
POLYLINE
  5
73
  8
THROUGH_CUT
 66
     1
 10
0.0
 20
0.0
 30
0.0
 70
     1
  0
VERTEX
  5
1DF
  8
THROUGH_CUT
 10
91.97181011318784
 20
20.04025877939214
 30
0.0
 42
0.4142135623730951
  0
VERTEX
  5
1E0
  8
THROUGH_CUT
 10
91.77181011318783
 20
19.84025877939212
 30
0.0
 42
0.4142135623730951
  0
VERTEX
  5
1E1
  8
THROUGH_CUT
 10
91.97181011318784
 20
19.6402587793921
 30
0.0
 42
0.4142135623730951
  0
VERTEX
  5
1E2
  8
THROUGH_CUT
 10
92.17181011318786
 20
19.84025877939212
 30
0.0
 42
0.4142135623730951
  0
SEQEND
  5
1E3
  8
THROUGH_CUT
  0
POLYLINE
  5
74
  8
THROUGH_CUT
 66
     1
 10
0.0
 20
0.0
 30
0.0
 70
     1
  0
VERTEX
  5
1E4
  8
THROUGH_CUT
 10
72.92516024119834
 20
36.26347536884821
 30
0.0
 42
0.4142135623730951
  0
VERTEX
  5
1E5
  8
THROUGH_CUT
 10
72.72516024119834
 20
36.06347536884821
 30
0.0
 42
0.4142135623730951
  0
VERTEX
  5
1E6
  8
THROUGH_CUT
 10
72.92516024119834
 20
35.86347536884821
 30
0.0
 42
0.4142135623730951
  0
VERTEX
  5
1E7
  8
THROUGH_CUT
 10
73.12516024119834
 20
36.06347536884821
 30
0.0
 42
0.4142135623730951
  0
SEQEND
  5
1E8
  8
THROUGH_CUT
  0
POLYLINE
  5
75
  8
THROUGH_CUT
 66
     1
 10
0.0
 20
0.0
 30
0.0
 70
     1
  0
VERTEX
  5
1E9
  8
THROUGH_CUT
 10
64.393507
 20
45.09428400000002
 30
0.0
 42
0.4142135623730847
  0
VERTEX
  5
1EA
  8
THROUGH_CUT
 10
64.19350699999995
 20
44.89428400000003
 30
0.0
 42
0.4142135623730951
  0
VERTEX
  5
1EB
  8
THROUGH_CUT
 10
64.393507
 20
44.69428400000004
 30
0.0
 42
0.4142135623730951
  0
VERTEX
  5
1EC
  8
THROUGH_CUT
 10
64.59350700000005
 20
44.89428400000003
 30
0.0
 42
0.4142135623730847
  0
SEQEND
  5
1ED
  8
THROUGH_CUT
  0
POLYLINE
  5
76
  8
THROUGH_CUT
 66
     1
 10
0.0
 20
0.0
 30
0.0
 70
     1
  0
VERTEX
  5
1EE
  8
THROUGH_CUT
 10
52.41595100000006
 20
45.82786300000004
 30
0.0
 42
0.4142135623730951
  0
VERTEX
  5
1EF
  8
THROUGH_CUT
 10
52.21595100000002
 20
45.62786300000005
 30
0.0
 42
0.4142135623731054
  0
VERTEX
  5
1F0
  8
THROUGH_CUT
 10
52.41595100000006
 20
45.42786300000006
 30
0.0
 42
0.4142135623731054
  0
VERTEX
  5
1F1
  8
THROUGH_CUT
 10
52.61595100000011
 20
45.62786300000005
 30
0.0
 42
0.4142135623730951
  0
SEQEND
  5
1F2
  8
THROUGH_CUT
  0
POLYLINE
  5
77
  8
THROUGH_CUT
 66
     1
 10
0.0
 20
0.0
 30
0.0
 70
     1
  0
VERTEX
  5
1F3
  8
THROUGH_CUT
 10
80.90131000000008
 20
39.56762800000001
 30
0.0
 42
0.4142135623731054
  0
VERTEX
  5
1F4
  8
THROUGH_CUT
 10
80.70131000000003
 20
39.36762800000002
 30
0.0
 42
0.4142135623730951
  0
VERTEX
  5
1F5
  8
THROUGH_CUT
 10
80.90131000000008
 20
39.16762800000004
 30
0.0
 42
0.4142135623730951
  0
VERTEX
  5
1F6
  8
THROUGH_CUT
 10
81.10131000000013
 20
39.36762800000002
 30
0.0
 42
0.4142135623731054
  0
SEQEND
  5
1F7
  8
THROUGH_CUT
  0
POLYLINE
  5
78
  8
THROUGH_CUT
 66
     1
 10
0.0
 20
0.0
 30
0.0
 70
     1
  0
VERTEX
  5
1F8
  8
THROUGH_CUT
 10
70.97410443946
 20
40.93691561876427
 30
0.0
  0
VERTEX
  5
1F9
  8
THROUGH_CUT
 10
71.2845781281147
 20
40.83800362613757
 30
0.0
 42
-0.4185033437533945
  0
VERTEX
  5
1FA
  8
THROUGH_CUT
 10
71.60693931066652
 20
40.20286978216198
 30
0.0
  0
VERTEX
  5
1FB
  8
THROUGH_CUT
 10
71.25372303741756
 20
39.14776515708947
 30
0.0
 42
0.4142135623731988
  0
VERTEX
  5
1FC
  8
THROUGH_CUT
 10
71.0132349402652
 20
39.02790909705047
 30
0.0
 42
0.4142135623732207
  0
VERTEX
  5
1FD
  8
THROUGH_CUT
 10
71.13309100030426
 20
38.78742099989815
 30
0.0
  0
VERTEX
  5
1FE
  8
THROUGH_CUT
 10
71.84422300030425
 20
38.54932799989819
 30
0.0
 42
1.0
  0
VERTEX
  5
1FF
  8
THROUGH_CUT
 10
71.9648570759397
 20
38.90967147464909
 30
0.0
  0
VERTEX
  5
200
  8
THROUGH_CUT
 10
72.31812613463399
 20
39.96491394624222
 30
0.0
 42
-0.4184182896903247
  0
VERTEX
  5
201
  8
THROUGH_CUT
 10
72.95777128100869
 20
40.27799712094817
 30
0.0
  0
VERTEX
  5
202
  8
THROUGH_CUT
 10
73.22932436841705
 20
40.18273787026752
 30
0.0
 42
-0.0197288285942818
  0
VERTEX
  5
203
  8
THROUGH_CUT
 10
77.17856740887953
 20
38.58611372623444
 30
0.0
 42
0.3983185116128241
  0
VERTEX
  5
204
  8
THROUGH_CUT
 10
78.47747208042445
 20
39.03750889057206
 30
0.0
  0
VERTEX
  5
205
  8
THROUGH_CUT
 10
78.975353340064
 20
39.99801771855041
 30
0.0
 42
-0.4142135623730687
  0
VERTEX
  5
206
  8
THROUGH_CUT
 10
81.67138381368667
 20
40.85324706635186
 30
0.0
 42
-0.0534126173397542
  0
VERTEX
  5
207
  8
THROUGH_CUT
 10
91.97352951951979
 20
34.03056399555578
 30
0.0
 42
-0.4142135623731076
  0
VERTEX
  5
208
  8
THROUGH_CUT
 10
92.2382499787387
 20
31.21455249958388
 30
0.0
  0
VERTEX
  5
209
  8
THROUGH_CUT
 10
91.54820201108714
 20
30.38130850005533
 30
0.0
 42
0.3983185166685053
  0
VERTEX
  5
20A
  8
THROUGH_CUT
 10
91.63950142176822
 20
29.00923860847227
 30
0.0
 42
-0.0186274482162148
  0
VERTEX
  5
20B
  8
THROUGH_CUT
 10
94.48993425092867
 20
26.17144826268682
 30
0.0
 42
-0.4218421884789842
  0
VERTEX
  5
20C
  8
THROUGH_CUT
 10
94.4207901500236
 20
24.74065694709616
 30
0.0
  0
VERTEX
  5
20D
  8
THROUGH_CUT
 10
93.96875100072035
 20
24.34087954983009
 30
0.0
 42
0.414213562373138
  0
VERTEX
  5
20E
  8
THROUGH_CUT
 10
93.70055472554631
 20
24.35733427507215
 30
0.0
 42
0.4142135623731447
  0
VERTEX
  5
20F
  8
THROUGH_CUT
 10
93.68410000030428
 20
24.08913799989811
 30
0.0
  0
VERTEX
  5
210
  8
THROUGH_CUT
 10
95.08039700030426
 20
22.51039299989812
 30
0.0
  0
VERTEX
  5
211
  8
THROUGH_CUT
 10
93.56913896717396
 20
17.99635192902482
 30
0.0
 42
-0.4142135623731362
  0
VERTEX
  5
212
  8
THROUGH_CUT
 10
92.30339992943095
 20
17.36555503302851
 30
0.0
  0
VERTEX
  5
213
  8
THROUGH_CUT
 10
88.98346630152199
 20
18.47703807465827
 30
0.0
 42
0.2968052386354472
  0
VERTEX
  5
214
  8
THROUGH_CUT
 10
87.33854424122414
 20
24.81362777580173
 30
0.0
 42
0.2114269624237699
  0
VERTEX
  5
215
  8
THROUGH_CUT
 10
50.49140890362437
 20
37.14914039996479
 30
0.0
 42
0.2967978084954839
  0
VERTEX
  5
216
  8
THROUGH_CUT
 10
45.36299384969545
 20
33.0802692125182
 30
0.0
  0
VERTEX
  5
217
  8
THROUGH_CUT
 10
42.04405592943101
 20
34.1914180330286
 30
0.0
 42
-0.4142135623731131
  0
VERTEX
  5
218
  8
THROUGH_CUT
 10
41.41325903343467
 20
35.45715707077158
 30
0.0
  0
VERTEX
  5
219
  8
THROUGH_CUT
 10
42.92466500030426
 20
39.9716389998982
 30
0.0
  0
VERTEX
  5
21A
  8
THROUGH_CUT
 10
44.99005800030426
 20
40.3914439998982
 30
0.0
 42
0.4142135623731248
  0
VERTEX
  5
21B
  8
THROUGH_CUT
 10
45.13839980405445
 20
40.61548575774736
 30
0.0
 42
0.4142135623730773
  0
VERTEX
  5
21C
  8
THROUGH_CUT
 10
44.91435804620527
 20
40.76382756149756
 30
0.0
  0
VERTEX
  5
21D
  8
THROUGH_CUT
 10
44.79414300897412
 20
41.35518992432518
 30
0.0
 42
-0.4218421884789567
  0
VERTEX
  5
21E
  8
THROUGH_CUT
 10
45.60040931128383
 20
42.53919887788151
 30
0.0
 42
-0.0186200105347503
  0
VERTEX
  5
21F
  8
THROUGH_CUT
 10
49.58308969161094
 20
43.08964518288369
 30
0.0
 42
0.3983185166685159
  0
VERTEX
  5
220
  8
THROUGH_CUT
 10
50.4821168032278
 20
44.13015554349312
 30
0.0
  0
VERTEX
  5
221
  8
THROUGH_CUT
 10
50.4328738944573
 20
45.2109129127084
 30
0.0
 42
-0.4142135623731229
  0
VERTEX
  5
222
  8
THROUGH_CUT
 10
52.33976824400109
 20
47.29987210379843
 30
0.0
 42
-0.0534128186252403
  0
VERTEX
  5
223
  8
THROUGH_CUT
 10
64.67319229389379
 20
46.54421696235884
 30
0.0
 42
-0.414213562373041
  0
VERTEX
  5
224
  8
THROUGH_CUT
 10
66.31080559806892
 20
44.23808985784114
 30
0.0
  0
VERTEX
  5
225
  8
THROUGH_CUT
 10
66.12999245142201
 20
43.17142732092675
 30
0.0
 42
0.3983185116128467
  0
VERTEX
  5
226
  8
THROUGH_CUT
 10
66.89526953228395
 20
42.02894727987076
 30
0.0
 42
-0.0195559961656748
  0
SEQEND
  5
227
  8
THROUGH_CUT
  0
POLYLINE
  5
79
  8
THROUGH_CUT
 66
     1
 10
0.0
 20
0.0
 30
0.0
 70
     1
  0
VERTEX
  5
228
  8
THROUGH_CUT
 10
68.7736434795124
 20
37.65275012289622
 30
0.0
 42
0.4142135623730951
  0
VERTEX
  5
229
  8
THROUGH_CUT
 10
68.57364347951238
 20
37.45275012289621
 30
0.0
 42
0.4142135623730951
  0
VERTEX
  5
22A
  8
THROUGH_CUT
 10
68.7736434795124
 20
37.2527501228962
 30
0.0
 42
0.4142135623730951
  0
VERTEX
  5
22B
  8
THROUGH_CUT
 10
68.97364347951242
 20
37.45275012289621
 30
0.0
 42
0.4142135623730951
  0
SEQEND
  5
22C
  8
THROUGH_CUT
  0
POLYLINE
  5
7A
  8
THROUGH_CUT
 66
     1
 10
0.0
 20
0.0
 30
0.0
 70
     1
  0
VERTEX
  5
22D
  8
THROUGH_CUT
 10
78.03329728709124
 20
15.44508705020587
 30
0.0
 42
0.8237336233316559
  0
VERTEX
  5
22E
  8
THROUGH_CUT
 10
78.3109730670545
 20
15.16861591035617
 30
0.0
 42
0.8241469133978765
  0
VERTEX
  5
22F
  8
THROUGH_CUT
 10
78.15743932523108
 20
15.52908513352959
 30
0.0
 42
0.0964029187071587
  0
VERTEX
  5
230
  8
THROUGH_CUT
 10
78.08710257741981
 20
15.49912678095769
 30
0.0
 42
0.0966513828627436
  0
SEQEND
  5
231
  8
THROUGH_CUT
  0
ENDSEC
  0
EOF
