  0
SECTION
  2
HEADER
  9
$ACADVER
  1
AC1009
  9
$DWGCODEPAGE
  3
ansi_1252
  9
$INSBASE
 10
0.0
 20
0.0
 30
0.0
  9
$EXTMIN
 10
2.506999999999999
 20
3.259899000000002
 30
0.0
  9
$EXTMAX
 10
93.493
 20
44.740101
 30
0.0
  9
$LIMMIN
 10
0.0
 20
0.0
  9
$LIMMAX
 10
12.0
 20
9.0
  9
$ORTHOMODE
 70
     0
  9
$REGENMODE
 70
     1
  9
$FILLMODE
 70
     1
  9
$QTEXTMODE
 70
     0
  9
$MIRRTEXT
 70
     1
  9
$DRAGMODE
 70
     2
  9
$LTSCALE
 40
1.0
  9
$OSMODE
 70
    37
  9
$ATTMODE
 70
     1
  9
$TEXTSIZE
 40
0.2
  9
$TRACEWID
 40
0.05
  9
$TEXTSTYLE
  7
STANDARD
  9
$CLAYER
  8
0
  9
$CELTYPE
  6
BYLAYER
  9
$CECOLOR
 62
   256
  9
$DIMSCALE
 40
1.0
  9
$DIMASZ
 40
0.18
  9
$DIMEXO
 40
0.0625
  9
$DIMDLI
 40
0.38
  9
$DIMRND
 40
0.0
  9
$DIMDLE
 40
0.0
  9
$DIMEXE
 40
0.18
  9
$DIMTP
 40
0.0
  9
$DIMTM
 40
0.0
  9
$DIMTXT
 40
0.18
  9
$DIMCEN
 40
0.09
  9
$DIMTSZ
 40
0.0
  9
$DIMTOL
 70
     0
  9
$DIMLIM
 70
     0
  9
$DIMTIH
 70
     1
  9
$DIMTOH
 70
     1
  9
$DIMSE1
 70
     0
  9
$DIMSE2
 70
     0
  9
$DIMTAD
 70
     0
  9
$DIMZIN
 70
     0
  9
$DIMBLK
  1

  9
$DIMASO
 70
     1
  9
$DIMSHO
 70
     1
  9
$DIMPOST
  1

  9
$DIMAPOST
  1

  9
$DIMALT
 70
     0
  9
$DIMALTD
 70
     2
  9
$DIMALTF
 40
25.4
  9
$DIMLFAC
 40
1.0
  9
$DIMTOFL
 70
     0
  9
$DIMTVP
 40
0.0
  9
$DIMTIX
 70
     0
  9
$DIMSOXD
 70
     0
  9
$DIMSAH
 70
     0
  9
$DIMBLK1
  1

  9
$DIMBLK2
  1

  9
$DIMSTYLE
  2
STANDARD
  9
$DIMCLRD
 70
     0
  9
$DIMCLRE
 70
     0
  9
$DIMCLRT
 70
     0
  9
$DIMTFAC
 40
1.0
  9
$DIMGAP
 40
0.09
  9
$LUNITS
 70
     2
  9
$LUPREC
 70
     4
  9
$SKETCHINC
 40
0.1
  9
$FILLETRAD
 40
0.5
  9
$AUNITS
 70
     0
  9
$AUPREC
 70
     0
  9
$MENU
  1
.
  9
$ELEVATION
 40
0.0
  9
$PELEVATION
 40
0.0
  9
$THICKNESS
 40
0.0
  9
$LIMCHECK
 70
     0
  9
$CHAMFERA
 40
0.0
  9
$CHAMFERB
 40
0.0
  9
$SKPOLY
 70
     0
  9
$TDCREATE
 40
2454910.5
  9
$TDUPDATE
 40
2456592.438268877
  9
$TDINDWG
 40
0.0000000116
  9
$TDUSRTIMER
 40
0.0000000116
  9
$USRTIMER
 70
     1
  9
$ANGBASE
 50
0.0
  9
$ANGDIR
 70
     0
  9
$PDMODE
 70
     0
  9
$PDSIZE
 40
0.0
  9
$PLINEWID
 40
0.0
  9
$COORDS
 70
     1
  9
$SPLFRAME
 70
     0
  9
$SPLINETYPE
 70
     6
  9
$SPLINESEGS
 70
     8
  9
$ATTDIA
 70
     0
  9
$ATTREQ
 70
     1
  9
$HANDLING
 70
     1
  9
$HANDSEED
  5
16A
  9
$SURFTAB1
 70
     6
  9
$SURFTAB2
 70
     6
  9
$SURFTYPE
 70
     6
  9
$SURFU
 70
     6
  9
$SURFV
 70
     6
  9
$UCSNAME
  2

  9
$UCSORG
 10
0.0
 20
0.0
 30
0.0
  9
$UCSXDIR
 10
1.0
 20
0.0
 30
0.0
  9
$UCSYDIR
 10
0.0
 20
1.0
 30
0.0
  9
$PUCSNAME
  2

  9
$PUCSORG
 10
0.0
 20
0.0
 30
0.0
  9
$PUCSXDIR
 10
1.0
 20
0.0
 30
0.0
  9
$PUCSYDIR
 10
0.0
 20
1.0
 30
0.0
  9
$USERI1
 70
     0
  9
$USERI2
 70
     0
  9
$USERI3
 70
     0
  9
$USERI4
 70
     0
  9
$USERI5
 70
     0
  9
$USERR1
 40
0.0
  9
$USERR2
 40
0.0
  9
$USERR3
 40
0.0
  9
$USERR4
 40
0.0
  9
$USERR5
 40
0.0
  9
$WORLDVIEW
 70
     1
  9
$SHADEDGE
 70
     3
  9
$SHADEDIF
 70
    70
  9
$TILEMODE
 70
     1
  9
$MAXACTVP
 70
    64
  9
$PLIMCHECK
 70
     0
  9
$PEXTMIN
 10
1.000000000000000E+20
 20
1.000000000000000E+20
 30
1.000000000000000E+20
  9
$PEXTMAX
 10
-1.000000000000000E+20
 20
-1.000000000000000E+20
 30
-1.000000000000000E+20
  9
$PLIMMIN
 10
0.0
 20
0.0
  9
$PLIMMAX
 10
12.0
 20
9.0
  9
$UNITMODE
 70
     0
  9
$VISRETAIN
 70
     1
  9
$PLINEGEN
 70
     0
  9
$PSLTSCALE
 70
     1
  0
ENDSEC
  0
SECTION
  2
TABLES
  0
TABLE
  2
VPORT
 70
     1
  0
VPORT
  2
*ACTIVE
 70
     0
 10
0.0
 20
0.0
 11
1.0
 21
1.0
 12
10.42990654205607
 22
4.5
 13
0.0
 23
0.0
 14
0.5
 24
0.5
 15
0.5
 25
0.5
 16
0.0
 26
0.0
 36
1.0
 17
0.0
 27
0.0
 37
0.0
 40
9.0
 41
1.972972972850329
 42
50.0
 43
0.0
 44
0.0
 50
0.0
 51
0.0
 71
     0
 72
   100
 73
     1
 74
     3
 75
     0
 76
     0
 77
     0
 78
     0
  0
ENDTAB
  0
TABLE
  2
LTYPE
 70
     2
  0
LTYPE
  2
CONTINUOUS
 70
     0
  3
Solid line
 72
    65
 73
     0
 40
0.0
  0
LTYPE
  2
CONTINUOUS2
 70
     0
  3
Solid Line
 72
    65
 73
     0
 40
0.0
  0
ENDTAB
  0
TABLE
  2
LAYER
 70
     1
  0
LAYER
  2
0
 70
     0
 62
     7
  6
CONTINUOUS
  0
ENDTAB
  0
TABLE
  2
STYLE
 70
     1
  0
STYLE
  2
STANDARD
 70
     0
 40
0.0
 41
1.0
 50
0.0
 71
     0
 42
0.2
  3
txt
  4

  0
ENDTAB
  0
TABLE
  2
VIEW
 70
     0
  0
ENDTAB
  0
TABLE
  2
UCS
 70
     0
  0
ENDTAB
  0
TABLE
  2
APPID
 70
     1
  0
APPID
  2
ACAD
 70
     0
  0
ENDTAB
  0
TABLE
  2
DIMSTYLE
 70
     1
  0
DIMSTYLE
  2
STANDARD
 70
     0
  3

  4

  5

  6

  7

 40
1.0
 41
0.18
 42
0.0625
 43
0.38
 44
0.18
 45
0.0
 46
0.0
 47
0.0
 48
0.0
140
0.18
141
0.09
142
0.0
143
25.4
144
1.0
145
0.0
146
1.0
147
0.09
 71
     0
 72
     0
 73
     1
 74
     1
 75
     0
 76
     0
 77
     0
 78
     0
170
     0
171
     2
172
     0
173
     0
174
     0
175
     0
176
     0
177
     0
178
     0
  0
ENDTAB
  0
ENDSEC
  0
SECTION
  2
BLOCKS
  0
BLOCK
  8
0
  2
$MODEL_SPACE
 70
     0
 10
0.0
 20
0.0
 30
0.0
  3
$MODEL_SPACE
  1

  0
ENDBLK
  5
21
  8
0
  0
BLOCK
 67
     1
  8
0
  2
$PAPER_SPACE
 70
     0
 10
0.0
 20
0.0
 30
0.0
  3
$PAPER_SPACE
  1

  0
ENDBLK
  5
1D
 67
     1
  8
0
  0
ENDSEC
  0
SECTION
  2
ENTITIES
  0
POLYLINE
  5
6B
  8
0
 66
     1
 10
0.0
 20
0.0
 30
0.0
 70
     1
  0
VERTEX
  5
73
  8
0
 10
3.246999999999999
 20
3.999879000000002
 30
0.0
  0
VERTEX
  5
74
  8
0
 10
7.640591999999999
 20
3.999899000000001
 30
0.0
 42
0.3152984530823174
  0
VERTEX
  5
75
  8
0
 10
7.734561110146438
 20
4.065696935431175
 30
0.0
  0
VERTEX
  5
76
  8
0
 10
7.757916558568275
 20
4.129867257258836
 30
0.0
 42
-0.9999988131768129
  0
VERTEX
  5
77
  8
0
 10
8.114999797840479
 20
3.999899083267924
 30
0.0
  0
VERTEX
  5
78
  8
0
 10
7.845661999999999
 20
3.259899000000002
 30
0.0
  0
VERTEX
  5
79
  8
0
 10
13.702338
 20
3.259899000000002
 30
0.0
  0
VERTEX
  5
7A
  8
0
 10
13.43300020215952
 20
3.999899083267924
 30
0.0
 42
-0.9999988131768085
  0
VERTEX
  5
7B
  8
0
 10
13.79008322071586
 20
4.129867128629419
 30
0.0
  0
VERTEX
  5
7C
  8
0
 10
13.81343888985356
 20
4.065696935431175
 30
0.0
 42
0.3152984530823327
  0
VERTEX
  5
7D
  8
0
 10
13.907408
 20
3.999899000000001
 30
0.0
  0
VERTEX
  5
7E
  8
0
 10
18.276592
 20
3.999899000000001
 30
0.0
 42
0.3152984530823326
  0
VERTEX
  5
7F
  8
0
 10
18.37056111014644
 20
4.065696935431175
 30
0.0
  0
VERTEX
  5
80
  8
0
 10
18.39391655856828
 20
4.129867257258836
 30
0.0
 42
-0.9999988131768085
  0
VERTEX
  5
81
  8
0
 10
18.75099979784048
 20
3.999899083267924
 30
0.0
  0
VERTEX
  5
82
  8
0
 10
18.481662
 20
3.259899000000002
 30
0.0
  0
VERTEX
  5
83
  8
0
 10
24.338338
 20
3.259899000000002
 30
0.0
  0
VERTEX
  5
84
  8
0
 10
24.06900020215952
 20
3.999899083267924
 30
0.0
 42
-0.9999988131768203
  0
VERTEX
  5
85
  8
0
 10
24.42608322071586
 20
4.129867128629419
 30
0.0
  0
VERTEX
  5
86
  8
0
 10
24.44943888985356
 20
4.065696935431175
 30
0.0
 42
0.3152984530823149
  0
VERTEX
  5
87
  8
0
 10
24.543408
 20
3.999899000000001
 30
0.0
  0
VERTEX
  5
88
  8
0
 10
28.912592
 20
3.999899000000001
 30
0.0
 42
0.3152984530823149
  0
VERTEX
  5
89
  8
0
 10
29.00656111014644
 20
4.065696935431175
 30
0.0
  0
VERTEX
  5
8A
  8
0
 10
29.02991655856828
 20
4.129867257258836
 30
0.0
 42
-0.9999988131768205
  0
VERTEX
  5
8B
  8
0
 10
29.38699979784048
 20
3.999899083267924
 30
0.0
  0
VERTEX
  5
8C
  8
0
 10
29.117662
 20
3.259899000000002
 30
0.0
  0
VERTEX
  5
8D
  8
0
 10
34.974338
 20
3.259899000000002
 30
0.0
  0
VERTEX
  5
8E
  8
0
 10
34.70500020215952
 20
3.999899083267924
 30
0.0
 42
-0.9999988131768203
  0
VERTEX
  5
8F
  8
0
 10
35.06208322071586
 20
4.129867128629419
 30
0.0
  0
VERTEX
  5
90
  8
0
 10
35.08543888985356
 20
4.065696935431175
 30
0.0
 42
0.3152984530823149
  0
VERTEX
  5
91
  8
0
 10
35.179408
 20
3.999899000000001
 30
0.0
  0
VERTEX
  5
92
  8
0
 10
39.548592
 20
3.999899000000001
 30
0.0
 42
0.3152984530823504
  0
VERTEX
  5
93
  8
0
 10
39.64256111014644
 20
4.065696935431175
 30
0.0
  0
VERTEX
  5
94
  8
0
 10
39.66591655856827
 20
4.129867257258836
 30
0.0
 42
-0.999998813176803
  0
VERTEX
  5
95
  8
0
 10
40.02299979784048
 20
3.999899083267924
 30
0.0
  0
VERTEX
  5
96
  8
0
 10
39.753662
 20
3.259899000000002
 30
0.0
  0
VERTEX
  5
97
  8
0
 10
45.610338
 20
3.259899000000002
 30
0.0
  0
VERTEX
  5
98
  8
0
 10
45.34100020215952
 20
3.999899083267924
 30
0.0
 42
-0.999998813176803
  0
VERTEX
  5
99
  8
0
 10
45.69808322071586
 20
4.129867128629419
 30
0.0
  0
VERTEX
  5
9A
  8
0
 10
45.72143888985356
 20
4.065696935431175
 30
0.0
 42
0.3152984530823504
  0
VERTEX
  5
9B
  8
0
 10
45.815408
 20
3.999899000000001
 30
0.0
  0
VERTEX
  5
9C
  8
0
 10
50.184592
 20
3.999899000000001
 30
0.0
 42
0.3152984530823504
  0
VERTEX
  5
9D
  8
0
 10
50.27856111014644
 20
4.065696935431175
 30
0.0
  0
VERTEX
  5
9E
  8
0
 10
50.30191655856827
 20
4.129867257258836
 30
0.0
 42
-0.999998813176803
  0
VERTEX
  5
9F
  8
0
 10
50.65899979784048
 20
3.999899083267924
 30
0.0
  0
VERTEX
  5
A0
  8
0
 10
50.389662
 20
3.259899000000002
 30
0.0
  0
VERTEX
  5
A1
  8
0
 10
56.246338
 20
3.259899000000002
 30
0.0
  0
VERTEX
  5
A2
  8
0
 10
55.97700020215952
 20
3.999899083267924
 30
0.0
 42
-0.999998813176803
  0
VERTEX
  5
A3
  8
0
 10
56.33408322071586
 20
4.129867128629419
 30
0.0
  0
VERTEX
  5
A4
  8
0
 10
56.35743888985356
 20
4.065696935431175
 30
0.0
 42
0.3152984530823504
  0
VERTEX
  5
A5
  8
0
 10
56.451408
 20
3.999899000000001
 30
0.0
  0
VERTEX
  5
A6
  8
0
 10
60.820592
 20
3.999899000000001
 30
0.0
 42
0.3152984530823504
  0
VERTEX
  5
A7
  8
0
 10
60.91456111014644
 20
4.065696935431175
 30
0.0
  0
VERTEX
  5
A8
  8
0
 10
60.93791655856828
 20
4.129867257258836
 30
0.0
 42
-0.999998813176803
  0
VERTEX
  5
A9
  8
0
 10
61.29499979784048
 20
3.999899083267924
 30
0.0
  0
VERTEX
  5
AA
  8
0
 10
61.025662
 20
3.259899000000002
 30
0.0
  0
VERTEX
  5
AB
  8
0
 10
66.882338
 20
3.259899000000002
 30
0.0
  0
VERTEX
  5
AC
  8
0
 10
66.61300020215953
 20
3.999899083267924
 30
0.0
 42
-0.999998813176803
  0
VERTEX
  5
AD
  8
0
 10
66.97008322071586
 20
4.129867128629419
 30
0.0
  0
VERTEX
  5
AE
  8
0
 10
66.99343888985356
 20
4.065696935431175
 30
0.0
 42
0.3152984530823504
  0
VERTEX
  5
AF
  8
0
 10
67.087408
 20
3.999899000000001
 30
0.0
  0
VERTEX
  5
B0
  8
0
 10
71.456592
 20
3.999899000000001
 30
0.0
 42
0.3152984530822793
  0
VERTEX
  5
B1
  8
0
 10
71.55056111014645
 20
4.065696935431175
 30
0.0
  0
VERTEX
  5
B2
  8
0
 10
71.57391655856829
 20
4.129867257258836
 30
0.0
 42
-0.9999988131768379
  0
VERTEX
  5
B3
  8
0
 10
71.93099979784049
 20
3.999899083267924
 30
0.0
  0
VERTEX
  5
B4
  8
0
 10
71.66166199999999
 20
3.259899000000002
 30
0.0
  0
VERTEX
  5
B5
  8
0
 10
77.518338
 20
3.259899000000002
 30
0.0
  0
VERTEX
  5
B6
  8
0
 10
77.24900020215952
 20
3.999899083267924
 30
0.0
 42
-0.9999988131768379
  0
VERTEX
  5
B7
  8
0
 10
77.60608322071586
 20
4.129867128629419
 30
0.0
  0
VERTEX
  5
B8
  8
0
 10
77.62943888985356
 20
4.065696935431175
 30
0.0
 42
0.3152984530822794
  0
VERTEX
  5
B9
  8
0
 10
77.723408
 20
3.999899000000001
 30
0.0
  0
VERTEX
  5
BA
  8
0
 10
82.092592
 20
3.999899000000001
 30
0.0
 42
0.3152984530822793
  0
VERTEX
  5
BB
  8
0
 10
82.18656111014644
 20
4.065696935431175
 30
0.0
  0
VERTEX
  5
BC
  8
0
 10
82.20991655856828
 20
4.129867257258836
 30
0.0
 42
-0.9999988131768379
  0
VERTEX
  5
BD
  8
0
 10
82.56699979784048
 20
3.999899083267924
 30
0.0
  0
VERTEX
  5
BE
  8
0
 10
82.297662
 20
3.259899000000002
 30
0.0
  0
VERTEX
  5
BF
  8
0
 10
88.154338
 20
3.259899000000002
 30
0.0
  0
VERTEX
  5
C0
  8
0
 10
87.88500020215952
 20
3.999899083267924
 30
0.0
 42
-0.9999988131768379
  0
VERTEX
  5
C1
  8
0
 10
88.24208322071586
 20
4.129867128629419
 30
0.0
  0
VERTEX
  5
C2
  8
0
 10
88.26543888985356
 20
4.065696935431175
 30
0.0
 42
0.3152984530822794
  0
VERTEX
  5
C3
  8
0
 10
88.359408
 20
3.999899000000001
 30
0.0
  0
VERTEX
  5
C4
  8
0
 10
92.753
 20
3.999859000000002
 30
0.0
  0
VERTEX
  5
C5
  8
0
 10
92.753
 20
7.970172000000002
 30
0.0
 42
0.3152984530824618
  0
VERTEX
  5
C6
  8
0
 10
92.68720206456882
 20
8.06414111014644
 30
0.0
  0
VERTEX
  5
C7
  8
0
 10
92.62303174274118
 20
8.087497558568277
 30
0.0
 42
-0.9999988131768545
  0
VERTEX
  5
C8
  8
0
 10
92.75299991673208
 20
8.444459797840482
 30
0.0
  0
VERTEX
  5
C9
  8
0
 10
93.493
 20
8.175002000000003
 30
0.0
  0
VERTEX
  5
CA
  8
0
 10
93.493
 20
13.158118
 30
0.0
  0
VERTEX
  5
CB
  8
0
 10
92.75299991673208
 20
12.88889920215952
 30
0.0
 42
-0.9999988131768498
  0
VERTEX
  5
CC
  8
0
 10
92.62303187137059
 20
13.24610222071586
 30
0.0
  0
VERTEX
  5
CD
  8
0
 10
92.68720206456882
 20
13.26945888985356
 30
0.0
 42
0.3152984530824771
  0
VERTEX
  5
CE
  8
0
 10
92.753
 20
13.363428
 30
0.0
  0
VERTEX
  5
CF
  8
0
 10
92.753
 20
16.858972
 30
0.0
 42
0.3152984530824593
  0
VERTEX
  5
D0
  8
0
 10
92.68720206456882
 20
16.95294111014644
 30
0.0
  0
VERTEX
  5
D1
  8
0
 10
92.62303174274118
 20
16.97629755856828
 30
0.0
 42
-0.9999988131768618
  0
VERTEX
  5
D2
  8
0
 10
92.75299991673208
 20
17.33329979784048
 30
0.0
  0
VERTEX
  5
D3
  8
0
 10
93.493
 20
17.063882
 30
0.0
  0
VERTEX
  5
D4
  8
0
 10
93.493
 20
22.046998
 30
0.0
  0
VERTEX
  5
D5
  8
0
 10
92.75299991673208
 20
21.77773920215952
 30
0.0
 42
-0.9999988131768618
  0
VERTEX
  5
D6
  8
0
 10
92.62303187137059
 20
22.13490222071586
 30
0.0
  0
VERTEX
  5
D7
  8
0
 10
92.68720206456882
 20
22.15825888985356
 30
0.0
 42
0.3152984530824593
  0
VERTEX
  5
D8
  8
0
 10
92.753
 20
22.252228
 30
0.0
  0
VERTEX
  5
D9
  8
0
 10
92.753
 20
25.747772
 30
0.0
 42
0.3152984530824593
  0
VERTEX
  5
DA
  8
0
 10
92.68720206456882
 20
25.84174111014644
 30
0.0
  0
VERTEX
  5
DB
  8
0
 10
92.62303174274118
 20
25.86509755856828
 30
0.0
 42
-0.9999988131768618
  0
VERTEX
  5
DC
  8
0
 10
92.75299991673208
 20
26.22213979784048
 30
0.0
  0
VERTEX
  5
DD
  8
0
 10
93.493
 20
25.952762
 30
0.0
  0
VERTEX
  5
DE
  8
0
 10
93.493
 20
30.935878
 30
0.0
  0
VERTEX
  5
DF
  8
0
 10
92.75299991673208
 20
30.66657920215952
 30
0.0
 42
-0.9999988131768618
  0
VERTEX
  5
E0
  8
0
 10
92.62303187137059
 20
31.02370222071586
 30
0.0
  0
VERTEX
  5
E1
  8
0
 10
92.68720206456882
 20
31.04705888985356
 30
0.0
 42
0.3152984530824593
  0
VERTEX
  5
E2
  8
0
 10
92.753
 20
31.141028
 30
0.0
  0
VERTEX
  5
E3
  8
0
 10
92.753
 20
34.636572
 30
0.0
 42
0.3152984530824948
  0
VERTEX
  5
E4
  8
0
 10
92.68720206456882
 20
34.73054111014644
 30
0.0
  0
VERTEX
  5
E5
  8
0
 10
92.62303174274118
 20
34.75389755856827
 30
0.0
 42
-0.9999988131768445
  0
VERTEX
  5
E6
  8
0
 10
92.75299991673208
 20
35.11097979784048
 30
0.0
  0
VERTEX
  5
E7
  8
0
 10
93.493
 20
34.84164200000001
 30
0.0
  0
VERTEX
  5
E8
  8
0
 10
93.493
 20
39.824758
 30
0.0
  0
VERTEX
  5
E9
  8
0
 10
92.75299991673208
 20
39.55541920215952
 30
0.0
 42
-0.9999988131768442
  0
VERTEX
  5
EA
  8
0
 10
92.62303187137059
 20
39.91250222071587
 30
0.0
  0
VERTEX
  5
EB
  8
0
 10
92.68720206456882
 20
39.93585888985356
 30
0.0
 42
0.3152984530824948
  0
VERTEX
  5
EC
  8
0
 10
92.753
 20
40.02982799999999
 30
0.0
  0
VERTEX
  5
ED
  8
0
 10
92.753
 20
44.0
 30
0.0
  0
VERTEX
  5
EE
  8
0
 10
88.359408
 20
44.000101
 30
0.0
 42
0.3152984530822603
  0
VERTEX
  5
EF
  8
0
 10
88.26543888985356
 20
43.93430306456883
 30
0.0
  0
VERTEX
  5
F0
  8
0
 10
88.24208344143172
 20
43.87013274274116
 30
0.0
 42
-0.99999881317682
  0
VERTEX
  5
F1
  8
0
 10
87.88500020215952
 20
44.00010091673208
 30
0.0
  0
VERTEX
  5
F2
  8
0
 10
88.154338
 20
44.740101
 30
0.0
  0
VERTEX
  5
F3
  8
0
 10
82.297662
 20
44.740101
 30
0.0
  0
VERTEX
  5
F4
  8
0
 10
82.56699979784048
 20
44.00010091673208
 30
0.0
 42
-0.9999988131768203
  0
VERTEX
  5
F5
  8
0
 10
82.20991677928414
 20
43.87013287137058
 30
0.0
  0
VERTEX
  5
F6
  8
0
 10
82.18656111014644
 20
43.93430306456883
 30
0.0
 42
0.3152984530822603
  0
VERTEX
  5
F7
  8
0
 10
82.092592
 20
44.000101
 30
0.0
  0
VERTEX
  5
F8
  8
0
 10
77.723408
 20
44.000101
 30
0.0
 42
0.3152984530822603
  0
VERTEX
  5
F9
  8
0
 10
77.62943888985356
 20
43.93430306456883
 30
0.0
  0
VERTEX
  5
FA
  8
0
 10
77.60608344143172
 20
43.87013274274116
 30
0.0
 42
-0.99999881317682
  0
VERTEX
  5
FB
  8
0
 10
77.24900020215952
 20
44.00010091673208
 30
0.0
  0
VERTEX
  5
FC
  8
0
 10
77.518338
 20
44.740101
 30
0.0
  0
VERTEX
  5
FD
  8
0
 10
71.66166199999999
 20
44.740101
 30
0.0
  0
VERTEX
  5
FE
  8
0
 10
71.93099979784049
 20
44.00010091673208
 30
0.0
 42
-0.9999988131768203
  0
VERTEX
  5
FF
  8
0
 10
71.57391677928413
 20
43.87013287137058
 30
0.0
  0
VERTEX
  5
100
  8
0
 10
71.55056111014645
 20
43.93430306456883
 30
0.0
 42
0.3152984530822603
  0
VERTEX
  5
101
  8
0
 10
71.456592
 20
44.000101
 30
0.0
  0
VERTEX
  5
102
  8
0
 10
67.087408
 20
44.000101
 30
0.0
 42
0.3152984530823314
  0
VERTEX
  5
103
  8
0
 10
66.99343888985356
 20
43.93430306456883
 30
0.0
  0
VERTEX
  5
104
  8
0
 10
66.97008344143173
 20
43.87013274274116
 30
0.0
 42
-0.9999988131767853
  0
VERTEX
  5
105
  8
0
 10
66.61300020215953
 20
44.00010091673208
 30
0.0
  0
VERTEX
  5
106
  8
0
 10
66.882338
 20
44.740101
 30
0.0
  0
VERTEX
  5
107
  8
0
 10
61.025662
 20
44.740101
 30
0.0
  0
VERTEX
  5
108
  8
0
 10
61.29499979784048
 20
44.00010091673208
 30
0.0
 42
-0.9999988131767851
  0
VERTEX
  5
109
  8
0
 10
60.93791677928414
 20
43.87013287137058
 30
0.0
  0
VERTEX
  5
10A
  8
0
 10
60.91456111014644
 20
43.93430306456883
 30
0.0
 42
0.3152984530823313
  0
VERTEX
  5
10B
  8
0
 10
60.820592
 20
44.000101
 30
0.0
  0
VERTEX
  5
10C
  8
0
 10
56.451408
 20
44.000101
 30
0.0
 42
0.3152984530823314
  0
VERTEX
  5
10D
  8
0
 10
56.35743888985356
 20
43.93430306456883
 30
0.0
  0
VERTEX
  5
10E
  8
0
 10
56.33408344143172
 20
43.87013274274116
 30
0.0
 42
-0.9999988131767853
  0
VERTEX
  5
10F
  8
0
 10
55.97700020215952
 20
44.00010091673208
 30
0.0
  0
VERTEX
  5
110
  8
0
 10
56.246338
 20
44.740101
 30
0.0
  0
VERTEX
  5
111
  8
0
 10
50.389662
 20
44.740101
 30
0.0
  0
VERTEX
  5
112
  8
0
 10
50.65899979784048
 20
44.00010091673208
 30
0.0
 42
-0.9999988131767851
  0
VERTEX
  5
113
  8
0
 10
50.30191677928413
 20
43.87013287137058
 30
0.0
  0
VERTEX
  5
114
  8
0
 10
50.27856111014644
 20
43.93430306456883
 30
0.0
 42
0.3152984530823313
  0
VERTEX
  5
115
  8
0
 10
50.184592
 20
44.000101
 30
0.0
  0
VERTEX
  5
116
  8
0
 10
45.815408
 20
44.000101
 30
0.0
 42
0.3152984530823314
  0
VERTEX
  5
117
  8
0
 10
45.72143888985356
 20
43.93430306456883
 30
0.0
  0
VERTEX
  5
118
  8
0
 10
45.69808344143173
 20
43.87013274274116
 30
0.0
 42
-0.9999988131767853
  0
VERTEX
  5
119
  8
0
 10
45.34100020215952
 20
44.00010091673208
 30
0.0
  0
VERTEX
  5
11A
  8
0
 10
45.610338
 20
44.740101
 30
0.0
  0
VERTEX
  5
11B
  8
0
 10
39.753662
 20
44.740101
 30
0.0
  0
VERTEX
  5
11C
  8
0
 10
40.02299979784048
 20
44.00010091673208
 30
0.0
 42
-0.9999988131767851
  0
VERTEX
  5
11D
  8
0
 10
39.66591677928413
 20
43.87013287137058
 30
0.0
  0
VERTEX
  5
11E
  8
0
 10
39.64256111014644
 20
43.93430306456883
 30
0.0
 42
0.3152984530823313
  0
VERTEX
  5
11F
  8
0
 10
39.548592
 20
44.000101
 30
0.0
  0
VERTEX
  5
120
  8
0
 10
35.179408
 20
44.000101
 30
0.0
 42
0.3152984530822959
  0
VERTEX
  5
121
  8
0
 10
35.08543888985356
 20
43.93430306456883
 30
0.0
  0
VERTEX
  5
122
  8
0
 10
35.06208344143172
 20
43.87013274274116
 30
0.0
 42
-0.9999988131768026
  0
VERTEX
  5
123
  8
0
 10
34.70500020215952
 20
44.00010091673208
 30
0.0
  0
VERTEX
  5
124
  8
0
 10
34.974338
 20
44.740101
 30
0.0
  0
VERTEX
  5
125
  8
0
 10
29.117662
 20
44.740101
 30
0.0
  0
VERTEX
  5
126
  8
0
 10
29.38699979784048
 20
44.00010091673208
 30
0.0
 42
-0.9999988131768026
  0
VERTEX
  5
127
  8
0
 10
29.02991677928414
 20
43.87013287137058
 30
0.0
  0
VERTEX
  5
128
  8
0
 10
29.00656111014644
 20
43.93430306456883
 30
0.0
 42
0.3152984530822958
  0
VERTEX
  5
129
  8
0
 10
28.912592
 20
44.000101
 30
0.0
  0
VERTEX
  5
12A
  8
0
 10
24.543408
 20
44.000101
 30
0.0
 42
0.3152984530822959
  0
VERTEX
  5
12B
  8
0
 10
24.44943888985356
 20
43.93430306456883
 30
0.0
  0
VERTEX
  5
12C
  8
0
 10
24.42608344143172
 20
43.87013274274116
 30
0.0
 42
-0.9999988131768026
  0
VERTEX
  5
12D
  8
0
 10
24.06900020215952
 20
44.00010091673208
 30
0.0
  0
VERTEX
  5
12E
  8
0
 10
24.338338
 20
44.740101
 30
0.0
  0
VERTEX
  5
12F
  8
0
 10
18.481662
 20
44.740101
 30
0.0
  0
VERTEX
  5
130
  8
0
 10
18.75099979784048
 20
44.00010091673208
 30
0.0
 42
-0.9999988131767906
  0
VERTEX
  5
131
  8
0
 10
18.39391677928414
 20
43.87013287137058
 30
0.0
  0
VERTEX
  5
132
  8
0
 10
18.37056111014644
 20
43.93430306456883
 30
0.0
 42
0.3152984530823136
  0
VERTEX
  5
133
  8
0
 10
18.276592
 20
44.000101
 30
0.0
  0
VERTEX
  5
134
  8
0
 10
13.907408
 20
44.000101
 30
0.0
 42
0.3152984530823136
  0
VERTEX
  5
135
  8
0
 10
13.81343888985356
 20
43.93430306456883
 30
0.0
  0
VERTEX
  5
136
  8
0
 10
13.79008344143172
 20
43.87013274274116
 30
0.0
 42
-0.9999988131767906
  0
VERTEX
  5
137
  8
0
 10
13.43300020215952
 20
44.00010091673208
 30
0.0
  0
VERTEX
  5
138
  8
0
 10
13.702338
 20
44.740101
 30
0.0
  0
VERTEX
  5
139
  8
0
 10
7.845661999999999
 20
44.740101
 30
0.0
  0
VERTEX
  5
13A
  8
0
 10
8.114999797840479
 20
44.00010091673208
 30
0.0
 42
-0.9999988131767953
  0
VERTEX
  5
13B
  8
0
 10
7.757916779284137
 20
43.87013287137058
 30
0.0
  0
VERTEX
  5
13C
  8
0
 10
7.734561110146438
 20
43.93430306456883
 30
0.0
 42
0.3152984530822983
  0
VERTEX
  5
13D
  8
0
 10
7.640591999999999
 20
44.000101
 30
0.0
  0
VERTEX
  5
13E
  8
0
 10
3.246999999999999
 20
43.99998
 30
0.0
  0
VERTEX
  5
13F
  8
0
 10
3.246999999999999
 20
40.02982799999999
 30
0.0
 42
0.315298453082352
  0
VERTEX
  5
140
  8
0
 10
3.312797935431173
 20
39.93585888985356
 30
0.0
  0
VERTEX
  5
141
  8
0
 10
3.376968128629416
 20
39.91250222071587
 30
0.0
 42
-0.9999988131768026
  0
VERTEX
  5
142
  8
0
 10
3.247000083267922
 20
39.55541920215952
 30
0.0
  0
VERTEX
  5
143
  8
0
 10
2.506999999999999
 20
39.824758
 30
0.0
  0
VERTEX
  5
144
  8
0
 10
2.506999999999999
 20
34.84164200000001
 30
0.0
  0
VERTEX
  5
145
  8
0
 10
3.247000083267922
 20
35.11097979784048
 30
0.0
 42
-0.999998813176804
  0
VERTEX
  5
146
  8
0
 10
3.376968128629416
 20
34.75389777928414
 30
0.0
  0
VERTEX
  5
147
  8
0
 10
3.312797935431173
 20
34.73054111014644
 30
0.0
 42
0.3152984530823523
  0
VERTEX
  5
148
  8
0
 10
3.246999999999999
 20
34.636572
 30
0.0
  0
VERTEX
  5
149
  8
0
 10
3.246999999999999
 20
31.141028
 30
0.0
 42
0.3152984530823166
  0
VERTEX
  5
14A
  8
0
 10
3.312797935431173
 20
31.04705888985356
 30
0.0
  0
VERTEX
  5
14B
  8
0
 10
3.376968257258834
 20
31.02370244143172
 30
0.0
 42
-0.9999988131768198
  0
VERTEX
  5
14C
  8
0
 10
3.247000083267922
 20
30.66657920215952
 30
0.0
  0
VERTEX
  5
14D
  8
0
 10
2.506999999999999
 20
30.935878
 30
0.0
  0
VERTEX
  5
14E
  8
0
 10
2.506999999999999
 20
25.952762
 30
0.0
  0
VERTEX
  5
14F
  8
0
 10
3.247000083267922
 20
26.22213979784048
 30
0.0
 42
-0.9999988131768214
  0
VERTEX
  5
150
  8
0
 10
3.376968128629416
 20
25.86509777928414
 30
0.0
  0
VERTEX
  5
151
  8
0
 10
3.312797935431173
 20
25.84174111014644
 30
0.0
 42
0.3152984530823167
  0
VERTEX
  5
152
  8
0
 10
3.246999999999999
 20
25.747772
 30
0.0
  0
VERTEX
  5
153
  8
0
 10
3.246999999999999
 20
22.252228
 30
0.0
 42
0.3152984530823166
  0
VERTEX
  5
154
  8
0
 10
3.312797935431173
 20
22.15825888985356
 30
0.0
  0
VERTEX
  5
155
  8
0
 10
3.376968257258834
 20
22.13490244143172
 30
0.0
 42
-0.9999988131768198
  0
VERTEX
  5
156
  8
0
 10
3.247000083267922
 20
21.77773920215952
 30
0.0
  0
VERTEX
  5
157
  8
0
 10
2.506999999999999
 20
22.046998
 30
0.0
  0
VERTEX
  5
158
  8
0
 10
2.506999999999999
 20
17.063882
 30
0.0
  0
VERTEX
  5
159
  8
0
 10
3.247000083267922
 20
17.33329979784048
 30
0.0
 42
-0.9999988131768214
  0
VERTEX
  5
15A
  8
0
 10
3.376968128629416
 20
16.97629777928414
 30
0.0
  0
VERTEX
  5
15B
  8
0
 10
3.312797935431173
 20
16.95294111014644
 30
0.0
 42
0.3152984530823167
  0
VERTEX
  5
15C
  8
0
 10
3.246999999999999
 20
16.858972
 30
0.0
  0
VERTEX
  5
15D
  8
0
 10
3.246999999999999
 20
13.363428
 30
0.0
 42
0.3152984530823342
  0
VERTEX
  5
15E
  8
0
 10
3.312797935431173
 20
13.26945888985356
 30
0.0
  0
VERTEX
  5
15F
  8
0
 10
3.376968257258834
 20
13.24610244143173
 30
0.0
 42
-0.9999988131768079
  0
VERTEX
  5
160
  8
0
 10
3.247000083267922
 20
12.88889920215952
 30
0.0
  0
VERTEX
  5
161
  8
0
 10
2.506999999999999
 20
13.158118
 30
0.0
  0
VERTEX
  5
162
  8
0
 10
2.506999999999999
 20
8.175002000000003
 30
0.0
  0
VERTEX
  5
163
  8
0
 10
3.247000083267922
 20
8.444459797840482
 30
0.0
 42
-0.999998813176814
  0
VERTEX
  5
164
  8
0
 10
3.376968128629416
 20
8.087497779284138
 30
0.0
  0
VERTEX
  5
165
  8
0
 10
3.312797935431173
 20
8.06414111014644
 30
0.0
 42
0.3152984530823191
  0
VERTEX
  5
166
  8
0
 10
3.246999999999999
 20
7.970172000000002
 30
0.0
  0
SEQEND
  5
169
  8
0
  0
ENDSEC
  0
EOF
