  0
SECTION
  2
HEADER
  9
$ACADVER
  1
AC1009
  9
$DWGCODEPAGE
  3
ansi_1252
  9
$INSBASE
 10
0.0
 20
0.0
 30
0.0
  9
$EXTMIN
 10
4.891008930176866
 20
1.097970123726966
 30
0.0
  9
$EXTMAX
 10
91.10899106982313
 20
45.99596246054269
 30
0.0
  9
$LIMMIN
 10
0.0
 20
0.0
  9
$LIMMAX
 10
12.0
 20
9.0
  9
$ORTHOMODE
 70
     0
  9
$REGENMODE
 70
     1
  9
$FILLMODE
 70
     1
  9
$QTEXTMODE
 70
     0
  9
$MIRRTEXT
 70
     1
  9
$DRAGMODE
 70
     2
  9
$LTSCALE
 40
1.0
  9
$OSMODE
 70
    37
  9
$ATTMODE
 70
     1
  9
$TEXTSIZE
 40
0.2
  9
$TRACEWID
 40
0.05
  9
$TEXTSTYLE
  7
STANDARD
  9
$CLAYER
  8
0
  9
$CELTYPE
  6
BYLAYER
  9
$CECOLOR
 62
   256
  9
$DIMSCALE
 40
1.0
  9
$DIMASZ
 40
0.18
  9
$DIMEXO
 40
0.0625
  9
$DIMDLI
 40
0.38
  9
$DIMRND
 40
0.0
  9
$DIMDLE
 40
0.0
  9
$DIMEXE
 40
0.18
  9
$DIMTP
 40
0.0
  9
$DIMTM
 40
0.0
  9
$DIMTXT
 40
0.18
  9
$DIMCEN
 40
0.09
  9
$DIMTSZ
 40
0.0
  9
$DIMTOL
 70
     0
  9
$DIMLIM
 70
     0
  9
$DIMTIH
 70
     1
  9
$DIMTOH
 70
     1
  9
$DIMSE1
 70
     0
  9
$DIMSE2
 70
     0
  9
$DIMTAD
 70
     0
  9
$DIMZIN
 70
     0
  9
$DIMBLK
  1

  9
$DIMASO
 70
     1
  9
$DIMSHO
 70
     1
  9
$DIMPOST
  1

  9
$DIMAPOST
  1

  9
$DIMALT
 70
     0
  9
$DIMALTD
 70
     2
  9
$DIMALTF
 40
25.4
  9
$DIMLFAC
 40
1.0
  9
$DIMTOFL
 70
     0
  9
$DIMTVP
 40
0.0
  9
$DIMTIX
 70
     0
  9
$DIMSOXD
 70
     0
  9
$DIMSAH
 70
     0
  9
$DIMBLK1
  1

  9
$DIMBLK2
  1

  9
$DIMSTYLE
  2
STANDARD
  9
$DIMCLRD
 70
     0
  9
$DIMCLRE
 70
     0
  9
$DIMCLRT
 70
     0
  9
$DIMTFAC
 40
1.0
  9
$DIMGAP
 40
0.09
  9
$LUNITS
 70
     2
  9
$LUPREC
 70
     4
  9
$SKETCHINC
 40
0.1
  9
$FILLETRAD
 40
0.5
  9
$AUNITS
 70
     0
  9
$AUPREC
 70
     0
  9
$MENU
  1
.
  9
$ELEVATION
 40
0.0
  9
$PELEVATION
 40
0.0
  9
$THICKNESS
 40
0.0
  9
$LIMCHECK
 70
     0
  9
$CHAMFERA
 40
0.0
  9
$CHAMFERB
 40
0.0
  9
$SKPOLY
 70
     0
  9
$TDCREATE
 40
2454910.5
  9
$TDUPDATE
 40
2456592.431496597
  9
$TDINDWG
 40
0.0000000116
  9
$TDUSRTIMER
 40
0.0000000116
  9
$USRTIMER
 70
     1
  9
$ANGBASE
 50
0.0
  9
$ANGDIR
 70
     0
  9
$PDMODE
 70
     0
  9
$PDSIZE
 40
0.0
  9
$PLINEWID
 40
0.0
  9
$COORDS
 70
     1
  9
$SPLFRAME
 70
     0
  9
$SPLINETYPE
 70
     6
  9
$SPLINESEGS
 70
     8
  9
$ATTDIA
 70
     0
  9
$ATTREQ
 70
     1
  9
$HANDLING
 70
     1
  9
$HANDSEED
  5
5A6
  9
$SURFTAB1
 70
     6
  9
$SURFTAB2
 70
     6
  9
$SURFTYPE
 70
     6
  9
$SURFU
 70
     6
  9
$SURFV
 70
     6
  9
$UCSNAME
  2

  9
$UCSORG
 10
0.0
 20
0.0
 30
0.0
  9
$UCSXDIR
 10
1.0
 20
0.0
 30
0.0
  9
$UCSYDIR
 10
0.0
 20
1.0
 30
0.0
  9
$PUCSNAME
  2

  9
$PUCSORG
 10
0.0
 20
0.0
 30
0.0
  9
$PUCSXDIR
 10
1.0
 20
0.0
 30
0.0
  9
$PUCSYDIR
 10
0.0
 20
1.0
 30
0.0
  9
$USERI1
 70
     0
  9
$USERI2
 70
     0
  9
$USERI3
 70
     0
  9
$USERI4
 70
     0
  9
$USERI5
 70
     0
  9
$USERR1
 40
0.0
  9
$USERR2
 40
0.0
  9
$USERR3
 40
0.0
  9
$USERR4
 40
0.0
  9
$USERR5
 40
0.0
  9
$WORLDVIEW
 70
     1
  9
$SHADEDGE
 70
     3
  9
$SHADEDIF
 70
    70
  9
$TILEMODE
 70
     1
  9
$MAXACTVP
 70
    64
  9
$PLIMCHECK
 70
     0
  9
$PEXTMIN
 10
1.000000000000000E+20
 20
1.000000000000000E+20
 30
1.000000000000000E+20
  9
$PEXTMAX
 10
-1.000000000000000E+20
 20
-1.000000000000000E+20
 30
-1.000000000000000E+20
  9
$PLIMMIN
 10
0.0
 20
0.0
  9
$PLIMMAX
 10
12.0
 20
9.0
  9
$UNITMODE
 70
     0
  9
$VISRETAIN
 70
     1
  9
$PLINEGEN
 70
     0
  9
$PSLTSCALE
 70
     1
  0
ENDSEC
  0
SECTION
  2
TABLES
  0
TABLE
  2
VPORT
 70
     1
  0
VPORT
  2
*ACTIVE
 70
     0
 10
0.0
 20
0.0
 11
1.0
 21
1.0
 12
10.42990654205607
 22
4.5
 13
0.0
 23
0.0
 14
0.5
 24
0.5
 15
0.5
 25
0.5
 16
0.0
 26
0.0
 36
1.0
 17
0.0
 27
0.0
 37
0.0
 40
9.0
 41
1.972972972850329
 42
50.0
 43
0.0
 44
0.0
 50
0.0
 51
0.0
 71
     0
 72
   100
 73
     1
 74
     3
 75
     0
 76
     0
 77
     0
 78
     0
  0
ENDTAB
  0
TABLE
  2
LTYPE
 70
     2
  0
LTYPE
  2
CONTINUOUS
 70
     0
  3
Solid line
 72
    65
 73
     0
 40
0.0
  0
LTYPE
  2
CONTINUOUS2
 70
     0
  3
Solid Line
 72
    65
 73
     0
 40
0.0
  0
ENDTAB
  0
TABLE
  2
LAYER
 70
     3
  0
LAYER
  2
0
 70
     0
 62
     7
  6
CONTINUOUS
  0
LAYER
  2
CUTOUT
 70
     0
 62
    18
  6
CONTINUOUS
  0
LAYER
  2
DOVES
 70
     0
 62
     1
  6
CONTINUOUS
  0
ENDTAB
  0
TABLE
  2
STYLE
 70
     1
  0
STYLE
  2
STANDARD
 70
     0
 40
0.0
 41
1.0
 50
0.0
 71
     0
 42
0.2
  3
txt
  4

  0
ENDTAB
  0
TABLE
  2
VIEW
 70
     0
  0
ENDTAB
  0
TABLE
  2
UCS
 70
     0
  0
ENDTAB
  0
TABLE
  2
APPID
 70
     1
  0
APPID
  2
ACAD
 70
     0
  0
ENDTAB
  0
TABLE
  2
DIMSTYLE
 70
     1
  0
DIMSTYLE
  2
STANDARD
 70
     0
  3

  4

  5

  6

  7

 40
1.0
 41
0.18
 42
0.0625
 43
0.38
 44
0.18
 45
0.0
 46
0.0
 47
0.0
 48
0.0
140
0.18
141
0.09
142
0.0
143
25.4
144
1.0
145
0.0
146
1.0
147
0.09
 71
     0
 72
     0
 73
     1
 74
     1
 75
     0
 76
     0
 77
     0
 78
     0
170
     0
171
     2
172
     0
173
     0
174
     0
175
     0
176
     0
177
     0
178
     0
  0
ENDTAB
  0
ENDSEC
  0
SECTION
  2
BLOCKS
  0
BLOCK
  8
0
  2
$MODEL_SPACE
 70
     0
 10
0.0
 20
0.0
 30
0.0
  3
$MODEL_SPACE
  1

  0
ENDBLK
  5
21
  8
0
  0
BLOCK
 67
     1
  8
0
  2
$PAPER_SPACE
 70
     0
 10
0.0
 20
0.0
 30
0.0
  3
$PAPER_SPACE
  1

  0
ENDBLK
  5
1D
 67
     1
  8
0
  0
ENDSEC
  0
SECTION
  2
ENTITIES
  0
POLYLINE
  5
6C
  8
CUTOUT
 66
     1
 10
0.0
 20
0.0
 30
0.0
 70
     1
  0
VERTEX
  5
82
  8
CUTOUT
 10
28.7838202247191
 20
7.940122590094649
 30
0.0
  0
VERTEX
  5
83
  8
CUTOUT
 10
5.52000000000001
 20
7.940122590094649
 30
0.0
  0
VERTEX
  5
84
  8
CUTOUT
 10
5.52000000000001
 20
4.940122590094662
 30
0.0
  0
VERTEX
  5
85
  8
CUTOUT
 10
47.0
 20
4.940122590094662
 30
0.0
  0
VERTEX
  5
86
  8
CUTOUT
 10
47.0
 20
7.940122590094649
 30
0.0
  0
SEQEND
  5
598
  8
CUTOUT
  0
POLYLINE
  5
6D
  8
CUTOUT
 66
     1
 10
0.0
 20
0.0
 30
0.0
 70
     1
  0
VERTEX
  5
87
  8
CUTOUT
 10
28.93483146067416
 20
4.097970123726957
 30
0.0
  0
VERTEX
  5
88
  8
CUTOUT
 10
5.52000000000001
 20
4.097970123726957
 30
0.0
  0
VERTEX
  5
89
  8
CUTOUT
 10
5.52000000000001
 20
1.097970123726966
 30
0.0
  0
VERTEX
  5
8A
  8
CUTOUT
 10
47.0
 20
1.097970123726966
 30
0.0
  0
VERTEX
  5
8B
  8
CUTOUT
 10
47.0
 20
4.097970123726957
 30
0.0
  0
SEQEND
  5
599
  8
CUTOUT
  0
POLYLINE
  5
6E
  8
CUTOUT
 66
     1
 10
0.0
 20
0.0
 30
0.0
 70
     1
  0
VERTEX
  5
8C
  8
CUTOUT
 10
71.36898876404496
 20
7.940122590094649
 30
0.0
  0
VERTEX
  5
8D
  8
CUTOUT
 10
49.0
 20
7.940122590094649
 30
0.0
  0
VERTEX
  5
8E
  8
CUTOUT
 10
49.0
 20
4.940122590094662
 30
0.0
  0
VERTEX
  5
8F
  8
CUTOUT
 10
90.47999999999999
 20
4.940122590094662
 30
0.0
  0
VERTEX
  5
90
  8
CUTOUT
 10
90.47999999999999
 20
7.940122590094649
 30
0.0
  0
SEQEND
  5
59A
  8
CUTOUT
  0
POLYLINE
  5
6F
  8
CUTOUT
 66
     1
 10
0.0
 20
0.0
 30
0.0
 70
     1
  0
VERTEX
  5
91
  8
CUTOUT
 10
73.18112359550562
 20
4.097970123726957
 30
0.0
  0
VERTEX
  5
92
  8
CUTOUT
 10
49.0
 20
4.097970123726957
 30
0.0
  0
VERTEX
  5
93
  8
CUTOUT
 10
49.0
 20
1.097970123726966
 30
0.0
  0
VERTEX
  5
94
  8
CUTOUT
 10
90.47999999999999
 20
1.097970123726966
 30
0.0
  0
VERTEX
  5
95
  8
CUTOUT
 10
90.47999999999999
 20
4.097970123726957
 30
0.0
  0
SEQEND
  5
59B
  8
CUTOUT
  0
POLYLINE
  5
70
  8
CUTOUT
 66
     1
 10
0.0
 20
0.0
 30
0.0
 70
     1
  0
VERTEX
  5
96
  8
CUTOUT
 10
45.67125093017685
 20
45.21596246054268
 30
0.0
  0
VERTEX
  5
97
  8
CUTOUT
 10
41.70095793017686
 20
45.21596246054268
 30
0.0
  0
VERTEX
  5
98
  8
CUTOUT
 10
41.68359293017686
 20
45.21444346054268
 30
0.0
  0
VERTEX
  5
99
  8
CUTOUT
 10
41.66675593017686
 20
45.20993246054269
 30
0.0
  0
VERTEX
  5
9A
  8
CUTOUT
 10
41.65095793017686
 20
45.20256546054269
 30
0.0
  0
VERTEX
  5
9B
  8
CUTOUT
 10
41.63667893017686
 20
45.19256746054269
 30
0.0
  0
VERTEX
  5
9C
  8
CUTOUT
 10
41.62435393017687
 20
45.18024146054269
 30
0.0
  0
VERTEX
  5
9D
  8
CUTOUT
 10
41.61435493017686
 20
45.16596346054268
 30
0.0
  0
VERTEX
  5
9E
  8
CUTOUT
 10
41.60698893017685
 20
45.15016546054268
 30
0.0
  0
VERTEX
  5
9F
  8
CUTOUT
 10
41.58363193017686
 20
45.08599446054269
 30
0.0
  0
VERTEX
  5
A0
  8
CUTOUT
 10
41.56963493017686
 20
45.05597846054269
 30
0.0
  0
VERTEX
  5
A1
  8
CUTOUT
 10
41.55063893017686
 20
45.02884946054269
 30
0.0
  0
VERTEX
  5
A2
  8
CUTOUT
 10
41.52721993017686
 20
45.00543046054268
 30
0.0
  0
VERTEX
  5
A3
  8
CUTOUT
 10
41.50008993017686
 20
44.98643446054268
 30
0.0
  0
VERTEX
  5
A4
  8
CUTOUT
 10
41.47007393017687
 20
44.97243746054269
 30
0.0
  0
VERTEX
  5
A5
  8
CUTOUT
 10
41.43808393017686
 20
44.96386546054269
 30
0.0
  0
VERTEX
  5
A6
  8
CUTOUT
 10
41.40508993017686
 20
44.96097946054269
 30
0.0
  0
VERTEX
  5
A7
  8
CUTOUT
 10
41.37209693017687
 20
44.96386546054269
 30
0.0
  0
VERTEX
  5
A8
  8
CUTOUT
 10
41.34010693017686
 20
44.97243746054269
 30
0.0
  0
VERTEX
  5
A9
  8
CUTOUT
 10
41.31009093017686
 20
44.98643446054268
 30
0.0
  0
VERTEX
  5
AA
  8
CUTOUT
 10
41.28296093017686
 20
45.00543046054268
 30
0.0
  0
VERTEX
  5
AB
  8
CUTOUT
 10
41.25954193017687
 20
45.02884946054269
 30
0.0
  0
VERTEX
  5
AC
  8
CUTOUT
 10
41.24054593017686
 20
45.05597946054269
 30
0.0
  0
VERTEX
  5
AD
  8
CUTOUT
 10
41.22654893017686
 20
45.08599546054269
 30
0.0
  0
VERTEX
  5
AE
  8
CUTOUT
 10
41.21797693017686
 20
45.11798646054268
 30
0.0
  0
VERTEX
  5
AF
  8
CUTOUT
 10
41.21509093017686
 20
45.15097946054269
 30
0.0
  0
VERTEX
  5
B0
  8
CUTOUT
 10
41.21797693017686
 20
45.18397246054269
 30
0.0
  0
VERTEX
  5
B1
  8
CUTOUT
 10
41.22654893017686
 20
45.21596246054268
 30
0.0
  0
VERTEX
  5
B2
  8
CUTOUT
 10
41.51044693017685
 20
45.99596246054269
 30
0.0
  0
VERTEX
  5
B3
  8
CUTOUT
 10
36.49821293017686
 20
45.99596246054269
 30
0.0
  0
VERTEX
  5
B4
  8
CUTOUT
 10
36.78210993017686
 20
45.21596246054268
 30
0.0
  0
VERTEX
  5
B5
  8
CUTOUT
 10
36.79068193017686
 20
45.18397246054269
 30
0.0
  0
VERTEX
  5
B6
  8
CUTOUT
 10
36.79356793017686
 20
45.15097946054269
 30
0.0
  0
VERTEX
  5
B7
  8
CUTOUT
 10
36.79068193017686
 20
45.11798646054268
 30
0.0
  0
VERTEX
  5
B8
  8
CUTOUT
 10
36.78210993017686
 20
45.08599546054269
 30
0.0
  0
VERTEX
  5
B9
  8
CUTOUT
 10
36.76811293017686
 20
45.05597946054269
 30
0.0
  0
VERTEX
  5
BA
  8
CUTOUT
 10
36.74911693017685
 20
45.02885046054269
 30
0.0
  0
VERTEX
  5
BB
  8
CUTOUT
 10
36.72569793017686
 20
45.00543146054268
 30
0.0
  0
VERTEX
  5
BC
  8
CUTOUT
 10
36.69856893017686
 20
44.98643446054268
 30
0.0
  0
VERTEX
  5
BD
  8
CUTOUT
 10
36.66855293017686
 20
44.97243846054269
 30
0.0
  0
VERTEX
  5
BE
  8
CUTOUT
 10
36.63656193017685
 20
44.96386646054269
 30
0.0
  0
VERTEX
  5
BF
  8
CUTOUT
 10
36.60356893017686
 20
44.96097946054269
 30
0.0
  0
VERTEX
  5
C0
  8
CUTOUT
 10
36.57057593017686
 20
44.96386646054269
 30
0.0
  0
VERTEX
  5
C1
  8
CUTOUT
 10
36.53858493017685
 20
44.97243746054269
 30
0.0
  0
VERTEX
  5
C2
  8
CUTOUT
 10
36.50856893017686
 20
44.98643446054268
 30
0.0
  0
VERTEX
  5
C3
  8
CUTOUT
 10
36.48143993017686
 20
45.00543046054268
 30
0.0
  0
VERTEX
  5
C4
  8
CUTOUT
 10
36.45802093017686
 20
45.02884946054269
 30
0.0
  0
VERTEX
  5
C5
  8
CUTOUT
 10
36.43902393017686
 20
45.05597846054269
 30
0.0
  0
VERTEX
  5
C6
  8
CUTOUT
 10
36.42502793017685
 20
45.08599446054269
 30
0.0
  0
VERTEX
  5
C7
  8
CUTOUT
 10
36.40167093017686
 20
45.15016546054268
 30
0.0
  0
VERTEX
  5
C8
  8
CUTOUT
 10
36.39430393017686
 20
45.16596346054268
 30
0.0
  0
VERTEX
  5
C9
  8
CUTOUT
 10
36.38430593017686
 20
45.18024146054269
 30
0.0
  0
VERTEX
  5
CA
  8
CUTOUT
 10
36.37198093017686
 20
45.19256746054269
 30
0.0
  0
VERTEX
  5
CB
  8
CUTOUT
 10
36.35770193017686
 20
45.20256546054269
 30
0.0
  0
VERTEX
  5
CC
  8
CUTOUT
 10
36.34190393017685
 20
45.20993246054269
 30
0.0
  0
VERTEX
  5
CD
  8
CUTOUT
 10
36.32506693017686
 20
45.21444346054268
 30
0.0
  0
VERTEX
  5
CE
  8
CUTOUT
 10
36.30770193017686
 20
45.21596246054268
 30
0.0
  0
VERTEX
  5
CF
  8
CUTOUT
 10
32.81215793017687
 20
45.21596246054268
 30
0.0
  0
VERTEX
  5
D0
  8
CUTOUT
 10
32.79479293017685
 20
45.21444346054268
 30
0.0
  0
VERTEX
  5
D1
  8
CUTOUT
 10
32.77795593017686
 20
45.20993246054269
 30
0.0
  0
VERTEX
  5
D2
  8
CUTOUT
 10
32.76215793017685
 20
45.20256546054269
 30
0.0
  0
VERTEX
  5
D3
  8
CUTOUT
 10
32.74787893017685
 20
45.19256746054269
 30
0.0
  0
VERTEX
  5
D4
  8
CUTOUT
 10
32.73555393017686
 20
45.18024146054269
 30
0.0
  0
VERTEX
  5
D5
  8
CUTOUT
 10
32.72555493017686
 20
45.16596346054268
 30
0.0
  0
VERTEX
  5
D6
  8
CUTOUT
 10
32.71818893017686
 20
45.15016546054268
 30
0.0
  0
VERTEX
  5
D7
  8
CUTOUT
 10
32.69483193017686
 20
45.08599446054269
 30
0.0
  0
VERTEX
  5
D8
  8
CUTOUT
 10
32.68083493017686
 20
45.05597546054268
 30
0.0
  0
VERTEX
  5
D9
  8
CUTOUT
 10
32.66183793017686
 20
45.02884246054269
 30
0.0
  0
VERTEX
  5
DA
  8
CUTOUT
 10
32.63841793017686
 20
45.00542046054268
 30
0.0
  0
VERTEX
  5
DB
  8
CUTOUT
 10
32.61128593017686
 20
44.98642146054269
 30
0.0
  0
VERTEX
  5
DC
  8
CUTOUT
 10
32.58126693017685
 20
44.97242146054269
 30
0.0
  0
VERTEX
  5
DD
  8
CUTOUT
 10
32.54927393017685
 20
44.96384846054269
 30
0.0
  0
VERTEX
  5
DE
  8
CUTOUT
 10
32.51627693017686
 20
44.96096046054269
 30
0.0
  0
VERTEX
  5
DF
  8
CUTOUT
 10
32.48328093017686
 20
44.96384546054269
 30
0.0
  0
VERTEX
  5
E0
  8
CUTOUT
 10
32.45128693017686
 20
44.97241746054269
 30
0.0
  0
VERTEX
  5
E1
  8
CUTOUT
 10
32.42126693017686
 20
44.98641446054269
 30
0.0
  0
VERTEX
  5
E2
  8
CUTOUT
 10
32.39413393017686
 20
45.00541146054269
 30
0.0
  0
VERTEX
  5
E3
  8
CUTOUT
 10
32.37071193017685
 20
45.02883246054269
 30
0.0
  0
VERTEX
  5
E4
  8
CUTOUT
 10
32.35171293017686
 20
45.05596346054269
 30
0.0
  0
VERTEX
  5
E5
  8
CUTOUT
 10
32.33771393017686
 20
45.08598246054268
 30
0.0
  0
VERTEX
  5
E6
  8
CUTOUT
 10
32.32913993017686
 20
45.11797546054268
 30
0.0
  0
VERTEX
  5
E7
  8
CUTOUT
 10
32.32625193017687
 20
45.15097246054269
 30
0.0
  0
VERTEX
  5
E8
  8
CUTOUT
 10
32.32913793017686
 20
45.18396846054269
 30
0.0
  0
VERTEX
  5
E9
  8
CUTOUT
 10
32.33770893017686
 20
45.21596246054268
 30
0.0
  0
VERTEX
  5
EA
  8
CUTOUT
 10
32.62156493017686
 20
45.99596246054269
 30
0.0
  0
VERTEX
  5
EB
  8
CUTOUT
 10
27.60933093017685
 20
45.99596246054269
 30
0.0
  0
VERTEX
  5
EC
  8
CUTOUT
 10
27.89326993017686
 20
45.21596246054268
 30
0.0
  0
VERTEX
  5
ED
  8
CUTOUT
 10
27.90184193017686
 20
45.18397546054268
 30
0.0
  0
VERTEX
  5
EE
  8
CUTOUT
 10
27.90472893017686
 20
45.15098646054268
 30
0.0
  0
VERTEX
  5
EF
  8
CUTOUT
 10
27.90184393017685
 20
45.11799646054268
 30
0.0
  0
VERTEX
  5
F0
  8
CUTOUT
 10
27.89327493017686
 20
45.08600846054269
 30
0.0
  0
VERTEX
  5
F1
  8
CUTOUT
 10
27.87927993017686
 20
45.05599446054269
 30
0.0
  0
VERTEX
  5
F2
  8
CUTOUT
 10
27.86028693017685
 20
45.02886746054268
 30
0.0
  0
VERTEX
  5
F3
  8
CUTOUT
 10
27.83687093017686
 20
45.00545046054269
 30
0.0
  0
VERTEX
  5
F4
  8
CUTOUT
 10
27.80974493017686
 20
44.98645446054269
 30
0.0
  0
VERTEX
  5
F5
  8
CUTOUT
 10
27.77973293017686
 20
44.97245846054268
 30
0.0
  0
VERTEX
  5
F6
  8
CUTOUT
 10
27.74774593017686
 20
44.96388546054268
 30
0.0
  0
VERTEX
  5
F7
  8
CUTOUT
 10
27.71475593017686
 20
44.96099846054268
 30
0.0
  0
VERTEX
  5
F8
  8
CUTOUT
 10
27.68176593017687
 20
44.96388346054269
 30
0.0
  0
VERTEX
  5
F9
  8
CUTOUT
 10
27.64977793017685
 20
44.9724534605427
 30
0.0
  0
VERTEX
  5
FA
  8
CUTOUT
 10
27.61976493017686
 20
44.98644746054269
 30
0.0
  0
VERTEX
  5
FB
  8
CUTOUT
 10
27.59263693017687
 20
45.00544046054269
 30
0.0
  0
VERTEX
  5
FC
  8
CUTOUT
 10
27.56921993017686
 20
45.02885646054268
 30
0.0
  0
VERTEX
  5
FD
  8
CUTOUT
 10
27.55022393017686
 20
45.05598246054269
 30
0.0
  0
VERTEX
  5
FE
  8
CUTOUT
 10
27.53622793017686
 20
45.08599446054269
 30
0.0
  0
VERTEX
  5
FF
  8
CUTOUT
 10
27.51287093017686
 20
45.15016546054269
 30
0.0
  0
VERTEX
  5
100
  8
CUTOUT
 10
27.50550393017686
 20
45.16596346054268
 30
0.0
  0
VERTEX
  5
101
  8
CUTOUT
 10
27.49550593017686
 20
45.18024146054269
 30
0.0
  0
VERTEX
  5
102
  8
CUTOUT
 10
27.48318093017686
 20
45.19256746054269
 30
0.0
  0
VERTEX
  5
103
  8
CUTOUT
 10
27.46890193017686
 20
45.20256546054269
 30
0.0
  0
VERTEX
  5
104
  8
CUTOUT
 10
27.45310393017687
 20
45.20993246054269
 30
0.0
  0
VERTEX
  5
105
  8
CUTOUT
 10
27.43626693017686
 20
45.21444346054268
 30
0.0
  0
VERTEX
  5
106
  8
CUTOUT
 10
27.41890193017686
 20
45.21596246054268
 30
0.0
  0
VERTEX
  5
107
  8
CUTOUT
 10
23.92335793017686
 20
45.21596246054268
 30
0.0
  0
VERTEX
  5
108
  8
CUTOUT
 10
23.90599293017686
 20
45.21444346054268
 30
0.0
  0
VERTEX
  5
109
  8
CUTOUT
 10
23.88915593017686
 20
45.20993246054269
 30
0.0
  0
VERTEX
  5
10A
  8
CUTOUT
 10
23.87335793017687
 20
45.20256546054269
 30
0.0
  0
VERTEX
  5
10B
  8
CUTOUT
 10
23.85907893017686
 20
45.19256746054269
 30
0.0
  0
VERTEX
  5
10C
  8
CUTOUT
 10
23.84675393017686
 20
45.18024146054269
 30
0.0
  0
VERTEX
  5
10D
  8
CUTOUT
 10
23.83675493017687
 20
45.16596346054268
 30
0.0
  0
VERTEX
  5
10E
  8
CUTOUT
 10
23.82938893017686
 20
45.15016546054269
 30
0.0
  0
VERTEX
  5
10F
  8
CUTOUT
 10
23.80603193017686
 20
45.08599446054269
 30
0.0
  0
VERTEX
  5
110
  8
CUTOUT
 10
23.79203493017685
 20
45.05597146054269
 30
0.0
  0
VERTEX
  5
111
  8
CUTOUT
 10
23.77303693017686
 20
45.02883546054269
 30
0.0
  0
VERTEX
  5
112
  8
CUTOUT
 10
23.74961493017686
 20
45.00541046054269
 30
0.0
  0
VERTEX
  5
113
  8
CUTOUT
 10
23.72248093017686
 20
44.98640846054269
 30
0.0
  0
VERTEX
  5
114
  8
CUTOUT
 10
23.69245993017685
 20
44.97240646054269
 30
0.0
  0
VERTEX
  5
115
  8
CUTOUT
 10
23.66046393017686
 20
44.9638304605427
 30
0.0
  0
VERTEX
  5
116
  8
CUTOUT
 10
23.62746393017686
 20
44.96094146054268
 30
0.0
  0
VERTEX
  5
117
  8
CUTOUT
 10
23.59446393017686
 20
44.96382646054269
 30
0.0
  0
VERTEX
  5
118
  8
CUTOUT
 10
23.56246693017685
 20
44.97239746054269
 30
0.0
  0
VERTEX
  5
119
  8
CUTOUT
 10
23.53244393017685
 20
44.98639446054268
 30
0.0
  0
VERTEX
  5
11A
  8
CUTOUT
 10
23.50530693017686
 20
45.00539346054269
 30
0.0
  0
VERTEX
  5
11B
  8
CUTOUT
 10
23.48188193017685
 20
45.02881446054269
 30
0.0
  0
VERTEX
  5
11C
  8
CUTOUT
 10
23.46287993017685
 20
45.05594846054269
 30
0.0
  0
VERTEX
  5
11D
  8
CUTOUT
 10
23.44887793017686
 20
45.08596946054269
 30
0.0
  0
VERTEX
  5
11E
  8
CUTOUT
 10
23.44030293017686
 20
45.11796546054269
 30
0.0
  0
VERTEX
  5
11F
  8
CUTOUT
 10
23.43741293017686
 20
45.15096546054269
 30
0.0
  0
VERTEX
  5
120
  8
CUTOUT
 10
23.44029793017685
 20
45.18396546054269
 30
0.0
  0
VERTEX
  5
121
  8
CUTOUT
 10
23.44886893017686
 20
45.21596246054268
 30
0.0
  0
VERTEX
  5
122
  8
CUTOUT
 10
23.73268193017685
 20
45.99596246054269
 30
0.0
  0
VERTEX
  5
123
  8
CUTOUT
 10
18.72044893017686
 20
45.99596246054269
 30
0.0
  0
VERTEX
  5
124
  8
CUTOUT
 10
19.00442993017685
 20
45.21596246054268
 30
0.0
  0
VERTEX
  5
125
  8
CUTOUT
 10
19.01300193017686
 20
45.18397946054269
 30
0.0
  0
VERTEX
  5
126
  8
CUTOUT
 10
19.01589093017687
 20
45.1509924605427
 30
0.0
  0
VERTEX
  5
127
  8
CUTOUT
 10
19.01300693017686
 20
45.11800646054269
 30
0.0
  0
VERTEX
  5
128
  8
CUTOUT
 10
19.00443893017686
 20
45.0860214605427
 30
0.0
  0
VERTEX
  5
129
  8
CUTOUT
 10
18.99044693017686
 20
45.05601046054269
 30
0.0
  0
VERTEX
  5
12A
  8
CUTOUT
 10
18.97145693017686
 20
45.02888446054268
 30
0.0
  0
VERTEX
  5
12B
  8
CUTOUT
 10
18.94804493017686
 20
45.00546846054269
 30
0.0
  0
VERTEX
  5
12C
  8
CUTOUT
 10
18.92092193017686
 20
44.98647446054269
 30
0.0
  0
VERTEX
  5
12D
  8
CUTOUT
 10
18.89091293017685
 20
44.97247846054269
 30
0.0
  0
VERTEX
  5
12E
  8
CUTOUT
 10
18.85892893017686
 20
44.96390546054269
 30
0.0
  0
VERTEX
  5
12F
  8
CUTOUT
 10
18.82594293017686
 20
44.96101746054269
 30
0.0
  0
VERTEX
  5
130
  8
CUTOUT
 10
18.79295593017686
 20
44.96390046054269
 30
0.0
  0
VERTEX
  5
131
  8
CUTOUT
 10
18.76097093017685
 20
44.97246846054269
 30
0.0
  0
VERTEX
  5
132
  8
CUTOUT
 10
18.73095993017687
 20
44.98646046054269
 30
0.0
  0
VERTEX
  5
133
  8
CUTOUT
 10
18.70383393017686
 20
45.00545046054269
 30
0.0
  0
VERTEX
  5
134
  8
CUTOUT
 10
18.68041793017686
 20
45.02886346054269
 30
0.0
  0
VERTEX
  5
135
  8
CUTOUT
 10
18.66142393017687
 20
45.05598546054269
 30
0.0
  0
VERTEX
  5
136
  8
CUTOUT
 10
18.64742793017686
 20
45.08599446054269
 30
0.0
  0
VERTEX
  5
137
  8
CUTOUT
 10
18.62407093017686
 20
45.15016546054269
 30
0.0
  0
VERTEX
  5
138
  8
CUTOUT
 10
18.61670393017685
 20
45.16596346054268
 30
0.0
  0
VERTEX
  5
139
  8
CUTOUT
 10
18.60670593017686
 20
45.18024146054269
 30
0.0
  0
VERTEX
  5
13A
  8
CUTOUT
 10
18.59438093017685
 20
45.19256746054269
 30
0.0
  0
VERTEX
  5
13B
  8
CUTOUT
 10
18.58010193017687
 20
45.20256546054269
 30
0.0
  0
VERTEX
  5
13C
  8
CUTOUT
 10
18.56430393017686
 20
45.20993246054269
 30
0.0
  0
VERTEX
  5
13D
  8
CUTOUT
 10
18.54746693017685
 20
45.21444346054268
 30
0.0
  0
VERTEX
  5
13E
  8
CUTOUT
 10
18.53010193017685
 20
45.21596246054268
 30
0.0
  0
VERTEX
  5
13F
  8
CUTOUT
 10
15.03455793017686
 20
45.21596246054268
 30
0.0
  0
VERTEX
  5
140
  8
CUTOUT
 10
15.01719293017686
 20
45.2144434605427
 30
0.0
  0
VERTEX
  5
141
  8
CUTOUT
 10
15.00035593017687
 20
45.20993246054269
 30
0.0
  0
VERTEX
  5
142
  8
CUTOUT
 10
14.98455793017686
 20
45.20256546054269
 30
0.0
  0
VERTEX
  5
143
  8
CUTOUT
 10
14.97027893017686
 20
45.19256746054269
 30
0.0
  0
VERTEX
  5
144
  8
CUTOUT
 10
14.95795393017686
 20
45.18024146054269
 30
0.0
  0
VERTEX
  5
145
  8
CUTOUT
 10
14.94795493017686
 20
45.16596346054268
 30
0.0
  0
VERTEX
  5
146
  8
CUTOUT
 10
14.94058893017686
 20
45.15016546054269
 30
0.0
  0
VERTEX
  5
147
  8
CUTOUT
 10
14.91723193017685
 20
45.08599446054269
 30
0.0
  0
VERTEX
  5
148
  8
CUTOUT
 10
14.90323493017686
 20
45.05596846054269
 30
0.0
  0
VERTEX
  5
149
  8
CUTOUT
 10
14.88423493017686
 20
45.02882846054268
 30
0.0
  0
VERTEX
  5
14A
  8
CUTOUT
 10
14.86081193017687
 20
45.00540046054269
 30
0.0
  0
VERTEX
  5
14B
  8
CUTOUT
 10
14.83367593017685
 20
44.9863954605427
 30
0.0
  0
VERTEX
  5
14C
  8
CUTOUT
 10
14.80365293017685
 20
44.9723914605427
 30
0.0
  0
VERTEX
  5
14D
  8
CUTOUT
 10
14.77165393017685
 20
44.9638134605427
 30
0.0
  0
VERTEX
  5
14E
  8
CUTOUT
 10
14.73865093017686
 20
44.96092246054269
 30
0.0
  0
VERTEX
  5
14F
  8
CUTOUT
 10
14.70564793017687
 20
44.96380646054268
 30
0.0
  0
VERTEX
  5
150
  8
CUTOUT
 10
14.67364693017686
 20
44.97237746054269
 30
0.0
  0
VERTEX
  5
151
  8
CUTOUT
 10
14.64361993017685
 20
44.98637546054269
 30
0.0
  0
VERTEX
  5
152
  8
CUTOUT
 10
14.61647993017687
 20
45.0053744605427
 30
0.0
  0
VERTEX
  5
153
  8
CUTOUT
 10
14.59305193017686
 20
45.02879746054269
 30
0.0
  0
VERTEX
  5
154
  8
CUTOUT
 10
14.57404693017686
 20
45.05593346054269
 30
0.0
  0
VERTEX
  5
155
  8
CUTOUT
 10
14.56004293017686
 20
45.08595646054269
 30
0.0
  0
VERTEX
  5
156
  8
CUTOUT
 10
14.55146493017686
 20
45.11795546054269
 30
0.0
  0
VERTEX
  5
157
  8
CUTOUT
 10
14.54857393017686
 20
45.1509584605427
 30
0.0
  0
VERTEX
  5
158
  8
CUTOUT
 10
14.55145793017687
 20
45.18396146054269
 30
0.0
  0
VERTEX
  5
159
  8
CUTOUT
 10
14.56002893017686
 20
45.21596246054268
 30
0.0
  0
VERTEX
  5
15A
  8
CUTOUT
 10
14.84379993017686
 20
45.99596246054269
 30
0.0
  0
VERTEX
  5
15B
  8
CUTOUT
 10
9.831566930176862
 20
45.99596246054269
 30
0.0
  0
VERTEX
  5
15C
  8
CUTOUT
 10
10.11558993017685
 20
45.21596246054268
 30
0.0
  0
VERTEX
  5
15D
  8
CUTOUT
 10
10.12416193017685
 20
45.18398246054269
 30
0.0
  0
VERTEX
  5
15E
  8
CUTOUT
 10
10.12705193017686
 20
45.15099946054269
 30
0.0
  0
VERTEX
  5
15F
  8
CUTOUT
 10
10.12416993017686
 20
45.11801646054269
 30
0.0
  0
VERTEX
  5
160
  8
CUTOUT
 10
10.11560393017686
 20
45.08603446054269
 30
0.0
  0
VERTEX
  5
161
  8
CUTOUT
 10
10.10161493017686
 20
45.05602546054268
 30
0.0
  0
VERTEX
  5
162
  8
CUTOUT
 10
10.08262693017686
 20
45.02890146054268
 30
0.0
  0
VERTEX
  5
163
  8
CUTOUT
 10
10.05921793017686
 20
45.0054874605427
 30
0.0
  0
VERTEX
  5
164
  8
CUTOUT
 10
10.03209793017686
 20
44.98649346054269
 30
0.0
  0
VERTEX
  5
165
  8
CUTOUT
 10
10.00209293017686
 20
44.9724984605427
 30
0.0
  0
VERTEX
  5
166
  8
CUTOUT
 10
9.970111930176856
 20
44.9639254605427
 30
0.0
  0
VERTEX
  5
167
  8
CUTOUT
 10
9.937129930176866
 20
44.96103546054269
 30
0.0
  0
VERTEX
  5
168
  8
CUTOUT
 10
9.904145930176853
 20
44.96391746054269
 30
0.0
  0
VERTEX
  5
169
  8
CUTOUT
 10
9.872163930176853
 20
44.97248346054269
 30
0.0
  0
VERTEX
  5
16A
  8
CUTOUT
 10
9.84215493017686
 20
44.9864734605427
 30
0.0
  0
VERTEX
  5
16B
  8
CUTOUT
 10
9.815031930176858
 20
45.00546046054269
 30
0.0
  0
VERTEX
  5
16C
  8
CUTOUT
 10
9.791616930176858
 20
45.02886946054269
 30
0.0
  0
VERTEX
  5
16D
  8
CUTOUT
 10
9.772623930176863
 20
45.05598946054269
 30
0.0
  0
VERTEX
  5
16E
  8
CUTOUT
 10
9.758627930176857
 20
45.08599446054269
 30
0.0
  0
VERTEX
  5
16F
  8
CUTOUT
 10
9.735270930176853
 20
45.15016546054269
 30
0.0
  0
VERTEX
  5
170
  8
CUTOUT
 10
9.727903930176865
 20
45.16596346054268
 30
0.0
  0
VERTEX
  5
171
  8
CUTOUT
 10
9.717905930176855
 20
45.18024146054269
 30
0.0
  0
VERTEX
  5
172
  8
CUTOUT
 10
9.705580930176865
 20
45.19256746054269
 30
0.0
  0
VERTEX
  5
173
  8
CUTOUT
 10
9.691301930176863
 20
45.20256546054269
 30
0.0
  0
VERTEX
  5
174
  8
CUTOUT
 10
9.675503930176859
 20
45.20993246054269
 30
0.0
  0
VERTEX
  5
175
  8
CUTOUT
 10
9.658666930176864
 20
45.2144434605427
 30
0.0
  0
VERTEX
  5
176
  8
CUTOUT
 10
9.641301930176866
 20
45.21596246054268
 30
0.0
  0
VERTEX
  5
177
  8
CUTOUT
 10
5.671008930176853
 20
45.21596246054268
 30
0.0
  0
VERTEX
  5
178
  8
CUTOUT
 10
5.671008930176853
 20
41.23012946054268
 30
0.0
  0
VERTEX
  5
179
  8
CUTOUT
 10
5.672527930176855
 20
41.21276546054268
 30
0.0
  0
VERTEX
  5
17A
  8
CUTOUT
 10
5.677039930176861
 20
41.19592846054269
 30
0.0
  0
VERTEX
  5
17B
  8
CUTOUT
 10
5.684405930176865
 20
41.18013046054269
 30
0.0
  0
VERTEX
  5
17C
  8
CUTOUT
 10
5.694403930176861
 20
41.1658514605427
 30
0.0
  0
VERTEX
  5
17D
  8
CUTOUT
 10
5.706729930176863
 20
41.1535254605427
 30
0.0
  0
VERTEX
  5
17E
  8
CUTOUT
 10
5.721008930176865
 20
41.14352746054269
 30
0.0
  0
VERTEX
  5
17F
  8
CUTOUT
 10
5.736806930176854
 20
41.13616046054268
 30
0.0
  0
VERTEX
  5
180
  8
CUTOUT
 10
5.800976930176859
 20
41.11280446054269
 30
0.0
  0
VERTEX
  5
181
  8
CUTOUT
 10
5.830982930176859
 20
41.09880846054268
 30
0.0
  0
VERTEX
  5
182
  8
CUTOUT
 10
5.858101930176858
 20
41.07981446054269
 30
0.0
  0
VERTEX
  5
183
  8
CUTOUT
 10
5.881510930176859
 20
41.05640046054269
 30
0.0
  0
VERTEX
  5
184
  8
CUTOUT
 10
5.900498930176866
 20
41.02927646054269
 30
0.0
  0
VERTEX
  5
185
  8
CUTOUT
 10
5.914487930176861
 20
40.99926846054269
 30
0.0
  0
VERTEX
  5
186
  8
CUTOUT
 10
5.923053930176863
 20
40.9672864605427
 30
0.0
  0
VERTEX
  5
187
  8
CUTOUT
 10
5.925935930176863
 20
40.9343024605427
 30
0.0
  0
VERTEX
  5
188
  8
CUTOUT
 10
5.923046930176852
 20
40.90131946054269
 30
0.0
  0
VERTEX
  5
189
  8
CUTOUT
 10
5.914473930176854
 20
40.86933946054269
 30
0.0
  0
VERTEX
  5
18A
  8
CUTOUT
 10
5.900477930176862
 20
40.83933346054269
 30
0.0
  0
VERTEX
  5
18B
  8
CUTOUT
 10
5.881483930176856
 20
40.81221446054269
 30
0.0
  0
VERTEX
  5
18C
  8
CUTOUT
 10
5.858069930176853
 20
40.78880546054269
 30
0.0
  0
VERTEX
  5
18D
  8
CUTOUT
 10
5.830945930176853
 20
40.7698174605427
 30
0.0
  0
VERTEX
  5
18E
  8
CUTOUT
 10
5.800937930176858
 20
40.75582746054269
 30
0.0
  0
VERTEX
  5
18F
  8
CUTOUT
 10
5.768955930176858
 20
40.74726246054269
 30
0.0
  0
VERTEX
  5
190
  8
CUTOUT
 10
5.735971930176859
 20
40.74438046054269
 30
0.0
  0
VERTEX
  5
191
  8
CUTOUT
 10
5.702988930176858
 20
40.7472694605427
 30
0.0
  0
VERTEX
  5
192
  8
CUTOUT
 10
5.671008930176853
 20
40.75584246054269
 30
0.0
  0
VERTEX
  5
193
  8
CUTOUT
 10
4.891008930176866
 20
41.0398664605427
 30
0.0
  0
VERTEX
  5
194
  8
CUTOUT
 10
4.891008930176866
 20
35.2720664605427
 30
0.0
  0
VERTEX
  5
195
  8
CUTOUT
 10
5.671008930176853
 20
35.5559624605427
 30
0.0
  0
VERTEX
  5
196
  8
CUTOUT
 10
5.699742930176853
 20
35.5639314605427
 30
0.0
  0
VERTEX
  5
197
  8
CUTOUT
 10
5.729369930176858
 20
35.5673054605427
 30
0.0
  0
VERTEX
  5
198
  8
CUTOUT
 10
5.759159930176864
 20
35.5660034605427
 30
0.0
  0
VERTEX
  5
199
  8
CUTOUT
 10
5.788379930176859
 20
35.5600564605427
 30
0.0
  0
VERTEX
  5
19A
  8
CUTOUT
 10
5.816308930176859
 20
35.5496104605427
 30
0.0
  0
VERTEX
  5
19B
  8
CUTOUT
 10
5.842259930176866
 20
35.5349244605427
 30
0.0
  0
VERTEX
  5
19C
  8
CUTOUT
 10
5.865592930176859
 20
35.5163584605427
 30
0.0
  0
VERTEX
  5
19D
  8
CUTOUT
 10
5.885734930176866
 20
35.49437146054269
 30
0.0
  0
VERTEX
  5
19E
  8
CUTOUT
 10
5.902187930176865
 20
35.4695024605427
 30
0.0
  0
VERTEX
  5
19F
  8
CUTOUT
 10
5.914547930176866
 20
35.4423664605427
 30
0.0
  0
VERTEX
  5
1A0
  8
CUTOUT
 10
5.922520930176859
 20
35.41362446054269
 30
0.0
  0
VERTEX
  5
1A1
  8
CUTOUT
 10
5.925898930176857
 20
35.38398946054269
 30
0.0
  0
VERTEX
  5
1A2
  8
CUTOUT
 10
5.924598930176856
 20
35.3541904605427
 30
0.0
  0
VERTEX
  5
1A3
  8
CUTOUT
 10
5.918652930176862
 20
35.3249614605427
 30
0.0
  0
VERTEX
  5
1A4
  8
CUTOUT
 10
5.90820693017686
 20
35.2970234605427
 30
0.0
  0
VERTEX
  5
1A5
  8
CUTOUT
 10
5.893517930176856
 20
35.27106346054269
 30
0.0
  0
VERTEX
  5
1A6
  8
CUTOUT
 10
5.874948930176856
 20
35.24772146054269
 30
0.0
  0
VERTEX
  5
1A7
  8
CUTOUT
 10
5.852955930176861
 20
35.22757146054269
 30
0.0
  0
VERTEX
  5
1A8
  8
CUTOUT
 10
5.828081930176864
 20
35.2111114605427
 30
0.0
  0
VERTEX
  5
1A9
  8
CUTOUT
 10
5.800938930176855
 20
35.1987454605427
 30
0.0
  0
VERTEX
  5
1AA
  8
CUTOUT
 10
5.736806930176854
 20
35.1752834605427
 30
0.0
  0
VERTEX
  5
1AB
  8
CUTOUT
 10
5.721008930176865
 20
35.1679164605427
 30
0.0
  0
VERTEX
  5
1AC
  8
CUTOUT
 10
5.706729930176863
 20
35.1579184605427
 30
0.0
  0
VERTEX
  5
1AD
  8
CUTOUT
 10
5.694403930176861
 20
35.1455924605427
 30
0.0
  0
VERTEX
  5
1AE
  8
CUTOUT
 10
5.684405930176865
 20
35.1313134605427
 30
0.0
  0
VERTEX
  5
1AF
  8
CUTOUT
 10
5.677039930176861
 20
35.1155154605427
 30
0.0
  0
VERTEX
  5
1B0
  8
CUTOUT
 10
5.672527930176855
 20
35.0986784605427
 30
0.0
  0
VERTEX
  5
1B1
  8
CUTOUT
 10
5.671008930176853
 20
35.0813134605427
 30
0.0
  0
VERTEX
  5
1B2
  8
CUTOUT
 10
5.671008930176853
 20
30.8301294605427
 30
0.0
  0
VERTEX
  5
1B3
  8
CUTOUT
 10
5.672527930176855
 20
30.8127654605427
 30
0.0
  0
VERTEX
  5
1B4
  8
CUTOUT
 10
5.677039930176861
 20
30.7959284605427
 30
0.0
  0
VERTEX
  5
1B5
  8
CUTOUT
 10
5.684405930176865
 20
30.7801304605427
 30
0.0
  0
VERTEX
  5
1B6
  8
CUTOUT
 10
5.694403930176861
 20
30.7658514605427
 30
0.0
  0
VERTEX
  5
1B7
  8
CUTOUT
 10
5.706729930176863
 20
30.7535254605427
 30
0.0
  0
VERTEX
  5
1B8
  8
CUTOUT
 10
5.721008930176865
 20
30.7435274605427
 30
0.0
  0
VERTEX
  5
1B9
  8
CUTOUT
 10
5.736806930176854
 20
30.7361604605427
 30
0.0
  0
VERTEX
  5
1BA
  8
CUTOUT
 10
5.800976930176859
 20
30.7128044605427
 30
0.0
  0
VERTEX
  5
1BB
  8
CUTOUT
 10
5.830982930176859
 20
30.6988084605427
 30
0.0
  0
VERTEX
  5
1BC
  8
CUTOUT
 10
5.858101930176858
 20
30.6798144605427
 30
0.0
  0
VERTEX
  5
1BD
  8
CUTOUT
 10
5.881510930176859
 20
30.6564004605427
 30
0.0
  0
VERTEX
  5
1BE
  8
CUTOUT
 10
5.900498930176866
 20
30.6292764605427
 30
0.0
  0
VERTEX
  5
1BF
  8
CUTOUT
 10
5.914487930176861
 20
30.5992684605427
 30
0.0
  0
VERTEX
  5
1C0
  8
CUTOUT
 10
5.923053930176863
 20
30.5672864605427
 30
0.0
  0
VERTEX
  5
1C1
  8
CUTOUT
 10
5.925935930176863
 20
30.5343024605427
 30
0.0
  0
VERTEX
  5
1C2
  8
CUTOUT
 10
5.923046930176852
 20
30.5013194605427
 30
0.0
  0
VERTEX
  5
1C3
  8
CUTOUT
 10
5.914473930176854
 20
30.4693394605427
 30
0.0
  0
VERTEX
  5
1C4
  8
CUTOUT
 10
5.900477930176862
 20
30.4393334605427
 30
0.0
  0
VERTEX
  5
1C5
  8
CUTOUT
 10
5.881483930176856
 20
30.4122144605427
 30
0.0
  0
VERTEX
  5
1C6
  8
CUTOUT
 10
5.858069930176853
 20
30.3888054605427
 30
0.0
  0
VERTEX
  5
1C7
  8
CUTOUT
 10
5.830945930176853
 20
30.3698174605427
 30
0.0
  0
VERTEX
  5
1C8
  8
CUTOUT
 10
5.800937930176858
 20
30.3558274605427
 30
0.0
  0
VERTEX
  5
1C9
  8
CUTOUT
 10
5.768955930176858
 20
30.3472624605427
 30
0.0
  0
VERTEX
  5
1CA
  8
CUTOUT
 10
5.735971930176859
 20
30.3443804605427
 30
0.0
  0
VERTEX
  5
1CB
  8
CUTOUT
 10
5.702988930176858
 20
30.3472694605427
 30
0.0
  0
VERTEX
  5
1CC
  8
CUTOUT
 10
5.671008930176853
 20
30.3558424605427
 30
0.0
  0
VERTEX
  5
1CD
  8
CUTOUT
 10
4.891008930176866
 20
30.6398664605427
 30
0.0
  0
VERTEX
  5
1CE
  8
CUTOUT
 10
4.891008930176866
 20
24.8720664605427
 30
0.0
  0
VERTEX
  5
1CF
  8
CUTOUT
 10
5.671008930176853
 20
25.1559624605427
 30
0.0
  0
VERTEX
  5
1D0
  8
CUTOUT
 10
5.699742930176853
 20
25.1639314605427
 30
0.0
  0
VERTEX
  5
1D1
  8
CUTOUT
 10
5.729369930176858
 20
25.1673054605427
 30
0.0
  0
VERTEX
  5
1D2
  8
CUTOUT
 10
5.759159930176864
 20
25.1660034605427
 30
0.0
  0
VERTEX
  5
1D3
  8
CUTOUT
 10
5.788379930176859
 20
25.1600564605427
 30
0.0
  0
VERTEX
  5
1D4
  8
CUTOUT
 10
5.816308930176859
 20
25.1496104605427
 30
0.0
  0
VERTEX
  5
1D5
  8
CUTOUT
 10
5.842259930176866
 20
25.1349244605427
 30
0.0
  0
VERTEX
  5
1D6
  8
CUTOUT
 10
5.865592930176859
 20
25.1163584605427
 30
0.0
  0
VERTEX
  5
1D7
  8
CUTOUT
 10
5.885734930176866
 20
25.0943714605427
 30
0.0
  0
VERTEX
  5
1D8
  8
CUTOUT
 10
5.902187930176865
 20
25.0695024605427
 30
0.0
  0
VERTEX
  5
1D9
  8
CUTOUT
 10
5.914547930176866
 20
25.0423664605427
 30
0.0
  0
VERTEX
  5
1DA
  8
CUTOUT
 10
5.922520930176859
 20
25.0136244605427
 30
0.0
  0
VERTEX
  5
1DB
  8
CUTOUT
 10
5.925898930176857
 20
24.9839894605427
 30
0.0
  0
VERTEX
  5
1DC
  8
CUTOUT
 10
5.924598930176856
 20
24.9541904605427
 30
0.0
  0
VERTEX
  5
1DD
  8
CUTOUT
 10
5.918652930176862
 20
24.9249614605427
 30
0.0
  0
VERTEX
  5
1DE
  8
CUTOUT
 10
5.90820693017686
 20
24.8970234605427
 30
0.0
  0
VERTEX
  5
1DF
  8
CUTOUT
 10
5.893517930176856
 20
24.8710634605427
 30
0.0
  0
VERTEX
  5
1E0
  8
CUTOUT
 10
5.874948930176856
 20
24.8477214605427
 30
0.0
  0
VERTEX
  5
1E1
  8
CUTOUT
 10
5.852955930176861
 20
24.8275714605427
 30
0.0
  0
VERTEX
  5
1E2
  8
CUTOUT
 10
5.828081930176864
 20
24.8111114605427
 30
0.0
  0
VERTEX
  5
1E3
  8
CUTOUT
 10
5.800938930176855
 20
24.7987454605427
 30
0.0
  0
VERTEX
  5
1E4
  8
CUTOUT
 10
5.736806930176854
 20
24.7752834605427
 30
0.0
  0
VERTEX
  5
1E5
  8
CUTOUT
 10
5.721008930176865
 20
24.7679164605427
 30
0.0
  0
VERTEX
  5
1E6
  8
CUTOUT
 10
5.706729930176863
 20
24.7579184605427
 30
0.0
  0
VERTEX
  5
1E7
  8
CUTOUT
 10
5.694403930176861
 20
24.7455924605427
 30
0.0
  0
VERTEX
  5
1E8
  8
CUTOUT
 10
5.684405930176865
 20
24.7313134605427
 30
0.0
  0
VERTEX
  5
1E9
  8
CUTOUT
 10
5.677039930176861
 20
24.7155154605427
 30
0.0
  0
VERTEX
  5
1EA
  8
CUTOUT
 10
5.672527930176855
 20
24.6986784605427
 30
0.0
  0
VERTEX
  5
1EB
  8
CUTOUT
 10
5.671008930176853
 20
24.6813134605427
 30
0.0
  0
VERTEX
  5
1EC
  8
CUTOUT
 10
5.671008930176853
 20
20.4301294605427
 30
0.0
  0
VERTEX
  5
1ED
  8
CUTOUT
 10
5.672527930176855
 20
20.4127654605427
 30
0.0
  0
VERTEX
  5
1EE
  8
CUTOUT
 10
5.677039930176861
 20
20.3959284605427
 30
0.0
  0
VERTEX
  5
1EF
  8
CUTOUT
 10
5.684405930176865
 20
20.3801304605427
 30
0.0
  0
VERTEX
  5
1F0
  8
CUTOUT
 10
5.694403930176861
 20
20.36585146054271
 30
0.0
  0
VERTEX
  5
1F1
  8
CUTOUT
 10
5.706729930176863
 20
20.35352546054271
 30
0.0
  0
VERTEX
  5
1F2
  8
CUTOUT
 10
5.721008930176865
 20
20.3435274605427
 30
0.0
  0
VERTEX
  5
1F3
  8
CUTOUT
 10
5.736806930176854
 20
20.3361604605427
 30
0.0
  0
VERTEX
  5
1F4
  8
CUTOUT
 10
5.800976930176859
 20
20.3128044605427
 30
0.0
  0
VERTEX
  5
1F5
  8
CUTOUT
 10
5.830982930176859
 20
20.2988084605427
 30
0.0
  0
VERTEX
  5
1F6
  8
CUTOUT
 10
5.858101930176858
 20
20.2798144605427
 30
0.0
  0
VERTEX
  5
1F7
  8
CUTOUT
 10
5.881510930176859
 20
20.2564004605427
 30
0.0
  0
VERTEX
  5
1F8
  8
CUTOUT
 10
5.900498930176866
 20
20.2292764605427
 30
0.0
  0
VERTEX
  5
1F9
  8
CUTOUT
 10
5.914487930176861
 20
20.1992684605427
 30
0.0
  0
VERTEX
  5
1FA
  8
CUTOUT
 10
5.923053930176863
 20
20.16728646054271
 30
0.0
  0
VERTEX
  5
1FB
  8
CUTOUT
 10
5.925935930176863
 20
20.13430246054271
 30
0.0
  0
VERTEX
  5
1FC
  8
CUTOUT
 10
5.923046930176852
 20
20.1013194605427
 30
0.0
  0
VERTEX
  5
1FD
  8
CUTOUT
 10
5.914473930176854
 20
20.0693394605427
 30
0.0
  0
VERTEX
  5
1FE
  8
CUTOUT
 10
5.900477930176862
 20
20.0393334605427
 30
0.0
  0
VERTEX
  5
1FF
  8
CUTOUT
 10
5.881483930176856
 20
20.0122144605427
 30
0.0
  0
VERTEX
  5
200
  8
CUTOUT
 10
5.858069930176853
 20
19.9888054605427
 30
0.0
  0
VERTEX
  5
201
  8
CUTOUT
 10
5.830945930176853
 20
19.96981746054271
 30
0.0
  0
VERTEX
  5
202
  8
CUTOUT
 10
5.800937930176858
 20
19.9558274605427
 30
0.0
  0
VERTEX
  5
203
  8
CUTOUT
 10
5.768955930176858
 20
19.9472624605427
 30
0.0
  0
VERTEX
  5
204
  8
CUTOUT
 10
5.735971930176859
 20
19.9443804605427
 30
0.0
  0
VERTEX
  5
205
  8
CUTOUT
 10
5.702988930176858
 20
19.94726946054271
 30
0.0
  0
VERTEX
  5
206
  8
CUTOUT
 10
5.671008930176853
 20
19.9558424605427
 30
0.0
  0
VERTEX
  5
207
  8
CUTOUT
 10
4.891008930176866
 20
20.23986646054271
 30
0.0
  0
VERTEX
  5
208
  8
CUTOUT
 10
4.891008930176866
 20
14.4720664605427
 30
0.0
  0
VERTEX
  5
209
  8
CUTOUT
 10
5.671008930176853
 20
14.75596246054271
 30
0.0
  0
VERTEX
  5
20A
  8
CUTOUT
 10
5.699742930176853
 20
14.7639314605427
 30
0.0
  0
VERTEX
  5
20B
  8
CUTOUT
 10
5.729369930176858
 20
14.76730546054271
 30
0.0
  0
VERTEX
  5
20C
  8
CUTOUT
 10
5.759159930176864
 20
14.76600346054271
 30
0.0
  0
VERTEX
  5
20D
  8
CUTOUT
 10
5.788379930176859
 20
14.76005646054271
 30
0.0
  0
VERTEX
  5
20E
  8
CUTOUT
 10
5.816308930176859
 20
14.7496104605427
 30
0.0
  0
VERTEX
  5
20F
  8
CUTOUT
 10
5.842259930176866
 20
14.73492446054271
 30
0.0
  0
VERTEX
  5
210
  8
CUTOUT
 10
5.865592930176859
 20
14.7163584605427
 30
0.0
  0
VERTEX
  5
211
  8
CUTOUT
 10
5.885734930176866
 20
14.6943714605427
 30
0.0
  0
VERTEX
  5
212
  8
CUTOUT
 10
5.902187930176865
 20
14.66950246054271
 30
0.0
  0
VERTEX
  5
213
  8
CUTOUT
 10
5.914547930176866
 20
14.64236646054271
 30
0.0
  0
VERTEX
  5
214
  8
CUTOUT
 10
5.922520930176859
 20
14.6136244605427
 30
0.0
  0
VERTEX
  5
215
  8
CUTOUT
 10
5.925898930176857
 20
14.5839894605427
 30
0.0
  0
VERTEX
  5
216
  8
CUTOUT
 10
5.924598930176856
 20
14.55419046054271
 30
0.0
  0
VERTEX
  5
217
  8
CUTOUT
 10
5.918652930176862
 20
14.52496146054271
 30
0.0
  0
VERTEX
  5
218
  8
CUTOUT
 10
5.90820693017686
 20
14.4970234605427
 30
0.0
  0
VERTEX
  5
219
  8
CUTOUT
 10
5.893517930176856
 20
14.4710634605427
 30
0.0
  0
VERTEX
  5
21A
  8
CUTOUT
 10
5.874948930176856
 20
14.4477214605427
 30
0.0
  0
VERTEX
  5
21B
  8
CUTOUT
 10
5.852955930176861
 20
14.4275714605427
 30
0.0
  0
VERTEX
  5
21C
  8
CUTOUT
 10
5.828081930176864
 20
14.41111146054271
 30
0.0
  0
VERTEX
  5
21D
  8
CUTOUT
 10
5.800938930176855
 20
14.39874546054271
 30
0.0
  0
VERTEX
  5
21E
  8
CUTOUT
 10
5.736806930176854
 20
14.37528446054271
 30
0.0
  0
VERTEX
  5
21F
  8
CUTOUT
 10
5.721008930176865
 20
14.36791746054271
 30
0.0
  0
VERTEX
  5
220
  8
CUTOUT
 10
5.706729930176863
 20
14.35791946054271
 30
0.0
  0
VERTEX
  5
221
  8
CUTOUT
 10
5.694403930176861
 20
14.34559346054271
 30
0.0
  0
VERTEX
  5
222
  8
CUTOUT
 10
5.684405930176865
 20
14.33131446054271
 30
0.0
  0
VERTEX
  5
223
  8
CUTOUT
 10
5.677039930176861
 20
14.3155164605427
 30
0.0
  0
VERTEX
  5
224
  8
CUTOUT
 10
5.672527930176855
 20
14.29867946054271
 30
0.0
  0
VERTEX
  5
225
  8
CUTOUT
 10
5.671008930176853
 20
14.28131446054271
 30
0.0
  0
VERTEX
  5
226
  8
CUTOUT
 10
5.671008930176853
 20
9.515962460542703
 30
0.0
  0
VERTEX
  5
227
  8
CUTOUT
 10
10.11548893017687
 20
9.515962460542696
 30
0.0
  0
VERTEX
  5
228
  8
CUTOUT
 10
10.11548893017687
 20
10.2959624605427
 30
0.0
  0
VERTEX
  5
229
  8
CUTOUT
 10
11.96270893017686
 20
10.2959674605427
 30
0.0
  0
VERTEX
  5
22A
  8
CUTOUT
 10
11.96732493017686
 20
10.35463146054271
 30
0.0
  0
VERTEX
  5
22B
  8
CUTOUT
 10
11.98106193017686
 20
10.41185046054269
 30
0.0
  0
VERTEX
  5
22C
  8
CUTOUT
 10
12.00358093017685
 20
10.4662154605427
 30
0.0
  0
VERTEX
  5
22D
  8
CUTOUT
 10
12.03432693017686
 20
10.5163894605427
 30
0.0
  0
VERTEX
  5
22E
  8
CUTOUT
 10
12.07254293017687
 20
10.5611354605427
 30
0.0
  0
VERTEX
  5
22F
  8
CUTOUT
 10
12.11728793017686
 20
10.5993524605427
 30
0.0
  0
VERTEX
  5
230
  8
CUTOUT
 10
12.16746193017686
 20
10.6300984605427
 30
0.0
  0
VERTEX
  5
231
  8
CUTOUT
 10
12.22182693017686
 20
10.6526184605427
 30
0.0
  0
VERTEX
  5
232
  8
CUTOUT
 10
12.27904593017686
 20
10.6663554605427
 30
0.0
  0
VERTEX
  5
233
  8
CUTOUT
 10
12.33770893017686
 20
10.6709724605427
 30
0.0
  0
VERTEX
  5
234
  8
CUTOUT
 10
12.40282693017686
 20
10.6652754605427
 30
0.0
  0
VERTEX
  5
235
  8
CUTOUT
 10
12.46596693017686
 20
10.6483564605427
 30
0.0
  0
VERTEX
  5
236
  8
CUTOUT
 10
12.52520993017686
 20
10.6207304605427
 30
0.0
  0
VERTEX
  5
237
  8
CUTOUT
 10
12.57875493017686
 20
10.5832374605427
 30
0.0
  0
VERTEX
  5
238
  8
CUTOUT
 10
12.62497693017686
 20
10.5370154605427
 30
0.0
  0
VERTEX
  5
239
  8
CUTOUT
 10
12.66246893017686
 20
10.48346946054269
 30
0.0
  0
VERTEX
  5
23A
  8
CUTOUT
 10
12.69009393017686
 20
10.4242264605427
 30
0.0
  0
VERTEX
  5
23B
  8
CUTOUT
 10
12.70701193017686
 20
10.36108646054269
 30
0.0
  0
VERTEX
  5
23C
  8
CUTOUT
 10
12.71270893017686
 20
10.2959674605427
 30
0.0
  0
VERTEX
  5
23D
  8
CUTOUT
 10
14.55992893017687
 20
10.2959624605427
 30
0.0
  0
VERTEX
  5
23E
  8
CUTOUT
 10
14.55992893017687
 20
9.515962460542696
 30
0.0
  0
VERTEX
  5
23F
  8
CUTOUT
 10
19.00436893017685
 20
9.515962460542696
 30
0.0
  0
VERTEX
  5
240
  8
CUTOUT
 10
19.00436893017685
 20
10.2959624605427
 30
0.0
  0
VERTEX
  5
241
  8
CUTOUT
 10
23.44880893017685
 20
10.2959624605427
 30
0.0
  0
VERTEX
  5
242
  8
CUTOUT
 10
23.44880893017685
 20
9.515962460542696
 30
0.0
  0
VERTEX
  5
243
  8
CUTOUT
 10
27.89324893017685
 20
9.515962460542696
 30
0.0
  0
VERTEX
  5
244
  8
CUTOUT
 10
27.89324893017685
 20
10.2959624605427
 30
0.0
  0
VERTEX
  5
245
  8
CUTOUT
 10
32.33768893017685
 20
10.2959624605427
 30
0.0
  0
VERTEX
  5
246
  8
CUTOUT
 10
32.33768893017685
 20
9.515962460542696
 30
0.0
  0
VERTEX
  5
247
  8
CUTOUT
 10
36.78212893017685
 20
9.515962460542696
 30
0.0
  0
VERTEX
  5
248
  8
CUTOUT
 10
36.78212893017685
 20
10.2959624605427
 30
0.0
  0
VERTEX
  5
249
  8
CUTOUT
 10
38.62930893017685
 20
10.2959674605427
 30
0.0
  0
VERTEX
  5
24A
  8
CUTOUT
 10
38.63392493017685
 20
10.35463146054271
 30
0.0
  0
VERTEX
  5
24B
  8
CUTOUT
 10
38.64766193017685
 20
10.41185046054269
 30
0.0
  0
VERTEX
  5
24C
  8
CUTOUT
 10
38.67018093017685
 20
10.4662154605427
 30
0.0
  0
VERTEX
  5
24D
  8
CUTOUT
 10
38.70092693017686
 20
10.5163894605427
 30
0.0
  0
VERTEX
  5
24E
  8
CUTOUT
 10
38.73914293017685
 20
10.5611354605427
 30
0.0
  0
VERTEX
  5
24F
  8
CUTOUT
 10
38.78388793017685
 20
10.5993524605427
 30
0.0
  0
VERTEX
  5
250
  8
CUTOUT
 10
38.83406193017685
 20
10.6300984605427
 30
0.0
  0
VERTEX
  5
251
  8
CUTOUT
 10
38.88842693017686
 20
10.6526184605427
 30
0.0
  0
VERTEX
  5
252
  8
CUTOUT
 10
38.94564593017686
 20
10.6663554605427
 30
0.0
  0
VERTEX
  5
253
  8
CUTOUT
 10
39.00430893017685
 20
10.6709724605427
 30
0.0
  0
VERTEX
  5
254
  8
CUTOUT
 10
39.06942693017685
 20
10.6652754605427
 30
0.0
  0
VERTEX
  5
255
  8
CUTOUT
 10
39.13256693017686
 20
10.6483564605427
 30
0.0
  0
VERTEX
  5
256
  8
CUTOUT
 10
39.19180993017685
 20
10.6207304605427
 30
0.0
  0
VERTEX
  5
257
  8
CUTOUT
 10
39.24535493017685
 20
10.5832374605427
 30
0.0
  0
VERTEX
  5
258
  8
CUTOUT
 10
39.29157693017685
 20
10.5370154605427
 30
0.0
  0
VERTEX
  5
259
  8
CUTOUT
 10
39.32906893017685
 20
10.48346946054269
 30
0.0
  0
VERTEX
  5
25A
  8
CUTOUT
 10
39.35669393017685
 20
10.4242264605427
 30
0.0
  0
VERTEX
  5
25B
  8
CUTOUT
 10
39.37361193017686
 20
10.36108646054269
 30
0.0
  0
VERTEX
  5
25C
  8
CUTOUT
 10
39.37930893017685
 20
10.2959674605427
 30
0.0
  0
VERTEX
  5
25D
  8
CUTOUT
 10
41.22656893017685
 20
10.2959624605427
 30
0.0
  0
VERTEX
  5
25E
  8
CUTOUT
 10
41.22656893017685
 20
9.515962460542696
 30
0.0
  0
VERTEX
  5
25F
  8
CUTOUT
 10
45.67104893017686
 20
9.515962460542696
 30
0.0
  0
VERTEX
  5
260
  8
CUTOUT
 10
45.67107593017685
 20
14.2812014605427
 30
0.0
  0
VERTEX
  5
261
  8
CUTOUT
 10
45.66955693017685
 20
14.2985664605427
 30
0.0
  0
VERTEX
  5
262
  8
CUTOUT
 10
45.66504493017685
 20
14.3154034605427
 30
0.0
  0
VERTEX
  5
263
  8
CUTOUT
 10
45.65767793017685
 20
14.3312014605427
 30
0.0
  0
VERTEX
  5
264
  8
CUTOUT
 10
45.64767993017686
 20
14.3454804605427
 30
0.0
  0
VERTEX
  5
265
  8
CUTOUT
 10
45.63535493017685
 20
14.3578064605427
 30
0.0
  0
VERTEX
  5
266
  8
CUTOUT
 10
45.62107593017685
 20
14.3678044605427
 30
0.0
  0
VERTEX
  5
267
  8
CUTOUT
 10
45.60527793017685
 20
14.3751714605427
 30
0.0
  0
VERTEX
  5
268
  8
CUTOUT
 10
45.54114693017686
 20
14.3986334605427
 30
0.0
  0
VERTEX
  5
269
  8
CUTOUT
 10
45.51400393017685
 20
14.4109994605427
 30
0.0
  0
VERTEX
  5
26A
  8
CUTOUT
 10
45.48912893017685
 20
14.42745946054269
 30
0.0
  0
VERTEX
  5
26B
  8
CUTOUT
 10
45.46713693017686
 20
14.44760946054269
 30
0.0
  0
VERTEX
  5
26C
  8
CUTOUT
 10
45.44856793017686
 20
14.47095146054269
 30
0.0
  0
VERTEX
  5
26D
  8
CUTOUT
 10
45.43387893017685
 20
14.49691146054271
 30
0.0
  0
VERTEX
  5
26E
  8
CUTOUT
 10
45.42343293017685
 20
14.5248494605427
 30
0.0
  0
VERTEX
  5
26F
  8
CUTOUT
 10
45.41748693017686
 20
14.5540784605427
 30
0.0
  0
VERTEX
  5
270
  8
CUTOUT
 10
45.41618693017686
 20
14.58387746054269
 30
0.0
  0
VERTEX
  5
271
  8
CUTOUT
 10
45.41956493017685
 20
14.61351246054269
 30
0.0
  0
VERTEX
  5
272
  8
CUTOUT
 10
45.42753793017685
 20
14.6422544605427
 30
0.0
  0
VERTEX
  5
273
  8
CUTOUT
 10
45.43989793017685
 20
14.6693904605427
 30
0.0
  0
VERTEX
  5
274
  8
CUTOUT
 10
45.45635193017686
 20
14.6942584605427
 30
0.0
  0
VERTEX
  5
275
  8
CUTOUT
 10
45.47649393017685
 20
14.71624646054269
 30
0.0
  0
VERTEX
  5
276
  8
CUTOUT
 10
45.49982693017686
 20
14.7348124605427
 30
0.0
  0
VERTEX
  5
277
  8
CUTOUT
 10
45.52577793017685
 20
14.7494984605427
 30
0.0
  0
VERTEX
  5
278
  8
CUTOUT
 10
45.55370793017685
 20
14.7599434605427
 30
0.0
  0
VERTEX
  5
279
  8
CUTOUT
 10
45.58292693017685
 20
14.76589046054269
 30
0.0
  0
VERTEX
  5
27A
  8
CUTOUT
 10
45.61271693017685
 20
14.7671924605427
 30
0.0
  0
VERTEX
  5
27B
  8
CUTOUT
 10
45.64234393017686
 20
14.7638174605427
 30
0.0
  0
VERTEX
  5
27C
  8
CUTOUT
 10
45.67107793017686
 20
14.75584946054271
 30
0.0
  0
VERTEX
  5
27D
  8
CUTOUT
 10
46.45107693017685
 20
14.47194846054271
 30
0.0
  0
VERTEX
  5
27E
  8
CUTOUT
 10
46.45110893017685
 20
20.2397484605427
 30
0.0
  0
VERTEX
  5
27F
  8
CUTOUT
 10
45.67110793017685
 20
19.95572846054269
 30
0.0
  0
VERTEX
  5
280
  8
CUTOUT
 10
45.63912793017685
 20
19.94715646054269
 30
0.0
  0
VERTEX
  5
281
  8
CUTOUT
 10
45.60614493017685
 20
19.94426746054269
 30
0.0
  0
VERTEX
  5
282
  8
CUTOUT
 10
45.57316093017685
 20
19.94714946054269
 30
0.0
  0
VERTEX
  5
283
  8
CUTOUT
 10
45.54117893017685
 20
19.95571546054269
 30
0.0
  0
VERTEX
  5
284
  8
CUTOUT
 10
45.51116993017686
 20
19.96970446054269
 30
0.0
  0
VERTEX
  5
285
  8
CUTOUT
 10
45.48404693017685
 20
19.98869246054269
 30
0.0
  0
VERTEX
  5
286
  8
CUTOUT
 10
45.46063293017685
 20
20.01210246054269
 30
0.0
  0
VERTEX
  5
287
  8
CUTOUT
 10
45.44163893017686
 20
20.03922146054269
 30
0.0
  0
VERTEX
  5
288
  8
CUTOUT
 10
45.42764293017685
 20
20.06922746054269
 30
0.0
  0
VERTEX
  5
289
  8
CUTOUT
 10
45.41907093017685
 20
20.1012074605427
 30
0.0
  0
VERTEX
  5
28A
  8
CUTOUT
 10
45.41618193017685
 20
20.1341904605427
 30
0.0
  0
VERTEX
  5
28B
  8
CUTOUT
 10
45.41906393017685
 20
20.1671744605427
 30
0.0
  0
VERTEX
  5
28C
  8
CUTOUT
 10
45.42762993017686
 20
20.1991564605427
 30
0.0
  0
VERTEX
  5
28D
  8
CUTOUT
 10
45.44161893017685
 20
20.22916446054269
 30
0.0
  0
VERTEX
  5
28E
  8
CUTOUT
 10
45.46060693017686
 20
20.25628846054269
 30
0.0
  0
VERTEX
  5
28F
  8
CUTOUT
 10
45.48401593017685
 20
20.27970246054269
 30
0.0
  0
VERTEX
  5
290
  8
CUTOUT
 10
45.51113593017686
 20
20.29869646054269
 30
0.0
  0
VERTEX
  5
291
  8
CUTOUT
 10
45.54114193017686
 20
20.31269146054269
 30
0.0
  0
VERTEX
  5
292
  8
CUTOUT
 10
45.60531193017685
 20
20.33604746054269
 30
0.0
  0
VERTEX
  5
293
  8
CUTOUT
 10
45.62110993017685
 20
20.3434144605427
 30
0.0
  0
VERTEX
  5
294
  8
CUTOUT
 10
45.63538893017685
 20
20.3534124605427
 30
0.0
  0
VERTEX
  5
295
  8
CUTOUT
 10
45.64771493017685
 20
20.36573846054269
 30
0.0
  0
VERTEX
  5
296
  8
CUTOUT
 10
45.65771293017685
 20
20.38001646054269
 30
0.0
  0
VERTEX
  5
297
  8
CUTOUT
 10
45.66507993017685
 20
20.3958144605427
 30
0.0
  0
VERTEX
  5
298
  8
CUTOUT
 10
45.66959093017685
 20
20.41265146054269
 30
0.0
  0
VERTEX
  5
299
  8
CUTOUT
 10
45.67110993017685
 20
20.4300164605427
 30
0.0
  0
VERTEX
  5
29A
  8
CUTOUT
 10
45.67113493017685
 20
24.68120046054269
 30
0.0
  0
VERTEX
  5
29B
  8
CUTOUT
 10
45.66961493017686
 20
24.6985654605427
 30
0.0
  0
VERTEX
  5
29C
  8
CUTOUT
 10
45.66510393017685
 20
24.71540246054269
 30
0.0
  0
VERTEX
  5
29D
  8
CUTOUT
 10
45.65773693017685
 20
24.73120046054269
 30
0.0
  0
VERTEX
  5
29E
  8
CUTOUT
 10
45.64773893017685
 20
24.7454794605427
 30
0.0
  0
VERTEX
  5
29F
  8
CUTOUT
 10
45.63541393017685
 20
24.75780546054269
 30
0.0
  0
VERTEX
  5
2A0
  8
CUTOUT
 10
45.62113493017686
 20
24.76780346054269
 30
0.0
  0
VERTEX
  5
2A1
  8
CUTOUT
 10
45.60533693017685
 20
24.7751704605427
 30
0.0
  0
VERTEX
  5
2A2
  8
CUTOUT
 10
45.54120593017685
 20
24.7986334605427
 30
0.0
  0
VERTEX
  5
2A3
  8
CUTOUT
 10
45.51406193017686
 20
24.8109994605427
 30
0.0
  0
VERTEX
  5
2A4
  8
CUTOUT
 10
45.48918793017685
 20
24.82745946054269
 30
0.0
  0
VERTEX
  5
2A5
  8
CUTOUT
 10
45.46719593017685
 20
24.8476094605427
 30
0.0
  0
VERTEX
  5
2A6
  8
CUTOUT
 10
45.44862693017685
 20
24.8709514605427
 30
0.0
  0
VERTEX
  5
2A7
  8
CUTOUT
 10
45.43393793017685
 20
24.8969114605427
 30
0.0
  0
VERTEX
  5
2A8
  8
CUTOUT
 10
45.42349193017686
 20
24.9248494605427
 30
0.0
  0
VERTEX
  5
2A9
  8
CUTOUT
 10
45.41754593017685
 20
24.9540784605427
 30
0.0
  0
VERTEX
  5
2AA
  8
CUTOUT
 10
45.41624593017685
 20
24.98387746054269
 30
0.0
  0
VERTEX
  5
2AB
  8
CUTOUT
 10
45.41962393017685
 20
25.0135124605427
 30
0.0
  0
VERTEX
  5
2AC
  8
CUTOUT
 10
45.42759693017685
 20
25.04225446054269
 30
0.0
  0
VERTEX
  5
2AD
  8
CUTOUT
 10
45.43995693017686
 20
25.0693904605427
 30
0.0
  0
VERTEX
  5
2AE
  8
CUTOUT
 10
45.45641093017685
 20
25.09425846054269
 30
0.0
  0
VERTEX
  5
2AF
  8
CUTOUT
 10
45.47655193017685
 20
25.11624646054269
 30
0.0
  0
VERTEX
  5
2B0
  8
CUTOUT
 10
45.49988593017685
 20
25.13481246054269
 30
0.0
  0
VERTEX
  5
2B1
  8
CUTOUT
 10
45.52583693017686
 20
25.14949846054269
 30
0.0
  0
VERTEX
  5
2B2
  8
CUTOUT
 10
45.55376693017686
 20
25.1599434605427
 30
0.0
  0
VERTEX
  5
2B3
  8
CUTOUT
 10
45.58298593017685
 20
25.16589046054269
 30
0.0
  0
VERTEX
  5
2B4
  8
CUTOUT
 10
45.61277593017686
 20
25.16719246054269
 30
0.0
  0
VERTEX
  5
2B5
  8
CUTOUT
 10
45.64240293017685
 20
25.1638174605427
 30
0.0
  0
VERTEX
  5
2B6
  8
CUTOUT
 10
45.67113693017685
 20
25.15584946054269
 30
0.0
  0
VERTEX
  5
2B7
  8
CUTOUT
 10
46.45113593017685
 20
24.87194846054269
 30
0.0
  0
VERTEX
  5
2B8
  8
CUTOUT
 10
46.45116793017687
 20
30.63974846054269
 30
0.0
  0
VERTEX
  5
2B9
  8
CUTOUT
 10
45.67116693017685
 20
30.3557284605427
 30
0.0
  0
VERTEX
  5
2BA
  8
CUTOUT
 10
45.63918593017686
 20
30.3471564605427
 30
0.0
  0
VERTEX
  5
2BB
  8
CUTOUT
 10
45.60620293017686
 20
30.3442674605427
 30
0.0
  0
VERTEX
  5
2BC
  8
CUTOUT
 10
45.57321993017686
 20
30.3471494605427
 30
0.0
  0
VERTEX
  5
2BD
  8
CUTOUT
 10
45.54123793017686
 20
30.35571546054269
 30
0.0
  0
VERTEX
  5
2BE
  8
CUTOUT
 10
45.51122893017686
 20
30.3697044605427
 30
0.0
  0
VERTEX
  5
2BF
  8
CUTOUT
 10
45.48410593017685
 20
30.3886924605427
 30
0.0
  0
VERTEX
  5
2C0
  8
CUTOUT
 10
45.46069193017686
 20
30.41210246054269
 30
0.0
  0
VERTEX
  5
2C1
  8
CUTOUT
 10
45.44169793017686
 20
30.43922146054269
 30
0.0
  0
VERTEX
  5
2C2
  8
CUTOUT
 10
45.42770193017687
 20
30.46922746054269
 30
0.0
  0
VERTEX
  5
2C3
  8
CUTOUT
 10
45.41912993017687
 20
30.50120746054269
 30
0.0
  0
VERTEX
  5
2C4
  8
CUTOUT
 10
45.41624093017685
 20
30.5341904605427
 30
0.0
  0
VERTEX
  5
2C5
  8
CUTOUT
 10
45.41912293017685
 20
30.5671744605427
 30
0.0
  0
VERTEX
  5
2C6
  8
CUTOUT
 10
45.42768893017686
 20
30.59915646054269
 30
0.0
  0
VERTEX
  5
2C7
  8
CUTOUT
 10
45.44167793017687
 20
30.6291644605427
 30
0.0
  0
VERTEX
  5
2C8
  8
CUTOUT
 10
45.46066593017686
 20
30.65628846054269
 30
0.0
  0
VERTEX
  5
2C9
  8
CUTOUT
 10
45.48407493017686
 20
30.6797024605427
 30
0.0
  0
VERTEX
  5
2CA
  8
CUTOUT
 10
45.51119493017686
 20
30.6986964605427
 30
0.0
  0
VERTEX
  5
2CB
  8
CUTOUT
 10
45.54119993017686
 20
30.7126914605427
 30
0.0
  0
VERTEX
  5
2CC
  8
CUTOUT
 10
45.60537093017686
 20
30.7360474605427
 30
0.0
  0
VERTEX
  5
2CD
  8
CUTOUT
 10
45.62116893017686
 20
30.7434144605427
 30
0.0
  0
VERTEX
  5
2CE
  8
CUTOUT
 10
45.63544793017687
 20
30.75341246054269
 30
0.0
  0
VERTEX
  5
2CF
  8
CUTOUT
 10
45.64777293017686
 20
30.7657384605427
 30
0.0
  0
VERTEX
  5
2D0
  8
CUTOUT
 10
45.65777193017686
 20
30.78001646054269
 30
0.0
  0
VERTEX
  5
2D1
  8
CUTOUT
 10
45.66513793017685
 20
30.79581446054269
 30
0.0
  0
VERTEX
  5
2D2
  8
CUTOUT
 10
45.66964993017686
 20
30.8126514605427
 30
0.0
  0
VERTEX
  5
2D3
  8
CUTOUT
 10
45.67116893017686
 20
30.83001646054269
 30
0.0
  0
VERTEX
  5
2D4
  8
CUTOUT
 10
45.67119293017686
 20
35.08120046054269
 30
0.0
  0
VERTEX
  5
2D5
  8
CUTOUT
 10
45.66967393017686
 20
35.09856546054269
 30
0.0
  0
VERTEX
  5
2D6
  8
CUTOUT
 10
45.66516293017686
 20
35.1154024605427
 30
0.0
  0
VERTEX
  5
2D7
  8
CUTOUT
 10
45.65779593017686
 20
35.13120046054269
 30
0.0
  0
VERTEX
  5
2D8
  8
CUTOUT
 10
45.64779793017686
 20
35.14547946054269
 30
0.0
  0
VERTEX
  5
2D9
  8
CUTOUT
 10
45.63547293017686
 20
35.15780546054269
 30
0.0
  0
VERTEX
  5
2DA
  8
CUTOUT
 10
45.62119393017686
 20
35.16780346054269
 30
0.0
  0
VERTEX
  5
2DB
  8
CUTOUT
 10
45.60539593017685
 20
35.17517046054269
 30
0.0
  0
VERTEX
  5
2DC
  8
CUTOUT
 10
45.54126493017687
 20
35.19863346054269
 30
0.0
  0
VERTEX
  5
2DD
  8
CUTOUT
 10
45.51412093017686
 20
35.21099946054269
 30
0.0
  0
VERTEX
  5
2DE
  8
CUTOUT
 10
45.48924693017686
 20
35.22745946054269
 30
0.0
  0
VERTEX
  5
2DF
  8
CUTOUT
 10
45.46725493017686
 20
35.24760946054269
 30
0.0
  0
VERTEX
  5
2E0
  8
CUTOUT
 10
45.44868493017685
 20
35.27095146054269
 30
0.0
  0
VERTEX
  5
2E1
  8
CUTOUT
 10
45.43399693017686
 20
35.29691146054269
 30
0.0
  0
VERTEX
  5
2E2
  8
CUTOUT
 10
45.42355093017686
 20
35.32484946054269
 30
0.0
  0
VERTEX
  5
2E3
  8
CUTOUT
 10
45.41760493017686
 20
35.35407846054269
 30
0.0
  0
VERTEX
  5
2E4
  8
CUTOUT
 10
45.41630493017686
 20
35.38387746054269
 30
0.0
  0
VERTEX
  5
2E5
  8
CUTOUT
 10
45.41968293017686
 20
35.41351246054269
 30
0.0
  0
VERTEX
  5
2E6
  8
CUTOUT
 10
45.42765593017685
 20
35.4422544605427
 30
0.0
  0
VERTEX
  5
2E7
  8
CUTOUT
 10
45.44001593017686
 20
35.4693904605427
 30
0.0
  0
VERTEX
  5
2E8
  8
CUTOUT
 10
45.45646993017687
 20
35.4942584605427
 30
0.0
  0
VERTEX
  5
2E9
  8
CUTOUT
 10
45.47661093017686
 20
35.51624646054269
 30
0.0
  0
VERTEX
  5
2EA
  8
CUTOUT
 10
45.49994493017687
 20
35.5348124605427
 30
0.0
  0
VERTEX
  5
2EB
  8
CUTOUT
 10
45.52589593017686
 20
35.54949846054269
 30
0.0
  0
VERTEX
  5
2EC
  8
CUTOUT
 10
45.55382493017686
 20
35.5599434605427
 30
0.0
  0
VERTEX
  5
2ED
  8
CUTOUT
 10
45.58304493017685
 20
35.56589046054269
 30
0.0
  0
VERTEX
  5
2EE
  8
CUTOUT
 10
45.61283493017686
 20
35.5671924605427
 30
0.0
  0
VERTEX
  5
2EF
  8
CUTOUT
 10
45.64246193017686
 20
35.56381746054269
 30
0.0
  0
VERTEX
  5
2F0
  8
CUTOUT
 10
45.67119593017686
 20
35.55584946054269
 30
0.0
  0
VERTEX
  5
2F1
  8
CUTOUT
 10
46.45119493017685
 20
35.27194846054269
 30
0.0
  0
VERTEX
  5
2F2
  8
CUTOUT
 10
46.45122693017686
 20
41.03974846054268
 30
0.0
  0
VERTEX
  5
2F3
  8
CUTOUT
 10
45.67122593017686
 20
40.75572846054268
 30
0.0
  0
VERTEX
  5
2F4
  8
CUTOUT
 10
45.63924493017686
 20
40.74715646054268
 30
0.0
  0
VERTEX
  5
2F5
  8
CUTOUT
 10
45.60626193017686
 20
40.74426746054269
 30
0.0
  0
VERTEX
  5
2F6
  8
CUTOUT
 10
45.57327893017685
 20
40.74714946054269
 30
0.0
  0
VERTEX
  5
2F7
  8
CUTOUT
 10
45.54129693017686
 20
40.75571546054269
 30
0.0
  0
VERTEX
  5
2F8
  8
CUTOUT
 10
45.51128793017686
 20
40.76970446054268
 30
0.0
  0
VERTEX
  5
2F9
  8
CUTOUT
 10
45.48416493017686
 20
40.78869246054269
 30
0.0
  0
VERTEX
  5
2FA
  8
CUTOUT
 10
45.46074993017686
 20
40.81210246054269
 30
0.0
  0
VERTEX
  5
2FB
  8
CUTOUT
 10
45.44175693017687
 20
40.83922146054269
 30
0.0
  0
VERTEX
  5
2FC
  8
CUTOUT
 10
45.42776093017686
 20
40.86922746054269
 30
0.0
  0
VERTEX
  5
2FD
  8
CUTOUT
 10
45.41918893017686
 20
40.90120746054268
 30
0.0
  0
VERTEX
  5
2FE
  8
CUTOUT
 10
45.41629893017686
 20
40.93419046054268
 30
0.0
  0
VERTEX
  5
2FF
  8
CUTOUT
 10
45.41918193017686
 20
40.96717446054268
 30
0.0
  0
VERTEX
  5
300
  8
CUTOUT
 10
45.42774793017686
 20
40.99915646054268
 30
0.0
  0
VERTEX
  5
301
  8
CUTOUT
 10
45.44173693017686
 20
41.02916446054269
 30
0.0
  0
VERTEX
  5
302
  8
CUTOUT
 10
45.46072493017687
 20
41.05628846054269
 30
0.0
  0
VERTEX
  5
303
  8
CUTOUT
 10
45.48413393017685
 20
41.07970246054269
 30
0.0
  0
VERTEX
  5
304
  8
CUTOUT
 10
45.51125393017686
 20
41.09869646054268
 30
0.0
  0
VERTEX
  5
305
  8
CUTOUT
 10
45.54125893017687
 20
41.11269146054269
 30
0.0
  0
VERTEX
  5
306
  8
CUTOUT
 10
45.60542993017685
 20
41.13604746054268
 30
0.0
  0
VERTEX
  5
307
  8
CUTOUT
 10
45.62122793017686
 20
41.14341446054269
 30
0.0
  0
VERTEX
  5
308
  8
CUTOUT
 10
45.63550693017686
 20
41.15341246054268
 30
0.0
  0
VERTEX
  5
309
  8
CUTOUT
 10
45.64783193017686
 20
41.16573846054268
 30
0.0
  0
VERTEX
  5
30A
  8
CUTOUT
 10
45.65783093017686
 20
41.18001646054269
 30
0.0
  0
VERTEX
  5
30B
  8
CUTOUT
 10
45.66519693017686
 20
41.19581446054269
 30
0.0
  0
VERTEX
  5
30C
  8
CUTOUT
 10
45.66970893017685
 20
41.21265146054269
 30
0.0
  0
VERTEX
  5
30D
  8
CUTOUT
 10
45.67122793017685
 20
41.23001646054269
 30
0.0
  0
SEQEND
  5
59C
  8
CUTOUT
  0
POLYLINE
  5
71
  8
CUTOUT
 66
     1
 10
0.0
 20
0.0
 30
0.0
 70
     1
  0
VERTEX
  5
30E
  8
CUTOUT
 10
90.32901506982313
 20
44.98927330247341
 30
0.0
  0
VERTEX
  5
30F
  8
CUTOUT
 10
90.32899206982313
 20
41.00332730247341
 30
0.0
  0
VERTEX
  5
310
  8
CUTOUT
 10
90.32747306982313
 20
40.9859623024734
 30
0.0
  0
VERTEX
  5
311
  8
CUTOUT
 10
90.32296106982314
 20
40.9691253024734
 30
0.0
  0
VERTEX
  5
312
  8
CUTOUT
 10
90.31559506982313
 20
40.9533273024734
 30
0.0
  0
VERTEX
  5
313
  8
CUTOUT
 10
90.30559606982314
 20
40.93904930247341
 30
0.0
  0
VERTEX
  5
314
  8
CUTOUT
 10
90.29327106982313
 20
40.92672330247341
 30
0.0
  0
VERTEX
  5
315
  8
CUTOUT
 10
90.27899206982313
 20
40.91672530247341
 30
0.0
  0
VERTEX
  5
316
  8
CUTOUT
 10
90.26319406982313
 20
40.90935830247341
 30
0.0
  0
VERTEX
  5
317
  8
CUTOUT
 10
90.19902306982314
 20
40.8860023024734
 30
0.0
  0
VERTEX
  5
318
  8
CUTOUT
 10
90.16901806982314
 20
40.87200730247341
 30
0.0
  0
VERTEX
  5
319
  8
CUTOUT
 10
90.14189806982313
 20
40.8530133024734
 30
0.0
  0
VERTEX
  5
31A
  8
CUTOUT
 10
90.11848906982314
 20
40.8295993024734
 30
0.0
  0
VERTEX
  5
31B
  8
CUTOUT
 10
90.09950106982313
 20
40.8024753024734
 30
0.0
  0
VERTEX
  5
31C
  8
CUTOUT
 10
90.08551206982314
 20
40.7724673024734
 30
0.0
  0
VERTEX
  5
31D
  8
CUTOUT
 10
90.07694606982314
 20
40.7404853024734
 30
0.0
  0
VERTEX
  5
31E
  8
CUTOUT
 10
90.07406306982314
 20
40.7075013024734
 30
0.0
  0
VERTEX
  5
31F
  8
CUTOUT
 10
90.07695306982313
 20
40.6745183024734
 30
0.0
  0
VERTEX
  5
320
  8
CUTOUT
 10
90.08552506982313
 20
40.6425383024734
 30
0.0
  0
VERTEX
  5
321
  8
CUTOUT
 10
90.09952106982314
 20
40.6125323024734
 30
0.0
  0
VERTEX
  5
322
  8
CUTOUT
 10
90.11851406982314
 20
40.5854133024734
 30
0.0
  0
VERTEX
  5
323
  8
CUTOUT
 10
90.14192906982314
 20
40.5620033024734
 30
0.0
  0
VERTEX
  5
324
  8
CUTOUT
 10
90.16905206982314
 20
40.54301530247341
 30
0.0
  0
VERTEX
  5
325
  8
CUTOUT
 10
90.19906106982313
 20
40.5290263024734
 30
0.0
  0
VERTEX
  5
326
  8
CUTOUT
 10
90.23104306982313
 20
40.5204603024734
 30
0.0
  0
VERTEX
  5
327
  8
CUTOUT
 10
90.26402606982313
 20
40.5175783024734
 30
0.0
  0
VERTEX
  5
328
  8
CUTOUT
 10
90.29700906982313
 20
40.52046730247341
 30
0.0
  0
VERTEX
  5
329
  8
CUTOUT
 10
90.32899006982313
 20
40.52903930247341
 30
0.0
  0
VERTEX
  5
32A
  8
CUTOUT
 10
91.10899106982313
 20
40.81305930247341
 30
0.0
  0
VERTEX
  5
32B
  8
CUTOUT
 10
91.10895906982313
 20
35.04525930247341
 30
0.0
  0
VERTEX
  5
32C
  8
CUTOUT
 10
90.32896006982314
 20
35.32916030247341
 30
0.0
  0
VERTEX
  5
32D
  8
CUTOUT
 10
90.30022606982314
 20
35.3371283024734
 30
0.0
  0
VERTEX
  5
32E
  8
CUTOUT
 10
90.27059906982313
 20
35.34050330247341
 30
0.0
  0
VERTEX
  5
32F
  8
CUTOUT
 10
90.24080906982313
 20
35.33920130247341
 30
0.0
  0
VERTEX
  5
330
  8
CUTOUT
 10
90.21158906982313
 20
35.33325430247341
 30
0.0
  0
VERTEX
  5
331
  8
CUTOUT
 10
90.18366006982313
 20
35.3228093024734
 30
0.0
  0
VERTEX
  5
332
  8
CUTOUT
 10
90.15770906982314
 20
35.3081233024734
 30
0.0
  0
VERTEX
  5
333
  8
CUTOUT
 10
90.13437506982314
 20
35.28955730247341
 30
0.0
  0
VERTEX
  5
334
  8
CUTOUT
 10
90.11423406982314
 20
35.2675693024734
 30
0.0
  0
VERTEX
  5
335
  8
CUTOUT
 10
90.09778006982313
 20
35.24270130247341
 30
0.0
  0
VERTEX
  5
336
  8
CUTOUT
 10
90.08542006982313
 20
35.21556530247341
 30
0.0
  0
VERTEX
  5
337
  8
CUTOUT
 10
90.07744706982314
 20
35.18682330247341
 30
0.0
  0
VERTEX
  5
338
  8
CUTOUT
 10
90.07406906982314
 20
35.15718830247341
 30
0.0
  0
VERTEX
  5
339
  8
CUTOUT
 10
90.07536906982314
 20
35.1273893024734
 30
0.0
  0
VERTEX
  5
33A
  8
CUTOUT
 10
90.08131506982313
 20
35.0981603024734
 30
0.0
  0
VERTEX
  5
33B
  8
CUTOUT
 10
90.09176106982314
 20
35.07022230247341
 30
0.0
  0
VERTEX
  5
33C
  8
CUTOUT
 10
90.10644906982313
 20
35.04426230247341
 30
0.0
  0
VERTEX
  5
33D
  8
CUTOUT
 10
90.12501906982314
 20
35.02092030247341
 30
0.0
  0
VERTEX
  5
33E
  8
CUTOUT
 10
90.14701106982314
 20
35.00077030247341
 30
0.0
  0
VERTEX
  5
33F
  8
CUTOUT
 10
90.17188506982313
 20
34.9843103024734
 30
0.0
  0
VERTEX
  5
340
  8
CUTOUT
 10
90.19902906982314
 20
34.9719443024734
 30
0.0
  0
VERTEX
  5
341
  8
CUTOUT
 10
90.26316006982313
 20
34.94848130247341
 30
0.0
  0
VERTEX
  5
342
  8
CUTOUT
 10
90.27895806982313
 20
34.94111430247341
 30
0.0
  0
VERTEX
  5
343
  8
CUTOUT
 10
90.29323706982314
 20
34.93111630247341
 30
0.0
  0
VERTEX
  5
344
  8
CUTOUT
 10
90.30556206982314
 20
34.91879030247341
 30
0.0
  0
VERTEX
  5
345
  8
CUTOUT
 10
90.31556006982314
 20
34.90451130247341
 30
0.0
  0
VERTEX
  5
346
  8
CUTOUT
 10
90.32292706982314
 20
34.88871330247341
 30
0.0
  0
VERTEX
  5
347
  8
CUTOUT
 10
90.32743806982313
 20
34.87187630247341
 30
0.0
  0
VERTEX
  5
348
  8
CUTOUT
 10
90.32895706982313
 20
34.85451130247341
 30
0.0
  0
VERTEX
  5
349
  8
CUTOUT
 10
90.32893306982314
 20
30.60332730247341
 30
0.0
  0
VERTEX
  5
34A
  8
CUTOUT
 10
90.32741406982313
 20
30.58596230247341
 30
0.0
  0
VERTEX
  5
34B
  8
CUTOUT
 10
90.32290206982313
 20
30.56912530247341
 30
0.0
  0
VERTEX
  5
34C
  8
CUTOUT
 10
90.31553606982314
 20
30.55332730247341
 30
0.0
  0
VERTEX
  5
34D
  8
CUTOUT
 10
90.30553706982313
 20
30.53904930247341
 30
0.0
  0
VERTEX
  5
34E
  8
CUTOUT
 10
90.29321206982314
 20
30.52672330247341
 30
0.0
  0
VERTEX
  5
34F
  8
CUTOUT
 10
90.27893306982314
 20
30.51672530247341
 30
0.0
  0
VERTEX
  5
350
  8
CUTOUT
 10
90.26313506982314
 20
30.50935830247341
 30
0.0
  0
VERTEX
  5
351
  8
CUTOUT
 10
90.19896406982313
 20
30.48600230247341
 30
0.0
  0
VERTEX
  5
352
  8
CUTOUT
 10
90.16895906982313
 20
30.47200730247341
 30
0.0
  0
VERTEX
  5
353
  8
CUTOUT
 10
90.14183906982313
 20
30.45301330247341
 30
0.0
  0
VERTEX
  5
354
  8
CUTOUT
 10
90.11843006982313
 20
30.42959930247341
 30
0.0
  0
VERTEX
  5
355
  8
CUTOUT
 10
90.09944206982314
 20
30.40247530247341
 30
0.0
  0
VERTEX
  5
356
  8
CUTOUT
 10
90.08545306982313
 20
30.37246730247341
 30
0.0
  0
VERTEX
  5
357
  8
CUTOUT
 10
90.07688706982313
 20
30.34048530247341
 30
0.0
  0
VERTEX
  5
358
  8
CUTOUT
 10
90.07400506982313
 20
30.30750130247341
 30
0.0
  0
VERTEX
  5
359
  8
CUTOUT
 10
90.07689406982314
 20
30.27451830247341
 30
0.0
  0
VERTEX
  5
35A
  8
CUTOUT
 10
90.08546606982314
 20
30.24253830247341
 30
0.0
  0
VERTEX
  5
35B
  8
CUTOUT
 10
90.09946206982313
 20
30.21253230247341
 30
0.0
  0
VERTEX
  5
35C
  8
CUTOUT
 10
90.11845606982314
 20
30.18541330247341
 30
0.0
  0
VERTEX
  5
35D
  8
CUTOUT
 10
90.14187006982313
 20
30.16200330247341
 30
0.0
  0
VERTEX
  5
35E
  8
CUTOUT
 10
90.16899306982313
 20
30.14301530247341
 30
0.0
  0
VERTEX
  5
35F
  8
CUTOUT
 10
90.19900206982314
 20
30.12902630247341
 30
0.0
  0
VERTEX
  5
360
  8
CUTOUT
 10
90.23098406982314
 20
30.12046030247341
 30
0.0
  0
VERTEX
  5
361
  8
CUTOUT
 10
90.26396706982314
 20
30.11757830247341
 30
0.0
  0
VERTEX
  5
362
  8
CUTOUT
 10
90.29695006982314
 20
30.12046730247341
 30
0.0
  0
VERTEX
  5
363
  8
CUTOUT
 10
90.32893106982313
 20
30.12903930247341
 30
0.0
  0
VERTEX
  5
364
  8
CUTOUT
 10
91.10893206982314
 20
30.41305930247341
 30
0.0
  0
VERTEX
  5
365
  8
CUTOUT
 10
91.10890006982314
 20
24.64525930247341
 30
0.0
  0
VERTEX
  5
366
  8
CUTOUT
 10
90.32890106982313
 20
24.92916030247341
 30
0.0
  0
VERTEX
  5
367
  8
CUTOUT
 10
90.30016706982313
 20
24.93712830247341
 30
0.0
  0
VERTEX
  5
368
  8
CUTOUT
 10
90.27054006982314
 20
24.94050330247341
 30
0.0
  0
VERTEX
  5
369
  8
CUTOUT
 10
90.24075006982314
 20
24.93920130247341
 30
0.0
  0
VERTEX
  5
36A
  8
CUTOUT
 10
90.21153106982314
 20
24.93325430247341
 30
0.0
  0
VERTEX
  5
36B
  8
CUTOUT
 10
90.18360106982314
 20
24.92280930247341
 30
0.0
  0
VERTEX
  5
36C
  8
CUTOUT
 10
90.15765006982313
 20
24.90812330247341
 30
0.0
  0
VERTEX
  5
36D
  8
CUTOUT
 10
90.13431606982313
 20
24.88955730247341
 30
0.0
  0
VERTEX
  5
36E
  8
CUTOUT
 10
90.11417506982313
 20
24.86756930247341
 30
0.0
  0
VERTEX
  5
36F
  8
CUTOUT
 10
90.09772106982314
 20
24.84270130247341
 30
0.0
  0
VERTEX
  5
370
  8
CUTOUT
 10
90.08536106982314
 20
24.81556530247341
 30
0.0
  0
VERTEX
  5
371
  8
CUTOUT
 10
90.07738806982313
 20
24.78682330247341
 30
0.0
  0
VERTEX
  5
372
  8
CUTOUT
 10
90.07401006982313
 20
24.75718830247341
 30
0.0
  0
VERTEX
  5
373
  8
CUTOUT
 10
90.07531006982313
 20
24.72738930247341
 30
0.0
  0
VERTEX
  5
374
  8
CUTOUT
 10
90.08125606982314
 20
24.69816030247341
 30
0.0
  0
VERTEX
  5
375
  8
CUTOUT
 10
90.09170206982313
 20
24.67022230247341
 30
0.0
  0
VERTEX
  5
376
  8
CUTOUT
 10
90.10639106982313
 20
24.64426230247341
 30
0.0
  0
VERTEX
  5
377
  8
CUTOUT
 10
90.12496006982313
 20
24.62092030247341
 30
0.0
  0
VERTEX
  5
378
  8
CUTOUT
 10
90.14695206982313
 20
24.60077030247341
 30
0.0
  0
VERTEX
  5
379
  8
CUTOUT
 10
90.17182606982314
 20
24.58431030247341
 30
0.0
  0
VERTEX
  5
37A
  8
CUTOUT
 10
90.19897006982313
 20
24.57194430247341
 30
0.0
  0
VERTEX
  5
37B
  8
CUTOUT
 10
90.26310106982314
 20
24.54848130247341
 30
0.0
  0
VERTEX
  5
37C
  8
CUTOUT
 10
90.27889906982314
 20
24.54111430247341
 30
0.0
  0
VERTEX
  5
37D
  8
CUTOUT
 10
90.29317806982313
 20
24.53111630247341
 30
0.0
  0
VERTEX
  5
37E
  8
CUTOUT
 10
90.30550306982313
 20
24.51879030247341
 30
0.0
  0
VERTEX
  5
37F
  8
CUTOUT
 10
90.31550106982313
 20
24.50451130247341
 30
0.0
  0
VERTEX
  5
380
  8
CUTOUT
 10
90.32286806982313
 20
24.48871330247341
 30
0.0
  0
VERTEX
  5
381
  8
CUTOUT
 10
90.32737906982314
 20
24.47187630247341
 30
0.0
  0
VERTEX
  5
382
  8
CUTOUT
 10
90.32889906982314
 20
24.45451130247341
 30
0.0
  0
VERTEX
  5
383
  8
CUTOUT
 10
90.32887406982313
 20
20.20332730247341
 30
0.0
  0
VERTEX
  5
384
  8
CUTOUT
 10
90.32735506982313
 20
20.18596230247341
 30
0.0
  0
VERTEX
  5
385
  8
CUTOUT
 10
90.32284406982313
 20
20.16912530247341
 30
0.0
  0
VERTEX
  5
386
  8
CUTOUT
 10
90.31547706982313
 20
20.15332730247341
 30
0.0
  0
VERTEX
  5
387
  8
CUTOUT
 10
90.30547906982314
 20
20.13904930247341
 30
0.0
  0
VERTEX
  5
388
  8
CUTOUT
 10
90.29315306982313
 20
20.12672330247342
 30
0.0
  0
VERTEX
  5
389
  8
CUTOUT
 10
90.27887406982313
 20
20.11672530247341
 30
0.0
  0
VERTEX
  5
38A
  8
CUTOUT
 10
90.26307606982313
 20
20.10935830247341
 30
0.0
  0
VERTEX
  5
38B
  8
CUTOUT
 10
90.19890606982314
 20
20.08600230247341
 30
0.0
  0
VERTEX
  5
38C
  8
CUTOUT
 10
90.16890006982314
 20
20.07200730247341
 30
0.0
  0
VERTEX
  5
38D
  8
CUTOUT
 10
90.14178006982313
 20
20.05301330247341
 30
0.0
  0
VERTEX
  5
38E
  8
CUTOUT
 10
90.11837106982314
 20
20.02959930247341
 30
0.0
  0
VERTEX
  5
38F
  8
CUTOUT
 10
90.09938306982313
 20
20.00247530247341
 30
0.0
  0
VERTEX
  5
390
  8
CUTOUT
 10
90.08539406982314
 20
19.97246730247341
 30
0.0
  0
VERTEX
  5
391
  8
CUTOUT
 10
90.07682806982314
 20
19.94048530247341
 30
0.0
  0
VERTEX
  5
392
  8
CUTOUT
 10
90.07394606982314
 20
19.90750130247341
 30
0.0
  0
VERTEX
  5
393
  8
CUTOUT
 10
90.07683506982313
 20
19.87451830247341
 30
0.0
  0
VERTEX
  5
394
  8
CUTOUT
 10
90.08540706982313
 20
19.84253830247341
 30
0.0
  0
VERTEX
  5
395
  8
CUTOUT
 10
90.09940306982314
 20
19.81253230247341
 30
0.0
  0
VERTEX
  5
396
  8
CUTOUT
 10
90.11839706982313
 20
19.78541330247341
 30
0.0
  0
VERTEX
  5
397
  8
CUTOUT
 10
90.14181106982313
 20
19.76200330247341
 30
0.0
  0
VERTEX
  5
398
  8
CUTOUT
 10
90.16893406982314
 20
19.74301530247341
 30
0.0
  0
VERTEX
  5
399
  8
CUTOUT
 10
90.19894306982313
 20
19.72902630247341
 30
0.0
  0
VERTEX
  5
39A
  8
CUTOUT
 10
90.23092506982313
 20
19.72046030247341
 30
0.0
  0
VERTEX
  5
39B
  8
CUTOUT
 10
90.26390906982313
 20
19.71757830247341
 30
0.0
  0
VERTEX
  5
39C
  8
CUTOUT
 10
90.29689206982313
 20
19.72046730247341
 30
0.0
  0
VERTEX
  5
39D
  8
CUTOUT
 10
90.32887206982313
 20
19.72903930247341
 30
0.0
  0
VERTEX
  5
39E
  8
CUTOUT
 10
91.10887306982313
 20
20.01305930247342
 30
0.0
  0
VERTEX
  5
39F
  8
CUTOUT
 10
91.10884106982313
 20
14.24525930247342
 30
0.0
  0
VERTEX
  5
3A0
  8
CUTOUT
 10
90.32884206982314
 20
14.52916030247342
 30
0.0
  0
VERTEX
  5
3A1
  8
CUTOUT
 10
90.30010806982314
 20
14.53712830247341
 30
0.0
  0
VERTEX
  5
3A2
  8
CUTOUT
 10
90.27048106982313
 20
14.54050330247342
 30
0.0
  0
VERTEX
  5
3A3
  8
CUTOUT
 10
90.24069106982313
 20
14.53920130247341
 30
0.0
  0
VERTEX
  5
3A4
  8
CUTOUT
 10
90.21147206982313
 20
14.53325430247342
 30
0.0
  0
VERTEX
  5
3A5
  8
CUTOUT
 10
90.18354206982313
 20
14.52280930247341
 30
0.0
  0
VERTEX
  5
3A6
  8
CUTOUT
 10
90.15759106982314
 20
14.50812330247341
 30
0.0
  0
VERTEX
  5
3A7
  8
CUTOUT
 10
90.13425806982313
 20
14.48955730247341
 30
0.0
  0
VERTEX
  5
3A8
  8
CUTOUT
 10
90.11411606982314
 20
14.46756930247341
 30
0.0
  0
VERTEX
  5
3A9
  8
CUTOUT
 10
90.09766206982313
 20
14.44270130247342
 30
0.0
  0
VERTEX
  5
3AA
  8
CUTOUT
 10
90.08530206982313
 20
14.41556530247342
 30
0.0
  0
VERTEX
  5
3AB
  8
CUTOUT
 10
90.07732906982314
 20
14.38682330247341
 30
0.0
  0
VERTEX
  5
3AC
  8
CUTOUT
 10
90.07395106982314
 20
14.35718830247341
 30
0.0
  0
VERTEX
  5
3AD
  8
CUTOUT
 10
90.07525106982314
 20
14.32738930247341
 30
0.0
  0
VERTEX
  5
3AE
  8
CUTOUT
 10
90.08119706982313
 20
14.29816030247341
 30
0.0
  0
VERTEX
  5
3AF
  8
CUTOUT
 10
90.09164306982314
 20
14.27022230247342
 30
0.0
  0
VERTEX
  5
3B0
  8
CUTOUT
 10
90.10633206982314
 20
14.24426230247341
 30
0.0
  0
VERTEX
  5
3B1
  8
CUTOUT
 10
90.12490106982314
 20
14.22092030247341
 30
0.0
  0
VERTEX
  5
3B2
  8
CUTOUT
 10
90.14689306982314
 20
14.20077030247341
 30
0.0
  0
VERTEX
  5
3B3
  8
CUTOUT
 10
90.17176806982313
 20
14.18431030247341
 30
0.0
  0
VERTEX
  5
3B4
  8
CUTOUT
 10
90.19891106982314
 20
14.17194430247341
 30
0.0
  0
VERTEX
  5
3B5
  8
CUTOUT
 10
90.26304206982313
 20
14.14848230247342
 30
0.0
  0
VERTEX
  5
3B6
  8
CUTOUT
 10
90.27884006982313
 20
14.14111530247342
 30
0.0
  0
VERTEX
  5
3B7
  8
CUTOUT
 10
90.29311906982313
 20
14.13111730247342
 30
0.0
  0
VERTEX
  5
3B8
  8
CUTOUT
 10
90.30544406982314
 20
14.11879130247342
 30
0.0
  0
VERTEX
  5
3B9
  8
CUTOUT
 10
90.31544206982313
 20
14.10451230247342
 30
0.0
  0
VERTEX
  5
3BA
  8
CUTOUT
 10
90.32280906982314
 20
14.08871430247341
 30
0.0
  0
VERTEX
  5
3BB
  8
CUTOUT
 10
90.32732106982313
 20
14.07187730247342
 30
0.0
  0
VERTEX
  5
3BC
  8
CUTOUT
 10
90.32884006982313
 20
14.05451230247342
 30
0.0
  0
VERTEX
  5
3BD
  8
CUTOUT
 10
90.32881306982314
 20
9.289273302473411
 30
0.0
  0
VERTEX
  5
3BE
  8
CUTOUT
 10
85.88433306982313
 20
9.289273302473411
 30
0.0
  0
VERTEX
  5
3BF
  8
CUTOUT
 10
85.88433306982313
 20
10.06927330247341
 30
0.0
  0
VERTEX
  5
3C0
  8
CUTOUT
 10
84.03707306982314
 20
10.06927830247341
 30
0.0
  0
VERTEX
  5
3C1
  8
CUTOUT
 10
84.03137606982314
 20
10.13439730247341
 30
0.0
  0
VERTEX
  5
3C2
  8
CUTOUT
 10
84.01445806982314
 20
10.19753730247341
 30
0.0
  0
VERTEX
  5
3C3
  8
CUTOUT
 10
83.98683306982313
 20
10.25678030247341
 30
0.0
  0
VERTEX
  5
3C4
  8
CUTOUT
 10
83.94934106982313
 20
10.31032630247342
 30
0.0
  0
VERTEX
  5
3C5
  8
CUTOUT
 10
83.90311906982313
 20
10.35654830247342
 30
0.0
  0
VERTEX
  5
3C6
  8
CUTOUT
 10
83.84957406982313
 20
10.39404130247342
 30
0.0
  0
VERTEX
  5
3C7
  8
CUTOUT
 10
83.79033106982314
 20
10.42166730247342
 30
0.0
  0
VERTEX
  5
3C8
  8
CUTOUT
 10
83.72719106982314
 20
10.43858630247342
 30
0.0
  0
VERTEX
  5
3C9
  8
CUTOUT
 10
83.66207306982314
 20
10.44428330247342
 30
0.0
  0
VERTEX
  5
3CA
  8
CUTOUT
 10
83.60341006982314
 20
10.43966630247342
 30
0.0
  0
VERTEX
  5
3CB
  8
CUTOUT
 10
83.54619106982314
 20
10.42592930247341
 30
0.0
  0
VERTEX
  5
3CC
  8
CUTOUT
 10
83.49182606982313
 20
10.40340930247341
 30
0.0
  0
VERTEX
  5
3CD
  8
CUTOUT
 10
83.44165206982314
 20
10.37266330247342
 30
0.0
  0
VERTEX
  5
3CE
  8
CUTOUT
 10
83.39690706982313
 20
10.33444630247342
 30
0.0
  0
VERTEX
  5
3CF
  8
CUTOUT
 10
83.35869106982314
 20
10.28970030247341
 30
0.0
  0
VERTEX
  5
3D0
  8
CUTOUT
 10
83.32794506982313
 20
10.23952630247341
 30
0.0
  0
VERTEX
  5
3D1
  8
CUTOUT
 10
83.30542606982313
 20
10.18516130247341
 30
0.0
  0
VERTEX
  5
3D2
  8
CUTOUT
 10
83.29168906982314
 20
10.12794230247342
 30
0.0
  0
VERTEX
  5
3D3
  8
CUTOUT
 10
83.28707306982314
 20
10.06927830247341
 30
0.0
  0
VERTEX
  5
3D4
  8
CUTOUT
 10
81.43989306982313
 20
10.06927330247341
 30
0.0
  0
VERTEX
  5
3D5
  8
CUTOUT
 10
81.43989306982313
 20
9.289273302473411
 30
0.0
  0
VERTEX
  5
3D6
  8
CUTOUT
 10
76.99545306982313
 20
9.289273302473411
 30
0.0
  0
VERTEX
  5
3D7
  8
CUTOUT
 10
76.99545306982313
 20
10.06927330247341
 30
0.0
  0
VERTEX
  5
3D8
  8
CUTOUT
 10
72.55101306982311
 20
10.06927330247341
 30
0.0
  0
VERTEX
  5
3D9
  8
CUTOUT
 10
72.55101306982311
 20
9.289273302473411
 30
0.0
  0
VERTEX
  5
3DA
  8
CUTOUT
 10
68.10657306982313
 20
9.289273302473411
 30
0.0
  0
VERTEX
  5
3DB
  8
CUTOUT
 10
68.10657306982313
 20
10.06927330247341
 30
0.0
  0
VERTEX
  5
3DC
  8
CUTOUT
 10
63.66213306982312
 20
10.06927330247342
 30
0.0
  0
VERTEX
  5
3DD
  8
CUTOUT
 10
63.66213306982312
 20
9.289273302473418
 30
0.0
  0
VERTEX
  5
3DE
  8
CUTOUT
 10
59.21769306982313
 20
9.289273302473418
 30
0.0
  0
VERTEX
  5
3DF
  8
CUTOUT
 10
59.21769306982313
 20
10.06927330247342
 30
0.0
  0
VERTEX
  5
3E0
  8
CUTOUT
 10
57.37047306982313
 20
10.06927830247342
 30
0.0
  0
VERTEX
  5
3E1
  8
CUTOUT
 10
57.36477606982313
 20
10.13439730247342
 30
0.0
  0
VERTEX
  5
3E2
  8
CUTOUT
 10
57.34785806982313
 20
10.19753730247342
 30
0.0
  0
VERTEX
  5
3E3
  8
CUTOUT
 10
57.32023306982313
 20
10.25678030247342
 30
0.0
  0
VERTEX
  5
3E4
  8
CUTOUT
 10
57.28274106982312
 20
10.31032630247343
 30
0.0
  0
VERTEX
  5
3E5
  8
CUTOUT
 10
57.23651906982312
 20
10.35654830247343
 30
0.0
  0
VERTEX
  5
3E6
  8
CUTOUT
 10
57.18297406982312
 20
10.39404130247343
 30
0.0
  0
VERTEX
  5
3E7
  8
CUTOUT
 10
57.12373106982313
 20
10.42166730247342
 30
0.0
  0
VERTEX
  5
3E8
  8
CUTOUT
 10
57.06059106982313
 20
10.43858630247342
 30
0.0
  0
VERTEX
  5
3E9
  8
CUTOUT
 10
56.99547306982313
 20
10.44428330247342
 30
0.0
  0
VERTEX
  5
3EA
  8
CUTOUT
 10
56.93681006982313
 20
10.43966630247343
 30
0.0
  0
VERTEX
  5
3EB
  8
CUTOUT
 10
56.87959106982313
 20
10.42592930247342
 30
0.0
  0
VERTEX
  5
3EC
  8
CUTOUT
 10
56.82522606982312
 20
10.40340930247342
 30
0.0
  0
VERTEX
  5
3ED
  8
CUTOUT
 10
56.77505206982313
 20
10.37266330247343
 30
0.0
  0
VERTEX
  5
3EE
  8
CUTOUT
 10
56.73030706982313
 20
10.33444630247342
 30
0.0
  0
VERTEX
  5
3EF
  8
CUTOUT
 10
56.69209106982313
 20
10.28970030247342
 30
0.0
  0
VERTEX
  5
3F0
  8
CUTOUT
 10
56.66134506982312
 20
10.23952630247342
 30
0.0
  0
VERTEX
  5
3F1
  8
CUTOUT
 10
56.63882606982313
 20
10.18516130247342
 30
0.0
  0
VERTEX
  5
3F2
  8
CUTOUT
 10
56.62508906982313
 20
10.12794230247343
 30
0.0
  0
VERTEX
  5
3F3
  8
CUTOUT
 10
56.62047306982313
 20
10.06927830247342
 30
0.0
  0
VERTEX
  5
3F4
  8
CUTOUT
 10
54.77325306982313
 20
10.06927330247342
 30
0.0
  0
VERTEX
  5
3F5
  8
CUTOUT
 10
54.77325306982313
 20
9.289273302473418
 30
0.0
  0
VERTEX
  5
3F6
  8
CUTOUT
 10
50.32877306982312
 20
9.289273302473418
 30
0.0
  0
VERTEX
  5
3F7
  8
CUTOUT
 10
50.32877306982312
 20
14.05462530247343
 30
0.0
  0
VERTEX
  5
3F8
  8
CUTOUT
 10
50.33029206982312
 20
14.07199030247342
 30
0.0
  0
VERTEX
  5
3F9
  8
CUTOUT
 10
50.33480406982313
 20
14.08882730247342
 30
0.0
  0
VERTEX
  5
3FA
  8
CUTOUT
 10
50.34217006982313
 20
14.10462530247342
 30
0.0
  0
VERTEX
  5
3FB
  8
CUTOUT
 10
50.35216806982313
 20
14.11890430247342
 30
0.0
  0
VERTEX
  5
3FC
  8
CUTOUT
 10
50.36449406982313
 20
14.13123030247343
 30
0.0
  0
VERTEX
  5
3FD
  8
CUTOUT
 10
50.37877306982313
 20
14.14122830247342
 30
0.0
  0
VERTEX
  5
3FE
  8
CUTOUT
 10
50.39457106982312
 20
14.14859530247342
 30
0.0
  0
VERTEX
  5
3FF
  8
CUTOUT
 10
50.45870306982312
 20
14.17205630247342
 30
0.0
  0
VERTEX
  5
400
  8
CUTOUT
 10
50.48584606982313
 20
14.18442230247342
 30
0.0
  0
VERTEX
  5
401
  8
CUTOUT
 10
50.51072006982313
 20
14.20088230247342
 30
0.0
  0
VERTEX
  5
402
  8
CUTOUT
 10
50.53271306982312
 20
14.22103230247342
 30
0.0
  0
VERTEX
  5
403
  8
CUTOUT
 10
50.55128206982312
 20
14.24437430247342
 30
0.0
  0
VERTEX
  5
404
  8
CUTOUT
 10
50.56597106982313
 20
14.27033430247342
 30
0.0
  0
VERTEX
  5
405
  8
CUTOUT
 10
50.57641706982313
 20
14.29827230247342
 30
0.0
  0
VERTEX
  5
406
  8
CUTOUT
 10
50.58236306982312
 20
14.32750130247342
 30
0.0
  0
VERTEX
  5
407
  8
CUTOUT
 10
50.58366306982312
 20
14.35730030247342
 30
0.0
  0
VERTEX
  5
408
  8
CUTOUT
 10
50.58028506982313
 20
14.38693530247342
 30
0.0
  0
VERTEX
  5
409
  8
CUTOUT
 10
50.57231206982313
 20
14.41567730247343
 30
0.0
  0
VERTEX
  5
40A
  8
CUTOUT
 10
50.55995206982313
 20
14.44281330247343
 30
0.0
  0
VERTEX
  5
40B
  8
CUTOUT
 10
50.54349906982313
 20
14.46768230247342
 30
0.0
  0
VERTEX
  5
40C
  8
CUTOUT
 10
50.52335706982313
 20
14.48966930247342
 30
0.0
  0
VERTEX
  5
40D
  8
CUTOUT
 10
50.50002406982313
 20
14.50823530247342
 30
0.0
  0
VERTEX
  5
40E
  8
CUTOUT
 10
50.47407306982313
 20
14.52292130247342
 30
0.0
  0
VERTEX
  5
40F
  8
CUTOUT
 10
50.44614406982313
 20
14.53336730247342
 30
0.0
  0
VERTEX
  5
410
  8
CUTOUT
 10
50.41692406982313
 20
14.53931430247343
 30
0.0
  0
VERTEX
  5
411
  8
CUTOUT
 10
50.38713406982313
 20
14.54061630247342
 30
0.0
  0
VERTEX
  5
412
  8
CUTOUT
 10
50.35750706982312
 20
14.53724230247342
 30
0.0
  0
VERTEX
  5
413
  8
CUTOUT
 10
50.32877306982312
 20
14.52927330247343
 30
0.0
  0
VERTEX
  5
414
  8
CUTOUT
 10
49.54877306982313
 20
14.24537730247341
 30
0.0
  0
VERTEX
  5
415
  8
CUTOUT
 10
49.54877306982313
 20
20.01317730247342
 30
0.0
  0
VERTEX
  5
416
  8
CUTOUT
 10
50.32877306982312
 20
19.72915330247342
 30
0.0
  0
VERTEX
  5
417
  8
CUTOUT
 10
50.36075306982313
 20
19.72058030247342
 30
0.0
  0
VERTEX
  5
418
  8
CUTOUT
 10
50.39373606982313
 20
19.71769130247342
 30
0.0
  0
VERTEX
  5
419
  8
CUTOUT
 10
50.42672006982313
 20
19.72057330247342
 30
0.0
  0
VERTEX
  5
41A
  8
CUTOUT
 10
50.45870206982313
 20
19.72913830247342
 30
0.0
  0
VERTEX
  5
41B
  8
CUTOUT
 10
50.48871006982312
 20
19.74312830247342
 30
0.0
  0
VERTEX
  5
41C
  8
CUTOUT
 10
50.51583406982312
 20
19.76211630247342
 30
0.0
  0
VERTEX
  5
41D
  8
CUTOUT
 10
50.53924806982312
 20
19.78552530247342
 30
0.0
  0
VERTEX
  5
41E
  8
CUTOUT
 10
50.55824206982313
 20
19.81264430247342
 30
0.0
  0
VERTEX
  5
41F
  8
CUTOUT
 10
50.57223806982312
 20
19.84265030247342
 30
0.0
  0
VERTEX
  5
420
  8
CUTOUT
 10
50.58081106982312
 20
19.87463030247342
 30
0.0
  0
VERTEX
  5
421
  8
CUTOUT
 10
50.58370006982313
 20
19.90761330247342
 30
0.0
  0
VERTEX
  5
422
  8
CUTOUT
 10
50.58081806982313
 20
19.94059730247342
 30
0.0
  0
VERTEX
  5
423
  8
CUTOUT
 10
50.57225206982313
 20
19.97257930247342
 30
0.0
  0
VERTEX
  5
424
  8
CUTOUT
 10
50.55826306982313
 20
20.00258730247342
 30
0.0
  0
VERTEX
  5
425
  8
CUTOUT
 10
50.53927506982313
 20
20.02971130247342
 30
0.0
  0
VERTEX
  5
426
  8
CUTOUT
 10
50.51586606982313
 20
20.05312530247342
 30
0.0
  0
VERTEX
  5
427
  8
CUTOUT
 10
50.48874706982313
 20
20.07211930247342
 30
0.0
  0
VERTEX
  5
428
  8
CUTOUT
 10
50.45874106982313
 20
20.08611530247342
 30
0.0
  0
VERTEX
  5
429
  8
CUTOUT
 10
50.39457106982312
 20
20.10947130247342
 30
0.0
  0
VERTEX
  5
42A
  8
CUTOUT
 10
50.37877306982313
 20
20.11683830247342
 30
0.0
  0
VERTEX
  5
42B
  8
CUTOUT
 10
50.36449406982313
 20
20.12683630247342
 30
0.0
  0
VERTEX
  5
42C
  8
CUTOUT
 10
50.35216806982313
 20
20.13916230247342
 30
0.0
  0
VERTEX
  5
42D
  8
CUTOUT
 10
50.34217006982313
 20
20.15344130247342
 30
0.0
  0
VERTEX
  5
42E
  8
CUTOUT
 10
50.33480406982313
 20
20.16923930247341
 30
0.0
  0
VERTEX
  5
42F
  8
CUTOUT
 10
50.33029206982312
 20
20.18607630247342
 30
0.0
  0
VERTEX
  5
430
  8
CUTOUT
 10
50.32877306982312
 20
20.20344030247342
 30
0.0
  0
VERTEX
  5
431
  8
CUTOUT
 10
50.32877306982312
 20
24.45462430247342
 30
0.0
  0
VERTEX
  5
432
  8
CUTOUT
 10
50.33029206982312
 20
24.47198930247342
 30
0.0
  0
VERTEX
  5
433
  8
CUTOUT
 10
50.33480406982313
 20
24.48882630247342
 30
0.0
  0
VERTEX
  5
434
  8
CUTOUT
 10
50.34217006982313
 20
24.50462430247342
 30
0.0
  0
VERTEX
  5
435
  8
CUTOUT
 10
50.35216806982313
 20
24.51890330247342
 30
0.0
  0
VERTEX
  5
436
  8
CUTOUT
 10
50.36449406982313
 20
24.53122930247342
 30
0.0
  0
VERTEX
  5
437
  8
CUTOUT
 10
50.37877306982313
 20
24.54122730247342
 30
0.0
  0
VERTEX
  5
438
  8
CUTOUT
 10
50.39457106982312
 20
24.54859430247342
 30
0.0
  0
VERTEX
  5
439
  8
CUTOUT
 10
50.45870306982312
 20
24.57205630247342
 30
0.0
  0
VERTEX
  5
43A
  8
CUTOUT
 10
50.48584606982313
 20
24.58442230247342
 30
0.0
  0
VERTEX
  5
43B
  8
CUTOUT
 10
50.51072006982313
 20
24.60088230247342
 30
0.0
  0
VERTEX
  5
43C
  8
CUTOUT
 10
50.53271306982312
 20
24.62103230247342
 30
0.0
  0
VERTEX
  5
43D
  8
CUTOUT
 10
50.55128206982312
 20
24.64437430247342
 30
0.0
  0
VERTEX
  5
43E
  8
CUTOUT
 10
50.56597106982313
 20
24.67033430247342
 30
0.0
  0
VERTEX
  5
43F
  8
CUTOUT
 10
50.57641706982313
 20
24.69827230247342
 30
0.0
  0
VERTEX
  5
440
  8
CUTOUT
 10
50.58236306982312
 20
24.72750130247342
 30
0.0
  0
VERTEX
  5
441
  8
CUTOUT
 10
50.58366306982312
 20
24.75730030247342
 30
0.0
  0
VERTEX
  5
442
  8
CUTOUT
 10
50.58028506982313
 20
24.78693530247342
 30
0.0
  0
VERTEX
  5
443
  8
CUTOUT
 10
50.57231206982313
 20
24.81567730247342
 30
0.0
  0
VERTEX
  5
444
  8
CUTOUT
 10
50.55995206982313
 20
24.84281330247342
 30
0.0
  0
VERTEX
  5
445
  8
CUTOUT
 10
50.54349906982313
 20
24.86768230247342
 30
0.0
  0
VERTEX
  5
446
  8
CUTOUT
 10
50.52335706982313
 20
24.88966930247342
 30
0.0
  0
VERTEX
  5
447
  8
CUTOUT
 10
50.50002406982313
 20
24.90823530247342
 30
0.0
  0
VERTEX
  5
448
  8
CUTOUT
 10
50.47407306982313
 20
24.92292130247342
 30
0.0
  0
VERTEX
  5
449
  8
CUTOUT
 10
50.44614406982313
 20
24.93336730247342
 30
0.0
  0
VERTEX
  5
44A
  8
CUTOUT
 10
50.41692406982313
 20
24.93931430247342
 30
0.0
  0
VERTEX
  5
44B
  8
CUTOUT
 10
50.38713406982313
 20
24.94061630247342
 30
0.0
  0
VERTEX
  5
44C
  8
CUTOUT
 10
50.35750706982312
 20
24.93724230247342
 30
0.0
  0
VERTEX
  5
44D
  8
CUTOUT
 10
50.32877306982312
 20
24.92927330247342
 30
0.0
  0
VERTEX
  5
44E
  8
CUTOUT
 10
49.54877306982313
 20
24.64537730247342
 30
0.0
  0
VERTEX
  5
44F
  8
CUTOUT
 10
49.54877306982314
 20
30.41317730247342
 30
0.0
  0
VERTEX
  5
450
  8
CUTOUT
 10
50.32877306982313
 20
30.12915330247342
 30
0.0
  0
VERTEX
  5
451
  8
CUTOUT
 10
50.36075306982313
 20
30.12058030247342
 30
0.0
  0
VERTEX
  5
452
  8
CUTOUT
 10
50.39373606982313
 20
30.11769130247342
 30
0.0
  0
VERTEX
  5
453
  8
CUTOUT
 10
50.42672006982313
 20
30.12057330247342
 30
0.0
  0
VERTEX
  5
454
  8
CUTOUT
 10
50.45870206982313
 20
30.12913830247342
 30
0.0
  0
VERTEX
  5
455
  8
CUTOUT
 10
50.48871006982313
 20
30.14312830247342
 30
0.0
  0
VERTEX
  5
456
  8
CUTOUT
 10
50.51583406982313
 20
30.16211630247342
 30
0.0
  0
VERTEX
  5
457
  8
CUTOUT
 10
50.53924806982313
 20
30.18552530247342
 30
0.0
  0
VERTEX
  5
458
  8
CUTOUT
 10
50.55824206982314
 20
30.21264430247342
 30
0.0
  0
VERTEX
  5
459
  8
CUTOUT
 10
50.57223806982313
 20
30.24265030247342
 30
0.0
  0
VERTEX
  5
45A
  8
CUTOUT
 10
50.58081106982313
 20
30.27463030247342
 30
0.0
  0
VERTEX
  5
45B
  8
CUTOUT
 10
50.58370006982314
 20
30.30761330247342
 30
0.0
  0
VERTEX
  5
45C
  8
CUTOUT
 10
50.58081806982314
 20
30.34059730247342
 30
0.0
  0
VERTEX
  5
45D
  8
CUTOUT
 10
50.57225206982314
 20
30.37257930247342
 30
0.0
  0
VERTEX
  5
45E
  8
CUTOUT
 10
50.55826306982314
 20
30.40258730247342
 30
0.0
  0
VERTEX
  5
45F
  8
CUTOUT
 10
50.53927506982313
 20
30.42971130247342
 30
0.0
  0
VERTEX
  5
460
  8
CUTOUT
 10
50.51586606982313
 20
30.45312530247342
 30
0.0
  0
VERTEX
  5
461
  8
CUTOUT
 10
50.48874706982313
 20
30.47211930247342
 30
0.0
  0
VERTEX
  5
462
  8
CUTOUT
 10
50.45874106982313
 20
30.48611530247342
 30
0.0
  0
VERTEX
  5
463
  8
CUTOUT
 10
50.39457106982313
 20
30.50947130247342
 30
0.0
  0
VERTEX
  5
464
  8
CUTOUT
 10
50.37877306982314
 20
30.51683830247342
 30
0.0
  0
VERTEX
  5
465
  8
CUTOUT
 10
50.36449406982314
 20
30.52683630247342
 30
0.0
  0
VERTEX
  5
466
  8
CUTOUT
 10
50.35216806982314
 20
30.53916230247342
 30
0.0
  0
VERTEX
  5
467
  8
CUTOUT
 10
50.34217006982314
 20
30.55344130247342
 30
0.0
  0
VERTEX
  5
468
  8
CUTOUT
 10
50.33480406982314
 20
30.56923930247342
 30
0.0
  0
VERTEX
  5
469
  8
CUTOUT
 10
50.33029206982313
 20
30.58607630247342
 30
0.0
  0
VERTEX
  5
46A
  8
CUTOUT
 10
50.32877306982313
 20
30.60344030247342
 30
0.0
  0
VERTEX
  5
46B
  8
CUTOUT
 10
50.32877306982313
 20
34.85462430247341
 30
0.0
  0
VERTEX
  5
46C
  8
CUTOUT
 10
50.33029206982313
 20
34.87198930247341
 30
0.0
  0
VERTEX
  5
46D
  8
CUTOUT
 10
50.33480406982314
 20
34.88882630247342
 30
0.0
  0
VERTEX
  5
46E
  8
CUTOUT
 10
50.34217006982314
 20
34.90462430247341
 30
0.0
  0
VERTEX
  5
46F
  8
CUTOUT
 10
50.35216806982314
 20
34.91890330247341
 30
0.0
  0
VERTEX
  5
470
  8
CUTOUT
 10
50.36449406982314
 20
34.93122930247341
 30
0.0
  0
VERTEX
  5
471
  8
CUTOUT
 10
50.37877306982314
 20
34.94122730247342
 30
0.0
  0
VERTEX
  5
472
  8
CUTOUT
 10
50.39457106982313
 20
34.94859430247341
 30
0.0
  0
VERTEX
  5
473
  8
CUTOUT
 10
50.45870306982313
 20
34.97205630247342
 30
0.0
  0
VERTEX
  5
474
  8
CUTOUT
 10
50.48584606982314
 20
34.98442230247342
 30
0.0
  0
VERTEX
  5
475
  8
CUTOUT
 10
50.51072006982314
 20
35.00088230247341
 30
0.0
  0
VERTEX
  5
476
  8
CUTOUT
 10
50.53271306982313
 20
35.02103230247342
 30
0.0
  0
VERTEX
  5
477
  8
CUTOUT
 10
50.55128206982313
 20
35.04437430247341
 30
0.0
  0
VERTEX
  5
478
  8
CUTOUT
 10
50.56597106982314
 20
35.07033430247341
 30
0.0
  0
VERTEX
  5
479
  8
CUTOUT
 10
50.57641706982314
 20
35.09827230247342
 30
0.0
  0
VERTEX
  5
47A
  8
CUTOUT
 10
50.58236306982313
 20
35.12750130247342
 30
0.0
  0
VERTEX
  5
47B
  8
CUTOUT
 10
50.58366306982313
 20
35.15730030247342
 30
0.0
  0
VERTEX
  5
47C
  8
CUTOUT
 10
50.58028506982313
 20
35.18693530247342
 30
0.0
  0
VERTEX
  5
47D
  8
CUTOUT
 10
50.57231206982314
 20
35.21567730247341
 30
0.0
  0
VERTEX
  5
47E
  8
CUTOUT
 10
50.55995206982314
 20
35.24281330247342
 30
0.0
  0
VERTEX
  5
47F
  8
CUTOUT
 10
50.54349906982314
 20
35.26768230247342
 30
0.0
  0
VERTEX
  5
480
  8
CUTOUT
 10
50.52335706982313
 20
35.28966930247341
 30
0.0
  0
VERTEX
  5
481
  8
CUTOUT
 10
50.50002406982314
 20
35.30823530247342
 30
0.0
  0
VERTEX
  5
482
  8
CUTOUT
 10
50.47407306982313
 20
35.32292130247342
 30
0.0
  0
VERTEX
  5
483
  8
CUTOUT
 10
50.44614406982313
 20
35.33336730247342
 30
0.0
  0
VERTEX
  5
484
  8
CUTOUT
 10
50.41692406982314
 20
35.33931430247341
 30
0.0
  0
VERTEX
  5
485
  8
CUTOUT
 10
50.38713406982313
 20
35.34061630247342
 30
0.0
  0
VERTEX
  5
486
  8
CUTOUT
 10
50.35750706982313
 20
35.33724230247341
 30
0.0
  0
VERTEX
  5
487
  8
CUTOUT
 10
50.32877306982313
 20
35.32927330247341
 30
0.0
  0
VERTEX
  5
488
  8
CUTOUT
 10
49.54877306982314
 20
35.04537730247341
 30
0.0
  0
VERTEX
  5
489
  8
CUTOUT
 10
49.54877306982314
 20
40.81317730247341
 30
0.0
  0
VERTEX
  5
48A
  8
CUTOUT
 10
50.32877306982313
 20
40.5291533024734
 30
0.0
  0
VERTEX
  5
48B
  8
CUTOUT
 10
50.36075306982313
 20
40.52058030247341
 30
0.0
  0
VERTEX
  5
48C
  8
CUTOUT
 10
50.39373606982313
 20
40.51769130247341
 30
0.0
  0
VERTEX
  5
48D
  8
CUTOUT
 10
50.42672006982313
 20
40.52057330247341
 30
0.0
  0
VERTEX
  5
48E
  8
CUTOUT
 10
50.45870206982313
 20
40.52913830247341
 30
0.0
  0
VERTEX
  5
48F
  8
CUTOUT
 10
50.48871006982313
 20
40.54312830247341
 30
0.0
  0
VERTEX
  5
490
  8
CUTOUT
 10
50.51583406982313
 20
40.56211630247341
 30
0.0
  0
VERTEX
  5
491
  8
CUTOUT
 10
50.53924806982313
 20
40.58552530247341
 30
0.0
  0
VERTEX
  5
492
  8
CUTOUT
 10
50.55824206982314
 20
40.61264430247341
 30
0.0
  0
VERTEX
  5
493
  8
CUTOUT
 10
50.57223806982313
 20
40.64265030247341
 30
0.0
  0
VERTEX
  5
494
  8
CUTOUT
 10
50.58081106982313
 20
40.6746303024734
 30
0.0
  0
VERTEX
  5
495
  8
CUTOUT
 10
50.58370006982314
 20
40.7076133024734
 30
0.0
  0
VERTEX
  5
496
  8
CUTOUT
 10
50.58081806982314
 20
40.7405973024734
 30
0.0
  0
VERTEX
  5
497
  8
CUTOUT
 10
50.57225206982314
 20
40.7725793024734
 30
0.0
  0
VERTEX
  5
498
  8
CUTOUT
 10
50.55826306982314
 20
40.80258730247341
 30
0.0
  0
VERTEX
  5
499
  8
CUTOUT
 10
50.53927506982313
 20
40.82971130247341
 30
0.0
  0
VERTEX
  5
49A
  8
CUTOUT
 10
50.51586606982313
 20
40.85312530247342
 30
0.0
  0
VERTEX
  5
49B
  8
CUTOUT
 10
50.48874706982313
 20
40.87211930247341
 30
0.0
  0
VERTEX
  5
49C
  8
CUTOUT
 10
50.45874106982313
 20
40.88611530247341
 30
0.0
  0
VERTEX
  5
49D
  8
CUTOUT
 10
50.39457106982313
 20
40.90947130247341
 30
0.0
  0
VERTEX
  5
49E
  8
CUTOUT
 10
50.37877306982314
 20
40.91683830247341
 30
0.0
  0
VERTEX
  5
49F
  8
CUTOUT
 10
50.36449406982314
 20
40.9268363024734
 30
0.0
  0
VERTEX
  5
4A0
  8
CUTOUT
 10
50.35216806982314
 20
40.93916230247341
 30
0.0
  0
VERTEX
  5
4A1
  8
CUTOUT
 10
50.34217006982314
 20
40.95344130247341
 30
0.0
  0
VERTEX
  5
4A2
  8
CUTOUT
 10
50.33480406982314
 20
40.96923930247341
 30
0.0
  0
VERTEX
  5
4A3
  8
CUTOUT
 10
50.33029206982313
 20
40.98607630247341
 30
0.0
  0
VERTEX
  5
4A4
  8
CUTOUT
 10
50.32877306982313
 20
41.00344030247341
 30
0.0
  0
VERTEX
  5
4A5
  8
CUTOUT
 10
50.32877306982313
 20
44.98927330247341
 30
0.0
  0
VERTEX
  5
4A6
  8
CUTOUT
 10
54.29906606982314
 20
44.98927330247341
 30
0.0
  0
VERTEX
  5
4A7
  8
CUTOUT
 10
54.31643106982314
 20
44.98775430247341
 30
0.0
  0
VERTEX
  5
4A8
  8
CUTOUT
 10
54.33326806982313
 20
44.98324330247341
 30
0.0
  0
VERTEX
  5
4A9
  8
CUTOUT
 10
54.34906606982314
 20
44.97587630247341
 30
0.0
  0
VERTEX
  5
4AA
  8
CUTOUT
 10
54.36334506982314
 20
44.96587830247341
 30
0.0
  0
VERTEX
  5
4AB
  8
CUTOUT
 10
54.37567006982313
 20
44.95355230247341
 30
0.0
  0
VERTEX
  5
4AC
  8
CUTOUT
 10
54.38566806982314
 20
44.93927430247341
 30
0.0
  0
VERTEX
  5
4AD
  8
CUTOUT
 10
54.39303506982313
 20
44.9234763024734
 30
0.0
  0
VERTEX
  5
4AE
  8
CUTOUT
 10
54.41639206982313
 20
44.8593053024734
 30
0.0
  0
VERTEX
  5
4AF
  8
CUTOUT
 10
54.43038806982314
 20
44.82930030247341
 30
0.0
  0
VERTEX
  5
4B0
  8
CUTOUT
 10
54.44938106982313
 20
44.8021803024734
 30
0.0
  0
VERTEX
  5
4B1
  8
CUTOUT
 10
54.47279606982313
 20
44.7787713024734
 30
0.0
  0
VERTEX
  5
4B2
  8
CUTOUT
 10
54.49991906982314
 20
44.75978430247341
 30
0.0
  0
VERTEX
  5
4B3
  8
CUTOUT
 10
54.52992806982313
 20
44.74579430247341
 30
0.0
  0
VERTEX
  5
4B4
  8
CUTOUT
 10
54.56191006982313
 20
44.73722830247341
 30
0.0
  0
VERTEX
  5
4B5
  8
CUTOUT
 10
54.59489406982314
 20
44.73434630247341
 30
0.0
  0
VERTEX
  5
4B6
  8
CUTOUT
 10
54.62787606982313
 20
44.73723630247341
 30
0.0
  0
VERTEX
  5
4B7
  8
CUTOUT
 10
54.65985706982313
 20
44.7458093024734
 30
0.0
  0
VERTEX
  5
4B8
  8
CUTOUT
 10
54.68986206982314
 20
44.75980430247341
 30
0.0
  0
VERTEX
  5
4B9
  8
CUTOUT
 10
54.71698206982313
 20
44.7787983024734
 30
0.0
  0
VERTEX
  5
4BA
  8
CUTOUT
 10
54.74039106982313
 20
44.80221230247341
 30
0.0
  0
VERTEX
  5
4BB
  8
CUTOUT
 10
54.75937906982314
 20
44.82933630247341
 30
0.0
  0
VERTEX
  5
4BC
  8
CUTOUT
 10
54.77336806982314
 20
44.85934530247341
 30
0.0
  0
VERTEX
  5
4BD
  8
CUTOUT
 10
54.78193406982314
 20
44.89132730247341
 30
0.0
  0
VERTEX
  5
4BE
  8
CUTOUT
 10
54.78481606982314
 20
44.92431030247342
 30
0.0
  0
VERTEX
  5
4BF
  8
CUTOUT
 10
54.78192606982313
 20
44.9572933024734
 30
0.0
  0
VERTEX
  5
4C0
  8
CUTOUT
 10
54.77335406982313
 20
44.98927330247341
 30
0.0
  0
VERTEX
  5
4C1
  8
CUTOUT
 10
54.48933106982314
 20
45.76927330247341
 30
0.0
  0
VERTEX
  5
4C2
  8
CUTOUT
 10
59.50156406982313
 20
45.76927330247341
 30
0.0
  0
VERTEX
  5
4C3
  8
CUTOUT
 10
59.21779306982313
 20
44.98927330247341
 30
0.0
  0
VERTEX
  5
4C4
  8
CUTOUT
 10
59.20922206982314
 20
44.95727230247341
 30
0.0
  0
VERTEX
  5
4C5
  8
CUTOUT
 10
59.20633806982313
 20
44.92426930247341
 30
0.0
  0
VERTEX
  5
4C6
  8
CUTOUT
 10
59.20922906982314
 20
44.89126630247341
 30
0.0
  0
VERTEX
  5
4C7
  8
CUTOUT
 10
59.21780706982314
 20
44.85926730247341
 30
0.0
  0
VERTEX
  5
4C8
  8
CUTOUT
 10
59.23181106982314
 20
44.82924430247341
 30
0.0
  0
VERTEX
  5
4C9
  8
CUTOUT
 10
59.25081606982313
 20
44.80210830247341
 30
0.0
  0
VERTEX
  5
4CA
  8
CUTOUT
 10
59.27424406982314
 20
44.77868530247341
 30
0.0
  0
VERTEX
  5
4CB
  8
CUTOUT
 10
59.30138406982313
 20
44.75968630247341
 30
0.0
  0
VERTEX
  5
4CC
  8
CUTOUT
 10
59.33141106982313
 20
44.74568830247341
 30
0.0
  0
VERTEX
  5
4CD
  8
CUTOUT
 10
59.36341206982314
 20
44.73711730247341
 30
0.0
  0
VERTEX
  5
4CE
  8
CUTOUT
 10
59.39641506982314
 20
44.73423330247341
 30
0.0
  0
VERTEX
  5
4CF
  8
CUTOUT
 10
59.42941806982313
 20
44.7371243024734
 30
0.0
  0
VERTEX
  5
4D0
  8
CUTOUT
 10
59.46141706982313
 20
44.7457023024734
 30
0.0
  0
VERTEX
  5
4D1
  8
CUTOUT
 10
59.49144006982313
 20
44.7597063024734
 30
0.0
  0
VERTEX
  5
4D2
  8
CUTOUT
 10
59.51857606982314
 20
44.77871130247341
 30
0.0
  0
VERTEX
  5
4D3
  8
CUTOUT
 10
59.54199906982313
 20
44.80213930247341
 30
0.0
  0
VERTEX
  5
4D4
  8
CUTOUT
 10
59.56099906982314
 20
44.82927930247341
 30
0.0
  0
VERTEX
  5
4D5
  8
CUTOUT
 10
59.57499606982313
 20
44.8593053024734
 30
0.0
  0
VERTEX
  5
4D6
  8
CUTOUT
 10
59.59835306982313
 20
44.9234763024734
 30
0.0
  0
VERTEX
  5
4D7
  8
CUTOUT
 10
59.60571906982314
 20
44.93927430247341
 30
0.0
  0
VERTEX
  5
4D8
  8
CUTOUT
 10
59.61571806982313
 20
44.95355230247341
 30
0.0
  0
VERTEX
  5
4D9
  8
CUTOUT
 10
59.62804306982314
 20
44.96587830247341
 30
0.0
  0
VERTEX
  5
4DA
  8
CUTOUT
 10
59.64232206982314
 20
44.97587630247341
 30
0.0
  0
VERTEX
  5
4DB
  8
CUTOUT
 10
59.65812006982314
 20
44.98324330247341
 30
0.0
  0
VERTEX
  5
4DC
  8
CUTOUT
 10
59.67495706982314
 20
44.98775430247341
 30
0.0
  0
VERTEX
  5
4DD
  8
CUTOUT
 10
59.69232206982313
 20
44.98927330247341
 30
0.0
  0
VERTEX
  5
4DE
  8
CUTOUT
 10
63.18786606982313
 20
44.98927330247341
 30
0.0
  0
VERTEX
  5
4DF
  8
CUTOUT
 10
63.20523106982313
 20
44.98775430247341
 30
0.0
  0
VERTEX
  5
4E0
  8
CUTOUT
 10
63.22206806982314
 20
44.98324330247341
 30
0.0
  0
VERTEX
  5
4E1
  8
CUTOUT
 10
63.23786606982314
 20
44.97587630247341
 30
0.0
  0
VERTEX
  5
4E2
  8
CUTOUT
 10
63.25214506982313
 20
44.9658783024734
 30
0.0
  0
VERTEX
  5
4E3
  8
CUTOUT
 10
63.26447006982313
 20
44.95355230247341
 30
0.0
  0
VERTEX
  5
4E4
  8
CUTOUT
 10
63.27446806982313
 20
44.93927430247341
 30
0.0
  0
VERTEX
  5
4E5
  8
CUTOUT
 10
63.28183506982313
 20
44.9234763024734
 30
0.0
  0
VERTEX
  5
4E6
  8
CUTOUT
 10
63.30519206982314
 20
44.8593053024734
 30
0.0
  0
VERTEX
  5
4E7
  8
CUTOUT
 10
63.31918806982314
 20
44.82929630247341
 30
0.0
  0
VERTEX
  5
4E8
  8
CUTOUT
 10
63.33818206982313
 20
44.8021743024734
 30
0.0
  0
VERTEX
  5
4E9
  8
CUTOUT
 10
63.36159806982313
 20
44.77876130247341
 30
0.0
  0
VERTEX
  5
4EA
  8
CUTOUT
 10
63.38872406982314
 20
44.75977130247341
 30
0.0
  0
VERTEX
  5
4EB
  8
CUTOUT
 10
63.41873506982313
 20
44.74577930247341
 30
0.0
  0
VERTEX
  5
4EC
  8
CUTOUT
 10
63.45072006982313
 20
44.73721130247341
 30
0.0
  0
VERTEX
  5
4ED
  8
CUTOUT
 10
63.48370706982314
 20
44.7343283024734
 30
0.0
  0
VERTEX
  5
4EE
  8
CUTOUT
 10
63.51669306982313
 20
44.7372163024734
 30
0.0
  0
VERTEX
  5
4EF
  8
CUTOUT
 10
63.54867706982313
 20
44.74578930247341
 30
0.0
  0
VERTEX
  5
4F0
  8
CUTOUT
 10
63.57868606982314
 20
44.7597853024734
 30
0.0
  0
VERTEX
  5
4F1
  8
CUTOUT
 10
63.60580906982314
 20
44.77877930247341
 30
0.0
  0
VERTEX
  5
4F2
  8
CUTOUT
 10
63.62922106982313
 20
44.80219530247341
 30
0.0
  0
VERTEX
  5
4F3
  8
CUTOUT
 10
63.64821106982313
 20
44.8293213024734
 30
0.0
  0
VERTEX
  5
4F4
  8
CUTOUT
 10
63.66220306982314
 20
44.8593323024734
 30
0.0
  0
VERTEX
  5
4F5
  8
CUTOUT
 10
63.67077106982313
 20
44.89131730247341
 30
0.0
  0
VERTEX
  5
4F6
  8
CUTOUT
 10
63.67365506982314
 20
44.9243033024734
 30
0.0
  0
VERTEX
  5
4F7
  8
CUTOUT
 10
63.67076606982313
 20
44.95729030247341
 30
0.0
  0
VERTEX
  5
4F8
  8
CUTOUT
 10
63.66219406982313
 20
44.98927330247341
 30
0.0
  0
VERTEX
  5
4F9
  8
CUTOUT
 10
63.37821306982313
 20
45.76927330247341
 30
0.0
  0
VERTEX
  5
4FA
  8
CUTOUT
 10
68.39044606982313
 20
45.76927330247341
 30
0.0
  0
VERTEX
  5
4FB
  8
CUTOUT
 10
68.10663306982313
 20
44.98927330247341
 30
0.0
  0
VERTEX
  5
4FC
  8
CUTOUT
 10
68.09806206982313
 20
44.9572763024734
 30
0.0
  0
VERTEX
  5
4FD
  8
CUTOUT
 10
68.09517706982314
 20
44.9242763024734
 30
0.0
  0
VERTEX
  5
4FE
  8
CUTOUT
 10
68.09806706982313
 20
44.8912763024734
 30
0.0
  0
VERTEX
  5
4FF
  8
CUTOUT
 10
68.10664206982314
 20
44.85928030247341
 30
0.0
  0
VERTEX
  5
500
  8
CUTOUT
 10
68.12064406982313
 20
44.8292593024734
 30
0.0
  0
VERTEX
  5
501
  8
CUTOUT
 10
68.13964606982313
 20
44.8021253024734
 30
0.0
  0
VERTEX
  5
502
  8
CUTOUT
 10
68.16307106982313
 20
44.7787043024734
 30
0.0
  0
VERTEX
  5
503
  8
CUTOUT
 10
68.19020806982313
 20
44.75970530247341
 30
0.0
  0
VERTEX
  5
504
  8
CUTOUT
 10
68.22023106982313
 20
44.7457083024734
 30
0.0
  0
VERTEX
  5
505
  8
CUTOUT
 10
68.25222806982313
 20
44.7371373024734
 30
0.0
  0
VERTEX
  5
506
  8
CUTOUT
 10
68.28522806982313
 20
44.73425230247341
 30
0.0
  0
VERTEX
  5
507
  8
CUTOUT
 10
68.31822806982314
 20
44.7371413024734
 30
0.0
  0
VERTEX
  5
508
  8
CUTOUT
 10
68.35022406982313
 20
44.74571730247341
 30
0.0
  0
VERTEX
  5
509
  8
CUTOUT
 10
68.38024506982313
 20
44.7597193024734
 30
0.0
  0
VERTEX
  5
50A
  8
CUTOUT
 10
68.40737906982314
 20
44.7787213024734
 30
0.0
  0
VERTEX
  5
50B
  8
CUTOUT
 10
68.43080106982313
 20
44.8021463024734
 30
0.0
  0
VERTEX
  5
50C
  8
CUTOUT
 10
68.44979906982313
 20
44.8292823024734
 30
0.0
  0
VERTEX
  5
50D
  8
CUTOUT
 10
68.46379606982313
 20
44.8593053024734
 30
0.0
  0
VERTEX
  5
50E
  8
CUTOUT
 10
68.48715306982314
 20
44.9234763024734
 30
0.0
  0
VERTEX
  5
50F
  8
CUTOUT
 10
68.49451906982314
 20
44.93927430247341
 30
0.0
  0
VERTEX
  5
510
  8
CUTOUT
 10
68.50451806982313
 20
44.95355230247341
 30
0.0
  0
VERTEX
  5
511
  8
CUTOUT
 10
68.51684306982314
 20
44.9658783024734
 30
0.0
  0
VERTEX
  5
512
  8
CUTOUT
 10
68.53112206982314
 20
44.97587630247341
 30
0.0
  0
VERTEX
  5
513
  8
CUTOUT
 10
68.54692006982313
 20
44.98324330247341
 30
0.0
  0
VERTEX
  5
514
  8
CUTOUT
 10
68.56375706982314
 20
44.98775430247341
 30
0.0
  0
VERTEX
  5
515
  8
CUTOUT
 10
68.58112206982314
 20
44.98927330247341
 30
0.0
  0
VERTEX
  5
516
  8
CUTOUT
 10
72.07666606982313
 20
44.98927330247341
 30
0.0
  0
VERTEX
  5
517
  8
CUTOUT
 10
72.09403106982313
 20
44.98775430247341
 30
0.0
  0
VERTEX
  5
518
  8
CUTOUT
 10
72.11086806982314
 20
44.98324330247341
 30
0.0
  0
VERTEX
  5
519
  8
CUTOUT
 10
72.12666606982313
 20
44.97587630247341
 30
0.0
  0
VERTEX
  5
51A
  8
CUTOUT
 10
72.14094506982313
 20
44.9658783024734
 30
0.0
  0
VERTEX
  5
51B
  8
CUTOUT
 10
72.15327006982314
 20
44.95355230247341
 30
0.0
  0
VERTEX
  5
51C
  8
CUTOUT
 10
72.16326806982313
 20
44.93927430247341
 30
0.0
  0
VERTEX
  5
51D
  8
CUTOUT
 10
72.17063506982313
 20
44.9234763024734
 30
0.0
  0
VERTEX
  5
51E
  8
CUTOUT
 10
72.19399206982314
 20
44.8593053024734
 30
0.0
  0
VERTEX
  5
51F
  8
CUTOUT
 10
72.20798806982313
 20
44.8292933024734
 30
0.0
  0
VERTEX
  5
520
  8
CUTOUT
 10
72.22698406982313
 20
44.80216730247341
 30
0.0
  0
VERTEX
  5
521
  8
CUTOUT
 10
72.25040106982314
 20
44.77875130247341
 30
0.0
  0
VERTEX
  5
522
  8
CUTOUT
 10
72.27752906982313
 20
44.7597583024734
 30
0.0
  0
VERTEX
  5
523
  8
CUTOUT
 10
72.30754206982313
 20
44.7457643024734
 30
0.0
  0
VERTEX
  5
524
  8
CUTOUT
 10
72.33953006982314
 20
44.73719430247341
 30
0.0
  0
VERTEX
  5
525
  8
CUTOUT
 10
72.37252006982314
 20
44.73430930247341
 30
0.0
  0
VERTEX
  5
526
  8
CUTOUT
 10
72.40551006982314
 20
44.73719630247341
 30
0.0
  0
VERTEX
  5
527
  8
CUTOUT
 10
72.43749706982314
 20
44.74576930247341
 30
0.0
  0
VERTEX
  5
528
  8
CUTOUT
 10
72.46750906982314
 20
44.75976530247341
 30
0.0
  0
VERTEX
  5
529
  8
CUTOUT
 10
72.49463506982313
 20
44.77876130247341
 30
0.0
  0
VERTEX
  5
52A
  8
CUTOUT
 10
72.51805106982313
 20
44.80217830247341
 30
0.0
  0
VERTEX
  5
52B
  8
CUTOUT
 10
72.53704406982314
 20
44.8293053024734
 30
0.0
  0
VERTEX
  5
52C
  8
CUTOUT
 10
72.55103906982313
 20
44.85931930247341
 30
0.0
  0
VERTEX
  5
52D
  8
CUTOUT
 10
72.55960806982313
 20
44.89130730247341
 30
0.0
  0
VERTEX
  5
52E
  8
CUTOUT
 10
72.56249306982313
 20
44.92429730247341
 30
0.0
  0
VERTEX
  5
52F
  8
CUTOUT
 10
72.55960606982313
 20
44.95728630247341
 30
0.0
  0
VERTEX
  5
530
  8
CUTOUT
 10
72.55103406982313
 20
44.98927330247341
 30
0.0
  0
VERTEX
  5
531
  8
CUTOUT
 10
72.26709506982313
 20
45.76927330247341
 30
0.0
  0
VERTEX
  5
532
  8
CUTOUT
 10
77.27932906982313
 20
45.76927330247341
 30
0.0
  0
VERTEX
  5
533
  8
CUTOUT
 10
76.99547306982313
 20
44.98927330247341
 30
0.0
  0
VERTEX
  5
534
  8
CUTOUT
 10
76.98690206982313
 20
44.95727930247341
 30
0.0
  0
VERTEX
  5
535
  8
CUTOUT
 10
76.98401606982314
 20
44.9242833024734
 30
0.0
  0
VERTEX
  5
536
  8
CUTOUT
 10
76.98690406982314
 20
44.8912863024734
 30
0.0
  0
VERTEX
  5
537
  8
CUTOUT
 10
76.99547806982314
 20
44.8592933024734
 30
0.0
  0
VERTEX
  5
538
  8
CUTOUT
 10
77.00947706982313
 20
44.82927430247341
 30
0.0
  0
VERTEX
  5
539
  8
CUTOUT
 10
77.02847606982313
 20
44.80214330247341
 30
0.0
  0
VERTEX
  5
53A
  8
CUTOUT
 10
77.05189806982314
 20
44.77872230247341
 30
0.0
  0
VERTEX
  5
53B
  8
CUTOUT
 10
77.07903106982313
 20
44.7597253024734
 30
0.0
  0
VERTEX
  5
53C
  8
CUTOUT
 10
77.10905106982314
 20
44.74572830247341
 30
0.0
  0
VERTEX
  5
53D
  8
CUTOUT
 10
77.14104506982314
 20
44.73715630247341
 30
0.0
  0
VERTEX
  5
53E
  8
CUTOUT
 10
77.17404106982313
 20
44.7342713024734
 30
0.0
  0
VERTEX
  5
53F
  8
CUTOUT
 10
77.20703806982313
 20
44.7371593024734
 30
0.0
  0
VERTEX
  5
540
  8
CUTOUT
 10
77.23903106982313
 20
44.7457323024734
 30
0.0
  0
VERTEX
  5
541
  8
CUTOUT
 10
77.26905006982314
 20
44.75973230247341
 30
0.0
  0
VERTEX
  5
542
  8
CUTOUT
 10
77.29618206982313
 20
44.7787313024734
 30
0.0
  0
VERTEX
  5
543
  8
CUTOUT
 10
77.31960206982313
 20
44.8021533024734
 30
0.0
  0
VERTEX
  5
544
  8
CUTOUT
 10
77.33859906982313
 20
44.82928630247341
 30
0.0
  0
VERTEX
  5
545
  8
CUTOUT
 10
77.35259606982314
 20
44.8593053024734
 30
0.0
  0
VERTEX
  5
546
  8
CUTOUT
 10
77.37595306982314
 20
44.9234763024734
 30
0.0
  0
VERTEX
  5
547
  8
CUTOUT
 10
77.38331906982313
 20
44.93927430247341
 30
0.0
  0
VERTEX
  5
548
  8
CUTOUT
 10
77.39331806982314
 20
44.95355230247341
 30
0.0
  0
VERTEX
  5
549
  8
CUTOUT
 10
77.40564306982313
 20
44.9658783024734
 30
0.0
  0
VERTEX
  5
54A
  8
CUTOUT
 10
77.41992206982313
 20
44.97587630247341
 30
0.0
  0
VERTEX
  5
54B
  8
CUTOUT
 10
77.43572006982313
 20
44.98324330247341
 30
0.0
  0
VERTEX
  5
54C
  8
CUTOUT
 10
77.45255706982313
 20
44.98775430247341
 30
0.0
  0
VERTEX
  5
54D
  8
CUTOUT
 10
77.46992206982314
 20
44.98927330247341
 30
0.0
  0
VERTEX
  5
54E
  8
CUTOUT
 10
80.96546606982314
 20
44.98927330247341
 30
0.0
  0
VERTEX
  5
54F
  8
CUTOUT
 10
80.98283106982313
 20
44.98775430247341
 30
0.0
  0
VERTEX
  5
550
  8
CUTOUT
 10
80.99966806982313
 20
44.98324330247341
 30
0.0
  0
VERTEX
  5
551
  8
CUTOUT
 10
81.01546606982313
 20
44.97587630247341
 30
0.0
  0
VERTEX
  5
552
  8
CUTOUT
 10
81.02974506982314
 20
44.9658783024734
 30
0.0
  0
VERTEX
  5
553
  8
CUTOUT
 10
81.04207006982314
 20
44.95355230247341
 30
0.0
  0
VERTEX
  5
554
  8
CUTOUT
 10
81.05206806982314
 20
44.93927430247341
 30
0.0
  0
VERTEX
  5
555
  8
CUTOUT
 10
81.05943506982314
 20
44.9234763024734
 30
0.0
  0
VERTEX
  5
556
  8
CUTOUT
 10
81.08279206982313
 20
44.8593053024734
 30
0.0
  0
VERTEX
  5
557
  8
CUTOUT
 10
81.09678806982313
 20
44.8292893024734
 30
0.0
  0
VERTEX
  5
558
  8
CUTOUT
 10
81.11578506982313
 20
44.80216030247341
 30
0.0
  0
VERTEX
  5
559
  8
CUTOUT
 10
81.13920406982314
 20
44.77874130247341
 30
0.0
  0
VERTEX
  5
55A
  8
CUTOUT
 10
81.16633306982314
 20
44.75974530247341
 30
0.0
  0
VERTEX
  5
55B
  8
CUTOUT
 10
81.19634906982313
 20
44.7457483024734
 30
0.0
  0
VERTEX
  5
55C
  8
CUTOUT
 10
81.22834006982313
 20
44.7371773024734
 30
0.0
  0
VERTEX
  5
55D
  8
CUTOUT
 10
81.26133306982314
 20
44.73429030247341
 30
0.0
  0
VERTEX
  5
55E
  8
CUTOUT
 10
81.29432606982313
 20
44.7371773024734
 30
0.0
  0
VERTEX
  5
55F
  8
CUTOUT
 10
81.32631706982313
 20
44.7457493024734
 30
0.0
  0
VERTEX
  5
560
  8
CUTOUT
 10
81.35633306982314
 20
44.75974530247341
 30
0.0
  0
VERTEX
  5
561
  8
CUTOUT
 10
81.38346206982314
 20
44.7787423024734
 30
0.0
  0
VERTEX
  5
562
  8
CUTOUT
 10
81.40688106982313
 20
44.80216130247341
 30
0.0
  0
VERTEX
  5
563
  8
CUTOUT
 10
81.42587706982313
 20
44.82929030247341
 30
0.0
  0
VERTEX
  5
564
  8
CUTOUT
 10
81.43987406982313
 20
44.8593063024734
 30
0.0
  0
VERTEX
  5
565
  8
CUTOUT
 10
81.44844606982313
 20
44.8912973024734
 30
0.0
  0
VERTEX
  5
566
  8
CUTOUT
 10
81.45133206982314
 20
44.92429030247341
 30
0.0
  0
VERTEX
  5
567
  8
CUTOUT
 10
81.44844606982313
 20
44.9572833024734
 30
0.0
  0
VERTEX
  5
568
  8
CUTOUT
 10
81.43987406982313
 20
44.98927330247341
 30
0.0
  0
VERTEX
  5
569
  8
CUTOUT
 10
81.15597706982314
 20
45.76927330247341
 30
0.0
  0
VERTEX
  5
56A
  8
CUTOUT
 10
86.16821106982313
 20
45.76927330247341
 30
0.0
  0
VERTEX
  5
56B
  8
CUTOUT
 10
85.88431306982314
 20
44.98927330247341
 30
0.0
  0
VERTEX
  5
56C
  8
CUTOUT
 10
85.87574106982314
 20
44.9572833024734
 30
0.0
  0
VERTEX
  5
56D
  8
CUTOUT
 10
85.87285506982313
 20
44.92429030247341
 30
0.0
  0
VERTEX
  5
56E
  8
CUTOUT
 10
85.87574106982314
 20
44.8912973024734
 30
0.0
  0
VERTEX
  5
56F
  8
CUTOUT
 10
85.88431306982314
 20
44.8593063024734
 30
0.0
  0
VERTEX
  5
570
  8
CUTOUT
 10
85.89831006982314
 20
44.82929030247341
 30
0.0
  0
VERTEX
  5
571
  8
CUTOUT
 10
85.91730606982314
 20
44.80216030247341
 30
0.0
  0
VERTEX
  5
572
  8
CUTOUT
 10
85.94072506982313
 20
44.77874130247341
 30
0.0
  0
VERTEX
  5
573
  8
CUTOUT
 10
85.96785506982313
 20
44.75974530247341
 30
0.0
  0
VERTEX
  5
574
  8
CUTOUT
 10
85.99787106982313
 20
44.7457483024734
 30
0.0
  0
VERTEX
  5
575
  8
CUTOUT
 10
86.02986106982314
 20
44.7371763024734
 30
0.0
  0
VERTEX
  5
576
  8
CUTOUT
 10
86.06285406982313
 20
44.73429030247341
 30
0.0
  0
VERTEX
  5
577
  8
CUTOUT
 10
86.09584806982313
 20
44.7371763024734
 30
0.0
  0
VERTEX
  5
578
  8
CUTOUT
 10
86.12783806982314
 20
44.7457483024734
 30
0.0
  0
VERTEX
  5
579
  8
CUTOUT
 10
86.15785406982313
 20
44.75974530247341
 30
0.0
  0
VERTEX
  5
57A
  8
CUTOUT
 10
86.18498406982313
 20
44.77874130247341
 30
0.0
  0
VERTEX
  5
57B
  8
CUTOUT
 10
86.20840306982313
 20
44.80216030247341
 30
0.0
  0
VERTEX
  5
57C
  8
CUTOUT
 10
86.22739906982314
 20
44.8292893024734
 30
0.0
  0
VERTEX
  5
57D
  8
CUTOUT
 10
86.24139606982314
 20
44.8593053024734
 30
0.0
  0
VERTEX
  5
57E
  8
CUTOUT
 10
86.26475306982313
 20
44.9234763024734
 30
0.0
  0
VERTEX
  5
57F
  8
CUTOUT
 10
86.27211906982313
 20
44.93927430247341
 30
0.0
  0
VERTEX
  5
580
  8
CUTOUT
 10
86.28211806982314
 20
44.95355230247341
 30
0.0
  0
VERTEX
  5
581
  8
CUTOUT
 10
86.29444306982313
 20
44.9658783024734
 30
0.0
  0
VERTEX
  5
582
  8
CUTOUT
 10
86.30872206982313
 20
44.97587630247341
 30
0.0
  0
VERTEX
  5
583
  8
CUTOUT
 10
86.32452006982314
 20
44.98324330247341
 30
0.0
  0
VERTEX
  5
584
  8
CUTOUT
 10
86.34135706982313
 20
44.98775430247341
 30
0.0
  0
VERTEX
  5
585
  8
CUTOUT
 10
86.35872206982313
 20
44.98927330247341
 30
0.0
  0
SEQEND
  5
59D
  8
CUTOUT
  0
POLYLINE
  5
73
  8
DOVES
 66
     1
 10
0.0
 20
0.0
 30
0.0
  0
VERTEX
  5
586
  8
DOVES
 10
10.11548893017687
 20
9.515962460542696
 30
0.0
  0
VERTEX
  5
587
  8
DOVES
 10
14.55992893017687
 20
9.515962460542696
 30
0.0
  0
SEQEND
  5
59E
  8
DOVES
  0
POLYLINE
  5
74
  8
DOVES
 66
     1
 10
0.0
 20
0.0
 30
0.0
  0
VERTEX
  5
588
  8
DOVES
 10
19.00436893017685
 20
9.515962460542696
 30
0.0
  0
VERTEX
  5
589
  8
DOVES
 10
23.44880893017685
 20
9.515962460542696
 30
0.0
  0
SEQEND
  5
59F
  8
DOVES
  0
POLYLINE
  5
75
  8
DOVES
 66
     1
 10
0.0
 20
0.0
 30
0.0
  0
VERTEX
  5
58A
  8
DOVES
 10
27.89324893017685
 20
9.515962460542696
 30
0.0
  0
VERTEX
  5
58B
  8
DOVES
 10
32.33768893017685
 20
9.515962460542696
 30
0.0
  0
SEQEND
  5
5A0
  8
DOVES
  0
POLYLINE
  5
76
  8
DOVES
 66
     1
 10
0.0
 20
0.0
 30
0.0
  0
VERTEX
  5
58C
  8
DOVES
 10
36.78212893017685
 20
9.515962460542696
 30
0.0
  0
VERTEX
  5
58D
  8
DOVES
 10
41.22656893017685
 20
9.515962460542696
 30
0.0
  0
SEQEND
  5
5A1
  8
DOVES
  0
POLYLINE
  5
77
  8
DOVES
 66
     1
 10
0.0
 20
0.0
 30
0.0
  0
VERTEX
  5
58E
  8
DOVES
 10
54.77325306982313
 20
9.289273302473418
 30
0.0
  0
VERTEX
  5
58F
  8
DOVES
 10
59.21769306982313
 20
9.289273302473418
 30
0.0
  0
SEQEND
  5
5A2
  8
DOVES
  0
POLYLINE
  5
78
  8
DOVES
 66
     1
 10
0.0
 20
0.0
 30
0.0
  0
VERTEX
  5
590
  8
DOVES
 10
63.66213306982312
 20
9.289273302473418
 30
0.0
  0
VERTEX
  5
591
  8
DOVES
 10
68.10657306982313
 20
9.289273302473411
 30
0.0
  0
SEQEND
  5
5A3
  8
DOVES
  0
POLYLINE
  5
79
  8
DOVES
 66
     1
 10
0.0
 20
0.0
 30
0.0
  0
VERTEX
  5
592
  8
DOVES
 10
72.55101306982311
 20
9.289273302473411
 30
0.0
  0
VERTEX
  5
593
  8
DOVES
 10
76.99545306982313
 20
9.289273302473411
 30
0.0
  0
SEQEND
  5
5A4
  8
DOVES
  0
POLYLINE
  5
7A
  8
DOVES
 66
     1
 10
0.0
 20
0.0
 30
0.0
  0
VERTEX
  5
594
  8
DOVES
 10
81.43989306982313
 20
9.289273302473411
 30
0.0
  0
VERTEX
  5
595
  8
DOVES
 10
85.88433306982313
 20
9.289273302473411
 30
0.0
  0
SEQEND
  5
5A5
  8
DOVES
  0
ENDSEC
  0
EOF
