  0
SECTION
  2
HEADER
  9
$ACADVER
  1
AC1009
  9
$DWGCODEPAGE
  3
ansi_1252
  9
$INSBASE
 10
0.0
 20
0.0
 30
0.0
  9
$EXTMIN
 10
2.423433
 20
1.511442
 30
0.0
  9
$EXTMAX
 10
92.8280397936625
 20
45.78714075165806
 30
0.0
  9
$LIMMIN
 10
0.0
 20
0.0
  9
$LIMMAX
 10
12.0
 20
9.0
  9
$ORTHOMODE
 70
     0
  9
$REGENMODE
 70
     1
  9
$FILLMODE
 70
     1
  9
$QTEXTMODE
 70
     0
  9
$MIRRTEXT
 70
     1
  9
$DRAGMODE
 70
     2
  9
$LTSCALE
 40
1.0
  9
$OSMODE
 70
    37
  9
$ATTMODE
 70
     1
  9
$TEXTSIZE
 40
0.2
  9
$TRACEWID
 40
0.05
  9
$TEXTSTYLE
  7
STANDARD
  9
$CLAYER
  8
0
  9
$CELTYPE
  6
BYLAYER
  9
$CECOLOR
 62
   256
  9
$DIMSCALE
 40
1.0
  9
$DIMASZ
 40
0.18
  9
$DIMEXO
 40
0.0625
  9
$DIMDLI
 40
0.38
  9
$DIMRND
 40
0.0
  9
$DIMDLE
 40
0.0
  9
$DIMEXE
 40
0.18
  9
$DIMTP
 40
0.0
  9
$DIMTM
 40
0.0
  9
$DIMTXT
 40
0.18
  9
$DIMCEN
 40
0.09
  9
$DIMTSZ
 40
0.0
  9
$DIMTOL
 70
     0
  9
$DIMLIM
 70
     0
  9
$DIMTIH
 70
     1
  9
$DIMTOH
 70
     1
  9
$DIMSE1
 70
     0
  9
$DIMSE2
 70
     0
  9
$DIMTAD
 70
     0
  9
$DIMZIN
 70
     0
  9
$DIMBLK
  1

  9
$DIMASO
 70
     1
  9
$DIMSHO
 70
     1
  9
$DIMPOST
  1

  9
$DIMAPOST
  1

  9
$DIMALT
 70
     0
  9
$DIMALTD
 70
     2
  9
$DIMALTF
 40
25.4
  9
$DIMLFAC
 40
1.0
  9
$DIMTOFL
 70
     0
  9
$DIMTVP
 40
0.0
  9
$DIMTIX
 70
     0
  9
$DIMSOXD
 70
     0
  9
$DIMSAH
 70
     0
  9
$DIMBLK1
  1

  9
$DIMBLK2
  1

  9
$DIMSTYLE
  2
STANDARD
  9
$DIMCLRD
 70
     0
  9
$DIMCLRE
 70
     0
  9
$DIMCLRT
 70
     0
  9
$DIMTFAC
 40
1.0
  9
$DIMGAP
 40
0.09
  9
$LUNITS
 70
     2
  9
$LUPREC
 70
     4
  9
$SKETCHINC
 40
0.1
  9
$FILLETRAD
 40
0.5
  9
$AUNITS
 70
     0
  9
$AUPREC
 70
     0
  9
$MENU
  1
.
  9
$ELEVATION
 40
0.0
  9
$PELEVATION
 40
0.0
  9
$THICKNESS
 40
0.0
  9
$LIMCHECK
 70
     0
  9
$CHAMFERA
 40
0.5
  9
$CHAMFERB
 40
0.5
  9
$SKPOLY
 70
     0
  9
$TDCREATE
 40
2454910.5
  9
$TDUPDATE
 40
2455901.448355093
  9
$TDINDWG
 40
0.0000000116
  9
$TDUSRTIMER
 40
0.0000000116
  9
$USRTIMER
 70
     1
  9
$ANGBASE
 50
0.0
  9
$ANGDIR
 70
     0
  9
$PDMODE
 70
     0
  9
$PDSIZE
 40
0.0
  9
$PLINEWID
 40
0.0
  9
$COORDS
 70
     1
  9
$SPLFRAME
 70
     0
  9
$SPLINETYPE
 70
     6
  9
$SPLINESEGS
 70
     8
  9
$ATTDIA
 70
     0
  9
$ATTREQ
 70
     1
  9
$HANDLING
 70
     1
  9
$HANDSEED
  5
20F
  9
$SURFTAB1
 70
     6
  9
$SURFTAB2
 70
     6
  9
$SURFTYPE
 70
     6
  9
$SURFU
 70
     6
  9
$SURFV
 70
     6
  9
$UCSNAME
  2

  9
$UCSORG
 10
0.0
 20
0.0
 30
0.0
  9
$UCSXDIR
 10
1.0
 20
0.0
 30
0.0
  9
$UCSYDIR
 10
0.0
 20
1.0
 30
0.0
  9
$PUCSNAME
  2

  9
$PUCSORG
 10
0.0
 20
0.0
 30
0.0
  9
$PUCSXDIR
 10
1.0
 20
0.0
 30
0.0
  9
$PUCSYDIR
 10
0.0
 20
1.0
 30
0.0
  9
$USERI1
 70
     0
  9
$USERI2
 70
     0
  9
$USERI3
 70
     0
  9
$USERI4
 70
     0
  9
$USERI5
 70
     0
  9
$USERR1
 40
0.0
  9
$USERR2
 40
0.0
  9
$USERR3
 40
0.0
  9
$USERR4
 40
0.0
  9
$USERR5
 40
0.0
  9
$WORLDVIEW
 70
     1
  9
$SHADEDGE
 70
     3
  9
$SHADEDIF
 70
    70
  9
$TILEMODE
 70
     1
  9
$MAXACTVP
 70
    64
  9
$PLIMCHECK
 70
     0
  9
$PEXTMIN
 10
1.000000000000000E+20
 20
1.000000000000000E+20
 30
1.000000000000000E+20
  9
$PEXTMAX
 10
-1.000000000000000E+20
 20
-1.000000000000000E+20
 30
-1.000000000000000E+20
  9
$PLIMMIN
 10
0.0
 20
0.0
  9
$PLIMMAX
 10
12.0
 20
9.0
  9
$UNITMODE
 70
     0
  9
$VISRETAIN
 70
     1
  9
$PLINEGEN
 70
     0
  9
$PSLTSCALE
 70
     1
  0
ENDSEC
  0
SECTION
  2
TABLES
  0
TABLE
  2
VPORT
 70
     1
  0
VPORT
  2
*ACTIVE
 70
     0
 10
0.0
 20
0.0
 11
1.0
 21
1.0
 12
10.42990654205607
 22
4.5
 13
0.0
 23
0.0
 14
0.5
 24
0.5
 15
0.5
 25
0.5
 16
0.0
 26
0.0
 36
1.0
 17
0.0
 27
0.0
 37
0.0
 40
9.0
 41
1.972972972850329
 42
50.0
 43
0.0
 44
0.0
 50
0.0
 51
0.0
 71
     0
 72
   100
 73
     1
 74
     3
 75
     0
 76
     0
 77
     0
 78
     0
  0
ENDTAB
  0
TABLE
  2
LTYPE
 70
     2
  0
LTYPE
  2
CONTINUOUS
 70
     0
  3
Solid line
 72
    65
 73
     0
 40
0.0
  0
LTYPE
  2
CONTINUOUS2
 70
     0
  3
Solid Line
 72
    65
 73
     0
 40
0.0
  0
ENDTAB
  0
TABLE
  2
LAYER
 70
     3
  0
LAYER
  2
0
 70
     0
 62
     7
  6
CONTINUOUS
  0
LAYER
  2
THROUGH_CUT
 70
     0
 62
    18
  6
CONTINUOUS
  0
LAYER
  2
RECESS_FOR_SCREWS
 70
     0
 62
     5
  6
CONTINUOUS
  0
ENDTAB
  0
TABLE
  2
STYLE
 70
     1
  0
STYLE
  2
STANDARD
 70
     0
 40
0.0
 41
1.0
 50
0.0
 71
     0
 42
0.2
  3
txt
  4

  0
ENDTAB
  0
TABLE
  2
VIEW
 70
     0
  0
ENDTAB
  0
TABLE
  2
UCS
 70
     0
  0
ENDTAB
  0
TABLE
  2
APPID
 70
     1
  0
APPID
  2
ACAD
 70
     0
  0
ENDTAB
  0
TABLE
  2
DIMSTYLE
 70
     1
  0
DIMSTYLE
  2
STANDARD
 70
     0
  3

  4

  5

  6

  7

 40
1.0
 41
0.18
 42
0.0625
 43
0.38
 44
0.18
 45
0.0
 46
0.0
 47
0.0
 48
0.0
140
0.18
141
0.09
142
0.0
143
25.4
144
1.0
145
0.0
146
1.0
147
0.09
 71
     0
 72
     0
 73
     1
 74
     1
 75
     0
 76
     0
 77
     0
 78
     0
170
     0
171
     2
172
     0
173
     0
174
     0
175
     0
176
     0
177
     0
178
     0
  0
ENDTAB
  0
ENDSEC
  0
SECTION
  2
BLOCKS
  0
BLOCK
  8
0
  2
$MODEL_SPACE
 70
     0
 10
0.0
 20
0.0
 30
0.0
  3
$MODEL_SPACE
  1

  0
ENDBLK
  5
21
  8
0
  0
BLOCK
 67
     1
  8
0
  2
$PAPER_SPACE
 70
     0
 10
0.0
 20
0.0
 30
0.0
  3
$PAPER_SPACE
  1

  0
ENDBLK
  5
1D
 67
     1
  8
0
  0
ENDSEC
  0
SECTION
  2
ENTITIES
  0
POLYLINE
  5
41
  8
THROUGH_CUT
 66
     1
 10
0.0
 20
0.0
 30
0.0
 70
     1
  0
VERTEX
  5
8B
  8
THROUGH_CUT
 10
2.423433
 20
3.011442
 30
0.0
  0
VERTEX
  5
8C
  8
THROUGH_CUT
 10
3.193433
 20
3.011442
 30
0.0
 42
-1.0
  0
VERTEX
  5
8D
  8
THROUGH_CUT
 10
3.193433
 20
2.631442
 30
0.0
  0
VERTEX
  5
8E
  8
THROUGH_CUT
 10
3.193433
 20
1.511442
 30
0.0
  0
VERTEX
  5
8F
  8
THROUGH_CUT
 10
24.403433
 20
1.511442
 30
0.0
  0
VERTEX
  5
90
  8
THROUGH_CUT
 10
24.403433
 20
2.631442
 30
0.0
 42
-1.0
  0
VERTEX
  5
91
  8
THROUGH_CUT
 10
24.403433
 20
3.011442
 30
0.0
  0
VERTEX
  5
92
  8
THROUGH_CUT
 10
25.193433
 20
3.011442
 30
0.0
 42
-1.0
  0
VERTEX
  5
93
  8
THROUGH_CUT
 10
25.193433
 20
2.631442
 30
0.0
  0
VERTEX
  5
94
  8
THROUGH_CUT
 10
25.193433
 20
1.511442
 30
0.0
  0
VERTEX
  5
95
  8
THROUGH_CUT
 10
46.403433
 20
1.511442
 30
0.0
  0
VERTEX
  5
96
  8
THROUGH_CUT
 10
46.403433
 20
2.631442
 30
0.0
 42
-1.0
  0
VERTEX
  5
97
  8
THROUGH_CUT
 10
46.403433
 20
3.011442
 30
0.0
  0
VERTEX
  5
98
  8
THROUGH_CUT
 10
47.193433
 20
3.011442
 30
0.0
 42
-1.0
  0
VERTEX
  5
99
  8
THROUGH_CUT
 10
47.193433
 20
2.631442
 30
0.0
  0
VERTEX
  5
9A
  8
THROUGH_CUT
 10
47.193433
 20
1.511442
 30
0.0
  0
VERTEX
  5
9B
  8
THROUGH_CUT
 10
68.403433
 20
1.511442
 30
0.0
  0
VERTEX
  5
9C
  8
THROUGH_CUT
 10
68.403433
 20
2.631442
 30
0.0
 42
-1.0
  0
VERTEX
  5
9D
  8
THROUGH_CUT
 10
68.403433
 20
3.011442
 30
0.0
  0
VERTEX
  5
9E
  8
THROUGH_CUT
 10
68.798433
 20
3.011442
 30
0.0
  0
VERTEX
  5
9F
  8
THROUGH_CUT
 10
68.798433
 20
10.948942
 30
0.0
  0
VERTEX
  5
A0
  8
THROUGH_CUT
 10
68.423433
 20
10.948942
 30
0.0
 42
-1.0
  0
VERTEX
  5
A1
  8
THROUGH_CUT
 10
68.423433
 20
11.328942
 30
0.0
  0
VERTEX
  5
A2
  8
THROUGH_CUT
 10
68.423433
 20
17.381442
 30
0.0
 42
-1.0
  0
VERTEX
  5
A3
  8
THROUGH_CUT
 10
68.423433
 20
17.761442
 30
0.0
  0
VERTEX
  5
A4
  8
THROUGH_CUT
 10
69.173433
 20
17.761442
 30
0.0
  0
VERTEX
  5
A5
  8
THROUGH_CUT
 10
69.173433
 20
24.761442
 30
0.0
  0
VERTEX
  5
A6
  8
THROUGH_CUT
 10
68.423433
 20
24.761442
 30
0.0
 42
-1.0
  0
VERTEX
  5
A7
  8
THROUGH_CUT
 10
68.423433
 20
25.141442
 30
0.0
  0
VERTEX
  5
A8
  8
THROUGH_CUT
 10
68.423433
 20
31.193942
 30
0.0
 42
-1.0
  0
VERTEX
  5
A9
  8
THROUGH_CUT
 10
68.423433
 20
31.573942
 30
0.0
  0
VERTEX
  5
AA
  8
THROUGH_CUT
 10
68.798433
 20
31.573942
 30
0.0
  0
VERTEX
  5
AB
  8
THROUGH_CUT
 10
68.798433
 20
39.511442
 30
0.0
  0
VERTEX
  5
AC
  8
THROUGH_CUT
 10
68.403433
 20
39.511442
 30
0.0
 42
-1.0
  0
VERTEX
  5
AD
  8
THROUGH_CUT
 10
68.403433
 20
39.891442
 30
0.0
  0
VERTEX
  5
AE
  8
THROUGH_CUT
 10
68.403433
 20
41.011442
 30
0.0
  0
VERTEX
  5
AF
  8
THROUGH_CUT
 10
47.193433
 20
41.011442
 30
0.0
  0
VERTEX
  5
B0
  8
THROUGH_CUT
 10
47.193433
 20
39.891442
 30
0.0
 42
-1.0
  0
VERTEX
  5
B1
  8
THROUGH_CUT
 10
47.193433
 20
39.511442
 30
0.0
  0
VERTEX
  5
B2
  8
THROUGH_CUT
 10
46.403433
 20
39.511442
 30
0.0
 42
-1.0
  0
VERTEX
  5
B3
  8
THROUGH_CUT
 10
46.403433
 20
39.891442
 30
0.0
  0
VERTEX
  5
B4
  8
THROUGH_CUT
 10
46.403433
 20
41.011442
 30
0.0
  0
VERTEX
  5
B5
  8
THROUGH_CUT
 10
25.193433
 20
41.011442
 30
0.0
  0
VERTEX
  5
B6
  8
THROUGH_CUT
 10
25.193433
 20
39.891442
 30
0.0
 42
-1.0
  0
VERTEX
  5
B7
  8
THROUGH_CUT
 10
25.193433
 20
39.511442
 30
0.0
  0
VERTEX
  5
B8
  8
THROUGH_CUT
 10
24.403433
 20
39.511442
 30
0.0
 42
-1.0
  0
VERTEX
  5
B9
  8
THROUGH_CUT
 10
24.403433
 20
39.891442
 30
0.0
  0
VERTEX
  5
BA
  8
THROUGH_CUT
 10
24.403433
 20
41.011442
 30
0.0
  0
VERTEX
  5
BB
  8
THROUGH_CUT
 10
3.193433
 20
41.011442
 30
0.0
  0
VERTEX
  5
BC
  8
THROUGH_CUT
 10
3.193433
 20
39.891442
 30
0.0
 42
-1.0
  0
VERTEX
  5
BD
  8
THROUGH_CUT
 10
3.193433
 20
39.511442
 30
0.0
  0
VERTEX
  5
BE
  8
THROUGH_CUT
 10
2.423433
 20
39.511442
 30
0.0
  0
SEQEND
  5
BF
  8
THROUGH_CUT
  0
POLYLINE
  5
42
  8
THROUGH_CUT
 66
     1
 10
0.0
 20
0.0
 30
0.0
 70
     1
  0
VERTEX
  5
C0
  8
THROUGH_CUT
 10
72.3280397936625
 20
2.287140751658065
 30
0.0
  0
VERTEX
  5
C1
  8
THROUGH_CUT
 10
78.3280397936625
 20
2.287140751658065
 30
0.0
  0
VERTEX
  5
C2
  8
THROUGH_CUT
 10
78.3280397936625
 20
8.287140751658065
 30
0.0
  0
VERTEX
  5
C3
  8
THROUGH_CUT
 10
72.3280397936625
 20
8.287140751658065
 30
0.0
  0
SEQEND
  5
C4
  8
THROUGH_CUT
  0
POLYLINE
  5
43
  8
THROUGH_CUT
 66
     1
 10
0.0
 20
0.0
 30
0.0
 70
     1
  0
VERTEX
  5
C5
  8
THROUGH_CUT
 10
75.3280397936625
 20
7.587140751658062
 30
0.0
 42
0.4142135623730951
  0
VERTEX
  5
C6
  8
THROUGH_CUT
 10
74.9530397936625
 20
7.212140751658062
 30
0.0
 42
0.4142135623730951
  0
VERTEX
  5
C7
  8
THROUGH_CUT
 10
75.3280397936625
 20
6.837140751658062
 30
0.0
 42
0.4142135623730951
  0
VERTEX
  5
C8
  8
THROUGH_CUT
 10
75.7030397936625
 20
7.212140751658062
 30
0.0
 42
0.4142135623730951
  0
SEQEND
  5
C9
  8
THROUGH_CUT
  0
POLYLINE
  5
44
  8
THROUGH_CUT
 66
     1
 10
0.0
 20
0.0
 30
0.0
 70
     1
  0
VERTEX
  5
CA
  8
THROUGH_CUT
 10
75.32806512938319
 20
3.737100644227439
 30
0.0
 42
0.4142135623730951
  0
VERTEX
  5
CB
  8
THROUGH_CUT
 10
74.95306512938319
 20
3.362100644227439
 30
0.0
 42
0.4142135623730951
  0
VERTEX
  5
CC
  8
THROUGH_CUT
 10
75.32806512938319
 20
2.987100644227439
 30
0.0
 42
0.4142135623730951
  0
VERTEX
  5
CD
  8
THROUGH_CUT
 10
75.70306512938319
 20
3.362100644227439
 30
0.0
 42
0.4142135623730951
  0
SEQEND
  5
CE
  8
THROUGH_CUT
  0
POLYLINE
  5
45
  8
THROUGH_CUT
 66
     1
 10
0.0
 20
0.0
 30
0.0
 70
     1
  0
VERTEX
  5
CF
  8
THROUGH_CUT
 10
79.5780397936625
 20
2.287140751658065
 30
0.0
  0
VERTEX
  5
D0
  8
THROUGH_CUT
 10
85.5780397936625
 20
2.287140751658065
 30
0.0
  0
VERTEX
  5
D1
  8
THROUGH_CUT
 10
85.5780397936625
 20
8.287140751658065
 30
0.0
  0
VERTEX
  5
D2
  8
THROUGH_CUT
 10
79.5780397936625
 20
8.287140751658065
 30
0.0
  0
SEQEND
  5
D3
  8
THROUGH_CUT
  0
POLYLINE
  5
46
  8
THROUGH_CUT
 66
     1
 10
0.0
 20
0.0
 30
0.0
 70
     1
  0
VERTEX
  5
D4
  8
THROUGH_CUT
 10
82.5780397936625
 20
7.587140751658062
 30
0.0
 42
0.4142135623730951
  0
VERTEX
  5
D5
  8
THROUGH_CUT
 10
82.2030397936625
 20
7.212140751658062
 30
0.0
 42
0.4142135623730951
  0
VERTEX
  5
D6
  8
THROUGH_CUT
 10
82.5780397936625
 20
6.837140751658062
 30
0.0
 42
0.4142135623730951
  0
VERTEX
  5
D7
  8
THROUGH_CUT
 10
82.9530397936625
 20
7.212140751658062
 30
0.0
 42
0.4142135623730951
  0
SEQEND
  5
D8
  8
THROUGH_CUT
  0
POLYLINE
  5
47
  8
THROUGH_CUT
 66
     1
 10
0.0
 20
0.0
 30
0.0
 70
     1
  0
VERTEX
  5
D9
  8
THROUGH_CUT
 10
82.57806512938319
 20
3.737100644227439
 30
0.0
 42
0.4142135623730951
  0
VERTEX
  5
DA
  8
THROUGH_CUT
 10
82.20306512938319
 20
3.362100644227439
 30
0.0
 42
0.4142135623730951
  0
VERTEX
  5
DB
  8
THROUGH_CUT
 10
82.57806512938319
 20
2.987100644227439
 30
0.0
 42
0.4142135623730951
  0
VERTEX
  5
DC
  8
THROUGH_CUT
 10
82.95306512938319
 20
3.362100644227439
 30
0.0
 42
0.4142135623730951
  0
SEQEND
  5
DD
  8
THROUGH_CUT
  0
POLYLINE
  5
48
  8
THROUGH_CUT
 66
     1
 10
0.0
 20
0.0
 30
0.0
 70
     1
  0
VERTEX
  5
DE
  8
THROUGH_CUT
 10
86.8280397936625
 20
2.287140751658065
 30
0.0
  0
VERTEX
  5
DF
  8
THROUGH_CUT
 10
92.8280397936625
 20
2.287140751658065
 30
0.0
  0
VERTEX
  5
E0
  8
THROUGH_CUT
 10
92.8280397936625
 20
8.287140751658065
 30
0.0
  0
VERTEX
  5
E1
  8
THROUGH_CUT
 10
86.8280397936625
 20
8.287140751658065
 30
0.0
  0
SEQEND
  5
E2
  8
THROUGH_CUT
  0
POLYLINE
  5
49
  8
THROUGH_CUT
 66
     1
 10
0.0
 20
0.0
 30
0.0
 70
     1
  0
VERTEX
  5
E3
  8
THROUGH_CUT
 10
89.8280397936625
 20
7.587140751658062
 30
0.0
 42
0.4142135623730951
  0
VERTEX
  5
E4
  8
THROUGH_CUT
 10
89.4530397936625
 20
7.212140751658062
 30
0.0
 42
0.4142135623730951
  0
VERTEX
  5
E5
  8
THROUGH_CUT
 10
89.8280397936625
 20
6.837140751658062
 30
0.0
 42
0.4142135623730951
  0
VERTEX
  5
E6
  8
THROUGH_CUT
 10
90.2030397936625
 20
7.212140751658062
 30
0.0
 42
0.4142135623730951
  0
SEQEND
  5
E7
  8
THROUGH_CUT
  0
POLYLINE
  5
4A
  8
THROUGH_CUT
 66
     1
 10
0.0
 20
0.0
 30
0.0
 70
     1
  0
VERTEX
  5
E8
  8
THROUGH_CUT
 10
89.82806512938319
 20
3.737100644227439
 30
0.0
 42
0.4142135623730951
  0
VERTEX
  5
E9
  8
THROUGH_CUT
 10
89.45306512938319
 20
3.362100644227439
 30
0.0
 42
0.4142135623730951
  0
VERTEX
  5
EA
  8
THROUGH_CUT
 10
89.82806512938319
 20
2.987100644227439
 30
0.0
 42
0.4142135623730951
  0
VERTEX
  5
EB
  8
THROUGH_CUT
 10
90.20306512938319
 20
3.362100644227439
 30
0.0
 42
0.4142135623730951
  0
SEQEND
  5
EC
  8
THROUGH_CUT
  0
POLYLINE
  5
4B
  8
THROUGH_CUT
 66
     1
 10
0.0
 20
0.0
 30
0.0
 70
     1
  0
VERTEX
  5
ED
  8
THROUGH_CUT
 10
86.8280397936625
 20
9.787140751658065
 30
0.0
  0
VERTEX
  5
EE
  8
THROUGH_CUT
 10
92.8280397936625
 20
9.787140751658065
 30
0.0
  0
VERTEX
  5
EF
  8
THROUGH_CUT
 10
92.8280397936625
 20
15.78714075165806
 30
0.0
  0
VERTEX
  5
F0
  8
THROUGH_CUT
 10
86.8280397936625
 20
15.78714075165806
 30
0.0
  0
SEQEND
  5
F1
  8
THROUGH_CUT
  0
POLYLINE
  5
4C
  8
THROUGH_CUT
 66
     1
 10
0.0
 20
0.0
 30
0.0
 70
     1
  0
VERTEX
  5
F2
  8
THROUGH_CUT
 10
89.8280397936625
 20
15.08714075165806
 30
0.0
 42
0.4142135623730951
  0
VERTEX
  5
F3
  8
THROUGH_CUT
 10
89.4530397936625
 20
14.71214075165806
 30
0.0
 42
0.4142135623730951
  0
VERTEX
  5
F4
  8
THROUGH_CUT
 10
89.8280397936625
 20
14.33714075165806
 30
0.0
 42
0.4142135623730951
  0
VERTEX
  5
F5
  8
THROUGH_CUT
 10
90.2030397936625
 20
14.71214075165806
 30
0.0
 42
0.4142135623730951
  0
SEQEND
  5
F6
  8
THROUGH_CUT
  0
POLYLINE
  5
4D
  8
THROUGH_CUT
 66
     1
 10
0.0
 20
0.0
 30
0.0
 70
     1
  0
VERTEX
  5
F7
  8
THROUGH_CUT
 10
89.82806512938319
 20
11.23710064422744
 30
0.0
 42
0.4142135623730951
  0
VERTEX
  5
F8
  8
THROUGH_CUT
 10
89.45306512938319
 20
10.86210064422744
 30
0.0
 42
0.4142135623730951
  0
VERTEX
  5
F9
  8
THROUGH_CUT
 10
89.82806512938319
 20
10.48710064422744
 30
0.0
 42
0.4142135623730951
  0
VERTEX
  5
FA
  8
THROUGH_CUT
 10
90.20306512938319
 20
10.86210064422744
 30
0.0
 42
0.4142135623730951
  0
SEQEND
  5
FB
  8
THROUGH_CUT
  0
POLYLINE
  5
4E
  8
THROUGH_CUT
 66
     1
 10
0.0
 20
0.0
 30
0.0
 70
     1
  0
VERTEX
  5
FC
  8
THROUGH_CUT
 10
79.5780397936625
 20
9.787140751658065
 30
0.0
  0
VERTEX
  5
FD
  8
THROUGH_CUT
 10
85.5780397936625
 20
9.787140751658065
 30
0.0
  0
VERTEX
  5
FE
  8
THROUGH_CUT
 10
85.5780397936625
 20
15.78714075165806
 30
0.0
  0
VERTEX
  5
FF
  8
THROUGH_CUT
 10
79.5780397936625
 20
15.78714075165806
 30
0.0
  0
SEQEND
  5
100
  8
THROUGH_CUT
  0
POLYLINE
  5
4F
  8
THROUGH_CUT
 66
     1
 10
0.0
 20
0.0
 30
0.0
 70
     1
  0
VERTEX
  5
101
  8
THROUGH_CUT
 10
82.5780397936625
 20
15.08714075165806
 30
0.0
 42
0.4142135623730951
  0
VERTEX
  5
102
  8
THROUGH_CUT
 10
82.2030397936625
 20
14.71214075165806
 30
0.0
 42
0.4142135623730951
  0
VERTEX
  5
103
  8
THROUGH_CUT
 10
82.5780397936625
 20
14.33714075165806
 30
0.0
 42
0.4142135623730951
  0
VERTEX
  5
104
  8
THROUGH_CUT
 10
82.9530397936625
 20
14.71214075165806
 30
0.0
 42
0.4142135623730951
  0
SEQEND
  5
105
  8
THROUGH_CUT
  0
POLYLINE
  5
50
  8
THROUGH_CUT
 66
     1
 10
0.0
 20
0.0
 30
0.0
 70
     1
  0
VERTEX
  5
106
  8
THROUGH_CUT
 10
82.57806512938319
 20
11.23710064422744
 30
0.0
 42
0.4142135623730951
  0
VERTEX
  5
107
  8
THROUGH_CUT
 10
82.20306512938319
 20
10.86210064422744
 30
0.0
 42
0.4142135623730951
  0
VERTEX
  5
108
  8
THROUGH_CUT
 10
82.57806512938319
 20
10.48710064422744
 30
0.0
 42
0.4142135623730951
  0
VERTEX
  5
109
  8
THROUGH_CUT
 10
82.95306512938319
 20
10.86210064422744
 30
0.0
 42
0.4142135623730951
  0
SEQEND
  5
10A
  8
THROUGH_CUT
  0
POLYLINE
  5
51
  8
THROUGH_CUT
 66
     1
 10
0.0
 20
0.0
 30
0.0
 70
     1
  0
VERTEX
  5
10B
  8
THROUGH_CUT
 10
72.3280397936625
 20
9.787140751658065
 30
0.0
  0
VERTEX
  5
10C
  8
THROUGH_CUT
 10
78.3280397936625
 20
9.787140751658065
 30
0.0
  0
VERTEX
  5
10D
  8
THROUGH_CUT
 10
78.3280397936625
 20
15.78714075165806
 30
0.0
  0
VERTEX
  5
10E
  8
THROUGH_CUT
 10
72.3280397936625
 20
15.78714075165806
 30
0.0
  0
SEQEND
  5
10F
  8
THROUGH_CUT
  0
POLYLINE
  5
52
  8
THROUGH_CUT
 66
     1
 10
0.0
 20
0.0
 30
0.0
 70
     1
  0
VERTEX
  5
110
  8
THROUGH_CUT
 10
75.3280397936625
 20
15.08714075165806
 30
0.0
 42
0.4142135623730951
  0
VERTEX
  5
111
  8
THROUGH_CUT
 10
74.9530397936625
 20
14.71214075165806
 30
0.0
 42
0.4142135623730951
  0
VERTEX
  5
112
  8
THROUGH_CUT
 10
75.3280397936625
 20
14.33714075165806
 30
0.0
 42
0.4142135623730951
  0
VERTEX
  5
113
  8
THROUGH_CUT
 10
75.7030397936625
 20
14.71214075165806
 30
0.0
 42
0.4142135623730951
  0
SEQEND
  5
114
  8
THROUGH_CUT
  0
POLYLINE
  5
53
  8
THROUGH_CUT
 66
     1
 10
0.0
 20
0.0
 30
0.0
 70
     1
  0
VERTEX
  5
115
  8
THROUGH_CUT
 10
75.32806512938319
 20
11.23710064422744
 30
0.0
 42
0.4142135623730951
  0
VERTEX
  5
116
  8
THROUGH_CUT
 10
74.95306512938319
 20
10.86210064422744
 30
0.0
 42
0.4142135623730951
  0
VERTEX
  5
117
  8
THROUGH_CUT
 10
75.32806512938319
 20
10.48710064422744
 30
0.0
 42
0.4142135623730951
  0
VERTEX
  5
118
  8
THROUGH_CUT
 10
75.70306512938319
 20
10.86210064422744
 30
0.0
 42
0.4142135623730951
  0
SEQEND
  5
119
  8
THROUGH_CUT
  0
POLYLINE
  5
54
  8
THROUGH_CUT
 66
     1
 10
0.0
 20
0.0
 30
0.0
 70
     1
  0
VERTEX
  5
11A
  8
THROUGH_CUT
 10
72.3280397936625
 20
17.28714075165806
 30
0.0
  0
VERTEX
  5
11B
  8
THROUGH_CUT
 10
78.3280397936625
 20
17.28714075165806
 30
0.0
  0
VERTEX
  5
11C
  8
THROUGH_CUT
 10
78.3280397936625
 20
23.28714075165806
 30
0.0
  0
VERTEX
  5
11D
  8
THROUGH_CUT
 10
72.3280397936625
 20
23.28714075165806
 30
0.0
  0
SEQEND
  5
11E
  8
THROUGH_CUT
  0
POLYLINE
  5
55
  8
THROUGH_CUT
 66
     1
 10
0.0
 20
0.0
 30
0.0
 70
     1
  0
VERTEX
  5
11F
  8
THROUGH_CUT
 10
75.3280397936625
 20
22.58714075165806
 30
0.0
 42
0.4142135623730951
  0
VERTEX
  5
120
  8
THROUGH_CUT
 10
74.9530397936625
 20
22.21214075165806
 30
0.0
 42
0.4142135623730951
  0
VERTEX
  5
121
  8
THROUGH_CUT
 10
75.3280397936625
 20
21.83714075165806
 30
0.0
 42
0.4142135623730951
  0
VERTEX
  5
122
  8
THROUGH_CUT
 10
75.7030397936625
 20
22.21214075165806
 30
0.0
 42
0.4142135623730951
  0
SEQEND
  5
123
  8
THROUGH_CUT
  0
POLYLINE
  5
56
  8
THROUGH_CUT
 66
     1
 10
0.0
 20
0.0
 30
0.0
 70
     1
  0
VERTEX
  5
124
  8
THROUGH_CUT
 10
75.32806512938319
 20
18.73710064422744
 30
0.0
 42
0.4142135623730951
  0
VERTEX
  5
125
  8
THROUGH_CUT
 10
74.95306512938319
 20
18.36210064422744
 30
0.0
 42
0.4142135623730951
  0
VERTEX
  5
126
  8
THROUGH_CUT
 10
75.32806512938319
 20
17.98710064422744
 30
0.0
 42
0.4142135623730951
  0
VERTEX
  5
127
  8
THROUGH_CUT
 10
75.70306512938319
 20
18.36210064422744
 30
0.0
 42
0.4142135623730951
  0
SEQEND
  5
128
  8
THROUGH_CUT
  0
POLYLINE
  5
57
  8
THROUGH_CUT
 66
     1
 10
0.0
 20
0.0
 30
0.0
 70
     1
  0
VERTEX
  5
129
  8
THROUGH_CUT
 10
79.5780397936625
 20
17.28714075165806
 30
0.0
  0
VERTEX
  5
12A
  8
THROUGH_CUT
 10
85.5780397936625
 20
17.28714075165806
 30
0.0
  0
VERTEX
  5
12B
  8
THROUGH_CUT
 10
85.5780397936625
 20
23.28714075165806
 30
0.0
  0
VERTEX
  5
12C
  8
THROUGH_CUT
 10
79.5780397936625
 20
23.28714075165806
 30
0.0
  0
SEQEND
  5
12D
  8
THROUGH_CUT
  0
POLYLINE
  5
58
  8
THROUGH_CUT
 66
     1
 10
0.0
 20
0.0
 30
0.0
 70
     1
  0
VERTEX
  5
12E
  8
THROUGH_CUT
 10
82.5780397936625
 20
22.58714075165806
 30
0.0
 42
0.4142135623730951
  0
VERTEX
  5
12F
  8
THROUGH_CUT
 10
82.2030397936625
 20
22.21214075165806
 30
0.0
 42
0.4142135623730951
  0
VERTEX
  5
130
  8
THROUGH_CUT
 10
82.5780397936625
 20
21.83714075165806
 30
0.0
 42
0.4142135623730951
  0
VERTEX
  5
131
  8
THROUGH_CUT
 10
82.9530397936625
 20
22.21214075165806
 30
0.0
 42
0.4142135623730951
  0
SEQEND
  5
132
  8
THROUGH_CUT
  0
POLYLINE
  5
59
  8
THROUGH_CUT
 66
     1
 10
0.0
 20
0.0
 30
0.0
 70
     1
  0
VERTEX
  5
133
  8
THROUGH_CUT
 10
82.57806512938319
 20
18.73710064422744
 30
0.0
 42
0.4142135623730951
  0
VERTEX
  5
134
  8
THROUGH_CUT
 10
82.20306512938319
 20
18.36210064422744
 30
0.0
 42
0.4142135623730951
  0
VERTEX
  5
135
  8
THROUGH_CUT
 10
82.57806512938319
 20
17.98710064422744
 30
0.0
 42
0.4142135623730951
  0
VERTEX
  5
136
  8
THROUGH_CUT
 10
82.95306512938319
 20
18.36210064422744
 30
0.0
 42
0.4142135623730951
  0
SEQEND
  5
137
  8
THROUGH_CUT
  0
POLYLINE
  5
5A
  8
THROUGH_CUT
 66
     1
 10
0.0
 20
0.0
 30
0.0
 70
     1
  0
VERTEX
  5
138
  8
THROUGH_CUT
 10
86.8280397936625
 20
17.28714075165806
 30
0.0
  0
VERTEX
  5
139
  8
THROUGH_CUT
 10
92.8280397936625
 20
17.28714075165806
 30
0.0
  0
VERTEX
  5
13A
  8
THROUGH_CUT
 10
92.8280397936625
 20
23.28714075165806
 30
0.0
  0
VERTEX
  5
13B
  8
THROUGH_CUT
 10
86.8280397936625
 20
23.28714075165806
 30
0.0
  0
SEQEND
  5
13C
  8
THROUGH_CUT
  0
POLYLINE
  5
5B
  8
THROUGH_CUT
 66
     1
 10
0.0
 20
0.0
 30
0.0
 70
     1
  0
VERTEX
  5
13D
  8
THROUGH_CUT
 10
89.8280397936625
 20
22.58714075165806
 30
0.0
 42
0.4142135623730951
  0
VERTEX
  5
13E
  8
THROUGH_CUT
 10
89.4530397936625
 20
22.21214075165806
 30
0.0
 42
0.4142135623730951
  0
VERTEX
  5
13F
  8
THROUGH_CUT
 10
89.8280397936625
 20
21.83714075165806
 30
0.0
 42
0.4142135623730951
  0
VERTEX
  5
140
  8
THROUGH_CUT
 10
90.2030397936625
 20
22.21214075165806
 30
0.0
 42
0.4142135623730951
  0
SEQEND
  5
141
  8
THROUGH_CUT
  0
POLYLINE
  5
5C
  8
THROUGH_CUT
 66
     1
 10
0.0
 20
0.0
 30
0.0
 70
     1
  0
VERTEX
  5
142
  8
THROUGH_CUT
 10
89.82806512938319
 20
18.73710064422744
 30
0.0
 42
0.4142135623730951
  0
VERTEX
  5
143
  8
THROUGH_CUT
 10
89.45306512938319
 20
18.36210064422744
 30
0.0
 42
0.4142135623730951
  0
VERTEX
  5
144
  8
THROUGH_CUT
 10
89.82806512938319
 20
17.98710064422744
 30
0.0
 42
0.4142135623730951
  0
VERTEX
  5
145
  8
THROUGH_CUT
 10
90.20306512938319
 20
18.36210064422744
 30
0.0
 42
0.4142135623730951
  0
SEQEND
  5
146
  8
THROUGH_CUT
  0
POLYLINE
  5
5D
  8
THROUGH_CUT
 66
     1
 10
0.0
 20
0.0
 30
0.0
 70
     1
  0
VERTEX
  5
147
  8
THROUGH_CUT
 10
86.8280397936625
 20
24.78714075165806
 30
0.0
  0
VERTEX
  5
148
  8
THROUGH_CUT
 10
92.8280397936625
 20
24.78714075165806
 30
0.0
  0
VERTEX
  5
149
  8
THROUGH_CUT
 10
92.8280397936625
 20
30.78714075165806
 30
0.0
  0
VERTEX
  5
14A
  8
THROUGH_CUT
 10
86.8280397936625
 20
30.78714075165806
 30
0.0
  0
SEQEND
  5
14B
  8
THROUGH_CUT
  0
POLYLINE
  5
5E
  8
THROUGH_CUT
 66
     1
 10
0.0
 20
0.0
 30
0.0
 70
     1
  0
VERTEX
  5
14C
  8
THROUGH_CUT
 10
89.8280397936625
 20
30.08714075165806
 30
0.0
 42
0.4142135623730951
  0
VERTEX
  5
14D
  8
THROUGH_CUT
 10
89.4530397936625
 20
29.71214075165806
 30
0.0
 42
0.4142135623730951
  0
VERTEX
  5
14E
  8
THROUGH_CUT
 10
89.8280397936625
 20
29.33714075165806
 30
0.0
 42
0.4142135623730951
  0
VERTEX
  5
14F
  8
THROUGH_CUT
 10
90.2030397936625
 20
29.71214075165806
 30
0.0
 42
0.4142135623730951
  0
SEQEND
  5
150
  8
THROUGH_CUT
  0
POLYLINE
  5
5F
  8
THROUGH_CUT
 66
     1
 10
0.0
 20
0.0
 30
0.0
 70
     1
  0
VERTEX
  5
151
  8
THROUGH_CUT
 10
89.82806512938319
 20
26.23710064422744
 30
0.0
 42
0.4142135623730951
  0
VERTEX
  5
152
  8
THROUGH_CUT
 10
89.45306512938319
 20
25.86210064422744
 30
0.0
 42
0.4142135623730951
  0
VERTEX
  5
153
  8
THROUGH_CUT
 10
89.82806512938319
 20
25.48710064422744
 30
0.0
 42
0.4142135623730951
  0
VERTEX
  5
154
  8
THROUGH_CUT
 10
90.20306512938319
 20
25.86210064422744
 30
0.0
 42
0.4142135623730951
  0
SEQEND
  5
155
  8
THROUGH_CUT
  0
POLYLINE
  5
60
  8
THROUGH_CUT
 66
     1
 10
0.0
 20
0.0
 30
0.0
 70
     1
  0
VERTEX
  5
156
  8
THROUGH_CUT
 10
79.5780397936625
 20
24.78714075165806
 30
0.0
  0
VERTEX
  5
157
  8
THROUGH_CUT
 10
85.5780397936625
 20
24.78714075165806
 30
0.0
  0
VERTEX
  5
158
  8
THROUGH_CUT
 10
85.5780397936625
 20
30.78714075165806
 30
0.0
  0
VERTEX
  5
159
  8
THROUGH_CUT
 10
79.5780397936625
 20
30.78714075165806
 30
0.0
  0
SEQEND
  5
15A
  8
THROUGH_CUT
  0
POLYLINE
  5
61
  8
THROUGH_CUT
 66
     1
 10
0.0
 20
0.0
 30
0.0
 70
     1
  0
VERTEX
  5
15B
  8
THROUGH_CUT
 10
82.5780397936625
 20
30.08714075165806
 30
0.0
 42
0.4142135623730951
  0
VERTEX
  5
15C
  8
THROUGH_CUT
 10
82.2030397936625
 20
29.71214075165806
 30
0.0
 42
0.4142135623730951
  0
VERTEX
  5
15D
  8
THROUGH_CUT
 10
82.5780397936625
 20
29.33714075165806
 30
0.0
 42
0.4142135623730951
  0
VERTEX
  5
15E
  8
THROUGH_CUT
 10
82.9530397936625
 20
29.71214075165806
 30
0.0
 42
0.4142135623730951
  0
SEQEND
  5
15F
  8
THROUGH_CUT
  0
POLYLINE
  5
62
  8
THROUGH_CUT
 66
     1
 10
0.0
 20
0.0
 30
0.0
 70
     1
  0
VERTEX
  5
160
  8
THROUGH_CUT
 10
82.57806512938319
 20
26.23710064422744
 30
0.0
 42
0.4142135623730951
  0
VERTEX
  5
161
  8
THROUGH_CUT
 10
82.20306512938319
 20
25.86210064422744
 30
0.0
 42
0.4142135623730951
  0
VERTEX
  5
162
  8
THROUGH_CUT
 10
82.57806512938319
 20
25.48710064422744
 30
0.0
 42
0.4142135623730951
  0
VERTEX
  5
163
  8
THROUGH_CUT
 10
82.95306512938319
 20
25.86210064422744
 30
0.0
 42
0.4142135623730951
  0
SEQEND
  5
164
  8
THROUGH_CUT
  0
POLYLINE
  5
63
  8
THROUGH_CUT
 66
     1
 10
0.0
 20
0.0
 30
0.0
 70
     1
  0
VERTEX
  5
165
  8
THROUGH_CUT
 10
72.3280397936625
 20
24.78714075165806
 30
0.0
  0
VERTEX
  5
166
  8
THROUGH_CUT
 10
78.3280397936625
 20
24.78714075165806
 30
0.0
  0
VERTEX
  5
167
  8
THROUGH_CUT
 10
78.3280397936625
 20
30.78714075165806
 30
0.0
  0
VERTEX
  5
168
  8
THROUGH_CUT
 10
72.3280397936625
 20
30.78714075165806
 30
0.0
  0
SEQEND
  5
169
  8
THROUGH_CUT
  0
POLYLINE
  5
64
  8
THROUGH_CUT
 66
     1
 10
0.0
 20
0.0
 30
0.0
 70
     1
  0
VERTEX
  5
16A
  8
THROUGH_CUT
 10
75.3280397936625
 20
30.08714075165806
 30
0.0
 42
0.4142135623730951
  0
VERTEX
  5
16B
  8
THROUGH_CUT
 10
74.9530397936625
 20
29.71214075165806
 30
0.0
 42
0.4142135623730951
  0
VERTEX
  5
16C
  8
THROUGH_CUT
 10
75.3280397936625
 20
29.33714075165806
 30
0.0
 42
0.4142135623730951
  0
VERTEX
  5
16D
  8
THROUGH_CUT
 10
75.7030397936625
 20
29.71214075165806
 30
0.0
 42
0.4142135623730951
  0
SEQEND
  5
16E
  8
THROUGH_CUT
  0
POLYLINE
  5
65
  8
THROUGH_CUT
 66
     1
 10
0.0
 20
0.0
 30
0.0
 70
     1
  0
VERTEX
  5
16F
  8
THROUGH_CUT
 10
75.32806512938319
 20
26.23710064422744
 30
0.0
 42
0.4142135623730951
  0
VERTEX
  5
170
  8
THROUGH_CUT
 10
74.95306512938319
 20
25.86210064422744
 30
0.0
 42
0.4142135623730951
  0
VERTEX
  5
171
  8
THROUGH_CUT
 10
75.32806512938319
 20
25.48710064422744
 30
0.0
 42
0.4142135623730951
  0
VERTEX
  5
172
  8
THROUGH_CUT
 10
75.70306512938319
 20
25.86210064422744
 30
0.0
 42
0.4142135623730951
  0
SEQEND
  5
173
  8
THROUGH_CUT
  0
POLYLINE
  5
66
  8
THROUGH_CUT
 66
     1
 10
0.0
 20
0.0
 30
0.0
 70
     1
  0
VERTEX
  5
174
  8
THROUGH_CUT
 10
72.3280397936625
 20
32.28714075165806
 30
0.0
  0
VERTEX
  5
175
  8
THROUGH_CUT
 10
78.3280397936625
 20
32.28714075165806
 30
0.0
  0
VERTEX
  5
176
  8
THROUGH_CUT
 10
78.3280397936625
 20
38.28714075165806
 30
0.0
  0
VERTEX
  5
177
  8
THROUGH_CUT
 10
72.3280397936625
 20
38.28714075165806
 30
0.0
  0
SEQEND
  5
178
  8
THROUGH_CUT
  0
POLYLINE
  5
67
  8
THROUGH_CUT
 66
     1
 10
0.0
 20
0.0
 30
0.0
 70
     1
  0
VERTEX
  5
179
  8
THROUGH_CUT
 10
75.3280397936625
 20
37.58714075165806
 30
0.0
 42
0.4142135623730951
  0
VERTEX
  5
17A
  8
THROUGH_CUT
 10
74.9530397936625
 20
37.21214075165806
 30
0.0
 42
0.4142135623730951
  0
VERTEX
  5
17B
  8
THROUGH_CUT
 10
75.3280397936625
 20
36.83714075165806
 30
0.0
 42
0.4142135623730951
  0
VERTEX
  5
17C
  8
THROUGH_CUT
 10
75.7030397936625
 20
37.21214075165806
 30
0.0
 42
0.4142135623730951
  0
SEQEND
  5
17D
  8
THROUGH_CUT
  0
POLYLINE
  5
68
  8
THROUGH_CUT
 66
     1
 10
0.0
 20
0.0
 30
0.0
 70
     1
  0
VERTEX
  5
17E
  8
THROUGH_CUT
 10
75.32806512938319
 20
33.73710064422744
 30
0.0
 42
0.4142135623730951
  0
VERTEX
  5
17F
  8
THROUGH_CUT
 10
74.95306512938319
 20
33.36210064422744
 30
0.0
 42
0.4142135623730951
  0
VERTEX
  5
180
  8
THROUGH_CUT
 10
75.32806512938319
 20
32.98710064422744
 30
0.0
 42
0.4142135623730951
  0
VERTEX
  5
181
  8
THROUGH_CUT
 10
75.70306512938319
 20
33.36210064422744
 30
0.0
 42
0.4142135623730951
  0
SEQEND
  5
182
  8
THROUGH_CUT
  0
POLYLINE
  5
69
  8
THROUGH_CUT
 66
     1
 10
0.0
 20
0.0
 30
0.0
 70
     1
  0
VERTEX
  5
183
  8
THROUGH_CUT
 10
79.5780397936625
 20
32.28714075165806
 30
0.0
  0
VERTEX
  5
184
  8
THROUGH_CUT
 10
85.5780397936625
 20
32.28714075165806
 30
0.0
  0
VERTEX
  5
185
  8
THROUGH_CUT
 10
85.5780397936625
 20
38.28714075165806
 30
0.0
  0
VERTEX
  5
186
  8
THROUGH_CUT
 10
79.5780397936625
 20
38.28714075165806
 30
0.0
  0
SEQEND
  5
187
  8
THROUGH_CUT
  0
POLYLINE
  5
6A
  8
THROUGH_CUT
 66
     1
 10
0.0
 20
0.0
 30
0.0
 70
     1
  0
VERTEX
  5
188
  8
THROUGH_CUT
 10
82.5780397936625
 20
37.58714075165806
 30
0.0
 42
0.4142135623730951
  0
VERTEX
  5
189
  8
THROUGH_CUT
 10
82.2030397936625
 20
37.21214075165806
 30
0.0
 42
0.4142135623730951
  0
VERTEX
  5
18A
  8
THROUGH_CUT
 10
82.5780397936625
 20
36.83714075165806
 30
0.0
 42
0.4142135623730951
  0
VERTEX
  5
18B
  8
THROUGH_CUT
 10
82.9530397936625
 20
37.21214075165806
 30
0.0
 42
0.4142135623730951
  0
SEQEND
  5
18C
  8
THROUGH_CUT
  0
POLYLINE
  5
6B
  8
THROUGH_CUT
 66
     1
 10
0.0
 20
0.0
 30
0.0
 70
     1
  0
VERTEX
  5
18D
  8
THROUGH_CUT
 10
82.57806512938319
 20
33.73710064422744
 30
0.0
 42
0.4142135623730951
  0
VERTEX
  5
18E
  8
THROUGH_CUT
 10
82.20306512938319
 20
33.36210064422744
 30
0.0
 42
0.4142135623730951
  0
VERTEX
  5
18F
  8
THROUGH_CUT
 10
82.57806512938319
 20
32.98710064422744
 30
0.0
 42
0.4142135623730951
  0
VERTEX
  5
190
  8
THROUGH_CUT
 10
82.95306512938319
 20
33.36210064422744
 30
0.0
 42
0.4142135623730951
  0
SEQEND
  5
191
  8
THROUGH_CUT
  0
POLYLINE
  5
6C
  8
THROUGH_CUT
 66
     1
 10
0.0
 20
0.0
 30
0.0
 70
     1
  0
VERTEX
  5
192
  8
THROUGH_CUT
 10
86.8280397936625
 20
32.28714075165806
 30
0.0
  0
VERTEX
  5
193
  8
THROUGH_CUT
 10
92.8280397936625
 20
32.28714075165806
 30
0.0
  0
VERTEX
  5
194
  8
THROUGH_CUT
 10
92.8280397936625
 20
38.28714075165806
 30
0.0
  0
VERTEX
  5
195
  8
THROUGH_CUT
 10
86.8280397936625
 20
38.28714075165806
 30
0.0
  0
SEQEND
  5
196
  8
THROUGH_CUT
  0
POLYLINE
  5
6D
  8
THROUGH_CUT
 66
     1
 10
0.0
 20
0.0
 30
0.0
 70
     1
  0
VERTEX
  5
197
  8
THROUGH_CUT
 10
89.8280397936625
 20
37.58714075165806
 30
0.0
 42
0.4142135623730951
  0
VERTEX
  5
198
  8
THROUGH_CUT
 10
89.4530397936625
 20
37.21214075165806
 30
0.0
 42
0.4142135623730951
  0
VERTEX
  5
199
  8
THROUGH_CUT
 10
89.8280397936625
 20
36.83714075165806
 30
0.0
 42
0.4142135623730951
  0
VERTEX
  5
19A
  8
THROUGH_CUT
 10
90.2030397936625
 20
37.21214075165806
 30
0.0
 42
0.4142135623730951
  0
SEQEND
  5
19B
  8
THROUGH_CUT
  0
POLYLINE
  5
6E
  8
THROUGH_CUT
 66
     1
 10
0.0
 20
0.0
 30
0.0
 70
     1
  0
VERTEX
  5
19C
  8
THROUGH_CUT
 10
89.82806512938319
 20
33.73710064422744
 30
0.0
 42
0.4142135623730951
  0
VERTEX
  5
19D
  8
THROUGH_CUT
 10
89.45306512938319
 20
33.36210064422744
 30
0.0
 42
0.4142135623730951
  0
VERTEX
  5
19E
  8
THROUGH_CUT
 10
89.82806512938319
 20
32.98710064422744
 30
0.0
 42
0.4142135623730951
  0
VERTEX
  5
19F
  8
THROUGH_CUT
 10
90.20306512938319
 20
33.36210064422744
 30
0.0
 42
0.4142135623730951
  0
SEQEND
  5
1A0
  8
THROUGH_CUT
  0
POLYLINE
  5
6F
  8
THROUGH_CUT
 66
     1
 10
0.0
 20
0.0
 30
0.0
 70
     1
  0
VERTEX
  5
1A1
  8
THROUGH_CUT
 10
86.8280397936625
 20
39.78714075165806
 30
0.0
  0
VERTEX
  5
1A2
  8
THROUGH_CUT
 10
92.8280397936625
 20
39.78714075165806
 30
0.0
  0
VERTEX
  5
1A3
  8
THROUGH_CUT
 10
92.8280397936625
 20
45.78714075165806
 30
0.0
  0
VERTEX
  5
1A4
  8
THROUGH_CUT
 10
86.8280397936625
 20
45.78714075165806
 30
0.0
  0
SEQEND
  5
1A5
  8
THROUGH_CUT
  0
POLYLINE
  5
70
  8
THROUGH_CUT
 66
     1
 10
0.0
 20
0.0
 30
0.0
 70
     1
  0
VERTEX
  5
1A6
  8
THROUGH_CUT
 10
89.8280397936625
 20
45.08714075165806
 30
0.0
 42
0.4142135623730951
  0
VERTEX
  5
1A7
  8
THROUGH_CUT
 10
89.4530397936625
 20
44.71214075165806
 30
0.0
 42
0.4142135623730951
  0
VERTEX
  5
1A8
  8
THROUGH_CUT
 10
89.8280397936625
 20
44.33714075165806
 30
0.0
 42
0.4142135623730951
  0
VERTEX
  5
1A9
  8
THROUGH_CUT
 10
90.2030397936625
 20
44.71214075165806
 30
0.0
 42
0.4142135623730951
  0
SEQEND
  5
1AA
  8
THROUGH_CUT
  0
POLYLINE
  5
71
  8
THROUGH_CUT
 66
     1
 10
0.0
 20
0.0
 30
0.0
 70
     1
  0
VERTEX
  5
1AB
  8
THROUGH_CUT
 10
89.82806512938319
 20
41.23710064422744
 30
0.0
 42
0.4142135623730951
  0
VERTEX
  5
1AC
  8
THROUGH_CUT
 10
89.45306512938319
 20
40.86210064422744
 30
0.0
 42
0.4142135623730951
  0
VERTEX
  5
1AD
  8
THROUGH_CUT
 10
89.82806512938319
 20
40.48710064422744
 30
0.0
 42
0.4142135623730951
  0
VERTEX
  5
1AE
  8
THROUGH_CUT
 10
90.20306512938319
 20
40.86210064422744
 30
0.0
 42
0.4142135623730951
  0
SEQEND
  5
1AF
  8
THROUGH_CUT
  0
POLYLINE
  5
72
  8
THROUGH_CUT
 66
     1
 10
0.0
 20
0.0
 30
0.0
 70
     1
  0
VERTEX
  5
1B0
  8
THROUGH_CUT
 10
79.5780397936625
 20
39.78714075165806
 30
0.0
  0
VERTEX
  5
1B1
  8
THROUGH_CUT
 10
85.5780397936625
 20
39.78714075165806
 30
0.0
  0
VERTEX
  5
1B2
  8
THROUGH_CUT
 10
85.5780397936625
 20
45.78714075165806
 30
0.0
  0
VERTEX
  5
1B3
  8
THROUGH_CUT
 10
79.5780397936625
 20
45.78714075165806
 30
0.0
  0
SEQEND
  5
1B4
  8
THROUGH_CUT
  0
POLYLINE
  5
73
  8
THROUGH_CUT
 66
     1
 10
0.0
 20
0.0
 30
0.0
 70
     1
  0
VERTEX
  5
1B5
  8
THROUGH_CUT
 10
82.5780397936625
 20
45.08714075165806
 30
0.0
 42
0.4142135623730951
  0
VERTEX
  5
1B6
  8
THROUGH_CUT
 10
82.2030397936625
 20
44.71214075165806
 30
0.0
 42
0.4142135623730951
  0
VERTEX
  5
1B7
  8
THROUGH_CUT
 10
82.5780397936625
 20
44.33714075165806
 30
0.0
 42
0.4142135623730951
  0
VERTEX
  5
1B8
  8
THROUGH_CUT
 10
82.9530397936625
 20
44.71214075165806
 30
0.0
 42
0.4142135623730951
  0
SEQEND
  5
1B9
  8
THROUGH_CUT
  0
POLYLINE
  5
74
  8
THROUGH_CUT
 66
     1
 10
0.0
 20
0.0
 30
0.0
 70
     1
  0
VERTEX
  5
1BA
  8
THROUGH_CUT
 10
82.57806512938319
 20
41.23710064422744
 30
0.0
 42
0.4142135623730951
  0
VERTEX
  5
1BB
  8
THROUGH_CUT
 10
82.20306512938319
 20
40.86210064422744
 30
0.0
 42
0.4142135623730951
  0
VERTEX
  5
1BC
  8
THROUGH_CUT
 10
82.57806512938319
 20
40.48710064422744
 30
0.0
 42
0.4142135623730951
  0
VERTEX
  5
1BD
  8
THROUGH_CUT
 10
82.95306512938319
 20
40.86210064422744
 30
0.0
 42
0.4142135623730951
  0
SEQEND
  5
1BE
  8
THROUGH_CUT
  0
POLYLINE
  5
75
  8
THROUGH_CUT
 66
     1
 10
0.0
 20
0.0
 30
0.0
 70
     1
  0
VERTEX
  5
1BF
  8
THROUGH_CUT
 10
72.3280397936625
 20
39.78714075165806
 30
0.0
  0
VERTEX
  5
1C0
  8
THROUGH_CUT
 10
78.3280397936625
 20
39.78714075165806
 30
0.0
  0
VERTEX
  5
1C1
  8
THROUGH_CUT
 10
78.3280397936625
 20
45.78714075165806
 30
0.0
  0
VERTEX
  5
1C2
  8
THROUGH_CUT
 10
72.3280397936625
 20
45.78714075165806
 30
0.0
  0
SEQEND
  5
1C3
  8
THROUGH_CUT
  0
POLYLINE
  5
76
  8
THROUGH_CUT
 66
     1
 10
0.0
 20
0.0
 30
0.0
 70
     1
  0
VERTEX
  5
1C4
  8
THROUGH_CUT
 10
75.3280397936625
 20
45.08714075165806
 30
0.0
 42
0.4142135623730951
  0
VERTEX
  5
1C5
  8
THROUGH_CUT
 10
74.9530397936625
 20
44.71214075165806
 30
0.0
 42
0.4142135623730951
  0
VERTEX
  5
1C6
  8
THROUGH_CUT
 10
75.3280397936625
 20
44.33714075165806
 30
0.0
 42
0.4142135623730951
  0
VERTEX
  5
1C7
  8
THROUGH_CUT
 10
75.7030397936625
 20
44.71214075165806
 30
0.0
 42
0.4142135623730951
  0
SEQEND
  5
1C8
  8
THROUGH_CUT
  0
POLYLINE
  5
77
  8
THROUGH_CUT
 66
     1
 10
0.0
 20
0.0
 30
0.0
 70
     1
  0
VERTEX
  5
1C9
  8
THROUGH_CUT
 10
75.32806512938319
 20
41.23710064422744
 30
0.0
 42
0.4142135623730951
  0
VERTEX
  5
1CA
  8
THROUGH_CUT
 10
74.95306512938319
 20
40.86210064422744
 30
0.0
 42
0.4142135623730951
  0
VERTEX
  5
1CB
  8
THROUGH_CUT
 10
75.32806512938319
 20
40.48710064422744
 30
0.0
 42
0.4142135623730951
  0
VERTEX
  5
1CC
  8
THROUGH_CUT
 10
75.70306512938319
 20
40.86210064422744
 30
0.0
 42
0.4142135623730951
  0
SEQEND
  5
1CD
  8
THROUGH_CUT
  0
POLYLINE
  5
79
  8
RECESS_FOR_SCREWS
 66
     1
 10
0.0
 20
0.0
 30
0.0
 70
     1
  0
VERTEX
  5
1CE
  8
RECESS_FOR_SCREWS
 10
24.79843260188087
 20
35.14894200626959
 30
0.0
 42
0.4142135623730951
  0
VERTEX
  5
1CF
  8
RECESS_FOR_SCREWS
 10
24.59843260188087
 20
34.94894200626959
 30
0.0
 42
0.4142135623730951
  0
VERTEX
  5
1D0
  8
RECESS_FOR_SCREWS
 10
24.79843260188087
 20
34.74894200626959
 30
0.0
 42
0.4142135623730951
  0
VERTEX
  5
1D1
  8
RECESS_FOR_SCREWS
 10
24.99843260188086
 20
34.94894200626959
 30
0.0
 42
0.4142135623730951
  0
SEQEND
  5
1D2
  8
RECESS_FOR_SCREWS
  0
POLYLINE
  5
7A
  8
RECESS_FOR_SCREWS
 66
     1
 10
0.0
 20
0.0
 30
0.0
 70
     1
  0
VERTEX
  5
1D3
  8
RECESS_FOR_SCREWS
 10
24.79843260188087
 20
26.0239420062696
 30
0.0
 42
0.4142135623730951
  0
VERTEX
  5
1D4
  8
RECESS_FOR_SCREWS
 10
24.59843260188087
 20
25.8239420062696
 30
0.0
 42
0.4142135623730951
  0
VERTEX
  5
1D5
  8
RECESS_FOR_SCREWS
 10
24.79843260188087
 20
25.62394200626959
 30
0.0
 42
0.4142135623730951
  0
VERTEX
  5
1D6
  8
RECESS_FOR_SCREWS
 10
24.99843260188086
 20
25.8239420062696
 30
0.0
 42
0.4142135623730951
  0
SEQEND
  5
1D7
  8
RECESS_FOR_SCREWS
  0
POLYLINE
  5
7B
  8
RECESS_FOR_SCREWS
 66
     1
 10
0.0
 20
0.0
 30
0.0
 70
     1
  0
VERTEX
  5
1D8
  8
RECESS_FOR_SCREWS
 10
24.79843260188087
 20
16.8989420062696
 30
0.0
 42
0.4142135623730951
  0
VERTEX
  5
1D9
  8
RECESS_FOR_SCREWS
 10
24.59843260188087
 20
16.6989420062696
 30
0.0
 42
0.4142135623730951
  0
VERTEX
  5
1DA
  8
RECESS_FOR_SCREWS
 10
24.79843260188087
 20
16.49894200626959
 30
0.0
 42
0.4142135623730951
  0
VERTEX
  5
1DB
  8
RECESS_FOR_SCREWS
 10
24.99843260188086
 20
16.6989420062696
 30
0.0
 42
0.4142135623730951
  0
SEQEND
  5
1DC
  8
RECESS_FOR_SCREWS
  0
POLYLINE
  5
7C
  8
RECESS_FOR_SCREWS
 66
     1
 10
0.0
 20
0.0
 30
0.0
 70
     1
  0
VERTEX
  5
1DD
  8
RECESS_FOR_SCREWS
 10
24.79843260188087
 20
7.773942006269596
 30
0.0
 42
0.4142135623730951
  0
VERTEX
  5
1DE
  8
RECESS_FOR_SCREWS
 10
24.59843260188087
 20
7.573942006269595
 30
0.0
 42
0.4142135623730951
  0
VERTEX
  5
1DF
  8
RECESS_FOR_SCREWS
 10
24.79843260188087
 20
7.373942006269596
 30
0.0
 42
0.4142135623730951
  0
VERTEX
  5
1E0
  8
RECESS_FOR_SCREWS
 10
24.99843260188086
 20
7.573942006269595
 30
0.0
 42
0.4142135623730951
  0
SEQEND
  5
1E1
  8
RECESS_FOR_SCREWS
  0
POLYLINE
  5
7D
  8
RECESS_FOR_SCREWS
 66
     1
 10
0.0
 20
0.0
 30
0.0
 70
     1
  0
VERTEX
  5
1E2
  8
RECESS_FOR_SCREWS
 10
46.79843260188086
 20
7.773942006269596
 30
0.0
 42
0.4142135623730951
  0
VERTEX
  5
1E3
  8
RECESS_FOR_SCREWS
 10
46.59843260188085
 20
7.573942006269595
 30
0.0
 42
0.4142135623730951
  0
VERTEX
  5
1E4
  8
RECESS_FOR_SCREWS
 10
46.79843260188086
 20
7.373942006269596
 30
0.0
 42
0.4142135623730951
  0
VERTEX
  5
1E5
  8
RECESS_FOR_SCREWS
 10
46.99843260188086
 20
7.573942006269595
 30
0.0
 42
0.4142135623730951
  0
SEQEND
  5
1E6
  8
RECESS_FOR_SCREWS
  0
POLYLINE
  5
7E
  8
RECESS_FOR_SCREWS
 66
     1
 10
0.0
 20
0.0
 30
0.0
 70
     1
  0
VERTEX
  5
1E7
  8
RECESS_FOR_SCREWS
 10
46.79843260188086
 20
16.8989420062696
 30
0.0
 42
0.4142135623730951
  0
VERTEX
  5
1E8
  8
RECESS_FOR_SCREWS
 10
46.59843260188085
 20
16.6989420062696
 30
0.0
 42
0.4142135623730951
  0
VERTEX
  5
1E9
  8
RECESS_FOR_SCREWS
 10
46.79843260188086
 20
16.49894200626959
 30
0.0
 42
0.4142135623730951
  0
VERTEX
  5
1EA
  8
RECESS_FOR_SCREWS
 10
46.99843260188086
 20
16.6989420062696
 30
0.0
 42
0.4142135623730951
  0
SEQEND
  5
1EB
  8
RECESS_FOR_SCREWS
  0
POLYLINE
  5
7F
  8
RECESS_FOR_SCREWS
 66
     1
 10
0.0
 20
0.0
 30
0.0
 70
     1
  0
VERTEX
  5
1EC
  8
RECESS_FOR_SCREWS
 10
46.79843260188086
 20
26.0239420062696
 30
0.0
 42
0.4142135623730951
  0
VERTEX
  5
1ED
  8
RECESS_FOR_SCREWS
 10
46.59843260188085
 20
25.8239420062696
 30
0.0
 42
0.4142135623730951
  0
VERTEX
  5
1EE
  8
RECESS_FOR_SCREWS
 10
46.79843260188086
 20
25.62394200626959
 30
0.0
 42
0.4142135623730951
  0
VERTEX
  5
1EF
  8
RECESS_FOR_SCREWS
 10
46.99843260188086
 20
25.8239420062696
 30
0.0
 42
0.4142135623730951
  0
SEQEND
  5
1F0
  8
RECESS_FOR_SCREWS
  0
POLYLINE
  5
80
  8
RECESS_FOR_SCREWS
 66
     1
 10
0.0
 20
0.0
 30
0.0
 70
     1
  0
VERTEX
  5
1F1
  8
RECESS_FOR_SCREWS
 10
46.79843260188086
 20
35.14894200626959
 30
0.0
 42
0.4142135623730951
  0
VERTEX
  5
1F2
  8
RECESS_FOR_SCREWS
 10
46.59843260188085
 20
34.94894200626959
 30
0.0
 42
0.4142135623730951
  0
VERTEX
  5
1F3
  8
RECESS_FOR_SCREWS
 10
46.79843260188086
 20
34.74894200626959
 30
0.0
 42
0.4142135623730951
  0
VERTEX
  5
1F4
  8
RECESS_FOR_SCREWS
 10
46.99843260188086
 20
34.94894200626959
 30
0.0
 42
0.4142135623730951
  0
SEQEND
  5
1F5
  8
RECESS_FOR_SCREWS
  0
POLYLINE
  5
81
  8
RECESS_FOR_SCREWS
 66
     1
 10
0.0
 20
0.0
 30
0.0
 70
     1
  0
VERTEX
  5
1F6
  8
RECESS_FOR_SCREWS
 10
2.798432601880869
 20
35.14894200626959
 30
0.0
 42
0.4142135623730951
  0
VERTEX
  5
1F7
  8
RECESS_FOR_SCREWS
 10
2.598432601880867
 20
34.94894200626959
 30
0.0
 42
0.4142135623730951
  0
VERTEX
  5
1F8
  8
RECESS_FOR_SCREWS
 10
2.798432601880869
 20
34.74894200626959
 30
0.0
 42
0.4142135623730951
  0
VERTEX
  5
1F9
  8
RECESS_FOR_SCREWS
 10
2.998432601880871
 20
34.94894200626959
 30
0.0
 42
0.4142135623730951
  0
SEQEND
  5
1FA
  8
RECESS_FOR_SCREWS
  0
POLYLINE
  5
82
  8
RECESS_FOR_SCREWS
 66
     1
 10
0.0
 20
0.0
 30
0.0
 70
     1
  0
VERTEX
  5
1FB
  8
RECESS_FOR_SCREWS
 10
2.798432601880869
 20
26.0239420062696
 30
0.0
 42
0.4142135623730951
  0
VERTEX
  5
1FC
  8
RECESS_FOR_SCREWS
 10
2.598432601880869
 20
25.8239420062696
 30
0.0
 42
0.4142135623730951
  0
VERTEX
  5
1FD
  8
RECESS_FOR_SCREWS
 10
2.798432601880869
 20
25.62394200626959
 30
0.0
 42
0.4142135623730951
  0
VERTEX
  5
1FE
  8
RECESS_FOR_SCREWS
 10
2.998432601880869
 20
25.8239420062696
 30
0.0
 42
0.4142135623730951
  0
SEQEND
  5
1FF
  8
RECESS_FOR_SCREWS
  0
POLYLINE
  5
83
  8
RECESS_FOR_SCREWS
 66
     1
 10
0.0
 20
0.0
 30
0.0
 70
     1
  0
VERTEX
  5
200
  8
RECESS_FOR_SCREWS
 10
2.798432601880869
 20
16.8989420062696
 30
0.0
 42
0.4142135623730951
  0
VERTEX
  5
201
  8
RECESS_FOR_SCREWS
 10
2.598432601880869
 20
16.6989420062696
 30
0.0
 42
0.4142135623730951
  0
VERTEX
  5
202
  8
RECESS_FOR_SCREWS
 10
2.798432601880869
 20
16.49894200626959
 30
0.0
 42
0.4142135623730951
  0
VERTEX
  5
203
  8
RECESS_FOR_SCREWS
 10
2.998432601880869
 20
16.6989420062696
 30
0.0
 42
0.4142135623730951
  0
SEQEND
  5
204
  8
RECESS_FOR_SCREWS
  0
POLYLINE
  5
84
  8
RECESS_FOR_SCREWS
 66
     1
 10
0.0
 20
0.0
 30
0.0
 70
     1
  0
VERTEX
  5
205
  8
RECESS_FOR_SCREWS
 10
2.798432601880869
 20
7.773942006269596
 30
0.0
 42
0.4142135623730951
  0
VERTEX
  5
206
  8
RECESS_FOR_SCREWS
 10
2.598432601880869
 20
7.573942006269595
 30
0.0
 42
0.4142135623730951
  0
VERTEX
  5
207
  8
RECESS_FOR_SCREWS
 10
2.798432601880869
 20
7.373942006269596
 30
0.0
 42
0.4142135623730951
  0
VERTEX
  5
208
  8
RECESS_FOR_SCREWS
 10
2.998432601880869
 20
7.573942006269595
 30
0.0
 42
0.4142135623730951
  0
SEQEND
  5
209
  8
RECESS_FOR_SCREWS
  0
POLYLINE
  5
85
  8
RECESS_FOR_SCREWS
 66
     1
 10
0.0
 20
0.0
 30
0.0
 70
     1
  0
VERTEX
  5
20A
  8
RECESS_FOR_SCREWS
 10
68.79843260188088
 20
21.4614420062696
 30
0.0
 42
0.4142135623730951
  0
VERTEX
  5
20B
  8
RECESS_FOR_SCREWS
 10
68.59843260188087
 20
21.2614420062696
 30
0.0
 42
0.4142135623730951
  0
VERTEX
  5
20C
  8
RECESS_FOR_SCREWS
 10
68.79843260188088
 20
21.06144200626959
 30
0.0
 42
0.4142135623730951
  0
VERTEX
  5
20D
  8
RECESS_FOR_SCREWS
 10
68.99843260188088
 20
21.2614420062696
 30
0.0
 42
0.4142135623730951
  0
SEQEND
  5
20E
  8
RECESS_FOR_SCREWS
  0
ENDSEC
  0
EOF
