  0
SECTION
  2
HEADER
  9
$ACADVER
  1
AC1009
  9
$DWGCODEPAGE
  3
ansi_1252
  9
$INSBASE
 10
0.0
 20
0.0
 30
0.0
  9
$EXTMIN
 10
2.325
 20
1.278739867354457
 30
0.0
  9
$EXTMAX
 10
91.075
 20
46.1909911569639
 30
0.0
  9
$LIMMIN
 10
0.0
 20
0.0
  9
$LIMMAX
 10
12.0
 20
9.0
  9
$ORTHOMODE
 70
     0
  9
$REGENMODE
 70
     1
  9
$FILLMODE
 70
     1
  9
$QTEXTMODE
 70
     0
  9
$MIRRTEXT
 70
     1
  9
$DRAGMODE
 70
     2
  9
$LTSCALE
 40
1.0
  9
$OSMODE
 70
    37
  9
$ATTMODE
 70
     1
  9
$TEXTSIZE
 40
0.2
  9
$TRACEWID
 40
0.05
  9
$TEXTSTYLE
  7
STANDARD
  9
$CLAYER
  8
0
  9
$CELTYPE
  6
BYLAYER
  9
$CECOLOR
 62
   256
  9
$DIMSCALE
 40
1.0
  9
$DIMASZ
 40
0.18
  9
$DIMEXO
 40
0.0625
  9
$DIMDLI
 40
0.38
  9
$DIMRND
 40
0.0
  9
$DIMDLE
 40
0.0
  9
$DIMEXE
 40
0.18
  9
$DIMTP
 40
0.0
  9
$DIMTM
 40
0.0
  9
$DIMTXT
 40
0.18
  9
$DIMCEN
 40
0.09
  9
$DIMTSZ
 40
0.0
  9
$DIMTOL
 70
     0
  9
$DIMLIM
 70
     0
  9
$DIMTIH
 70
     1
  9
$DIMTOH
 70
     1
  9
$DIMSE1
 70
     0
  9
$DIMSE2
 70
     0
  9
$DIMTAD
 70
     0
  9
$DIMZIN
 70
     0
  9
$DIMBLK
  1

  9
$DIMASO
 70
     1
  9
$DIMSHO
 70
     1
  9
$DIMPOST
  1

  9
$DIMAPOST
  1

  9
$DIMALT
 70
     0
  9
$DIMALTD
 70
     2
  9
$DIMALTF
 40
25.4
  9
$DIMLFAC
 40
1.0
  9
$DIMTOFL
 70
     0
  9
$DIMTVP
 40
0.0
  9
$DIMTIX
 70
     0
  9
$DIMSOXD
 70
     0
  9
$DIMSAH
 70
     0
  9
$DIMBLK1
  1

  9
$DIMBLK2
  1

  9
$DIMSTYLE
  2
STANDARD
  9
$DIMCLRD
 70
     0
  9
$DIMCLRE
 70
     0
  9
$DIMCLRT
 70
     0
  9
$DIMTFAC
 40
1.0
  9
$DIMGAP
 40
0.09
  9
$LUNITS
 70
     2
  9
$LUPREC
 70
     4
  9
$SKETCHINC
 40
0.1
  9
$FILLETRAD
 40
0.5
  9
$AUNITS
 70
     0
  9
$AUPREC
 70
     0
  9
$MENU
  1
.
  9
$ELEVATION
 40
0.0
  9
$PELEVATION
 40
0.0
  9
$THICKNESS
 40
0.0
  9
$LIMCHECK
 70
     0
  9
$CHAMFERA
 40
0.5
  9
$CHAMFERB
 40
0.5
  9
$SKPOLY
 70
     0
  9
$TDCREATE
 40
2454910.5
  9
$TDUPDATE
 40
2455901.448227847
  9
$TDINDWG
 40
0.0000000116
  9
$TDUSRTIMER
 40
0.0000000116
  9
$USRTIMER
 70
     1
  9
$ANGBASE
 50
0.0
  9
$ANGDIR
 70
     0
  9
$PDMODE
 70
     0
  9
$PDSIZE
 40
0.0
  9
$PLINEWID
 40
0.0
  9
$COORDS
 70
     1
  9
$SPLFRAME
 70
     0
  9
$SPLINETYPE
 70
     6
  9
$SPLINESEGS
 70
     8
  9
$ATTDIA
 70
     0
  9
$ATTREQ
 70
     1
  9
$HANDLING
 70
     1
  9
$HANDSEED
  5
10F
  9
$SURFTAB1
 70
     6
  9
$SURFTAB2
 70
     6
  9
$SURFTYPE
 70
     6
  9
$SURFU
 70
     6
  9
$SURFV
 70
     6
  9
$UCSNAME
  2

  9
$UCSORG
 10
0.0
 20
0.0
 30
0.0
  9
$UCSXDIR
 10
1.0
 20
0.0
 30
0.0
  9
$UCSYDIR
 10
0.0
 20
1.0
 30
0.0
  9
$PUCSNAME
  2

  9
$PUCSORG
 10
0.0
 20
0.0
 30
0.0
  9
$PUCSXDIR
 10
1.0
 20
0.0
 30
0.0
  9
$PUCSYDIR
 10
0.0
 20
1.0
 30
0.0
  9
$USERI1
 70
     0
  9
$USERI2
 70
     0
  9
$USERI3
 70
     0
  9
$USERI4
 70
     0
  9
$USERI5
 70
     0
  9
$USERR1
 40
0.0
  9
$USERR2
 40
0.0
  9
$USERR3
 40
0.0
  9
$USERR4
 40
0.0
  9
$USERR5
 40
0.0
  9
$WORLDVIEW
 70
     1
  9
$SHADEDGE
 70
     3
  9
$SHADEDIF
 70
    70
  9
$TILEMODE
 70
     1
  9
$MAXACTVP
 70
    64
  9
$PLIMCHECK
 70
     0
  9
$PEXTMIN
 10
1.000000000000000E+20
 20
1.000000000000000E+20
 30
1.000000000000000E+20
  9
$PEXTMAX
 10
-1.000000000000000E+20
 20
-1.000000000000000E+20
 30
-1.000000000000000E+20
  9
$PLIMMIN
 10
0.0
 20
0.0
  9
$PLIMMAX
 10
12.0
 20
9.0
  9
$UNITMODE
 70
     0
  9
$VISRETAIN
 70
     1
  9
$PLINEGEN
 70
     0
  9
$PSLTSCALE
 70
     1
  0
ENDSEC
  0
SECTION
  2
TABLES
  0
TABLE
  2
VPORT
 70
     1
  0
VPORT
  2
*ACTIVE
 70
     0
 10
0.0
 20
0.0
 11
1.0
 21
1.0
 12
10.42990654205607
 22
4.5
 13
0.0
 23
0.0
 14
0.5
 24
0.5
 15
0.5
 25
0.5
 16
0.0
 26
0.0
 36
1.0
 17
0.0
 27
0.0
 37
0.0
 40
9.0
 41
1.972972972850329
 42
50.0
 43
0.0
 44
0.0
 50
0.0
 51
0.0
 71
     0
 72
   100
 73
     1
 74
     3
 75
     0
 76
     0
 77
     0
 78
     0
  0
ENDTAB
  0
TABLE
  2
LTYPE
 70
     2
  0
LTYPE
  2
CONTINUOUS
 70
     0
  3
Solid line
 72
    65
 73
     0
 40
0.0
  0
LTYPE
  2
CONTINUOUS2
 70
     0
  3
Solid Line
 72
    65
 73
     0
 40
0.0
  0
ENDTAB
  0
TABLE
  2
LAYER
 70
     3
  0
LAYER
  2
0
 70
     0
 62
     7
  6
CONTINUOUS
  0
LAYER
  2
THROUGH_CUT
 70
     0
 62
    18
  6
CONTINUOUS
  0
LAYER
  2
RECESS_FOR_SCREWS
 70
     0
 62
     5
  6
CONTINUOUS
  0
ENDTAB
  0
TABLE
  2
STYLE
 70
     1
  0
STYLE
  2
STANDARD
 70
     0
 40
0.0
 41
1.0
 50
0.0
 71
     0
 42
0.2
  3
txt
  4

  0
ENDTAB
  0
TABLE
  2
VIEW
 70
     0
  0
ENDTAB
  0
TABLE
  2
UCS
 70
     0
  0
ENDTAB
  0
TABLE
  2
APPID
 70
     1
  0
APPID
  2
ACAD
 70
     0
  0
ENDTAB
  0
TABLE
  2
DIMSTYLE
 70
     1
  0
DIMSTYLE
  2
STANDARD
 70
     0
  3

  4

  5

  6

  7

 40
1.0
 41
0.18
 42
0.0625
 43
0.38
 44
0.18
 45
0.0
 46
0.0
 47
0.0
 48
0.0
140
0.18
141
0.09
142
0.0
143
25.4
144
1.0
145
0.0
146
1.0
147
0.09
 71
     0
 72
     0
 73
     1
 74
     1
 75
     0
 76
     0
 77
     0
 78
     0
170
     0
171
     2
172
     0
173
     0
174
     0
175
     0
176
     0
177
     0
178
     0
  0
ENDTAB
  0
ENDSEC
  0
SECTION
  2
BLOCKS
  0
BLOCK
  8
0
  2
$MODEL_SPACE
 70
     0
 10
0.0
 20
0.0
 30
0.0
  3
$MODEL_SPACE
  1

  0
ENDBLK
  5
21
  8
0
  0
BLOCK
 67
     1
  8
0
  2
$PAPER_SPACE
 70
     0
 10
0.0
 20
0.0
 30
0.0
  3
$PAPER_SPACE
  1

  0
ENDBLK
  5
1D
 67
     1
  8
0
  0
ENDSEC
  0
SECTION
  2
ENTITIES
  0
POLYLINE
  5
41
  8
THROUGH_CUT
 66
     1
 10
0.0
 20
0.0
 30
0.0
 70
     1
  0
VERTEX
  5
5B
  8
THROUGH_CUT
 10
2.325
 20
10.71623986735446
 30
0.0
  0
VERTEX
  5
5C
  8
THROUGH_CUT
 10
2.7
 20
10.71623986735446
 30
0.0
 42
-1.0
  0
VERTEX
  5
5D
  8
THROUGH_CUT
 10
2.7
 20
10.33623986735446
 30
0.0
  0
VERTEX
  5
5E
  8
THROUGH_CUT
 10
2.7
 20
2.778738867354456
 30
0.0
  0
VERTEX
  5
5F
  8
THROUGH_CUT
 10
3.095
 20
2.778738867354456
 30
0.0
 42
-1.0
  0
VERTEX
  5
60
  8
THROUGH_CUT
 10
3.095
 20
2.398738867354457
 30
0.0
  0
VERTEX
  5
61
  8
THROUGH_CUT
 10
3.095
 20
1.278739867354457
 30
0.0
  0
VERTEX
  5
62
  8
THROUGH_CUT
 10
24.305
 20
1.278739867354457
 30
0.0
  0
VERTEX
  5
63
  8
THROUGH_CUT
 10
24.305
 20
2.398738867354457
 30
0.0
 42
-1.0
  0
VERTEX
  5
64
  8
THROUGH_CUT
 10
24.305
 20
2.778738867354456
 30
0.0
  0
VERTEX
  5
65
  8
THROUGH_CUT
 10
25.095
 20
2.778738867354456
 30
0.0
 42
-1.0
  0
VERTEX
  5
66
  8
THROUGH_CUT
 10
25.095
 20
2.398738867354457
 30
0.0
  0
VERTEX
  5
67
  8
THROUGH_CUT
 10
25.095
 20
1.278739867354457
 30
0.0
  0
VERTEX
  5
68
  8
THROUGH_CUT
 10
46.305
 20
1.278739867354457
 30
0.0
  0
VERTEX
  5
69
  8
THROUGH_CUT
 10
46.305
 20
2.398738867354457
 30
0.0
 42
-1.0
  0
VERTEX
  5
6A
  8
THROUGH_CUT
 10
46.305
 20
2.778738867354456
 30
0.0
  0
VERTEX
  5
6B
  8
THROUGH_CUT
 10
47.095
 20
2.778738867354456
 30
0.0
 42
-1.0
  0
VERTEX
  5
6C
  8
THROUGH_CUT
 10
47.095
 20
2.398738867354457
 30
0.0
  0
VERTEX
  5
6D
  8
THROUGH_CUT
 10
47.095
 20
1.278739867354457
 30
0.0
  0
VERTEX
  5
6E
  8
THROUGH_CUT
 10
68.305
 20
1.278739867354457
 30
0.0
  0
VERTEX
  5
6F
  8
THROUGH_CUT
 10
68.305
 20
2.398738867354457
 30
0.0
 42
-1.0
  0
VERTEX
  5
70
  8
THROUGH_CUT
 10
68.305
 20
2.778738867354456
 30
0.0
  0
VERTEX
  5
71
  8
THROUGH_CUT
 10
69.095
 20
2.778738867354456
 30
0.0
 42
-1.0
  0
VERTEX
  5
72
  8
THROUGH_CUT
 10
69.095
 20
2.398738867354457
 30
0.0
  0
VERTEX
  5
73
  8
THROUGH_CUT
 10
69.095
 20
1.278739867354457
 30
0.0
  0
VERTEX
  5
74
  8
THROUGH_CUT
 10
90.305
 20
1.278739867354457
 30
0.0
  0
VERTEX
  5
75
  8
THROUGH_CUT
 10
90.305
 20
2.398738867354457
 30
0.0
 42
-1.0
  0
VERTEX
  5
76
  8
THROUGH_CUT
 10
90.305
 20
2.778738867354456
 30
0.0
  0
VERTEX
  5
77
  8
THROUGH_CUT
 10
91.075
 20
2.778738867354456
 30
0.0
  0
VERTEX
  5
78
  8
THROUGH_CUT
 10
91.075
 20
39.27873886735448
 30
0.0
  0
VERTEX
  5
79
  8
THROUGH_CUT
 10
90.305
 20
39.27873886735448
 30
0.0
 42
-1.0
  0
VERTEX
  5
7A
  8
THROUGH_CUT
 10
90.305
 20
39.65873886735448
 30
0.0
  0
VERTEX
  5
7B
  8
THROUGH_CUT
 10
90.305
 20
40.77873986735447
 30
0.0
  0
VERTEX
  5
7C
  8
THROUGH_CUT
 10
69.095
 20
40.77873986735447
 30
0.0
  0
VERTEX
  5
7D
  8
THROUGH_CUT
 10
69.095
 20
39.65873886735448
 30
0.0
 42
-1.0
  0
VERTEX
  5
7E
  8
THROUGH_CUT
 10
69.095
 20
39.27873886735448
 30
0.0
  0
VERTEX
  5
7F
  8
THROUGH_CUT
 10
68.305
 20
39.27873886735448
 30
0.0
 42
-1.0
  0
VERTEX
  5
80
  8
THROUGH_CUT
 10
68.305
 20
39.65873886735448
 30
0.0
  0
VERTEX
  5
81
  8
THROUGH_CUT
 10
68.305
 20
40.77873986735447
 30
0.0
  0
VERTEX
  5
82
  8
THROUGH_CUT
 10
47.095
 20
40.77873986735447
 30
0.0
  0
VERTEX
  5
83
  8
THROUGH_CUT
 10
47.095
 20
39.65873886735448
 30
0.0
 42
-1.0
  0
VERTEX
  5
84
  8
THROUGH_CUT
 10
47.095
 20
39.27873886735448
 30
0.0
  0
VERTEX
  5
85
  8
THROUGH_CUT
 10
46.305
 20
39.27873886735448
 30
0.0
 42
-1.0
  0
VERTEX
  5
86
  8
THROUGH_CUT
 10
46.305
 20
39.65873886735448
 30
0.0
  0
VERTEX
  5
87
  8
THROUGH_CUT
 10
46.305
 20
40.77873986735447
 30
0.0
  0
VERTEX
  5
88
  8
THROUGH_CUT
 10
25.095
 20
40.77873986735447
 30
0.0
  0
VERTEX
  5
89
  8
THROUGH_CUT
 10
25.095
 20
39.65873886735448
 30
0.0
 42
-1.0
  0
VERTEX
  5
8A
  8
THROUGH_CUT
 10
25.095
 20
39.27873886735448
 30
0.0
  0
VERTEX
  5
8B
  8
THROUGH_CUT
 10
24.305
 20
39.27873886735448
 30
0.0
 42
-1.0
  0
VERTEX
  5
8C
  8
THROUGH_CUT
 10
24.305
 20
39.65873886735448
 30
0.0
  0
VERTEX
  5
8D
  8
THROUGH_CUT
 10
24.305
 20
40.77873986735447
 30
0.0
  0
VERTEX
  5
8E
  8
THROUGH_CUT
 10
3.095
 20
40.77873986735447
 30
0.0
  0
VERTEX
  5
8F
  8
THROUGH_CUT
 10
3.095
 20
39.65873886735448
 30
0.0
 42
-1.0
  0
VERTEX
  5
90
  8
THROUGH_CUT
 10
3.095
 20
39.27873886735448
 30
0.0
  0
VERTEX
  5
91
  8
THROUGH_CUT
 10
2.7
 20
39.27873886735448
 30
0.0
  0
VERTEX
  5
92
  8
THROUGH_CUT
 10
2.7
 20
31.72123986735448
 30
0.0
 42
-1.0
  0
VERTEX
  5
93
  8
THROUGH_CUT
 10
2.7
 20
31.34123986735447
 30
0.0
  0
VERTEX
  5
94
  8
THROUGH_CUT
 10
2.325
 20
31.34123986735447
 30
0.0
  0
VERTEX
  5
95
  8
THROUGH_CUT
 10
2.325
 20
24.52873986735447
 30
0.0
  0
VERTEX
  5
96
  8
THROUGH_CUT
 10
3.075
 20
24.52873986735447
 30
0.0
 42
-1.0
  0
VERTEX
  5
97
  8
THROUGH_CUT
 10
3.075
 20
24.14873986735447
 30
0.0
  0
VERTEX
  5
98
  8
THROUGH_CUT
 10
3.075
 20
17.90873986735447
 30
0.0
 42
-1.0
  0
VERTEX
  5
99
  8
THROUGH_CUT
 10
3.075
 20
17.52873986735447
 30
0.0
  0
VERTEX
  5
9A
  8
THROUGH_CUT
 10
2.325
 20
17.52873986735447
 30
0.0
  0
SEQEND
  5
9B
  8
THROUGH_CUT
  0
POLYLINE
  5
42
  8
THROUGH_CUT
 66
     1
 10
0.0
 20
0.0
 30
0.0
 70
     1
  0
VERTEX
  5
9C
  8
THROUGH_CUT
 10
85.92291820191599
 20
44.31099115696389
 30
0.0
  0
VERTEX
  5
9D
  8
THROUGH_CUT
 10
85.92291820191599
 20
42.6909911569639
 30
0.0
 42
0.4142135623716807
  0
VERTEX
  5
9E
  8
THROUGH_CUT
 10
86.17291820191599
 20
42.4409911569639
 30
0.0
  0
VERTEX
  5
9F
  8
THROUGH_CUT
 10
87.42291820191599
 20
42.44099115696388
 30
0.0
 42
0.4142135623717232
  0
VERTEX
  5
A0
  8
THROUGH_CUT
 10
87.92291820191599
 20
42.94099115696388
 30
0.0
  0
VERTEX
  5
A1
  8
THROUGH_CUT
 10
87.92291820191599
 20
45.6909911569639
 30
0.0
 42
0.4142135623737256
  0
VERTEX
  5
A2
  8
THROUGH_CUT
 10
87.42291820191599
 20
46.1909911569639
 30
0.0
  0
VERTEX
  5
A3
  8
THROUGH_CUT
 10
6.422918201915987
 20
46.1909911569639
 30
0.0
 42
0.4142135623731065
  0
VERTEX
  5
A4
  8
THROUGH_CUT
 10
5.922918201915987
 20
45.6909911569639
 30
0.0
  0
VERTEX
  5
A5
  8
THROUGH_CUT
 10
5.922918201915987
 20
42.9409911569639
 30
0.0
 42
0.4142135623730956
  0
VERTEX
  5
A6
  8
THROUGH_CUT
 10
6.422918201915987
 20
42.4409911569639
 30
0.0
  0
VERTEX
  5
A7
  8
THROUGH_CUT
 10
7.672918201915984
 20
42.4409911569639
 30
0.0
 42
0.414213562373102
  0
VERTEX
  5
A8
  8
THROUGH_CUT
 10
7.922918201915984
 20
42.6909911569639
 30
0.0
  0
VERTEX
  5
A9
  8
THROUGH_CUT
 10
7.922918201915984
 20
44.31099115696389
 30
0.0
 42
-1.0
  0
VERTEX
  5
AA
  8
THROUGH_CUT
 10
7.922918201915984
 20
44.6909911569639
 30
0.0
  0
VERTEX
  5
AB
  8
THROUGH_CUT
 10
10.92291820191598
 20
44.6909911569639
 30
0.0
 42
-1.0
  0
VERTEX
  5
AC
  8
THROUGH_CUT
 10
10.92291820191598
 20
44.31099115696389
 30
0.0
  0
VERTEX
  5
AD
  8
THROUGH_CUT
 10
10.92291820191598
 20
42.6909911569639
 30
0.0
 42
0.4142135623730159
  0
VERTEX
  5
AE
  8
THROUGH_CUT
 10
11.17291820191598
 20
42.4409911569639
 30
0.0
  0
VERTEX
  5
AF
  8
THROUGH_CUT
 10
82.67291820191599
 20
42.4409911569639
 30
0.0
 42
0.4142135623686123
  0
VERTEX
  5
B0
  8
THROUGH_CUT
 10
82.92291820191599
 20
42.6909911569639
 30
0.0
  0
VERTEX
  5
B1
  8
THROUGH_CUT
 10
82.92291820191599
 20
44.31099115696389
 30
0.0
 42
-1.0
  0
VERTEX
  5
B2
  8
THROUGH_CUT
 10
82.92291820191599
 20
44.6909911569639
 30
0.0
  0
VERTEX
  5
B3
  8
THROUGH_CUT
 10
85.92291820191599
 20
44.6909911569639
 30
0.0
 42
-1.0
  0
SEQEND
  5
B4
  8
THROUGH_CUT
  0
POLYLINE
  5
44
  8
RECESS_FOR_SCREWS
 66
     1
 10
0.0
 20
0.0
 30
0.0
 70
     1
  0
VERTEX
  5
B5
  8
RECESS_FOR_SCREWS
 10
24.70000000000001
 20
34.91623886735449
 30
0.0
 42
0.4142135623730951
  0
VERTEX
  5
B6
  8
RECESS_FOR_SCREWS
 10
24.5
 20
34.71623886735448
 30
0.0
 42
0.4142135623730951
  0
VERTEX
  5
B7
  8
RECESS_FOR_SCREWS
 10
24.70000000000001
 20
34.51623886735447
 30
0.0
 42
0.4142135623730951
  0
VERTEX
  5
B8
  8
RECESS_FOR_SCREWS
 10
24.90000000000001
 20
34.71623886735448
 30
0.0
 42
0.4142135623730951
  0
SEQEND
  5
B9
  8
RECESS_FOR_SCREWS
  0
POLYLINE
  5
45
  8
RECESS_FOR_SCREWS
 66
     1
 10
0.0
 20
0.0
 30
0.0
 70
     1
  0
VERTEX
  5
BA
  8
RECESS_FOR_SCREWS
 10
24.70000000000001
 20
25.79123886735447
 30
0.0
 42
0.4142135623730951
  0
VERTEX
  5
BB
  8
RECESS_FOR_SCREWS
 10
24.50000000000001
 20
25.59123886735447
 30
0.0
 42
0.4142135623730951
  0
VERTEX
  5
BC
  8
RECESS_FOR_SCREWS
 10
24.70000000000001
 20
25.39123886735447
 30
0.0
 42
0.4142135623730951
  0
VERTEX
  5
BD
  8
RECESS_FOR_SCREWS
 10
24.90000000000001
 20
25.59123886735447
 30
0.0
 42
0.4142135623730951
  0
SEQEND
  5
BE
  8
RECESS_FOR_SCREWS
  0
POLYLINE
  5
46
  8
RECESS_FOR_SCREWS
 66
     1
 10
0.0
 20
0.0
 30
0.0
 70
     1
  0
VERTEX
  5
BF
  8
RECESS_FOR_SCREWS
 10
24.70000000000001
 20
16.66623886735447
 30
0.0
 42
0.4142135623730951
  0
VERTEX
  5
C0
  8
RECESS_FOR_SCREWS
 10
24.50000000000001
 20
16.46623886735446
 30
0.0
 42
0.4142135623730951
  0
VERTEX
  5
C1
  8
RECESS_FOR_SCREWS
 10
24.70000000000001
 20
16.26623886735446
 30
0.0
 42
0.4142135623730951
  0
VERTEX
  5
C2
  8
RECESS_FOR_SCREWS
 10
24.90000000000001
 20
16.46623886735446
 30
0.0
 42
0.4142135623730951
  0
SEQEND
  5
C3
  8
RECESS_FOR_SCREWS
  0
POLYLINE
  5
47
  8
RECESS_FOR_SCREWS
 66
     1
 10
0.0
 20
0.0
 30
0.0
 70
     1
  0
VERTEX
  5
C4
  8
RECESS_FOR_SCREWS
 10
24.70000000000001
 20
7.541238867354446
 30
0.0
 42
0.4142135623730951
  0
VERTEX
  5
C5
  8
RECESS_FOR_SCREWS
 10
24.50000000000001
 20
7.341238867354447
 30
0.0
 42
0.4142135623730951
  0
VERTEX
  5
C6
  8
RECESS_FOR_SCREWS
 10
24.70000000000001
 20
7.141238867354447
 30
0.0
 42
0.4142135623730951
  0
VERTEX
  5
C7
  8
RECESS_FOR_SCREWS
 10
24.90000000000001
 20
7.341238867354447
 30
0.0
 42
0.4142135623730951
  0
SEQEND
  5
C8
  8
RECESS_FOR_SCREWS
  0
POLYLINE
  5
48
  8
RECESS_FOR_SCREWS
 66
     1
 10
0.0
 20
0.0
 30
0.0
 70
     1
  0
VERTEX
  5
C9
  8
RECESS_FOR_SCREWS
 10
46.70000000000001
 20
7.529983906438016
 30
0.0
 42
0.4142135623730951
  0
VERTEX
  5
CA
  8
RECESS_FOR_SCREWS
 10
46.50000000000001
 20
7.329983906438017
 30
0.0
 42
0.4142135623730951
  0
VERTEX
  5
CB
  8
RECESS_FOR_SCREWS
 10
46.70000000000001
 20
7.129983906438017
 30
0.0
 42
0.4142135623730951
  0
VERTEX
  5
CC
  8
RECESS_FOR_SCREWS
 10
46.90000000000001
 20
7.329983906438017
 30
0.0
 42
0.4142135623730951
  0
SEQEND
  5
CD
  8
RECESS_FOR_SCREWS
  0
POLYLINE
  5
49
  8
RECESS_FOR_SCREWS
 66
     1
 10
0.0
 20
0.0
 30
0.0
 70
     1
  0
VERTEX
  5
CE
  8
RECESS_FOR_SCREWS
 10
46.70000000000001
 20
16.65819960955702
 30
0.0
 42
0.4142135623730951
  0
VERTEX
  5
CF
  8
RECESS_FOR_SCREWS
 10
46.50000000000001
 20
16.45819960955702
 30
0.0
 42
0.4142135623730951
  0
VERTEX
  5
D0
  8
RECESS_FOR_SCREWS
 10
46.70000000000001
 20
16.25819960955702
 30
0.0
 42
0.4142135623730951
  0
VERTEX
  5
D1
  8
RECESS_FOR_SCREWS
 10
46.90000000000001
 20
16.45819960955702
 30
0.0
 42
0.4142135623730951
  0
SEQEND
  5
D2
  8
RECESS_FOR_SCREWS
  0
POLYLINE
  5
4A
  8
RECESS_FOR_SCREWS
 66
     1
 10
0.0
 20
0.0
 30
0.0
 70
     1
  0
VERTEX
  5
D3
  8
RECESS_FOR_SCREWS
 10
46.70000000000001
 20
25.78641531267601
 30
0.0
 42
0.4142135623730951
  0
VERTEX
  5
D4
  8
RECESS_FOR_SCREWS
 10
46.50000000000001
 20
25.586415312676
 30
0.0
 42
0.4142135623730951
  0
VERTEX
  5
D5
  8
RECESS_FOR_SCREWS
 10
46.70000000000001
 20
25.386415312676
 30
0.0
 42
0.4142135623730951
  0
VERTEX
  5
D6
  8
RECESS_FOR_SCREWS
 10
46.90000000000001
 20
25.586415312676
 30
0.0
 42
0.4142135623730951
  0
SEQEND
  5
D7
  8
RECESS_FOR_SCREWS
  0
POLYLINE
  5
4B
  8
RECESS_FOR_SCREWS
 66
     1
 10
0.0
 20
0.0
 30
0.0
 70
     1
  0
VERTEX
  5
D8
  8
RECESS_FOR_SCREWS
 10
46.70000000000001
 20
34.91463101579498
 30
0.0
 42
0.4142135623730951
  0
VERTEX
  5
D9
  8
RECESS_FOR_SCREWS
 10
46.50000000000001
 20
34.71463101579499
 30
0.0
 42
0.4142135623730951
  0
VERTEX
  5
DA
  8
RECESS_FOR_SCREWS
 10
46.70000000000001
 20
34.51463101579498
 30
0.0
 42
0.4142135623730951
  0
VERTEX
  5
DB
  8
RECESS_FOR_SCREWS
 10
46.90000000000001
 20
34.71463101579499
 30
0.0
 42
0.4142135623730951
  0
SEQEND
  5
DC
  8
RECESS_FOR_SCREWS
  0
POLYLINE
  5
4C
  8
RECESS_FOR_SCREWS
 66
     1
 10
0.0
 20
0.0
 30
0.0
 70
     1
  0
VERTEX
  5
DD
  8
RECESS_FOR_SCREWS
 10
68.7
 20
34.91623886735449
 30
0.0
 42
0.4142135623730951
  0
VERTEX
  5
DE
  8
RECESS_FOR_SCREWS
 10
68.5
 20
34.71623886735448
 30
0.0
 42
0.4142135623730951
  0
VERTEX
  5
DF
  8
RECESS_FOR_SCREWS
 10
68.7
 20
34.51623886735447
 30
0.0
 42
0.4142135623730951
  0
VERTEX
  5
E0
  8
RECESS_FOR_SCREWS
 10
68.9
 20
34.71623886735448
 30
0.0
 42
0.4142135623730951
  0
SEQEND
  5
E1
  8
RECESS_FOR_SCREWS
  0
POLYLINE
  5
4D
  8
RECESS_FOR_SCREWS
 66
     1
 10
0.0
 20
0.0
 30
0.0
 70
     1
  0
VERTEX
  5
E2
  8
RECESS_FOR_SCREWS
 10
68.7
 20
25.79123886735448
 30
0.0
 42
0.4142135623730951
  0
VERTEX
  5
E3
  8
RECESS_FOR_SCREWS
 10
68.5
 20
25.59123886735447
 30
0.0
 42
0.4142135623730951
  0
VERTEX
  5
E4
  8
RECESS_FOR_SCREWS
 10
68.7
 20
25.39123886735447
 30
0.0
 42
0.4142135623730951
  0
VERTEX
  5
E5
  8
RECESS_FOR_SCREWS
 10
68.9
 20
25.59123886735447
 30
0.0
 42
0.4142135623730951
  0
SEQEND
  5
E6
  8
RECESS_FOR_SCREWS
  0
POLYLINE
  5
4E
  8
RECESS_FOR_SCREWS
 66
     1
 10
0.0
 20
0.0
 30
0.0
 70
     1
  0
VERTEX
  5
E7
  8
RECESS_FOR_SCREWS
 10
68.7
 20
16.66623886735447
 30
0.0
 42
0.4142135623730951
  0
VERTEX
  5
E8
  8
RECESS_FOR_SCREWS
 10
68.5
 20
16.46623886735446
 30
0.0
 42
0.4142135623730951
  0
VERTEX
  5
E9
  8
RECESS_FOR_SCREWS
 10
68.7
 20
16.26623886735446
 30
0.0
 42
0.4142135623730951
  0
VERTEX
  5
EA
  8
RECESS_FOR_SCREWS
 10
68.9
 20
16.46623886735446
 30
0.0
 42
0.4142135623730951
  0
SEQEND
  5
EB
  8
RECESS_FOR_SCREWS
  0
POLYLINE
  5
4F
  8
RECESS_FOR_SCREWS
 66
     1
 10
0.0
 20
0.0
 30
0.0
 70
     1
  0
VERTEX
  5
EC
  8
RECESS_FOR_SCREWS
 10
68.7
 20
7.541238867354446
 30
0.0
 42
0.4142135623730951
  0
VERTEX
  5
ED
  8
RECESS_FOR_SCREWS
 10
68.5
 20
7.341238867354447
 30
0.0
 42
0.4142135623730951
  0
VERTEX
  5
EE
  8
RECESS_FOR_SCREWS
 10
68.7
 20
7.141238867354447
 30
0.0
 42
0.4142135623730951
  0
VERTEX
  5
EF
  8
RECESS_FOR_SCREWS
 10
68.9
 20
7.341238867354447
 30
0.0
 42
0.4142135623730951
  0
SEQEND
  5
F0
  8
RECESS_FOR_SCREWS
  0
POLYLINE
  5
50
  8
RECESS_FOR_SCREWS
 66
     1
 10
0.0
 20
0.0
 30
0.0
 70
     1
  0
VERTEX
  5
F1
  8
RECESS_FOR_SCREWS
 10
2.700000000000002
 20
14.32275007732447
 30
0.0
 42
0.4142135623730951
  0
VERTEX
  5
F2
  8
RECESS_FOR_SCREWS
 10
2.500000000000003
 20
14.12275007732447
 30
0.0
 42
0.4142135623730951
  0
VERTEX
  5
F3
  8
RECESS_FOR_SCREWS
 10
2.700000000000002
 20
13.92275007732447
 30
0.0
 42
0.4142135623730951
  0
VERTEX
  5
F4
  8
RECESS_FOR_SCREWS
 10
2.900000000000002
 20
14.12275007732447
 30
0.0
 42
0.4142135623730951
  0
SEQEND
  5
F5
  8
RECESS_FOR_SCREWS
  0
POLYLINE
  5
51
  8
RECESS_FOR_SCREWS
 66
     1
 10
0.0
 20
0.0
 30
0.0
 70
     1
  0
VERTEX
  5
F6
  8
RECESS_FOR_SCREWS
 10
2.700000000000002
 20
28.13498986735447
 30
0.0
 42
0.4142135623730951
  0
VERTEX
  5
F7
  8
RECESS_FOR_SCREWS
 10
2.500000000000003
 20
27.93498986735447
 30
0.0
 42
0.4142135623730951
  0
VERTEX
  5
F8
  8
RECESS_FOR_SCREWS
 10
2.700000000000002
 20
27.73498986735448
 30
0.0
 42
0.4142135623730951
  0
VERTEX
  5
F9
  8
RECESS_FOR_SCREWS
 10
2.900000000000002
 20
27.93498986735447
 30
0.0
 42
0.4142135623730951
  0
SEQEND
  5
FA
  8
RECESS_FOR_SCREWS
  0
POLYLINE
  5
52
  8
RECESS_FOR_SCREWS
 66
     1
 10
0.0
 20
0.0
 30
0.0
 70
     1
  0
VERTEX
  5
FB
  8
RECESS_FOR_SCREWS
 10
90.7
 20
34.91623886735449
 30
0.0
 42
0.4142135623730951
  0
VERTEX
  5
FC
  8
RECESS_FOR_SCREWS
 10
90.5
 20
34.71623886735448
 30
0.0
 42
0.4142135623730951
  0
VERTEX
  5
FD
  8
RECESS_FOR_SCREWS
 10
90.7
 20
34.51623886735447
 30
0.0
 42
0.4142135623730951
  0
VERTEX
  5
FE
  8
RECESS_FOR_SCREWS
 10
90.9
 20
34.71623886735448
 30
0.0
 42
0.4142135623730951
  0
SEQEND
  5
FF
  8
RECESS_FOR_SCREWS
  0
POLYLINE
  5
53
  8
RECESS_FOR_SCREWS
 66
     1
 10
0.0
 20
0.0
 30
0.0
 70
     1
  0
VERTEX
  5
100
  8
RECESS_FOR_SCREWS
 10
90.7
 20
25.79123886735448
 30
0.0
 42
0.4142135623730951
  0
VERTEX
  5
101
  8
RECESS_FOR_SCREWS
 10
90.5
 20
25.59123886735447
 30
0.0
 42
0.4142135623730951
  0
VERTEX
  5
102
  8
RECESS_FOR_SCREWS
 10
90.7
 20
25.39123886735447
 30
0.0
 42
0.4142135623730951
  0
VERTEX
  5
103
  8
RECESS_FOR_SCREWS
 10
90.9
 20
25.59123886735447
 30
0.0
 42
0.4142135623730951
  0
SEQEND
  5
104
  8
RECESS_FOR_SCREWS
  0
POLYLINE
  5
54
  8
RECESS_FOR_SCREWS
 66
     1
 10
0.0
 20
0.0
 30
0.0
 70
     1
  0
VERTEX
  5
105
  8
RECESS_FOR_SCREWS
 10
90.7
 20
16.66623886735447
 30
0.0
 42
0.4142135623730951
  0
VERTEX
  5
106
  8
RECESS_FOR_SCREWS
 10
90.5
 20
16.46623886735446
 30
0.0
 42
0.4142135623730951
  0
VERTEX
  5
107
  8
RECESS_FOR_SCREWS
 10
90.7
 20
16.26623886735446
 30
0.0
 42
0.4142135623730951
  0
VERTEX
  5
108
  8
RECESS_FOR_SCREWS
 10
90.9
 20
16.46623886735446
 30
0.0
 42
0.4142135623730951
  0
SEQEND
  5
109
  8
RECESS_FOR_SCREWS
  0
POLYLINE
  5
55
  8
RECESS_FOR_SCREWS
 66
     1
 10
0.0
 20
0.0
 30
0.0
 70
     1
  0
VERTEX
  5
10A
  8
RECESS_FOR_SCREWS
 10
90.7
 20
7.541238867354446
 30
0.0
 42
0.4142135623730951
  0
VERTEX
  5
10B
  8
RECESS_FOR_SCREWS
 10
90.5
 20
7.341238867354447
 30
0.0
 42
0.4142135623730951
  0
VERTEX
  5
10C
  8
RECESS_FOR_SCREWS
 10
90.7
 20
7.141238867354447
 30
0.0
 42
0.4142135623730951
  0
VERTEX
  5
10D
  8
RECESS_FOR_SCREWS
 10
90.9
 20
7.341238867354447
 30
0.0
 42
0.4142135623730951
  0
SEQEND
  5
10E
  8
RECESS_FOR_SCREWS
  0
ENDSEC
  0
EOF
