  0
SECTION
  2
HEADER
  9
$ACADVER
  1
AC1009
  9
$DWGCODEPAGE
  3
ansi_1252
  9
$INSBASE
 10
0.0
 20
0.0
 30
0.0
  9
$EXTMIN
 10
1.904500241887781
 20
2.306533294542675
 30
0.0
  9
$EXTMAX
 10
93.97943490918074
 20
45.69346670545733
 30
0.0
  9
$LIMMIN
 10
0.0
 20
0.0
  9
$LIMMAX
 10
12.0
 20
9.0
  9
$ORTHOMODE
 70
     0
  9
$REGENMODE
 70
     1
  9
$FILLMODE
 70
     1
  9
$QTEXTMODE
 70
     0
  9
$MIRRTEXT
 70
     1
  9
$DRAGMODE
 70
     2
  9
$LTSCALE
 40
1.0
  9
$OSMODE
 70
    37
  9
$ATTMODE
 70
     1
  9
$TEXTSIZE
 40
0.2
  9
$TRACEWID
 40
0.05
  9
$TEXTSTYLE
  7
STANDARD
  9
$CLAYER
  8
0
  9
$CELTYPE
  6
BYLAYER
  9
$CECOLOR
 62
   256
  9
$DIMSCALE
 40
1.0
  9
$DIMASZ
 40
0.18
  9
$DIMEXO
 40
0.0625
  9
$DIMDLI
 40
0.38
  9
$DIMRND
 40
0.0
  9
$DIMDLE
 40
0.0
  9
$DIMEXE
 40
0.18
  9
$DIMTP
 40
0.0
  9
$DIMTM
 40
0.0
  9
$DIMTXT
 40
0.18
  9
$DIMCEN
 40
0.09
  9
$DIMTSZ
 40
0.0
  9
$DIMTOL
 70
     0
  9
$DIMLIM
 70
     0
  9
$DIMTIH
 70
     1
  9
$DIMTOH
 70
     1
  9
$DIMSE1
 70
     0
  9
$DIMSE2
 70
     0
  9
$DIMTAD
 70
     0
  9
$DIMZIN
 70
     0
  9
$DIMBLK
  1

  9
$DIMASO
 70
     1
  9
$DIMSHO
 70
     1
  9
$DIMPOST
  1

  9
$DIMAPOST
  1

  9
$DIMALT
 70
     0
  9
$DIMALTD
 70
     2
  9
$DIMALTF
 40
25.4
  9
$DIMLFAC
 40
1.0
  9
$DIMTOFL
 70
     0
  9
$DIMTVP
 40
0.0
  9
$DIMTIX
 70
     0
  9
$DIMSOXD
 70
     0
  9
$DIMSAH
 70
     0
  9
$DIMBLK1
  1

  9
$DIMBLK2
  1

  9
$DIMSTYLE
  2
STANDARD
  9
$DIMCLRD
 70
     0
  9
$DIMCLRE
 70
     0
  9
$DIMCLRT
 70
     0
  9
$DIMTFAC
 40
1.0
  9
$DIMGAP
 40
0.09
  9
$LUNITS
 70
     2
  9
$LUPREC
 70
     4
  9
$SKETCHINC
 40
0.1
  9
$FILLETRAD
 40
0.5
  9
$AUNITS
 70
     0
  9
$AUPREC
 70
     0
  9
$MENU
  1
.
  9
$ELEVATION
 40
0.0
  9
$PELEVATION
 40
0.0
  9
$THICKNESS
 40
0.0
  9
$LIMCHECK
 70
     0
  9
$CHAMFERA
 40
0.5
  9
$CHAMFERB
 40
0.5
  9
$SKPOLY
 70
     0
  9
$TDCREATE
 40
2454910.5
  9
$TDUPDATE
 40
2455901.453199248
  9
$TDINDWG
 40
0.0000000116
  9
$TDUSRTIMER
 40
0.0000000116
  9
$USRTIMER
 70
     1
  9
$ANGBASE
 50
0.0
  9
$ANGDIR
 70
     0
  9
$PDMODE
 70
     0
  9
$PDSIZE
 40
0.0
  9
$PLINEWID
 40
0.0
  9
$COORDS
 70
     1
  9
$SPLFRAME
 70
     0
  9
$SPLINETYPE
 70
     6
  9
$SPLINESEGS
 70
     8
  9
$ATTDIA
 70
     0
  9
$ATTREQ
 70
     1
  9
$HANDLING
 70
     1
  9
$HANDSEED
  5
76
  9
$SURFTAB1
 70
     6
  9
$SURFTAB2
 70
     6
  9
$SURFTYPE
 70
     6
  9
$SURFU
 70
     6
  9
$SURFV
 70
     6
  9
$UCSNAME
  2

  9
$UCSORG
 10
0.0
 20
0.0
 30
0.0
  9
$UCSXDIR
 10
1.0
 20
0.0
 30
0.0
  9
$UCSYDIR
 10
0.0
 20
1.0
 30
0.0
  9
$PUCSNAME
  2

  9
$PUCSORG
 10
0.0
 20
0.0
 30
0.0
  9
$PUCSXDIR
 10
1.0
 20
0.0
 30
0.0
  9
$PUCSYDIR
 10
0.0
 20
1.0
 30
0.0
  9
$USERI1
 70
     0
  9
$USERI2
 70
     0
  9
$USERI3
 70
     0
  9
$USERI4
 70
     0
  9
$USERI5
 70
     0
  9
$USERR1
 40
0.0
  9
$USERR2
 40
0.0
  9
$USERR3
 40
0.0
  9
$USERR4
 40
0.0
  9
$USERR5
 40
0.0
  9
$WORLDVIEW
 70
     1
  9
$SHADEDGE
 70
     3
  9
$SHADEDIF
 70
    70
  9
$TILEMODE
 70
     1
  9
$MAXACTVP
 70
    64
  9
$PLIMCHECK
 70
     0
  9
$PEXTMIN
 10
1.000000000000000E+20
 20
1.000000000000000E+20
 30
1.000000000000000E+20
  9
$PEXTMAX
 10
-1.000000000000000E+20
 20
-1.000000000000000E+20
 30
-1.000000000000000E+20
  9
$PLIMMIN
 10
0.0
 20
0.0
  9
$PLIMMAX
 10
12.0
 20
9.0
  9
$UNITMODE
 70
     0
  9
$VISRETAIN
 70
     1
  9
$PLINEGEN
 70
     0
  9
$PSLTSCALE
 70
     1
  0
ENDSEC
  0
SECTION
  2
TABLES
  0
TABLE
  2
VPORT
 70
     1
  0
VPORT
  2
*ACTIVE
 70
     0
 10
0.0
 20
0.0
 11
1.0
 21
1.0
 12
10.42990654205607
 22
4.5
 13
0.0
 23
0.0
 14
0.5
 24
0.5
 15
0.5
 25
0.5
 16
0.0
 26
0.0
 36
1.0
 17
0.0
 27
0.0
 37
0.0
 40
9.0
 41
1.972972972850329
 42
50.0
 43
0.0
 44
0.0
 50
0.0
 51
0.0
 71
     0
 72
   100
 73
     1
 74
     3
 75
     0
 76
     0
 77
     0
 78
     0
  0
ENDTAB
  0
TABLE
  2
LTYPE
 70
     2
  0
LTYPE
  2
CONTINUOUS
 70
     0
  3
Solid line
 72
    65
 73
     0
 40
0.0
  0
LTYPE
  2
CONTINUOUS2
 70
     0
  3
Solid Line
 72
    65
 73
     0
 40
0.0
  0
ENDTAB
  0
TABLE
  2
LAYER
 70
     2
  0
LAYER
  2
0
 70
     0
 62
     7
  6
CONTINUOUS
  0
LAYER
  2
THROUGH_CUT
 70
     0
 62
    18
  6
CONTINUOUS
  0
ENDTAB
  0
TABLE
  2
STYLE
 70
     1
  0
STYLE
  2
STANDARD
 70
     0
 40
0.0
 41
1.0
 50
0.0
 71
     0
 42
0.2
  3
txt
  4

  0
ENDTAB
  0
TABLE
  2
VIEW
 70
     0
  0
ENDTAB
  0
TABLE
  2
UCS
 70
     0
  0
ENDTAB
  0
TABLE
  2
APPID
 70
     1
  0
APPID
  2
ACAD
 70
     0
  0
ENDTAB
  0
TABLE
  2
DIMSTYLE
 70
     1
  0
DIMSTYLE
  2
STANDARD
 70
     0
  3

  4

  5

  6

  7

 40
1.0
 41
0.18
 42
0.0625
 43
0.38
 44
0.18
 45
0.0
 46
0.0
 47
0.0
 48
0.0
140
0.18
141
0.09
142
0.0
143
25.4
144
1.0
145
0.0
146
1.0
147
0.09
 71
     0
 72
     0
 73
     1
 74
     1
 75
     0
 76
     0
 77
     0
 78
     0
170
     0
171
     2
172
     0
173
     0
174
     0
175
     0
176
     0
177
     0
178
     0
  0
ENDTAB
  0
ENDSEC
  0
SECTION
  2
BLOCKS
  0
BLOCK
  8
0
  2
$MODEL_SPACE
 70
     0
 10
0.0
 20
0.0
 30
0.0
  3
$MODEL_SPACE
  1

  0
ENDBLK
  5
21
  8
0
  0
BLOCK
 67
     1
  8
0
  2
$PAPER_SPACE
 70
     0
 10
0.0
 20
0.0
 30
0.0
  3
$PAPER_SPACE
  1

  0
ENDBLK
  5
1D
 67
     1
  8
0
  0
ENDSEC
  0
SECTION
  2
ENTITIES
  0
POLYLINE
  5
41
  8
THROUGH_CUT
 66
     1
 10
0.0
 20
0.0
 30
0.0
 70
     1
  0
VERTEX
  5
4C
  8
THROUGH_CUT
 10
36.13799881080728
 20
41.22720776622234
 30
0.0
 42
0.6590215623973902
  0
VERTEX
  5
4D
  8
THROUGH_CUT
 10
34.36209684131721
 20
45.36500889518626
 30
0.0
  0
VERTEX
  5
4E
  8
THROUGH_CUT
 10
4.986559823333073
 20
45.36500889518628
 30
0.0
 42
0.4142135623730841
  0
VERTEX
  5
4F
  8
THROUGH_CUT
 10
2.536559823333086
 20
42.91500889518625
 30
0.0
  0
VERTEX
  5
50
  8
THROUGH_CUT
 10
2.536559823333087
 20
32.381999902465
 30
0.0
 42
0.4586196939095546
  0
VERTEX
  5
51
  8
THROUGH_CUT
 10
8.796682664578238
 20
26.99254707367971
 30
0.0
 42
0.1669323781031488
  0
SEQEND
  5
52
  8
THROUGH_CUT
  0
POLYLINE
  5
42
  8
THROUGH_CUT
 66
     1
 10
0.0
 20
0.0
 30
0.0
 70
     1
  0
VERTEX
  5
53
  8
THROUGH_CUT
 10
35.50593922936197
 20
17.6463066966113
 30
0.0
 42
0.6590215623973902
  0
VERTEX
  5
54
  8
THROUGH_CUT
 10
33.73003725987191
 20
21.78410782557522
 30
0.0
  0
VERTEX
  5
55
  8
THROUGH_CUT
 10
4.354500241887784
 20
21.78410782557523
 30
0.0
 42
0.4142135623730841
  0
VERTEX
  5
56
  8
THROUGH_CUT
 10
1.904500241887781
 20
19.3341078255752
 30
0.0
  0
VERTEX
  5
57
  8
THROUGH_CUT
 10
1.904500241887796
 20
8.801098832853938
 30
0.0
 42
0.4586196939095546
  0
VERTEX
  5
58
  8
THROUGH_CUT
 10
8.164623083132952
 20
3.411646004068654
 30
0.0
 42
0.1669323781031488
  0
SEQEND
  5
59
  8
THROUGH_CUT
  0
POLYLINE
  5
43
  8
THROUGH_CUT
 66
     1
 10
0.0
 20
0.0
 30
0.0
 70
     1
  0
VERTEX
  5
5A
  8
THROUGH_CUT
 10
72.7627557363627
 20
41.55566557649337
 30
0.0
 42
0.6590215623973902
  0
VERTEX
  5
5B
  8
THROUGH_CUT
 10
70.98685376687261
 20
45.69346670545729
 30
0.0
  0
VERTEX
  5
5C
  8
THROUGH_CUT
 10
41.61131674888848
 20
45.69346670545733
 30
0.0
 42
0.4142135623730841
  0
VERTEX
  5
5D
  8
THROUGH_CUT
 10
39.16131674888848
 20
43.24346670545727
 30
0.0
  0
VERTEX
  5
5E
  8
THROUGH_CUT
 10
39.1613167488885
 20
32.71045771273605
 30
0.0
 42
0.4586196939095546
  0
VERTEX
  5
5F
  8
THROUGH_CUT
 10
45.42143959013366
 20
27.32100488395074
 30
0.0
 42
0.1669323781031488
  0
SEQEND
  5
60
  8
THROUGH_CUT
  0
POLYLINE
  5
44
  8
THROUGH_CUT
 66
     1
 10
0.0
 20
0.0
 30
0.0
 70
     1
  0
VERTEX
  5
61
  8
THROUGH_CUT
 10
71.25391270025362
 20
18.45876063913156
 30
0.0
 42
0.6590215623973902
  0
VERTEX
  5
62
  8
THROUGH_CUT
 10
69.47801073076356
 20
22.59656176809549
 30
0.0
  0
VERTEX
  5
63
  8
THROUGH_CUT
 10
40.10247371277944
 20
22.5965617680955
 30
0.0
 42
0.4142135623730841
  0
VERTEX
  5
64
  8
THROUGH_CUT
 10
37.65247371277945
 20
20.14656176809546
 30
0.0
  0
VERTEX
  5
65
  8
THROUGH_CUT
 10
37.65247371277945
 20
9.61355277537422
 30
0.0
 42
0.4586196939095546
  0
VERTEX
  5
66
  8
THROUGH_CUT
 10
43.9125965540246
 20
4.224099946588922
 30
0.0
 42
0.1669323781031488
  0
SEQEND
  5
67
  8
THROUGH_CUT
  0
POLYLINE
  5
45
  8
THROUGH_CUT
 66
     1
 10
0.0
 20
0.0
 30
0.0
 70
     1
  0
VERTEX
  5
68
  8
THROUGH_CUT
 10
60.31996349724085
 20
28.83788637634376
 30
0.0
 42
0.6590215623973902
  0
VERTEX
  5
69
  8
THROUGH_CUT
 10
62.09586546673091
 20
24.70008524737983
 30
0.0
  0
VERTEX
  5
6A
  8
THROUGH_CUT
 10
91.47140248471503
 20
24.70008524737981
 30
0.0
 42
0.4142135623730841
  0
VERTEX
  5
6B
  8
THROUGH_CUT
 10
93.92140248471502
 20
27.15008524737986
 30
0.0
  0
VERTEX
  5
6C
  8
THROUGH_CUT
 10
93.92140248471502
 20
37.6830942401011
 30
0.0
 42
0.4586196939095546
  0
VERTEX
  5
6D
  8
THROUGH_CUT
 10
87.66127964346988
 20
43.07254706888639
 30
0.0
 42
0.1669323781031488
  0
SEQEND
  5
6E
  8
THROUGH_CUT
  0
POLYLINE
  5
46
  8
THROUGH_CUT
 66
     1
 10
0.0
 20
0.0
 30
0.0
 70
     1
  0
VERTEX
  5
6F
  8
THROUGH_CUT
 10
60.37799592170657
 20
6.444334423506625
 30
0.0
 42
0.6590215623973902
  0
VERTEX
  5
70
  8
THROUGH_CUT
 10
62.15389789119664
 20
2.306533294542696
 30
0.0
  0
VERTEX
  5
71
  8
THROUGH_CUT
 10
91.52943490918075
 20
2.306533294542675
 30
0.0
 42
0.4142135623730841
  0
VERTEX
  5
72
  8
THROUGH_CUT
 10
93.97943490918074
 20
4.75653329454272
 30
0.0
  0
VERTEX
  5
73
  8
THROUGH_CUT
 10
93.97943490918074
 20
15.28954228726396
 30
0.0
 42
0.4586196939095546
  0
VERTEX
  5
74
  8
THROUGH_CUT
 10
87.7193120679356
 20
20.67899511604926
 30
0.0
 42
0.1669323781031488
  0
SEQEND
  5
75
  8
THROUGH_CUT
  0
ENDSEC
  0
EOF
