  0
SECTION
  2
HEADER
  9
$ACADVER
  1
AC1009
  9
$DWGCODEPAGE
  3
ansi_1252
  9
$INSBASE
 10
0.0
 20
0.0
 30
0.0
  9
$EXTMIN
 10
1.316221144112499
 20
1.638146821552077
 30
0.0
  9
$EXTMAX
 10
95.00546078813557
 20
46.53155082820448
 30
0.0
  9
$LIMMIN
 10
0.0
 20
0.0
  9
$LIMMAX
 10
12.0
 20
9.0
  9
$ORTHOMODE
 70
     0
  9
$REGENMODE
 70
     1
  9
$FILLMODE
 70
     1
  9
$QTEXTMODE
 70
     0
  9
$MIRRTEXT
 70
     1
  9
$DRAGMODE
 70
     2
  9
$LTSCALE
 40
1.0
  9
$OSMODE
 70
    37
  9
$ATTMODE
 70
     1
  9
$TEXTSIZE
 40
0.2
  9
$TRACEWID
 40
0.05
  9
$TEXTSTYLE
  7
STANDARD
  9
$CLAYER
  8
0
  9
$CELTYPE
  6
BYLAYER
  9
$CECOLOR
 62
   256
  9
$DIMSCALE
 40
1.0
  9
$DIMASZ
 40
0.18
  9
$DIMEXO
 40
0.0625
  9
$DIMDLI
 40
0.38
  9
$DIMRND
 40
0.0
  9
$DIMDLE
 40
0.0
  9
$DIMEXE
 40
0.18
  9
$DIMTP
 40
0.0
  9
$DIMTM
 40
0.0
  9
$DIMTXT
 40
0.18
  9
$DIMCEN
 40
0.09
  9
$DIMTSZ
 40
0.0
  9
$DIMTOL
 70
     0
  9
$DIMLIM
 70
     0
  9
$DIMTIH
 70
     1
  9
$DIMTOH
 70
     1
  9
$DIMSE1
 70
     0
  9
$DIMSE2
 70
     0
  9
$DIMTAD
 70
     0
  9
$DIMZIN
 70
     0
  9
$DIMBLK
  1

  9
$DIMASO
 70
     1
  9
$DIMSHO
 70
     1
  9
$DIMPOST
  1

  9
$DIMAPOST
  1

  9
$DIMALT
 70
     0
  9
$DIMALTD
 70
     2
  9
$DIMALTF
 40
25.4
  9
$DIMLFAC
 40
1.0
  9
$DIMTOFL
 70
     0
  9
$DIMTVP
 40
0.0
  9
$DIMTIX
 70
     0
  9
$DIMSOXD
 70
     0
  9
$DIMSAH
 70
     0
  9
$DIMBLK1
  1

  9
$DIMBLK2
  1

  9
$DIMSTYLE
  2
STANDARD
  9
$DIMCLRD
 70
     0
  9
$DIMCLRE
 70
     0
  9
$DIMCLRT
 70
     0
  9
$DIMTFAC
 40
1.0
  9
$DIMGAP
 40
0.09
  9
$LUNITS
 70
     2
  9
$LUPREC
 70
     4
  9
$SKETCHINC
 40
0.1
  9
$FILLETRAD
 40
0.5
  9
$AUNITS
 70
     0
  9
$AUPREC
 70
     0
  9
$MENU
  1
.
  9
$ELEVATION
 40
0.0
  9
$PELEVATION
 40
0.0
  9
$THICKNESS
 40
0.0
  9
$LIMCHECK
 70
     0
  9
$CHAMFERA
 40
0.5
  9
$CHAMFERB
 40
0.5
  9
$SKPOLY
 70
     0
  9
$TDCREATE
 40
2454910.5
  9
$TDUPDATE
 40
2455901.450711412
  9
$TDINDWG
 40
0.0000000116
  9
$TDUSRTIMER
 40
0.0000000116
  9
$USRTIMER
 70
     1
  9
$ANGBASE
 50
0.0
  9
$ANGDIR
 70
     0
  9
$PDMODE
 70
     0
  9
$PDSIZE
 40
0.0
  9
$PLINEWID
 40
0.0
  9
$COORDS
 70
     1
  9
$SPLFRAME
 70
     0
  9
$SPLINETYPE
 70
     6
  9
$SPLINESEGS
 70
     8
  9
$ATTDIA
 70
     0
  9
$ATTREQ
 70
     1
  9
$HANDLING
 70
     1
  9
$HANDSEED
  5
1D7
  9
$SURFTAB1
 70
     6
  9
$SURFTAB2
 70
     6
  9
$SURFTYPE
 70
     6
  9
$SURFU
 70
     6
  9
$SURFV
 70
     6
  9
$UCSNAME
  2

  9
$UCSORG
 10
0.0
 20
0.0
 30
0.0
  9
$UCSXDIR
 10
1.0
 20
0.0
 30
0.0
  9
$UCSYDIR
 10
0.0
 20
1.0
 30
0.0
  9
$PUCSNAME
  2

  9
$PUCSORG
 10
0.0
 20
0.0
 30
0.0
  9
$PUCSXDIR
 10
1.0
 20
0.0
 30
0.0
  9
$PUCSYDIR
 10
0.0
 20
1.0
 30
0.0
  9
$USERI1
 70
     0
  9
$USERI2
 70
     0
  9
$USERI3
 70
     0
  9
$USERI4
 70
     0
  9
$USERI5
 70
     0
  9
$USERR1
 40
0.0
  9
$USERR2
 40
0.0
  9
$USERR3
 40
0.0
  9
$USERR4
 40
0.0
  9
$USERR5
 40
0.0
  9
$WORLDVIEW
 70
     1
  9
$SHADEDGE
 70
     3
  9
$SHADEDIF
 70
    70
  9
$TILEMODE
 70
     1
  9
$MAXACTVP
 70
    64
  9
$PLIMCHECK
 70
     0
  9
$PEXTMIN
 10
1.000000000000000E+20
 20
1.000000000000000E+20
 30
1.000000000000000E+20
  9
$PEXTMAX
 10
-1.000000000000000E+20
 20
-1.000000000000000E+20
 30
-1.000000000000000E+20
  9
$PLIMMIN
 10
0.0
 20
0.0
  9
$PLIMMAX
 10
12.0
 20
9.0
  9
$UNITMODE
 70
     0
  9
$VISRETAIN
 70
     1
  9
$PLINEGEN
 70
     0
  9
$PSLTSCALE
 70
     1
  0
ENDSEC
  0
SECTION
  2
TABLES
  0
TABLE
  2
VPORT
 70
     1
  0
VPORT
  2
*ACTIVE
 70
     0
 10
0.0
 20
0.0
 11
1.0
 21
1.0
 12
10.42990654205607
 22
4.5
 13
0.0
 23
0.0
 14
0.5
 24
0.5
 15
0.5
 25
0.5
 16
0.0
 26
0.0
 36
1.0
 17
0.0
 27
0.0
 37
0.0
 40
9.0
 41
1.972972972850329
 42
50.0
 43
0.0
 44
0.0
 50
0.0
 51
0.0
 71
     0
 72
   100
 73
     1
 74
     3
 75
     0
 76
     0
 77
     0
 78
     0
  0
ENDTAB
  0
TABLE
  2
LTYPE
 70
     2
  0
LTYPE
  2
CONTINUOUS
 70
     0
  3
Solid line
 72
    65
 73
     0
 40
0.0
  0
LTYPE
  2
CONTINUOUS2
 70
     0
  3
Solid Line
 72
    65
 73
     0
 40
0.0
  0
ENDTAB
  0
TABLE
  2
LAYER
 70
     4
  0
LAYER
  2
0
 70
     0
 62
     7
  6
CONTINUOUS
  0
LAYER
  2
THROUGH_CUT
 70
     0
 62
    18
  6
CONTINUOUS
  0
LAYER
  2
POCKET_FOR_HINGE
 70
     0
 62
     4
  6
CONTINUOUS
  0
LAYER
  2
HINGE_BARREL
 70
     0
 62
     6
  6
CONTINUOUS
  0
ENDTAB
  0
TABLE
  2
STYLE
 70
     1
  0
STYLE
  2
STANDARD
 70
     0
 40
0.0
 41
1.0
 50
0.0
 71
     0
 42
0.2
  3
txt
  4

  0
ENDTAB
  0
TABLE
  2
VIEW
 70
     0
  0
ENDTAB
  0
TABLE
  2
UCS
 70
     0
  0
ENDTAB
  0
TABLE
  2
APPID
 70
     1
  0
APPID
  2
ACAD
 70
     0
  0
ENDTAB
  0
TABLE
  2
DIMSTYLE
 70
     1
  0
DIMSTYLE
  2
STANDARD
 70
     0
  3

  4

  5

  6

  7

 40
1.0
 41
0.18
 42
0.0625
 43
0.38
 44
0.18
 45
0.0
 46
0.0
 47
0.0
 48
0.0
140
0.18
141
0.09
142
0.0
143
25.4
144
1.0
145
0.0
146
1.0
147
0.09
 71
     0
 72
     0
 73
     1
 74
     1
 75
     0
 76
     0
 77
     0
 78
     0
170
     0
171
     2
172
     0
173
     0
174
     0
175
     0
176
     0
177
     0
178
     0
  0
ENDTAB
  0
ENDSEC
  0
SECTION
  2
BLOCKS
  0
BLOCK
  8
0
  2
$MODEL_SPACE
 70
     0
 10
0.0
 20
0.0
 30
0.0
  3
$MODEL_SPACE
  1

  0
ENDBLK
  5
21
  8
0
  0
BLOCK
 67
     1
  8
0
  2
$PAPER_SPACE
 70
     0
 10
0.0
 20
0.0
 30
0.0
  3
$PAPER_SPACE
  1

  0
ENDBLK
  5
1D
 67
     1
  8
0
  0
ENDSEC
  0
SECTION
  2
ENTITIES
  0
POLYLINE
  5
41
  8
THROUGH_CUT
 66
     1
 10
0.0
 20
0.0
 30
0.0
 70
     1
  0
VERTEX
  5
7C
  8
THROUGH_CUT
 10
7.864126978370891
 20
6.047802949552247
 30
0.0
  0
VERTEX
  5
7D
  8
THROUGH_CUT
 10
94.54653715306128
 20
6.047802949552257
 30
0.0
  0
VERTEX
  5
7E
  8
THROUGH_CUT
 10
94.54653763529438
 20
29.86937794955225
 30
0.0
  0
VERTEX
  5
7F
  8
THROUGH_CUT
 10
18.33858163658125
 20
29.8683279495522
 30
0.0
 42
0.2967978226313941
  0
VERTEX
  5
80
  8
THROUGH_CUT
 10
12.04739083064176
 20
25.77316654201231
 30
0.0
 42
0.1042510204534013
  0
SEQEND
  5
81
  8
THROUGH_CUT
  0
POLYLINE
  5
42
  8
THROUGH_CUT
 66
     1
 10
0.0
 20
0.0
 30
0.0
 70
     1
  0
VERTEX
  5
82
  8
THROUGH_CUT
 10
3.000207866773238
 20
4.638146821552077
 30
0.0
 42
0.0165585144650926
  0
VERTEX
  5
83
  8
THROUGH_CUT
 10
3.000207866817149
 20
1.638146821552806
 30
0.0
  0
VERTEX
  5
84
  8
THROUGH_CUT
 10
89.68020786677326
 20
1.638146821552077
 30
0.0
  0
VERTEX
  5
85
  8
THROUGH_CUT
 10
89.68020786677326
 20
4.638146821552077
 30
0.0
  0
SEQEND
  5
86
  8
THROUGH_CUT
  0
POLYLINE
  5
43
  8
THROUGH_CUT
 66
     1
 10
0.0
 20
0.0
 30
0.0
 70
     1
  0
VERTEX
  5
87
  8
THROUGH_CUT
 10
8.376645474161997
 20
4.116692871943905
 30
0.0
 42
0.8237336233316414
  0
VERTEX
  5
88
  8
THROUGH_CUT
 10
8.348948848307824
 20
3.72583096939479
 30
0.0
 42
0.8241469133978572
  0
VERTEX
  5
89
  8
THROUGH_CUT
 10
8.521363722232753
 20
4.077660163725004
 30
0.0
 42
0.0964029187071117
  0
VERTEX
  5
8A
  8
THROUGH_CUT
 10
8.452712864618924
 20
4.111302707183798
 30
0.0
 42
0.0966513828627904
  0
SEQEND
  5
8B
  8
THROUGH_CUT
  0
POLYLINE
  5
44
  8
THROUGH_CUT
 66
     1
 10
0.0
 20
0.0
 30
0.0
 70
     1
  0
VERTEX
  5
8C
  8
THROUGH_CUT
 10
46.30707427858841
 20
4.116692871943911
 30
0.0
 42
0.8237336233316257
  0
VERTEX
  5
8D
  8
THROUGH_CUT
 10
46.27937765273423
 20
3.725830969394794
 30
0.0
 42
0.82414691339788
  0
VERTEX
  5
8E
  8
THROUGH_CUT
 10
46.45179252665917
 20
4.077660163725009
 30
0.0
 42
0.0964029187071066
  0
VERTEX
  5
8F
  8
THROUGH_CUT
 10
46.38314166904534
 20
4.111302707183802
 30
0.0
 42
0.0966513828627712
  0
SEQEND
  5
90
  8
THROUGH_CUT
  0
POLYLINE
  5
45
  8
THROUGH_CUT
 66
     1
 10
0.0
 20
0.0
 30
0.0
 70
     1
  0
VERTEX
  5
91
  8
THROUGH_CUT
 10
84.23750308301483
 20
4.116692871943917
 30
0.0
 42
0.8237336233315831
  0
VERTEX
  5
92
  8
THROUGH_CUT
 10
84.20980645716065
 20
3.725830969394831
 30
0.0
 42
0.8241469133978788
  0
VERTEX
  5
93
  8
THROUGH_CUT
 10
84.38222133108557
 20
4.077660163725016
 30
0.0
 42
0.0964029187071203
  0
VERTEX
  5
94
  8
THROUGH_CUT
 10
84.31357047347174
 20
4.111302707183809
 30
0.0
 42
0.0966513828627235
  0
SEQEND
  5
95
  8
THROUGH_CUT
  0
POLYLINE
  5
46
  8
THROUGH_CUT
 66
     1
 10
0.0
 20
0.0
 30
0.0
 70
     1
  0
VERTEX
  5
96
  8
THROUGH_CUT
 10
13.24297476045002
 20
6.966348999944075
 30
0.0
 42
0.8237336233316406
  0
VERTEX
  5
97
  8
THROUGH_CUT
 10
13.21527813459585
 20
6.575487097394969
 30
0.0
 42
0.8241469133978535
  0
VERTEX
  5
98
  8
THROUGH_CUT
 10
13.38769300852078
 20
6.927316291725174
 30
0.0
 42
0.0964029187071144
  0
VERTEX
  5
99
  8
THROUGH_CUT
 10
13.31904215090695
 20
6.960958835183967
 30
0.0
 42
0.0966513828627781
  0
SEQEND
  5
9A
  8
THROUGH_CUT
  0
POLYLINE
  5
47
  8
THROUGH_CUT
 66
     1
 10
0.0
 20
0.0
 30
0.0
 70
     1
  0
VERTEX
  5
9B
  8
THROUGH_CUT
 10
51.17340356487643
 20
6.966348999944081
 30
0.0
 42
0.8237336233316042
  0
VERTEX
  5
9C
  8
THROUGH_CUT
 10
51.14570693902225
 20
6.575487097394979
 30
0.0
 42
0.8241469133978565
  0
VERTEX
  5
9D
  8
THROUGH_CUT
 10
51.31812181294718
 20
6.927316291725177
 30
0.0
 42
0.0964029187071139
  0
VERTEX
  5
9E
  8
THROUGH_CUT
 10
51.24947095533336
 20
6.960958835183972
 30
0.0
 42
0.09665138286282
  0
SEQEND
  5
9F
  8
THROUGH_CUT
  0
POLYLINE
  5
48
  8
THROUGH_CUT
 66
     1
 10
0.0
 20
0.0
 30
0.0
 70
     1
  0
VERTEX
  5
A0
  8
THROUGH_CUT
 10
89.10383236930285
 20
6.966348999944088
 30
0.0
 42
0.8237336233316411
  0
VERTEX
  5
A1
  8
THROUGH_CUT
 10
89.07613574344867
 20
6.575487097394995
 30
0.0
 42
0.8241469133978591
  0
VERTEX
  5
A2
  8
THROUGH_CUT
 10
89.2485506173736
 20
6.927316291725186
 30
0.0
 42
0.0964029187070884
  0
VERTEX
  5
A3
  8
THROUGH_CUT
 10
89.17989975975976
 20
6.96095883518398
 30
0.0
 42
0.0966513828628164
  0
SEQEND
  5
A4
  8
THROUGH_CUT
  0
POLYLINE
  5
49
  8
THROUGH_CUT
 66
     1
 10
0.0
 20
0.0
 30
0.0
 70
     1
  0
VERTEX
  5
A5
  8
THROUGH_CUT
 10
5.717579963408049
 20
9.558325987320272
 30
0.0
 42
0.8237336233316402
  0
VERTEX
  5
A6
  8
THROUGH_CUT
 10
5.689883337553873
 20
9.16746408477115
 30
0.0
 42
0.8241469133978621
  0
VERTEX
  5
A7
  8
THROUGH_CUT
 10
5.862298211478808
 20
9.519293279101369
 30
0.0
 42
0.0964029187071008
  0
VERTEX
  5
A8
  8
THROUGH_CUT
 10
5.793647353864979
 20
9.552935822560164
 30
0.0
 42
0.0966513828627778
  0
SEQEND
  5
A9
  8
THROUGH_CUT
  0
POLYLINE
  5
4A
  8
THROUGH_CUT
 66
     1
 10
0.0
 20
0.0
 30
0.0
 70
     1
  0
VERTEX
  5
AA
  8
THROUGH_CUT
 10
15.03933681732982
 20
32.77626037026927
 30
0.0
 42
0.8237336233316616
  0
VERTEX
  5
AB
  8
THROUGH_CUT
 10
15.01164019147565
 20
32.38539846772019
 30
0.0
 42
0.8241469133978031
  0
VERTEX
  5
AC
  8
THROUGH_CUT
 10
15.18405506540058
 20
32.73722766205037
 30
0.0
 42
0.0964029187071285
  0
VERTEX
  5
AD
  8
THROUGH_CUT
 10
15.11540420778676
 20
32.77087020550916
 30
0.0
 42
0.0966513828627142
  0
SEQEND
  5
AE
  8
THROUGH_CUT
  0
POLYLINE
  5
4B
  8
THROUGH_CUT
 66
     1
 10
0.0
 20
0.0
 30
0.0
 70
     1
  0
VERTEX
  5
AF
  8
THROUGH_CUT
 10
57.43761705172754
 20
34.65562215335909
 30
0.0
 42
0.8237336233316601
  0
VERTEX
  5
B0
  8
THROUGH_CUT
 10
57.40992042587337
 20
34.26476025080995
 30
0.0
 42
0.8241469133978604
  0
VERTEX
  5
B1
  8
THROUGH_CUT
 10
57.5823352997983
 20
34.61658944514019
 30
0.0
 42
0.0964029187071696
  0
VERTEX
  5
B2
  8
THROUGH_CUT
 10
57.51368444218448
 20
34.65023198859898
 30
0.0
 42
0.0966513828627232
  0
SEQEND
  5
B3
  8
THROUGH_CUT
  0
POLYLINE
  5
4C
  8
THROUGH_CUT
 66
     1
 10
0.0
 20
0.0
 30
0.0
 70
     1
  0
VERTEX
  5
B4
  8
THROUGH_CUT
 10
91.44097853650656
 20
32.93940863893435
 30
0.0
 42
0.8237336233314977
  0
VERTEX
  5
B5
  8
THROUGH_CUT
 10
91.4132819106524
 20
32.54854673638531
 30
0.0
 42
0.8241469133979005
  0
VERTEX
  5
B6
  8
THROUGH_CUT
 10
91.58569678457731
 20
32.90037593071544
 30
0.0
 42
0.0964029187070092
  0
VERTEX
  5
B7
  8
THROUGH_CUT
 10
91.51704592696346
 20
32.93401847417425
 30
0.0
 42
0.0966513828628683
  0
SEQEND
  5
B8
  8
THROUGH_CUT
  0
POLYLINE
  5
4D
  8
THROUGH_CUT
 66
     1
 10
0.0
 20
0.0
 30
0.0
 70
     1
  0
VERTEX
  5
B9
  8
THROUGH_CUT
 10
10.05325038088296
 20
41.67842951244269
 30
0.0
 42
0.974156870922218
  0
VERTEX
  5
BA
  8
THROUGH_CUT
 10
10.27964848404501
 20
41.98346221772917
 30
0.0
 42
0.9741568709211872
  0
VERTEX
  5
BB
  8
THROUGH_CUT
 10
10.03759647329844
 20
41.69069631038456
 30
0.0
 42
0.0130907170856829
  0
VERTEX
  5
BC
  8
THROUGH_CUT
 10
10.04526281838614
 20
41.68435795541562
 30
0.0
 42
0.0130907170844304
  0
SEQEND
  5
BD
  8
THROUGH_CUT
  0
POLYLINE
  5
4E
  8
THROUGH_CUT
 66
     1
 10
0.0
 20
0.0
 30
0.0
 70
     1
  0
VERTEX
  5
BE
  8
THROUGH_CUT
 10
28.67470655693901
 20
38.05541708126964
 30
0.0
 42
0.8237336233316443
  0
VERTEX
  5
BF
  8
THROUGH_CUT
 10
28.64700993108484
 20
37.66455517872054
 30
0.0
 42
0.8241469133978597
  0
VERTEX
  5
C0
  8
THROUGH_CUT
 10
28.81942480500976
 20
38.01638437305074
 30
0.0
 42
0.0964029187071287
  0
VERTEX
  5
C1
  8
THROUGH_CUT
 10
28.75077394739593
 20
38.05002691650953
 30
0.0
 42
0.0966513828627412
  0
SEQEND
  5
C2
  8
THROUGH_CUT
  0
POLYLINE
  5
4F
  8
THROUGH_CUT
 66
     1
 10
0.0
 20
0.0
 30
0.0
 70
     1
  0
VERTEX
  5
C3
  8
THROUGH_CUT
 10
30.4883584288385
 20
40.18824553235712
 30
0.0
  0
VERTEX
  5
C4
  8
THROUGH_CUT
 10
36.4883584288385
 20
40.18824553235712
 30
0.0
  0
VERTEX
  5
C5
  8
THROUGH_CUT
 10
36.4883584288385
 20
46.18824553235712
 30
0.0
  0
VERTEX
  5
C6
  8
THROUGH_CUT
 10
30.4883584288385
 20
46.18824553235712
 30
0.0
  0
SEQEND
  5
C7
  8
THROUGH_CUT
  0
POLYLINE
  5
50
  8
THROUGH_CUT
 66
     1
 10
0.0
 20
0.0
 30
0.0
 70
     1
  0
VERTEX
  5
C8
  8
THROUGH_CUT
 10
33.4883584288385
 20
45.48824553235712
 30
0.0
 42
0.4142135623730951
  0
VERTEX
  5
C9
  8
THROUGH_CUT
 10
33.1133584288385
 20
45.11324553235712
 30
0.0
 42
0.4142135623730951
  0
VERTEX
  5
CA
  8
THROUGH_CUT
 10
33.4883584288385
 20
44.73824553235712
 30
0.0
 42
0.4142135623730951
  0
VERTEX
  5
CB
  8
THROUGH_CUT
 10
33.8633584288385
 20
45.11324553235712
 30
0.0
 42
0.4142135623730951
  0
SEQEND
  5
CC
  8
THROUGH_CUT
  0
POLYLINE
  5
51
  8
THROUGH_CUT
 66
     1
 10
0.0
 20
0.0
 30
0.0
 70
     1
  0
VERTEX
  5
CD
  8
THROUGH_CUT
 10
33.48838376455917
 20
41.6382054249265
 30
0.0
 42
0.4142135623730951
  0
VERTEX
  5
CE
  8
THROUGH_CUT
 10
33.11338376455917
 20
41.2632054249265
 30
0.0
 42
0.4142135623730951
  0
VERTEX
  5
CF
  8
THROUGH_CUT
 10
33.48838376455917
 20
40.8882054249265
 30
0.0
 42
0.4142135623730951
  0
VERTEX
  5
D0
  8
THROUGH_CUT
 10
33.86338376455917
 20
41.2632054249265
 30
0.0
 42
0.4142135623730951
  0
SEQEND
  5
D1
  8
THROUGH_CUT
  0
POLYLINE
  5
52
  8
THROUGH_CUT
 66
     1
 10
0.0
 20
0.0
 30
0.0
 70
     1
  0
VERTEX
  5
D2
  8
THROUGH_CUT
 10
37.4883584288385
 20
40.18824553235712
 30
0.0
  0
VERTEX
  5
D3
  8
THROUGH_CUT
 10
43.4883584288385
 20
40.18824553235712
 30
0.0
  0
VERTEX
  5
D4
  8
THROUGH_CUT
 10
43.4883584288385
 20
46.18824553235712
 30
0.0
  0
VERTEX
  5
D5
  8
THROUGH_CUT
 10
37.4883584288385
 20
46.18824553235712
 30
0.0
  0
SEQEND
  5
D6
  8
THROUGH_CUT
  0
POLYLINE
  5
53
  8
THROUGH_CUT
 66
     1
 10
0.0
 20
0.0
 30
0.0
 70
     1
  0
VERTEX
  5
D7
  8
THROUGH_CUT
 10
40.4883584288385
 20
45.48824553235712
 30
0.0
 42
0.4142135623730951
  0
VERTEX
  5
D8
  8
THROUGH_CUT
 10
40.1133584288385
 20
45.11324553235712
 30
0.0
 42
0.4142135623730951
  0
VERTEX
  5
D9
  8
THROUGH_CUT
 10
40.4883584288385
 20
44.73824553235712
 30
0.0
 42
0.4142135623730951
  0
VERTEX
  5
DA
  8
THROUGH_CUT
 10
40.8633584288385
 20
45.11324553235712
 30
0.0
 42
0.4142135623730951
  0
SEQEND
  5
DB
  8
THROUGH_CUT
  0
POLYLINE
  5
54
  8
THROUGH_CUT
 66
     1
 10
0.0
 20
0.0
 30
0.0
 70
     1
  0
VERTEX
  5
DC
  8
THROUGH_CUT
 10
40.48838376455917
 20
41.6382054249265
 30
0.0
 42
0.4142135623730951
  0
VERTEX
  5
DD
  8
THROUGH_CUT
 10
40.11338376455917
 20
41.2632054249265
 30
0.0
 42
0.4142135623730951
  0
VERTEX
  5
DE
  8
THROUGH_CUT
 10
40.48838376455917
 20
40.8882054249265
 30
0.0
 42
0.4142135623730951
  0
VERTEX
  5
DF
  8
THROUGH_CUT
 10
40.86338376455917
 20
41.2632054249265
 30
0.0
 42
0.4142135623730951
  0
SEQEND
  5
E0
  8
THROUGH_CUT
  0
POLYLINE
  5
55
  8
THROUGH_CUT
 66
     1
 10
0.0
 20
0.0
 30
0.0
 70
     1
  0
VERTEX
  5
E1
  8
THROUGH_CUT
 10
44.4883584288385
 20
40.18824553235712
 30
0.0
  0
VERTEX
  5
E2
  8
THROUGH_CUT
 10
50.4883584288385
 20
40.18824553235712
 30
0.0
  0
VERTEX
  5
E3
  8
THROUGH_CUT
 10
50.4883584288385
 20
46.18824553235712
 30
0.0
  0
VERTEX
  5
E4
  8
THROUGH_CUT
 10
44.4883584288385
 20
46.18824553235712
 30
0.0
  0
SEQEND
  5
E5
  8
THROUGH_CUT
  0
POLYLINE
  5
56
  8
THROUGH_CUT
 66
     1
 10
0.0
 20
0.0
 30
0.0
 70
     1
  0
VERTEX
  5
E6
  8
THROUGH_CUT
 10
47.4883584288385
 20
45.48824553235712
 30
0.0
 42
0.4142135623730951
  0
VERTEX
  5
E7
  8
THROUGH_CUT
 10
47.1133584288385
 20
45.11324553235712
 30
0.0
 42
0.4142135623730951
  0
VERTEX
  5
E8
  8
THROUGH_CUT
 10
47.4883584288385
 20
44.73824553235712
 30
0.0
 42
0.4142135623730951
  0
VERTEX
  5
E9
  8
THROUGH_CUT
 10
47.8633584288385
 20
45.11324553235712
 30
0.0
 42
0.4142135623730951
  0
SEQEND
  5
EA
  8
THROUGH_CUT
  0
POLYLINE
  5
57
  8
THROUGH_CUT
 66
     1
 10
0.0
 20
0.0
 30
0.0
 70
     1
  0
VERTEX
  5
EB
  8
THROUGH_CUT
 10
47.48838376455917
 20
41.6382054249265
 30
0.0
 42
0.4142135623730951
  0
VERTEX
  5
EC
  8
THROUGH_CUT
 10
47.11338376455917
 20
41.2632054249265
 30
0.0
 42
0.4142135623730951
  0
VERTEX
  5
ED
  8
THROUGH_CUT
 10
47.48838376455917
 20
40.8882054249265
 30
0.0
 42
0.4142135623730951
  0
VERTEX
  5
EE
  8
THROUGH_CUT
 10
47.86338376455917
 20
41.2632054249265
 30
0.0
 42
0.4142135623730951
  0
SEQEND
  5
EF
  8
THROUGH_CUT
  0
POLYLINE
  5
58
  8
THROUGH_CUT
 66
     1
 10
0.0
 20
0.0
 30
0.0
 70
     1
  0
VERTEX
  5
F0
  8
THROUGH_CUT
 10
51.4883584288385
 20
40.18824553235712
 30
0.0
  0
VERTEX
  5
F1
  8
THROUGH_CUT
 10
57.4883584288385
 20
40.18824553235712
 30
0.0
  0
VERTEX
  5
F2
  8
THROUGH_CUT
 10
57.4883584288385
 20
46.18824553235712
 30
0.0
  0
VERTEX
  5
F3
  8
THROUGH_CUT
 10
51.4883584288385
 20
46.18824553235712
 30
0.0
  0
SEQEND
  5
F4
  8
THROUGH_CUT
  0
POLYLINE
  5
59
  8
THROUGH_CUT
 66
     1
 10
0.0
 20
0.0
 30
0.0
 70
     1
  0
VERTEX
  5
F5
  8
THROUGH_CUT
 10
54.4883584288385
 20
45.48824553235712
 30
0.0
 42
0.4142135623730951
  0
VERTEX
  5
F6
  8
THROUGH_CUT
 10
54.1133584288385
 20
45.11324553235712
 30
0.0
 42
0.4142135623730951
  0
VERTEX
  5
F7
  8
THROUGH_CUT
 10
54.4883584288385
 20
44.73824553235712
 30
0.0
 42
0.4142135623730951
  0
VERTEX
  5
F8
  8
THROUGH_CUT
 10
54.8633584288385
 20
45.11324553235712
 30
0.0
 42
0.4142135623730951
  0
SEQEND
  5
F9
  8
THROUGH_CUT
  0
POLYLINE
  5
5A
  8
THROUGH_CUT
 66
     1
 10
0.0
 20
0.0
 30
0.0
 70
     1
  0
VERTEX
  5
FA
  8
THROUGH_CUT
 10
54.48838376455917
 20
41.6382054249265
 30
0.0
 42
0.4142135623730951
  0
VERTEX
  5
FB
  8
THROUGH_CUT
 10
54.11338376455917
 20
41.2632054249265
 30
0.0
 42
0.4142135623730951
  0
VERTEX
  5
FC
  8
THROUGH_CUT
 10
54.48838376455917
 20
40.8882054249265
 30
0.0
 42
0.4142135623730951
  0
VERTEX
  5
FD
  8
THROUGH_CUT
 10
54.86338376455917
 20
41.2632054249265
 30
0.0
 42
0.4142135623730951
  0
SEQEND
  5
FE
  8
THROUGH_CUT
  0
POLYLINE
  5
5B
  8
THROUGH_CUT
 66
     1
 10
0.0
 20
0.0
 30
0.0
 70
     1
  0
VERTEX
  5
FF
  8
THROUGH_CUT
 10
58.4883584288385
 20
40.18824553235712
 30
0.0
  0
VERTEX
  5
100
  8
THROUGH_CUT
 10
64.48835842883848
 20
40.18824553235712
 30
0.0
  0
VERTEX
  5
101
  8
THROUGH_CUT
 10
64.48835842883848
 20
46.18824553235712
 30
0.0
  0
VERTEX
  5
102
  8
THROUGH_CUT
 10
58.4883584288385
 20
46.18824553235712
 30
0.0
  0
SEQEND
  5
103
  8
THROUGH_CUT
  0
POLYLINE
  5
5C
  8
THROUGH_CUT
 66
     1
 10
0.0
 20
0.0
 30
0.0
 70
     1
  0
VERTEX
  5
104
  8
THROUGH_CUT
 10
61.4883584288385
 20
45.48824553235712
 30
0.0
 42
0.4142135623730951
  0
VERTEX
  5
105
  8
THROUGH_CUT
 10
61.1133584288385
 20
45.11324553235712
 30
0.0
 42
0.4142135623730951
  0
VERTEX
  5
106
  8
THROUGH_CUT
 10
61.4883584288385
 20
44.73824553235712
 30
0.0
 42
0.4142135623730951
  0
VERTEX
  5
107
  8
THROUGH_CUT
 10
61.8633584288385
 20
45.11324553235712
 30
0.0
 42
0.4142135623730951
  0
SEQEND
  5
108
  8
THROUGH_CUT
  0
POLYLINE
  5
5D
  8
THROUGH_CUT
 66
     1
 10
0.0
 20
0.0
 30
0.0
 70
     1
  0
VERTEX
  5
109
  8
THROUGH_CUT
 10
61.48838376455917
 20
41.6382054249265
 30
0.0
 42
0.4142135623730951
  0
VERTEX
  5
10A
  8
THROUGH_CUT
 10
61.11338376455917
 20
41.2632054249265
 30
0.0
 42
0.4142135623730951
  0
VERTEX
  5
10B
  8
THROUGH_CUT
 10
61.48838376455917
 20
40.8882054249265
 30
0.0
 42
0.4142135623730951
  0
VERTEX
  5
10C
  8
THROUGH_CUT
 10
61.86338376455917
 20
41.2632054249265
 30
0.0
 42
0.4142135623730951
  0
SEQEND
  5
10D
  8
THROUGH_CUT
  0
POLYLINE
  5
5E
  8
THROUGH_CUT
 66
     1
 10
0.0
 20
0.0
 30
0.0
 70
     1
  0
VERTEX
  5
10E
  8
THROUGH_CUT
 10
65.48835842883848
 20
40.18824553235712
 30
0.0
  0
VERTEX
  5
10F
  8
THROUGH_CUT
 10
71.48835842883848
 20
40.18824553235712
 30
0.0
  0
VERTEX
  5
110
  8
THROUGH_CUT
 10
71.48835842883848
 20
46.18824553235712
 30
0.0
  0
VERTEX
  5
111
  8
THROUGH_CUT
 10
65.48835842883848
 20
46.18824553235712
 30
0.0
  0
SEQEND
  5
112
  8
THROUGH_CUT
  0
POLYLINE
  5
5F
  8
THROUGH_CUT
 66
     1
 10
0.0
 20
0.0
 30
0.0
 70
     1
  0
VERTEX
  5
113
  8
THROUGH_CUT
 10
68.48835842883848
 20
45.48824553235712
 30
0.0
 42
0.4142135623730951
  0
VERTEX
  5
114
  8
THROUGH_CUT
 10
68.11335842883848
 20
45.11324553235712
 30
0.0
 42
0.4142135623730951
  0
VERTEX
  5
115
  8
THROUGH_CUT
 10
68.48835842883848
 20
44.73824553235712
 30
0.0
 42
0.4142135623730951
  0
VERTEX
  5
116
  8
THROUGH_CUT
 10
68.86335842883848
 20
45.11324553235712
 30
0.0
 42
0.4142135623730951
  0
SEQEND
  5
117
  8
THROUGH_CUT
  0
POLYLINE
  5
60
  8
THROUGH_CUT
 66
     1
 10
0.0
 20
0.0
 30
0.0
 70
     1
  0
VERTEX
  5
118
  8
THROUGH_CUT
 10
68.48838376455917
 20
41.6382054249265
 30
0.0
 42
0.4142135623730951
  0
VERTEX
  5
119
  8
THROUGH_CUT
 10
68.11338376455917
 20
41.2632054249265
 30
0.0
 42
0.4142135623730951
  0
VERTEX
  5
11A
  8
THROUGH_CUT
 10
68.48838376455917
 20
40.8882054249265
 30
0.0
 42
0.4142135623730951
  0
VERTEX
  5
11B
  8
THROUGH_CUT
 10
68.86338376455917
 20
41.2632054249265
 30
0.0
 42
0.4142135623730951
  0
SEQEND
  5
11C
  8
THROUGH_CUT
  0
POLYLINE
  5
61
  8
THROUGH_CUT
 66
     1
 10
0.0
 20
0.0
 30
0.0
 70
     1
  0
VERTEX
  5
11D
  8
THROUGH_CUT
 10
72.48835842883848
 20
40.18824553235712
 30
0.0
  0
VERTEX
  5
11E
  8
THROUGH_CUT
 10
78.48835842883848
 20
40.18824553235712
 30
0.0
  0
VERTEX
  5
11F
  8
THROUGH_CUT
 10
78.48835842883848
 20
46.18824553235712
 30
0.0
  0
VERTEX
  5
120
  8
THROUGH_CUT
 10
72.48835842883848
 20
46.18824553235712
 30
0.0
  0
SEQEND
  5
121
  8
THROUGH_CUT
  0
POLYLINE
  5
62
  8
THROUGH_CUT
 66
     1
 10
0.0
 20
0.0
 30
0.0
 70
     1
  0
VERTEX
  5
122
  8
THROUGH_CUT
 10
75.48835842883848
 20
45.48824553235712
 30
0.0
 42
0.4142135623730951
  0
VERTEX
  5
123
  8
THROUGH_CUT
 10
75.11335842883848
 20
45.11324553235712
 30
0.0
 42
0.4142135623730951
  0
VERTEX
  5
124
  8
THROUGH_CUT
 10
75.48835842883848
 20
44.73824553235712
 30
0.0
 42
0.4142135623730951
  0
VERTEX
  5
125
  8
THROUGH_CUT
 10
75.86335842883848
 20
45.11324553235712
 30
0.0
 42
0.4142135623730951
  0
SEQEND
  5
126
  8
THROUGH_CUT
  0
POLYLINE
  5
63
  8
THROUGH_CUT
 66
     1
 10
0.0
 20
0.0
 30
0.0
 70
     1
  0
VERTEX
  5
127
  8
THROUGH_CUT
 10
75.48838376455917
 20
41.6382054249265
 30
0.0
 42
0.4142135623730951
  0
VERTEX
  5
128
  8
THROUGH_CUT
 10
75.11338376455917
 20
41.2632054249265
 30
0.0
 42
0.4142135623730951
  0
VERTEX
  5
129
  8
THROUGH_CUT
 10
75.48838376455917
 20
40.8882054249265
 30
0.0
 42
0.4142135623730951
  0
VERTEX
  5
12A
  8
THROUGH_CUT
 10
75.86338376455917
 20
41.2632054249265
 30
0.0
 42
0.4142135623730951
  0
SEQEND
  5
12B
  8
THROUGH_CUT
  0
POLYLINE
  5
64
  8
THROUGH_CUT
 66
     1
 10
0.0
 20
0.0
 30
0.0
 70
     1
  0
VERTEX
  5
12C
  8
THROUGH_CUT
 10
79.48835842883848
 20
40.18824553235712
 30
0.0
  0
VERTEX
  5
12D
  8
THROUGH_CUT
 10
85.48835842883848
 20
40.18824553235712
 30
0.0
  0
VERTEX
  5
12E
  8
THROUGH_CUT
 10
85.48835842883848
 20
46.18824553235712
 30
0.0
  0
VERTEX
  5
12F
  8
THROUGH_CUT
 10
79.48835842883848
 20
46.18824553235712
 30
0.0
  0
SEQEND
  5
130
  8
THROUGH_CUT
  0
POLYLINE
  5
65
  8
THROUGH_CUT
 66
     1
 10
0.0
 20
0.0
 30
0.0
 70
     1
  0
VERTEX
  5
131
  8
THROUGH_CUT
 10
82.48835842883848
 20
45.48824553235712
 30
0.0
 42
0.4142135623730951
  0
VERTEX
  5
132
  8
THROUGH_CUT
 10
82.11335842883848
 20
45.11324553235712
 30
0.0
 42
0.4142135623730951
  0
VERTEX
  5
133
  8
THROUGH_CUT
 10
82.48835842883848
 20
44.73824553235712
 30
0.0
 42
0.4142135623730951
  0
VERTEX
  5
134
  8
THROUGH_CUT
 10
82.86335842883848
 20
45.11324553235712
 30
0.0
 42
0.4142135623730951
  0
SEQEND
  5
135
  8
THROUGH_CUT
  0
POLYLINE
  5
66
  8
THROUGH_CUT
 66
     1
 10
0.0
 20
0.0
 30
0.0
 70
     1
  0
VERTEX
  5
136
  8
THROUGH_CUT
 10
82.48838376455917
 20
41.6382054249265
 30
0.0
 42
0.4142135623730951
  0
VERTEX
  5
137
  8
THROUGH_CUT
 10
82.11338376455917
 20
41.2632054249265
 30
0.0
 42
0.4142135623730951
  0
VERTEX
  5
138
  8
THROUGH_CUT
 10
82.48838376455917
 20
40.8882054249265
 30
0.0
 42
0.4142135623730951
  0
VERTEX
  5
139
  8
THROUGH_CUT
 10
82.86338376455917
 20
41.2632054249265
 30
0.0
 42
0.4142135623730951
  0
SEQEND
  5
13A
  8
THROUGH_CUT
  0
POLYLINE
  5
67
  8
THROUGH_CUT
 66
     1
 10
0.0
 20
0.0
 30
0.0
 70
     1
  0
VERTEX
  5
13B
  8
THROUGH_CUT
 10
86.48835842883848
 20
40.18824553235712
 30
0.0
  0
VERTEX
  5
13C
  8
THROUGH_CUT
 10
92.48835842883848
 20
40.18824553235712
 30
0.0
  0
VERTEX
  5
13D
  8
THROUGH_CUT
 10
92.48835842883848
 20
46.18824553235712
 30
0.0
  0
VERTEX
  5
13E
  8
THROUGH_CUT
 10
86.48835842883848
 20
46.18824553235712
 30
0.0
  0
SEQEND
  5
13F
  8
THROUGH_CUT
  0
POLYLINE
  5
68
  8
THROUGH_CUT
 66
     1
 10
0.0
 20
0.0
 30
0.0
 70
     1
  0
VERTEX
  5
140
  8
THROUGH_CUT
 10
89.48835842883848
 20
45.48824553235712
 30
0.0
 42
0.4142135623730951
  0
VERTEX
  5
141
  8
THROUGH_CUT
 10
89.11335842883848
 20
45.11324553235712
 30
0.0
 42
0.4142135623730951
  0
VERTEX
  5
142
  8
THROUGH_CUT
 10
89.48835842883848
 20
44.73824553235712
 30
0.0
 42
0.4142135623730951
  0
VERTEX
  5
143
  8
THROUGH_CUT
 10
89.86335842883848
 20
45.11324553235712
 30
0.0
 42
0.4142135623730951
  0
SEQEND
  5
144
  8
THROUGH_CUT
  0
POLYLINE
  5
69
  8
THROUGH_CUT
 66
     1
 10
0.0
 20
0.0
 30
0.0
 70
     1
  0
VERTEX
  5
145
  8
THROUGH_CUT
 10
89.48838376455917
 20
41.6382054249265
 30
0.0
 42
0.4142135623730951
  0
VERTEX
  5
146
  8
THROUGH_CUT
 10
89.11338376455917
 20
41.2632054249265
 30
0.0
 42
0.4142135623730951
  0
VERTEX
  5
147
  8
THROUGH_CUT
 10
89.48838376455917
 20
40.8882054249265
 30
0.0
 42
0.4142135623730951
  0
VERTEX
  5
148
  8
THROUGH_CUT
 10
89.86338376455917
 20
41.2632054249265
 30
0.0
 42
0.4142135623730951
  0
SEQEND
  5
149
  8
THROUGH_CUT
  0
POLYLINE
  5
6A
  8
THROUGH_CUT
 66
     1
 10
0.0
 20
0.0
 30
0.0
 70
     1
  0
VERTEX
  5
14A
  8
THROUGH_CUT
 10
1.540462774176376
 20
10.16681203983748
 30
0.0
 42
-0.1669323781031489
  0
VERTEX
  5
14B
  8
THROUGH_CUT
 10
9.319379823341322
 20
42.37170485757284
 30
0.0
 42
-0.4586196939095586
  0
VERTEX
  5
14C
  8
THROUGH_CUT
 10
22.82132455915098
 20
44.31546613519442
 30
0.0
  0
VERTEX
  5
14D
  8
THROUGH_CUT
 10
30.72706340711331
 20
37.42318941129805
 30
0.0
 42
-0.9562781405046027
  0
VERTEX
  5
14E
  8
THROUGH_CUT
 10
30.72581889864553
 20
37.42162634296272
 30
0.0
 42
0.9562781405008229
  0
VERTEX
  5
14F
  8
THROUGH_CUT
 10
30.10363237843858
 20
36.64003315592718
 30
0.0
 42
-0.4142135623731054
  0
VERTEX
  5
150
  8
THROUGH_CUT
 10
30.15194637039164
 20
35.9345788638702
 30
0.0
 42
-0.4142135623731231
  0
VERTEX
  5
151
  8
THROUGH_CUT
 10
29.44649207833466
 20
35.88626487191718
 30
0.0
  0
VERTEX
  5
152
  8
THROUGH_CUT
 10
21.5070439589431
 20
42.80792956717448
 30
0.0
 42
0.4586196939095696
  0
VERTEX
  5
153
  8
THROUGH_CUT
 10
11.00553147908981
 20
41.29611531557111
 30
0.0
 42
0.166699014479307
  0
VERTEX
  5
154
  8
THROUGH_CUT
 10
3.527520663924818
 20
10.39846255919448
 30
0.0
 42
-0.9560547526280065
  0
VERTEX
  5
155
  8
THROUGH_CUT
 10
3.525541636212793
 20
10.39818797460528
 30
0.0
 42
0.9564894213446691
  0
VERTEX
  5
156
  8
THROUGH_CUT
 10
2.536066115891686
 20
10.26048435438551
 30
0.0
 42
-0.9999999999999607
  0
SEQEND
  5
157
  8
THROUGH_CUT
  0
POLYLINE
  5
6B
  8
THROUGH_CUT
 66
     1
 10
0.0
 20
0.0
 30
0.0
 70
     1
  0
VERTEX
  5
158
  8
THROUGH_CUT
 10
2.365421989973235
 20
13.90917787332991
 30
0.0
 42
-0.8237336233316559
  0
VERTEX
  5
159
  8
THROUGH_CUT
 10
2.391895384973871
 20
13.518231215453
 30
0.0
 42
-0.8241469133978765
  0
VERTEX
  5
15A
  8
THROUGH_CUT
 10
2.220582308281202
 20
13.87059821232933
 30
0.0
 42
-0.0964029187071587
  0
VERTEX
  5
15B
  8
THROUGH_CUT
 10
2.289338104901255
 20
13.90402576702049
 30
0.0
 42
-0.0966513828627436
  0
SEQEND
  5
15C
  8
THROUGH_CUT
  0
POLYLINE
  5
6C
  8
THROUGH_CUT
 66
     1
 10
0.0
 20
0.0
 30
0.0
 70
     1
  0
VERTEX
  5
15D
  8
THROUGH_CUT
 10
95.00546078813557
 20
31.18302976265231
 30
0.0
  0
VERTEX
  5
15E
  8
THROUGH_CUT
 10
95.00546078813557
 20
34.18302976265232
 30
0.0
  0
VERTEX
  5
15F
  8
THROUGH_CUT
 10
62.46044978813554
 20
34.18302976265231
 30
0.0
 42
-0.4142135623731007
  0
VERTEX
  5
160
  8
THROUGH_CUT
 10
58.46044978813556
 20
38.18302976265231
 30
0.0
 42
1.0
  0
VERTEX
  5
161
  8
THROUGH_CUT
 10
57.46044978813556
 20
38.18302976265231
 30
0.0
 42
-0.9587292824586483
  0
VERTEX
  5
162
  8
THROUGH_CUT
 10
56.46222412840592
 20
38.14094573961619
 30
0.0
 42
0.9536851849956202
  0
VERTEX
  5
163
  8
THROUGH_CUT
 10
56.46022773251487
 20
38.14087210388553
 30
0.0
 42
-0.4111299260102337
  0
VERTEX
  5
164
  8
THROUGH_CUT
 10
52.46044978813556
 20
34.18302976265231
 30
0.0
  0
VERTEX
  5
165
  8
THROUGH_CUT
 10
23.08491278813557
 20
34.18302976265231
 30
0.0
 42
-0.6590215623974425
  0
VERTEX
  5
166
  8
THROUGH_CUT
 10
20.18548100674205
 20
40.93862353302972
 30
0.0
 42
0.9999999999999412
  0
VERTEX
  5
167
  8
THROUGH_CUT
 10
19.46062278813557
 20
41.62752176265233
 30
0.0
 42
-0.9560668040221549
  0
VERTEX
  5
168
  8
THROUGH_CUT
 10
18.70632751723838
 20
42.28251982744123
 30
0.0
 42
0.9564885774371983
  0
VERTEX
  5
169
  8
THROUGH_CUT
 10
18.70481830124402
 20
42.28382916548081
 30
0.0
 42
0.0195025208799997
  0
VERTEX
  5
16A
  8
THROUGH_CUT
 10
16.08217738005787
 20
39.29411656369863
 30
0.0
 42
-0.2261695666502375
  0
VERTEX
  5
16B
  8
THROUGH_CUT
 10
13.75151078813556
 20
38.18302976265231
 30
0.0
  0
VERTEX
  5
16C
  8
THROUGH_CUT
 10
12.98066478813556
 20
38.18302976265231
 30
0.0
  0
VERTEX
  5
16D
  8
THROUGH_CUT
 10
10.57917278813555
 20
34.01565276265231
 30
0.0
  0
VERTEX
  5
16E
  8
THROUGH_CUT
 10
10.95192977978882
 20
33.79454709055364
 30
0.0
 42
-1.0
  0
VERTEX
  5
16F
  8
THROUGH_CUT
 10
11.0477440600436
 20
33.4294312743199
 30
0.0
  0
VERTEX
  5
170
  8
THROUGH_CUT
 10
10.69230808358991
 20
32.81173196408979
 30
0.0
 42
-1.0
  0
VERTEX
  5
171
  8
THROUGH_CUT
 10
10.32233042627135
 20
32.71464171948382
 30
0.0
  0
VERTEX
  5
172
  8
THROUGH_CUT
 10
9.949612788135553
 20
32.9357237626523
 30
0.0
  0
VERTEX
  5
173
  8
THROUGH_CUT
 10
8.939332788135587
 20
31.1830297626523
 30
0.0
  0
VERTEX
  5
174
  8
THROUGH_CUT
 10
9.066878788135583
 20
31.1830297626523
 30
0.0
 42
-0.5557534680647261
  0
VERTEX
  5
175
  8
THROUGH_CUT
 10
9.963728134926981
 20
29.74069298588316
 30
0.0
 42
0.1150543276863774
  0
VERTEX
  5
176
  8
THROUGH_CUT
 10
4.703013788135564
 20
7.181454735020626
 30
0.0
  0
VERTEX
  5
177
  8
THROUGH_CUT
 10
6.70302378763926
 20
7.181454388478331
 30
0.0
 42
-0.1045612413968007
  0
VERTEX
  5
178
  8
THROUGH_CUT
 10
10.89658435397693
 20
27.01539100768289
 30
0.0
 42
-0.2967978084954881
  0
VERTEX
  5
179
  8
THROUGH_CUT
 10
17.29703978813556
 20
31.1830297626523
 30
0.0
  0
SEQEND
  5
17A
  8
THROUGH_CUT
  0
POLYLINE
  5
6E
  8
POCKET_FOR_HINGE
 66
     1
 10
0.0
 20
0.0
 30
0.0
  0
VERTEX
  5
17B
  8
POCKET_FOR_HINGE
 10
82.81796078813557
 20
31.1705297626523
 30
0.0
  0
VERTEX
  5
17C
  8
POCKET_FOR_HINGE
 10
82.81796078813557
 20
32.0630297690826
 30
0.0
 42
0.4142135573170183
  0
VERTEX
  5
17D
  8
POCKET_FOR_HINGE
 10
82.44546078813556
 20
32.43552976265231
 30
0.0
  0
VERTEX
  5
17E
  8
POCKET_FOR_HINGE
 10
80.56546077527392
 20
32.43552976265231
 30
0.0
 42
0.4142135522600978
  0
VERTEX
  5
17F
  8
POCKET_FOR_HINGE
 10
80.19296078813557
 20
32.06302976265231
 30
0.0
  0
VERTEX
  5
180
  8
POCKET_FOR_HINGE
 10
80.19296078813557
 20
31.1705297626523
 30
0.0
  0
VERTEX
  5
181
  8
POCKET_FOR_HINGE
 10
82.76796078813557
 20
31.1705297626523
 30
0.0
  0
VERTEX
  5
182
  8
POCKET_FOR_HINGE
 10
82.56796078813557
 20
31.4205297626523
 30
0.0
  0
VERTEX
  5
183
  8
POCKET_FOR_HINGE
 10
82.56796078813557
 20
32.06302976265231
 30
0.0
 42
0.4142135711904839
  0
VERTEX
  5
184
  8
POCKET_FOR_HINGE
 10
82.44546078444775
 20
32.18552976265231
 30
0.0
  0
VERTEX
  5
185
  8
POCKET_FOR_HINGE
 10
80.56546078629167
 20
32.18552976265231
 30
0.0
 42
0.4142135755993392
  0
VERTEX
  5
186
  8
POCKET_FOR_HINGE
 10
80.44296078813557
 20
32.06302975527662
 30
0.0
  0
VERTEX
  5
187
  8
POCKET_FOR_HINGE
 10
80.44296078813557
 20
31.4205297626523
 30
0.0
  0
VERTEX
  5
188
  8
POCKET_FOR_HINGE
 10
82.51796078813557
 20
31.4205297626523
 30
0.0
  0
VERTEX
  5
189
  8
POCKET_FOR_HINGE
 10
82.31796078813557
 20
31.6705297626523
 30
0.0
  0
VERTEX
  5
18A
  8
POCKET_FOR_HINGE
 10
82.31796078813557
 20
31.93552976265231
 30
0.0
  0
VERTEX
  5
18B
  8
POCKET_FOR_HINGE
 10
80.69296078813558
 20
31.93552976265231
 30
0.0
  0
VERTEX
  5
18C
  8
POCKET_FOR_HINGE
 10
80.69296078813557
 20
31.6705297626523
 30
0.0
  0
VERTEX
  5
18D
  8
POCKET_FOR_HINGE
 10
82.26796078813557
 20
31.6705297626523
 30
0.0
  0
SEQEND
  5
18E
  8
POCKET_FOR_HINGE
  0
POLYLINE
  5
6F
  8
POCKET_FOR_HINGE
 66
     1
 10
0.0
 20
0.0
 30
0.0
  0
VERTEX
  5
18F
  8
POCKET_FOR_HINGE
 10
81.23403725450386
 20
29.88187864263684
 30
0.0
  0
VERTEX
  5
190
  8
POCKET_FOR_HINGE
 10
81.23403725450386
 20
28.989378571026
 30
0.0
 42
0.4142135060661505
  0
VERTEX
  5
191
  8
POCKET_FOR_HINGE
 10
81.60653725450386
 20
28.61687864263684
 30
0.0
  0
VERTEX
  5
192
  8
POCKET_FOR_HINGE
 10
83.48653735899288
 20
28.61687864263684
 30
0.0
 42
0.4142134802144402
  0
VERTEX
  5
193
  8
POCKET_FOR_HINGE
 10
83.85903725450386
 20
28.9893786426368
 30
0.0
  0
VERTEX
  5
194
  8
POCKET_FOR_HINGE
 10
83.85903725450386
 20
29.88187864263684
 30
0.0
  0
VERTEX
  5
195
  8
POCKET_FOR_HINGE
 10
81.28403725450386
 20
29.88187864263684
 30
0.0
  0
VERTEX
  5
196
  8
POCKET_FOR_HINGE
 10
81.48403725450386
 20
29.63187864263684
 30
0.0
  0
VERTEX
  5
197
  8
POCKET_FOR_HINGE
 10
81.48403725450386
 20
28.98937860207051
 30
0.0
 42
0.4142133640747134
  0
VERTEX
  5
198
  8
POCKET_FOR_HINGE
 10
81.6065372121337
 20
28.86687864263684
 30
0.0
  0
VERTEX
  5
199
  8
POCKET_FOR_HINGE
 10
83.48653731442437
 20
28.86687864263684
 30
0.0
 42
0.4142135623730101
  0
VERTEX
  5
19A
  8
POCKET_FOR_HINGE
 10
83.60903725450386
 20
28.98937870255726
 30
0.0
  0
VERTEX
  5
19B
  8
POCKET_FOR_HINGE
 10
83.60903725450386
 20
29.63187864263684
 30
0.0
  0
VERTEX
  5
19C
  8
POCKET_FOR_HINGE
 10
81.53403725450386
 20
29.63187864263684
 30
0.0
  0
VERTEX
  5
19D
  8
POCKET_FOR_HINGE
 10
81.73403725450386
 20
29.38187864263684
 30
0.0
  0
VERTEX
  5
19E
  8
POCKET_FOR_HINGE
 10
81.73403725450386
 20
29.11687864263684
 30
0.0
  0
VERTEX
  5
19F
  8
POCKET_FOR_HINGE
 10
83.35903725450386
 20
29.11687864263684
 30
0.0
  0
VERTEX
  5
1A0
  8
POCKET_FOR_HINGE
 10
83.35903725450386
 20
29.38187864263684
 30
0.0
  0
VERTEX
  5
1A1
  8
POCKET_FOR_HINGE
 10
81.78403725450386
 20
29.38187864263684
 30
0.0
  0
SEQEND
  5
1A2
  8
POCKET_FOR_HINGE
  0
POLYLINE
  5
70
  8
POCKET_FOR_HINGE
 66
     1
 10
0.0
 20
0.0
 30
0.0
  0
VERTEX
  5
1A3
  8
POCKET_FOR_HINGE
 10
27.81796078813557
 20
31.1705297626523
 30
0.0
  0
VERTEX
  5
1A4
  8
POCKET_FOR_HINGE
 10
27.81796078813557
 20
32.0630297690826
 30
0.0
 42
0.41421355731701
  0
VERTEX
  5
1A5
  8
POCKET_FOR_HINGE
 10
27.44546078813557
 20
32.4355297626523
 30
0.0
  0
VERTEX
  5
1A6
  8
POCKET_FOR_HINGE
 10
25.56546077527392
 20
32.4355297626523
 30
0.0
 42
0.4142135522600952
  0
VERTEX
  5
1A7
  8
POCKET_FOR_HINGE
 10
25.19296078813557
 20
32.0630297626523
 30
0.0
  0
VERTEX
  5
1A8
  8
POCKET_FOR_HINGE
 10
25.19296078813557
 20
31.1705297626523
 30
0.0
  0
VERTEX
  5
1A9
  8
POCKET_FOR_HINGE
 10
27.76796078813557
 20
31.1705297626523
 30
0.0
  0
VERTEX
  5
1AA
  8
POCKET_FOR_HINGE
 10
27.56796078813557
 20
31.4205297626523
 30
0.0
  0
VERTEX
  5
1AB
  8
POCKET_FOR_HINGE
 10
27.56796078813557
 20
32.0630297626523
 30
0.0
 42
0.4142135711905347
  0
VERTEX
  5
1AC
  8
POCKET_FOR_HINGE
 10
27.44546078444775
 20
32.1855297626523
 30
0.0
  0
VERTEX
  5
1AD
  8
POCKET_FOR_HINGE
 10
25.56546078629167
 20
32.1855297626523
 30
0.0
 42
0.4142136262645728
  0
VERTEX
  5
1AE
  8
POCKET_FOR_HINGE
 10
25.44296078813557
 20
32.06302973408634
 30
0.0
  0
VERTEX
  5
1AF
  8
POCKET_FOR_HINGE
 10
25.44296078813557
 20
31.4205297626523
 30
0.0
  0
VERTEX
  5
1B0
  8
POCKET_FOR_HINGE
 10
27.51796078813557
 20
31.4205297626523
 30
0.0
  0
VERTEX
  5
1B1
  8
POCKET_FOR_HINGE
 10
27.31796078813557
 20
31.6705297626523
 30
0.0
  0
VERTEX
  5
1B2
  8
POCKET_FOR_HINGE
 10
27.31796078813557
 20
31.9355297626523
 30
0.0
  0
VERTEX
  5
1B3
  8
POCKET_FOR_HINGE
 10
25.69296078813557
 20
31.9355297626523
 30
0.0
  0
VERTEX
  5
1B4
  8
POCKET_FOR_HINGE
 10
25.69296078813557
 20
31.6705297626523
 30
0.0
  0
VERTEX
  5
1B5
  8
POCKET_FOR_HINGE
 10
27.26796078813557
 20
31.6705297626523
 30
0.0
  0
SEQEND
  5
1B6
  8
POCKET_FOR_HINGE
  0
POLYLINE
  5
71
  8
POCKET_FOR_HINGE
 66
     1
 10
0.0
 20
0.0
 30
0.0
  0
VERTEX
  5
1B7
  8
POCKET_FOR_HINGE
 10
26.23403725450386
 20
29.88187864263683
 30
0.0
  0
VERTEX
  5
1B8
  8
POCKET_FOR_HINGE
 10
26.23403725450386
 20
28.98937858960663
 30
0.0
 42
0.4142135206759421
  0
VERTEX
  5
1B9
  8
POCKET_FOR_HINGE
 10
26.60653725450387
 20
28.61687864263683
 30
0.0
  0
VERTEX
  5
1BA
  8
POCKET_FOR_HINGE
 10
28.48653727269298
 20
28.61687864263683
 30
0.0
 42
0.4142135480711606
  0
VERTEX
  5
1BB
  8
POCKET_FOR_HINGE
 10
28.85903725450386
 20
28.98937864263684
 30
0.0
  0
VERTEX
  5
1BC
  8
POCKET_FOR_HINGE
 10
28.85903725450386
 20
29.88187864263683
 30
0.0
  0
VERTEX
  5
1BD
  8
POCKET_FOR_HINGE
 10
26.28403725450386
 20
29.88187864263683
 30
0.0
  0
VERTEX
  5
1BE
  8
POCKET_FOR_HINGE
 10
26.48403725450386
 20
29.63187864263683
 30
0.0
  0
VERTEX
  5
1BF
  8
POCKET_FOR_HINGE
 10
26.48403725450386
 20
28.98937861290445
 30
0.0
 42
0.4142134185728459
  0
VERTEX
  5
1C0
  8
POCKET_FOR_HINGE
 10
26.60653722409308
 20
28.86687864263683
 30
0.0
  0
VERTEX
  5
1C1
  8
POCKET_FOR_HINGE
 10
28.48653726493464
 20
28.86687864263683
 30
0.0
 42
0.4142134626143239
  0
VERTEX
  5
1C2
  8
POCKET_FOR_HINGE
 10
28.60903725450386
 20
28.9893786113444
 30
0.0
  0
VERTEX
  5
1C3
  8
POCKET_FOR_HINGE
 10
28.60903725450386
 20
29.63187864263683
 30
0.0
  0
VERTEX
  5
1C4
  8
POCKET_FOR_HINGE
 10
26.53403725450386
 20
29.63187864263683
 30
0.0
  0
VERTEX
  5
1C5
  8
POCKET_FOR_HINGE
 10
26.73403725450386
 20
29.38187864263683
 30
0.0
  0
VERTEX
  5
1C6
  8
POCKET_FOR_HINGE
 10
26.73403725450386
 20
29.11687864263683
 30
0.0
  0
VERTEX
  5
1C7
  8
POCKET_FOR_HINGE
 10
28.35903725450386
 20
29.11687864263683
 30
0.0
  0
VERTEX
  5
1C8
  8
POCKET_FOR_HINGE
 10
28.35903725450386
 20
29.38187864263683
 30
0.0
  0
VERTEX
  5
1C9
  8
POCKET_FOR_HINGE
 10
26.78403725450386
 20
29.38187864263683
 30
0.0
  0
SEQEND
  5
1CA
  8
POCKET_FOR_HINGE
  0
POLYLINE
  5
73
  8
HINGE_BARREL
 66
     1
 10
0.0
 20
0.0
 30
0.0
  0
VERTEX
  5
1CB
  8
HINGE_BARREL
 10
26.03403725446443
 20
29.86843397822458
 30
0.0
  0
VERTEX
  5
1CC
  8
HINGE_BARREL
 10
29.05903725448488
 20
29.86847565694379
 30
0.0
  0
SEQEND
  5
1CD
  8
HINGE_BARREL
  0
POLYLINE
  5
74
  8
HINGE_BARREL
 66
     1
 10
0.0
 20
0.0
 30
0.0
  0
VERTEX
  5
1CE
  8
HINGE_BARREL
 10
24.99296078813557
 20
31.1830297626523
 30
0.0
  0
VERTEX
  5
1CF
  8
HINGE_BARREL
 10
28.01796078813557
 20
31.1830297626523
 30
0.0
  0
SEQEND
  5
1D0
  8
HINGE_BARREL
  0
POLYLINE
  5
75
  8
HINGE_BARREL
 66
     1
 10
0.0
 20
0.0
 30
0.0
  0
VERTEX
  5
1D1
  8
HINGE_BARREL
 10
79.99296078813556
 20
31.18302976265231
 30
0.0
  0
VERTEX
  5
1D2
  8
HINGE_BARREL
 10
83.01796078813557
 20
31.18302976265231
 30
0.0
  0
SEQEND
  5
1D3
  8
HINGE_BARREL
  0
POLYLINE
  5
76
  8
HINGE_BARREL
 66
     1
 10
0.0
 20
0.0
 30
0.0
  0
VERTEX
  5
1D4
  8
HINGE_BARREL
 10
81.03403725444794
 20
29.86919177311943
 30
0.0
  0
VERTEX
  5
1D5
  8
HINGE_BARREL
 10
84.05903725440977
 20
29.86923345183864
 30
0.0
  0
SEQEND
  5
1D6
  8
HINGE_BARREL
  0
ENDSEC
  0
EOF
