  0
SECTION
  2
HEADER
  9
$ACADVER
  1
AC1009
  9
$DWGCODEPAGE
  3
ansi_1252
  9
$INSBASE
 10
0.0
 20
0.0
 30
0.0
  9
$EXTMIN
 10
0.994539211864399
 20
2.482290790377593
 30
0.0
  9
$EXTMAX
 10
94.68377885588747
 20
46.88784082535004
 30
0.0
  9
$LIMMIN
 10
0.0
 20
0.0
  9
$LIMMAX
 10
12.0
 20
9.0
  9
$ORTHOMODE
 70
     0
  9
$REGENMODE
 70
     1
  9
$FILLMODE
 70
     1
  9
$QTEXTMODE
 70
     0
  9
$MIRRTEXT
 70
     1
  9
$DRAGMODE
 70
     2
  9
$LTSCALE
 40
1.0
  9
$OSMODE
 70
    37
  9
$ATTMODE
 70
     1
  9
$TEXTSIZE
 40
0.2
  9
$TRACEWID
 40
0.05
  9
$TEXTSTYLE
  7
STANDARD
  9
$CLAYER
  8
0
  9
$CELTYPE
  6
BYLAYER
  9
$CECOLOR
 62
   256
  9
$DIMSCALE
 40
1.0
  9
$DIMASZ
 40
0.18
  9
$DIMEXO
 40
0.0625
  9
$DIMDLI
 40
0.38
  9
$DIMRND
 40
0.0
  9
$DIMDLE
 40
0.0
  9
$DIMEXE
 40
0.18
  9
$DIMTP
 40
0.0
  9
$DIMTM
 40
0.0
  9
$DIMTXT
 40
0.18
  9
$DIMCEN
 40
0.09
  9
$DIMTSZ
 40
0.0
  9
$DIMTOL
 70
     0
  9
$DIMLIM
 70
     0
  9
$DIMTIH
 70
     1
  9
$DIMTOH
 70
     1
  9
$DIMSE1
 70
     0
  9
$DIMSE2
 70
     0
  9
$DIMTAD
 70
     0
  9
$DIMZIN
 70
     0
  9
$DIMBLK
  1

  9
$DIMASO
 70
     1
  9
$DIMSHO
 70
     1
  9
$DIMPOST
  1

  9
$DIMAPOST
  1

  9
$DIMALT
 70
     0
  9
$DIMALTD
 70
     2
  9
$DIMALTF
 40
25.4
  9
$DIMLFAC
 40
1.0
  9
$DIMTOFL
 70
     0
  9
$DIMTVP
 40
0.0
  9
$DIMTIX
 70
     0
  9
$DIMSOXD
 70
     0
  9
$DIMSAH
 70
     0
  9
$DIMBLK1
  1

  9
$DIMBLK2
  1

  9
$DIMSTYLE
  2
STANDARD
  9
$DIMCLRD
 70
     0
  9
$DIMCLRE
 70
     0
  9
$DIMCLRT
 70
     0
  9
$DIMTFAC
 40
1.0
  9
$DIMGAP
 40
0.09
  9
$LUNITS
 70
     2
  9
$LUPREC
 70
     4
  9
$SKETCHINC
 40
0.1
  9
$FILLETRAD
 40
0.5
  9
$AUNITS
 70
     0
  9
$AUPREC
 70
     0
  9
$MENU
  1
.
  9
$ELEVATION
 40
0.0
  9
$PELEVATION
 40
0.0
  9
$THICKNESS
 40
0.0
  9
$LIMCHECK
 70
     0
  9
$CHAMFERA
 40
0.5
  9
$CHAMFERB
 40
0.5
  9
$SKPOLY
 70
     0
  9
$TDCREATE
 40
2454910.5
  9
$TDUPDATE
 40
2455901.450588866
  9
$TDINDWG
 40
0.0000000116
  9
$TDUSRTIMER
 40
0.0000000116
  9
$USRTIMER
 70
     1
  9
$ANGBASE
 50
0.0
  9
$ANGDIR
 70
     0
  9
$PDMODE
 70
     0
  9
$PDSIZE
 40
0.0
  9
$PLINEWID
 40
0.0
  9
$COORDS
 70
     1
  9
$SPLFRAME
 70
     0
  9
$SPLINETYPE
 70
     6
  9
$SPLINESEGS
 70
     8
  9
$ATTDIA
 70
     0
  9
$ATTREQ
 70
     1
  9
$HANDLING
 70
     1
  9
$HANDSEED
  5
250
  9
$SURFTAB1
 70
     6
  9
$SURFTAB2
 70
     6
  9
$SURFTYPE
 70
     6
  9
$SURFU
 70
     6
  9
$SURFV
 70
     6
  9
$UCSNAME
  2

  9
$UCSORG
 10
0.0
 20
0.0
 30
0.0
  9
$UCSXDIR
 10
1.0
 20
0.0
 30
0.0
  9
$UCSYDIR
 10
0.0
 20
1.0
 30
0.0
  9
$PUCSNAME
  2

  9
$PUCSORG
 10
0.0
 20
0.0
 30
0.0
  9
$PUCSXDIR
 10
1.0
 20
0.0
 30
0.0
  9
$PUCSYDIR
 10
0.0
 20
1.0
 30
0.0
  9
$USERI1
 70
     0
  9
$USERI2
 70
     0
  9
$USERI3
 70
     0
  9
$USERI4
 70
     0
  9
$USERI5
 70
     0
  9
$USERR1
 40
0.0
  9
$USERR2
 40
0.0
  9
$USERR3
 40
0.0
  9
$USERR4
 40
0.0
  9
$USERR5
 40
0.0
  9
$WORLDVIEW
 70
     1
  9
$SHADEDGE
 70
     3
  9
$SHADEDIF
 70
    70
  9
$TILEMODE
 70
     1
  9
$MAXACTVP
 70
    64
  9
$PLIMCHECK
 70
     0
  9
$PEXTMIN
 10
1.000000000000000E+20
 20
1.000000000000000E+20
 30
1.000000000000000E+20
  9
$PEXTMAX
 10
-1.000000000000000E+20
 20
-1.000000000000000E+20
 30
-1.000000000000000E+20
  9
$PLIMMIN
 10
0.0
 20
0.0
  9
$PLIMMAX
 10
12.0
 20
9.0
  9
$UNITMODE
 70
     0
  9
$VISRETAIN
 70
     1
  9
$PLINEGEN
 70
     0
  9
$PSLTSCALE
 70
     1
  0
ENDSEC
  0
SECTION
  2
TABLES
  0
TABLE
  2
VPORT
 70
     1
  0
VPORT
  2
*ACTIVE
 70
     0
 10
0.0
 20
0.0
 11
1.0
 21
1.0
 12
10.42990654205607
 22
4.5
 13
0.0
 23
0.0
 14
0.5
 24
0.5
 15
0.5
 25
0.5
 16
0.0
 26
0.0
 36
1.0
 17
0.0
 27
0.0
 37
0.0
 40
9.0
 41
1.972972972850329
 42
50.0
 43
0.0
 44
0.0
 50
0.0
 51
0.0
 71
     0
 72
   100
 73
     1
 74
     3
 75
     0
 76
     0
 77
     0
 78
     0
  0
ENDTAB
  0
TABLE
  2
LTYPE
 70
     2
  0
LTYPE
  2
CONTINUOUS
 70
     0
  3
Solid line
 72
    65
 73
     0
 40
0.0
  0
LTYPE
  2
CONTINUOUS2
 70
     0
  3
Solid Line
 72
    65
 73
     0
 40
0.0
  0
ENDTAB
  0
TABLE
  2
LAYER
 70
     5
  0
LAYER
  2
0
 70
     0
 62
     7
  6
CONTINUOUS
  0
LAYER
  2
THROUGH_CUT
 70
     0
 62
    18
  6
CONTINUOUS
  0
LAYER
  2
POCKET_FOR_HINGE
 70
     0
 62
     4
  6
CONTINUOUS
  0
LAYER
  2
HINGE_BARREL
 70
     0
 62
     6
  6
CONTINUOUS
  0
LAYER
  2
TRIM
 70
     0
 62
     3
  6
CONTINUOUS
  0
ENDTAB
  0
TABLE
  2
STYLE
 70
     1
  0
STYLE
  2
STANDARD
 70
     0
 40
0.0
 41
1.0
 50
0.0
 71
     0
 42
0.2
  3
txt
  4

  0
ENDTAB
  0
TABLE
  2
VIEW
 70
     0
  0
ENDTAB
  0
TABLE
  2
UCS
 70
     0
  0
ENDTAB
  0
TABLE
  2
APPID
 70
     1
  0
APPID
  2
ACAD
 70
     0
  0
ENDTAB
  0
TABLE
  2
DIMSTYLE
 70
     1
  0
DIMSTYLE
  2
STANDARD
 70
     0
  3

  4

  5

  6

  7

 40
1.0
 41
0.18
 42
0.0625
 43
0.38
 44
0.18
 45
0.0
 46
0.0
 47
0.0
 48
0.0
140
0.18
141
0.09
142
0.0
143
25.4
144
1.0
145
0.0
146
1.0
147
0.09
 71
     0
 72
     0
 73
     1
 74
     1
 75
     0
 76
     0
 77
     0
 78
     0
170
     0
171
     2
172
     0
173
     0
174
     0
175
     0
176
     0
177
     0
178
     0
  0
ENDTAB
  0
ENDSEC
  0
SECTION
  2
BLOCKS
  0
BLOCK
  8
0
  2
$MODEL_SPACE
 70
     0
 10
0.0
 20
0.0
 30
0.0
  3
$MODEL_SPACE
  1

  0
ENDBLK
  5
21
  8
0
  0
BLOCK
 67
     1
  8
0
  2
$PAPER_SPACE
 70
     0
 10
0.0
 20
0.0
 30
0.0
  3
$PAPER_SPACE
  1

  0
ENDBLK
  5
1D
 67
     1
  8
0
  0
ENDSEC
  0
SECTION
  2
ENTITIES
  0
POLYLINE
  5
41
  8
THROUGH_CUT
 66
     1
 10
0.0
 20
0.0
 30
0.0
 70
     1
  0
VERTEX
  5
91
  8
THROUGH_CUT
 10
94.4595372258236
 20
6.601299880662827
 30
0.0
 42
0.1669323781031489
  0
VERTEX
  5
92
  8
THROUGH_CUT
 10
86.68062017665865
 20
38.80619269839821
 30
0.0
 42
0.4586196939095601
  0
VERTEX
  5
93
  8
THROUGH_CUT
 10
73.17867544084899
 20
40.74995397601978
 30
0.0
  0
VERTEX
  5
94
  8
THROUGH_CUT
 10
65.27293659288667
 20
33.85767725212342
 30
0.0
 42
0.9562781405046027
  0
VERTEX
  5
95
  8
THROUGH_CUT
 10
65.27418110135444
 20
33.85611418378809
 30
0.0
 42
-0.9562781405008229
  0
VERTEX
  5
96
  8
THROUGH_CUT
 10
65.8963676215614
 20
33.07452099675255
 30
0.0
 42
0.4142135623730803
  0
VERTEX
  5
97
  8
THROUGH_CUT
 10
65.84805362960833
 20
32.36906670469557
 30
0.0
 42
0.4142135623731246
  0
VERTEX
  5
98
  8
THROUGH_CUT
 10
66.55350792166531
 20
32.32075271274255
 30
0.0
  0
VERTEX
  5
99
  8
THROUGH_CUT
 10
74.49295604105687
 20
39.24241740799984
 30
0.0
 42
-0.4586196939095694
  0
VERTEX
  5
9A
  8
THROUGH_CUT
 10
84.99446852091016
 20
37.73060315639647
 30
0.0
 42
-0.166699014479307
  0
VERTEX
  5
9B
  8
THROUGH_CUT
 10
92.47247933607515
 20
6.832950400019827
 30
0.0
 42
0.9560547526280161
  0
VERTEX
  5
9C
  8
THROUGH_CUT
 10
92.47445836378718
 20
6.832675815430628
 30
0.0
 42
-0.9564894213446655
  0
VERTEX
  5
9D
  8
THROUGH_CUT
 10
93.46393388410829
 20
6.694972195210857
 30
0.0
 42
0.9999999999999644
  0
SEQEND
  5
9E
  8
THROUGH_CUT
  0
POLYLINE
  5
42
  8
THROUGH_CUT
 66
     1
 10
0.0
 20
0.0
 30
0.0
 70
     1
  0
VERTEX
  5
9F
  8
THROUGH_CUT
 10
1.453462364705578
 20
26.30386579037761
 30
0.0
  0
VERTEX
  5
A0
  8
THROUGH_CUT
 10
77.66141836341872
 20
26.30281579037757
 30
0.0
 42
-0.2967978226313943
  0
VERTEX
  5
A1
  8
THROUGH_CUT
 10
83.95260916935821
 20
22.20765438283768
 30
0.0
 42
-0.1042510204534013
  0
VERTEX
  5
A2
  8
THROUGH_CUT
 10
88.13587302162908
 20
2.482290790377593
 30
0.0
  0
VERTEX
  5
A3
  8
THROUGH_CUT
 10
1.453462846938693
 20
2.482290790377593
 30
0.0
  0
SEQEND
  5
A4
  8
THROUGH_CUT
  0
POLYLINE
  5
43
  8
THROUGH_CUT
 66
     1
 10
0.0
 20
0.0
 30
0.0
 70
     1
  0
VERTEX
  5
A5
  8
THROUGH_CUT
 10
4.510877268669796
 20
29.37389647975969
 30
0.0
 42
0.8237336233316391
  0
VERTEX
  5
A6
  8
THROUGH_CUT
 10
4.483180642815621
 20
28.98303457721058
 30
0.0
 42
0.8241469133978611
  0
VERTEX
  5
A7
  8
THROUGH_CUT
 10
4.655595516740553
 20
29.33486377154079
 30
0.0
 42
0.0964029187070932
  0
VERTEX
  5
A8
  8
THROUGH_CUT
 10
4.586944659126726
 20
29.36850631499959
 30
0.0
 42
0.0966513828628223
  0
SEQEND
  5
A9
  8
THROUGH_CUT
  0
POLYLINE
  5
44
  8
THROUGH_CUT
 66
     1
 10
0.0
 20
0.0
 30
0.0
 70
     1
  0
VERTEX
  5
AA
  8
THROUGH_CUT
 10
38.5142387534488
 20
31.09010999418446
 30
0.0
 42
0.823733623331598
  0
VERTEX
  5
AB
  8
THROUGH_CUT
 10
38.48654212759462
 20
30.69924809163535
 30
0.0
 42
0.8241469133978684
  0
VERTEX
  5
AC
  8
THROUGH_CUT
 10
38.65895700151955
 20
31.05107728596555
 30
0.0
 42
0.0964029187070821
  0
VERTEX
  5
AD
  8
THROUGH_CUT
 10
38.59030614390573
 20
31.08471982942435
 30
0.0
 42
0.0966513828628317
  0
SEQEND
  5
AE
  8
THROUGH_CUT
  0
POLYLINE
  5
45
  8
THROUGH_CUT
 66
     1
 10
0.0
 20
0.0
 30
0.0
 70
     1
  0
VERTEX
  5
AF
  8
THROUGH_CUT
 10
80.91251898784654
 20
29.21074821109465
 30
0.0
 42
0.823733623331684
  0
VERTEX
  5
B0
  8
THROUGH_CUT
 10
80.88482236199233
 20
28.81988630854547
 30
0.0
 42
0.8241469133978268
  0
VERTEX
  5
B1
  8
THROUGH_CUT
 10
81.0572372359173
 20
29.17171550287575
 30
0.0
 42
0.096402918707155
  0
VERTEX
  5
B2
  8
THROUGH_CUT
 10
80.9885863783035
 20
29.20535804633453
 30
0.0
 42
0.0966513828627952
  0
SEQEND
  5
B3
  8
THROUGH_CUT
  0
POLYLINE
  5
46
  8
THROUGH_CUT
 66
     1
 10
0.0
 20
0.0
 30
0.0
 70
     1
  0
VERTEX
  5
B4
  8
THROUGH_CUT
 10
67.27714924823735
 20
34.489904922095
 30
0.0
 42
0.8237336233316485
  0
VERTEX
  5
B5
  8
THROUGH_CUT
 10
67.24945262238317
 20
34.09904301954591
 30
0.0
 42
0.8241469133979028
  0
VERTEX
  5
B6
  8
THROUGH_CUT
 10
67.4218674963081
 20
34.4508722138761
 30
0.0
 42
0.0964029187071367
  0
VERTEX
  5
B7
  8
THROUGH_CUT
 10
67.35321663869428
 20
34.48451475733489
 30
0.0
 42
0.0966513828627388
  0
SEQEND
  5
B8
  8
THROUGH_CUT
  0
POLYLINE
  5
47
  8
THROUGH_CUT
 66
     1
 10
0.0
 20
0.0
 30
0.0
 70
     1
  0
VERTEX
  5
B9
  8
THROUGH_CUT
 10
85.97668945100429
 20
38.13902002925313
 30
0.0
 42
0.9741568709219529
  0
VERTEX
  5
BA
  8
THROUGH_CUT
 10
85.70536105610864
 20
38.40488080960817
 30
0.0
 42
0.9741568709210869
  0
VERTEX
  5
BB
  8
THROUGH_CUT
 10
85.96240352670154
 20
38.12518415120992
 30
0.0
 42
0.013090717084351
  0
VERTEX
  5
BC
  8
THROUGH_CUT
 10
85.96972764146145
 20
38.13191504518475
 30
0.0
 42
0.0130907170844029
  0
SEQEND
  5
BD
  8
THROUGH_CUT
  0
POLYLINE
  5
48
  8
THROUGH_CUT
 66
     1
 10
0.0
 20
0.0
 30
0.0
 70
     1
  0
VERTEX
  5
BE
  8
THROUGH_CUT
 10
90.23427584176831
 20
5.992813828145617
 30
0.0
 42
0.8237336233316411
  0
VERTEX
  5
BF
  8
THROUGH_CUT
 10
90.20657921591413
 20
5.601951925596524
 30
0.0
 42
0.8241469133978591
  0
VERTEX
  5
C0
  8
THROUGH_CUT
 10
90.37899408983905
 20
5.953781119926715
 30
0.0
 42
0.0964029187070884
  0
VERTEX
  5
C1
  8
THROUGH_CUT
 10
90.31034323222522
 20
5.987423663385509
 30
0.0
 42
0.0966513828628164
  0
SEQEND
  5
C2
  8
THROUGH_CUT
  0
POLYLINE
  5
49
  8
THROUGH_CUT
 66
     1
 10
0.0
 20
0.0
 30
0.0
 70
     1
  0
VERTEX
  5
C3
  8
THROUGH_CUT
 10
1.656742815033157
 20
33.88784082535004
 30
0.0
  0
VERTEX
  5
C4
  8
THROUGH_CUT
 10
7.656742815033157
 20
33.88784082535004
 30
0.0
  0
VERTEX
  5
C5
  8
THROUGH_CUT
 10
7.656742815033157
 20
39.88784082535004
 30
0.0
  0
VERTEX
  5
C6
  8
THROUGH_CUT
 10
1.656742815033157
 20
39.88784082535004
 30
0.0
  0
SEQEND
  5
C7
  8
THROUGH_CUT
  0
POLYLINE
  5
4A
  8
THROUGH_CUT
 66
     1
 10
0.0
 20
0.0
 30
0.0
 70
     1
  0
VERTEX
  5
C8
  8
THROUGH_CUT
 10
4.656742815033157
 20
39.18784082535004
 30
0.0
 42
0.4142135623730951
  0
VERTEX
  5
C9
  8
THROUGH_CUT
 10
4.281742815033157
 20
38.81284082535004
 30
0.0
 42
0.4142135623730951
  0
VERTEX
  5
CA
  8
THROUGH_CUT
 10
4.656742815033157
 20
38.43784082535004
 30
0.0
 42
0.4142135623730951
  0
VERTEX
  5
CB
  8
THROUGH_CUT
 10
5.031742815033157
 20
38.81284082535004
 30
0.0
 42
0.4142135623730951
  0
SEQEND
  5
CC
  8
THROUGH_CUT
  0
POLYLINE
  5
4B
  8
THROUGH_CUT
 66
     1
 10
0.0
 20
0.0
 30
0.0
 70
     1
  0
VERTEX
  5
CD
  8
THROUGH_CUT
 10
8.656742815033157
 20
33.88784082535004
 30
0.0
  0
VERTEX
  5
CE
  8
THROUGH_CUT
 10
14.65674281503316
 20
33.88784082535004
 30
0.0
  0
VERTEX
  5
CF
  8
THROUGH_CUT
 10
14.65674281503316
 20
39.88784082535004
 30
0.0
  0
VERTEX
  5
D0
  8
THROUGH_CUT
 10
8.656742815033157
 20
39.88784082535004
 30
0.0
  0
SEQEND
  5
D1
  8
THROUGH_CUT
  0
POLYLINE
  5
4C
  8
THROUGH_CUT
 66
     1
 10
0.0
 20
0.0
 30
0.0
 70
     1
  0
VERTEX
  5
D2
  8
THROUGH_CUT
 10
11.65674281503316
 20
39.18784082535004
 30
0.0
 42
0.4142135623730951
  0
VERTEX
  5
D3
  8
THROUGH_CUT
 10
11.28174281503316
 20
38.81284082535004
 30
0.0
 42
0.4142135623730951
  0
VERTEX
  5
D4
  8
THROUGH_CUT
 10
11.65674281503316
 20
38.43784082535004
 30
0.0
 42
0.4142135623730951
  0
VERTEX
  5
D5
  8
THROUGH_CUT
 10
12.03174281503316
 20
38.81284082535004
 30
0.0
 42
0.4142135623730951
  0
SEQEND
  5
D6
  8
THROUGH_CUT
  0
POLYLINE
  5
4D
  8
THROUGH_CUT
 66
     1
 10
0.0
 20
0.0
 30
0.0
 70
     1
  0
VERTEX
  5
D7
  8
THROUGH_CUT
 10
15.65674281503316
 20
33.88784082535004
 30
0.0
  0
VERTEX
  5
D8
  8
THROUGH_CUT
 10
21.65674281503316
 20
33.88784082535004
 30
0.0
  0
VERTEX
  5
D9
  8
THROUGH_CUT
 10
21.65674281503316
 20
39.88784082535004
 30
0.0
  0
VERTEX
  5
DA
  8
THROUGH_CUT
 10
15.65674281503316
 20
39.88784082535004
 30
0.0
  0
SEQEND
  5
DB
  8
THROUGH_CUT
  0
POLYLINE
  5
4E
  8
THROUGH_CUT
 66
     1
 10
0.0
 20
0.0
 30
0.0
 70
     1
  0
VERTEX
  5
DC
  8
THROUGH_CUT
 10
18.65674281503316
 20
39.18784082535004
 30
0.0
 42
0.4142135623730951
  0
VERTEX
  5
DD
  8
THROUGH_CUT
 10
18.28174281503316
 20
38.81284082535004
 30
0.0
 42
0.4142135623730951
  0
VERTEX
  5
DE
  8
THROUGH_CUT
 10
18.65674281503316
 20
38.43784082535004
 30
0.0
 42
0.4142135623730951
  0
VERTEX
  5
DF
  8
THROUGH_CUT
 10
19.03174281503316
 20
38.81284082535004
 30
0.0
 42
0.4142135623730951
  0
SEQEND
  5
E0
  8
THROUGH_CUT
  0
POLYLINE
  5
4F
  8
THROUGH_CUT
 66
     1
 10
0.0
 20
0.0
 30
0.0
 70
     1
  0
VERTEX
  5
E1
  8
THROUGH_CUT
 10
22.65674281503316
 20
33.88784082535004
 30
0.0
  0
VERTEX
  5
E2
  8
THROUGH_CUT
 10
28.65674281503316
 20
33.88784082535004
 30
0.0
  0
VERTEX
  5
E3
  8
THROUGH_CUT
 10
28.65674281503316
 20
39.88784082535004
 30
0.0
  0
VERTEX
  5
E4
  8
THROUGH_CUT
 10
22.65674281503316
 20
39.88784082535004
 30
0.0
  0
SEQEND
  5
E5
  8
THROUGH_CUT
  0
POLYLINE
  5
50
  8
THROUGH_CUT
 66
     1
 10
0.0
 20
0.0
 30
0.0
 70
     1
  0
VERTEX
  5
E6
  8
THROUGH_CUT
 10
25.65674281503316
 20
39.18784082535004
 30
0.0
 42
0.4142135623730951
  0
VERTEX
  5
E7
  8
THROUGH_CUT
 10
25.28174281503316
 20
38.81284082535004
 30
0.0
 42
0.4142135623730951
  0
VERTEX
  5
E8
  8
THROUGH_CUT
 10
25.65674281503316
 20
38.43784082535004
 30
0.0
 42
0.4142135623730951
  0
VERTEX
  5
E9
  8
THROUGH_CUT
 10
26.03174281503316
 20
38.81284082535004
 30
0.0
 42
0.4142135623730951
  0
SEQEND
  5
EA
  8
THROUGH_CUT
  0
POLYLINE
  5
51
  8
THROUGH_CUT
 66
     1
 10
0.0
 20
0.0
 30
0.0
 70
     1
  0
VERTEX
  5
EB
  8
THROUGH_CUT
 10
29.65674281503316
 20
33.88784082535004
 30
0.0
  0
VERTEX
  5
EC
  8
THROUGH_CUT
 10
35.65674281503316
 20
33.88784082535004
 30
0.0
  0
VERTEX
  5
ED
  8
THROUGH_CUT
 10
35.65674281503316
 20
39.88784082535004
 30
0.0
  0
VERTEX
  5
EE
  8
THROUGH_CUT
 10
29.65674281503316
 20
39.88784082535004
 30
0.0
  0
SEQEND
  5
EF
  8
THROUGH_CUT
  0
POLYLINE
  5
52
  8
THROUGH_CUT
 66
     1
 10
0.0
 20
0.0
 30
0.0
 70
     1
  0
VERTEX
  5
F0
  8
THROUGH_CUT
 10
32.65674281503316
 20
39.18784082535004
 30
0.0
 42
0.4142135623730951
  0
VERTEX
  5
F1
  8
THROUGH_CUT
 10
32.28174281503316
 20
38.81284082535004
 30
0.0
 42
0.4142135623730951
  0
VERTEX
  5
F2
  8
THROUGH_CUT
 10
32.65674281503316
 20
38.43784082535004
 30
0.0
 42
0.4142135623730951
  0
VERTEX
  5
F3
  8
THROUGH_CUT
 10
33.03174281503316
 20
38.81284082535004
 30
0.0
 42
0.4142135623730951
  0
SEQEND
  5
F4
  8
THROUGH_CUT
  0
POLYLINE
  5
53
  8
THROUGH_CUT
 66
     1
 10
0.0
 20
0.0
 30
0.0
 70
     1
  0
VERTEX
  5
F5
  8
THROUGH_CUT
 10
43.65674281503316
 20
33.88784082535004
 30
0.0
  0
VERTEX
  5
F6
  8
THROUGH_CUT
 10
49.65674281503316
 20
33.88784082535004
 30
0.0
  0
VERTEX
  5
F7
  8
THROUGH_CUT
 10
49.65674281503316
 20
39.88784082535004
 30
0.0
  0
VERTEX
  5
F8
  8
THROUGH_CUT
 10
43.65674281503316
 20
39.88784082535004
 30
0.0
  0
SEQEND
  5
F9
  8
THROUGH_CUT
  0
POLYLINE
  5
54
  8
THROUGH_CUT
 66
     1
 10
0.0
 20
0.0
 30
0.0
 70
     1
  0
VERTEX
  5
FA
  8
THROUGH_CUT
 10
46.65674281503316
 20
39.18784082535004
 30
0.0
 42
0.4142135623730951
  0
VERTEX
  5
FB
  8
THROUGH_CUT
 10
46.28174281503316
 20
38.81284082535004
 30
0.0
 42
0.4142135623730951
  0
VERTEX
  5
FC
  8
THROUGH_CUT
 10
46.65674281503316
 20
38.43784082535004
 30
0.0
 42
0.4142135623730951
  0
VERTEX
  5
FD
  8
THROUGH_CUT
 10
47.03174281503316
 20
38.81284082535004
 30
0.0
 42
0.4142135623730951
  0
SEQEND
  5
FE
  8
THROUGH_CUT
  0
POLYLINE
  5
55
  8
THROUGH_CUT
 66
     1
 10
0.0
 20
0.0
 30
0.0
 70
     1
  0
VERTEX
  5
FF
  8
THROUGH_CUT
 10
50.65674281503316
 20
33.88784082535004
 30
0.0
  0
VERTEX
  5
100
  8
THROUGH_CUT
 10
56.65674281503316
 20
33.88784082535004
 30
0.0
  0
VERTEX
  5
101
  8
THROUGH_CUT
 10
56.65674281503316
 20
39.88784082535004
 30
0.0
  0
VERTEX
  5
102
  8
THROUGH_CUT
 10
50.65674281503316
 20
39.88784082535004
 30
0.0
  0
SEQEND
  5
103
  8
THROUGH_CUT
  0
POLYLINE
  5
56
  8
THROUGH_CUT
 66
     1
 10
0.0
 20
0.0
 30
0.0
 70
     1
  0
VERTEX
  5
104
  8
THROUGH_CUT
 10
53.65674281503316
 20
39.18784082535004
 30
0.0
 42
0.4142135623730951
  0
VERTEX
  5
105
  8
THROUGH_CUT
 10
53.28174281503316
 20
38.81284082535004
 30
0.0
 42
0.4142135623730951
  0
VERTEX
  5
106
  8
THROUGH_CUT
 10
53.65674281503316
 20
38.43784082535004
 30
0.0
 42
0.4142135623730951
  0
VERTEX
  5
107
  8
THROUGH_CUT
 10
54.03174281503316
 20
38.81284082535004
 30
0.0
 42
0.4142135623730951
  0
SEQEND
  5
108
  8
THROUGH_CUT
  0
POLYLINE
  5
57
  8
THROUGH_CUT
 66
     1
 10
0.0
 20
0.0
 30
0.0
 70
     1
  0
VERTEX
  5
109
  8
THROUGH_CUT
 10
57.65674281503316
 20
33.88784082535004
 30
0.0
  0
VERTEX
  5
10A
  8
THROUGH_CUT
 10
63.65674281503316
 20
33.88784082535004
 30
0.0
  0
VERTEX
  5
10B
  8
THROUGH_CUT
 10
63.65674281503316
 20
39.88784082535004
 30
0.0
  0
VERTEX
  5
10C
  8
THROUGH_CUT
 10
57.65674281503316
 20
39.88784082535004
 30
0.0
  0
SEQEND
  5
10D
  8
THROUGH_CUT
  0
POLYLINE
  5
58
  8
THROUGH_CUT
 66
     1
 10
0.0
 20
0.0
 30
0.0
 70
     1
  0
VERTEX
  5
10E
  8
THROUGH_CUT
 10
60.65674281503316
 20
39.18784082535004
 30
0.0
 42
0.4142135623730951
  0
VERTEX
  5
10F
  8
THROUGH_CUT
 10
60.28174281503316
 20
38.81284082535004
 30
0.0
 42
0.4142135623730951
  0
VERTEX
  5
110
  8
THROUGH_CUT
 10
60.65674281503316
 20
38.43784082535004
 30
0.0
 42
0.4142135623730951
  0
VERTEX
  5
111
  8
THROUGH_CUT
 10
61.03174281503316
 20
38.81284082535004
 30
0.0
 42
0.4142135623730951
  0
SEQEND
  5
112
  8
THROUGH_CUT
  0
POLYLINE
  5
59
  8
THROUGH_CUT
 66
     1
 10
0.0
 20
0.0
 30
0.0
 70
     1
  0
VERTEX
  5
113
  8
THROUGH_CUT
 10
64.65674281503316
 20
40.88784082535004
 30
0.0
  0
VERTEX
  5
114
  8
THROUGH_CUT
 10
70.65674281503316
 20
40.88784082535004
 30
0.0
  0
VERTEX
  5
115
  8
THROUGH_CUT
 10
70.65674281503316
 20
46.88784082535004
 30
0.0
  0
VERTEX
  5
116
  8
THROUGH_CUT
 10
64.65674281503316
 20
46.88784082535004
 30
0.0
  0
SEQEND
  5
117
  8
THROUGH_CUT
  0
POLYLINE
  5
5A
  8
THROUGH_CUT
 66
     1
 10
0.0
 20
0.0
 30
0.0
 70
     1
  0
VERTEX
  5
118
  8
THROUGH_CUT
 10
67.65674281503316
 20
46.18784082535004
 30
0.0
 42
0.4142135623730951
  0
VERTEX
  5
119
  8
THROUGH_CUT
 10
67.28174281503316
 20
45.81284082535004
 30
0.0
 42
0.4142135623730951
  0
VERTEX
  5
11A
  8
THROUGH_CUT
 10
67.65674281503316
 20
45.43784082535004
 30
0.0
 42
0.4142135623730951
  0
VERTEX
  5
11B
  8
THROUGH_CUT
 10
68.03174281503316
 20
45.81284082535004
 30
0.0
 42
0.4142135623730951
  0
SEQEND
  5
11C
  8
THROUGH_CUT
  0
POLYLINE
  5
5B
  8
THROUGH_CUT
 66
     1
 10
0.0
 20
0.0
 30
0.0
 70
     1
  0
VERTEX
  5
11D
  8
THROUGH_CUT
 10
67.65676815075383
 20
42.33780071791941
 30
0.0
 42
0.4142135623730951
  0
VERTEX
  5
11E
  8
THROUGH_CUT
 10
67.28176815075383
 20
41.96280071791941
 30
0.0
 42
0.4142135623730951
  0
VERTEX
  5
11F
  8
THROUGH_CUT
 10
67.65676815075383
 20
41.58780071791941
 30
0.0
 42
0.4142135623730951
  0
VERTEX
  5
120
  8
THROUGH_CUT
 10
68.03176815075383
 20
41.96280071791941
 30
0.0
 42
0.4142135623730951
  0
SEQEND
  5
121
  8
THROUGH_CUT
  0
POLYLINE
  5
5C
  8
THROUGH_CUT
 66
     1
 10
0.0
 20
0.0
 30
0.0
 70
     1
  0
VERTEX
  5
122
  8
THROUGH_CUT
 10
57.65674281503316
 20
40.88784082535004
 30
0.0
  0
VERTEX
  5
123
  8
THROUGH_CUT
 10
63.65674281503316
 20
40.88784082535004
 30
0.0
  0
VERTEX
  5
124
  8
THROUGH_CUT
 10
63.65674281503316
 20
46.88784082535004
 30
0.0
  0
VERTEX
  5
125
  8
THROUGH_CUT
 10
57.65674281503316
 20
46.88784082535004
 30
0.0
  0
SEQEND
  5
126
  8
THROUGH_CUT
  0
POLYLINE
  5
5D
  8
THROUGH_CUT
 66
     1
 10
0.0
 20
0.0
 30
0.0
 70
     1
  0
VERTEX
  5
127
  8
THROUGH_CUT
 10
60.65674281503316
 20
46.18784082535004
 30
0.0
 42
0.4142135623730951
  0
VERTEX
  5
128
  8
THROUGH_CUT
 10
60.28174281503316
 20
45.81284082535004
 30
0.0
 42
0.4142135623730951
  0
VERTEX
  5
129
  8
THROUGH_CUT
 10
60.65674281503316
 20
45.43784082535004
 30
0.0
 42
0.4142135623730951
  0
VERTEX
  5
12A
  8
THROUGH_CUT
 10
61.03174281503316
 20
45.81284082535004
 30
0.0
 42
0.4142135623730951
  0
SEQEND
  5
12B
  8
THROUGH_CUT
  0
POLYLINE
  5
5E
  8
THROUGH_CUT
 66
     1
 10
0.0
 20
0.0
 30
0.0
 70
     1
  0
VERTEX
  5
12C
  8
THROUGH_CUT
 10
60.65676815075383
 20
42.33780071791941
 30
0.0
 42
0.4142135623730951
  0
VERTEX
  5
12D
  8
THROUGH_CUT
 10
60.28176815075383
 20
41.96280071791941
 30
0.0
 42
0.4142135623730951
  0
VERTEX
  5
12E
  8
THROUGH_CUT
 10
60.65676815075383
 20
41.58780071791941
 30
0.0
 42
0.4142135623730951
  0
VERTEX
  5
12F
  8
THROUGH_CUT
 10
61.03176815075383
 20
41.96280071791941
 30
0.0
 42
0.4142135623730951
  0
SEQEND
  5
130
  8
THROUGH_CUT
  0
POLYLINE
  5
5F
  8
THROUGH_CUT
 66
     1
 10
0.0
 20
0.0
 30
0.0
 70
     1
  0
VERTEX
  5
131
  8
THROUGH_CUT
 10
50.65674281503316
 20
40.88784082535004
 30
0.0
  0
VERTEX
  5
132
  8
THROUGH_CUT
 10
56.65674281503316
 20
40.88784082535004
 30
0.0
  0
VERTEX
  5
133
  8
THROUGH_CUT
 10
56.65674281503316
 20
46.88784082535004
 30
0.0
  0
VERTEX
  5
134
  8
THROUGH_CUT
 10
50.65674281503316
 20
46.88784082535004
 30
0.0
  0
SEQEND
  5
135
  8
THROUGH_CUT
  0
POLYLINE
  5
60
  8
THROUGH_CUT
 66
     1
 10
0.0
 20
0.0
 30
0.0
 70
     1
  0
VERTEX
  5
136
  8
THROUGH_CUT
 10
53.65674281503316
 20
46.18784082535004
 30
0.0
 42
0.4142135623730951
  0
VERTEX
  5
137
  8
THROUGH_CUT
 10
53.28174281503316
 20
45.81284082535004
 30
0.0
 42
0.4142135623730951
  0
VERTEX
  5
138
  8
THROUGH_CUT
 10
53.65674281503316
 20
45.43784082535004
 30
0.0
 42
0.4142135623730951
  0
VERTEX
  5
139
  8
THROUGH_CUT
 10
54.03174281503316
 20
45.81284082535004
 30
0.0
 42
0.4142135623730951
  0
SEQEND
  5
13A
  8
THROUGH_CUT
  0
POLYLINE
  5
61
  8
THROUGH_CUT
 66
     1
 10
0.0
 20
0.0
 30
0.0
 70
     1
  0
VERTEX
  5
13B
  8
THROUGH_CUT
 10
53.65676815075383
 20
42.33780071791941
 30
0.0
 42
0.4142135623730951
  0
VERTEX
  5
13C
  8
THROUGH_CUT
 10
53.28176815075383
 20
41.96280071791941
 30
0.0
 42
0.4142135623730951
  0
VERTEX
  5
13D
  8
THROUGH_CUT
 10
53.65676815075383
 20
41.58780071791941
 30
0.0
 42
0.4142135623730951
  0
VERTEX
  5
13E
  8
THROUGH_CUT
 10
54.03176815075383
 20
41.96280071791941
 30
0.0
 42
0.4142135623730951
  0
SEQEND
  5
13F
  8
THROUGH_CUT
  0
POLYLINE
  5
62
  8
THROUGH_CUT
 66
     1
 10
0.0
 20
0.0
 30
0.0
 70
     1
  0
VERTEX
  5
140
  8
THROUGH_CUT
 10
43.65674281503316
 20
40.88784082535004
 30
0.0
  0
VERTEX
  5
141
  8
THROUGH_CUT
 10
49.65674281503316
 20
40.88784082535004
 30
0.0
  0
VERTEX
  5
142
  8
THROUGH_CUT
 10
49.65674281503316
 20
46.88784082535004
 30
0.0
  0
VERTEX
  5
143
  8
THROUGH_CUT
 10
43.65674281503316
 20
46.88784082535004
 30
0.0
  0
SEQEND
  5
144
  8
THROUGH_CUT
  0
POLYLINE
  5
63
  8
THROUGH_CUT
 66
     1
 10
0.0
 20
0.0
 30
0.0
 70
     1
  0
VERTEX
  5
145
  8
THROUGH_CUT
 10
46.65674281503316
 20
46.18784082535004
 30
0.0
 42
0.4142135623730951
  0
VERTEX
  5
146
  8
THROUGH_CUT
 10
46.28174281503316
 20
45.81284082535004
 30
0.0
 42
0.4142135623730951
  0
VERTEX
  5
147
  8
THROUGH_CUT
 10
46.65674281503316
 20
45.43784082535004
 30
0.0
 42
0.4142135623730951
  0
VERTEX
  5
148
  8
THROUGH_CUT
 10
47.03174281503316
 20
45.81284082535004
 30
0.0
 42
0.4142135623730951
  0
SEQEND
  5
149
  8
THROUGH_CUT
  0
POLYLINE
  5
64
  8
THROUGH_CUT
 66
     1
 10
0.0
 20
0.0
 30
0.0
 70
     1
  0
VERTEX
  5
14A
  8
THROUGH_CUT
 10
46.65676815075383
 20
42.33780071791941
 30
0.0
 42
0.4142135623730951
  0
VERTEX
  5
14B
  8
THROUGH_CUT
 10
46.28176815075383
 20
41.96280071791941
 30
0.0
 42
0.4142135623730951
  0
VERTEX
  5
14C
  8
THROUGH_CUT
 10
46.65676815075383
 20
41.58780071791941
 30
0.0
 42
0.4142135623730951
  0
VERTEX
  5
14D
  8
THROUGH_CUT
 10
47.03176815075383
 20
41.96280071791941
 30
0.0
 42
0.4142135623730951
  0
SEQEND
  5
14E
  8
THROUGH_CUT
  0
POLYLINE
  5
65
  8
THROUGH_CUT
 66
     1
 10
0.0
 20
0.0
 30
0.0
 70
     1
  0
VERTEX
  5
14F
  8
THROUGH_CUT
 10
36.65674281503316
 20
40.88784082535004
 30
0.0
  0
VERTEX
  5
150
  8
THROUGH_CUT
 10
42.65674281503316
 20
40.88784082535004
 30
0.0
  0
VERTEX
  5
151
  8
THROUGH_CUT
 10
42.65674281503316
 20
46.88784082535004
 30
0.0
  0
VERTEX
  5
152
  8
THROUGH_CUT
 10
36.65674281503316
 20
46.88784082535004
 30
0.0
  0
SEQEND
  5
153
  8
THROUGH_CUT
  0
POLYLINE
  5
66
  8
THROUGH_CUT
 66
     1
 10
0.0
 20
0.0
 30
0.0
 70
     1
  0
VERTEX
  5
154
  8
THROUGH_CUT
 10
39.65674281503316
 20
46.18784082535004
 30
0.0
 42
0.4142135623730951
  0
VERTEX
  5
155
  8
THROUGH_CUT
 10
39.28174281503316
 20
45.81284082535004
 30
0.0
 42
0.4142135623730951
  0
VERTEX
  5
156
  8
THROUGH_CUT
 10
39.65674281503316
 20
45.43784082535004
 30
0.0
 42
0.4142135623730951
  0
VERTEX
  5
157
  8
THROUGH_CUT
 10
40.03174281503316
 20
45.81284082535004
 30
0.0
 42
0.4142135623730951
  0
SEQEND
  5
158
  8
THROUGH_CUT
  0
POLYLINE
  5
67
  8
THROUGH_CUT
 66
     1
 10
0.0
 20
0.0
 30
0.0
 70
     1
  0
VERTEX
  5
159
  8
THROUGH_CUT
 10
39.65676815075383
 20
42.33780071791941
 30
0.0
 42
0.4142135623730951
  0
VERTEX
  5
15A
  8
THROUGH_CUT
 10
39.28176815075383
 20
41.96280071791941
 30
0.0
 42
0.4142135623730951
  0
VERTEX
  5
15B
  8
THROUGH_CUT
 10
39.65676815075383
 20
41.58780071791941
 30
0.0
 42
0.4142135623730951
  0
VERTEX
  5
15C
  8
THROUGH_CUT
 10
40.03176815075383
 20
41.96280071791941
 30
0.0
 42
0.4142135623730951
  0
SEQEND
  5
15D
  8
THROUGH_CUT
  0
POLYLINE
  5
68
  8
THROUGH_CUT
 66
     1
 10
0.0
 20
0.0
 30
0.0
 70
     1
  0
VERTEX
  5
15E
  8
THROUGH_CUT
 10
29.65674281503316
 20
40.88784082535004
 30
0.0
  0
VERTEX
  5
15F
  8
THROUGH_CUT
 10
35.65674281503316
 20
40.88784082535004
 30
0.0
  0
VERTEX
  5
160
  8
THROUGH_CUT
 10
35.65674281503316
 20
46.88784082535004
 30
0.0
  0
VERTEX
  5
161
  8
THROUGH_CUT
 10
29.65674281503316
 20
46.88784082535004
 30
0.0
  0
SEQEND
  5
162
  8
THROUGH_CUT
  0
POLYLINE
  5
69
  8
THROUGH_CUT
 66
     1
 10
0.0
 20
0.0
 30
0.0
 70
     1
  0
VERTEX
  5
163
  8
THROUGH_CUT
 10
32.65674281503316
 20
46.18784082535004
 30
0.0
 42
0.4142135623730951
  0
VERTEX
  5
164
  8
THROUGH_CUT
 10
32.28174281503316
 20
45.81284082535004
 30
0.0
 42
0.4142135623730951
  0
VERTEX
  5
165
  8
THROUGH_CUT
 10
32.65674281503316
 20
45.43784082535004
 30
0.0
 42
0.4142135623730951
  0
VERTEX
  5
166
  8
THROUGH_CUT
 10
33.03174281503316
 20
45.81284082535004
 30
0.0
 42
0.4142135623730951
  0
SEQEND
  5
167
  8
THROUGH_CUT
  0
POLYLINE
  5
6A
  8
THROUGH_CUT
 66
     1
 10
0.0
 20
0.0
 30
0.0
 70
     1
  0
VERTEX
  5
168
  8
THROUGH_CUT
 10
32.65676815075383
 20
42.33780071791941
 30
0.0
 42
0.4142135623730951
  0
VERTEX
  5
169
  8
THROUGH_CUT
 10
32.28176815075383
 20
41.96280071791941
 30
0.0
 42
0.4142135623730951
  0
VERTEX
  5
16A
  8
THROUGH_CUT
 10
32.65676815075383
 20
41.58780071791941
 30
0.0
 42
0.4142135623730951
  0
VERTEX
  5
16B
  8
THROUGH_CUT
 10
33.03176815075383
 20
41.96280071791941
 30
0.0
 42
0.4142135623730951
  0
SEQEND
  5
16C
  8
THROUGH_CUT
  0
POLYLINE
  5
6B
  8
THROUGH_CUT
 66
     1
 10
0.0
 20
0.0
 30
0.0
 70
     1
  0
VERTEX
  5
16D
  8
THROUGH_CUT
 10
22.65674281503316
 20
40.88784082535004
 30
0.0
  0
VERTEX
  5
16E
  8
THROUGH_CUT
 10
28.65674281503316
 20
40.88784082535004
 30
0.0
  0
VERTEX
  5
16F
  8
THROUGH_CUT
 10
28.65674281503316
 20
46.88784082535004
 30
0.0
  0
VERTEX
  5
170
  8
THROUGH_CUT
 10
22.65674281503316
 20
46.88784082535004
 30
0.0
  0
SEQEND
  5
171
  8
THROUGH_CUT
  0
POLYLINE
  5
6C
  8
THROUGH_CUT
 66
     1
 10
0.0
 20
0.0
 30
0.0
 70
     1
  0
VERTEX
  5
172
  8
THROUGH_CUT
 10
25.65674281503316
 20
46.18784082535004
 30
0.0
 42
0.4142135623730951
  0
VERTEX
  5
173
  8
THROUGH_CUT
 10
25.28174281503316
 20
45.81284082535004
 30
0.0
 42
0.4142135623730951
  0
VERTEX
  5
174
  8
THROUGH_CUT
 10
25.65674281503316
 20
45.43784082535004
 30
0.0
 42
0.4142135623730951
  0
VERTEX
  5
175
  8
THROUGH_CUT
 10
26.03174281503316
 20
45.81284082535004
 30
0.0
 42
0.4142135623730951
  0
SEQEND
  5
176
  8
THROUGH_CUT
  0
POLYLINE
  5
6D
  8
THROUGH_CUT
 66
     1
 10
0.0
 20
0.0
 30
0.0
 70
     1
  0
VERTEX
  5
177
  8
THROUGH_CUT
 10
25.65676815075383
 20
42.33780071791941
 30
0.0
 42
0.4142135623730951
  0
VERTEX
  5
178
  8
THROUGH_CUT
 10
25.28176815075383
 20
41.96280071791941
 30
0.0
 42
0.4142135623730951
  0
VERTEX
  5
179
  8
THROUGH_CUT
 10
25.65676815075383
 20
41.58780071791941
 30
0.0
 42
0.4142135623730951
  0
VERTEX
  5
17A
  8
THROUGH_CUT
 10
26.03176815075383
 20
41.96280071791941
 30
0.0
 42
0.4142135623730951
  0
SEQEND
  5
17B
  8
THROUGH_CUT
  0
POLYLINE
  5
6E
  8
THROUGH_CUT
 66
     1
 10
0.0
 20
0.0
 30
0.0
 70
     1
  0
VERTEX
  5
17C
  8
THROUGH_CUT
 10
15.65674281503316
 20
40.88784082535004
 30
0.0
  0
VERTEX
  5
17D
  8
THROUGH_CUT
 10
21.65674281503316
 20
40.88784082535004
 30
0.0
  0
VERTEX
  5
17E
  8
THROUGH_CUT
 10
21.65674281503316
 20
46.88784082535004
 30
0.0
  0
VERTEX
  5
17F
  8
THROUGH_CUT
 10
15.65674281503316
 20
46.88784082535004
 30
0.0
  0
SEQEND
  5
180
  8
THROUGH_CUT
  0
POLYLINE
  5
6F
  8
THROUGH_CUT
 66
     1
 10
0.0
 20
0.0
 30
0.0
 70
     1
  0
VERTEX
  5
181
  8
THROUGH_CUT
 10
18.65674281503316
 20
46.18784082535004
 30
0.0
 42
0.4142135623730951
  0
VERTEX
  5
182
  8
THROUGH_CUT
 10
18.28174281503316
 20
45.81284082535004
 30
0.0
 42
0.4142135623730951
  0
VERTEX
  5
183
  8
THROUGH_CUT
 10
18.65674281503316
 20
45.43784082535004
 30
0.0
 42
0.4142135623730951
  0
VERTEX
  5
184
  8
THROUGH_CUT
 10
19.03174281503316
 20
45.81284082535004
 30
0.0
 42
0.4142135623730951
  0
SEQEND
  5
185
  8
THROUGH_CUT
  0
POLYLINE
  5
70
  8
THROUGH_CUT
 66
     1
 10
0.0
 20
0.0
 30
0.0
 70
     1
  0
VERTEX
  5
186
  8
THROUGH_CUT
 10
18.65676815075383
 20
42.33780071791941
 30
0.0
 42
0.4142135623730951
  0
VERTEX
  5
187
  8
THROUGH_CUT
 10
18.28176815075383
 20
41.96280071791941
 30
0.0
 42
0.4142135623730951
  0
VERTEX
  5
188
  8
THROUGH_CUT
 10
18.65676815075383
 20
41.58780071791941
 30
0.0
 42
0.4142135623730951
  0
VERTEX
  5
189
  8
THROUGH_CUT
 10
19.03176815075383
 20
41.96280071791941
 30
0.0
 42
0.4142135623730951
  0
SEQEND
  5
18A
  8
THROUGH_CUT
  0
POLYLINE
  5
71
  8
THROUGH_CUT
 66
     1
 10
0.0
 20
0.0
 30
0.0
 70
     1
  0
VERTEX
  5
18B
  8
THROUGH_CUT
 10
8.656742815033157
 20
40.88784082535004
 30
0.0
  0
VERTEX
  5
18C
  8
THROUGH_CUT
 10
14.65674281503316
 20
40.88784082535004
 30
0.0
  0
VERTEX
  5
18D
  8
THROUGH_CUT
 10
14.65674281503316
 20
46.88784082535004
 30
0.0
  0
VERTEX
  5
18E
  8
THROUGH_CUT
 10
8.656742815033157
 20
46.88784082535004
 30
0.0
  0
SEQEND
  5
18F
  8
THROUGH_CUT
  0
POLYLINE
  5
72
  8
THROUGH_CUT
 66
     1
 10
0.0
 20
0.0
 30
0.0
 70
     1
  0
VERTEX
  5
190
  8
THROUGH_CUT
 10
11.65674281503316
 20
46.18784082535004
 30
0.0
 42
0.4142135623730951
  0
VERTEX
  5
191
  8
THROUGH_CUT
 10
11.28174281503316
 20
45.81284082535004
 30
0.0
 42
0.4142135623730951
  0
VERTEX
  5
192
  8
THROUGH_CUT
 10
11.65674281503316
 20
45.43784082535004
 30
0.0
 42
0.4142135623730951
  0
VERTEX
  5
193
  8
THROUGH_CUT
 10
12.03174281503316
 20
45.81284082535004
 30
0.0
 42
0.4142135623730951
  0
SEQEND
  5
194
  8
THROUGH_CUT
  0
POLYLINE
  5
73
  8
THROUGH_CUT
 66
     1
 10
0.0
 20
0.0
 30
0.0
 70
     1
  0
VERTEX
  5
195
  8
THROUGH_CUT
 10
11.65676815075384
 20
42.33780071791941
 30
0.0
 42
0.4142135623730951
  0
VERTEX
  5
196
  8
THROUGH_CUT
 10
11.28176815075384
 20
41.96280071791941
 30
0.0
 42
0.4142135623730951
  0
VERTEX
  5
197
  8
THROUGH_CUT
 10
11.65676815075384
 20
41.58780071791941
 30
0.0
 42
0.4142135623730951
  0
VERTEX
  5
198
  8
THROUGH_CUT
 10
12.03176815075384
 20
41.96280071791941
 30
0.0
 42
0.4142135623730951
  0
SEQEND
  5
199
  8
THROUGH_CUT
  0
POLYLINE
  5
74
  8
THROUGH_CUT
 66
     1
 10
0.0
 20
0.0
 30
0.0
 70
     1
  0
VERTEX
  5
19A
  8
THROUGH_CUT
 10
1.656742815033157
 20
40.88784082535004
 30
0.0
  0
VERTEX
  5
19B
  8
THROUGH_CUT
 10
7.656742815033157
 20
40.88784082535004
 30
0.0
  0
VERTEX
  5
19C
  8
THROUGH_CUT
 10
7.656742815033157
 20
46.88784082535004
 30
0.0
  0
VERTEX
  5
19D
  8
THROUGH_CUT
 10
1.656742815033157
 20
46.88784082535004
 30
0.0
  0
SEQEND
  5
19E
  8
THROUGH_CUT
  0
POLYLINE
  5
75
  8
THROUGH_CUT
 66
     1
 10
0.0
 20
0.0
 30
0.0
 70
     1
  0
VERTEX
  5
19F
  8
THROUGH_CUT
 10
4.656742815033157
 20
46.18784082535004
 30
0.0
 42
0.4142135623730951
  0
VERTEX
  5
1A0
  8
THROUGH_CUT
 10
4.281742815033157
 20
45.81284082535004
 30
0.0
 42
0.4142135623730951
  0
VERTEX
  5
1A1
  8
THROUGH_CUT
 10
4.656742815033157
 20
45.43784082535004
 30
0.0
 42
0.4142135623730951
  0
VERTEX
  5
1A2
  8
THROUGH_CUT
 10
5.031742815033157
 20
45.81284082535004
 30
0.0
 42
0.4142135623730951
  0
SEQEND
  5
1A3
  8
THROUGH_CUT
  0
POLYLINE
  5
76
  8
THROUGH_CUT
 66
     1
 10
0.0
 20
0.0
 30
0.0
 70
     1
  0
VERTEX
  5
1A4
  8
THROUGH_CUT
 10
4.656768150753836
 20
42.33780071791941
 30
0.0
 42
0.4142135623730951
  0
VERTEX
  5
1A5
  8
THROUGH_CUT
 10
4.281768150753836
 20
41.96280071791941
 30
0.0
 42
0.4142135623730951
  0
VERTEX
  5
1A6
  8
THROUGH_CUT
 10
4.656768150753836
 20
41.58780071791941
 30
0.0
 42
0.4142135623730951
  0
VERTEX
  5
1A7
  8
THROUGH_CUT
 10
5.031768150753836
 20
41.96280071791941
 30
0.0
 42
0.4142135623730951
  0
SEQEND
  5
1A8
  8
THROUGH_CUT
  0
POLYLINE
  5
77
  8
THROUGH_CUT
 66
     1
 10
0.0
 20
0.0
 30
0.0
 70
     1
  0
VERTEX
  5
1A9
  8
THROUGH_CUT
 10
60.65676815075383
 20
35.33780071791941
 30
0.0
 42
0.4142135623730951
  0
VERTEX
  5
1AA
  8
THROUGH_CUT
 10
60.28176815075383
 20
34.96280071791941
 30
0.0
 42
0.4142135623730951
  0
VERTEX
  5
1AB
  8
THROUGH_CUT
 10
60.65676815075383
 20
34.58780071791941
 30
0.0
 42
0.4142135623730951
  0
VERTEX
  5
1AC
  8
THROUGH_CUT
 10
61.03176815075383
 20
34.96280071791941
 30
0.0
 42
0.4142135623730951
  0
SEQEND
  5
1AD
  8
THROUGH_CUT
  0
POLYLINE
  5
78
  8
THROUGH_CUT
 66
     1
 10
0.0
 20
0.0
 30
0.0
 70
     1
  0
VERTEX
  5
1AE
  8
THROUGH_CUT
 10
53.65676815075383
 20
35.33780071791941
 30
0.0
 42
0.4142135623730951
  0
VERTEX
  5
1AF
  8
THROUGH_CUT
 10
53.28176815075383
 20
34.96280071791941
 30
0.0
 42
0.4142135623730951
  0
VERTEX
  5
1B0
  8
THROUGH_CUT
 10
53.65676815075383
 20
34.58780071791941
 30
0.0
 42
0.4142135623730951
  0
VERTEX
  5
1B1
  8
THROUGH_CUT
 10
54.03176815075383
 20
34.96280071791941
 30
0.0
 42
0.4142135623730951
  0
SEQEND
  5
1B2
  8
THROUGH_CUT
  0
POLYLINE
  5
79
  8
THROUGH_CUT
 66
     1
 10
0.0
 20
0.0
 30
0.0
 70
     1
  0
VERTEX
  5
1B3
  8
THROUGH_CUT
 10
46.65676815075383
 20
35.33780071791941
 30
0.0
 42
0.4142135623730951
  0
VERTEX
  5
1B4
  8
THROUGH_CUT
 10
46.28176815075383
 20
34.96280071791941
 30
0.0
 42
0.4142135623730951
  0
VERTEX
  5
1B5
  8
THROUGH_CUT
 10
46.65676815075383
 20
34.58780071791941
 30
0.0
 42
0.4142135623730951
  0
VERTEX
  5
1B6
  8
THROUGH_CUT
 10
47.03176815075383
 20
34.96280071791941
 30
0.0
 42
0.4142135623730951
  0
SEQEND
  5
1B7
  8
THROUGH_CUT
  0
POLYLINE
  5
7A
  8
THROUGH_CUT
 66
     1
 10
0.0
 20
0.0
 30
0.0
 70
     1
  0
VERTEX
  5
1B8
  8
THROUGH_CUT
 10
32.65676815075383
 20
35.33780071791941
 30
0.0
 42
0.4142135623730951
  0
VERTEX
  5
1B9
  8
THROUGH_CUT
 10
32.28176815075383
 20
34.96280071791941
 30
0.0
 42
0.4142135623730951
  0
VERTEX
  5
1BA
  8
THROUGH_CUT
 10
32.65676815075383
 20
34.58780071791941
 30
0.0
 42
0.4142135623730951
  0
VERTEX
  5
1BB
  8
THROUGH_CUT
 10
33.03176815075383
 20
34.96280071791941
 30
0.0
 42
0.4142135623730951
  0
SEQEND
  5
1BC
  8
THROUGH_CUT
  0
POLYLINE
  5
7B
  8
THROUGH_CUT
 66
     1
 10
0.0
 20
0.0
 30
0.0
 70
     1
  0
VERTEX
  5
1BD
  8
THROUGH_CUT
 10
25.65676815075383
 20
35.33780071791941
 30
0.0
 42
0.4142135623730951
  0
VERTEX
  5
1BE
  8
THROUGH_CUT
 10
25.28176815075383
 20
34.96280071791941
 30
0.0
 42
0.4142135623730951
  0
VERTEX
  5
1BF
  8
THROUGH_CUT
 10
25.65676815075383
 20
34.58780071791941
 30
0.0
 42
0.4142135623730951
  0
VERTEX
  5
1C0
  8
THROUGH_CUT
 10
26.03176815075383
 20
34.96280071791941
 30
0.0
 42
0.4142135623730951
  0
SEQEND
  5
1C1
  8
THROUGH_CUT
  0
POLYLINE
  5
7C
  8
THROUGH_CUT
 66
     1
 10
0.0
 20
0.0
 30
0.0
 70
     1
  0
VERTEX
  5
1C2
  8
THROUGH_CUT
 10
18.65676815075383
 20
35.33780071791941
 30
0.0
 42
0.4142135623730951
  0
VERTEX
  5
1C3
  8
THROUGH_CUT
 10
18.28176815075383
 20
34.96280071791941
 30
0.0
 42
0.4142135623730951
  0
VERTEX
  5
1C4
  8
THROUGH_CUT
 10
18.65676815075383
 20
34.58780071791941
 30
0.0
 42
0.4142135623730951
  0
VERTEX
  5
1C5
  8
THROUGH_CUT
 10
19.03176815075383
 20
34.96280071791941
 30
0.0
 42
0.4142135623730951
  0
SEQEND
  5
1C6
  8
THROUGH_CUT
  0
POLYLINE
  5
7D
  8
THROUGH_CUT
 66
     1
 10
0.0
 20
0.0
 30
0.0
 70
     1
  0
VERTEX
  5
1C7
  8
THROUGH_CUT
 10
11.65676815075384
 20
35.33780071791941
 30
0.0
 42
0.4142135623730951
  0
VERTEX
  5
1C8
  8
THROUGH_CUT
 10
11.28176815075384
 20
34.96280071791941
 30
0.0
 42
0.4142135623730951
  0
VERTEX
  5
1C9
  8
THROUGH_CUT
 10
11.65676815075384
 20
34.58780071791941
 30
0.0
 42
0.4142135623730951
  0
VERTEX
  5
1CA
  8
THROUGH_CUT
 10
12.03176815075384
 20
34.96280071791941
 30
0.0
 42
0.4142135623730951
  0
SEQEND
  5
1CB
  8
THROUGH_CUT
  0
POLYLINE
  5
7E
  8
THROUGH_CUT
 66
     1
 10
0.0
 20
0.0
 30
0.0
 70
     1
  0
VERTEX
  5
1CC
  8
THROUGH_CUT
 10
4.656768150753836
 20
35.33780071791941
 30
0.0
 42
0.4142135623730951
  0
VERTEX
  5
1CD
  8
THROUGH_CUT
 10
4.281768150753836
 20
34.96280071791941
 30
0.0
 42
0.4142135623730951
  0
VERTEX
  5
1CE
  8
THROUGH_CUT
 10
4.656768150753836
 20
34.58780071791941
 30
0.0
 42
0.4142135623730951
  0
VERTEX
  5
1CF
  8
THROUGH_CUT
 10
5.031768150753836
 20
34.96280071791941
 30
0.0
 42
0.4142135623730951
  0
SEQEND
  5
1D0
  8
THROUGH_CUT
  0
POLYLINE
  5
7F
  8
THROUGH_CUT
 66
     1
 10
0.0
 20
0.0
 30
0.0
 70
     1
  0
VERTEX
  5
1D1
  8
THROUGH_CUT
 10
0.994539211864399
 20
27.61751760347767
 30
0.0
  0
VERTEX
  5
1D2
  8
THROUGH_CUT
 10
0.994539211864399
 20
30.61751760347767
 30
0.0
  0
VERTEX
  5
1D3
  8
THROUGH_CUT
 10
33.53955021186442
 20
30.61751760347767
 30
0.0
 42
0.4142135623731003
  0
VERTEX
  5
1D4
  8
THROUGH_CUT
 10
37.53955021186441
 20
34.61751760347767
 30
0.0
 42
-1.0
  0
VERTEX
  5
1D5
  8
THROUGH_CUT
 10
38.5395502118644
 20
34.61751760347767
 30
0.0
 42
0.9587292824586416
  0
VERTEX
  5
1D6
  8
THROUGH_CUT
 10
39.53777587159404
 20
34.57543358044155
 30
0.0
 42
-0.9536851849890002
  0
VERTEX
  5
1D7
  8
THROUGH_CUT
 10
39.5397722674851
 20
34.5753599447109
 30
0.0
 42
0.4111299260102337
  0
VERTEX
  5
1D8
  8
THROUGH_CUT
 10
43.5395502118644
 20
30.61751760347767
 30
0.0
  0
VERTEX
  5
1D9
  8
THROUGH_CUT
 10
72.9150872118644
 20
30.61751760347767
 30
0.0
 42
0.6590215623974431
  0
VERTEX
  5
1DA
  8
THROUGH_CUT
 10
75.81451899325792
 20
37.37311137385508
 30
0.0
 42
-0.9999999999999608
  0
VERTEX
  5
1DB
  8
THROUGH_CUT
 10
76.5393772118644
 20
38.06200960347769
 30
0.0
 42
0.9560668040221639
  0
VERTEX
  5
1DC
  8
THROUGH_CUT
 10
77.2936724827616
 20
38.7170076682666
 30
0.0
 42
-0.956488577441797
  0
VERTEX
  5
1DD
  8
THROUGH_CUT
 10
77.29518169875595
 20
38.71831700630617
 30
0.0
 42
-0.0195025208799997
  0
VERTEX
  5
1DE
  8
THROUGH_CUT
 10
79.9178226199421
 20
35.72860440452399
 30
0.0
 42
0.2261695666502401
  0
VERTEX
  5
1DF
  8
THROUGH_CUT
 10
82.24848921186441
 20
34.61751760347767
 30
0.0
  0
VERTEX
  5
1E0
  8
THROUGH_CUT
 10
83.01933510593221
 20
34.61751780173883
 30
0.0
  0
VERTEX
  5
1E1
  8
THROUGH_CUT
 10
85.420827
 20
30.450141
 30
0.0
  0
VERTEX
  5
1E2
  8
THROUGH_CUT
 10
85.04807000834674
 20
30.22903532790133
 30
0.0
 42
1.0
  0
VERTEX
  5
1E3
  8
THROUGH_CUT
 10
84.95225572809196
 20
29.86391951166759
 30
0.0
  0
VERTEX
  5
1E4
  8
THROUGH_CUT
 10
85.30769170454565
 20
29.24622020143749
 30
0.0
 42
1.0
  0
VERTEX
  5
1E5
  8
THROUGH_CUT
 10
85.6776693618642
 20
29.14912995683152
 30
0.0
  0
VERTEX
  5
1E6
  8
THROUGH_CUT
 10
86.050387
 20
29.370212
 30
0.0
  0
VERTEX
  5
1E7
  8
THROUGH_CUT
 10
87.0606671059322
 20
27.61751780173883
 30
0.0
  0
VERTEX
  5
1E8
  8
THROUGH_CUT
 10
86.93312121186439
 20
27.61751760347767
 30
0.0
 42
0.5557534680647261
  0
VERTEX
  5
1E9
  8
THROUGH_CUT
 10
86.03627186507299
 20
26.17518082670853
 30
0.0
 42
-0.1150543276863774
  0
VERTEX
  5
1EA
  8
THROUGH_CUT
 10
91.29698621186441
 20
3.615942575845972
 30
0.0
  0
VERTEX
  5
1EB
  8
THROUGH_CUT
 10
89.2969762123607
 20
3.615942229303677
 30
0.0
 42
0.1045612413968007
  0
VERTEX
  5
1EC
  8
THROUGH_CUT
 10
85.10341564602304
 20
23.44987884850826
 30
0.0
 42
0.2967978084954881
  0
VERTEX
  5
1ED
  8
THROUGH_CUT
 10
78.70296021186441
 20
27.61751760347767
 30
0.0
  0
SEQEND
  5
1EE
  8
THROUGH_CUT
  0
POLYLINE
  5
81
  8
POCKET_FOR_HINGE
 66
     1
 10
0.0
 20
0.0
 30
0.0
  0
VERTEX
  5
1EF
  8
POCKET_FOR_HINGE
 10
70.8070392118644
 20
27.60501760347767
 30
0.0
  0
VERTEX
  5
1F0
  8
POCKET_FOR_HINGE
 10
70.8070392118644
 20
28.49751760990796
 30
0.0
 42
0.4142136145249774
  0
VERTEX
  5
1F1
  8
POCKET_FOR_HINGE
 10
70.43453913910763
 20
28.87001760347766
 30
0.0
  0
VERTEX
  5
1F2
  8
POCKET_FOR_HINGE
 10
68.55453919900278
 20
28.87001760347766
 30
0.0
 42
0.4142134713558483
  0
VERTEX
  5
1F3
  8
POCKET_FOR_HINGE
 10
68.1820392118644
 20
28.49751770637122
 30
0.0
  0
VERTEX
  5
1F4
  8
POCKET_FOR_HINGE
 10
68.1820392118644
 20
27.60501760347767
 30
0.0
  0
VERTEX
  5
1F5
  8
POCKET_FOR_HINGE
 10
70.75703921186441
 20
27.60501760347767
 30
0.0
  0
VERTEX
  5
1F6
  8
POCKET_FOR_HINGE
 10
70.5570392118644
 20
27.85501760347767
 30
0.0
  0
VERTEX
  5
1F7
  8
POCKET_FOR_HINGE
 10
70.5570392118644
 20
28.49751760347766
 30
0.0
 42
0.414213735385296
  0
VERTEX
  5
1F8
  8
POCKET_FOR_HINGE
 10
70.43453913950357
 20
28.62001760347766
 30
0.0
  0
VERTEX
  5
1F9
  8
POCKET_FOR_HINGE
 10
68.55453921002052
 20
28.62001760347766
 30
0.0
 42
0.4142134157861856
  0
VERTEX
  5
1FA
  8
POCKET_FOR_HINGE
 10
68.4320392118644
 20
28.49751766294241
 30
0.0
  0
VERTEX
  5
1FB
  8
POCKET_FOR_HINGE
 10
68.4320392118644
 20
27.85501760347767
 30
0.0
  0
VERTEX
  5
1FC
  8
POCKET_FOR_HINGE
 10
70.50703921186441
 20
27.85501760347767
 30
0.0
  0
VERTEX
  5
1FD
  8
POCKET_FOR_HINGE
 10
70.3070392118644
 20
28.10501760347767
 30
0.0
  0
VERTEX
  5
1FE
  8
POCKET_FOR_HINGE
 10
70.3070392118644
 20
28.37001760347766
 30
0.0
  0
VERTEX
  5
1FF
  8
POCKET_FOR_HINGE
 10
68.68203921186439
 20
28.37001760347765
 30
0.0
  0
VERTEX
  5
200
  8
POCKET_FOR_HINGE
 10
68.6820392118644
 20
28.10501760347767
 30
0.0
  0
VERTEX
  5
201
  8
POCKET_FOR_HINGE
 10
70.25703921186441
 20
28.10501760347767
 30
0.0
  0
SEQEND
  5
202
  8
POCKET_FOR_HINGE
  0
POLYLINE
  5
82
  8
POCKET_FOR_HINGE
 66
     1
 10
0.0
 20
0.0
 30
0.0
  0
VERTEX
  5
203
  8
POCKET_FOR_HINGE
 10
67.14096274549611
 20
26.31636648346219
 30
0.0
  0
VERTEX
  5
204
  8
POCKET_FOR_HINGE
 10
67.14096274549611
 20
25.42386647060052
 30
0.0
 42
0.4142136223251507
  0
VERTEX
  5
205
  8
POCKET_FOR_HINGE
 10
67.51346283460445
 20
25.0513664834622
 30
0.0
  0
VERTEX
  5
206
  8
POCKET_FOR_HINGE
 10
69.39346274549611
 20
25.0513664834622
 30
0.0
 42
0.4142136028251826
  0
VERTEX
  5
207
  8
POCKET_FOR_HINGE
 10
69.76596274549611
 20
25.42386653490895
 30
0.0
  0
VERTEX
  5
208
  8
POCKET_FOR_HINGE
 10
69.76596274549611
 20
26.31636648346219
 30
0.0
  0
VERTEX
  5
209
  8
POCKET_FOR_HINGE
 10
67.19096274549611
 20
26.31636648346219
 30
0.0
  0
VERTEX
  5
20A
  8
POCKET_FOR_HINGE
 10
67.39096274549611
 20
26.06636648346219
 30
0.0
  0
VERTEX
  5
20B
  8
POCKET_FOR_HINGE
 10
67.39096274549611
 20
25.42386647977436
 30
0.0
 42
0.4142136957338755
  0
VERTEX
  5
20C
  8
POCKET_FOR_HINGE
 10
67.51346280496088
 20
25.3013664834622
 30
0.0
  0
VERTEX
  5
20D
  8
POCKET_FOR_HINGE
 10
69.39346274549611
 20
25.3013664834622
 30
0.0
 42
0.4142136621319326
  0
VERTEX
  5
20E
  8
POCKET_FOR_HINGE
 10
69.51596274549611
 20
25.42386652518546
 30
0.0
  0
VERTEX
  5
20F
  8
POCKET_FOR_HINGE
 10
69.51596274549611
 20
26.06636648346219
 30
0.0
  0
VERTEX
  5
210
  8
POCKET_FOR_HINGE
 10
67.44096274549611
 20
26.06636648346219
 30
0.0
  0
VERTEX
  5
211
  8
POCKET_FOR_HINGE
 10
67.64096274549611
 20
25.81636648346219
 30
0.0
  0
VERTEX
  5
212
  8
POCKET_FOR_HINGE
 10
67.64096274549611
 20
25.5513664834622
 30
0.0
  0
VERTEX
  5
213
  8
POCKET_FOR_HINGE
 10
69.26596274549611
 20
25.5513664834622
 30
0.0
  0
VERTEX
  5
214
  8
POCKET_FOR_HINGE
 10
69.26596274549611
 20
25.81636648346219
 30
0.0
  0
VERTEX
  5
215
  8
POCKET_FOR_HINGE
 10
67.69096274549611
 20
25.81636648346219
 30
0.0
  0
SEQEND
  5
216
  8
POCKET_FOR_HINGE
  0
POLYLINE
  5
83
  8
POCKET_FOR_HINGE
 66
     1
 10
0.0
 20
0.0
 30
0.0
  0
VERTEX
  5
217
  8
POCKET_FOR_HINGE
 10
15.8070392118644
 20
27.60501760347767
 30
0.0
  0
VERTEX
  5
218
  8
POCKET_FOR_HINGE
 10
15.8070392118644
 20
28.49751760990902
 30
0.0
 42
0.4142135573161718
  0
VERTEX
  5
219
  8
POCKET_FOR_HINGE
 10
15.4345392118644
 20
28.87001760347766
 30
0.0
  0
VERTEX
  5
21A
  8
POCKET_FOR_HINGE
 10
13.55453919900274
 20
28.87001760347766
 30
0.0
 42
0.4142135522600923
  0
VERTEX
  5
21B
  8
POCKET_FOR_HINGE
 10
13.1820392118644
 20
28.49751760347766
 30
0.0
  0
VERTEX
  5
21C
  8
POCKET_FOR_HINGE
 10
13.1820392118644
 20
27.60501760347767
 30
0.0
  0
VERTEX
  5
21D
  8
POCKET_FOR_HINGE
 10
15.7570392118644
 20
27.60501760347767
 30
0.0
  0
VERTEX
  5
21E
  8
POCKET_FOR_HINGE
 10
15.5570392118644
 20
27.85501760347767
 30
0.0
  0
VERTEX
  5
21F
  8
POCKET_FOR_HINGE
 10
15.5570392118644
 20
28.49751760347765
 30
0.0
 42
0.414213492386212
  0
VERTEX
  5
220
  8
POCKET_FOR_HINGE
 10
15.43453924113579
 20
28.62001760347766
 30
0.0
  0
VERTEX
  5
221
  8
POCKET_FOR_HINGE
 10
13.55453921002049
 20
28.62001760347766
 30
0.0
 42
0.4142136262645728
  0
VERTEX
  5
222
  8
POCKET_FOR_HINGE
 10
13.4320392118644
 20
28.49751757491171
 30
0.0
  0
VERTEX
  5
223
  8
POCKET_FOR_HINGE
 10
13.4320392118644
 20
27.85501760347767
 30
0.0
  0
VERTEX
  5
224
  8
POCKET_FOR_HINGE
 10
15.5070392118644
 20
27.85501760347767
 30
0.0
  0
VERTEX
  5
225
  8
POCKET_FOR_HINGE
 10
15.3070392118644
 20
28.10501760347767
 30
0.0
  0
VERTEX
  5
226
  8
POCKET_FOR_HINGE
 10
15.3070392118644
 20
28.37001760347766
 30
0.0
  0
VERTEX
  5
227
  8
POCKET_FOR_HINGE
 10
13.6820392118644
 20
28.37001760347766
 30
0.0
  0
VERTEX
  5
228
  8
POCKET_FOR_HINGE
 10
13.6820392118644
 20
28.10501760347767
 30
0.0
  0
VERTEX
  5
229
  8
POCKET_FOR_HINGE
 10
15.2570392118644
 20
28.10501760347767
 30
0.0
  0
SEQEND
  5
22A
  8
POCKET_FOR_HINGE
  0
POLYLINE
  5
84
  8
POCKET_FOR_HINGE
 66
     1
 10
0.0
 20
0.0
 30
0.0
  0
VERTEX
  5
22B
  8
POCKET_FOR_HINGE
 10
12.1409627454961
 20
26.31636648346219
 30
0.0
  0
VERTEX
  5
22C
  8
POCKET_FOR_HINGE
 10
12.1409627454961
 20
25.42386644487706
 30
0.0
 42
0.4142135320339626
  0
VERTEX
  5
22D
  8
POCKET_FOR_HINGE
 10
12.5134627454961
 20
25.0513664834622
 30
0.0
  0
VERTEX
  5
22E
  8
POCKET_FOR_HINGE
 10
14.3934627636856
 20
25.0513664834622
 30
0.0
 42
0.4142135480708657
  0
VERTEX
  5
22F
  8
POCKET_FOR_HINGE
 10
14.7659627454961
 20
25.4238664834622
 30
0.0
  0
VERTEX
  5
230
  8
POCKET_FOR_HINGE
 10
14.7659627454961
 20
26.31636648346219
 30
0.0
  0
VERTEX
  5
231
  8
POCKET_FOR_HINGE
 10
12.1909627454961
 20
26.31636648346219
 30
0.0
  0
VERTEX
  5
232
  8
POCKET_FOR_HINGE
 10
12.3909627454961
 20
26.06636648346219
 30
0.0
  0
VERTEX
  5
233
  8
POCKET_FOR_HINGE
 10
12.3909627454961
 20
25.42386646227711
 30
0.0
 42
0.4142134588151427
  0
VERTEX
  5
234
  8
POCKET_FOR_HINGE
 10
12.51346272336899
 20
25.3013664834622
 30
0.0
  0
VERTEX
  5
235
  8
POCKET_FOR_HINGE
 10
14.3934627559269
 20
25.3013664834622
 30
0.0
 42
0.4142135623730993
  0
VERTEX
  5
236
  8
POCKET_FOR_HINGE
 10
14.5159627454961
 20
25.42386649389298
 30
0.0
  0
VERTEX
  5
237
  8
POCKET_FOR_HINGE
 10
14.5159627454961
 20
26.06636648346219
 30
0.0
  0
VERTEX
  5
238
  8
POCKET_FOR_HINGE
 10
12.4409627454961
 20
26.06636648346219
 30
0.0
  0
VERTEX
  5
239
  8
POCKET_FOR_HINGE
 10
12.6409627454961
 20
25.81636648346219
 30
0.0
  0
VERTEX
  5
23A
  8
POCKET_FOR_HINGE
 10
12.6409627454961
 20
25.5513664834622
 30
0.0
  0
VERTEX
  5
23B
  8
POCKET_FOR_HINGE
 10
14.2659627454961
 20
25.5513664834622
 30
0.0
  0
VERTEX
  5
23C
  8
POCKET_FOR_HINGE
 10
14.2659627454961
 20
25.81636648346219
 30
0.0
  0
VERTEX
  5
23D
  8
POCKET_FOR_HINGE
 10
12.6909627454961
 20
25.81636648346219
 30
0.0
  0
SEQEND
  5
23E
  8
POCKET_FOR_HINGE
  0
POLYLINE
  5
86
  8
HINGE_BARREL
 66
     1
 10
0.0
 20
0.0
 30
0.0
  0
VERTEX
  5
23F
  8
HINGE_BARREL
 10
11.94096274551509
 20
26.30372129266401
 30
0.0
  0
VERTEX
  5
240
  8
HINGE_BARREL
 10
14.96596274547712
 20
26.30367961394479
 30
0.0
  0
SEQEND
  5
241
  8
HINGE_BARREL
  0
POLYLINE
  5
87
  8
HINGE_BARREL
 66
     1
 10
0.0
 20
0.0
 30
0.0
  0
VERTEX
  5
242
  8
HINGE_BARREL
 10
12.98203921186439
 20
27.61751760347767
 30
0.0
  0
VERTEX
  5
243
  8
HINGE_BARREL
 10
16.0070392118644
 20
27.61751760347767
 30
0.0
  0
SEQEND
  5
244
  8
HINGE_BARREL
  0
POLYLINE
  5
88
  8
HINGE_BARREL
 66
     1
 10
0.0
 20
0.0
 30
0.0
  0
VERTEX
  5
245
  8
HINGE_BARREL
 10
67.9820392118644
 20
27.61751760347767
 30
0.0
  0
VERTEX
  5
246
  8
HINGE_BARREL
 10
71.00703921186441
 20
27.61751760347767
 30
0.0
  0
SEQEND
  5
247
  8
HINGE_BARREL
  0
POLYLINE
  5
89
  8
HINGE_BARREL
 66
     1
 10
0.0
 20
0.0
 30
0.0
  0
VERTEX
  5
248
  8
HINGE_BARREL
 10
66.9409627455151
 20
26.30296349776916
 30
0.0
  0
VERTEX
  5
249
  8
HINGE_BARREL
 10
69.96596274547711
 20
26.30292181904995
 30
0.0
  0
SEQEND
  5
24A
  8
HINGE_BARREL
  0
POLYLINE
  5
8B
  8
TRIM
 66
     1
 10
0.0
 20
0.0
 30
0.0
 70
     1
  0
VERTEX
  5
24B
  8
TRIM
 10
93.63470311983345
 20
10.34504229644466
 30
0.0
 42
0.8237336233316559
  0
VERTEX
  5
24C
  8
TRIM
 10
93.60822972483281
 20
9.954095638567743
 30
0.0
 42
0.8241469133978765
  0
VERTEX
  5
24D
  8
TRIM
 10
93.77954280152548
 20
10.30646263544407
 30
0.0
 42
0.0964029187071587
  0
VERTEX
  5
24E
  8
TRIM
 10
93.71078700490543
 20
10.33989019013523
 30
0.0
 42
0.0966513828627436
  0
SEQEND
  5
24F
  8
TRIM
  0
ENDSEC
  0
EOF
