  0
SECTION
  2
HEADER
  9
$ACADVER
  1
AC1009
  9
$DWGCODEPAGE
  3
ansi_1252
  9
$INSBASE
 10
0.0
 20
0.0
 30
0.0
  9
$EXTMIN
 10
3.336517069681172
 20
2.160372555361064
 30
0.0
  9
$EXTMAX
 10
92.27319675687879
 20
45.09085442006271
 30
0.0
  9
$LIMMIN
 10
0.0
 20
0.0
  9
$LIMMAX
 10
12.0
 20
9.0
  9
$ORTHOMODE
 70
     0
  9
$REGENMODE
 70
     1
  9
$FILLMODE
 70
     1
  9
$QTEXTMODE
 70
     0
  9
$MIRRTEXT
 70
     1
  9
$DRAGMODE
 70
     2
  9
$LTSCALE
 40
1.0
  9
$OSMODE
 70
    37
  9
$ATTMODE
 70
     1
  9
$TEXTSIZE
 40
0.2
  9
$TRACEWID
 40
0.05
  9
$TEXTSTYLE
  7
STANDARD
  9
$CLAYER
  8
0
  9
$CELTYPE
  6
BYLAYER
  9
$CECOLOR
 62
   256
  9
$DIMSCALE
 40
1.0
  9
$DIMASZ
 40
0.18
  9
$DIMEXO
 40
0.0625
  9
$DIMDLI
 40
0.38
  9
$DIMRND
 40
0.0
  9
$DIMDLE
 40
0.0
  9
$DIMEXE
 40
0.18
  9
$DIMTP
 40
0.0
  9
$DIMTM
 40
0.0
  9
$DIMTXT
 40
0.18
  9
$DIMCEN
 40
0.09
  9
$DIMTSZ
 40
0.0
  9
$DIMTOL
 70
     0
  9
$DIMLIM
 70
     0
  9
$DIMTIH
 70
     1
  9
$DIMTOH
 70
     1
  9
$DIMSE1
 70
     0
  9
$DIMSE2
 70
     0
  9
$DIMTAD
 70
     0
  9
$DIMZIN
 70
     0
  9
$DIMBLK
  1

  9
$DIMASO
 70
     1
  9
$DIMSHO
 70
     1
  9
$DIMPOST
  1

  9
$DIMAPOST
  1

  9
$DIMALT
 70
     0
  9
$DIMALTD
 70
     2
  9
$DIMALTF
 40
25.4
  9
$DIMLFAC
 40
1.0
  9
$DIMTOFL
 70
     0
  9
$DIMTVP
 40
0.0
  9
$DIMTIX
 70
     0
  9
$DIMSOXD
 70
     0
  9
$DIMSAH
 70
     0
  9
$DIMBLK1
  1

  9
$DIMBLK2
  1

  9
$DIMSTYLE
  2
STANDARD
  9
$DIMCLRD
 70
     0
  9
$DIMCLRE
 70
     0
  9
$DIMCLRT
 70
     0
  9
$DIMTFAC
 40
1.0
  9
$DIMGAP
 40
0.09
  9
$LUNITS
 70
     2
  9
$LUPREC
 70
     4
  9
$SKETCHINC
 40
0.1
  9
$FILLETRAD
 40
0.5
  9
$AUNITS
 70
     0
  9
$AUPREC
 70
     0
  9
$MENU
  1
.
  9
$ELEVATION
 40
0.0
  9
$PELEVATION
 40
0.0
  9
$THICKNESS
 40
0.0
  9
$LIMCHECK
 70
     0
  9
$CHAMFERA
 40
0.5
  9
$CHAMFERB
 40
0.5
  9
$SKPOLY
 70
     0
  9
$TDCREATE
 40
2454910.5
  9
$TDUPDATE
 40
2455901.450875752
  9
$TDINDWG
 40
0.0000000116
  9
$TDUSRTIMER
 40
0.0000000116
  9
$USRTIMER
 70
     1
  9
$ANGBASE
 50
0.0
  9
$ANGDIR
 70
     0
  9
$PDMODE
 70
     0
  9
$PDSIZE
 40
0.0
  9
$PLINEWID
 40
0.0
  9
$COORDS
 70
     1
  9
$SPLFRAME
 70
     0
  9
$SPLINETYPE
 70
     6
  9
$SPLINESEGS
 70
     8
  9
$ATTDIA
 70
     0
  9
$ATTREQ
 70
     1
  9
$HANDLING
 70
     1
  9
$HANDSEED
  5
145
  9
$SURFTAB1
 70
     6
  9
$SURFTAB2
 70
     6
  9
$SURFTYPE
 70
     6
  9
$SURFU
 70
     6
  9
$SURFV
 70
     6
  9
$UCSNAME
  2

  9
$UCSORG
 10
0.0
 20
0.0
 30
0.0
  9
$UCSXDIR
 10
1.0
 20
0.0
 30
0.0
  9
$UCSYDIR
 10
0.0
 20
1.0
 30
0.0
  9
$PUCSNAME
  2

  9
$PUCSORG
 10
0.0
 20
0.0
 30
0.0
  9
$PUCSXDIR
 10
1.0
 20
0.0
 30
0.0
  9
$PUCSYDIR
 10
0.0
 20
1.0
 30
0.0
  9
$USERI1
 70
     0
  9
$USERI2
 70
     0
  9
$USERI3
 70
     0
  9
$USERI4
 70
     0
  9
$USERI5
 70
     0
  9
$USERR1
 40
0.0
  9
$USERR2
 40
0.0
  9
$USERR3
 40
0.0
  9
$USERR4
 40
0.0
  9
$USERR5
 40
0.0
  9
$WORLDVIEW
 70
     1
  9
$SHADEDGE
 70
     3
  9
$SHADEDIF
 70
    70
  9
$TILEMODE
 70
     1
  9
$MAXACTVP
 70
    64
  9
$PLIMCHECK
 70
     0
  9
$PEXTMIN
 10
1.000000000000000E+20
 20
1.000000000000000E+20
 30
1.000000000000000E+20
  9
$PEXTMAX
 10
-1.000000000000000E+20
 20
-1.000000000000000E+20
 30
-1.000000000000000E+20
  9
$PLIMMIN
 10
0.0
 20
0.0
  9
$PLIMMAX
 10
12.0
 20
9.0
  9
$UNITMODE
 70
     0
  9
$VISRETAIN
 70
     1
  9
$PLINEGEN
 70
     0
  9
$PSLTSCALE
 70
     1
  0
ENDSEC
  0
SECTION
  2
TABLES
  0
TABLE
  2
VPORT
 70
     1
  0
VPORT
  2
*ACTIVE
 70
     0
 10
0.0
 20
0.0
 11
1.0
 21
1.0
 12
10.42990654205607
 22
4.5
 13
0.0
 23
0.0
 14
0.5
 24
0.5
 15
0.5
 25
0.5
 16
0.0
 26
0.0
 36
1.0
 17
0.0
 27
0.0
 37
0.0
 40
9.0
 41
1.972972972850329
 42
50.0
 43
0.0
 44
0.0
 50
0.0
 51
0.0
 71
     0
 72
   100
 73
     1
 74
     3
 75
     0
 76
     0
 77
     0
 78
     0
  0
ENDTAB
  0
TABLE
  2
LTYPE
 70
     2
  0
LTYPE
  2
CONTINUOUS
 70
     0
  3
Solid line
 72
    65
 73
     0
 40
0.0
  0
LTYPE
  2
CONTINUOUS2
 70
     0
  3
Solid Line
 72
    65
 73
     0
 40
0.0
  0
ENDTAB
  0
TABLE
  2
LAYER
 70
     2
  0
LAYER
  2
0
 70
     0
 62
     7
  6
CONTINUOUS
  0
LAYER
  2
THROUGH_CUT
 70
     0
 62
    18
  6
CONTINUOUS
  0
ENDTAB
  0
TABLE
  2
STYLE
 70
     1
  0
STYLE
  2
STANDARD
 70
     0
 40
0.0
 41
1.0
 50
0.0
 71
     0
 42
0.2
  3
txt
  4

  0
ENDTAB
  0
TABLE
  2
VIEW
 70
     0
  0
ENDTAB
  0
TABLE
  2
UCS
 70
     0
  0
ENDTAB
  0
TABLE
  2
APPID
 70
     1
  0
APPID
  2
ACAD
 70
     0
  0
ENDTAB
  0
TABLE
  2
DIMSTYLE
 70
     1
  0
DIMSTYLE
  2
STANDARD
 70
     0
  3

  4

  5

  6

  7

 40
1.0
 41
0.18
 42
0.0625
 43
0.38
 44
0.18
 45
0.0
 46
0.0
 47
0.0
 48
0.0
140
0.18
141
0.09
142
0.0
143
25.4
144
1.0
145
0.0
146
1.0
147
0.09
 71
     0
 72
     0
 73
     1
 74
     1
 75
     0
 76
     0
 77
     0
 78
     0
170
     0
171
     2
172
     0
173
     0
174
     0
175
     0
176
     0
177
     0
178
     0
  0
ENDTAB
  0
ENDSEC
  0
SECTION
  2
BLOCKS
  0
BLOCK
  8
0
  2
$MODEL_SPACE
 70
     0
 10
0.0
 20
0.0
 30
0.0
  3
$MODEL_SPACE
  1

  0
ENDBLK
  5
21
  8
0
  0
BLOCK
 67
     1
  8
0
  2
$PAPER_SPACE
 70
     0
 10
0.0
 20
0.0
 30
0.0
  3
$PAPER_SPACE
  1

  0
ENDBLK
  5
1D
 67
     1
  8
0
  0
ENDSEC
  0
SECTION
  2
ENTITIES
  0
POLYLINE
  5
41
  8
THROUGH_CUT
 66
     1
 10
0.0
 20
0.0
 30
0.0
 70
     1
  0
VERTEX
  5
5D
  8
THROUGH_CUT
 10
4.557498171876511
 20
22.85858824545744
 30
0.0
 42
0.963401352517179
  0
VERTEX
  5
5E
  8
THROUGH_CUT
 10
4.600830976116872
 20
22.46621629081929
 30
0.0
 42
0.9642873832494969
  0
VERTEX
  5
5F
  8
THROUGH_CUT
 10
4.586482069681146
 20
22.86069955536108
 30
0.0
 42
0.0181809530801047
  0
VERTEX
  5
60
  8
THROUGH_CUT
 10
4.571770281674743
 20
22.86016442982197
 30
0.0
 42
0.0186404310235879
  0
SEQEND
  5
61
  8
THROUGH_CUT
  0
POLYLINE
  5
42
  8
THROUGH_CUT
 66
     1
 10
0.0
 20
0.0
 30
0.0
 70
     1
  0
VERTEX
  5
62
  8
THROUGH_CUT
 10
28.37740017187647
 20
35.36557024545743
 30
0.0
 42
0.963401352517136
  0
VERTEX
  5
63
  8
THROUGH_CUT
 10
28.42073297611681
 20
34.97319829081913
 30
0.0
 42
0.964287383249547
  0
VERTEX
  5
64
  8
THROUGH_CUT
 10
28.4063840696811
 20
35.36768155536107
 30
0.0
 42
0.0181809530793622
  0
VERTEX
  5
65
  8
THROUGH_CUT
 10
28.39167228167468
 20
35.36714642982197
 30
0.0
 42
0.0186404310236057
  0
SEQEND
  5
66
  8
THROUGH_CUT
  0
POLYLINE
  5
43
  8
THROUGH_CUT
 66
     1
 10
0.0
 20
0.0
 30
0.0
 70
     1
  0
VERTEX
  5
67
  8
THROUGH_CUT
 10
40.37740017187647
 20
35.36331424545745
 30
0.0
 42
0.9634013525171634
  0
VERTEX
  5
68
  8
THROUGH_CUT
 10
40.42073297611681
 20
34.97094229081914
 30
0.0
 42
0.9642873832495221
  0
VERTEX
  5
69
  8
THROUGH_CUT
 10
40.4063840696811
 20
35.36542555536109
 30
0.0
 42
0.0181809530793444
  0
VERTEX
  5
6A
  8
THROUGH_CUT
 10
40.39167228167468
 20
35.36489042982198
 30
0.0
 42
0.0186404310236625
  0
SEQEND
  5
6B
  8
THROUGH_CUT
  0
POLYLINE
  5
44
  8
THROUGH_CUT
 66
     1
 10
0.0
 20
0.0
 30
0.0
 70
     1
  0
VERTEX
  5
6C
  8
THROUGH_CUT
 10
55.25606017187643
 20
35.00333324545744
 30
0.0
 42
0.963401352517146
  0
VERTEX
  5
6D
  8
THROUGH_CUT
 10
55.29939297611678
 20
34.61096129081913
 30
0.0
 42
0.9642873832495221
  0
VERTEX
  5
6E
  8
THROUGH_CUT
 10
55.28504406968107
 20
35.00544455536108
 30
0.0
 42
0.0181809530793409
  0
VERTEX
  5
6F
  8
THROUGH_CUT
 10
55.27033228167465
 20
35.00490942982198
 30
0.0
 42
0.018640431023659
  0
SEQEND
  5
70
  8
THROUGH_CUT
  0
POLYLINE
  5
45
  8
THROUGH_CUT
 66
     1
 10
0.0
 20
0.0
 30
0.0
 70
     1
  0
VERTEX
  5
71
  8
THROUGH_CUT
 10
66.84698217187653
 20
31.89680024545742
 30
0.0
 42
0.9634013525171367
  0
VERTEX
  5
72
  8
THROUGH_CUT
 10
66.8903149761169
 20
31.50442829081921
 30
0.0
 42
0.9642873832494273
  0
VERTEX
  5
73
  8
THROUGH_CUT
 10
66.87596606968117
 20
31.89891155536107
 30
0.0
 42
0.0181809530801189
  0
VERTEX
  5
74
  8
THROUGH_CUT
 10
66.86125428167476
 20
31.89837642982196
 30
0.0
 42
0.0186404310235346
  0
SEQEND
  5
75
  8
THROUGH_CUT
  0
POLYLINE
  5
46
  8
THROUGH_CUT
 66
     1
 10
0.0
 20
0.0
 30
0.0
 70
     1
  0
VERTEX
  5
76
  8
THROUGH_CUT
 10
81.92838417187644
 20
23.19630124545739
 30
0.0
 42
0.9634013525171377
  0
VERTEX
  5
77
  8
THROUGH_CUT
 10
81.97171697611681
 20
22.80392929081917
 30
0.0
 42
0.9642873832494273
  0
VERTEX
  5
78
  8
THROUGH_CUT
 10
81.95736806968108
 20
23.19841255536103
 30
0.0
 42
0.0181809530801189
  0
VERTEX
  5
79
  8
THROUGH_CUT
 10
81.94265628167467
 20
23.19787742982193
 30
0.0
 42
0.0186404310235346
  0
SEQEND
  5
7A
  8
THROUGH_CUT
  0
POLYLINE
  5
47
  8
THROUGH_CUT
 66
     1
 10
0.0
 20
0.0
 30
0.0
 70
     1
  0
VERTEX
  5
7B
  8
THROUGH_CUT
 10
90.41251617187649
 20
14.70987024545741
 30
0.0
 42
0.9634013525171436
  0
VERTEX
  5
7C
  8
THROUGH_CUT
 10
90.45584897611685
 20
14.31749829081912
 30
0.0
 42
0.9642873832494331
  0
VERTEX
  5
7D
  8
THROUGH_CUT
 10
90.44150006968113
 20
14.71198155536105
 30
0.0
 42
0.0181809530801011
  0
VERTEX
  5
7E
  8
THROUGH_CUT
 10
90.42678828167473
 20
14.71144642982194
 30
0.0
 42
0.0186404310233783
  0
SEQEND
  5
7F
  8
THROUGH_CUT
  0
POLYLINE
  5
48
  8
THROUGH_CUT
 66
     1
 10
0.0
 20
0.0
 30
0.0
 70
     1
  0
VERTEX
  5
80
  8
THROUGH_CUT
 10
64.26777706968113
 20
21.52411564164598
 30
0.0
 42
-0.5402049076495088
  0
VERTEX
  5
81
  8
THROUGH_CUT
 10
65.31698941152142
 20
22.21184522112504
 30
0.0
 42
-0.0546702482868522
  0
VERTEX
  5
82
  8
THROUGH_CUT
 10
74.20244547766136
 20
17.12905492383661
 30
0.0
 42
-0.726345359107964
  0
VERTEX
  5
83
  8
THROUGH_CUT
 10
74.05539477177838
 20
16.67687656223647
 30
0.0
  0
VERTEX
  5
84
  8
THROUGH_CUT
 10
65.01777706968113
 20
16.67687656223647
 30
0.0
 42
-0.4142135623730951
  0
VERTEX
  5
85
  8
THROUGH_CUT
 10
64.26777706968113
 20
17.42687656223647
 30
0.0
  0
SEQEND
  5
86
  8
THROUGH_CUT
  0
POLYLINE
  5
49
  8
THROUGH_CUT
 66
     1
 10
0.0
 20
0.0
 30
0.0
 70
     1
  0
VERTEX
  5
87
  8
THROUGH_CUT
 10
63.26777706968112
 20
22.5261811095037
 30
0.0
 42
0.3144745060089036
  0
VERTEX
  5
88
  8
THROUGH_CUT
 10
62.77640511708667
 20
23.23017793697894
 30
0.0
 42
0.0507600973874354
  0
VERTEX
  5
89
  8
THROUGH_CUT
 10
53.56520850627842
 20
25.58838866763541
 30
0.0
 42
0.4586196939095594
  0
VERTEX
  5
8A
  8
THROUGH_CUT
 10
47.87940884491204
 20
20.69338104485348
 30
0.0
  0
VERTEX
  5
8B
  8
THROUGH_CUT
 10
47.87940884491204
 20
17.42687656223648
 30
0.0
 42
0.4142135623730951
  0
VERTEX
  5
8C
  8
THROUGH_CUT
 10
48.62940884491204
 20
16.67687656223648
 30
0.0
  0
VERTEX
  5
8D
  8
THROUGH_CUT
 10
62.51777706968112
 20
16.67687656223648
 30
0.0
 42
0.4142135623730951
  0
VERTEX
  5
8E
  8
THROUGH_CUT
 10
63.26777706968112
 20
17.42687656223648
 30
0.0
  0
SEQEND
  5
8F
  8
THROUGH_CUT
  0
POLYLINE
  5
4A
  8
THROUGH_CUT
 66
     1
 10
0.0
 20
0.0
 30
0.0
 70
     1
  0
VERTEX
  5
90
  8
THROUGH_CUT
 10
44.82876870867729
 20
6.634418895676035
 30
0.0
 42
0.4142135623730951
  0
VERTEX
  5
91
  8
THROUGH_CUT
 10
44.62876870867728
 20
6.434418895676032
 30
0.0
 42
0.4142135623730951
  0
VERTEX
  5
92
  8
THROUGH_CUT
 10
44.82876870867729
 20
6.234418895676029
 30
0.0
 42
0.4142135623730951
  0
VERTEX
  5
93
  8
THROUGH_CUT
 10
45.02876870867729
 20
6.434418895676032
 30
0.0
 42
0.4142135623730951
  0
SEQEND
  5
94
  8
THROUGH_CUT
  0
POLYLINE
  5
4B
  8
THROUGH_CUT
 66
     1
 10
0.0
 20
0.0
 30
0.0
 70
     1
  0
VERTEX
  5
95
  8
THROUGH_CUT
 10
10.82540722389829
 20
4.918205381251276
 30
0.0
 42
0.4142135623730951
  0
VERTEX
  5
96
  8
THROUGH_CUT
 10
10.62540722389828
 20
4.718205381251266
 30
0.0
 42
0.4142135623730951
  0
VERTEX
  5
97
  8
THROUGH_CUT
 10
10.82540722389829
 20
4.518205381251256
 30
0.0
 42
0.4142135623730951
  0
VERTEX
  5
98
  8
THROUGH_CUT
 10
11.0254072238983
 20
4.718205381251266
 30
0.0
 42
0.4142135623730951
  0
SEQEND
  5
99
  8
THROUGH_CUT
  0
POLYLINE
  5
4C
  8
THROUGH_CUT
 66
     1
 10
0.0
 20
0.0
 30
0.0
 70
     1
  0
VERTEX
  5
9A
  8
THROUGH_CUT
 10
44.83532105879257
 20
12.21893089068167
 30
0.0
 42
0.4142135623730951
  0
VERTEX
  5
9B
  8
THROUGH_CUT
 10
44.63532105879258
 20
12.01893089068167
 30
0.0
 42
0.4142135623730951
  0
VERTEX
  5
9C
  8
THROUGH_CUT
 10
44.83532105879257
 20
11.81893089068167
 30
0.0
 42
0.4142135623730951
  0
VERTEX
  5
9D
  8
THROUGH_CUT
 10
45.03532105879257
 20
12.01893089068167
 30
0.0
 42
0.4142135623730951
  0
SEQEND
  5
9E
  8
THROUGH_CUT
  0
POLYLINE
  5
4D
  8
THROUGH_CUT
 66
     1
 10
0.0
 20
0.0
 30
0.0
 70
     1
  0
VERTEX
  5
9F
  8
THROUGH_CUT
 10
75.82957172259454
 20
15.67687656223647
 30
0.0
 42
-0.1730428970365803
  0
VERTEX
  5
A0
  8
THROUGH_CUT
 10
76.30429968745949
 20
15.50750842441351
 30
0.0
 42
-0.0313712107669009
  0
VERTEX
  5
A1
  8
THROUGH_CUT
 10
80.61841888767798
 20
11.50372397175854
 30
0.0
 42
-0.6590215623974607
  0
VERTEX
  5
A2
  8
THROUGH_CUT
 10
79.20494587412531
 20
8.210372055361074
 30
0.0
  0
VERTEX
  5
A3
  8
THROUGH_CUT
 10
65.01777706968113
 20
8.210372055361074
 30
0.0
 42
-0.4142135623730951
  0
VERTEX
  5
A4
  8
THROUGH_CUT
 10
64.26777706968113
 20
8.960372055361074
 30
0.0
  0
VERTEX
  5
A5
  8
THROUGH_CUT
 10
64.26777706968113
 20
14.92687656223647
 30
0.0
 42
-0.4142135623730951
  0
VERTEX
  5
A6
  8
THROUGH_CUT
 10
65.01777706968113
 20
15.67687656223647
 30
0.0
  0
SEQEND
  5
A7
  8
THROUGH_CUT
  0
POLYLINE
  5
4E
  8
THROUGH_CUT
 66
     1
 10
0.0
 20
0.0
 30
0.0
 70
     1
  0
VERTEX
  5
A8
  8
THROUGH_CUT
 10
62.51777706968112
 20
8.210372055361077
 30
0.0
 42
0.4142135623730951
  0
VERTEX
  5
A9
  8
THROUGH_CUT
 10
63.26777706968112
 20
8.960372055361077
 30
0.0
  0
VERTEX
  5
AA
  8
THROUGH_CUT
 10
63.26777706968112
 20
14.92687656223647
 30
0.0
 42
0.4142135623730951
  0
VERTEX
  5
AB
  8
THROUGH_CUT
 10
62.51777706968112
 20
15.67687656223647
 30
0.0
  0
VERTEX
  5
AC
  8
THROUGH_CUT
 10
48.62940884491203
 20
15.67687656223647
 30
0.0
 42
0.4142135623730951
  0
VERTEX
  5
AD
  8
THROUGH_CUT
 10
47.87940884491203
 20
14.92687656223647
 30
0.0
  0
VERTEX
  5
AE
  8
THROUGH_CUT
 10
47.87940884491204
 20
10.16037205536107
 30
0.0
 42
0.4142135623730823
  0
VERTEX
  5
AF
  8
THROUGH_CUT
 10
49.82940884491202
 20
8.210372055361077
 30
0.0
  0
SEQEND
  5
B0
  8
THROUGH_CUT
  0
POLYLINE
  5
4F
  8
THROUGH_CUT
 66
     1
 10
0.0
 20
0.0
 30
0.0
 70
     1
  0
VERTEX
  5
B1
  8
THROUGH_CUT
 10
54.01881195651354
 20
28.79433426408665
 30
0.0
 42
0.4142135623730951
  0
VERTEX
  5
B2
  8
THROUGH_CUT
 10
53.82881195651354
 20
28.60433426408665
 30
0.0
 42
0.4142135623730951
  0
VERTEX
  5
B3
  8
THROUGH_CUT
 10
54.01881195651354
 20
28.41433426408665
 30
0.0
 42
0.4142135623730951
  0
VERTEX
  5
B4
  8
THROUGH_CUT
 10
54.20881195651354
 20
28.60433426408665
 30
0.0
 42
0.4142135623730951
  0
SEQEND
  5
B5
  8
THROUGH_CUT
  0
POLYLINE
  5
50
  8
THROUGH_CUT
 66
     1
 10
0.0
 20
0.0
 30
0.0
 70
     1
  0
VERTEX
  5
B6
  8
THROUGH_CUT
 10
46.57940884491204
 20
16.36687656223647
 30
0.0
 42
0.4142135623730951
  0
VERTEX
  5
B7
  8
THROUGH_CUT
 10
46.38940884491204
 20
16.17687656223647
 30
0.0
 42
0.4142135623730951
  0
VERTEX
  5
B8
  8
THROUGH_CUT
 10
46.57940884491204
 20
15.98687656223647
 30
0.0
 42
0.4142135623730951
  0
VERTEX
  5
B9
  8
THROUGH_CUT
 10
46.76940884491204
 20
16.17687656223647
 30
0.0
 42
0.4142135623730951
  0
SEQEND
  5
BA
  8
THROUGH_CUT
  0
POLYLINE
  5
51
  8
THROUGH_CUT
 66
     1
 10
0.0
 20
0.0
 30
0.0
 70
     1
  0
VERTEX
  5
BB
  8
THROUGH_CUT
 10
55.99401617430809
 20
26.61901103665071
 30
0.0
 42
0.4142135623730951
  0
VERTEX
  5
BC
  8
THROUGH_CUT
 10
55.8040161743081
 20
26.42901103665071
 30
0.0
 42
0.4142135623730951
  0
VERTEX
  5
BD
  8
THROUGH_CUT
 10
55.99401617430809
 20
26.23901103665071
 30
0.0
 42
0.4142135623730951
  0
VERTEX
  5
BE
  8
THROUGH_CUT
 10
56.18401617430809
 20
26.42901103665071
 30
0.0
 42
0.4142135623730951
  0
SEQEND
  5
BF
  8
THROUGH_CUT
  0
POLYLINE
  5
52
  8
THROUGH_CUT
 66
     1
 10
0.0
 20
0.0
 30
0.0
 70
     1
  0
VERTEX
  5
C0
  8
THROUGH_CUT
 10
78.25541709316862
 20
15.75229535938931
 30
0.0
 42
0.4142135623730951
  0
VERTEX
  5
C1
  8
THROUGH_CUT
 10
78.06541709316862
 20
15.56229535938931
 30
0.0
 42
0.4142135623730951
  0
VERTEX
  5
C2
  8
THROUGH_CUT
 10
78.25541709316862
 20
15.37229535938931
 30
0.0
 42
0.4142135623730951
  0
VERTEX
  5
C3
  8
THROUGH_CUT
 10
78.44541709316861
 20
15.56229535938931
 30
0.0
 42
0.4142135623730951
  0
SEQEND
  5
C4
  8
THROUGH_CUT
  0
POLYLINE
  5
53
  8
THROUGH_CUT
 66
     1
 10
0.0
 20
0.0
 30
0.0
 70
     1
  0
VERTEX
  5
C5
  8
THROUGH_CUT
 10
63.76777706968112
 20
7.100372055361077
 30
0.0
 42
0.4142135623730951
  0
VERTEX
  5
C6
  8
THROUGH_CUT
 10
63.57777706968112
 20
6.910372055361078
 30
0.0
 42
0.4142135623730951
  0
VERTEX
  5
C7
  8
THROUGH_CUT
 10
63.76777706968112
 20
6.72037205536108
 30
0.0
 42
0.4142135623730951
  0
VERTEX
  5
C8
  8
THROUGH_CUT
 10
63.95777706968111
 20
6.910372055361078
 30
0.0
 42
0.4142135623730951
  0
SEQEND
  5
C9
  8
THROUGH_CUT
  0
POLYLINE
  5
54
  8
THROUGH_CUT
 66
     1
 10
0.0
 20
0.0
 30
0.0
 70
     1
  0
VERTEX
  5
CA
  8
THROUGH_CUT
 10
4.784371069681171
 20
10.68968255536107
 30
0.0
  0
VERTEX
  5
CB
  8
THROUGH_CUT
 10
4.776627069681172
 20
10.72239355536107
 30
0.0
  0
VERTEX
  5
CC
  8
THROUGH_CUT
 10
4.763448069681171
 20
10.75331655536107
 30
0.0
  0
VERTEX
  5
CD
  8
THROUGH_CUT
 10
4.745217069681171
 20
10.78155755536108
 30
0.0
  0
VERTEX
  5
CE
  8
THROUGH_CUT
 10
4.722462069681171
 20
10.80629755536107
 30
0.0
  0
VERTEX
  5
CF
  8
THROUGH_CUT
 10
4.695840069681172
 20
10.82682155536106
 30
0.0
  0
VERTEX
  5
D0
  8
THROUGH_CUT
 10
4.666124069681171
 20
10.84253355536107
 30
0.0
  0
VERTEX
  5
D1
  8
THROUGH_CUT
 10
4.634174069681171
 20
10.85297955536107
 30
0.0
  0
VERTEX
  5
D2
  8
THROUGH_CUT
 10
4.600915069681172
 20
10.85785555536107
 30
0.0
  0
VERTEX
  5
D3
  8
THROUGH_CUT
 10
4.567311069681171
 20
10.85702255536107
 30
0.0
  0
VERTEX
  5
D4
  8
THROUGH_CUT
 10
4.534335069681172
 20
10.85050255536107
 30
0.0
  0
VERTEX
  5
D5
  8
THROUGH_CUT
 10
4.502942069681172
 20
10.83848655536107
 30
0.0
  0
VERTEX
  5
D6
  8
THROUGH_CUT
 10
4.474042069681172
 20
10.82132055536107
 30
0.0
  0
VERTEX
  5
D7
  8
THROUGH_CUT
 10
4.448470069681171
 20
10.79950255536107
 30
0.0
  0
VERTEX
  5
D8
  8
THROUGH_CUT
 10
4.426969069681171
 20
10.77366455536107
 30
0.0
  0
VERTEX
  5
D9
  8
THROUGH_CUT
 10
4.410160069681172
 20
10.74455455536108
 30
0.0
  0
VERTEX
  5
DA
  8
THROUGH_CUT
 10
4.398531069681171
 20
10.71301555536107
 30
0.0
  0
VERTEX
  5
DB
  8
THROUGH_CUT
 10
4.392418069681172
 20
10.67996155536107
 30
0.0
  0
VERTEX
  5
DC
  8
THROUGH_CUT
 10
4.391999069681171
 20
10.64635055536107
 30
0.0
  0
VERTEX
  5
DD
  8
THROUGH_CUT
 10
4.397289069681172
 20
10.61313655536107
 30
0.0
  0
VERTEX
  5
DE
  8
THROUGH_CUT
 10
4.408138069681172
 20
10.58130255536108
 30
0.0
  0
VERTEX
  5
DF
  8
THROUGH_CUT
 10
4.424231069681172
 20
10.55177055536107
 30
0.0
  0
VERTEX
  5
E0
  8
THROUGH_CUT
 10
4.445102069681171
 20
10.52539755536107
 30
0.0
  0
VERTEX
  5
E1
  8
THROUGH_CUT
 10
4.470144069681172
 20
10.50294755536108
 30
0.0
  0
VERTEX
  5
E2
  8
THROUGH_CUT
 10
4.498633069681171
 20
10.48507255536107
 30
0.0
  0
VERTEX
  5
E3
  8
THROUGH_CUT
 10
4.529741069681171
 20
10.47228955536107
 30
0.0
  0
VERTEX
  5
E4
  8
THROUGH_CUT
 10
4.562567069681171
 20
10.46497055536108
 30
0.0
  0
VERTEX
  5
E5
  8
THROUGH_CUT
 10
4.596159069681171
 20
10.46332655536106
 30
0.0
  0
VERTEX
  5
E6
  8
THROUGH_CUT
 10
4.629542069681172
 20
10.46740655536107
 30
0.0
  0
VERTEX
  5
E7
  8
THROUGH_CUT
 10
4.661750069681171
 20
10.47709155536107
 30
0.0
  0
VERTEX
  5
E8
  8
THROUGH_CUT
 10
4.691847069681172
 20
10.49210055536108
 30
0.0
  0
VERTEX
  5
E9
  8
THROUGH_CUT
 10
4.718962069681172
 20
10.51199855536107
 30
0.0
  0
VERTEX
  5
EA
  8
THROUGH_CUT
 10
4.742307069681171
 20
10.53620855536107
 30
0.0
  0
VERTEX
  5
EB
  8
THROUGH_CUT
 10
4.761206069681171
 20
10.56402755536108
 30
0.0
  0
VERTEX
  5
EC
  8
THROUGH_CUT
 10
4.775111069681172
 20
10.59465055536107
 30
0.0
  0
VERTEX
  5
ED
  8
THROUGH_CUT
 10
4.783619069681171
 20
10.62718955536107
 30
0.0
  0
VERTEX
  5
EE
  8
THROUGH_CUT
 10
4.786482069681172
 20
10.66069955536108
 30
0.0
  0
VERTEX
  5
EF
  8
THROUGH_CUT
 10
4.785947069681171
 20
10.67541055536107
 30
0.0
  0
SEQEND
  5
F0
  8
THROUGH_CUT
  0
POLYLINE
  5
55
  8
THROUGH_CUT
 66
     1
 10
0.0
 20
0.0
 30
0.0
 70
     1
  0
VERTEX
  5
F1
  8
THROUGH_CUT
 10
3.336517069681172
 20
32.16018555536108
 30
0.0
 42
-0.4142135623731067
  0
VERTEX
  5
F2
  8
THROUGH_CUT
 10
4.336517069681172
 20
33.16018555536108
 30
0.0
  0
VERTEX
  5
F3
  8
THROUGH_CUT
 10
21.33651706968117
 20
33.16018555536108
 30
0.0
 42
-0.414213562372991
  0
VERTEX
  5
F4
  8
THROUGH_CUT
 10
21.83651706968117
 20
32.66018555536108
 30
0.0
  0
VERTEX
  5
F5
  8
THROUGH_CUT
 10
21.83651706968117
 20
31.54018555536108
 30
0.0
 42
1.0
  0
VERTEX
  5
F6
  8
THROUGH_CUT
 10
21.83651706968117
 20
31.16018555536108
 30
0.0
  0
VERTEX
  5
F7
  8
THROUGH_CUT
 10
22.58651706968117
 20
31.16018555536108
 30
0.0
 42
1.0
  0
VERTEX
  5
F8
  8
THROUGH_CUT
 10
22.58651706968117
 20
31.54018555536108
 30
0.0
  0
VERTEX
  5
F9
  8
THROUGH_CUT
 10
22.58651706968117
 20
32.66018555536108
 30
0.0
 42
-0.414213562372991
  0
VERTEX
  5
FA
  8
THROUGH_CUT
 10
23.08651706968117
 20
33.16018555536108
 30
0.0
  0
VERTEX
  5
FB
  8
THROUGH_CUT
 10
25.4063840696811
 20
33.16018555536108
 30
0.0
 42
0.4142135623731054
  0
VERTEX
  5
FC
  8
THROUGH_CUT
 10
26.4063840696811
 20
34.16018555536108
 30
0.0
  0
VERTEX
  5
FD
  8
THROUGH_CUT
 10
26.4063840696811
 20
35.16018555536108
 30
0.0
 42
-0.4142135623731065
  0
VERTEX
  5
FE
  8
THROUGH_CUT
 10
28.4063840696811
 20
37.16018555536108
 30
0.0
  0
VERTEX
  5
FF
  8
THROUGH_CUT
 10
40.4063840696811
 20
37.16018555536108
 30
0.0
 42
-0.4142135623731054
  0
VERTEX
  5
100
  8
THROUGH_CUT
 10
42.4063840696811
 20
35.16018555536108
 30
0.0
  0
VERTEX
  5
101
  8
THROUGH_CUT
 10
42.4063840696811
 20
34.16018555536108
 30
0.0
 42
0.4142135623731076
  0
VERTEX
  5
102
  8
THROUGH_CUT
 10
43.4063840696811
 20
33.16018555536108
 30
0.0
  0
VERTEX
  5
103
  8
THROUGH_CUT
 10
45.71151706968117
 20
33.16018555536108
 30
0.0
 42
-0.4142135623729952
  0
VERTEX
  5
104
  8
THROUGH_CUT
 10
46.21151706968117
 20
32.66018555536108
 30
0.0
  0
VERTEX
  5
105
  8
THROUGH_CUT
 10
46.21151706968117
 20
31.54018555536108
 30
0.0
 42
1.0
  0
VERTEX
  5
106
  8
THROUGH_CUT
 10
46.21151706968117
 20
31.16018555536108
 30
0.0
  0
VERTEX
  5
107
  8
THROUGH_CUT
 10
46.96152106968116
 20
31.15999155536106
 30
0.0
 42
1.0
  0
VERTEX
  5
108
  8
THROUGH_CUT
 10
46.96152056103889
 20
31.53999155536072
 30
0.0
  0
VERTEX
  5
109
  8
THROUGH_CUT
 10
46.96151906968122
 20
32.65416538955476
 30
0.0
 42
-0.4190106534454274
  0
VERTEX
  5
10A
  8
THROUGH_CUT
 10
47.46969362867906
 20
33.15409915962285
 30
0.0
 42
-0.0210383435868202
  0
VERTEX
  5
10B
  8
THROUGH_CUT
 10
52.0042281455768
 20
32.88888853782278
 30
0.0
 42
0.3983185166685224
  0
VERTEX
  5
10C
  8
THROUGH_CUT
 10
53.09255195825528
 20
33.7294008012404
 30
0.0
  0
VERTEX
  5
10D
  8
THROUGH_CUT
 10
53.25963979253282
 20
34.79829956360241
 30
0.0
 42
-0.4142135623730632
  0
VERTEX
  5
10E
  8
THROUGH_CUT
 10
55.54452797345413
 20
36.46541804193161
 30
0.0
 42
-0.0534193910361545
  0
VERTEX
  5
10F
  8
THROUGH_CUT
 10
67.48149654957848
 20
33.26690273020689
 30
0.0
 42
-0.4142135623731108
  0
VERTEX
  5
110
  8
THROUGH_CUT
 10
68.62670316327592
 20
30.68068873461031
 30
0.0
  0
VERTEX
  5
111
  8
THROUGH_CUT
 10
68.23695402288365
 20
29.67145246573641
 30
0.0
 42
0.3983185166684415
  0
VERTEX
  5
112
  8
THROUGH_CUT
 10
68.75921062279275
 20
28.3993844307257
 30
0.0
 42
-0.0210377237207098
  0
VERTEX
  5
113
  8
THROUGH_CUT
 10
72.8187162265653
 20
26.36185264327388
 30
0.0
 42
-0.4190072680512185
  0
VERTEX
  5
114
  8
THROUGH_CUT
 10
73.00884431033228
 20
25.67481546243171
 30
0.0
  0
VERTEX
  5
115
  8
THROUGH_CUT
 10
72.45176525573046
 20
24.70990041075516
 30
0.0
 42
1.0
  0
VERTEX
  5
116
  8
THROUGH_CUT
 10
72.26176906968118
 20
24.38080855536107
 30
0.0
  0
VERTEX
  5
117
  8
THROUGH_CUT
 10
72.91130406968108
 20
24.00579455536105
 30
0.0
 42
0.9999999999999568
  0
VERTEX
  5
118
  8
THROUGH_CUT
 10
73.10130081602752
 20
24.33488608727545
 30
0.0
  0
VERTEX
  5
119
  8
THROUGH_CUT
 10
73.65837290102348
 20
25.29978527298989
 30
0.0
 42
-0.4190171421407347
  0
VERTEX
  5
11A
  8
THROUGH_CUT
 10
74.3484391840928
 20
25.47865445974232
 30
0.0
 42
-0.0210973618994892
  0
VERTEX
  5
11B
  8
THROUGH_CUT
 10
78.15316486440997
 20
22.97421428829834
 30
0.0
 42
0.3983185116128751
  0
VERTEX
  5
11C
  8
THROUGH_CUT
 10
79.51598285005673
 20
23.15761945737937
 30
0.0
  0
VERTEX
  5
11D
  8
THROUGH_CUT
 10
80.19534400892985
 20
23.99959975132454
 30
0.0
 42
-0.4142135623730754
  0
VERTEX
  5
11E
  8
THROUGH_CUT
 10
83.00774927680311
 20
24.30022457766911
 30
0.0
 42
-0.0534114140027384
  0
VERTEX
  5
11F
  8
THROUGH_CUT
 10
91.74288276392832
 20
15.56101264719014
 30
0.0
 42
-0.4142135623730454
  0
VERTEX
  5
120
  8
THROUGH_CUT
 10
91.44094542930384
 20
12.74874747288582
 30
0.0
  0
VERTEX
  5
121
  8
THROUGH_CUT
 10
90.5986481398698
 20
12.06978034659868
 30
0.0
 42
0.3983185166685217
  0
VERTEX
  5
122
  8
THROUGH_CUT
 10
90.4146063820582
 20
10.70704857155384
 30
0.0
 42
-0.0140421272148075
  0
VERTEX
  5
123
  8
THROUGH_CUT
 10
92.11633368720953
 20
8.19702199005063
 30
0.0
 42
-0.5921475292869337
  0
VERTEX
  5
124
  8
THROUGH_CUT
 10
91.27319706968109
 20
6.659322555361044
 30
0.0
  0
VERTEX
  5
125
  8
THROUGH_CUT
 10
85.99295306968116
 20
6.659322555361044
 30
0.0
 42
0.4142135623731034
  0
VERTEX
  5
126
  8
THROUGH_CUT
 10
84.99295306968116
 20
5.659322555361044
 30
0.0
  0
VERTEX
  5
127
  8
THROUGH_CUT
 10
84.99248806968112
 20
2.160372555361064
 30
0.0
  0
VERTEX
  5
128
  8
THROUGH_CUT
 10
4.336517069681173
 20
2.160372555361064
 30
0.0
 42
-0.4142135623730946
  0
VERTEX
  5
129
  8
THROUGH_CUT
 10
3.336517069681172
 20
3.160372555361064
 30
0.0
  0
SEQEND
  5
12A
  8
THROUGH_CUT
  0
POLYLINE
  5
56
  8
THROUGH_CUT
 66
     1
 10
0.0
 20
0.0
 30
0.0
 70
     1
  0
VERTEX
  5
12B
  8
THROUGH_CUT
 10
80.20948139615103
 20
16.17034043384785
 30
0.0
 42
0.8237336233316559
  0
VERTEX
  5
12C
  8
THROUGH_CUT
 10
80.4871571761143
 20
15.89386929399815
 30
0.0
 42
0.8241469133978765
  0
VERTEX
  5
12D
  8
THROUGH_CUT
 10
80.33362343429087
 20
16.25433851717157
 30
0.0
 42
0.0964029187071587
  0
VERTEX
  5
12E
  8
THROUGH_CUT
 10
80.2632866864796
 20
16.22438016459967
 30
0.0
 42
0.0966513828627436
  0
SEQEND
  5
12F
  8
THROUGH_CUT
  0
POLYLINE
  5
57
  8
THROUGH_CUT
 66
     1
 10
0.0
 20
0.0
 30
0.0
 70
     1
  0
VERTEX
  5
130
  8
THROUGH_CUT
 10
63.78995910916964
 20
40.13761367797862
 30
0.0
 42
-0.4128198544638024
  0
VERTEX
  5
131
  8
THROUGH_CUT
 10
62.78997044156645
 20
39.14237442006269
 30
0.0
  0
VERTEX
  5
132
  8
THROUGH_CUT
 10
40.78495397805639
 20
39.14237442006269
 30
0.0
  0
VERTEX
  5
133
  8
THROUGH_CUT
 10
18.77993551454634
 20
39.14237442006269
 30
0.0
 42
-0.4128198544612815
  0
VERTEX
  5
134
  8
THROUGH_CUT
 10
17.77994684694313
 20
40.13761367797865
 30
0.0
  0
VERTEX
  5
135
  8
THROUGH_CUT
 10
17.77994684694313
 20
45.0908544200627
 30
0.0
  0
VERTEX
  5
136
  8
THROUGH_CUT
 10
23.15942597805639
 20
45.09085442006271
 30
0.0
  0
VERTEX
  5
137
  8
THROUGH_CUT
 10
23.15942597805639
 20
41.79237442006273
 30
0.0
 42
1.0
  0
VERTEX
  5
138
  8
THROUGH_CUT
 10
23.15942597805639
 20
41.39237442006269
 30
0.0
  0
VERTEX
  5
139
  8
THROUGH_CUT
 10
23.90942597805639
 20
41.39237442006269
 30
0.0
 42
1.0
  0
VERTEX
  5
13A
  8
THROUGH_CUT
 10
23.90942597805639
 20
41.79237442006273
 30
0.0
  0
VERTEX
  5
13B
  8
THROUGH_CUT
 10
23.90942597805639
 20
45.09085442006271
 30
0.0
  0
VERTEX
  5
13C
  8
THROUGH_CUT
 10
40.7849529780564
 20
45.09085442006271
 30
0.0
  0
VERTEX
  5
13D
  8
THROUGH_CUT
 10
57.66047997805639
 20
45.09085442006271
 30
0.0
  0
VERTEX
  5
13E
  8
THROUGH_CUT
 10
57.66047997805639
 20
41.79237442006273
 30
0.0
 42
0.9999999999999821
  0
VERTEX
  5
13F
  8
THROUGH_CUT
 10
57.66047997805639
 20
41.39237442006269
 30
0.0
  0
VERTEX
  5
140
  8
THROUGH_CUT
 10
58.41047997805639
 20
41.39237442006269
 30
0.0
 42
0.9999999999999821
  0
VERTEX
  5
141
  8
THROUGH_CUT
 10
58.41047997805639
 20
41.79237442006273
 30
0.0
  0
VERTEX
  5
142
  8
THROUGH_CUT
 10
58.41047997805639
 20
45.09085442006271
 30
0.0
  0
VERTEX
  5
143
  8
THROUGH_CUT
 10
63.78995910916966
 20
45.09085442006271
 30
0.0
  0
SEQEND
  5
144
  8
THROUGH_CUT
  0
ENDSEC
  0
EOF
