  0
SECTION
  2
HEADER
  9
$ACADVER
  1
AC1009
  9
$DWGCODEPAGE
  3
ansi_1252
  9
$INSBASE
 10
0.0
 20
0.0
 30
0.0
  9
$EXTMIN
 10
1.097508132313217
 20
4.81512984095999
 30
0.0
  9
$EXTMAX
 10
94.90249186768679
 20
43.18487015904001
 30
0.0
  9
$LIMMIN
 10
0.0
 20
0.0
  9
$LIMMAX
 10
12.0
 20
9.0
  9
$ORTHOMODE
 70
     0
  9
$REGENMODE
 70
     1
  9
$FILLMODE
 70
     1
  9
$QTEXTMODE
 70
     0
  9
$MIRRTEXT
 70
     1
  9
$DRAGMODE
 70
     2
  9
$LTSCALE
 40
1.0
  9
$OSMODE
 70
    37
  9
$ATTMODE
 70
     1
  9
$TEXTSIZE
 40
0.2
  9
$TRACEWID
 40
0.05
  9
$TEXTSTYLE
  7
STANDARD
  9
$CLAYER
  8
0
  9
$CELTYPE
  6
BYLAYER
  9
$CECOLOR
 62
   256
  9
$DIMSCALE
 40
1.0
  9
$DIMASZ
 40
0.18
  9
$DIMEXO
 40
0.0625
  9
$DIMDLI
 40
0.38
  9
$DIMRND
 40
0.0
  9
$DIMDLE
 40
0.0
  9
$DIMEXE
 40
0.18
  9
$DIMTP
 40
0.0
  9
$DIMTM
 40
0.0
  9
$DIMTXT
 40
0.18
  9
$DIMCEN
 40
0.09
  9
$DIMTSZ
 40
0.0
  9
$DIMTOL
 70
     0
  9
$DIMLIM
 70
     0
  9
$DIMTIH
 70
     1
  9
$DIMTOH
 70
     1
  9
$DIMSE1
 70
     0
  9
$DIMSE2
 70
     0
  9
$DIMTAD
 70
     0
  9
$DIMZIN
 70
     0
  9
$DIMBLK
  1

  9
$DIMASO
 70
     1
  9
$DIMSHO
 70
     1
  9
$DIMPOST
  1

  9
$DIMAPOST
  1

  9
$DIMALT
 70
     0
  9
$DIMALTD
 70
     2
  9
$DIMALTF
 40
25.4
  9
$DIMLFAC
 40
1.0
  9
$DIMTOFL
 70
     0
  9
$DIMTVP
 40
0.0
  9
$DIMTIX
 70
     0
  9
$DIMSOXD
 70
     0
  9
$DIMSAH
 70
     0
  9
$DIMBLK1
  1

  9
$DIMBLK2
  1

  9
$DIMSTYLE
  2
STANDARD
  9
$DIMCLRD
 70
     0
  9
$DIMCLRE
 70
     0
  9
$DIMCLRT
 70
     0
  9
$DIMTFAC
 40
1.0
  9
$DIMGAP
 40
0.09
  9
$LUNITS
 70
     2
  9
$LUPREC
 70
     4
  9
$SKETCHINC
 40
0.1
  9
$FILLETRAD
 40
0.5
  9
$AUNITS
 70
     0
  9
$AUPREC
 70
     0
  9
$MENU
  1
.
  9
$ELEVATION
 40
0.0
  9
$PELEVATION
 40
0.0
  9
$THICKNESS
 40
0.0
  9
$LIMCHECK
 70
     0
  9
$CHAMFERA
 40
0.5
  9
$CHAMFERB
 40
0.5
  9
$SKPOLY
 70
     0
  9
$TDCREATE
 40
2454910.5
  9
$TDUPDATE
 40
2455901.451284352
  9
$TDINDWG
 40
0.0000000116
  9
$TDUSRTIMER
 40
0.0000000116
  9
$USRTIMER
 70
     1
  9
$ANGBASE
 50
0.0
  9
$ANGDIR
 70
     0
  9
$PDMODE
 70
     0
  9
$PDSIZE
 40
0.0
  9
$PLINEWID
 40
0.0
  9
$COORDS
 70
     1
  9
$SPLFRAME
 70
     0
  9
$SPLINETYPE
 70
     6
  9
$SPLINESEGS
 70
     8
  9
$ATTDIA
 70
     0
  9
$ATTREQ
 70
     1
  9
$HANDLING
 70
     1
  9
$HANDSEED
  5
143
  9
$SURFTAB1
 70
     6
  9
$SURFTAB2
 70
     6
  9
$SURFTYPE
 70
     6
  9
$SURFU
 70
     6
  9
$SURFV
 70
     6
  9
$UCSNAME
  2

  9
$UCSORG
 10
0.0
 20
0.0
 30
0.0
  9
$UCSXDIR
 10
1.0
 20
0.0
 30
0.0
  9
$UCSYDIR
 10
0.0
 20
1.0
 30
0.0
  9
$PUCSNAME
  2

  9
$PUCSORG
 10
0.0
 20
0.0
 30
0.0
  9
$PUCSXDIR
 10
1.0
 20
0.0
 30
0.0
  9
$PUCSYDIR
 10
0.0
 20
1.0
 30
0.0
  9
$USERI1
 70
     0
  9
$USERI2
 70
     0
  9
$USERI3
 70
     0
  9
$USERI4
 70
     0
  9
$USERI5
 70
     0
  9
$USERR1
 40
0.0
  9
$USERR2
 40
0.0
  9
$USERR3
 40
0.0
  9
$USERR4
 40
0.0
  9
$USERR5
 40
0.0
  9
$WORLDVIEW
 70
     1
  9
$SHADEDGE
 70
     3
  9
$SHADEDIF
 70
    70
  9
$TILEMODE
 70
     1
  9
$MAXACTVP
 70
    64
  9
$PLIMCHECK
 70
     0
  9
$PEXTMIN
 10
1.000000000000000E+20
 20
1.000000000000000E+20
 30
1.000000000000000E+20
  9
$PEXTMAX
 10
-1.000000000000000E+20
 20
-1.000000000000000E+20
 30
-1.000000000000000E+20
  9
$PLIMMIN
 10
0.0
 20
0.0
  9
$PLIMMAX
 10
12.0
 20
9.0
  9
$UNITMODE
 70
     0
  9
$VISRETAIN
 70
     1
  9
$PLINEGEN
 70
     0
  9
$PSLTSCALE
 70
     1
  0
ENDSEC
  0
SECTION
  2
TABLES
  0
TABLE
  2
VPORT
 70
     1
  0
VPORT
  2
*ACTIVE
 70
     0
 10
0.0
 20
0.0
 11
1.0
 21
1.0
 12
10.42990654205607
 22
4.5
 13
0.0
 23
0.0
 14
0.5
 24
0.5
 15
0.5
 25
0.5
 16
0.0
 26
0.0
 36
1.0
 17
0.0
 27
0.0
 37
0.0
 40
9.0
 41
1.972972972850329
 42
50.0
 43
0.0
 44
0.0
 50
0.0
 51
0.0
 71
     0
 72
   100
 73
     1
 74
     3
 75
     0
 76
     0
 77
     0
 78
     0
  0
ENDTAB
  0
TABLE
  2
LTYPE
 70
     2
  0
LTYPE
  2
CONTINUOUS
 70
     0
  3
Solid line
 72
    65
 73
     0
 40
0.0
  0
LTYPE
  2
CONTINUOUS2
 70
     0
  3
Solid Line
 72
    65
 73
     0
 40
0.0
  0
ENDTAB
  0
TABLE
  2
LAYER
 70
     3
  0
LAYER
  2
0
 70
     0
 62
     7
  6
CONTINUOUS
  0
LAYER
  2
THROUGH_CUT
 70
     0
 62
    18
  6
CONTINUOUS
  0
LAYER
  2
POCKETS_FOR_ACRYLIC
 70
     0
 62
    30
  6
CONTINUOUS
  0
ENDTAB
  0
TABLE
  2
STYLE
 70
     1
  0
STYLE
  2
STANDARD
 70
     0
 40
0.0
 41
1.0
 50
0.0
 71
     0
 42
0.2
  3
txt
  4

  0
ENDTAB
  0
TABLE
  2
VIEW
 70
     0
  0
ENDTAB
  0
TABLE
  2
UCS
 70
     0
  0
ENDTAB
  0
TABLE
  2
APPID
 70
     1
  0
APPID
  2
ACAD
 70
     0
  0
ENDTAB
  0
TABLE
  2
DIMSTYLE
 70
     1
  0
DIMSTYLE
  2
STANDARD
 70
     0
  3

  4

  5

  6

  7

 40
1.0
 41
0.18
 42
0.0625
 43
0.38
 44
0.18
 45
0.0
 46
0.0
 47
0.0
 48
0.0
140
0.18
141
0.09
142
0.0
143
25.4
144
1.0
145
0.0
146
1.0
147
0.09
 71
     0
 72
     0
 73
     1
 74
     1
 75
     0
 76
     0
 77
     0
 78
     0
170
     0
171
     2
172
     0
173
     0
174
     0
175
     0
176
     0
177
     0
178
     0
  0
ENDTAB
  0
ENDSEC
  0
SECTION
  2
BLOCKS
  0
BLOCK
  8
0
  2
$MODEL_SPACE
 70
     0
 10
0.0
 20
0.0
 30
0.0
  3
$MODEL_SPACE
  1

  0
ENDBLK
  5
21
  8
0
  0
BLOCK
 67
     1
  8
0
  2
$PAPER_SPACE
 70
     0
 10
0.0
 20
0.0
 30
0.0
  3
$PAPER_SPACE
  1

  0
ENDBLK
  5
1D
 67
     1
  8
0
  0
ENDSEC
  0
SECTION
  2
ENTITIES
  0
POLYLINE
  5
41
  8
THROUGH_CUT
 66
     1
 10
0.0
 20
0.0
 30
0.0
 70
     1
  0
VERTEX
  5
63
  8
THROUGH_CUT
 10
37.28623394342597
 20
11.48627861865688
 30
0.0
 42
-0.6590215623974438
  0
VERTEX
  5
64
  8
THROUGH_CUT
 10
34.4230451323132
 20
4.81512984095999
 30
0.0
  0
VERTEX
  5
65
  8
THROUGH_CUT
 10
5.047508132313206
 20
4.815129840959997
 30
0.0
 42
-0.4142135623730909
  0
VERTEX
  5
66
  8
THROUGH_CUT
 10
1.097508132313217
 20
8.765129840959986
 30
0.0
  0
VERTEX
  5
67
  8
THROUGH_CUT
 10
1.097508132313217
 20
19.29813884095997
 30
0.0
 42
-0.4586196939095624
  0
VERTEX
  5
68
  8
THROUGH_CUT
 10
9.0806005112917
 20
26.17092729044931
 30
0.0
 42
-0.1669323781031471
  0
SEQEND
  5
69
  8
THROUGH_CUT
  0
POLYLINE
  5
42
  8
THROUGH_CUT
 66
     1
 10
0.0
 20
0.0
 30
0.0
 70
     1
  0
VERTEX
  5
6A
  8
THROUGH_CUT
 10
34.42304516152649
 20
6.81512984095999
 30
0.0
 42
0.6590215623974616
  0
VERTEX
  5
6B
  8
THROUGH_CUT
 10
35.83651817507913
 20
10.10848175735745
 30
0.0
 42
0.1669323781031467
  0
VERTEX
  5
6C
  8
THROUGH_CUT
 10
8.783307793679604
 20
24.19314645323433
 30
0.0
 42
0.4586196939095593
  0
VERTEX
  5
6D
  8
THROUGH_CUT
 10
3.097508132313218
 20
19.2981388304524
 30
0.0
  0
VERTEX
  5
6E
  8
THROUGH_CUT
 10
3.097508132313218
 20
8.765129840959986
 30
0.0
 42
0.4142135623730865
  0
VERTEX
  5
6F
  8
THROUGH_CUT
 10
5.047508132313206
 20
6.815129840959997
 30
0.0
  0
SEQEND
  5
70
  8
THROUGH_CUT
  0
POLYLINE
  5
43
  8
THROUGH_CUT
 66
     1
 10
0.0
 20
0.0
 30
0.0
 70
     1
  0
VERTEX
  5
71
  8
THROUGH_CUT
 10
4.952331285358234
 20
36.51372138134306
 30
0.0
 42
-0.6590215623974456
  0
VERTEX
  5
72
  8
THROUGH_CUT
 10
7.815520096471014
 20
43.18487015904001
 30
0.0
  0
VERTEX
  5
73
  8
THROUGH_CUT
 10
37.19105709647096
 20
43.18487015903999
 30
0.0
 42
-0.4142135623730883
  0
VERTEX
  5
74
  8
THROUGH_CUT
 10
41.14105709647095
 20
39.23487015903999
 30
0.0
  0
VERTEX
  5
75
  8
THROUGH_CUT
 10
41.14105709647094
 20
28.70186115903996
 30
0.0
 42
-0.4586196939095623
  0
VERTEX
  5
76
  8
THROUGH_CUT
 10
33.15796471749246
 20
21.82907270955063
 30
0.0
 42
-0.1669323781031467
  0
SEQEND
  5
77
  8
THROUGH_CUT
  0
POLYLINE
  5
44
  8
THROUGH_CUT
 66
     1
 10
0.0
 20
0.0
 30
0.0
 70
     1
  0
VERTEX
  5
78
  8
THROUGH_CUT
 10
7.815520067257713
 20
41.18487015904001
 30
0.0
 42
0.6590215623974582
  0
VERTEX
  5
79
  8
THROUGH_CUT
 10
6.402047053705074
 20
37.8915182426425
 30
0.0
 42
0.1669323781031467
  0
VERTEX
  5
7A
  8
THROUGH_CUT
 10
33.45525743510456
 20
23.80685354676559
 30
0.0
 42
0.4586196939095595
  0
VERTEX
  5
7B
  8
THROUGH_CUT
 10
39.14105709647094
 20
28.70186116954752
 30
0.0
  0
VERTEX
  5
7C
  8
THROUGH_CUT
 10
39.14105709647095
 20
39.23487015903999
 30
0.0
 42
0.4142135623730812
  0
VERTEX
  5
7D
  8
THROUGH_CUT
 10
37.19105709647096
 20
41.18487015903999
 30
0.0
  0
SEQEND
  5
7E
  8
THROUGH_CUT
  0
POLYLINE
  5
45
  8
THROUGH_CUT
 66
     1
 10
0.0
 20
0.0
 30
0.0
 70
     1
  0
VERTEX
  5
7F
  8
THROUGH_CUT
 10
58.71376605657404
 20
11.48627861865688
 30
0.0
 42
0.6590215623974426
  0
VERTEX
  5
80
  8
THROUGH_CUT
 10
61.57695486768682
 20
4.815129840959997
 30
0.0
  0
VERTEX
  5
81
  8
THROUGH_CUT
 10
90.9524918676868
 20
4.815129840960008
 30
0.0
 42
0.4142135623730887
  0
VERTEX
  5
82
  8
THROUGH_CUT
 10
94.90249186768679
 20
8.765129840959997
 30
0.0
  0
VERTEX
  5
83
  8
THROUGH_CUT
 10
94.90249186768679
 20
19.29813884095998
 30
0.0
 42
0.4586196939095624
  0
VERTEX
  5
84
  8
THROUGH_CUT
 10
86.91939948870831
 20
26.17092729044932
 30
0.0
 42
0.1669323781031467
  0
SEQEND
  5
85
  8
THROUGH_CUT
  0
POLYLINE
  5
46
  8
THROUGH_CUT
 66
     1
 10
0.0
 20
0.0
 30
0.0
 70
     1
  0
VERTEX
  5
86
  8
THROUGH_CUT
 10
61.57695483847353
 20
6.815129840959997
 30
0.0
 42
-0.6590215623974628
  0
VERTEX
  5
87
  8
THROUGH_CUT
 10
60.16348182492087
 20
10.10848175735745
 30
0.0
 42
-0.1669323781031462
  0
VERTEX
  5
88
  8
THROUGH_CUT
 10
87.2166922063204
 20
24.19314645323435
 30
0.0
 42
-0.4586196939095594
  0
VERTEX
  5
89
  8
THROUGH_CUT
 10
92.90249186768679
 20
19.29813883045241
 30
0.0
  0
VERTEX
  5
8A
  8
THROUGH_CUT
 10
92.90249186768679
 20
8.765129840959997
 30
0.0
 42
-0.4142135623730823
  0
VERTEX
  5
8B
  8
THROUGH_CUT
 10
90.9524918676868
 20
6.815129840960008
 30
0.0
  0
SEQEND
  5
8C
  8
THROUGH_CUT
  0
POLYLINE
  5
47
  8
THROUGH_CUT
 66
     1
 10
0.0
 20
0.0
 30
0.0
 70
     1
  0
VERTEX
  5
8D
  8
THROUGH_CUT
 10
89.32952844346758
 20
36.45059388545268
 30
0.0
 42
0.6590215623974449
  0
VERTEX
  5
8E
  8
THROUGH_CUT
 10
86.46633963235479
 20
43.1217426631496
 30
0.0
  0
VERTEX
  5
8F
  8
THROUGH_CUT
 10
57.09080263235489
 20
43.12174266314956
 30
0.0
 42
0.4142135623730883
  0
VERTEX
  5
90
  8
THROUGH_CUT
 10
53.14080263235491
 20
39.17174266314957
 30
0.0
  0
VERTEX
  5
91
  8
THROUGH_CUT
 10
53.14080263235491
 20
28.63873366314957
 30
0.0
 42
0.4586196939095615
  0
VERTEX
  5
92
  8
THROUGH_CUT
 10
61.1238950113334
 20
21.76594521366023
 30
0.0
 42
0.1669323781031467
  0
SEQEND
  5
93
  8
THROUGH_CUT
  0
POLYLINE
  5
48
  8
THROUGH_CUT
 66
     1
 10
0.0
 20
0.0
 30
0.0
 70
     1
  0
VERTEX
  5
94
  8
THROUGH_CUT
 10
86.4663396615681
 20
41.1217426631496
 30
0.0
 42
-0.6590215623974531
  0
VERTEX
  5
95
  8
THROUGH_CUT
 10
87.87981267512075
 20
37.82839074675211
 30
0.0
 42
-0.1669323781031467
  0
VERTEX
  5
96
  8
THROUGH_CUT
 10
60.82660229372129
 20
23.74372605087521
 30
0.0
 42
-0.4586196939095595
  0
VERTEX
  5
97
  8
THROUGH_CUT
 10
55.14080263235491
 20
28.63873367365714
 30
0.0
  0
VERTEX
  5
98
  8
THROUGH_CUT
 10
55.14080263235491
 20
39.17174266314957
 30
0.0
 42
-0.4142135623730812
  0
VERTEX
  5
99
  8
THROUGH_CUT
 10
57.09080263235489
 20
41.12174266314956
 30
0.0
  0
SEQEND
  5
9A
  8
THROUGH_CUT
  0
POLYLINE
  5
49
  8
THROUGH_CUT
 66
     1
 10
0.0
 20
0.0
 30
0.0
 70
     1
  0
VERTEX
  5
9B
  8
THROUGH_CUT
 10
1.797508132313206
 20
14.97163434783539
 30
0.0
 42
0.4142135623730955
  0
VERTEX
  5
9C
  8
THROUGH_CUT
 10
1.607508132313209
 20
14.78163434783539
 30
0.0
 42
0.4142135623730955
  0
VERTEX
  5
9D
  8
THROUGH_CUT
 10
1.797508132313206
 20
14.59163434783539
 30
0.0
 42
0.4142135623730955
  0
VERTEX
  5
9E
  8
THROUGH_CUT
 10
1.987508132313204
 20
14.78163434783539
 30
0.0
 42
0.4142135623730955
  0
SEQEND
  5
9F
  8
THROUGH_CUT
  0
POLYLINE
  5
4A
  8
THROUGH_CUT
 66
     1
 10
0.0
 20
0.0
 30
0.0
 70
     1
  0
VERTEX
  5
A0
  8
THROUGH_CUT
 10
11.21211546170927
 20
25.22376882224962
 30
0.0
 42
0.4142135623730923
  0
VERTEX
  5
A1
  8
THROUGH_CUT
 10
11.02211546170927
 20
25.03376882224962
 30
0.0
 42
0.4142135623730923
  0
VERTEX
  5
A2
  8
THROUGH_CUT
 10
11.21211546170927
 20
24.84376882224962
 30
0.0
 42
0.4142135623730951
  0
VERTEX
  5
A3
  8
THROUGH_CUT
 10
11.40211546170926
 20
25.03376882224962
 30
0.0
 42
0.4142135623730951
  0
SEQEND
  5
A4
  8
THROUGH_CUT
  0
POLYLINE
  5
4B
  8
THROUGH_CUT
 66
     1
 10
0.0
 20
0.0
 30
0.0
 70
     1
  0
VERTEX
  5
A5
  8
THROUGH_CUT
 10
33.47351638056979
 20
14.35705314498822
 30
0.0
 42
0.4142135623730978
  0
VERTEX
  5
A6
  8
THROUGH_CUT
 10
33.28351638056979
 20
14.16705314498822
 30
0.0
 42
0.4142135623730978
  0
VERTEX
  5
A7
  8
THROUGH_CUT
 10
33.47351638056979
 20
13.97705314498822
 30
0.0
 42
0.4142135623730978
  0
VERTEX
  5
A8
  8
THROUGH_CUT
 10
33.66351638056979
 20
14.16705314498822
 30
0.0
 42
0.4142135623730978
  0
SEQEND
  5
A9
  8
THROUGH_CUT
  0
POLYLINE
  5
4C
  8
THROUGH_CUT
 66
     1
 10
0.0
 20
0.0
 30
0.0
 70
     1
  0
VERTEX
  5
AA
  8
THROUGH_CUT
 10
18.98587635708231
 20
5.705129840959994
 30
0.0
 42
0.4142135623730947
  0
VERTEX
  5
AB
  8
THROUGH_CUT
 10
18.79587635708231
 20
5.515129840959995
 30
0.0
 42
0.4142135623730947
  0
VERTEX
  5
AC
  8
THROUGH_CUT
 10
18.98587635708231
 20
5.325129840959997
 30
0.0
 42
0.4142135623730955
  0
VERTEX
  5
AD
  8
THROUGH_CUT
 10
19.17587635708231
 20
5.515129840959995
 30
0.0
 42
0.4142135623730955
  0
SEQEND
  5
AE
  8
THROUGH_CUT
  0
POLYLINE
  5
4D
  8
THROUGH_CUT
 66
     1
 10
0.0
 20
0.0
 30
0.0
 70
     1
  0
VERTEX
  5
AF
  8
THROUGH_CUT
 10
40.44105709647096
 20
33.40836565216454
 30
0.0
 42
0.4142135623731005
  0
VERTEX
  5
B0
  8
THROUGH_CUT
 10
40.25105709647097
 20
33.21836565216454
 30
0.0
 42
0.4142135623731059
  0
VERTEX
  5
B1
  8
THROUGH_CUT
 10
40.44105709647096
 20
33.02836565216455
 30
0.0
 42
0.4142135623730951
  0
VERTEX
  5
B2
  8
THROUGH_CUT
 10
40.63105709647096
 20
33.21836565216454
 30
0.0
 42
0.4142135623730896
  0
SEQEND
  5
B3
  8
THROUGH_CUT
  0
POLYLINE
  5
4E
  8
THROUGH_CUT
 66
     1
 10
0.0
 20
0.0
 30
0.0
 70
     1
  0
VERTEX
  5
B4
  8
THROUGH_CUT
 10
31.0264497670749
 20
23.15623117775031
 30
0.0
 42
0.4142135623730978
  0
VERTEX
  5
B5
  8
THROUGH_CUT
 10
30.83644976707492
 20
22.96623117775032
 30
0.0
 42
0.4142135623731059
  0
VERTEX
  5
B6
  8
THROUGH_CUT
 10
31.0264497670749
 20
22.77623117775033
 30
0.0
 42
0.4142135623730951
  0
VERTEX
  5
B7
  8
THROUGH_CUT
 10
31.2164497670749
 20
22.96623117775032
 30
0.0
 42
0.4142135623730978
  0
SEQEND
  5
B8
  8
THROUGH_CUT
  0
POLYLINE
  5
4F
  8
THROUGH_CUT
 66
     1
 10
0.0
 20
0.0
 30
0.0
 70
     1
  0
VERTEX
  5
B9
  8
THROUGH_CUT
 10
8.765048848214425
 20
34.0229468550117
 30
0.0
 42
0.4142135623730951
  0
VERTEX
  5
BA
  8
THROUGH_CUT
 10
8.575048848214424
 20
33.8329468550117
 30
0.0
 42
0.4142135623731005
  0
VERTEX
  5
BB
  8
THROUGH_CUT
 10
8.765048848214425
 20
33.6429468550117
 30
0.0
 42
0.4142135623730978
  0
VERTEX
  5
BC
  8
THROUGH_CUT
 10
8.955048848214425
 20
33.8329468550117
 30
0.0
 42
0.4142135623730923
  0
SEQEND
  5
BD
  8
THROUGH_CUT
  0
POLYLINE
  5
50
  8
THROUGH_CUT
 66
     1
 10
0.0
 20
0.0
 30
0.0
 70
     1
  0
VERTEX
  5
BE
  8
THROUGH_CUT
 10
23.25268887170195
 20
42.67487015904
 30
0.0
 42
0.4142135623731005
  0
VERTEX
  5
BF
  8
THROUGH_CUT
 10
23.06268887170195
 20
42.48487015904
 30
0.0
 42
0.4142135623731115
  0
VERTEX
  5
C0
  8
THROUGH_CUT
 10
23.25268887170195
 20
42.29487015904001
 30
0.0
 42
0.4142135623731115
  0
VERTEX
  5
C1
  8
THROUGH_CUT
 10
23.44268887170195
 20
42.48487015904
 30
0.0
 42
0.4142135623731005
  0
SEQEND
  5
C2
  8
THROUGH_CUT
  0
POLYLINE
  5
51
  8
THROUGH_CUT
 66
     1
 10
0.0
 20
0.0
 30
0.0
 70
     1
  0
VERTEX
  5
C3
  8
THROUGH_CUT
 10
94.2024918676868
 20
14.9716343478354
 30
0.0
 42
0.4142135623730978
  0
VERTEX
  5
C4
  8
THROUGH_CUT
 10
94.0124918676868
 20
14.7816343478354
 30
0.0
 42
0.4142135623731005
  0
VERTEX
  5
C5
  8
THROUGH_CUT
 10
94.2024918676868
 20
14.5916343478354
 30
0.0
 42
0.4142135623731005
  0
VERTEX
  5
C6
  8
THROUGH_CUT
 10
94.3924918676868
 20
14.7816343478354
 30
0.0
 42
0.4142135623730978
  0
SEQEND
  5
C7
  8
THROUGH_CUT
  0
POLYLINE
  5
52
  8
THROUGH_CUT
 66
     1
 10
0.0
 20
0.0
 30
0.0
 70
     1
  0
VERTEX
  5
C8
  8
THROUGH_CUT
 10
84.78788453829074
 20
25.22376882224963
 30
0.0
 42
0.4142135623730951
  0
VERTEX
  5
C9
  8
THROUGH_CUT
 10
84.59788453829074
 20
25.03376882224963
 30
0.0
 42
0.4142135623731005
  0
VERTEX
  5
CA
  8
THROUGH_CUT
 10
84.78788453829074
 20
24.84376882224963
 30
0.0
 42
0.4142135623731005
  0
VERTEX
  5
CB
  8
THROUGH_CUT
 10
84.97788453829074
 20
25.03376882224963
 30
0.0
 42
0.4142135623730951
  0
SEQEND
  5
CC
  8
THROUGH_CUT
  0
POLYLINE
  5
53
  8
THROUGH_CUT
 66
     1
 10
0.0
 20
0.0
 30
0.0
 70
     1
  0
VERTEX
  5
CD
  8
THROUGH_CUT
 10
62.52648361943022
 20
14.35705314498823
 30
0.0
 42
0.4142135623730896
  0
VERTEX
  5
CE
  8
THROUGH_CUT
 10
62.33648361943023
 20
14.16705314498823
 30
0.0
 42
0.4142135623730869
  0
VERTEX
  5
CF
  8
THROUGH_CUT
 10
62.52648361943022
 20
13.97705314498823
 30
0.0
 42
0.4142135623730978
  0
VERTEX
  5
D0
  8
THROUGH_CUT
 10
62.71648361943022
 20
14.16705314498823
 30
0.0
 42
0.4142135623731005
  0
SEQEND
  5
D1
  8
THROUGH_CUT
  0
POLYLINE
  5
54
  8
THROUGH_CUT
 66
     1
 10
0.0
 20
0.0
 30
0.0
 70
     1
  0
VERTEX
  5
D2
  8
THROUGH_CUT
 10
53.84080263235489
 20
33.34523815627415
 30
0.0
 42
0.4142135623731005
  0
VERTEX
  5
D3
  8
THROUGH_CUT
 10
53.6508026323549
 20
33.15523815627415
 30
0.0
 42
0.4142135623730951
  0
VERTEX
  5
D4
  8
THROUGH_CUT
 10
53.84080263235489
 20
32.96523815627415
 30
0.0
 42
0.4142135623730951
  0
VERTEX
  5
D5
  8
THROUGH_CUT
 10
54.03080263235489
 20
33.15523815627415
 30
0.0
 42
0.4142135623731005
  0
SEQEND
  5
D6
  8
THROUGH_CUT
  0
POLYLINE
  5
55
  8
THROUGH_CUT
 66
     1
 10
0.0
 20
0.0
 30
0.0
 70
     1
  0
VERTEX
  5
D7
  8
THROUGH_CUT
 10
63.25540996175096
 20
23.09310368185992
 30
0.0
 42
0.4142135623730869
  0
VERTEX
  5
D8
  8
THROUGH_CUT
 10
63.06540996175097
 20
22.90310368185992
 30
0.0
 42
0.4142135623730978
  0
VERTEX
  5
D9
  8
THROUGH_CUT
 10
63.25540996175096
 20
22.71310368185993
 30
0.0
 42
0.4142135623730978
  0
VERTEX
  5
DA
  8
THROUGH_CUT
 10
63.44540996175095
 20
22.90310368185992
 30
0.0
 42
0.4142135623730978
  0
SEQEND
  5
DB
  8
THROUGH_CUT
  0
POLYLINE
  5
56
  8
THROUGH_CUT
 66
     1
 10
0.0
 20
0.0
 30
0.0
 70
     1
  0
VERTEX
  5
DC
  8
THROUGH_CUT
 10
85.51681088061139
 20
33.95981935912132
 30
0.0
 42
0.4142135623731005
  0
VERTEX
  5
DD
  8
THROUGH_CUT
 10
85.32681088061139
 20
33.76981935912131
 30
0.0
 42
0.4142135623730951
  0
VERTEX
  5
DE
  8
THROUGH_CUT
 10
85.51681088061139
 20
33.57981935912133
 30
0.0
 42
0.4142135623730951
  0
VERTEX
  5
DF
  8
THROUGH_CUT
 10
85.70681088061139
 20
33.76981935912131
 30
0.0
 42
0.4142135623731005
  0
SEQEND
  5
E0
  8
THROUGH_CUT
  0
POLYLINE
  5
57
  8
THROUGH_CUT
 66
     1
 10
0.0
 20
0.0
 30
0.0
 70
     1
  0
VERTEX
  5
E1
  8
THROUGH_CUT
 10
71.02917085712392
 20
42.61174266314958
 30
0.0
 42
0.4142135623731059
  0
VERTEX
  5
E2
  8
THROUGH_CUT
 10
70.83917085712392
 20
42.42174266314959
 30
0.0
 42
0.4142135623730951
  0
VERTEX
  5
E3
  8
THROUGH_CUT
 10
71.02917085712392
 20
42.23174266314959
 30
0.0
 42
0.4142135623730951
  0
VERTEX
  5
E4
  8
THROUGH_CUT
 10
71.21917085712391
 20
42.42174266314959
 30
0.0
 42
0.4142135623731059
  0
SEQEND
  5
E5
  8
THROUGH_CUT
  0
POLYLINE
  5
58
  8
THROUGH_CUT
 66
     1
 10
0.0
 20
0.0
 30
0.0
 70
     1
  0
VERTEX
  5
E6
  8
THROUGH_CUT
 10
77.01412364291777
 20
5.32527332188764
 30
0.0
 42
0.4142135623731059
  0
VERTEX
  5
E7
  8
THROUGH_CUT
 10
77.20412364291778
 20
5.515273321887638
 30
0.0
 42
0.4142135623730951
  0
VERTEX
  5
E8
  8
THROUGH_CUT
 10
77.01412364291777
 20
5.705273321887636
 30
0.0
 42
0.4142135623730951
  0
VERTEX
  5
E9
  8
THROUGH_CUT
 10
76.82412364291778
 20
5.515273321887638
 30
0.0
 42
0.4142135623731059
  0
SEQEND
  5
EA
  8
THROUGH_CUT
  0
POLYLINE
  5
5A
  8
POCKETS_FOR_ACRYLIC
 66
     1
 10
0.0
 20
0.0
 30
0.0
  0
VERTEX
  5
EB
  8
POCKETS_FOR_ACRYLIC
 10
86.41633964503794
 20
41.20924266314958
 30
0.0
  0
VERTEX
  5
EC
  8
POCKETS_FOR_ACRYLIC
 10
57.0908023633075
 20
41.20924266314959
 30
0.0
 42
0.4142135236971769
  0
VERTEX
  5
ED
  8
POCKETS_FOR_ACRYLIC
 10
55.05330263235491
 20
39.17174266314949
 30
0.0
  0
VERTEX
  5
EE
  8
POCKETS_FOR_ACRYLIC
 10
55.05330263235491
 20
28.63873360389667
 30
0.0
 42
0.4586196601846817
  0
VERTEX
  5
EF
  8
POCKETS_FOR_ACRYLIC
 10
60.83960836370785
 20
23.65719806613185
 30
0.0
 42
0.1669323802593072
  0
VERTEX
  5
F0
  8
POCKETS_FOR_ACRYLIC
 10
87.94323767136638
 20
37.76811206186888
 30
0.0
 42
0.6590215826622644
  0
VERTEX
  5
F1
  8
POCKETS_FOR_ACRYLIC
 10
86.46633964503792
 20
41.20924266314958
 30
0.0
  0
VERTEX
  5
F2
  8
POCKETS_FOR_ACRYLIC
 10
86.41633968599373
 20
41.38294266314959
 30
0.0
  0
VERTEX
  5
F3
  8
POCKETS_FOR_ACRYLIC
 10
57.09080233178661
 20
41.3829426631496
 30
0.0
 42
0.4142135005961429
  0
VERTEX
  5
F4
  8
POCKETS_FOR_ACRYLIC
 10
54.87960263235491
 20
39.17174282896679
 30
0.0
  0
VERTEX
  5
F5
  8
POCKETS_FOR_ACRYLIC
 10
54.87960263235491
 20
28.63873360103432
 30
0.0
 42
0.4586196844619403
  0
VERTEX
  5
F6
  8
POCKETS_FOR_ACRYLIC
 10
60.86542863159028
 20
23.48542785984847
 30
0.0
 42
0.1669323780019907
  0
VERTEX
  5
F7
  8
POCKETS_FOR_ACRYLIC
 10
88.06914548302447
 20
37.64845040149488
 30
0.0
 42
0.6590215745354837
  0
VERTEX
  5
F8
  8
POCKETS_FOR_ACRYLIC
 10
86.46633968599374
 20
41.38294266314959
 30
0.0
  0
VERTEX
  5
F9
  8
POCKETS_FOR_ACRYLIC
 10
86.41633968388746
 20
41.53424266314959
 30
0.0
  0
VERTEX
  5
FA
  8
POCKETS_FOR_ACRYLIC
 10
57.09080234264329
 20
41.5342426631496
 30
0.0
 42
0.4142135103931488
  0
VERTEX
  5
FB
  8
POCKETS_FOR_ACRYLIC
 10
54.72830263235491
 20
39.17174279271219
 30
0.0
  0
VERTEX
  5
FC
  8
POCKETS_FOR_ACRYLIC
 10
54.72830263235491
 20
28.63873363949871
 30
0.0
 42
0.4586196813481864
  0
VERTEX
  5
FD
  8
POCKETS_FOR_ACRYLIC
 10
60.88791872782366
 20
23.33580872480411
 30
0.0
 42
0.1669323785315098
  0
VERTEX
  5
FE
  8
POCKETS_FOR_ACRYLIC
 10
88.17881647895035
 20
37.54422006688626
 30
0.0
 42
0.659021574204294
  0
VERTEX
  5
FF
  8
POCKETS_FOR_ACRYLIC
 10
86.46633968388747
 20
41.53424266314959
 30
0.0
  0
SEQEND
  5
100
  8
POCKETS_FOR_ACRYLIC
  0
POLYLINE
  5
5B
  8
POCKETS_FOR_ACRYLIC
 66
     1
 10
0.0
 20
0.0
 30
0.0
  0
VERTEX
  5
101
  8
POCKETS_FOR_ACRYLIC
 10
37.1410570964709
 20
41.27237015903999
 30
0.0
  0
VERTEX
  5
102
  8
POCKETS_FOR_ACRYLIC
 10
7.815519804187835
 20
41.27237015903999
 30
0.0
 42
0.6590215136483075
  0
VERTEX
  5
103
  8
POCKETS_FOR_ACRYLIC
 10
6.338621979924284
 20
37.83123963934165
 30
0.0
 42
0.1669323786816532
  0
VERTEX
  5
104
  8
POCKETS_FOR_ACRYLIC
 10
33.44225096823829
 20
23.72032562167972
 30
0.0
 42
0.4586196923267833
  0
VERTEX
  5
105
  8
POCKETS_FOR_ACRYLIC
 10
39.22855709647095
 20
28.70186123356076
 30
0.0
  0
VERTEX
  5
106
  8
POCKETS_FOR_ACRYLIC
 10
39.22855709647095
 20
39.23487039589357
 30
0.0
 42
0.4142135283250805
  0
VERTEX
  5
107
  8
POCKETS_FOR_ACRYLIC
 10
37.1910570964709
 20
41.27237015903999
 30
0.0
  0
VERTEX
  5
108
  8
POCKETS_FOR_ACRYLIC
 10
37.14105701971442
 20
41.44607015904
 30
0.0
  0
VERTEX
  5
109
  8
POCKETS_FOR_ACRYLIC
 10
7.815519833178634
 20
41.44607015904002
 30
0.0
 42
0.6590215083980555
  0
VERTEX
  5
10A
  8
POCKETS_FOR_ACRYLIC
 10
6.212714109269184
 20
37.71157804104419
 30
0.0
 42
0.1669323790807145
  0
VERTEX
  5
10B
  8
POCKETS_FOR_ACRYLIC
 10
33.41643109723556
 20
23.54855535573886
 30
0.0
 42
0.4586196786780742
  0
VERTEX
  5
10C
  8
POCKETS_FOR_ACRYLIC
 10
39.40225709647094
 20
28.70186099731278
 30
0.0
  0
VERTEX
  5
10D
  8
POCKETS_FOR_ACRYLIC
 10
39.40225709647094
 20
39.23487024767228
 30
0.0
 42
0.4142135608000261
  0
VERTEX
  5
10E
  8
POCKETS_FOR_ACRYLIC
 10
37.19105701971442
 20
41.44607015904
 30
0.0
  0
VERTEX
  5
10F
  8
POCKETS_FOR_ACRYLIC
 10
37.14105709647089
 20
41.59737015904
 30
0.0
  0
VERTEX
  5
110
  8
POCKETS_FOR_ACRYLIC
 10
7.815519877730964
 20
41.59737015904
 30
0.0
 42
0.6590215247412219
  0
VERTEX
  5
111
  8
POCKETS_FOR_ACRYLIC
 10
6.103043140559723
 20
37.60734767779848
 30
0.0
 42
0.166932378862922
  0
VERTEX
  5
112
  8
POCKETS_FOR_ACRYLIC
 10
33.39394090448847
 20
23.39893623520208
 30
0.0
 42
0.4586196868552235
  0
VERTEX
  5
113
  8
POCKETS_FOR_ACRYLIC
 10
39.55355709647094
 20
28.70186113538909
 30
0.0
  0
VERTEX
  5
114
  8
POCKETS_FOR_ACRYLIC
 10
39.55355709647094
 20
39.23487028023538
 30
0.0
 42
0.4142135473477719
  0
VERTEX
  5
115
  8
POCKETS_FOR_ACRYLIC
 10
37.19105709647089
 20
41.59737015904
 30
0.0
  0
SEQEND
  5
116
  8
POCKETS_FOR_ACRYLIC
  0
POLYLINE
  5
5C
  8
POCKETS_FOR_ACRYLIC
 66
     1
 10
0.0
 20
0.0
 30
0.0
  0
VERTEX
  5
117
  8
POCKETS_FOR_ACRYLIC
 10
61.62695482448215
 20
6.727629840959999
 30
0.0
  0
VERTEX
  5
118
  8
POCKETS_FOR_ACRYLIC
 10
90.95249199530681
 20
6.727629840959999
 30
0.0
 42
0.4142135440275427
  0
VERTEX
  5
119
  8
POCKETS_FOR_ACRYLIC
 10
92.9899918676868
 20
8.765129840960068
 30
0.0
  0
VERTEX
  5
11A
  8
POCKETS_FOR_ACRYLIC
 10
92.9899918676868
 20
19.29813886104064
 30
0.0
 42
0.458619669598333
  0
VERTEX
  5
11B
  8
POCKETS_FOR_ACRYLIC
 10
87.20368602009049
 20
24.27967442050444
 30
0.0
 42
0.1669323796171351
  0
VERTEX
  5
11C
  8
POCKETS_FOR_ACRYLIC
 10
60.10005682867526
 20
10.16876044224067
 30
0.0
 42
0.659021577290811
  0
VERTEX
  5
11D
  8
POCKETS_FOR_ACRYLIC
 10
61.57695482448215
 20
6.727629840959999
 30
0.0
  0
VERTEX
  5
11E
  8
POCKETS_FOR_ACRYLIC
 10
61.62695479489462
 20
6.576329840959998
 30
0.0
  0
VERTEX
  5
11F
  8
POCKETS_FOR_ACRYLIC
 10
90.95249199996076
 20
6.576329840959998
 30
0.0
 42
0.4142135157687565
  0
VERTEX
  5
120
  8
POCKETS_FOR_ACRYLIC
 10
93.14129186768679
 20
8.765129624958474
 30
0.0
  0
VERTEX
  5
121
  8
POCKETS_FOR_ACRYLIC
 10
93.14129186768679
 20
19.2981390204462
 30
0.0
 42
0.458619669596773
  0
VERTEX
  5
122
  8
POCKETS_FOR_ACRYLIC
 10
87.18119568099135
 20
24.42929351904213
 30
0.0
 42
0.1669323788061567
  0
VERTEX
  5
123
  8
POCKETS_FOR_ACRYLIC
 10
59.99038583273531
 20
10.2729907768345
 30
0.0
 42
0.6590215715473371
  0
VERTEX
  5
124
  8
POCKETS_FOR_ACRYLIC
 10
61.57695481599459
 20
6.576329840959998
 30
0.0
  0
VERTEX
  5
125
  8
POCKETS_FOR_ACRYLIC
 10
61.62695486358132
 20
6.402629840959996
 30
0.0
  0
VERTEX
  5
126
  8
POCKETS_FOR_ACRYLIC
 10
90.95249198888217
 20
6.402629840959996
 30
0.0
 42
0.4142135473477724
  0
VERTEX
  5
127
  8
POCKETS_FOR_ACRYLIC
 10
93.31499186768679
 20
8.765129840960054
 30
0.0
  0
VERTEX
  5
128
  8
POCKETS_FOR_ACRYLIC
 10
93.31499186768679
 20
19.29813886461085
 30
0.0
 42
0.4586196868552235
  0
VERTEX
  5
129
  8
POCKETS_FOR_ACRYLIC
 10
87.15537567570433
 20
24.60106376479785
 30
0.0
 42
0.1669323780019916
  0
VERTEX
  5
12A
  8
POCKETS_FOR_ACRYLIC
 10
59.86447802109124
 20
10.39265243722331
 30
0.0
 42
0.6590215814027345
  0
VERTEX
  5
12B
  8
POCKETS_FOR_ACRYLIC
 10
61.57695486358133
 20
6.402629840959996
 30
0.0
  0
SEQEND
  5
12C
  8
POCKETS_FOR_ACRYLIC
  0
POLYLINE
  5
5D
  8
POCKETS_FOR_ACRYLIC
 66
     1
 10
0.0
 20
0.0
 30
0.0
  0
VERTEX
  5
12D
  8
POCKETS_FOR_ACRYLIC
 10
5.097508132313262
 20
6.727629840959992
 30
0.0
  0
VERTEX
  5
12E
  8
POCKETS_FOR_ACRYLIC
 10
34.42304517551493
 20
6.727629840959985
 30
0.0
 42
0.6590215589529259
  0
VERTEX
  5
12F
  8
POCKETS_FOR_ACRYLIC
 10
35.8999432431094
 20
10.16876036670899
 30
0.0
 42
0.166932378636051
  0
VERTEX
  5
130
  8
POCKETS_FOR_ACRYLIC
 10
8.796314260545874
 20
24.27967437832021
 30
0.0
 42
0.458619692326783
  0
VERTEX
  5
131
  8
POCKETS_FOR_ACRYLIC
 10
3.010008132313212
 20
19.29813876643916
 30
0.0
  0
VERTEX
  5
132
  8
POCKETS_FOR_ACRYLIC
 10
3.010008132313209
 20
8.765129755880274
 30
0.0
 42
0.4142135501427693
  0
VERTEX
  5
133
  8
POCKETS_FOR_ACRYLIC
 10
5.047508132313263
 20
6.727629840959992
 30
0.0
  0
VERTEX
  5
134
  8
POCKETS_FOR_ACRYLIC
 10
5.097508132313265
 20
6.576329840959991
 30
0.0
  0
VERTEX
  5
135
  8
POCKETS_FOR_ACRYLIC
 10
34.42304544138848
 20
6.576329840959991
 30
0.0
 42
0.6590215226235951
  0
VERTEX
  5
136
  8
POCKETS_FOR_ACRYLIC
 10
36.00961421021989
 20
10.27299073163713
 30
0.0
 42
0.1669323784063397
  0
VERTEX
  5
137
  8
POCKETS_FOR_ACRYLIC
 10
8.818804453275437
 20
24.42929349885962
 30
0.0
 42
0.4586196844091007
  0
VERTEX
  5
138
  8
POCKETS_FOR_ACRYLIC
 10
2.858708132313212
 20
19.29813890221437
 30
0.0
  0
VERTEX
  5
139
  8
POCKETS_FOR_ACRYLIC
 10
2.858708132313209
 20
8.765129752776536
 30
0.0
 42
0.414213550572861
  0
VERTEX
  5
13A
  8
POCKETS_FOR_ACRYLIC
 10
5.047508132313265
 20
6.576329840959991
 30
0.0
  0
VERTEX
  5
13B
  8
POCKETS_FOR_ACRYLIC
 10
5.097508132313261
 20
6.402629840959989
 30
0.0
  0
VERTEX
  5
13C
  8
POCKETS_FOR_ACRYLIC
 10
34.42304546830928
 20
6.402629840959982
 30
0.0
 42
0.6590215023624649
  0
VERTEX
  5
13D
  8
POCKETS_FOR_ACRYLIC
 10
36.13552210902043
 20
10.39265230032
 30
0.0
 42
0.1669323790267034
  0
VERTEX
  5
13E
  8
POCKETS_FOR_ACRYLIC
 10
8.844624324295681
 20
24.60106376479784
 30
0.0
 42
0.4586196868552231
  0
VERTEX
  5
13F
  8
POCKETS_FOR_ACRYLIC
 10
2.685008132313223
 20
19.29813886461084
 30
0.0
  0
VERTEX
  5
140
  8
POCKETS_FOR_ACRYLIC
 10
2.685008132313222
 20
8.765129761617029
 30
0.0
 42
0.4142135525364696
  0
VERTEX
  5
141
  8
POCKETS_FOR_ACRYLIC
 10
5.047508132313262
 20
6.402629840959989
 30
0.0
  0
SEQEND
  5
142
  8
POCKETS_FOR_ACRYLIC
  0
ENDSEC
  0
EOF
