  0
SECTION
  2
HEADER
  9
$ACADVER
  1
AC1009
  9
$DWGCODEPAGE
  3
ansi_1252
  9
$INSBASE
 10
0.0
 20
0.0
 30
0.0
  9
$EXTMIN
 10
3.999742975639904
 20
2.124998000000005
 30
0.0
  9
$EXTMAX
 10
93.0002570243601
 20
46.625
 30
0.0
  9
$LIMMIN
 10
0.0
 20
0.0
  9
$LIMMAX
 10
12.0
 20
9.0
  9
$ORTHOMODE
 70
     0
  9
$REGENMODE
 70
     1
  9
$FILLMODE
 70
     1
  9
$QTEXTMODE
 70
     0
  9
$MIRRTEXT
 70
     1
  9
$DRAGMODE
 70
     2
  9
$LTSCALE
 40
1.0
  9
$OSMODE
 70
    37
  9
$ATTMODE
 70
     1
  9
$TEXTSIZE
 40
0.2
  9
$TRACEWID
 40
0.05
  9
$TEXTSTYLE
  7
STANDARD
  9
$CLAYER
  8
0
  9
$CELTYPE
  6
BYLAYER
  9
$CECOLOR
 62
   256
  9
$DIMSCALE
 40
1.0
  9
$DIMASZ
 40
0.18
  9
$DIMEXO
 40
0.0625
  9
$DIMDLI
 40
0.38
  9
$DIMRND
 40
0.0
  9
$DIMDLE
 40
0.0
  9
$DIMEXE
 40
0.18
  9
$DIMTP
 40
0.0
  9
$DIMTM
 40
0.0
  9
$DIMTXT
 40
0.18
  9
$DIMCEN
 40
0.09
  9
$DIMTSZ
 40
0.0
  9
$DIMTOL
 70
     0
  9
$DIMLIM
 70
     0
  9
$DIMTIH
 70
     1
  9
$DIMTOH
 70
     1
  9
$DIMSE1
 70
     0
  9
$DIMSE2
 70
     0
  9
$DIMTAD
 70
     0
  9
$DIMZIN
 70
     0
  9
$DIMBLK
  1

  9
$DIMASO
 70
     1
  9
$DIMSHO
 70
     1
  9
$DIMPOST
  1

  9
$DIMAPOST
  1

  9
$DIMALT
 70
     0
  9
$DIMALTD
 70
     2
  9
$DIMALTF
 40
25.4
  9
$DIMLFAC
 40
1.0
  9
$DIMTOFL
 70
     0
  9
$DIMTVP
 40
0.0
  9
$DIMTIX
 70
     0
  9
$DIMSOXD
 70
     0
  9
$DIMSAH
 70
     0
  9
$DIMBLK1
  1

  9
$DIMBLK2
  1

  9
$DIMSTYLE
  2
STANDARD
  9
$DIMCLRD
 70
     0
  9
$DIMCLRE
 70
     0
  9
$DIMCLRT
 70
     0
  9
$DIMTFAC
 40
1.0
  9
$DIMGAP
 40
0.09
  9
$LUNITS
 70
     2
  9
$LUPREC
 70
     4
  9
$SKETCHINC
 40
0.1
  9
$FILLETRAD
 40
0.5
  9
$AUNITS
 70
     0
  9
$AUPREC
 70
     0
  9
$MENU
  1
.
  9
$ELEVATION
 40
0.0
  9
$PELEVATION
 40
0.0
  9
$THICKNESS
 40
0.0
  9
$LIMCHECK
 70
     0
  9
$CHAMFERA
 40
0.5
  9
$CHAMFERB
 40
0.5
  9
$SKPOLY
 70
     0
  9
$TDCREATE
 40
2454910.5
  9
$TDUPDATE
 40
2455901.445004074
  9
$TDINDWG
 40
0.0000000116
  9
$TDUSRTIMER
 40
0.0000000116
  9
$USRTIMER
 70
     1
  9
$ANGBASE
 50
0.0
  9
$ANGDIR
 70
     0
  9
$PDMODE
 70
     0
  9
$PDSIZE
 40
0.0
  9
$PLINEWID
 40
0.0
  9
$COORDS
 70
     1
  9
$SPLFRAME
 70
     0
  9
$SPLINETYPE
 70
     6
  9
$SPLINESEGS
 70
     8
  9
$ATTDIA
 70
     0
  9
$ATTREQ
 70
     1
  9
$HANDLING
 70
     1
  9
$HANDSEED
  5
356
  9
$SURFTAB1
 70
     6
  9
$SURFTAB2
 70
     6
  9
$SURFTYPE
 70
     6
  9
$SURFU
 70
     6
  9
$SURFV
 70
     6
  9
$UCSNAME
  2

  9
$UCSORG
 10
0.0
 20
0.0
 30
0.0
  9
$UCSXDIR
 10
1.0
 20
0.0
 30
0.0
  9
$UCSYDIR
 10
0.0
 20
1.0
 30
0.0
  9
$PUCSNAME
  2

  9
$PUCSORG
 10
0.0
 20
0.0
 30
0.0
  9
$PUCSXDIR
 10
1.0
 20
0.0
 30
0.0
  9
$PUCSYDIR
 10
0.0
 20
1.0
 30
0.0
  9
$USERI1
 70
     0
  9
$USERI2
 70
     0
  9
$USERI3
 70
     0
  9
$USERI4
 70
     0
  9
$USERI5
 70
     0
  9
$USERR1
 40
0.0
  9
$USERR2
 40
0.0
  9
$USERR3
 40
0.0
  9
$USERR4
 40
0.0
  9
$USERR5
 40
0.0
  9
$WORLDVIEW
 70
     1
  9
$SHADEDGE
 70
     3
  9
$SHADEDIF
 70
    70
  9
$TILEMODE
 70
     1
  9
$MAXACTVP
 70
    64
  9
$PLIMCHECK
 70
     0
  9
$PEXTMIN
 10
1.000000000000000E+20
 20
1.000000000000000E+20
 30
1.000000000000000E+20
  9
$PEXTMAX
 10
-1.000000000000000E+20
 20
-1.000000000000000E+20
 30
-1.000000000000000E+20
  9
$PLIMMIN
 10
0.0
 20
0.0
  9
$PLIMMAX
 10
12.0
 20
9.0
  9
$UNITMODE
 70
     0
  9
$VISRETAIN
 70
     1
  9
$PLINEGEN
 70
     0
  9
$PSLTSCALE
 70
     1
  0
ENDSEC
  0
SECTION
  2
TABLES
  0
TABLE
  2
VPORT
 70
     1
  0
VPORT
  2
*ACTIVE
 70
     0
 10
0.0
 20
0.0
 11
1.0
 21
1.0
 12
10.42990654205607
 22
4.5
 13
0.0
 23
0.0
 14
0.5
 24
0.5
 15
0.5
 25
0.5
 16
0.0
 26
0.0
 36
1.0
 17
0.0
 27
0.0
 37
0.0
 40
9.0
 41
1.972972972850329
 42
50.0
 43
0.0
 44
0.0
 50
0.0
 51
0.0
 71
     0
 72
   100
 73
     1
 74
     3
 75
     0
 76
     0
 77
     0
 78
     0
  0
ENDTAB
  0
TABLE
  2
LTYPE
 70
     2
  0
LTYPE
  2
CONTINUOUS
 70
     0
  3
Solid line
 72
    65
 73
     0
 40
0.0
  0
LTYPE
  2
CONTINUOUS2
 70
     0
  3
Solid Line
 72
    65
 73
     0
 40
0.0
  0
ENDTAB
  0
TABLE
  2
LAYER
 70
     5
  0
LAYER
  2
0
 70
     0
 62
     7
  6
CONTINUOUS
  0
LAYER
  2
CUT_HALFWAY_THROUGH
 70
     0
 62
     1
  6
CONTINUOUS
  0
LAYER
  2
THROUGH_CUT
 70
     0
 62
    18
  6
CONTINUOUS
  0
LAYER
  2
RECESS_FOR_SCREWS
 70
     0
 62
     5
  6
CONTINUOUS
  0
LAYER
  2
MARK_IN_POCKET
 70
     0
 62
     3
  6
CONTINUOUS
  0
ENDTAB
  0
TABLE
  2
STYLE
 70
     1
  0
STYLE
  2
STANDARD
 70
     0
 40
0.0
 41
1.0
 50
0.0
 71
     0
 42
0.2
  3
txt
  4

  0
ENDTAB
  0
TABLE
  2
VIEW
 70
     0
  0
ENDTAB
  0
TABLE
  2
UCS
 70
     0
  0
ENDTAB
  0
TABLE
  2
APPID
 70
     1
  0
APPID
  2
ACAD
 70
     0
  0
ENDTAB
  0
TABLE
  2
DIMSTYLE
 70
     1
  0
DIMSTYLE
  2
STANDARD
 70
     0
  3

  4

  5

  6

  7

 40
1.0
 41
0.18
 42
0.0625
 43
0.38
 44
0.18
 45
0.0
 46
0.0
 47
0.0
 48
0.0
140
0.18
141
0.09
142
0.0
143
25.4
144
1.0
145
0.0
146
1.0
147
0.09
 71
     0
 72
     0
 73
     1
 74
     1
 75
     0
 76
     0
 77
     0
 78
     0
170
     0
171
     2
172
     0
173
     0
174
     0
175
     0
176
     0
177
     0
178
     0
  0
ENDTAB
  0
ENDSEC
  0
SECTION
  2
BLOCKS
  0
BLOCK
  8
0
  2
$MODEL_SPACE
 70
     0
 10
0.0
 20
0.0
 30
0.0
  3
$MODEL_SPACE
  1

  0
ENDBLK
  5
21
  8
0
  0
BLOCK
 67
     1
  8
0
  2
$PAPER_SPACE
 70
     0
 10
0.0
 20
0.0
 30
0.0
  3
$PAPER_SPACE
  1

  0
ENDBLK
  5
1D
 67
     1
  8
0
  0
ENDSEC
  0
SECTION
  2
ENTITIES
  0
POLYLINE
  5
41
  8
CUT_HALFWAY_THROUGH
 66
     1
 10
0.0
 20
0.0
 30
0.0
  0
VERTEX
  5
69
  8
CUT_HALFWAY_THROUGH
 10
85.42288697563991
 20
8.97312500000001
 30
0.0
  0
VERTEX
  5
6A
  8
CUT_HALFWAY_THROUGH
 10
78.67014802748648
 20
6.878533895459128
 30
0.0
 42
0.7368230982963234
  0
VERTEX
  5
6B
  8
CUT_HALFWAY_THROUGH
 10
78.67016292262815
 20
4.371371810735184
 30
0.0
  0
VERTEX
  5
6C
  8
CUT_HALFWAY_THROUGH
 10
85.42288797563991
 20
2.276873000000009
 30
0.0
  0
VERTEX
  5
6D
  8
CUT_HALFWAY_THROUGH
 10
85.32737597563991
 20
2.336122000000003
 30
0.0
  0
VERTEX
  5
6E
  8
CUT_HALFWAY_THROUGH
 10
91.8890828914674
 20
4.371372791683889
 30
0.0
 42
0.7368231252251518
  0
VERTEX
  5
6F
  8
CUT_HALFWAY_THROUGH
 10
91.88909772096622
 20
6.878532934871629
 30
0.0
  0
VERTEX
  5
70
  8
CUT_HALFWAY_THROUGH
 10
85.32737597563991
 20
8.91387300000001
 30
0.0
  0
VERTEX
  5
71
  8
CUT_HALFWAY_THROUGH
 10
85.32737597563991
 20
8.599772000000002
 30
0.0
  0
VERTEX
  5
72
  8
CUT_HALFWAY_THROUGH
 10
91.80021988817631
 20
6.592000783460094
 30
0.0
 42
-0.7368231252251594
  0
VERTEX
  5
73
  8
CUT_HALFWAY_THROUGH
 10
91.8002082339928
 20
4.65790596274028
 30
0.0
  0
VERTEX
  5
74
  8
CUT_HALFWAY_THROUGH
 10
85.27962097563992
 20
2.63540900000001
 30
0.0
  0
VERTEX
  5
75
  8
CUT_HALFWAY_THROUGH
 10
78.75903707760227
 20
4.657904982567139
 30
0.0
 42
-0.7368230982963302
  0
VERTEX
  5
76
  8
CUT_HALFWAY_THROUGH
 10
78.7590258727787
 20
6.592001747925615
 30
0.0
  0
VERTEX
  5
77
  8
CUT_HALFWAY_THROUGH
 10
85.27962097563992
 20
8.614585000000005
 30
0.0
  0
VERTEX
  5
78
  8
CUT_HALFWAY_THROUGH
 10
85.27962097563992
 20
8.300484000000012
 30
0.0
  0
VERTEX
  5
79
  8
CUT_HALFWAY_THROUGH
 10
78.84790321807091
 20
6.305469100392095
 30
0.0
 42
0.7368230982963286
  0
VERTEX
  5
7A
  8
CUT_HALFWAY_THROUGH
 10
78.84791148951285
 20
4.944438308798198
 30
0.0
  0
VERTEX
  5
7B
  8
CUT_HALFWAY_THROUGH
 10
85.27962097563992
 20
2.949509000000006
 30
0.0
  0
VERTEX
  5
7C
  8
CUT_HALFWAY_THROUGH
 10
91.7113340765182
 20
4.944439633796655
 30
0.0
 42
0.7368231252251459
  0
VERTEX
  5
7D
  8
CUT_HALFWAY_THROUGH
 10
91.71134213513297
 20
6.305468264097115
 30
0.0
  0
VERTEX
  5
7E
  8
CUT_HALFWAY_THROUGH
 10
85.32737597563991
 20
8.285671000000008
 30
0.0
  0
VERTEX
  5
7F
  8
CUT_HALFWAY_THROUGH
 10
85.32737597563991
 20
7.971571000000012
 30
0.0
  0
VERTEX
  5
80
  8
CUT_HALFWAY_THROUGH
 10
91.62246422259656
 20
6.018935980637025
 30
0.0
 42
-0.7368231252251587
  0
VERTEX
  5
81
  8
CUT_HALFWAY_THROUGH
 10
91.62245991904362
 20
5.230972804853046
 30
0.0
  0
VERTEX
  5
82
  8
CUT_HALFWAY_THROUGH
 10
85.27962097563992
 20
3.263609000000002
 30
0.0
  0
VERTEX
  5
83
  8
CUT_HALFWAY_THROUGH
 10
78.9367858875505
 20
5.230971826231062
 30
0.0
 42
-0.7368230982963322
  0
VERTEX
  5
84
  8
CUT_HALFWAY_THROUGH
 10
78.93678106336311
 20
6.018936952858589
 30
0.0
  0
VERTEX
  5
85
  8
CUT_HALFWAY_THROUGH
 10
85.27962097563992
 20
7.986384000000001
 30
0.0
  0
VERTEX
  5
86
  8
CUT_HALFWAY_THROUGH
 10
85.27962097563992
 20
7.672283000000007
 30
0.0
  0
VERTEX
  5
87
  8
CUT_HALFWAY_THROUGH
 10
79.02565890865533
 20
5.732404805325068
 30
0.0
 42
0.7368230982960815
  0
VERTEX
  5
88
  8
CUT_HALFWAY_THROUGH
 10
79.0256600425246
 20
5.517504998063018
 30
0.0
  0
VERTEX
  5
89
  8
CUT_HALFWAY_THROUGH
 10
85.27962097563992
 20
3.577708000000001
 30
0.0
  0
VERTEX
  5
8A
  8
CUT_HALFWAY_THROUGH
 10
91.53358526156902
 20
5.51750597590943
 30
0.0
 42
0.7368231252253463
  0
VERTEX
  5
8B
  8
CUT_HALFWAY_THROUGH
 10
91.53358688980667
 20
5.73240382922549
 30
0.0
  0
VERTEX
  5
8C
  8
CUT_HALFWAY_THROUGH
 10
85.32737597563991
 20
7.657470000000004
 30
0.0
  0
VERTEX
  5
8D
  8
CUT_HALFWAY_THROUGH
 10
85.32737597563991
 20
7.34336900000001
 30
0.0
  0
VERTEX
  5
8E
  8
CUT_HALFWAY_THROUGH
 10
90.86734997563991
 20
5.624959000000004
 30
0.0
  0
VERTEX
  5
8F
  8
CUT_HALFWAY_THROUGH
 10
85.27962097563992
 20
3.891808000000012
 30
0.0
  0
VERTEX
  5
90
  8
CUT_HALFWAY_THROUGH
 10
79.6918919756399
 20
5.624959000000004
 30
0.0
  0
VERTEX
  5
91
  8
CUT_HALFWAY_THROUGH
 10
85.27962097563992
 20
7.358181999999999
 30
0.0
  0
VERTEX
  5
92
  8
CUT_HALFWAY_THROUGH
 10
85.27962097563992
 20
7.044082000000003
 30
0.0
  0
VERTEX
  5
93
  8
CUT_HALFWAY_THROUGH
 10
80.7045389756399
 20
5.624965000000003
 30
0.0
  0
VERTEX
  5
94
  8
CUT_HALFWAY_THROUGH
 10
85.27962097563992
 20
4.20590700000001
 30
0.0
  0
VERTEX
  5
95
  8
CUT_HALFWAY_THROUGH
 10
89.85470297563991
 20
5.624965000000003
 30
0.0
  0
VERTEX
  5
96
  8
CUT_HALFWAY_THROUGH
 10
85.32737597563991
 20
7.029268999999999
 30
0.0
  0
VERTEX
  5
97
  8
CUT_HALFWAY_THROUGH
 10
85.32737597563991
 20
6.715168000000006
 30
0.0
  0
VERTEX
  5
98
  8
CUT_HALFWAY_THROUGH
 10
88.8420569756399
 20
5.624971000000002
 30
0.0
  0
VERTEX
  5
99
  8
CUT_HALFWAY_THROUGH
 10
85.27962097563992
 20
4.520007000000007
 30
0.0
  0
VERTEX
  5
9A
  8
CUT_HALFWAY_THROUGH
 10
81.71718597563991
 20
5.624971000000002
 30
0.0
  0
VERTEX
  5
9B
  8
CUT_HALFWAY_THROUGH
 10
85.27962097563992
 20
6.729981000000009
 30
0.0
  0
VERTEX
  5
9C
  8
CUT_HALFWAY_THROUGH
 10
85.27962097563992
 20
6.415880000000001
 30
0.0
  0
VERTEX
  5
9D
  8
CUT_HALFWAY_THROUGH
 10
82.72983197563991
 20
5.624977000000001
 30
0.0
  0
VERTEX
  5
9E
  8
CUT_HALFWAY_THROUGH
 10
85.27962097563992
 20
4.834106000000006
 30
0.0
  0
VERTEX
  5
9F
  8
CUT_HALFWAY_THROUGH
 10
87.8294099756399
 20
5.624977000000001
 30
0.0
  0
VERTEX
  5
A0
  8
CUT_HALFWAY_THROUGH
 10
85.32737597563991
 20
6.401067000000012
 30
0.0
  0
VERTEX
  5
A1
  8
CUT_HALFWAY_THROUGH
 10
85.32737597563991
 20
6.086966000000004
 30
0.0
  0
VERTEX
  5
A2
  8
CUT_HALFWAY_THROUGH
 10
86.8167629756399
 20
5.624983
 30
0.0
  0
VERTEX
  5
A3
  8
CUT_HALFWAY_THROUGH
 10
85.27962097563992
 20
5.148206000000002
 30
0.0
  0
VERTEX
  5
A4
  8
CUT_HALFWAY_THROUGH
 10
83.74247897563991
 20
5.624983
 30
0.0
  0
VERTEX
  5
A5
  8
CUT_HALFWAY_THROUGH
 10
85.27962097563992
 20
6.101779000000008
 30
0.0
  0
VERTEX
  5
A6
  8
CUT_HALFWAY_THROUGH
 10
85.27962097563992
 20
5.787679000000011
 30
0.0
  0
VERTEX
  5
A7
  8
CUT_HALFWAY_THROUGH
 10
84.75512597563991
 20
5.624988999999999
 30
0.0
  0
VERTEX
  5
A8
  8
CUT_HALFWAY_THROUGH
 10
85.27962097563992
 20
5.462305999999998
 30
0.0
  0
VERTEX
  5
A9
  8
CUT_HALFWAY_THROUGH
 10
85.8041159756399
 20
5.624988999999999
 30
0.0
  0
VERTEX
  5
AA
  8
CUT_HALFWAY_THROUGH
 10
85.32737597563991
 20
5.772866000000008
 30
0.0
  0
VERTEX
  5
AB
  8
CUT_HALFWAY_THROUGH
 10
91.50025797563991
 20
5.624955
 30
0.0
  0
VERTEX
  5
AC
  8
CUT_HALFWAY_THROUGH
 10
79.05898797563991
 20
5.624955
 30
0.0
  0
SEQEND
  5
AD
  8
CUT_HALFWAY_THROUGH
  0
POLYLINE
  5
43
  8
THROUGH_CUT
 66
     1
 10
0.0
 20
0.0
 30
0.0
 70
     1
  0
VERTEX
  5
AE
  8
THROUGH_CUT
 10
79.27962297563991
 20
5.824955000000003
 30
0.0
 42
0.4142135623730951
  0
VERTEX
  5
AF
  8
THROUGH_CUT
 10
79.07962297563991
 20
5.624955
 30
0.0
 42
0.4142135623730951
  0
VERTEX
  5
B0
  8
THROUGH_CUT
 10
79.27962297563991
 20
5.424954999999997
 30
0.0
 42
0.4142135623730951
  0
VERTEX
  5
B1
  8
THROUGH_CUT
 10
79.47962297563991
 20
5.624955
 30
0.0
 42
0.4142135623730951
  0
SEQEND
  5
B2
  8
THROUGH_CUT
  0
POLYLINE
  5
44
  8
THROUGH_CUT
 66
     1
 10
0.0
 20
0.0
 30
0.0
 70
     1
  0
VERTEX
  5
B3
  8
THROUGH_CUT
 10
91.27962297563991
 20
5.824955000000003
 30
0.0
 42
0.4142135623730951
  0
VERTEX
  5
B4
  8
THROUGH_CUT
 10
91.07962297563991
 20
5.624955
 30
0.0
 42
0.4142135623730951
  0
VERTEX
  5
B5
  8
THROUGH_CUT
 10
91.27962297563991
 20
5.424954999999997
 30
0.0
 42
0.4142135623730951
  0
VERTEX
  5
B6
  8
THROUGH_CUT
 10
91.47962297563991
 20
5.624955
 30
0.0
 42
0.4142135623730951
  0
SEQEND
  5
B7
  8
THROUGH_CUT
  0
POLYLINE
  5
45
  8
THROUGH_CUT
 66
     1
 10
0.0
 20
0.0
 30
0.0
 70
     1
  0
VERTEX
  5
B8
  8
THROUGH_CUT
 10
28.62499999999999
 20
30.12
 30
0.0
  0
VERTEX
  5
B9
  8
THROUGH_CUT
 10
28.62499999999999
 20
27.88
 30
0.0
 42
1.0
  0
VERTEX
  5
BA
  8
THROUGH_CUT
 10
28.62499999999999
 20
27.5
 30
0.0
  0
VERTEX
  5
BB
  8
THROUGH_CUT
 10
29.37499999999999
 20
27.5
 30
0.0
 42
1.0
  0
VERTEX
  5
BC
  8
THROUGH_CUT
 10
29.37499999999999
 20
27.88
 30
0.0
  0
VERTEX
  5
BD
  8
THROUGH_CUT
 10
29.37499999999999
 20
30.12
 30
0.0
 42
1.0
  0
VERTEX
  5
BE
  8
THROUGH_CUT
 10
29.37499999999999
 20
30.5
 30
0.0
  0
VERTEX
  5
BF
  8
THROUGH_CUT
 10
28.62499999999999
 20
30.5
 30
0.0
 42
1.0
  0
SEQEND
  5
C0
  8
THROUGH_CUT
  0
POLYLINE
  5
46
  8
THROUGH_CUT
 66
     1
 10
0.0
 20
0.0
 30
0.0
 70
     1
  0
VERTEX
  5
C1
  8
THROUGH_CUT
 10
50.62499999999999
 20
30.12
 30
0.0
  0
VERTEX
  5
C2
  8
THROUGH_CUT
 10
50.62499999999999
 20
27.88
 30
0.0
 42
1.0
  0
VERTEX
  5
C3
  8
THROUGH_CUT
 10
50.62499999999999
 20
27.5
 30
0.0
  0
VERTEX
  5
C4
  8
THROUGH_CUT
 10
51.37499999999999
 20
27.5
 30
0.0
 42
1.0
  0
VERTEX
  5
C5
  8
THROUGH_CUT
 10
51.37499999999999
 20
27.88
 30
0.0
  0
VERTEX
  5
C6
  8
THROUGH_CUT
 10
51.37499999999999
 20
30.12
 30
0.0
 42
1.0
  0
VERTEX
  5
C7
  8
THROUGH_CUT
 10
51.37499999999999
 20
30.5
 30
0.0
  0
VERTEX
  5
C8
  8
THROUGH_CUT
 10
50.62499999999999
 20
30.5
 30
0.0
 42
1.0
  0
SEQEND
  5
C9
  8
THROUGH_CUT
  0
POLYLINE
  5
47
  8
THROUGH_CUT
 66
     1
 10
0.0
 20
0.0
 30
0.0
 70
     1
  0
VERTEX
  5
CA
  8
THROUGH_CUT
 10
4.841250975639909
 20
5.459162000000006
 30
0.0
 42
0.9614826959282868
  0
VERTEX
  5
CB
  8
THROUGH_CUT
 10
5.155009639770008
 20
4.778572390279229
 30
0.0
 42
0.9614810852148097
  0
VERTEX
  5
CC
  8
THROUGH_CUT
 10
4.895615975639899
 20
5.481681000000009
 30
0.0
 42
0.0196376682270961
  0
VERTEX
  5
CD
  8
THROUGH_CUT
 10
4.867991673778639
 20
5.471489731140887
 30
0.0
 42
0.0196368309298444
  0
SEQEND
  5
CE
  8
THROUGH_CUT
  0
POLYLINE
  5
48
  8
THROUGH_CUT
 66
     1
 10
0.0
 20
0.0
 30
0.0
 70
     1
  0
VERTEX
  5
CF
  8
THROUGH_CUT
 10
73.375
 20
12.125
 30
0.0
  0
VERTEX
  5
D0
  8
THROUGH_CUT
 10
73.375
 20
18.6875
 30
0.0
  0
VERTEX
  5
D1
  8
THROUGH_CUT
 10
72.625
 20
18.6875
 30
0.0
 42
-1.0
  0
VERTEX
  5
D2
  8
THROUGH_CUT
 10
72.625
 20
19.0675
 30
0.0
  0
VERTEX
  5
D3
  8
THROUGH_CUT
 10
72.625
 20
25.12
 30
0.0
 42
-1.0
  0
VERTEX
  5
D4
  8
THROUGH_CUT
 10
72.625
 20
25.5
 30
0.0
  0
VERTEX
  5
D5
  8
THROUGH_CUT
 10
73.0
 20
25.5
 30
0.0
  0
VERTEX
  5
D6
  8
THROUGH_CUT
 10
73.0
 20
27.5
 30
0.0
  0
VERTEX
  5
D7
  8
THROUGH_CUT
 10
72.625
 20
27.5
 30
0.0
 42
-1.0
  0
VERTEX
  5
D8
  8
THROUGH_CUT
 10
72.625
 20
27.88
 30
0.0
  0
VERTEX
  5
D9
  8
THROUGH_CUT
 10
72.625
 20
30.12
 30
0.0
 42
-1.0
  0
VERTEX
  5
DA
  8
THROUGH_CUT
 10
72.625
 20
30.5
 30
0.0
  0
VERTEX
  5
DB
  8
THROUGH_CUT
 10
73.0
 20
30.5
 30
0.0
  0
VERTEX
  5
DC
  8
THROUGH_CUT
 10
73.0
 20
32.5
 30
0.0
  0
VERTEX
  5
DD
  8
THROUGH_CUT
 10
72.625
 20
32.5
 30
0.0
 42
-1.0
  0
VERTEX
  5
DE
  8
THROUGH_CUT
 10
72.625
 20
32.88
 30
0.0
  0
VERTEX
  5
DF
  8
THROUGH_CUT
 10
72.625
 20
38.9325
 30
0.0
 42
-1.0
  0
VERTEX
  5
E0
  8
THROUGH_CUT
 10
72.625
 20
39.3125
 30
0.0
  0
VERTEX
  5
E1
  8
THROUGH_CUT
 10
73.375
 20
39.3125
 30
0.0
  0
VERTEX
  5
E2
  8
THROUGH_CUT
 10
73.375
 20
45.875
 30
0.0
  0
VERTEX
  5
E3
  8
THROUGH_CUT
 10
62.38
 20
45.875
 30
0.0
 42
-1.0
  0
VERTEX
  5
E4
  8
THROUGH_CUT
 10
62.0
 20
45.875
 30
0.0
  0
VERTEX
  5
E5
  8
THROUGH_CUT
 10
62.0
 20
46.625
 30
0.0
  0
VERTEX
  5
E6
  8
THROUGH_CUT
 10
50.99999999999999
 20
46.625
 30
0.0
  0
VERTEX
  5
E7
  8
THROUGH_CUT
 10
39.99999999999999
 20
46.625
 30
0.0
  0
VERTEX
  5
E8
  8
THROUGH_CUT
 10
39.99999999999999
 20
45.875
 30
0.0
 42
-1.0
  0
VERTEX
  5
E9
  8
THROUGH_CUT
 10
39.61999999999999
 20
45.875
 30
0.0
  0
VERTEX
  5
EA
  8
THROUGH_CUT
 10
28.99999999999999
 20
45.875
 30
0.0
  0
VERTEX
  5
EB
  8
THROUGH_CUT
 10
18.38
 20
45.875
 30
0.0
 42
-1.0
  0
VERTEX
  5
EC
  8
THROUGH_CUT
 10
17.99999999999999
 20
45.875
 30
0.0
  0
VERTEX
  5
ED
  8
THROUGH_CUT
 10
17.99999999999999
 20
46.625
 30
0.0
  0
VERTEX
  5
EE
  8
THROUGH_CUT
 10
6.624999999999993
 20
46.625
 30
0.0
  0
VERTEX
  5
EF
  8
THROUGH_CUT
 10
6.624999999999993
 20
30.5
 30
0.0
  0
VERTEX
  5
F0
  8
THROUGH_CUT
 10
7.374999999999993
 20
30.5
 30
0.0
 42
-1.0
  0
VERTEX
  5
F1
  8
THROUGH_CUT
 10
7.374999999999993
 20
30.12
 30
0.0
  0
VERTEX
  5
F2
  8
THROUGH_CUT
 10
7.374999999999993
 20
27.88
 30
0.0
 42
-1.0
  0
VERTEX
  5
F3
  8
THROUGH_CUT
 10
7.374999999999993
 20
27.5
 30
0.0
  0
VERTEX
  5
F4
  8
THROUGH_CUT
 10
6.624999999999993
 20
27.5
 30
0.0
  0
VERTEX
  5
F5
  8
THROUGH_CUT
 10
6.624999999999993
 20
11.375
 30
0.0
  0
VERTEX
  5
F6
  8
THROUGH_CUT
 10
17.99999999999999
 20
11.375
 30
0.0
  0
VERTEX
  5
F7
  8
THROUGH_CUT
 10
17.99999999999999
 20
12.125
 30
0.0
 42
-1.0
  0
VERTEX
  5
F8
  8
THROUGH_CUT
 10
18.38
 20
12.125
 30
0.0
  0
VERTEX
  5
F9
  8
THROUGH_CUT
 10
28.99999999999999
 20
12.125
 30
0.0
  0
VERTEX
  5
FA
  8
THROUGH_CUT
 10
39.61999999999999
 20
12.125
 30
0.0
 42
-1.0
  0
VERTEX
  5
FB
  8
THROUGH_CUT
 10
39.99999999999999
 20
12.125
 30
0.0
  0
VERTEX
  5
FC
  8
THROUGH_CUT
 10
39.99999999999999
 20
11.375
 30
0.0
  0
VERTEX
  5
FD
  8
THROUGH_CUT
 10
50.99999999999999
 20
11.375
 30
0.0
  0
VERTEX
  5
FE
  8
THROUGH_CUT
 10
62.0
 20
11.375
 30
0.0
  0
VERTEX
  5
FF
  8
THROUGH_CUT
 10
62.0
 20
12.125
 30
0.0
 42
-1.0
  0
VERTEX
  5
100
  8
THROUGH_CUT
 10
62.38
 20
12.125
 30
0.0
  0
SEQEND
  5
101
  8
THROUGH_CUT
  0
POLYLINE
  5
49
  8
THROUGH_CUT
 66
     1
 10
0.0
 20
0.0
 30
0.0
 70
     1
  0
VERTEX
  5
102
  8
THROUGH_CUT
 10
73.90462097563992
 20
9.124999000000003
 30
0.0
  0
VERTEX
  5
103
  8
THROUGH_CUT
 10
52.6546209756399
 20
9.124999000000003
 30
0.0
  0
VERTEX
  5
104
  8
THROUGH_CUT
 10
52.6546209756399
 20
5.524999000000008
 30
0.0
  0
VERTEX
  5
105
  8
THROUGH_CUT
 10
52.68753997563991
 20
5.522271000000003
 30
0.0
  0
VERTEX
  5
106
  8
THROUGH_CUT
 10
52.71956097563991
 20
5.514161999999999
 30
0.0
  0
VERTEX
  5
107
  8
THROUGH_CUT
 10
52.74980997563991
 20
5.500894000000002
 30
0.0
  0
VERTEX
  5
108
  8
THROUGH_CUT
 10
52.77746297563991
 20
5.482827
 30
0.0
  0
VERTEX
  5
109
  8
THROUGH_CUT
 10
52.80176597563991
 20
5.46045500000001
 30
0.0
  0
VERTEX
  5
10A
  8
THROUGH_CUT
 10
52.82205397563992
 20
5.434387999999998
 30
0.0
  0
VERTEX
  5
10B
  8
THROUGH_CUT
 10
52.8377759756399
 20
5.405338
 30
0.0
  0
VERTEX
  5
10C
  8
THROUGH_CUT
 10
52.84850097563991
 20
5.374096000000009
 30
0.0
  0
VERTEX
  5
10D
  8
THROUGH_CUT
 10
52.85393797563991
 20
5.341515000000001
 30
0.0
  0
VERTEX
  5
10E
  8
THROUGH_CUT
 10
52.85393797563991
 20
5.30848300000001
 30
0.0
  0
VERTEX
  5
10F
  8
THROUGH_CUT
 10
52.84850097563991
 20
5.275902000000002
 30
0.0
  0
VERTEX
  5
110
  8
THROUGH_CUT
 10
52.8377759756399
 20
5.24466000000001
 30
0.0
  0
VERTEX
  5
111
  8
THROUGH_CUT
 10
52.82205397563992
 20
5.215609000000001
 30
0.0
  0
VERTEX
  5
112
  8
THROUGH_CUT
 10
52.80176597563991
 20
5.189542000000003
 30
0.0
  0
VERTEX
  5
113
  8
THROUGH_CUT
 10
52.77746297563991
 20
5.16717100000001
 30
0.0
  0
VERTEX
  5
114
  8
THROUGH_CUT
 10
52.74980997563991
 20
5.149104000000008
 30
0.0
  0
VERTEX
  5
115
  8
THROUGH_CUT
 10
52.71956097563991
 20
5.135835
 30
0.0
  0
VERTEX
  5
116
  8
THROUGH_CUT
 10
52.68753997563991
 20
5.127727000000007
 30
0.0
  0
VERTEX
  5
117
  8
THROUGH_CUT
 10
52.6546209756399
 20
5.124999000000003
 30
0.0
  0
VERTEX
  5
118
  8
THROUGH_CUT
 10
51.9046209756399
 20
5.124999000000003
 30
0.0
  0
VERTEX
  5
119
  8
THROUGH_CUT
 10
51.87170197563991
 20
5.127727000000007
 30
0.0
  0
VERTEX
  5
11A
  8
THROUGH_CUT
 10
51.83968097563991
 20
5.135835
 30
0.0
  0
VERTEX
  5
11B
  8
THROUGH_CUT
 10
51.8094309756399
 20
5.149104000000008
 30
0.0
  0
VERTEX
  5
11C
  8
THROUGH_CUT
 10
51.78177797563991
 20
5.16717100000001
 30
0.0
  0
VERTEX
  5
11D
  8
THROUGH_CUT
 10
51.75747597563991
 20
5.189542000000003
 30
0.0
  0
VERTEX
  5
11E
  8
THROUGH_CUT
 10
51.73718797563991
 20
5.215609000000001
 30
0.0
  0
VERTEX
  5
11F
  8
THROUGH_CUT
 10
51.7214659756399
 20
5.24466000000001
 30
0.0
  0
VERTEX
  5
120
  8
THROUGH_CUT
 10
51.71074097563991
 20
5.275902000000002
 30
0.0
  0
VERTEX
  5
121
  8
THROUGH_CUT
 10
51.70530397563991
 20
5.30848300000001
 30
0.0
  0
VERTEX
  5
122
  8
THROUGH_CUT
 10
51.70530397563991
 20
5.341515000000001
 30
0.0
  0
VERTEX
  5
123
  8
THROUGH_CUT
 10
51.71074097563991
 20
5.374096000000009
 30
0.0
  0
VERTEX
  5
124
  8
THROUGH_CUT
 10
51.7214659756399
 20
5.405338
 30
0.0
  0
VERTEX
  5
125
  8
THROUGH_CUT
 10
51.73718797563991
 20
5.434387999999998
 30
0.0
  0
VERTEX
  5
126
  8
THROUGH_CUT
 10
51.75747597563991
 20
5.46045500000001
 30
0.0
  0
VERTEX
  5
127
  8
THROUGH_CUT
 10
51.78177797563991
 20
5.482827
 30
0.0
  0
VERTEX
  5
128
  8
THROUGH_CUT
 10
51.8094309756399
 20
5.500894000000002
 30
0.0
  0
VERTEX
  5
129
  8
THROUGH_CUT
 10
51.83968097563991
 20
5.514161999999999
 30
0.0
  0
VERTEX
  5
12A
  8
THROUGH_CUT
 10
51.87170197563991
 20
5.522271000000003
 30
0.0
  0
VERTEX
  5
12B
  8
THROUGH_CUT
 10
51.9046209756399
 20
5.524999000000008
 30
0.0
  0
VERTEX
  5
12C
  8
THROUGH_CUT
 10
51.9046209756399
 20
9.124999000000003
 30
0.0
  0
VERTEX
  5
12D
  8
THROUGH_CUT
 10
30.6546209756399
 20
9.124999000000003
 30
0.0
  0
VERTEX
  5
12E
  8
THROUGH_CUT
 10
30.6546209756399
 20
5.524999000000008
 30
0.0
  0
VERTEX
  5
12F
  8
THROUGH_CUT
 10
30.68753997563989
 20
5.522271000000003
 30
0.0
  0
VERTEX
  5
130
  8
THROUGH_CUT
 10
30.71956097563991
 20
5.514161999999999
 30
0.0
  0
VERTEX
  5
131
  8
THROUGH_CUT
 10
30.74980997563991
 20
5.500894000000002
 30
0.0
  0
VERTEX
  5
132
  8
THROUGH_CUT
 10
30.77746297563992
 20
5.482827
 30
0.0
  0
VERTEX
  5
133
  8
THROUGH_CUT
 10
30.80176597563992
 20
5.46045500000001
 30
0.0
  0
VERTEX
  5
134
  8
THROUGH_CUT
 10
30.82205397563992
 20
5.434387999999998
 30
0.0
  0
VERTEX
  5
135
  8
THROUGH_CUT
 10
30.8377759756399
 20
5.405338
 30
0.0
  0
VERTEX
  5
136
  8
THROUGH_CUT
 10
30.84850097563991
 20
5.374096000000009
 30
0.0
  0
VERTEX
  5
137
  8
THROUGH_CUT
 10
30.85393797563991
 20
5.341515000000001
 30
0.0
  0
VERTEX
  5
138
  8
THROUGH_CUT
 10
30.85393797563991
 20
5.30848300000001
 30
0.0
  0
VERTEX
  5
139
  8
THROUGH_CUT
 10
30.84850097563991
 20
5.275902000000002
 30
0.0
  0
VERTEX
  5
13A
  8
THROUGH_CUT
 10
30.8377759756399
 20
5.24466000000001
 30
0.0
  0
VERTEX
  5
13B
  8
THROUGH_CUT
 10
30.82205397563992
 20
5.215609000000001
 30
0.0
  0
VERTEX
  5
13C
  8
THROUGH_CUT
 10
30.80176597563992
 20
5.189542000000003
 30
0.0
  0
VERTEX
  5
13D
  8
THROUGH_CUT
 10
30.77746297563992
 20
5.16717100000001
 30
0.0
  0
VERTEX
  5
13E
  8
THROUGH_CUT
 10
30.74980997563991
 20
5.149104000000008
 30
0.0
  0
VERTEX
  5
13F
  8
THROUGH_CUT
 10
30.71956097563991
 20
5.135835
 30
0.0
  0
VERTEX
  5
140
  8
THROUGH_CUT
 10
30.68753997563989
 20
5.127727000000007
 30
0.0
  0
VERTEX
  5
141
  8
THROUGH_CUT
 10
30.6546209756399
 20
5.124999000000003
 30
0.0
  0
VERTEX
  5
142
  8
THROUGH_CUT
 10
29.9046209756399
 20
5.124999000000003
 30
0.0
  0
VERTEX
  5
143
  8
THROUGH_CUT
 10
29.87170197563991
 20
5.127727000000007
 30
0.0
  0
VERTEX
  5
144
  8
THROUGH_CUT
 10
29.83968097563992
 20
5.135835
 30
0.0
  0
VERTEX
  5
145
  8
THROUGH_CUT
 10
29.8094309756399
 20
5.149104000000008
 30
0.0
  0
VERTEX
  5
146
  8
THROUGH_CUT
 10
29.78177797563991
 20
5.16717100000001
 30
0.0
  0
VERTEX
  5
147
  8
THROUGH_CUT
 10
29.75747597563991
 20
5.189542000000003
 30
0.0
  0
VERTEX
  5
148
  8
THROUGH_CUT
 10
29.73718797563991
 20
5.215609000000001
 30
0.0
  0
VERTEX
  5
149
  8
THROUGH_CUT
 10
29.7214659756399
 20
5.24466000000001
 30
0.0
  0
VERTEX
  5
14A
  8
THROUGH_CUT
 10
29.71074097563992
 20
5.275902000000002
 30
0.0
  0
VERTEX
  5
14B
  8
THROUGH_CUT
 10
29.70530397563989
 20
5.30848300000001
 30
0.0
  0
VERTEX
  5
14C
  8
THROUGH_CUT
 10
29.70530397563989
 20
5.341515000000001
 30
0.0
  0
VERTEX
  5
14D
  8
THROUGH_CUT
 10
29.71074097563992
 20
5.374096000000009
 30
0.0
  0
VERTEX
  5
14E
  8
THROUGH_CUT
 10
29.7214659756399
 20
5.405338
 30
0.0
  0
VERTEX
  5
14F
  8
THROUGH_CUT
 10
29.73718797563991
 20
5.434387999999998
 30
0.0
  0
VERTEX
  5
150
  8
THROUGH_CUT
 10
29.75747597563991
 20
5.46045500000001
 30
0.0
  0
VERTEX
  5
151
  8
THROUGH_CUT
 10
29.78177797563991
 20
5.482827
 30
0.0
  0
VERTEX
  5
152
  8
THROUGH_CUT
 10
29.8094309756399
 20
5.500894000000002
 30
0.0
  0
VERTEX
  5
153
  8
THROUGH_CUT
 10
29.83968097563992
 20
5.514161999999999
 30
0.0
  0
VERTEX
  5
154
  8
THROUGH_CUT
 10
29.87170197563991
 20
5.522271000000003
 30
0.0
  0
VERTEX
  5
155
  8
THROUGH_CUT
 10
29.9046209756399
 20
5.524999000000008
 30
0.0
  0
VERTEX
  5
156
  8
THROUGH_CUT
 10
29.9046209756399
 20
9.124999000000003
 30
0.0
  0
VERTEX
  5
157
  8
THROUGH_CUT
 10
8.6546209756399
 20
9.124999000000003
 30
0.0
  0
VERTEX
  5
158
  8
THROUGH_CUT
 10
8.6546209756399
 20
5.524999000000008
 30
0.0
  0
VERTEX
  5
159
  8
THROUGH_CUT
 10
8.687539975639922
 20
5.522271000000003
 30
0.0
  0
VERTEX
  5
15A
  8
THROUGH_CUT
 10
8.719560975639908
 20
5.514161999999999
 30
0.0
  0
VERTEX
  5
15B
  8
THROUGH_CUT
 10
8.749809975639906
 20
5.500894000000002
 30
0.0
  0
VERTEX
  5
15C
  8
THROUGH_CUT
 10
8.77746297563992
 20
5.482827
 30
0.0
  0
VERTEX
  5
15D
  8
THROUGH_CUT
 10
8.801765975639924
 20
5.46045500000001
 30
0.0
  0
VERTEX
  5
15E
  8
THROUGH_CUT
 10
8.822053975639918
 20
5.434387999999998
 30
0.0
  0
VERTEX
  5
15F
  8
THROUGH_CUT
 10
8.8377759756399
 20
5.405338
 30
0.0
  0
VERTEX
  5
160
  8
THROUGH_CUT
 10
8.848500975639908
 20
5.374096000000009
 30
0.0
  0
VERTEX
  5
161
  8
THROUGH_CUT
 10
8.853937975639909
 20
5.341515000000001
 30
0.0
  0
VERTEX
  5
162
  8
THROUGH_CUT
 10
8.853937975639909
 20
5.30848300000001
 30
0.0
  0
VERTEX
  5
163
  8
THROUGH_CUT
 10
8.848500975639908
 20
5.275902000000002
 30
0.0
  0
VERTEX
  5
164
  8
THROUGH_CUT
 10
8.8377759756399
 20
5.24466000000001
 30
0.0
  0
VERTEX
  5
165
  8
THROUGH_CUT
 10
8.822053975639918
 20
5.215609000000001
 30
0.0
  0
VERTEX
  5
166
  8
THROUGH_CUT
 10
8.801765975639924
 20
5.189542000000003
 30
0.0
  0
VERTEX
  5
167
  8
THROUGH_CUT
 10
8.77746297563992
 20
5.16717100000001
 30
0.0
  0
VERTEX
  5
168
  8
THROUGH_CUT
 10
8.749809975639906
 20
5.149104000000008
 30
0.0
  0
VERTEX
  5
169
  8
THROUGH_CUT
 10
8.719560975639908
 20
5.135835
 30
0.0
  0
VERTEX
  5
16A
  8
THROUGH_CUT
 10
8.687539975639922
 20
5.127727000000007
 30
0.0
  0
VERTEX
  5
16B
  8
THROUGH_CUT
 10
8.6546209756399
 20
5.124999000000003
 30
0.0
  0
VERTEX
  5
16C
  8
THROUGH_CUT
 10
7.904620975639901
 20
5.124999000000003
 30
0.0
  0
VERTEX
  5
16D
  8
THROUGH_CUT
 10
7.871701975639908
 20
5.127727000000007
 30
0.0
  0
VERTEX
  5
16E
  8
THROUGH_CUT
 10
7.839680975639922
 20
5.135835
 30
0.0
  0
VERTEX
  5
16F
  8
THROUGH_CUT
 10
7.809430975639899
 20
5.149104000000008
 30
0.0
  0
VERTEX
  5
170
  8
THROUGH_CUT
 10
7.781777975639912
 20
5.16717100000001
 30
0.0
  0
VERTEX
  5
171
  8
THROUGH_CUT
 10
7.757475975639906
 20
5.189542000000003
 30
0.0
  0
VERTEX
  5
172
  8
THROUGH_CUT
 10
7.737187975639912
 20
5.215609000000001
 30
0.0
  0
VERTEX
  5
173
  8
THROUGH_CUT
 10
7.721465975639902
 20
5.24466000000001
 30
0.0
  0
VERTEX
  5
174
  8
THROUGH_CUT
 10
7.710740975639922
 20
5.275902000000002
 30
0.0
  0
VERTEX
  5
175
  8
THROUGH_CUT
 10
7.705303975639922
 20
5.30848300000001
 30
0.0
  0
VERTEX
  5
176
  8
THROUGH_CUT
 10
7.705303975639922
 20
5.341515000000001
 30
0.0
  0
VERTEX
  5
177
  8
THROUGH_CUT
 10
7.710740975639922
 20
5.374096000000009
 30
0.0
  0
VERTEX
  5
178
  8
THROUGH_CUT
 10
7.721465975639902
 20
5.405338
 30
0.0
  0
VERTEX
  5
179
  8
THROUGH_CUT
 10
7.737187975639912
 20
5.434387999999998
 30
0.0
  0
VERTEX
  5
17A
  8
THROUGH_CUT
 10
7.757475975639906
 20
5.46045500000001
 30
0.0
  0
VERTEX
  5
17B
  8
THROUGH_CUT
 10
7.781777975639912
 20
5.482827
 30
0.0
  0
VERTEX
  5
17C
  8
THROUGH_CUT
 10
7.809430975639899
 20
5.500894000000002
 30
0.0
  0
VERTEX
  5
17D
  8
THROUGH_CUT
 10
7.839680975639922
 20
5.514161999999999
 30
0.0
  0
VERTEX
  5
17E
  8
THROUGH_CUT
 10
7.871701975639908
 20
5.522271000000003
 30
0.0
  0
VERTEX
  5
17F
  8
THROUGH_CUT
 10
7.904620975639901
 20
5.524999000000008
 30
0.0
  0
VERTEX
  5
180
  8
THROUGH_CUT
 10
7.904620975639901
 20
9.124999000000003
 30
0.0
  0
VERTEX
  5
181
  8
THROUGH_CUT
 10
5.761538975639908
 20
9.124999000000003
 30
0.0
  0
VERTEX
  5
182
  8
THROUGH_CUT
 10
5.761538975639908
 20
7.407842000000002
 30
0.0
  0
VERTEX
  5
183
  8
THROUGH_CUT
 10
5.783947975639919
 20
7.381135999999998
 30
0.0
  0
VERTEX
  5
184
  8
THROUGH_CUT
 10
5.801379975639904
 20
7.350943999999998
 30
0.0
  0
VERTEX
  5
185
  8
THROUGH_CUT
 10
5.8133029756399
 20
7.318184000000002
 30
0.0
  0
VERTEX
  5
186
  8
THROUGH_CUT
 10
5.819356975639906
 20
7.28385200000001
 30
0.0
  0
VERTEX
  5
187
  8
THROUGH_CUT
 10
5.819356975639906
 20
7.248990000000006
 30
0.0
  0
VERTEX
  5
188
  8
THROUGH_CUT
 10
5.8133029756399
 20
7.214657000000003
 30
0.0
  0
VERTEX
  5
189
  8
THROUGH_CUT
 10
5.801379975639904
 20
7.181897000000006
 30
0.0
  0
VERTEX
  5
18A
  8
THROUGH_CUT
 10
5.783948975639916
 20
7.151705000000007
 30
0.0
  0
VERTEX
  5
18B
  8
THROUGH_CUT
 10
5.761539975639906
 20
7.124999000000003
 30
0.0
  0
VERTEX
  5
18C
  8
THROUGH_CUT
 10
5.734833975639916
 20
7.102590000000006
 30
0.0
  0
VERTEX
  5
18D
  8
THROUGH_CUT
 10
5.704641975639916
 20
7.085159000000004
 30
0.0
  0
VERTEX
  5
18E
  8
THROUGH_CUT
 10
5.67188197563992
 20
7.073235000000011
 30
0.0
  0
VERTEX
  5
18F
  8
THROUGH_CUT
 10
5.637549975639914
 20
7.067182000000003
 30
0.0
  0
VERTEX
  5
190
  8
THROUGH_CUT
 10
5.602686975639912
 20
7.067181000000005
 30
0.0
  0
VERTEX
  5
191
  8
THROUGH_CUT
 10
5.568354975639906
 20
7.073235000000011
 30
0.0
  0
VERTEX
  5
192
  8
THROUGH_CUT
 10
5.53559497563991
 20
7.085159000000004
 30
0.0
  0
VERTEX
  5
193
  8
THROUGH_CUT
 10
5.50540297563991
 20
7.102590000000006
 30
0.0
  0
VERTEX
  5
194
  8
THROUGH_CUT
 10
5.47869697563992
 20
7.124999000000003
 30
0.0
  0
VERTEX
  5
195
  8
THROUGH_CUT
 10
4.499742975639904
 20
7.124999000000003
 30
0.0
 42
0.4142135623731005
  0
VERTEX
  5
196
  8
THROUGH_CUT
 10
3.999742975639904
 20
6.624999000000003
 30
0.0
  0
VERTEX
  5
197
  8
THROUGH_CUT
 10
3.999742975639904
 20
3.624999000000003
 30
0.0
 42
0.4142135623731005
  0
VERTEX
  5
198
  8
THROUGH_CUT
 10
4.499742975639904
 20
3.124999000000003
 30
0.0
  0
VERTEX
  5
199
  8
THROUGH_CUT
 10
5.47869697563992
 20
3.124999000000003
 30
0.0
  0
VERTEX
  5
19A
  8
THROUGH_CUT
 10
5.503902975639917
 20
3.146347000000006
 30
0.0
  0
VERTEX
  5
19B
  8
THROUGH_CUT
 10
5.532278975639898
 20
3.163256000000004
 30
0.0
  0
VERTEX
  5
19C
  8
THROUGH_CUT
 10
5.563050975639911
 20
3.175263000000001
 30
0.0
  0
VERTEX
  5
19D
  8
THROUGH_CUT
 10
5.595379975639915
 20
3.182040999999998
 30
0.0
  0
VERTEX
  5
19E
  8
THROUGH_CUT
 10
5.62838397563992
 20
3.183406000000005
 30
0.0
  0
VERTEX
  5
19F
  8
THROUGH_CUT
 10
5.661161975639899
 20
3.179320000000004
 30
0.0
  0
VERTEX
  5
1A0
  8
THROUGH_CUT
 10
5.692819975639921
 20
3.169895000000011
 30
0.0
  0
VERTEX
  5
1A1
  8
THROUGH_CUT
 10
5.722495975639916
 20
3.155388000000002
 30
0.0
  0
VERTEX
  5
1A2
  8
THROUGH_CUT
 10
5.749377975639916
 20
3.136194000000003
 30
0.0
  0
VERTEX
  5
1A3
  8
THROUGH_CUT
 10
5.772734975639921
 20
3.112836999999999
 30
0.0
  0
VERTEX
  5
1A4
  8
THROUGH_CUT
 10
5.791928975639919
 20
3.085954000000001
 30
0.0
  0
VERTEX
  5
1A5
  8
THROUGH_CUT
 10
5.8064359756399
 20
3.056278000000006
 30
0.0
  0
VERTEX
  5
1A6
  8
THROUGH_CUT
 10
5.815861975639919
 20
3.024619999999999
 30
0.0
  0
VERTEX
  5
1A7
  8
THROUGH_CUT
 10
5.819946975639922
 20
2.991842000000005
 30
0.0
  0
VERTEX
  5
1A8
  8
THROUGH_CUT
 10
5.818581975639901
 20
2.958838
 30
0.0
  0
VERTEX
  5
1A9
  8
THROUGH_CUT
 10
5.811803975639904
 20
2.926510000000007
 30
0.0
  0
VERTEX
  5
1AA
  8
THROUGH_CUT
 10
5.799795975639896
 20
2.895738000000009
 30
0.0
  0
VERTEX
  5
1AB
  8
THROUGH_CUT
 10
5.782887975639895
 20
2.867362
 30
0.0
  0
VERTEX
  5
1AC
  8
THROUGH_CUT
 10
5.761538975639908
 20
2.842156000000003
 30
0.0
  0
VERTEX
  5
1AD
  8
THROUGH_CUT
 10
5.761538975639908
 20
2.124999000000003
 30
0.0
  0
VERTEX
  5
1AE
  8
THROUGH_CUT
 10
85.27962097563992
 20
2.124998000000005
 30
0.0
  0
VERTEX
  5
1AF
  8
THROUGH_CUT
 10
91.94462911488901
 20
4.19228912227365
 30
0.0
 42
0.7368231252251604
  0
VERTEX
  5
1B0
  8
THROUGH_CUT
 10
91.94464599145988
 20
7.057615779503841
 30
0.0
  0
VERTEX
  5
1B1
  8
THROUGH_CUT
 10
85.27962097563992
 20
9.124999000000003
 30
0.0
  0
VERTEX
  5
1B2
  8
THROUGH_CUT
 10
74.65462097563992
 20
9.124999000000003
 30
0.0
  0
VERTEX
  5
1B3
  8
THROUGH_CUT
 10
74.65462097563992
 20
5.524999000000008
 30
0.0
  0
VERTEX
  5
1B4
  8
THROUGH_CUT
 10
74.68753997563991
 20
5.522271000000003
 30
0.0
  0
VERTEX
  5
1B5
  8
THROUGH_CUT
 10
74.71956097563991
 20
5.514161999999999
 30
0.0
  0
VERTEX
  5
1B6
  8
THROUGH_CUT
 10
74.7498099756399
 20
5.500894000000002
 30
0.0
  0
VERTEX
  5
1B7
  8
THROUGH_CUT
 10
74.7774629756399
 20
5.482827
 30
0.0
  0
VERTEX
  5
1B8
  8
THROUGH_CUT
 10
74.80176597563991
 20
5.46045500000001
 30
0.0
  0
VERTEX
  5
1B9
  8
THROUGH_CUT
 10
74.8220539756399
 20
5.434387999999998
 30
0.0
  0
VERTEX
  5
1BA
  8
THROUGH_CUT
 10
74.83777597563991
 20
5.405338
 30
0.0
  0
VERTEX
  5
1BB
  8
THROUGH_CUT
 10
74.84850097563991
 20
5.374096000000009
 30
0.0
  0
VERTEX
  5
1BC
  8
THROUGH_CUT
 10
74.85393797563991
 20
5.341515000000001
 30
0.0
  0
VERTEX
  5
1BD
  8
THROUGH_CUT
 10
74.85393797563991
 20
5.30848300000001
 30
0.0
  0
VERTEX
  5
1BE
  8
THROUGH_CUT
 10
74.84850097563991
 20
5.275902000000002
 30
0.0
  0
VERTEX
  5
1BF
  8
THROUGH_CUT
 10
74.83777597563991
 20
5.24466000000001
 30
0.0
  0
VERTEX
  5
1C0
  8
THROUGH_CUT
 10
74.8220539756399
 20
5.215609000000001
 30
0.0
  0
VERTEX
  5
1C1
  8
THROUGH_CUT
 10
74.80176597563991
 20
5.189542000000003
 30
0.0
  0
VERTEX
  5
1C2
  8
THROUGH_CUT
 10
74.7774629756399
 20
5.16717100000001
 30
0.0
  0
VERTEX
  5
1C3
  8
THROUGH_CUT
 10
74.7498099756399
 20
5.149104000000008
 30
0.0
  0
VERTEX
  5
1C4
  8
THROUGH_CUT
 10
74.71956097563991
 20
5.135835
 30
0.0
  0
VERTEX
  5
1C5
  8
THROUGH_CUT
 10
74.68753997563991
 20
5.127727000000007
 30
0.0
  0
VERTEX
  5
1C6
  8
THROUGH_CUT
 10
74.65462097563992
 20
5.124999000000003
 30
0.0
  0
VERTEX
  5
1C7
  8
THROUGH_CUT
 10
73.90462097563992
 20
5.124999000000003
 30
0.0
  0
VERTEX
  5
1C8
  8
THROUGH_CUT
 10
73.87170197563991
 20
5.127727000000007
 30
0.0
  0
VERTEX
  5
1C9
  8
THROUGH_CUT
 10
73.83968097563991
 20
5.135835
 30
0.0
  0
VERTEX
  5
1CA
  8
THROUGH_CUT
 10
73.80943097563991
 20
5.149104000000008
 30
0.0
  0
VERTEX
  5
1CB
  8
THROUGH_CUT
 10
73.78177797563991
 20
5.16717100000001
 30
0.0
  0
VERTEX
  5
1CC
  8
THROUGH_CUT
 10
73.7574759756399
 20
5.189542000000003
 30
0.0
  0
VERTEX
  5
1CD
  8
THROUGH_CUT
 10
73.73718797563991
 20
5.215609000000001
 30
0.0
  0
VERTEX
  5
1CE
  8
THROUGH_CUT
 10
73.72146597563992
 20
5.24466000000001
 30
0.0
  0
VERTEX
  5
1CF
  8
THROUGH_CUT
 10
73.71074097563991
 20
5.275902000000002
 30
0.0
  0
VERTEX
  5
1D0
  8
THROUGH_CUT
 10
73.70530397563991
 20
5.30848300000001
 30
0.0
  0
VERTEX
  5
1D1
  8
THROUGH_CUT
 10
73.70530397563991
 20
5.341515000000001
 30
0.0
  0
VERTEX
  5
1D2
  8
THROUGH_CUT
 10
73.71074097563991
 20
5.374096000000009
 30
0.0
  0
VERTEX
  5
1D3
  8
THROUGH_CUT
 10
73.72146597563992
 20
5.405338
 30
0.0
  0
VERTEX
  5
1D4
  8
THROUGH_CUT
 10
73.73718797563991
 20
5.434387999999998
 30
0.0
  0
VERTEX
  5
1D5
  8
THROUGH_CUT
 10
73.7574759756399
 20
5.46045500000001
 30
0.0
  0
VERTEX
  5
1D6
  8
THROUGH_CUT
 10
73.78177797563991
 20
5.482827
 30
0.0
  0
VERTEX
  5
1D7
  8
THROUGH_CUT
 10
73.80943097563991
 20
5.500894000000002
 30
0.0
  0
VERTEX
  5
1D8
  8
THROUGH_CUT
 10
73.83968097563991
 20
5.514161999999999
 30
0.0
  0
VERTEX
  5
1D9
  8
THROUGH_CUT
 10
73.87170197563991
 20
5.522271000000003
 30
0.0
  0
VERTEX
  5
1DA
  8
THROUGH_CUT
 10
73.90462097563992
 20
5.524999000000008
 30
0.0
  0
SEQEND
  5
1DB
  8
THROUGH_CUT
  0
POLYLINE
  5
4B
  8
RECESS_FOR_SCREWS
 66
     1
 10
0.0
 20
0.0
 30
0.0
 70
     1
  0
VERTEX
  5
1DC
  8
RECESS_FOR_SCREWS
 10
9.468880104984997
 20
46.45
 30
0.0
 42
0.4142135623730951
  0
VERTEX
  5
1DD
  8
RECESS_FOR_SCREWS
 10
9.268880104984994
 20
46.25
 30
0.0
 42
0.4142135623730951
  0
VERTEX
  5
1DE
  8
RECESS_FOR_SCREWS
 10
9.468880104984997
 20
46.05
 30
0.0
 42
0.4142135623730951
  0
VERTEX
  5
1DF
  8
RECESS_FOR_SCREWS
 10
9.668880104985
 20
46.25
 30
0.0
 42
0.4142135623730951
  0
SEQEND
  5
1E0
  8
RECESS_FOR_SCREWS
  0
POLYLINE
  5
4C
  8
RECESS_FOR_SCREWS
 66
     1
 10
0.0
 20
0.0
 30
0.0
 70
     1
  0
VERTEX
  5
1E1
  8
RECESS_FOR_SCREWS
 10
15.156640314955
 20
46.45
 30
0.0
 42
0.4142135623730951
  0
VERTEX
  5
1E2
  8
RECESS_FOR_SCREWS
 10
14.956640314955
 20
46.25
 30
0.0
 42
0.4142135623730951
  0
VERTEX
  5
1E3
  8
RECESS_FOR_SCREWS
 10
15.156640314955
 20
46.05
 30
0.0
 42
0.4142135623730951
  0
VERTEX
  5
1E4
  8
RECESS_FOR_SCREWS
 10
15.356640314955
 20
46.25
 30
0.0
 42
0.4142135623730951
  0
SEQEND
  5
1E5
  8
RECESS_FOR_SCREWS
  0
POLYLINE
  5
4D
  8
RECESS_FOR_SCREWS
 66
     1
 10
0.0
 20
0.0
 30
0.0
 70
     1
  0
VERTEX
  5
1E6
  8
RECESS_FOR_SCREWS
 10
45.5
 20
46.45
 30
0.0
 42
0.4142135623730951
  0
VERTEX
  5
1E7
  8
RECESS_FOR_SCREWS
 10
45.3
 20
46.25
 30
0.0
 42
0.4142135623730951
  0
VERTEX
  5
1E8
  8
RECESS_FOR_SCREWS
 10
45.5
 20
46.05
 30
0.0
 42
0.4142135623730951
  0
VERTEX
  5
1E9
  8
RECESS_FOR_SCREWS
 10
45.7
 20
46.25
 30
0.0
 42
0.4142135623730951
  0
SEQEND
  5
1EA
  8
RECESS_FOR_SCREWS
  0
POLYLINE
  5
4E
  8
RECESS_FOR_SCREWS
 66
     1
 10
0.0
 20
0.0
 30
0.0
 70
     1
  0
VERTEX
  5
1EB
  8
RECESS_FOR_SCREWS
 10
56.5
 20
46.45
 30
0.0
 42
0.4142135623730951
  0
VERTEX
  5
1EC
  8
RECESS_FOR_SCREWS
 10
56.3
 20
46.25
 30
0.0
 42
0.4142135623730951
  0
VERTEX
  5
1ED
  8
RECESS_FOR_SCREWS
 10
56.5
 20
46.05
 30
0.0
 42
0.4142135623730951
  0
VERTEX
  5
1EE
  8
RECESS_FOR_SCREWS
 10
56.7
 20
46.25
 30
0.0
 42
0.4142135623730951
  0
SEQEND
  5
1EF
  8
RECESS_FOR_SCREWS
  0
POLYLINE
  5
4F
  8
RECESS_FOR_SCREWS
 66
     1
 10
0.0
 20
0.0
 30
0.0
 70
     1
  0
VERTEX
  5
1F0
  8
RECESS_FOR_SCREWS
 10
73.0
 20
42.79375
 30
0.0
 42
0.4142135623730951
  0
VERTEX
  5
1F1
  8
RECESS_FOR_SCREWS
 10
72.8
 20
42.59375
 30
0.0
 42
0.4142135623730951
  0
VERTEX
  5
1F2
  8
RECESS_FOR_SCREWS
 10
73.0
 20
42.39375
 30
0.0
 42
0.4142135623730951
  0
VERTEX
  5
1F3
  8
RECESS_FOR_SCREWS
 10
73.2
 20
42.59375
 30
0.0
 42
0.4142135623730951
  0
SEQEND
  5
1F4
  8
RECESS_FOR_SCREWS
  0
POLYLINE
  5
50
  8
RECESS_FOR_SCREWS
 66
     1
 10
0.0
 20
0.0
 30
0.0
 70
     1
  0
VERTEX
  5
1F5
  8
RECESS_FOR_SCREWS
 10
73.0
 20
15.60625
 30
0.0
 42
0.4142135623730951
  0
VERTEX
  5
1F6
  8
RECESS_FOR_SCREWS
 10
72.8
 20
15.40625
 30
0.0
 42
0.4142135623730951
  0
VERTEX
  5
1F7
  8
RECESS_FOR_SCREWS
 10
73.0
 20
15.20625
 30
0.0
 42
0.4142135623730951
  0
VERTEX
  5
1F8
  8
RECESS_FOR_SCREWS
 10
73.2
 20
15.40625
 30
0.0
 42
0.4142135623730951
  0
SEQEND
  5
1F9
  8
RECESS_FOR_SCREWS
  0
POLYLINE
  5
51
  8
RECESS_FOR_SCREWS
 66
     1
 10
0.0
 20
0.0
 30
0.0
 70
     1
  0
VERTEX
  5
1FA
  8
RECESS_FOR_SCREWS
 10
56.5
 20
11.95
 30
0.0
 42
0.4142135623730951
  0
VERTEX
  5
1FB
  8
RECESS_FOR_SCREWS
 10
56.3
 20
11.75
 30
0.0
 42
0.4142135623730951
  0
VERTEX
  5
1FC
  8
RECESS_FOR_SCREWS
 10
56.5
 20
11.55
 30
0.0
 42
0.4142135623730951
  0
VERTEX
  5
1FD
  8
RECESS_FOR_SCREWS
 10
56.7
 20
11.75
 30
0.0
 42
0.4142135623730951
  0
SEQEND
  5
1FE
  8
RECESS_FOR_SCREWS
  0
POLYLINE
  5
52
  8
RECESS_FOR_SCREWS
 66
     1
 10
0.0
 20
0.0
 30
0.0
 70
     1
  0
VERTEX
  5
1FF
  8
RECESS_FOR_SCREWS
 10
45.5
 20
11.95
 30
0.0
 42
0.4142135623730951
  0
VERTEX
  5
200
  8
RECESS_FOR_SCREWS
 10
45.3
 20
11.75
 30
0.0
 42
0.4142135623730951
  0
VERTEX
  5
201
  8
RECESS_FOR_SCREWS
 10
45.5
 20
11.55
 30
0.0
 42
0.4142135623730951
  0
VERTEX
  5
202
  8
RECESS_FOR_SCREWS
 10
45.7
 20
11.75
 30
0.0
 42
0.4142135623730951
  0
SEQEND
  5
203
  8
RECESS_FOR_SCREWS
  0
POLYLINE
  5
53
  8
RECESS_FOR_SCREWS
 66
     1
 10
0.0
 20
0.0
 30
0.0
 70
     1
  0
VERTEX
  5
204
  8
RECESS_FOR_SCREWS
 10
15.15624999999999
 20
11.95
 30
0.0
 42
0.4142135623730951
  0
VERTEX
  5
205
  8
RECESS_FOR_SCREWS
 10
14.95624999999999
 20
11.75
 30
0.0
 42
0.4142135623730951
  0
VERTEX
  5
206
  8
RECESS_FOR_SCREWS
 10
15.15624999999999
 20
11.55
 30
0.0
 42
0.4142135623730951
  0
VERTEX
  5
207
  8
RECESS_FOR_SCREWS
 10
15.35624999999999
 20
11.75
 30
0.0
 42
0.4142135623730951
  0
SEQEND
  5
208
  8
RECESS_FOR_SCREWS
  0
POLYLINE
  5
54
  8
RECESS_FOR_SCREWS
 66
     1
 10
0.0
 20
0.0
 30
0.0
 70
     1
  0
VERTEX
  5
209
  8
RECESS_FOR_SCREWS
 10
9.468749999999993
 20
11.95
 30
0.0
 42
0.4142135623730951
  0
VERTEX
  5
20A
  8
RECESS_FOR_SCREWS
 10
9.268749999999994
 20
11.75
 30
0.0
 42
0.4142135623730951
  0
VERTEX
  5
20B
  8
RECESS_FOR_SCREWS
 10
9.468749999999993
 20
11.55
 30
0.0
 42
0.4142135623730951
  0
VERTEX
  5
20C
  8
RECESS_FOR_SCREWS
 10
9.668749999999992
 20
11.75
 30
0.0
 42
0.4142135623730951
  0
SEQEND
  5
20D
  8
RECESS_FOR_SCREWS
  0
POLYLINE
  5
55
  8
RECESS_FOR_SCREWS
 66
     1
 10
0.0
 20
0.0
 30
0.0
 70
     1
  0
VERTEX
  5
20E
  8
RECESS_FOR_SCREWS
 10
6.999999999999993
 20
15.60625
 30
0.0
 42
0.4142135623730951
  0
VERTEX
  5
20F
  8
RECESS_FOR_SCREWS
 10
6.799999999999994
 20
15.40625
 30
0.0
 42
0.4142135623730951
  0
VERTEX
  5
210
  8
RECESS_FOR_SCREWS
 10
6.999999999999993
 20
15.20625
 30
0.0
 42
0.4142135623730951
  0
VERTEX
  5
211
  8
RECESS_FOR_SCREWS
 10
7.199999999999992
 20
15.40625
 30
0.0
 42
0.4142135623730951
  0
SEQEND
  5
212
  8
RECESS_FOR_SCREWS
  0
POLYLINE
  5
56
  8
RECESS_FOR_SCREWS
 66
     1
 10
0.0
 20
0.0
 30
0.0
 70
     1
  0
VERTEX
  5
213
  8
RECESS_FOR_SCREWS
 10
6.999999999999993
 20
23.66875
 30
0.0
 42
0.4142135623730951
  0
VERTEX
  5
214
  8
RECESS_FOR_SCREWS
 10
6.799999999999994
 20
23.46875
 30
0.0
 42
0.4142135623730951
  0
VERTEX
  5
215
  8
RECESS_FOR_SCREWS
 10
6.999999999999993
 20
23.26875
 30
0.0
 42
0.4142135623730951
  0
VERTEX
  5
216
  8
RECESS_FOR_SCREWS
 10
7.199999999999992
 20
23.46875
 30
0.0
 42
0.4142135623730951
  0
SEQEND
  5
217
  8
RECESS_FOR_SCREWS
  0
POLYLINE
  5
57
  8
RECESS_FOR_SCREWS
 66
     1
 10
0.0
 20
0.0
 30
0.0
 70
     1
  0
VERTEX
  5
218
  8
RECESS_FOR_SCREWS
 10
6.999999999999993
 20
34.73125
 30
0.0
 42
0.4142135623730951
  0
VERTEX
  5
219
  8
RECESS_FOR_SCREWS
 10
6.799999999999991
 20
34.53125
 30
0.0
 42
0.4142135623730951
  0
VERTEX
  5
21A
  8
RECESS_FOR_SCREWS
 10
6.999999999999993
 20
34.33125
 30
0.0
 42
0.4142135623730951
  0
VERTEX
  5
21B
  8
RECESS_FOR_SCREWS
 10
7.199999999999995
 20
34.53125
 30
0.0
 42
0.4142135623730951
  0
SEQEND
  5
21C
  8
RECESS_FOR_SCREWS
  0
POLYLINE
  5
58
  8
RECESS_FOR_SCREWS
 66
     1
 10
0.0
 20
0.0
 30
0.0
 70
     1
  0
VERTEX
  5
21D
  8
RECESS_FOR_SCREWS
 10
6.999999999999993
 20
42.79375
 30
0.0
 42
0.4142135623730951
  0
VERTEX
  5
21E
  8
RECESS_FOR_SCREWS
 10
6.799999999999991
 20
42.59375
 30
0.0
 42
0.4142135623730951
  0
VERTEX
  5
21F
  8
RECESS_FOR_SCREWS
 10
6.999999999999993
 20
42.39375
 30
0.0
 42
0.4142135623730951
  0
VERTEX
  5
220
  8
RECESS_FOR_SCREWS
 10
7.199999999999995
 20
42.59375
 30
0.0
 42
0.4142135623730951
  0
SEQEND
  5
221
  8
RECESS_FOR_SCREWS
  0
POLYLINE
  5
59
  8
RECESS_FOR_SCREWS
 66
     1
 10
0.0
 20
0.0
 30
0.0
 70
     1
  0
VERTEX
  5
222
  8
RECESS_FOR_SCREWS
 10
28.99999999999999
 20
42.23125
 30
0.0
 42
0.4142135623730951
  0
VERTEX
  5
223
  8
RECESS_FOR_SCREWS
 10
28.79999999999999
 20
42.03125
 30
0.0
 42
0.4142135623730951
  0
VERTEX
  5
224
  8
RECESS_FOR_SCREWS
 10
28.99999999999999
 20
41.83125
 30
0.0
 42
0.4142135623730951
  0
VERTEX
  5
225
  8
RECESS_FOR_SCREWS
 10
29.19999999999999
 20
42.03125
 30
0.0
 42
0.4142135623730951
  0
SEQEND
  5
226
  8
RECESS_FOR_SCREWS
  0
POLYLINE
  5
5A
  8
RECESS_FOR_SCREWS
 66
     1
 10
0.0
 20
0.0
 30
0.0
 70
     1
  0
VERTEX
  5
227
  8
RECESS_FOR_SCREWS
 10
28.99999999999999
 20
34.54375
 30
0.0
 42
0.4142135623730951
  0
VERTEX
  5
228
  8
RECESS_FOR_SCREWS
 10
28.79999999999999
 20
34.34375
 30
0.0
 42
0.4142135623730951
  0
VERTEX
  5
229
  8
RECESS_FOR_SCREWS
 10
28.99999999999999
 20
34.14375
 30
0.0
 42
0.4142135623730951
  0
VERTEX
  5
22A
  8
RECESS_FOR_SCREWS
 10
29.19999999999999
 20
34.34375
 30
0.0
 42
0.4142135623730951
  0
SEQEND
  5
22B
  8
RECESS_FOR_SCREWS
  0
POLYLINE
  5
5B
  8
RECESS_FOR_SCREWS
 66
     1
 10
0.0
 20
0.0
 30
0.0
 70
     1
  0
VERTEX
  5
22C
  8
RECESS_FOR_SCREWS
 10
28.99999999999999
 20
23.85625
 30
0.0
 42
0.4142135623730951
  0
VERTEX
  5
22D
  8
RECESS_FOR_SCREWS
 10
28.79999999999999
 20
23.65625
 30
0.0
 42
0.4142135623730951
  0
VERTEX
  5
22E
  8
RECESS_FOR_SCREWS
 10
28.99999999999999
 20
23.45625
 30
0.0
 42
0.4142135623730951
  0
VERTEX
  5
22F
  8
RECESS_FOR_SCREWS
 10
29.19999999999999
 20
23.65625
 30
0.0
 42
0.4142135623730951
  0
SEQEND
  5
230
  8
RECESS_FOR_SCREWS
  0
POLYLINE
  5
5C
  8
RECESS_FOR_SCREWS
 66
     1
 10
0.0
 20
0.0
 30
0.0
 70
     1
  0
VERTEX
  5
231
  8
RECESS_FOR_SCREWS
 10
50.99999999999999
 20
42.5125
 30
0.0
 42
0.4142135623730951
  0
VERTEX
  5
232
  8
RECESS_FOR_SCREWS
 10
50.79999999999999
 20
42.3125
 30
0.0
 42
0.4142135623730951
  0
VERTEX
  5
233
  8
RECESS_FOR_SCREWS
 10
50.99999999999999
 20
42.1125
 30
0.0
 42
0.4142135623730951
  0
VERTEX
  5
234
  8
RECESS_FOR_SCREWS
 10
51.2
 20
42.3125
 30
0.0
 42
0.4142135623730951
  0
SEQEND
  5
235
  8
RECESS_FOR_SCREWS
  0
POLYLINE
  5
5D
  8
RECESS_FOR_SCREWS
 66
     1
 10
0.0
 20
0.0
 30
0.0
 70
     1
  0
VERTEX
  5
236
  8
RECESS_FOR_SCREWS
 10
50.99999999999999
 20
23.7625
 30
0.0
 42
0.4142135623730951
  0
VERTEX
  5
237
  8
RECESS_FOR_SCREWS
 10
50.79999999999999
 20
23.5625
 30
0.0
 42
0.4142135623730951
  0
VERTEX
  5
238
  8
RECESS_FOR_SCREWS
 10
50.99999999999999
 20
23.3625
 30
0.0
 42
0.4142135623730951
  0
VERTEX
  5
239
  8
RECESS_FOR_SCREWS
 10
51.2
 20
23.5625
 30
0.0
 42
0.4142135623730951
  0
SEQEND
  5
23A
  8
RECESS_FOR_SCREWS
  0
POLYLINE
  5
5E
  8
RECESS_FOR_SCREWS
 66
     1
 10
0.0
 20
0.0
 30
0.0
 70
     1
  0
VERTEX
  5
23B
  8
RECESS_FOR_SCREWS
 10
28.99999999999999
 20
16.16875
 30
0.0
 42
0.4142135623730951
  0
VERTEX
  5
23C
  8
RECESS_FOR_SCREWS
 10
28.79999999999999
 20
15.96875
 30
0.0
 42
0.4142135623730951
  0
VERTEX
  5
23D
  8
RECESS_FOR_SCREWS
 10
28.99999999999999
 20
15.76875
 30
0.0
 42
0.4142135623730951
  0
VERTEX
  5
23E
  8
RECESS_FOR_SCREWS
 10
29.19999999999999
 20
15.96875
 30
0.0
 42
0.4142135623730951
  0
SEQEND
  5
23F
  8
RECESS_FOR_SCREWS
  0
POLYLINE
  5
5F
  8
RECESS_FOR_SCREWS
 66
     1
 10
0.0
 20
0.0
 30
0.0
 70
     1
  0
VERTEX
  5
240
  8
RECESS_FOR_SCREWS
 10
50.99999999999999
 20
34.6375
 30
0.0
 42
0.4142135623730951
  0
VERTEX
  5
241
  8
RECESS_FOR_SCREWS
 10
50.79999999999999
 20
34.4375
 30
0.0
 42
0.4142135623730951
  0
VERTEX
  5
242
  8
RECESS_FOR_SCREWS
 10
50.99999999999999
 20
34.2375
 30
0.0
 42
0.4142135623730951
  0
VERTEX
  5
243
  8
RECESS_FOR_SCREWS
 10
51.2
 20
34.4375
 30
0.0
 42
0.4142135623730951
  0
SEQEND
  5
244
  8
RECESS_FOR_SCREWS
  0
POLYLINE
  5
60
  8
RECESS_FOR_SCREWS
 66
     1
 10
0.0
 20
0.0
 30
0.0
 70
     1
  0
VERTEX
  5
245
  8
RECESS_FOR_SCREWS
 10
50.99999999999999
 20
15.8875
 30
0.0
 42
0.4142135623730951
  0
VERTEX
  5
246
  8
RECESS_FOR_SCREWS
 10
50.79999999999999
 20
15.6875
 30
0.0
 42
0.4142135623730951
  0
VERTEX
  5
247
  8
RECESS_FOR_SCREWS
 10
50.99999999999999
 20
15.4875
 30
0.0
 42
0.4142135623730951
  0
VERTEX
  5
248
  8
RECESS_FOR_SCREWS
 10
51.2
 20
15.6875
 30
0.0
 42
0.4142135623730951
  0
SEQEND
  5
249
  8
RECESS_FOR_SCREWS
  0
POLYLINE
  5
62
  8
MARK_IN_POCKET
 66
     1
 10
0.0
 20
0.0
 30
0.0
 70
     1
  0
VERTEX
  5
24A
  8
MARK_IN_POCKET
 10
85.27962097563992
 20
6.374998500000004
 30
0.0
 42
0.4142135623730951
  0
VERTEX
  5
24B
  8
MARK_IN_POCKET
 10
84.52962097563992
 20
5.624998500000004
 30
0.0
 42
0.4142135623730951
  0
VERTEX
  5
24C
  8
MARK_IN_POCKET
 10
85.27962097563992
 20
4.874998500000004
 30
0.0
 42
0.4142135623730951
  0
VERTEX
  5
24D
  8
MARK_IN_POCKET
 10
86.02962097563992
 20
5.624998500000004
 30
0.0
 42
0.4142135623730951
  0
SEQEND
  5
24E
  8
MARK_IN_POCKET
  0
POLYLINE
  5
63
  8
MARK_IN_POCKET
 66
     1
 10
0.0
 20
0.0
 30
0.0
  0
VERTEX
  5
24F
  8
MARK_IN_POCKET
 10
10.53058216654385
 20
19.13436764204775
 30
0.0
  0
VERTEX
  5
250
  8
MARK_IN_POCKET
 10
14.53058216654385
 20
19.13436764204775
 30
0.0
  0
VERTEX
  5
251
  8
MARK_IN_POCKET
 10
14.53058216654385
 20
17.56636764204773
 30
0.0
  0
VERTEX
  5
252
  8
MARK_IN_POCKET
 10
14.53023795878017
 20
17.54045299971375
 30
0.0
  0
VERTEX
  5
253
  8
MARK_IN_POCKET
 10
14.52921131693447
 20
17.51471456587586
 30
0.0
  0
VERTEX
  5
254
  8
MARK_IN_POCKET
 10
14.52751121317471
 20
17.48916058028016
 30
0.0
  0
VERTEX
  5
255
  8
MARK_IN_POCKET
 10
14.52514661966885
 20
17.46379928267273
 30
0.0
  0
VERTEX
  5
256
  8
MARK_IN_POCKET
 10
14.52212650858486
 20
17.43863891279969
 30
0.0
  0
VERTEX
  5
257
  8
MARK_IN_POCKET
 10
14.51845985209072
 20
17.41368771040711
 30
0.0
  0
VERTEX
  5
258
  8
MARK_IN_POCKET
 10
14.51415562235439
 20
17.38895391524109
 30
0.0
  0
VERTEX
  5
259
  8
MARK_IN_POCKET
 10
14.50922279154384
 20
17.36444576704773
 30
0.0
  0
VERTEX
  5
25A
  8
MARK_IN_POCKET
 10
14.50367033182705
 20
17.34017150557312
 30
0.0
  0
VERTEX
  5
25B
  8
MARK_IN_POCKET
 10
14.49750721537197
 20
17.31613937056336
 30
0.0
  0
VERTEX
  5
25C
  8
MARK_IN_POCKET
 10
14.49074241434658
 20
17.29235760176453
 30
0.0
  0
VERTEX
  5
25D
  8
MARK_IN_POCKET
 10
14.48338490091885
 20
17.26883443892274
 30
0.0
  0
VERTEX
  5
25E
  8
MARK_IN_POCKET
 10
14.47544364725674
 20
17.24557812178406
 30
0.0
  0
VERTEX
  5
25F
  8
MARK_IN_POCKET
 10
14.46692762552822
 20
17.22259689009461
 30
0.0
  0
VERTEX
  5
260
  8
MARK_IN_POCKET
 10
14.45784580790127
 20
17.19989898360047
 30
0.0
  0
VERTEX
  5
261
  8
MARK_IN_POCKET
 10
14.44820716654385
 20
17.17749264204773
 30
0.0
  0
VERTEX
  5
262
  8
MARK_IN_POCKET
 10
14.43802067362392
 20
17.1553861051825
 30
0.0
  0
VERTEX
  5
263
  8
MARK_IN_POCKET
 10
14.42729530130947
 20
17.13358761275086
 30
0.0
  0
VERTEX
  5
264
  8
MARK_IN_POCKET
 10
14.41604002176846
 20
17.11210540449891
 30
0.0
  0
VERTEX
  5
265
  8
MARK_IN_POCKET
 10
14.40426380716885
 20
17.09094772017273
 30
0.0
  0
VERTEX
  5
266
  8
MARK_IN_POCKET
 10
14.39197562967861
 20
17.07012279951843
 30
0.0
  0
VERTEX
  5
267
  8
MARK_IN_POCKET
 10
14.37918446146572
 20
17.04963888228211
 30
0.0
  0
VERTEX
  5
268
  8
MARK_IN_POCKET
 10
14.36589927469814
 20
17.02950420820984
 30
0.0
  0
VERTEX
  5
269
  8
MARK_IN_POCKET
 10
14.35212904154384
 20
17.00972701704773
 30
0.0
  0
VERTEX
  5
26A
  8
MARK_IN_POCKET
 10
14.3378827341708
 20
16.99031554854187
 30
0.0
  0
VERTEX
  5
26B
  8
MARK_IN_POCKET
 10
14.32316932474697
 20
16.97127804243836
 30
0.0
  0
VERTEX
  5
26C
  8
MARK_IN_POCKET
 10
14.30799778544033
 20
16.95262273848329
 30
0.0
  0
VERTEX
  5
26D
  8
MARK_IN_POCKET
 10
14.29237708841884
 20
16.93435787642274
 30
0.0
  0
VERTEX
  5
26E
  8
MARK_IN_POCKET
 10
14.27631620585048
 20
16.91649169600282
 30
0.0
  0
VERTEX
  5
26F
  8
MARK_IN_POCKET
 10
14.25982410990322
 20
16.89903243696961
 30
0.0
  0
VERTEX
  5
270
  8
MARK_IN_POCKET
 10
14.24290977274502
 20
16.88198833906922
 30
0.0
  0
VERTEX
  5
271
  8
MARK_IN_POCKET
 10
14.22558216654384
 20
16.86536764204774
 30
0.0
  0
VERTEX
  5
272
  8
MARK_IN_POCKET
 10
14.20785026346767
 20
16.84917858565125
 30
0.0
  0
VERTEX
  5
273
  8
MARK_IN_POCKET
 10
14.18972303568447
 20
16.83342940962586
 30
0.0
  0
VERTEX
  5
274
  8
MARK_IN_POCKET
 10
14.1712094553622
 20
16.81812835371766
 30
0.0
  0
VERTEX
  5
275
  8
MARK_IN_POCKET
 10
14.15231849466884
 20
16.80328365767274
 30
0.0
  0
VERTEX
  5
276
  8
MARK_IN_POCKET
 10
14.13305912577236
 20
16.78890356123719
 30
0.0
  0
VERTEX
  5
277
  8
MARK_IN_POCKET
 10
14.11344032084072
 20
16.77499630415711
 30
0.0
  0
VERTEX
  5
278
  8
MARK_IN_POCKET
 10
14.09347105204189
 20
16.7615701261786
 30
0.0
  0
VERTEX
  5
279
  8
MARK_IN_POCKET
 10
14.07316029154384
 20
16.74863326704774
 30
0.0
  0
VERTEX
  5
27A
  8
MARK_IN_POCKET
 10
14.05251701151455
 20
16.73619396651063
 30
0.0
  0
VERTEX
  5
27B
  8
MARK_IN_POCKET
 10
14.03155018412197
 20
16.72426046431336
 30
0.0
  0
VERTEX
  5
27C
  8
MARK_IN_POCKET
 10
14.01026878153408
 20
16.71284100020203
 30
0.0
  0
VERTEX
  5
27D
  8
MARK_IN_POCKET
 10
13.98868177591884
 20
16.70194381392274
 30
0.0
  0
VERTEX
  5
27E
  8
MARK_IN_POCKET
 10
13.96679813944423
 20
16.69157714522157
 30
0.0
  0
VERTEX
  5
27F
  8
MARK_IN_POCKET
 10
13.94462684427822
 20
16.68174923384461
 30
0.0
  0
VERTEX
  5
280
  8
MARK_IN_POCKET
 10
13.92217686258877
 20
16.67246831953797
 30
0.0
  0
VERTEX
  5
281
  8
MARK_IN_POCKET
 10
13.89945716654384
 20
16.66374264204774
 30
0.0
  0
VERTEX
  5
282
  8
MARK_IN_POCKET
 10
13.87647672831142
 20
16.65558044112
 30
0.0
  0
VERTEX
  5
283
  8
MARK_IN_POCKET
 10
13.85324452005947
 20
16.64798995650086
 30
0.0
  0
VERTEX
  5
284
  8
MARK_IN_POCKET
 10
13.82976951395595
 20
16.64097942793641
 30
0.0
  0
VERTEX
  5
285
  8
MARK_IN_POCKET
 10
13.80606068216884
 20
16.63455709517273
 30
0.0
  0
VERTEX
  5
286
  8
MARK_IN_POCKET
 10
13.78212699686611
 20
16.62873119795594
 30
0.0
  0
VERTEX
  5
287
  8
MARK_IN_POCKET
 10
13.75797743021572
 20
16.62350997603211
 30
0.0
  0
VERTEX
  5
288
  8
MARK_IN_POCKET
 10
13.73362095438564
 20
16.61890166914734
 30
0.0
  0
VERTEX
  5
289
  8
MARK_IN_POCKET
 10
13.70906654154384
 20
16.61491451704773
 30
0.0
  0
VERTEX
  5
28A
  8
MARK_IN_POCKET
 10
13.68432316385829
 20
16.61155675947937
 30
0.0
  0
VERTEX
  5
28B
  8
MARK_IN_POCKET
 10
13.65939979349697
 20
16.60883663618836
 30
0.0
  0
VERTEX
  5
28C
  8
MARK_IN_POCKET
 10
13.63430540262783
 20
16.60676238692078
 30
0.0
  0
VERTEX
  5
28D
  8
MARK_IN_POCKET
 10
13.60904896341884
 20
16.60534225142273
 30
0.0
  0
VERTEX
  5
28E
  8
MARK_IN_POCKET
 10
13.58363944803799
 20
16.60458446944031
 30
0.0
  0
VERTEX
  5
28F
  8
MARK_IN_POCKET
 10
13.55808582865322
 20
16.60449728071961
 30
0.0
  0
VERTEX
  5
290
  8
MARK_IN_POCKET
 10
13.53239707743252
 20
16.60508892500671
 30
0.0
  0
VERTEX
  5
291
  8
MARK_IN_POCKET
 10
13.50658216654385
 20
16.60636764204773
 30
0.0
  0
VERTEX
  5
292
  8
MARK_IN_POCKET
 10
13.48390165506924
 20
16.60677666914733
 30
0.0
  0
VERTEX
  5
293
  8
MARK_IN_POCKET
 10
13.46136463724697
 20
16.6077492338446
 30
0.0
  0
VERTEX
  5
294
  8
MARK_IN_POCKET
 10
13.43897788797939
 20
16.60927856123718
 30
0.0
  0
VERTEX
  5
295
  8
MARK_IN_POCKET
 10
13.41674818216885
 20
16.61135787642273
 30
0.0
  0
VERTEX
  5
296
  8
MARK_IN_POCKET
 10
13.39468229471767
 20
16.6139804044989
 30
0.0
  0
VERTEX
  5
297
  8
MARK_IN_POCKET
 10
13.37278700052822
 20
16.61713937056335
 30
0.0
  0
VERTEX
  5
298
  8
MARK_IN_POCKET
 10
13.35106907450283
 20
16.62082799971374
 30
0.0
  0
VERTEX
  5
299
  8
MARK_IN_POCKET
 10
13.32953529154384
 20
16.62503951704772
 30
0.0
  0
VERTEX
  5
29A
  8
MARK_IN_POCKET
 10
13.30819242655361
 20
16.62976714766296
 30
0.0
  0
VERTEX
  5
29B
  8
MARK_IN_POCKET
 10
13.28704725443447
 20
16.6350041166571
 30
0.0
  0
VERTEX
  5
29C
  8
MARK_IN_POCKET
 10
13.26610655008877
 20
16.64074364912781
 30
0.0
  0
VERTEX
  5
29D
  8
MARK_IN_POCKET
 10
13.24537708841885
 20
16.64697897017273
 30
0.0
  0
VERTEX
  5
29E
  8
MARK_IN_POCKET
 10
13.22486564432705
 20
16.65370330488953
 30
0.0
  0
VERTEX
  5
29F
  8
MARK_IN_POCKET
 10
13.20457899271572
 20
16.66090987837585
 30
0.0
  0
VERTEX
  5
2A0
  8
MARK_IN_POCKET
 10
13.1845239084872
 20
16.66859191572937
 30
0.0
  0
VERTEX
  5
2A1
  8
MARK_IN_POCKET
 10
13.16470716654385
 20
16.67674264204773
 30
0.0
  0
VERTEX
  5
2A2
  8
MARK_IN_POCKET
 10
13.14513554178799
 20
16.68535528242859
 30
0.0
  0
VERTEX
  5
2A3
  8
MARK_IN_POCKET
 10
13.12581580912197
 20
16.69442306196961
 30
0.0
  0
VERTEX
  5
2A4
  8
MARK_IN_POCKET
 10
13.10675474344814
 20
16.70393920576843
 30
0.0
  0
VERTEX
  5
2A5
  8
MARK_IN_POCKET
 10
13.08795911966884
 20
16.71389693892273
 30
0.0
  0
VERTEX
  5
2A6
  8
MARK_IN_POCKET
 10
13.06943571268642
 20
16.72428948653015
 30
0.0
  0
VERTEX
  5
2A7
  8
MARK_IN_POCKET
 10
13.05119129740322
 20
16.73511007368835
 30
0.0
  0
VERTEX
  5
2A8
  8
MARK_IN_POCKET
 10
13.03323264872158
 20
16.74635192549499
 30
0.0
  0
VERTEX
  5
2A9
  8
MARK_IN_POCKET
 10
13.01556654154384
 20
16.75800826704773
 30
0.0
  0
VERTEX
  5
2AA
  8
MARK_IN_POCKET
 10
12.99819975077236
 20
16.77007232344421
 30
0.0
  0
VERTEX
  5
2AB
  8
MARK_IN_POCKET
 10
12.98113905130947
 20
16.7825373197821
 30
0.0
  0
VERTEX
  5
2AC
  8
MARK_IN_POCKET
 10
12.96439121805751
 20
16.79539648115906
 30
0.0
  0
VERTEX
  5
2AD
  8
MARK_IN_POCKET
 10
12.94796302591884
 20
16.80864303267273
 30
0.0
  0
VERTEX
  5
2AE
  8
MARK_IN_POCKET
 10
12.93186124979579
 20
16.82227019942077
 30
0.0
  0
VERTEX
  5
2AF
  8
MARK_IN_POCKET
 10
12.91609266459071
 20
16.83627120650085
 30
0.0
  0
VERTEX
  5
2B0
  8
MARK_IN_POCKET
 10
12.90066404520595
 20
16.85063927901061
 30
0.0
  0
VERTEX
  5
2B1
  8
MARK_IN_POCKET
 10
12.88558216654384
 20
16.86536764204773
 30
0.0
  0
VERTEX
  5
2B2
  8
MARK_IN_POCKET
 10
12.87085380350673
 20
16.88044952070984
 30
0.0
  0
VERTEX
  5
2B3
  8
MARK_IN_POCKET
 10
12.85648573099697
 20
16.8958781400946
 30
0.0
  0
VERTEX
  5
2B4
  8
MARK_IN_POCKET
 10
12.84248472391689
 20
16.91164672529968
 30
0.0
  0
VERTEX
  5
2B5
  8
MARK_IN_POCKET
 10
12.82885755716884
 20
16.92774850142273
 30
0.0
  0
VERTEX
  5
2B6
  8
MARK_IN_POCKET
 10
12.81561100565517
 20
16.9441766935614
 30
0.0
  0
VERTEX
  5
2B7
  8
MARK_IN_POCKET
 10
12.80275184427822
 20
16.96092452681335
 30
0.0
  0
VERTEX
  5
2B8
  8
MARK_IN_POCKET
 10
12.79028684794032
 20
16.97798522627624
 30
0.0
  0
VERTEX
  5
2B9
  8
MARK_IN_POCKET
 10
12.77822279154384
 20
16.99535201704773
 30
0.0
  0
VERTEX
  5
2BA
  8
MARK_IN_POCKET
 10
12.76656644999111
 20
17.01301812422546
 30
0.0
  0
VERTEX
  5
2BB
  8
MARK_IN_POCKET
 10
12.75532459818446
 20
17.0309767729071
 30
0.0
  0
VERTEX
  5
2BC
  8
MARK_IN_POCKET
 10
12.74450401102626
 20
17.0492211881903
 30
0.0
  0
VERTEX
  5
2BD
  8
MARK_IN_POCKET
 10
12.73411146341884
 20
17.06774459517272
 30
0.0
  0
VERTEX
  5
2BE
  8
MARK_IN_POCKET
 10
12.72415373026454
 20
17.08654021895202
 30
0.0
  0
VERTEX
  5
2BF
  8
MARK_IN_POCKET
 10
12.71463758646571
 20
17.10560128462585
 30
0.0
  0
VERTEX
  5
2C0
  8
MARK_IN_POCKET
 10
12.7055698069247
 20
17.12492101729186
 30
0.0
  0
VERTEX
  5
2C1
  8
MARK_IN_POCKET
 10
12.69695716654384
 20
17.14449264204772
 30
0.0
  0
VERTEX
  5
2C2
  8
MARK_IN_POCKET
 10
12.68880644022548
 20
17.16430938399108
 30
0.0
  0
VERTEX
  5
2C3
  8
MARK_IN_POCKET
 10
12.68112440287196
 20
17.1843644682196
 30
0.0
  0
VERTEX
  5
2C4
  8
MARK_IN_POCKET
 10
12.67391782938564
 20
17.20465111983093
 30
0.0
  0
VERTEX
  5
2C5
  8
MARK_IN_POCKET
 10
12.66719349466884
 20
17.22516256392272
 30
0.0
  0
VERTEX
  5
2C6
  8
MARK_IN_POCKET
 10
12.66095817362392
 20
17.24589202559265
 30
0.0
  0
VERTEX
  5
2C7
  8
MARK_IN_POCKET
 10
12.65521864115322
 20
17.26683272993835
 30
0.0
  0
VERTEX
  5
2C8
  8
MARK_IN_POCKET
 10
12.64998167215908
 20
17.28797790205749
 30
0.0
  0
VERTEX
  5
2C9
  8
MARK_IN_POCKET
 10
12.64525404154384
 20
17.30932076704772
 30
0.0
  0
VERTEX
  5
2CA
  8
MARK_IN_POCKET
 10
12.64104252420986
 20
17.33085455000671
 30
0.0
  0
VERTEX
  5
2CB
  8
MARK_IN_POCKET
 10
12.63735389505947
 20
17.35257247603209
 30
0.0
  0
VERTEX
  5
2CC
  8
MARK_IN_POCKET
 10
12.63419492899502
 20
17.37446777022155
 30
0.0
  0
VERTEX
  5
2CD
  8
MARK_IN_POCKET
 10
12.63157240091885
 20
17.39653365767272
 30
0.0
  0
VERTEX
  5
2CE
  8
MARK_IN_POCKET
 10
12.6294930857333
 20
17.41876336348327
 30
0.0
  0
VERTEX
  5
2CF
  8
MARK_IN_POCKET
 10
12.62796375834072
 20
17.44115011275085
 30
0.0
  0
VERTEX
  5
2D0
  8
MARK_IN_POCKET
 10
12.62699119364346
 20
17.46368713057311
 30
0.0
  0
VERTEX
  5
2D1
  8
MARK_IN_POCKET
 10
12.62658216654385
 20
17.48636764204772
 30
0.0
  0
VERTEX
  5
2D2
  8
MARK_IN_POCKET
 10
12.62658216654385
 20
19.10236764204774
 30
0.0
  0
VERTEX
  5
2D3
  8
MARK_IN_POCKET
 10
12.62658216654385
 20
17.51836764204773
 30
0.0
  0
VERTEX
  5
2D4
  8
MARK_IN_POCKET
 10
12.62620683085049
 20
17.48996093428406
 30
0.0
  0
VERTEX
  5
2D5
  8
MARK_IN_POCKET
 10
12.62508729349697
 20
17.46174679243835
 30
0.0
  0
VERTEX
  5
2D6
  8
MARK_IN_POCKET
 10
12.62323325907315
 20
17.43373418867859
 30
0.0
  0
VERTEX
  5
2D7
  8
MARK_IN_POCKET
 10
12.62065443216885
 20
17.40593209517273
 30
0.0
  0
VERTEX
  5
2D8
  8
MARK_IN_POCKET
 10
12.61736051737393
 20
17.37834948408875
 30
0.0
  0
VERTEX
  5
2D9
  8
MARK_IN_POCKET
 10
12.61336121927823
 20
17.35099532759461
 30
0.0
  0
VERTEX
  5
2DA
  8
MARK_IN_POCKET
 10
12.60866624247159
 20
17.32387859785828
 30
0.0
  0
VERTEX
  5
2DB
  8
MARK_IN_POCKET
 10
12.60328529154385
 20
17.29700826704773
 30
0.0
  0
VERTEX
  5
2DC
  8
MARK_IN_POCKET
 10
12.59722807108487
 20
17.27039330733093
 30
0.0
  0
VERTEX
  5
2DD
  8
MARK_IN_POCKET
 10
12.59050428568447
 20
17.24404269087585
 30
0.0
  0
VERTEX
  5
2DE
  8
MARK_IN_POCKET
 10
12.58312363993252
 20
17.21796538985046
 30
0.0
  0
VERTEX
  5
2DF
  8
MARK_IN_POCKET
 10
12.57509583841885
 20
17.19217037642273
 30
0.0
  0
VERTEX
  5
2E0
  8
MARK_IN_POCKET
 10
12.5664305857333
 20
17.16666662276062
 30
0.0
  0
VERTEX
  5
2E1
  8
MARK_IN_POCKET
 10
12.55713758646572
 20
17.14146310103211
 30
0.0
  0
VERTEX
  5
2E2
  8
MARK_IN_POCKET
 10
12.54722654520596
 20
17.11656878340515
 30
0.0
  0
VERTEX
  5
2E3
  8
MARK_IN_POCKET
 10
12.53670716654385
 20
17.09199264204773
 30
0.0
  0
VERTEX
  5
2E4
  8
MARK_IN_POCKET
 10
12.52558915506924
 20
17.06774364912781
 30
0.0
  0
VERTEX
  5
2E5
  8
MARK_IN_POCKET
 10
12.51388221537197
 20
17.04383077681336
 30
0.0
  0
VERTEX
  5
2E6
  8
MARK_IN_POCKET
 10
12.5015960520419
 20
17.02026299727234
 30
0.0
  0
VERTEX
  5
2E7
  8
MARK_IN_POCKET
 10
12.48874036966885
 20
16.99704928267273
 30
0.0
  0
VERTEX
  5
2E8
  8
MARK_IN_POCKET
 10
12.47532487284268
 20
16.97419860518249
 30
0.0
  0
VERTEX
  5
2E9
  8
MARK_IN_POCKET
 10
12.46135926615322
 20
16.95171993696961
 30
0.0
  0
VERTEX
  5
2EA
  8
MARK_IN_POCKET
 10
12.44685325419033
 20
16.92962225020203
 30
0.0
  0
VERTEX
  5
2EB
  8
MARK_IN_POCKET
 10
12.43181654154385
 20
16.90791451704773
 30
0.0
  0
VERTEX
  5
2EC
  8
MARK_IN_POCKET
 10
12.41625883280361
 20
16.88660570967469
 30
0.0
  0
VERTEX
  5
2ED
  8
MARK_IN_POCKET
 10
12.40018983255947
 20
16.86570480025086
 30
0.0
  0
VERTEX
  5
2EE
  8
MARK_IN_POCKET
 10
12.38361924540127
 20
16.84522076094422
 30
0.0
  0
VERTEX
  5
2EF
  8
MARK_IN_POCKET
 10
12.36655677591885
 20
16.82516256392273
 30
0.0
  0
VERTEX
  5
2F0
  8
MARK_IN_POCKET
 10
12.34901212870205
 20
16.80553918135438
 30
0.0
  0
VERTEX
  5
2F1
  8
MARK_IN_POCKET
 10
12.33099500834072
 20
16.78635958540711
 30
0.0
  0
VERTEX
  5
2F2
  8
MARK_IN_POCKET
 10
12.31251511942471
 20
16.76763274824891
 30
0.0
  0
VERTEX
  5
2F3
  8
MARK_IN_POCKET
 10
12.29358216654385
 20
16.74936764204773
 30
0.0
  0
VERTEX
  5
2F4
  8
MARK_IN_POCKET
 10
12.27420585428799
 20
16.73157323897156
 30
0.0
  0
VERTEX
  5
2F5
  8
MARK_IN_POCKET
 10
12.25439588724697
 20
16.71425851118836
 30
0.0
  0
VERTEX
  5
2F6
  8
MARK_IN_POCKET
 10
12.23416197001064
 20
16.69743243086609
 30
0.0
  0
VERTEX
  5
2F7
  8
MARK_IN_POCKET
 10
12.21351380716885
 20
16.68110397017274
 30
0.0
  0
VERTEX
  5
2F8
  8
MARK_IN_POCKET
 10
12.19246110331143
 20
16.66528210127625
 30
0.0
  0
VERTEX
  5
2F9
  8
MARK_IN_POCKET
 10
12.17101356302822
 20
16.64997579634461
 30
0.0
  0
VERTEX
  5
2FA
  8
MARK_IN_POCKET
 10
12.14918089090908
 20
16.63519402754578
 30
0.0
  0
VERTEX
  5
2FB
  8
MARK_IN_POCKET
 10
12.12697279154385
 20
16.62094576704774
 30
0.0
  0
VERTEX
  5
2FC
  8
MARK_IN_POCKET
 10
12.10439896952236
 20
16.60723998701844
 30
0.0
  0
VERTEX
  5
2FD
  8
MARK_IN_POCKET
 10
12.08146912943447
 20
16.59408565962586
 30
0.0
  0
VERTEX
  5
2FE
  8
MARK_IN_POCKET
 10
12.05819297587002
 20
16.58149175703797
 30
0.0
  0
VERTEX
  5
2FF
  8
MARK_IN_POCKET
 10
12.03458021341885
 20
16.56946725142274
 30
0.0
  0
VERTEX
  5
300
  8
MARK_IN_POCKET
 10
12.0106405466708
 20
16.55802111494813
 30
0.0
  0
VERTEX
  5
301
  8
MARK_IN_POCKET
 10
11.98638368021572
 20
16.54716231978211
 30
0.0
  0
VERTEX
  5
302
  8
MARK_IN_POCKET
 10
11.96181931864345
 20
16.53689983809266
 30
0.0
  0
VERTEX
  5
303
  8
MARK_IN_POCKET
 10
11.93695716654384
 20
16.52724264204774
 30
0.0
  0
VERTEX
  5
304
  8
MARK_IN_POCKET
 10
11.91180692850673
 20
16.51819970381532
 30
0.0
  0
VERTEX
  5
305
  8
MARK_IN_POCKET
 10
11.88637830912197
 20
16.50977999556336
 30
0.0
  0
VERTEX
  5
306
  8
MARK_IN_POCKET
 10
11.86068101297939
 20
16.50199248945985
 30
0.0
  0
VERTEX
  5
307
  8
MARK_IN_POCKET
 10
11.83472474466884
 20
16.49484615767274
 30
0.0
  0
VERTEX
  5
308
  8
MARK_IN_POCKET
 10
11.80851920878017
 20
16.48834997237
 30
0.0
  0
VERTEX
  5
309
  8
MARK_IN_POCKET
 10
11.78207410990322
 20
16.48251290571962
 30
0.0
  0
VERTEX
  5
30A
  8
MARK_IN_POCKET
 10
11.75539915262783
 20
16.47734392988954
 30
0.0
  0
VERTEX
  5
30B
  8
MARK_IN_POCKET
 10
11.72850404154385
 20
16.47285201704774
 30
0.0
  0
VERTEX
  5
30C
  8
MARK_IN_POCKET
 10
11.70139848124111
 20
16.4690461393622
 30
0.0
  0
VERTEX
  5
30D
  8
MARK_IN_POCKET
 10
11.67409217630947
 20
16.46593526900087
 30
0.0
  0
VERTEX
  5
30E
  8
MARK_IN_POCKET
 10
11.64659483133877
 20
16.46352837813173
 30
0.0
  0
VERTEX
  5
30F
  8
MARK_IN_POCKET
 10
11.61891615091885
 20
16.46183443892275
 30
0.0
  0
VERTEX
  5
310
  8
MARK_IN_POCKET
 10
11.59106583963955
 20
16.46086242354189
 30
0.0
  0
VERTEX
  5
311
  8
MARK_IN_POCKET
 10
11.56305360209072
 20
16.46062130415712
 30
0.0
  0
VERTEX
  5
312
  8
MARK_IN_POCKET
 10
11.53488914286221
 20
16.46112005293642
 30
0.0
  0
VERTEX
  5
313
  8
MARK_IN_POCKET
 10
11.50658216654385
 20
16.46236764204775
 30
0.0
  0
VERTEX
  5
314
  8
MARK_IN_POCKET
 10
11.48140766703213
 20
16.46268667280946
 30
0.0
  0
VERTEX
  5
315
  8
MARK_IN_POCKET
 10
11.45638929545009
 20
16.4636386381415
 30
0.0
  0
VERTEX
  5
316
  8
MARK_IN_POCKET
 10
11.43153474222744
 20
16.46521584761416
 30
0.0
  0
VERTEX
  5
317
  8
MARK_IN_POCKET
 10
11.40685169779385
 20
16.46741061079775
 30
0.0
  0
VERTEX
  5
318
  8
MARK_IN_POCKET
 10
11.382347852579
 20
16.4702152372626
 30
0.0
  0
VERTEX
  5
319
  8
MARK_IN_POCKET
 10
11.3580308970126
 20
16.473622036579
 30
0.0
  0
VERTEX
  5
31A
  8
MARK_IN_POCKET
 10
11.33390852152431
 20
16.47762331831728
 30
0.0
  0
VERTEX
  5
31B
  8
MARK_IN_POCKET
 10
11.30998841654385
 20
16.48221139204775
 30
0.0
  0
VERTEX
  5
31C
  8
MARK_IN_POCKET
 10
11.28627827250088
 20
16.48737856734072
 30
0.0
  0
VERTEX
  5
31D
  8
MARK_IN_POCKET
 10
11.26278577982509
 20
16.49311715376651
 30
0.0
  0
VERTEX
  5
31E
  8
MARK_IN_POCKET
 10
11.23951862894619
 20
16.49941946089541
 30
0.0
  0
VERTEX
  5
31F
  8
MARK_IN_POCKET
 10
11.21648451029384
 20
16.50627779829775
 30
0.0
  0
VERTEX
  5
320
  8
MARK_IN_POCKET
 10
11.19369111429775
 20
16.51368447554384
 30
0.0
  0
VERTEX
  5
321
  8
MARK_IN_POCKET
 10
11.17114613138759
 20
16.521631802204
 30
0.0
  0
VERTEX
  5
322
  8
MARK_IN_POCKET
 10
11.14885725199306
 20
16.53011208784853
 30
0.0
  0
VERTEX
  5
323
  8
MARK_IN_POCKET
 10
11.12683216654384
 20
16.53911764204775
 30
0.0
  0
VERTEX
  5
324
  8
MARK_IN_POCKET
 10
11.10507856546962
 20
16.54864077437197
 30
0.0
  0
VERTEX
  5
325
  8
MARK_IN_POCKET
 10
11.08360413920009
 20
16.5586737943915
 30
0.0
  0
VERTEX
  5
326
  8
MARK_IN_POCKET
 10
11.06241657816494
 20
16.56920901167666
 30
0.0
  0
VERTEX
  5
327
  8
MARK_IN_POCKET
 10
11.04152357279384
 20
16.58023873579775
 30
0.0
  0
VERTEX
  5
328
  8
MARK_IN_POCKET
 10
11.0209328135165
 20
16.5917552763251
 30
0.0
  0
VERTEX
  5
329
  8
MARK_IN_POCKET
 10
11.00065199076259
 20
16.603750942829
 30
0.0
  0
VERTEX
  5
32A
  8
MARK_IN_POCKET
 10
10.98068879496181
 20
16.61621804487978
 30
0.0
  0
VERTEX
  5
32B
  8
MARK_IN_POCKET
 10
10.96105091654384
 20
16.62914889204775
 30
0.0
  0
VERTEX
  5
32C
  8
MARK_IN_POCKET
 10
10.94174604593837
 20
16.64253579390322
 30
0.0
  0
VERTEX
  5
32D
  8
MARK_IN_POCKET
 10
10.92278187357509
 20
16.6563710600165
 30
0.0
  0
VERTEX
  5
32E
  8
MARK_IN_POCKET
 10
10.90416608988369
 20
16.67064699995791
 30
0.0
  0
VERTEX
  5
32F
  8
MARK_IN_POCKET
 10
10.88590638529384
 20
16.68535592329775
 30
0.0
  0
VERTEX
  5
330
  8
MARK_IN_POCKET
 10
10.86801045023525
 20
16.70049013960634
 30
0.0
  0
VERTEX
  5
331
  8
MARK_IN_POCKET
 10
10.85048597513759
 20
16.716041958454
 30
0.0
  0
VERTEX
  5
332
  8
MARK_IN_POCKET
 10
10.83334065043056
 20
16.73200368941103
 30
0.0
  0
VERTEX
  5
333
  8
MARK_IN_POCKET
 10
10.81658216654384
 20
16.74836764204775
 30
0.0
  0
VERTEX
  5
334
  8
MARK_IN_POCKET
 10
10.80021821390713
 20
16.76512612593447
 30
0.0
  0
VERTEX
  5
335
  8
MARK_IN_POCKET
 10
10.7842564829501
 20
16.7822714506415
 30
0.0
  0
VERTEX
  5
336
  8
MARK_IN_POCKET
 10
10.76870466410244
 20
16.79979592573916
 30
0.0
  0
VERTEX
  5
337
  8
MARK_IN_POCKET
 10
10.75357044779384
 20
16.81769186079775
 30
0.0
  0
VERTEX
  5
338
  8
MARK_IN_POCKET
 10
10.738861524454
 20
16.83595156538759
 30
0.0
  0
VERTEX
  5
339
  8
MARK_IN_POCKET
 10
10.7245855845126
 20
16.854567349079
 30
0.0
  0
VERTEX
  5
33A
  8
MARK_IN_POCKET
 10
10.71075031839931
 20
16.87353152144228
 30
0.0
  0
VERTEX
  5
33B
  8
MARK_IN_POCKET
 10
10.69736341654384
 20
16.89283639204775
 30
0.0
  0
VERTEX
  5
33C
  8
MARK_IN_POCKET
 10
10.68443256937588
 20
16.91247427046572
 30
0.0
  0
VERTEX
  5
33D
  8
MARK_IN_POCKET
 10
10.67196546732509
 20
16.9324374662665
 30
0.0
  0
VERTEX
  5
33E
  8
MARK_IN_POCKET
 10
10.65996980082119
 20
16.95271828902041
 30
0.0
  0
VERTEX
  5
33F
  8
MARK_IN_POCKET
 10
10.64845326029385
 20
16.97330904829775
 30
0.0
  0
VERTEX
  5
340
  8
MARK_IN_POCKET
 10
10.63742353617275
 20
16.99420205366884
 30
0.0
  0
VERTEX
  5
341
  8
MARK_IN_POCKET
 10
10.62688831888759
 20
17.015389614704
 30
0.0
  0
VERTEX
  5
342
  8
MARK_IN_POCKET
 10
10.61685529886806
 20
17.03686404097353
 30
0.0
  0
VERTEX
  5
343
  8
MARK_IN_POCKET
 10
10.60733216654384
 20
17.05861764204775
 30
0.0
  0
VERTEX
  5
344
  8
MARK_IN_POCKET
 10
10.59832661234462
 20
17.08064272749697
 30
0.0
  0
VERTEX
  5
345
  8
MARK_IN_POCKET
 10
10.58984632670009
 20
17.1029316068915
 30
0.0
  0
VERTEX
  5
346
  8
MARK_IN_POCKET
 10
10.58189900003994
 20
17.12547658980166
 30
0.0
  0
VERTEX
  5
347
  8
MARK_IN_POCKET
 10
10.57449232279385
 20
17.14826998579775
 30
0.0
  0
VERTEX
  5
348
  8
MARK_IN_POCKET
 10
10.5676339853915
 20
17.17130410445009
 30
0.0
  0
VERTEX
  5
349
  8
MARK_IN_POCKET
 10
10.5613316782626
 20
17.194571255329
 30
0.0
  0
VERTEX
  5
34A
  8
MARK_IN_POCKET
 10
10.55559309183682
 20
17.21806374800478
 30
0.0
  0
VERTEX
  5
34B
  8
MARK_IN_POCKET
 10
10.55042591654385
 20
17.24177389204775
 30
0.0
  0
VERTEX
  5
34C
  8
MARK_IN_POCKET
 10
10.54583784281338
 20
17.26569399702822
 30
0.0
  0
VERTEX
  5
34D
  8
MARK_IN_POCKET
 10
10.5418365610751
 20
17.2898163725165
 30
0.0
  0
VERTEX
  5
34E
  8
MARK_IN_POCKET
 10
10.53842976175869
 20
17.31413332808291
 30
0.0
  0
VERTEX
  5
34F
  8
MARK_IN_POCKET
 10
10.53562513529385
 20
17.33863717329775
 30
0.0
  0
VERTEX
  5
350
  8
MARK_IN_POCKET
 10
10.53343037211025
 20
17.36332021773134
 30
0.0
  0
VERTEX
  5
351
  8
MARK_IN_POCKET
 10
10.5318531626376
 20
17.388174770954
 30
0.0
  0
VERTEX
  5
352
  8
MARK_IN_POCKET
 10
10.53090119730556
 20
17.41319314253603
 30
0.0
  0
VERTEX
  5
353
  8
MARK_IN_POCKET
 10
10.53058216654385
 20
17.43836764204775
 30
0.0
  0
VERTEX
  5
354
  8
MARK_IN_POCKET
 10
10.53058216654385
 20
19.10236764204774
 30
0.0
  0
SEQEND
  5
355
  8
MARK_IN_POCKET
  0
ENDSEC
  0
EOF
