  0
SECTION
  2
HEADER
  9
$ACADVER
  1
AC1009
  9
$DWGCODEPAGE
  3
ansi_1252
  9
$INSBASE
 10
0.0
 20
0.0
 30
0.0
  9
$EXTMIN
 10
3.99974297564
 20
2.124998
 30
0.0
  9
$EXTMAX
 10
93.00025702435985
 20
45.65397092850715
 30
0.0
  9
$LIMMIN
 10
0.0
 20
0.0
  9
$LIMMAX
 10
12.0
 20
9.0
  9
$ORTHOMODE
 70
     0
  9
$REGENMODE
 70
     1
  9
$FILLMODE
 70
     1
  9
$QTEXTMODE
 70
     0
  9
$MIRRTEXT
 70
     1
  9
$DRAGMODE
 70
     2
  9
$LTSCALE
 40
1.0
  9
$OSMODE
 70
    37
  9
$ATTMODE
 70
     1
  9
$TEXTSIZE
 40
0.2
  9
$TRACEWID
 40
0.05
  9
$TEXTSTYLE
  7
STANDARD
  9
$CLAYER
  8
0
  9
$CELTYPE
  6
BYLAYER
  9
$CECOLOR
 62
   256
  9
$DIMSCALE
 40
1.0
  9
$DIMASZ
 40
0.18
  9
$DIMEXO
 40
0.0625
  9
$DIMDLI
 40
0.38
  9
$DIMRND
 40
0.0
  9
$DIMDLE
 40
0.0
  9
$DIMEXE
 40
0.18
  9
$DIMTP
 40
0.0
  9
$DIMTM
 40
0.0
  9
$DIMTXT
 40
0.18
  9
$DIMCEN
 40
0.09
  9
$DIMTSZ
 40
0.0
  9
$DIMTOL
 70
     0
  9
$DIMLIM
 70
     0
  9
$DIMTIH
 70
     1
  9
$DIMTOH
 70
     1
  9
$DIMSE1
 70
     0
  9
$DIMSE2
 70
     0
  9
$DIMTAD
 70
     0
  9
$DIMZIN
 70
     0
  9
$DIMBLK
  1

  9
$DIMASO
 70
     1
  9
$DIMSHO
 70
     1
  9
$DIMPOST
  1

  9
$DIMAPOST
  1

  9
$DIMALT
 70
     0
  9
$DIMALTD
 70
     2
  9
$DIMALTF
 40
25.4
  9
$DIMLFAC
 40
1.0
  9
$DIMTOFL
 70
     0
  9
$DIMTVP
 40
0.0
  9
$DIMTIX
 70
     0
  9
$DIMSOXD
 70
     0
  9
$DIMSAH
 70
     0
  9
$DIMBLK1
  1

  9
$DIMBLK2
  1

  9
$DIMSTYLE
  2
STANDARD
  9
$DIMCLRD
 70
     0
  9
$DIMCLRE
 70
     0
  9
$DIMCLRT
 70
     0
  9
$DIMTFAC
 40
1.0
  9
$DIMGAP
 40
0.09
  9
$LUNITS
 70
     2
  9
$LUPREC
 70
     4
  9
$SKETCHINC
 40
0.1
  9
$FILLETRAD
 40
0.5
  9
$AUNITS
 70
     0
  9
$AUPREC
 70
     0
  9
$MENU
  1
.
  9
$ELEVATION
 40
0.0
  9
$PELEVATION
 40
0.0
  9
$THICKNESS
 40
0.0
  9
$LIMCHECK
 70
     0
  9
$CHAMFERA
 40
0.5
  9
$CHAMFERB
 40
0.5
  9
$SKPOLY
 70
     0
  9
$TDCREATE
 40
2454910.5
  9
$TDUPDATE
 40
2455901.445840776
  9
$TDINDWG
 40
0.0000000116
  9
$TDUSRTIMER
 40
0.0000000116
  9
$USRTIMER
 70
     1
  9
$ANGBASE
 50
0.0
  9
$ANGDIR
 70
     0
  9
$PDMODE
 70
     0
  9
$PDSIZE
 40
0.0
  9
$PLINEWID
 40
0.0
  9
$COORDS
 70
     1
  9
$SPLFRAME
 70
     0
  9
$SPLINETYPE
 70
     6
  9
$SPLINESEGS
 70
     8
  9
$ATTDIA
 70
     0
  9
$ATTREQ
 70
     1
  9
$HANDLING
 70
     1
  9
$HANDSEED
  5
353
  9
$SURFTAB1
 70
     6
  9
$SURFTAB2
 70
     6
  9
$SURFTYPE
 70
     6
  9
$SURFU
 70
     6
  9
$SURFV
 70
     6
  9
$UCSNAME
  2

  9
$UCSORG
 10
0.0
 20
0.0
 30
0.0
  9
$UCSXDIR
 10
1.0
 20
0.0
 30
0.0
  9
$UCSYDIR
 10
0.0
 20
1.0
 30
0.0
  9
$PUCSNAME
  2

  9
$PUCSORG
 10
0.0
 20
0.0
 30
0.0
  9
$PUCSXDIR
 10
1.0
 20
0.0
 30
0.0
  9
$PUCSYDIR
 10
0.0
 20
1.0
 30
0.0
  9
$USERI1
 70
     0
  9
$USERI2
 70
     0
  9
$USERI3
 70
     0
  9
$USERI4
 70
     0
  9
$USERI5
 70
     0
  9
$USERR1
 40
0.0
  9
$USERR2
 40
0.0
  9
$USERR3
 40
0.0
  9
$USERR4
 40
0.0
  9
$USERR5
 40
0.0
  9
$WORLDVIEW
 70
     1
  9
$SHADEDGE
 70
     3
  9
$SHADEDIF
 70
    70
  9
$TILEMODE
 70
     1
  9
$MAXACTVP
 70
    64
  9
$PLIMCHECK
 70
     0
  9
$PEXTMIN
 10
1.000000000000000E+20
 20
1.000000000000000E+20
 30
1.000000000000000E+20
  9
$PEXTMAX
 10
-1.000000000000000E+20
 20
-1.000000000000000E+20
 30
-1.000000000000000E+20
  9
$PLIMMIN
 10
0.0
 20
0.0
  9
$PLIMMAX
 10
12.0
 20
9.0
  9
$UNITMODE
 70
     0
  9
$VISRETAIN
 70
     1
  9
$PLINEGEN
 70
     0
  9
$PSLTSCALE
 70
     1
  0
ENDSEC
  0
SECTION
  2
TABLES
  0
TABLE
  2
VPORT
 70
     1
  0
VPORT
  2
*ACTIVE
 70
     0
 10
0.0
 20
0.0
 11
1.0
 21
1.0
 12
10.42990654205607
 22
4.5
 13
0.0
 23
0.0
 14
0.5
 24
0.5
 15
0.5
 25
0.5
 16
0.0
 26
0.0
 36
1.0
 17
0.0
 27
0.0
 37
0.0
 40
9.0
 41
1.972972972850329
 42
50.0
 43
0.0
 44
0.0
 50
0.0
 51
0.0
 71
     0
 72
   100
 73
     1
 74
     3
 75
     0
 76
     0
 77
     0
 78
     0
  0
ENDTAB
  0
TABLE
  2
LTYPE
 70
     2
  0
LTYPE
  2
CONTINUOUS
 70
     0
  3
Solid line
 72
    65
 73
     0
 40
0.0
  0
LTYPE
  2
CONTINUOUS2
 70
     0
  3
Solid Line
 72
    65
 73
     0
 40
0.0
  0
ENDTAB
  0
TABLE
  2
LAYER
 70
     5
  0
LAYER
  2
0
 70
     0
 62
     7
  6
CONTINUOUS
  0
LAYER
  2
THROUGH_CUT
 70
     0
 62
    18
  6
CONTINUOUS
  0
LAYER
  2
CUT_HALFWAY_THROUGH
 70
     0
 62
     1
  6
CONTINUOUS
  0
LAYER
  2
RECESS_FOR_SCREWS
 70
     0
 62
     5
  6
CONTINUOUS
  0
LAYER
  2
MARK_IN_POCKET
 70
     0
 62
     3
  6
CONTINUOUS
  0
ENDTAB
  0
TABLE
  2
STYLE
 70
     1
  0
STYLE
  2
STANDARD
 70
     0
 40
0.0
 41
1.0
 50
0.0
 71
     0
 42
0.2
  3
txt
  4

  0
ENDTAB
  0
TABLE
  2
VIEW
 70
     0
  0
ENDTAB
  0
TABLE
  2
UCS
 70
     0
  0
ENDTAB
  0
TABLE
  2
APPID
 70
     1
  0
APPID
  2
ACAD
 70
     0
  0
ENDTAB
  0
TABLE
  2
DIMSTYLE
 70
     1
  0
DIMSTYLE
  2
STANDARD
 70
     0
  3

  4

  5

  6

  7

 40
1.0
 41
0.18
 42
0.0625
 43
0.38
 44
0.18
 45
0.0
 46
0.0
 47
0.0
 48
0.0
140
0.18
141
0.09
142
0.0
143
25.4
144
1.0
145
0.0
146
1.0
147
0.09
 71
     0
 72
     0
 73
     1
 74
     1
 75
     0
 76
     0
 77
     0
 78
     0
170
     0
171
     2
172
     0
173
     0
174
     0
175
     0
176
     0
177
     0
178
     0
  0
ENDTAB
  0
ENDSEC
  0
SECTION
  2
BLOCKS
  0
BLOCK
  8
0
  2
$MODEL_SPACE
 70
     0
 10
0.0
 20
0.0
 30
0.0
  3
$MODEL_SPACE
  1

  0
ENDBLK
  5
21
  8
0
  0
BLOCK
 67
     1
  8
0
  2
$PAPER_SPACE
 70
     0
 10
0.0
 20
0.0
 30
0.0
  3
$PAPER_SPACE
  1

  0
ENDBLK
  5
1D
 67
     1
  8
0
  0
ENDSEC
  0
SECTION
  2
ENTITIES
  0
POLYLINE
  5
41
  8
THROUGH_CUT
 66
     1
 10
0.0
 20
0.0
 30
0.0
 70
     1
  0
VERTEX
  5
67
  8
THROUGH_CUT
 10
79.27962297564
 20
5.824955
 30
0.0
 42
0.414213562372987
  0
VERTEX
  5
68
  8
THROUGH_CUT
 10
79.07962297564
 20
5.624955
 30
0.0
 42
0.414213562372987
  0
VERTEX
  5
69
  8
THROUGH_CUT
 10
79.27962297564
 20
5.424955
 30
0.0
 42
0.414213562372995
  0
VERTEX
  5
6A
  8
THROUGH_CUT
 10
79.47962297564
 20
5.624955
 30
0.0
 42
0.414213562372995
  0
SEQEND
  5
6B
  8
THROUGH_CUT
  0
POLYLINE
  5
42
  8
THROUGH_CUT
 66
     1
 10
0.0
 20
0.0
 30
0.0
 70
     1
  0
VERTEX
  5
6C
  8
THROUGH_CUT
 10
91.27962297564
 20
5.824955
 30
0.0
 42
0.414213562372987
  0
VERTEX
  5
6D
  8
THROUGH_CUT
 10
91.07962297564
 20
5.624955
 30
0.0
 42
0.414213562372987
  0
VERTEX
  5
6E
  8
THROUGH_CUT
 10
91.27962297564
 20
5.424955
 30
0.0
 42
0.414213562372995
  0
VERTEX
  5
6F
  8
THROUGH_CUT
 10
91.47962297564
 20
5.624955
 30
0.0
 42
0.414213562372995
  0
SEQEND
  5
70
  8
THROUGH_CUT
  0
POLYLINE
  5
43
  8
THROUGH_CUT
 66
     1
 10
0.0
 20
0.0
 30
0.0
 70
     1
  0
VERTEX
  5
71
  8
THROUGH_CUT
 10
48.95827103417268
 20
29.14897092850715
 30
0.0
  0
VERTEX
  5
72
  8
THROUGH_CUT
 10
48.95827103417268
 20
26.90897092850715
 30
0.0
 42
1.0
  0
VERTEX
  5
73
  8
THROUGH_CUT
 10
48.95827103417268
 20
26.52897092850715
 30
0.0
  0
VERTEX
  5
74
  8
THROUGH_CUT
 10
49.70827103417268
 20
26.52897092850715
 30
0.0
 42
1.0
  0
VERTEX
  5
75
  8
THROUGH_CUT
 10
49.70827103417268
 20
26.90897092850715
 30
0.0
  0
VERTEX
  5
76
  8
THROUGH_CUT
 10
49.70827103417268
 20
29.14897092850715
 30
0.0
 42
1.0
  0
VERTEX
  5
77
  8
THROUGH_CUT
 10
49.70827103417268
 20
29.52897092850715
 30
0.0
  0
VERTEX
  5
78
  8
THROUGH_CUT
 10
48.95827103417268
 20
29.52897092850715
 30
0.0
 42
1.0
  0
SEQEND
  5
79
  8
THROUGH_CUT
  0
POLYLINE
  5
44
  8
THROUGH_CUT
 66
     1
 10
0.0
 20
0.0
 30
0.0
 70
     1
  0
VERTEX
  5
7A
  8
THROUGH_CUT
 10
26.95827103417268
 20
26.52897092850715
 30
0.0
  0
VERTEX
  5
7B
  8
THROUGH_CUT
 10
27.70827103417268
 20
26.52897092850715
 30
0.0
 42
1.0
  0
VERTEX
  5
7C
  8
THROUGH_CUT
 10
27.70827103417268
 20
26.90897092850715
 30
0.0
  0
VERTEX
  5
7D
  8
THROUGH_CUT
 10
27.70827103417268
 20
29.14897092850715
 30
0.0
 42
1.0
  0
VERTEX
  5
7E
  8
THROUGH_CUT
 10
27.70827103417268
 20
29.52897092850715
 30
0.0
  0
VERTEX
  5
7F
  8
THROUGH_CUT
 10
26.95827103417268
 20
29.52897092850715
 30
0.0
 42
1.0
  0
VERTEX
  5
80
  8
THROUGH_CUT
 10
26.95827103417268
 20
29.14897092850715
 30
0.0
  0
VERTEX
  5
81
  8
THROUGH_CUT
 10
26.95827103417268
 20
26.90897092850715
 30
0.0
 42
1.0
  0
SEQEND
  5
82
  8
THROUGH_CUT
  0
POLYLINE
  5
45
  8
THROUGH_CUT
 66
     1
 10
0.0
 20
0.0
 30
0.0
 70
     1
  0
VERTEX
  5
83
  8
THROUGH_CUT
 10
4.95283397564
 20
5.495418
 30
0.0
 42
0.9614812579399954
  0
VERTEX
  5
84
  8
THROUGH_CUT
 10
5.040919490576851
 20
4.751201678935888
 30
0.0
 42
0.9614804590530841
  0
VERTEX
  5
85
  8
THROUGH_CUT
 10
5.01149697564
 20
5.500035
 30
0.0
 42
0.0196379937251413
  0
VERTEX
  5
86
  8
THROUGH_CUT
 10
4.982075083382964
 20
5.498878980309032
 30
0.0
 42
0.0196375784393063
  0
SEQEND
  5
87
  8
THROUGH_CUT
  0
POLYLINE
  5
46
  8
THROUGH_CUT
 66
     1
 10
0.0
 20
0.0
 30
0.0
 70
     1
  0
VERTEX
  5
88
  8
THROUGH_CUT
 10
5.333271034172684
 20
41.06012092850715
 30
0.0
 42
-0.4142135623730951
  0
VERTEX
  5
89
  8
THROUGH_CUT
 10
5.333171034172684
 20
41.06022092850715
 30
0.0
 42
-0.4142135623730951
  0
VERTEX
  5
8A
  8
THROUGH_CUT
 10
5.333271034172684
 20
41.06032092850715
 30
0.0
 42
-0.4142135623730951
  0
VERTEX
  5
8B
  8
THROUGH_CUT
 10
5.333371034172684
 20
41.06022092850715
 30
0.0
 42
-0.4142135623730951
  0
SEQEND
  5
8C
  8
THROUGH_CUT
  0
POLYLINE
  5
47
  8
THROUGH_CUT
 66
     1
 10
0.0
 20
0.0
 30
0.0
 70
     1
  0
VERTEX
  5
8D
  8
THROUGH_CUT
 10
73.90462097564
 20
9.124999
 30
0.0
  0
VERTEX
  5
8E
  8
THROUGH_CUT
 10
52.65462097564
 20
9.124999
 30
0.0
  0
VERTEX
  5
8F
  8
THROUGH_CUT
 10
52.65462097564
 20
5.524999
 30
0.0
  0
VERTEX
  5
90
  8
THROUGH_CUT
 10
52.68753997564
 20
5.522271
 30
0.0
  0
VERTEX
  5
91
  8
THROUGH_CUT
 10
52.71956097564
 20
5.514162
 30
0.0
  0
VERTEX
  5
92
  8
THROUGH_CUT
 10
52.74980997564
 20
5.500894
 30
0.0
  0
VERTEX
  5
93
  8
THROUGH_CUT
 10
52.77746297564
 20
5.482827
 30
0.0
  0
VERTEX
  5
94
  8
THROUGH_CUT
 10
52.80176597564
 20
5.460455
 30
0.0
  0
VERTEX
  5
95
  8
THROUGH_CUT
 10
52.82205397564
 20
5.434388
 30
0.0
  0
VERTEX
  5
96
  8
THROUGH_CUT
 10
52.83777597564
 20
5.405338
 30
0.0
  0
VERTEX
  5
97
  8
THROUGH_CUT
 10
52.84850097564
 20
5.374096
 30
0.0
  0
VERTEX
  5
98
  8
THROUGH_CUT
 10
52.85393797564
 20
5.341515
 30
0.0
  0
VERTEX
  5
99
  8
THROUGH_CUT
 10
52.85393797564
 20
5.308483
 30
0.0
  0
VERTEX
  5
9A
  8
THROUGH_CUT
 10
52.84850097564
 20
5.275902
 30
0.0
  0
VERTEX
  5
9B
  8
THROUGH_CUT
 10
52.83777597564
 20
5.24466
 30
0.0
  0
VERTEX
  5
9C
  8
THROUGH_CUT
 10
52.82205397564
 20
5.215609
 30
0.0
  0
VERTEX
  5
9D
  8
THROUGH_CUT
 10
52.80176597564
 20
5.189542
 30
0.0
  0
VERTEX
  5
9E
  8
THROUGH_CUT
 10
52.77746297564
 20
5.167171
 30
0.0
  0
VERTEX
  5
9F
  8
THROUGH_CUT
 10
52.74980997564
 20
5.149104
 30
0.0
  0
VERTEX
  5
A0
  8
THROUGH_CUT
 10
52.71956097564
 20
5.135835
 30
0.0
  0
VERTEX
  5
A1
  8
THROUGH_CUT
 10
52.68753997564
 20
5.127727
 30
0.0
  0
VERTEX
  5
A2
  8
THROUGH_CUT
 10
52.65462097564
 20
5.124999
 30
0.0
  0
VERTEX
  5
A3
  8
THROUGH_CUT
 10
51.90462097564
 20
5.124999
 30
0.0
  0
VERTEX
  5
A4
  8
THROUGH_CUT
 10
51.87170197564
 20
5.127727
 30
0.0
  0
VERTEX
  5
A5
  8
THROUGH_CUT
 10
51.83968097564
 20
5.135835
 30
0.0
  0
VERTEX
  5
A6
  8
THROUGH_CUT
 10
51.80943097564
 20
5.149104
 30
0.0
  0
VERTEX
  5
A7
  8
THROUGH_CUT
 10
51.78177797564
 20
5.167171
 30
0.0
  0
VERTEX
  5
A8
  8
THROUGH_CUT
 10
51.75747597564
 20
5.189542
 30
0.0
  0
VERTEX
  5
A9
  8
THROUGH_CUT
 10
51.73718797564
 20
5.215609
 30
0.0
  0
VERTEX
  5
AA
  8
THROUGH_CUT
 10
51.72146597564
 20
5.24466
 30
0.0
  0
VERTEX
  5
AB
  8
THROUGH_CUT
 10
51.71074097564
 20
5.275902
 30
0.0
  0
VERTEX
  5
AC
  8
THROUGH_CUT
 10
51.70530397564
 20
5.308483
 30
0.0
  0
VERTEX
  5
AD
  8
THROUGH_CUT
 10
51.70530397564
 20
5.341515
 30
0.0
  0
VERTEX
  5
AE
  8
THROUGH_CUT
 10
51.71074097564
 20
5.374096
 30
0.0
  0
VERTEX
  5
AF
  8
THROUGH_CUT
 10
51.72146597564
 20
5.405338
 30
0.0
  0
VERTEX
  5
B0
  8
THROUGH_CUT
 10
51.73718797564
 20
5.434388
 30
0.0
  0
VERTEX
  5
B1
  8
THROUGH_CUT
 10
51.75747597564
 20
5.460455
 30
0.0
  0
VERTEX
  5
B2
  8
THROUGH_CUT
 10
51.78177797564
 20
5.482827
 30
0.0
  0
VERTEX
  5
B3
  8
THROUGH_CUT
 10
51.80943097564
 20
5.500894
 30
0.0
  0
VERTEX
  5
B4
  8
THROUGH_CUT
 10
51.83968097564
 20
5.514162
 30
0.0
  0
VERTEX
  5
B5
  8
THROUGH_CUT
 10
51.87170197564
 20
5.522271
 30
0.0
  0
VERTEX
  5
B6
  8
THROUGH_CUT
 10
51.90462097564
 20
5.524999
 30
0.0
  0
VERTEX
  5
B7
  8
THROUGH_CUT
 10
51.90462097564
 20
9.124999
 30
0.0
  0
VERTEX
  5
B8
  8
THROUGH_CUT
 10
30.65462097564
 20
9.124999
 30
0.0
  0
VERTEX
  5
B9
  8
THROUGH_CUT
 10
30.65462097564
 20
5.524999
 30
0.0
  0
VERTEX
  5
BA
  8
THROUGH_CUT
 10
30.68753997564
 20
5.522271
 30
0.0
  0
VERTEX
  5
BB
  8
THROUGH_CUT
 10
30.71956097564
 20
5.514162
 30
0.0
  0
VERTEX
  5
BC
  8
THROUGH_CUT
 10
30.74980997564
 20
5.500894
 30
0.0
  0
VERTEX
  5
BD
  8
THROUGH_CUT
 10
30.77746297564
 20
5.482827
 30
0.0
  0
VERTEX
  5
BE
  8
THROUGH_CUT
 10
30.80176597564
 20
5.460455
 30
0.0
  0
VERTEX
  5
BF
  8
THROUGH_CUT
 10
30.82205397564
 20
5.434388
 30
0.0
  0
VERTEX
  5
C0
  8
THROUGH_CUT
 10
30.83777597564
 20
5.405338
 30
0.0
  0
VERTEX
  5
C1
  8
THROUGH_CUT
 10
30.84850097564
 20
5.374096
 30
0.0
  0
VERTEX
  5
C2
  8
THROUGH_CUT
 10
30.85393797564
 20
5.341515
 30
0.0
  0
VERTEX
  5
C3
  8
THROUGH_CUT
 10
30.85393797564
 20
5.308483
 30
0.0
  0
VERTEX
  5
C4
  8
THROUGH_CUT
 10
30.84850097564
 20
5.275902
 30
0.0
  0
VERTEX
  5
C5
  8
THROUGH_CUT
 10
30.83777597564
 20
5.24466
 30
0.0
  0
VERTEX
  5
C6
  8
THROUGH_CUT
 10
30.82205397564
 20
5.215609
 30
0.0
  0
VERTEX
  5
C7
  8
THROUGH_CUT
 10
30.80176597564
 20
5.189542
 30
0.0
  0
VERTEX
  5
C8
  8
THROUGH_CUT
 10
30.77746297564
 20
5.167171
 30
0.0
  0
VERTEX
  5
C9
  8
THROUGH_CUT
 10
30.74980997564
 20
5.149104
 30
0.0
  0
VERTEX
  5
CA
  8
THROUGH_CUT
 10
30.71956097564
 20
5.135835
 30
0.0
  0
VERTEX
  5
CB
  8
THROUGH_CUT
 10
30.68753997564
 20
5.127727
 30
0.0
  0
VERTEX
  5
CC
  8
THROUGH_CUT
 10
30.65462097564
 20
5.124999
 30
0.0
  0
VERTEX
  5
CD
  8
THROUGH_CUT
 10
29.90462097564
 20
5.124999
 30
0.0
  0
VERTEX
  5
CE
  8
THROUGH_CUT
 10
29.87170197564
 20
5.127727
 30
0.0
  0
VERTEX
  5
CF
  8
THROUGH_CUT
 10
29.83968097564
 20
5.135835
 30
0.0
  0
VERTEX
  5
D0
  8
THROUGH_CUT
 10
29.80943097564
 20
5.149104
 30
0.0
  0
VERTEX
  5
D1
  8
THROUGH_CUT
 10
29.78177797564
 20
5.167171
 30
0.0
  0
VERTEX
  5
D2
  8
THROUGH_CUT
 10
29.75747597564
 20
5.189542
 30
0.0
  0
VERTEX
  5
D3
  8
THROUGH_CUT
 10
29.73718797564
 20
5.215609
 30
0.0
  0
VERTEX
  5
D4
  8
THROUGH_CUT
 10
29.72146597564
 20
5.24466
 30
0.0
  0
VERTEX
  5
D5
  8
THROUGH_CUT
 10
29.71074097564
 20
5.275902
 30
0.0
  0
VERTEX
  5
D6
  8
THROUGH_CUT
 10
29.70530397564
 20
5.308483
 30
0.0
  0
VERTEX
  5
D7
  8
THROUGH_CUT
 10
29.70530397564
 20
5.341515
 30
0.0
  0
VERTEX
  5
D8
  8
THROUGH_CUT
 10
29.71074097564
 20
5.374096
 30
0.0
  0
VERTEX
  5
D9
  8
THROUGH_CUT
 10
29.72146597564
 20
5.405338
 30
0.0
  0
VERTEX
  5
DA
  8
THROUGH_CUT
 10
29.73718797564
 20
5.434388
 30
0.0
  0
VERTEX
  5
DB
  8
THROUGH_CUT
 10
29.75747597564
 20
5.460455
 30
0.0
  0
VERTEX
  5
DC
  8
THROUGH_CUT
 10
29.78177797564
 20
5.482827
 30
0.0
  0
VERTEX
  5
DD
  8
THROUGH_CUT
 10
29.80943097564
 20
5.500894
 30
0.0
  0
VERTEX
  5
DE
  8
THROUGH_CUT
 10
29.83968097564
 20
5.514162
 30
0.0
  0
VERTEX
  5
DF
  8
THROUGH_CUT
 10
29.87170197564
 20
5.522271
 30
0.0
  0
VERTEX
  5
E0
  8
THROUGH_CUT
 10
29.90462097564
 20
5.524999
 30
0.0
  0
VERTEX
  5
E1
  8
THROUGH_CUT
 10
29.90462097564
 20
9.124999
 30
0.0
  0
VERTEX
  5
E2
  8
THROUGH_CUT
 10
8.65462097564
 20
9.124999
 30
0.0
  0
VERTEX
  5
E3
  8
THROUGH_CUT
 10
8.65462097564
 20
5.524999
 30
0.0
  0
VERTEX
  5
E4
  8
THROUGH_CUT
 10
8.68753997564
 20
5.522271
 30
0.0
  0
VERTEX
  5
E5
  8
THROUGH_CUT
 10
8.71956097564
 20
5.514162
 30
0.0
  0
VERTEX
  5
E6
  8
THROUGH_CUT
 10
8.74980997564
 20
5.500894
 30
0.0
  0
VERTEX
  5
E7
  8
THROUGH_CUT
 10
8.77746297564
 20
5.482827
 30
0.0
  0
VERTEX
  5
E8
  8
THROUGH_CUT
 10
8.80176597564
 20
5.460455
 30
0.0
  0
VERTEX
  5
E9
  8
THROUGH_CUT
 10
8.82205397564
 20
5.434388
 30
0.0
  0
VERTEX
  5
EA
  8
THROUGH_CUT
 10
8.83777597564
 20
5.405338
 30
0.0
  0
VERTEX
  5
EB
  8
THROUGH_CUT
 10
8.84850097564
 20
5.374096
 30
0.0
  0
VERTEX
  5
EC
  8
THROUGH_CUT
 10
8.85393797564
 20
5.341515
 30
0.0
  0
VERTEX
  5
ED
  8
THROUGH_CUT
 10
8.85393797564
 20
5.308483
 30
0.0
  0
VERTEX
  5
EE
  8
THROUGH_CUT
 10
8.84850097564
 20
5.275902
 30
0.0
  0
VERTEX
  5
EF
  8
THROUGH_CUT
 10
8.83777597564
 20
5.24466
 30
0.0
  0
VERTEX
  5
F0
  8
THROUGH_CUT
 10
8.82205397564
 20
5.215609
 30
0.0
  0
VERTEX
  5
F1
  8
THROUGH_CUT
 10
8.80176597564
 20
5.189542
 30
0.0
  0
VERTEX
  5
F2
  8
THROUGH_CUT
 10
8.77746297564
 20
5.167171
 30
0.0
  0
VERTEX
  5
F3
  8
THROUGH_CUT
 10
8.74980997564
 20
5.149104
 30
0.0
  0
VERTEX
  5
F4
  8
THROUGH_CUT
 10
8.71956097564
 20
5.135835
 30
0.0
  0
VERTEX
  5
F5
  8
THROUGH_CUT
 10
8.68753997564
 20
5.127727
 30
0.0
  0
VERTEX
  5
F6
  8
THROUGH_CUT
 10
8.65462097564
 20
5.124999
 30
0.0
  0
VERTEX
  5
F7
  8
THROUGH_CUT
 10
7.90462097564
 20
5.124999
 30
0.0
  0
VERTEX
  5
F8
  8
THROUGH_CUT
 10
7.87170197564
 20
5.127727
 30
0.0
  0
VERTEX
  5
F9
  8
THROUGH_CUT
 10
7.83968097564
 20
5.135835
 30
0.0
  0
VERTEX
  5
FA
  8
THROUGH_CUT
 10
7.80943097564
 20
5.149104
 30
0.0
  0
VERTEX
  5
FB
  8
THROUGH_CUT
 10
7.78177797564
 20
5.167171
 30
0.0
  0
VERTEX
  5
FC
  8
THROUGH_CUT
 10
7.75747597564
 20
5.189542
 30
0.0
  0
VERTEX
  5
FD
  8
THROUGH_CUT
 10
7.73718797564
 20
5.215609
 30
0.0
  0
VERTEX
  5
FE
  8
THROUGH_CUT
 10
7.72146597564
 20
5.24466
 30
0.0
  0
VERTEX
  5
FF
  8
THROUGH_CUT
 10
7.71074097564
 20
5.275902
 30
0.0
  0
VERTEX
  5
100
  8
THROUGH_CUT
 10
7.70530397564
 20
5.308483
 30
0.0
  0
VERTEX
  5
101
  8
THROUGH_CUT
 10
7.70530397564
 20
5.341515
 30
0.0
  0
VERTEX
  5
102
  8
THROUGH_CUT
 10
7.71074097564
 20
5.374096
 30
0.0
  0
VERTEX
  5
103
  8
THROUGH_CUT
 10
7.72146597564
 20
5.405338
 30
0.0
  0
VERTEX
  5
104
  8
THROUGH_CUT
 10
7.73718797564
 20
5.434388
 30
0.0
  0
VERTEX
  5
105
  8
THROUGH_CUT
 10
7.75747597564
 20
5.460455
 30
0.0
  0
VERTEX
  5
106
  8
THROUGH_CUT
 10
7.78177797564
 20
5.482827
 30
0.0
  0
VERTEX
  5
107
  8
THROUGH_CUT
 10
7.80943097564
 20
5.500894
 30
0.0
  0
VERTEX
  5
108
  8
THROUGH_CUT
 10
7.83968097564
 20
5.514162
 30
0.0
  0
VERTEX
  5
109
  8
THROUGH_CUT
 10
7.87170197564
 20
5.522271
 30
0.0
  0
VERTEX
  5
10A
  8
THROUGH_CUT
 10
7.90462097564
 20
5.524999
 30
0.0
  0
VERTEX
  5
10B
  8
THROUGH_CUT
 10
7.90462097564
 20
9.124999
 30
0.0
  0
VERTEX
  5
10C
  8
THROUGH_CUT
 10
5.76153897564
 20
9.124999
 30
0.0
  0
VERTEX
  5
10D
  8
THROUGH_CUT
 10
5.76153897564
 20
7.407842
 30
0.0
  0
VERTEX
  5
10E
  8
THROUGH_CUT
 10
5.78394797564
 20
7.381136
 30
0.0
  0
VERTEX
  5
10F
  8
THROUGH_CUT
 10
5.80137997564
 20
7.350944
 30
0.0
  0
VERTEX
  5
110
  8
THROUGH_CUT
 10
5.81330297564
 20
7.318184
 30
0.0
  0
VERTEX
  5
111
  8
THROUGH_CUT
 10
5.81935697564
 20
7.283852
 30
0.0
  0
VERTEX
  5
112
  8
THROUGH_CUT
 10
5.81935697564
 20
7.24899
 30
0.0
  0
VERTEX
  5
113
  8
THROUGH_CUT
 10
5.81330297564
 20
7.214657
 30
0.0
  0
VERTEX
  5
114
  8
THROUGH_CUT
 10
5.80137997564
 20
7.181897
 30
0.0
  0
VERTEX
  5
115
  8
THROUGH_CUT
 10
5.78394897564
 20
7.151705
 30
0.0
  0
VERTEX
  5
116
  8
THROUGH_CUT
 10
5.76153997564
 20
7.124999
 30
0.0
  0
VERTEX
  5
117
  8
THROUGH_CUT
 10
5.73483397564
 20
7.10259
 30
0.0
  0
VERTEX
  5
118
  8
THROUGH_CUT
 10
5.70464197564
 20
7.085159
 30
0.0
  0
VERTEX
  5
119
  8
THROUGH_CUT
 10
5.67188197564
 20
7.073235
 30
0.0
  0
VERTEX
  5
11A
  8
THROUGH_CUT
 10
5.63754997564
 20
7.067182
 30
0.0
  0
VERTEX
  5
11B
  8
THROUGH_CUT
 10
5.60268697564
 20
7.067181
 30
0.0
  0
VERTEX
  5
11C
  8
THROUGH_CUT
 10
5.56835497564
 20
7.073235
 30
0.0
  0
VERTEX
  5
11D
  8
THROUGH_CUT
 10
5.53559497564
 20
7.085159
 30
0.0
  0
VERTEX
  5
11E
  8
THROUGH_CUT
 10
5.50540297564
 20
7.10259
 30
0.0
  0
VERTEX
  5
11F
  8
THROUGH_CUT
 10
5.47869697564
 20
7.124999
 30
0.0
  0
VERTEX
  5
120
  8
THROUGH_CUT
 10
4.49974297564
 20
7.124999
 30
0.0
 42
0.4142135623729997
  0
VERTEX
  5
121
  8
THROUGH_CUT
 10
3.99974297564
 20
6.624999
 30
0.0
  0
VERTEX
  5
122
  8
THROUGH_CUT
 10
3.99974297564
 20
3.624999
 30
0.0
 42
0.4142135623730001
  0
VERTEX
  5
123
  8
THROUGH_CUT
 10
4.49974297564
 20
3.124999
 30
0.0
  0
VERTEX
  5
124
  8
THROUGH_CUT
 10
5.47869697564
 20
3.124999
 30
0.0
  0
VERTEX
  5
125
  8
THROUGH_CUT
 10
5.50390297564
 20
3.146347
 30
0.0
  0
VERTEX
  5
126
  8
THROUGH_CUT
 10
5.53227897564
 20
3.163256
 30
0.0
  0
VERTEX
  5
127
  8
THROUGH_CUT
 10
5.56305097564
 20
3.175263
 30
0.0
  0
VERTEX
  5
128
  8
THROUGH_CUT
 10
5.59537997564
 20
3.182041
 30
0.0
  0
VERTEX
  5
129
  8
THROUGH_CUT
 10
5.62838397564
 20
3.183406
 30
0.0
  0
VERTEX
  5
12A
  8
THROUGH_CUT
 10
5.66116197564
 20
3.17932
 30
0.0
  0
VERTEX
  5
12B
  8
THROUGH_CUT
 10
5.69281997564
 20
3.169895
 30
0.0
  0
VERTEX
  5
12C
  8
THROUGH_CUT
 10
5.72249597564
 20
3.155388
 30
0.0
  0
VERTEX
  5
12D
  8
THROUGH_CUT
 10
5.74937797564
 20
3.136194
 30
0.0
  0
VERTEX
  5
12E
  8
THROUGH_CUT
 10
5.77273497564
 20
3.112837
 30
0.0
  0
VERTEX
  5
12F
  8
THROUGH_CUT
 10
5.79192897564
 20
3.085954
 30
0.0
  0
VERTEX
  5
130
  8
THROUGH_CUT
 10
5.80643597564
 20
3.056278
 30
0.0
  0
VERTEX
  5
131
  8
THROUGH_CUT
 10
5.81586197564
 20
3.02462
 30
0.0
  0
VERTEX
  5
132
  8
THROUGH_CUT
 10
5.81994697564
 20
2.991842
 30
0.0
  0
VERTEX
  5
133
  8
THROUGH_CUT
 10
5.81858197564
 20
2.958838
 30
0.0
  0
VERTEX
  5
134
  8
THROUGH_CUT
 10
5.81180397564
 20
2.92651
 30
0.0
  0
VERTEX
  5
135
  8
THROUGH_CUT
 10
5.79979597564
 20
2.895738
 30
0.0
  0
VERTEX
  5
136
  8
THROUGH_CUT
 10
5.78288797564
 20
2.867362
 30
0.0
  0
VERTEX
  5
137
  8
THROUGH_CUT
 10
5.76153897564
 20
2.842156
 30
0.0
  0
VERTEX
  5
138
  8
THROUGH_CUT
 10
5.76153897564
 20
2.124999
 30
0.0
  0
VERTEX
  5
139
  8
THROUGH_CUT
 10
85.27962097564
 20
2.124998
 30
0.0
  0
VERTEX
  5
13A
  8
THROUGH_CUT
 10
91.944629114889
 20
4.192289122274
 30
0.0
 42
0.7368231252249993
  0
VERTEX
  5
13B
  8
THROUGH_CUT
 10
91.94464599146
 20
7.057615779504
 30
0.0
  0
VERTEX
  5
13C
  8
THROUGH_CUT
 10
85.27962097564
 20
9.124999
 30
0.0
  0
VERTEX
  5
13D
  8
THROUGH_CUT
 10
74.65462097564
 20
9.124999
 30
0.0
  0
VERTEX
  5
13E
  8
THROUGH_CUT
 10
74.65462097564
 20
5.524999
 30
0.0
  0
VERTEX
  5
13F
  8
THROUGH_CUT
 10
74.68753997564
 20
5.522271
 30
0.0
  0
VERTEX
  5
140
  8
THROUGH_CUT
 10
74.71956097564
 20
5.514162
 30
0.0
  0
VERTEX
  5
141
  8
THROUGH_CUT
 10
74.74980997564
 20
5.500894
 30
0.0
  0
VERTEX
  5
142
  8
THROUGH_CUT
 10
74.77746297564
 20
5.482827
 30
0.0
  0
VERTEX
  5
143
  8
THROUGH_CUT
 10
74.80176597564
 20
5.460455
 30
0.0
  0
VERTEX
  5
144
  8
THROUGH_CUT
 10
74.82205397564
 20
5.434388
 30
0.0
  0
VERTEX
  5
145
  8
THROUGH_CUT
 10
74.83777597564
 20
5.405338
 30
0.0
  0
VERTEX
  5
146
  8
THROUGH_CUT
 10
74.84850097564
 20
5.374096
 30
0.0
  0
VERTEX
  5
147
  8
THROUGH_CUT
 10
74.85393797564
 20
5.341515
 30
0.0
  0
VERTEX
  5
148
  8
THROUGH_CUT
 10
74.85393797564
 20
5.308483
 30
0.0
  0
VERTEX
  5
149
  8
THROUGH_CUT
 10
74.84850097564
 20
5.275902
 30
0.0
  0
VERTEX
  5
14A
  8
THROUGH_CUT
 10
74.83777597564
 20
5.24466
 30
0.0
  0
VERTEX
  5
14B
  8
THROUGH_CUT
 10
74.82205397564
 20
5.215609
 30
0.0
  0
VERTEX
  5
14C
  8
THROUGH_CUT
 10
74.80176597564
 20
5.189542
 30
0.0
  0
VERTEX
  5
14D
  8
THROUGH_CUT
 10
74.77746297564
 20
5.167171
 30
0.0
  0
VERTEX
  5
14E
  8
THROUGH_CUT
 10
74.74980997564
 20
5.149104
 30
0.0
  0
VERTEX
  5
14F
  8
THROUGH_CUT
 10
74.71956097564
 20
5.135835
 30
0.0
  0
VERTEX
  5
150
  8
THROUGH_CUT
 10
74.68753997564
 20
5.127727
 30
0.0
  0
VERTEX
  5
151
  8
THROUGH_CUT
 10
74.65462097564
 20
5.124999
 30
0.0
  0
VERTEX
  5
152
  8
THROUGH_CUT
 10
73.90462097564
 20
5.124999
 30
0.0
  0
VERTEX
  5
153
  8
THROUGH_CUT
 10
73.87170197564
 20
5.127727
 30
0.0
  0
VERTEX
  5
154
  8
THROUGH_CUT
 10
73.83968097564
 20
5.135835
 30
0.0
  0
VERTEX
  5
155
  8
THROUGH_CUT
 10
73.80943097564
 20
5.149104
 30
0.0
  0
VERTEX
  5
156
  8
THROUGH_CUT
 10
73.78177797564
 20
5.167171
 30
0.0
  0
VERTEX
  5
157
  8
THROUGH_CUT
 10
73.75747597564
 20
5.189542
 30
0.0
  0
VERTEX
  5
158
  8
THROUGH_CUT
 10
73.73718797564
 20
5.215609
 30
0.0
  0
VERTEX
  5
159
  8
THROUGH_CUT
 10
73.72146597564
 20
5.24466
 30
0.0
  0
VERTEX
  5
15A
  8
THROUGH_CUT
 10
73.71074097564
 20
5.275902
 30
0.0
  0
VERTEX
  5
15B
  8
THROUGH_CUT
 10
73.70530397564
 20
5.308483
 30
0.0
  0
VERTEX
  5
15C
  8
THROUGH_CUT
 10
73.70530397564
 20
5.341515
 30
0.0
  0
VERTEX
  5
15D
  8
THROUGH_CUT
 10
73.71074097564
 20
5.374096
 30
0.0
  0
VERTEX
  5
15E
  8
THROUGH_CUT
 10
73.72146597564
 20
5.405338
 30
0.0
  0
VERTEX
  5
15F
  8
THROUGH_CUT
 10
73.73718797564
 20
5.434388
 30
0.0
  0
VERTEX
  5
160
  8
THROUGH_CUT
 10
73.75747597564
 20
5.460455
 30
0.0
  0
VERTEX
  5
161
  8
THROUGH_CUT
 10
73.78177797564
 20
5.482827
 30
0.0
  0
VERTEX
  5
162
  8
THROUGH_CUT
 10
73.80943097564
 20
5.500894
 30
0.0
  0
VERTEX
  5
163
  8
THROUGH_CUT
 10
73.83968097564
 20
5.514162
 30
0.0
  0
VERTEX
  5
164
  8
THROUGH_CUT
 10
73.87170197564
 20
5.522271
 30
0.0
  0
VERTEX
  5
165
  8
THROUGH_CUT
 10
73.90462097564
 20
5.524999
 30
0.0
  0
SEQEND
  5
166
  8
THROUGH_CUT
  0
POLYLINE
  5
48
  8
THROUGH_CUT
 66
     1
 10
0.0
 20
0.0
 30
0.0
 70
     1
  0
VERTEX
  5
167
  8
THROUGH_CUT
 10
5.708271034172688
 20
11.02897092850715
 30
0.0
  0
VERTEX
  5
168
  8
THROUGH_CUT
 10
71.70827103417268
 20
11.02897092850715
 30
0.0
  0
VERTEX
  5
169
  8
THROUGH_CUT
 10
71.70827103417268
 20
26.52897092850715
 30
0.0
  0
VERTEX
  5
16A
  8
THROUGH_CUT
 10
70.95827103417268
 20
26.52897092850715
 30
0.0
 42
-1.0
  0
VERTEX
  5
16B
  8
THROUGH_CUT
 10
70.95827103417268
 20
26.90897092850715
 30
0.0
  0
VERTEX
  5
16C
  8
THROUGH_CUT
 10
70.95827103417268
 20
29.14897092850715
 30
0.0
 42
-1.0
  0
VERTEX
  5
16D
  8
THROUGH_CUT
 10
70.95827103417268
 20
29.52897092850715
 30
0.0
  0
VERTEX
  5
16E
  8
THROUGH_CUT
 10
71.70827103417268
 20
29.52897092850715
 30
0.0
  0
VERTEX
  5
16F
  8
THROUGH_CUT
 10
71.70827103417268
 20
45.65397092850715
 30
0.0
  0
VERTEX
  5
170
  8
THROUGH_CUT
 10
60.33327103417268
 20
45.65397092850715
 30
0.0
  0
VERTEX
  5
171
  8
THROUGH_CUT
 10
60.33327103417268
 20
44.90397092850715
 30
0.0
 42
-1.0
  0
VERTEX
  5
172
  8
THROUGH_CUT
 10
59.95327103417269
 20
44.90397092850715
 30
0.0
  0
VERTEX
  5
173
  8
THROUGH_CUT
 10
49.33327103417268
 20
44.90397092850715
 30
0.0
  0
VERTEX
  5
174
  8
THROUGH_CUT
 10
38.71327103417269
 20
44.90397092850715
 30
0.0
 42
-1.0
  0
VERTEX
  5
175
  8
THROUGH_CUT
 10
38.33327103417268
 20
44.90397092850715
 30
0.0
  0
VERTEX
  5
176
  8
THROUGH_CUT
 10
38.33327103417268
 20
45.65397092850715
 30
0.0
  0
VERTEX
  5
177
  8
THROUGH_CUT
 10
27.33327103417268
 20
45.65397092850715
 30
0.0
  0
VERTEX
  5
178
  8
THROUGH_CUT
 10
16.33327103417268
 20
45.65397092850715
 30
0.0
  0
VERTEX
  5
179
  8
THROUGH_CUT
 10
16.33327103417268
 20
44.90397092850715
 30
0.0
 42
-1.0
  0
VERTEX
  5
17A
  8
THROUGH_CUT
 10
15.95327103417269
 20
44.90397092850715
 30
0.0
  0
VERTEX
  5
17B
  8
THROUGH_CUT
 10
5.708271034172673
 20
44.90397092850718
 30
0.0
  0
VERTEX
  5
17C
  8
THROUGH_CUT
 10
5.708271034172684
 20
44.77897092850715
 30
0.0
  0
VERTEX
  5
17D
  8
THROUGH_CUT
 10
5.708271034172684
 20
38.72147092850715
 30
0.0
 42
-1.0
  0
VERTEX
  5
17E
  8
THROUGH_CUT
 10
5.708271034172684
 20
38.34147092850715
 30
0.0
  0
VERTEX
  5
17F
  8
THROUGH_CUT
 10
4.958271034172684
 20
38.34147092850715
 30
0.0
  0
VERTEX
  5
180
  8
THROUGH_CUT
 10
4.958271034172684
 20
31.52897092850715
 30
0.0
  0
VERTEX
  5
181
  8
THROUGH_CUT
 10
5.333271034172684
 20
31.52897092850715
 30
0.0
 42
-1.0
  0
VERTEX
  5
182
  8
THROUGH_CUT
 10
5.333271034172684
 20
31.14897092850715
 30
0.0
  0
VERTEX
  5
183
  8
THROUGH_CUT
 10
5.333271034172684
 20
29.52897092850715
 30
0.0
  0
VERTEX
  5
184
  8
THROUGH_CUT
 10
5.708271034172684
 20
29.52897092850715
 30
0.0
 42
-1.0
  0
VERTEX
  5
185
  8
THROUGH_CUT
 10
5.708271034172684
 20
29.14897092850715
 30
0.0
  0
VERTEX
  5
186
  8
THROUGH_CUT
 10
5.708271034172684
 20
26.90897092850715
 30
0.0
 42
-1.0
  0
VERTEX
  5
187
  8
THROUGH_CUT
 10
5.708271034172684
 20
26.52897092850715
 30
0.0
  0
VERTEX
  5
188
  8
THROUGH_CUT
 10
5.333271034172684
 20
26.52897092850715
 30
0.0
  0
VERTEX
  5
189
  8
THROUGH_CUT
 10
5.333271034172684
 20
24.90897092850715
 30
0.0
 42
-1.0
  0
VERTEX
  5
18A
  8
THROUGH_CUT
 10
5.333271034172684
 20
24.52897092850715
 30
0.0
  0
VERTEX
  5
18B
  8
THROUGH_CUT
 10
4.958271034172684
 20
24.52897092850715
 30
0.0
  0
VERTEX
  5
18C
  8
THROUGH_CUT
 10
4.958271034172684
 20
17.71647092850715
 30
0.0
  0
VERTEX
  5
18D
  8
THROUGH_CUT
 10
5.708271034172684
 20
17.71647092850715
 30
0.0
 42
-1.0
  0
VERTEX
  5
18E
  8
THROUGH_CUT
 10
5.708271034172684
 20
17.33647092850715
 30
0.0
  0
SEQEND
  5
18F
  8
THROUGH_CUT
  0
POLYLINE
  5
4A
  8
CUT_HALFWAY_THROUGH
 66
     1
 10
0.0
 20
0.0
 30
0.0
  0
VERTEX
  5
190
  8
CUT_HALFWAY_THROUGH
 10
85.42288697564
 20
8.973125
 30
0.0
  0
VERTEX
  5
191
  8
CUT_HALFWAY_THROUGH
 10
78.670148027486
 20
6.878533895459
 30
0.0
 42
0.7368230982960051
  0
VERTEX
  5
192
  8
CUT_HALFWAY_THROUGH
 10
78.670162922628
 20
4.371371810735
 30
0.0
  0
VERTEX
  5
193
  8
CUT_HALFWAY_THROUGH
 10
85.42288797564
 20
2.276873
 30
0.0
  0
VERTEX
  5
194
  8
CUT_HALFWAY_THROUGH
 10
85.32737597564
 20
2.336122
 30
0.0
  0
VERTEX
  5
195
  8
CUT_HALFWAY_THROUGH
 10
91.889082891467
 20
4.371372791684
 30
0.0
 42
0.7368231252250029
  0
VERTEX
  5
196
  8
CUT_HALFWAY_THROUGH
 10
91.889097720966
 20
6.878532934872
 30
0.0
  0
VERTEX
  5
197
  8
CUT_HALFWAY_THROUGH
 10
85.32737597564
 20
8.913873
 30
0.0
  0
VERTEX
  5
198
  8
CUT_HALFWAY_THROUGH
 10
85.32737597564
 20
8.599772
 30
0.0
  0
VERTEX
  5
199
  8
CUT_HALFWAY_THROUGH
 10
91.800219888176
 20
6.59200078346
 30
0.0
 42
-0.7368231252250046
  0
VERTEX
  5
19A
  8
CUT_HALFWAY_THROUGH
 10
91.800208233993
 20
4.65790596274
 30
0.0
  0
VERTEX
  5
19B
  8
CUT_HALFWAY_THROUGH
 10
85.27962097564
 20
2.635409
 30
0.0
  0
VERTEX
  5
19C
  8
CUT_HALFWAY_THROUGH
 10
78.759037077602
 20
4.657904982567
 30
0.0
 42
-0.7368230982959912
  0
VERTEX
  5
19D
  8
CUT_HALFWAY_THROUGH
 10
78.759025872779
 20
6.592001747926
 30
0.0
  0
VERTEX
  5
19E
  8
CUT_HALFWAY_THROUGH
 10
85.27962097564
 20
8.614585
 30
0.0
  0
VERTEX
  5
19F
  8
CUT_HALFWAY_THROUGH
 10
85.27962097564
 20
8.300484
 30
0.0
  0
VERTEX
  5
1A0
  8
CUT_HALFWAY_THROUGH
 10
78.847903218071
 20
6.305469100392
 30
0.0
 42
0.7368230982960071
  0
VERTEX
  5
1A1
  8
CUT_HALFWAY_THROUGH
 10
78.847911489513
 20
4.944438308798
 30
0.0
  0
VERTEX
  5
1A2
  8
CUT_HALFWAY_THROUGH
 10
85.27962097564
 20
2.949509
 30
0.0
  0
VERTEX
  5
1A3
  8
CUT_HALFWAY_THROUGH
 10
91.711334076518
 20
4.944439633797
 30
0.0
 42
0.7368231252249986
  0
VERTEX
  5
1A4
  8
CUT_HALFWAY_THROUGH
 10
91.711342135133
 20
6.305468264097
 30
0.0
  0
VERTEX
  5
1A5
  8
CUT_HALFWAY_THROUGH
 10
85.32737597564
 20
8.285671
 30
0.0
  0
VERTEX
  5
1A6
  8
CUT_HALFWAY_THROUGH
 10
85.32737597564
 20
7.971571
 30
0.0
  0
VERTEX
  5
1A7
  8
CUT_HALFWAY_THROUGH
 10
91.622464222597
 20
6.018935980637
 30
0.0
 42
-0.7368231252250123
  0
VERTEX
  5
1A8
  8
CUT_HALFWAY_THROUGH
 10
91.622459919044
 20
5.230972804853
 30
0.0
  0
VERTEX
  5
1A9
  8
CUT_HALFWAY_THROUGH
 10
85.27962097564
 20
3.263609
 30
0.0
  0
VERTEX
  5
1AA
  8
CUT_HALFWAY_THROUGH
 10
78.93678588755
 20
5.230971826231
 30
0.0
 42
-0.736823098295968
  0
VERTEX
  5
1AB
  8
CUT_HALFWAY_THROUGH
 10
78.936781063363
 20
6.018936952859
 30
0.0
  0
VERTEX
  5
1AC
  8
CUT_HALFWAY_THROUGH
 10
85.27962097564
 20
7.986384
 30
0.0
  0
VERTEX
  5
1AD
  8
CUT_HALFWAY_THROUGH
 10
85.27962097564
 20
7.672283
 30
0.0
  0
VERTEX
  5
1AE
  8
CUT_HALFWAY_THROUGH
 10
79.025658908655
 20
5.732404805325
 30
0.0
 42
0.7368230982959841
  0
VERTEX
  5
1AF
  8
CUT_HALFWAY_THROUGH
 10
79.025660042525
 20
5.517504998063
 30
0.0
  0
VERTEX
  5
1B0
  8
CUT_HALFWAY_THROUGH
 10
85.27962097564
 20
3.577708
 30
0.0
  0
VERTEX
  5
1B1
  8
CUT_HALFWAY_THROUGH
 10
91.533585261569
 20
5.517505975909
 30
0.0
 42
0.7368231252247275
  0
VERTEX
  5
1B2
  8
CUT_HALFWAY_THROUGH
 10
91.533586889807
 20
5.732403829225
 30
0.0
  0
VERTEX
  5
1B3
  8
CUT_HALFWAY_THROUGH
 10
85.32737597564
 20
7.65747
 30
0.0
  0
VERTEX
  5
1B4
  8
CUT_HALFWAY_THROUGH
 10
85.32737597564
 20
7.343369
 30
0.0
  0
VERTEX
  5
1B5
  8
CUT_HALFWAY_THROUGH
 10
90.86734997564
 20
5.624959
 30
0.0
  0
VERTEX
  5
1B6
  8
CUT_HALFWAY_THROUGH
 10
85.27962097564
 20
3.891808
 30
0.0
  0
VERTEX
  5
1B7
  8
CUT_HALFWAY_THROUGH
 10
79.69189197564
 20
5.624959
 30
0.0
  0
VERTEX
  5
1B8
  8
CUT_HALFWAY_THROUGH
 10
85.27962097564
 20
7.358182
 30
0.0
  0
VERTEX
  5
1B9
  8
CUT_HALFWAY_THROUGH
 10
85.27962097564
 20
7.044082
 30
0.0
  0
VERTEX
  5
1BA
  8
CUT_HALFWAY_THROUGH
 10
80.70453897564
 20
5.624965
 30
0.0
  0
VERTEX
  5
1BB
  8
CUT_HALFWAY_THROUGH
 10
85.27962097564
 20
4.205907
 30
0.0
  0
VERTEX
  5
1BC
  8
CUT_HALFWAY_THROUGH
 10
89.85470297564
 20
5.624965
 30
0.0
  0
VERTEX
  5
1BD
  8
CUT_HALFWAY_THROUGH
 10
85.32737597564
 20
7.029269
 30
0.0
  0
VERTEX
  5
1BE
  8
CUT_HALFWAY_THROUGH
 10
85.32737597564
 20
6.715168
 30
0.0
  0
VERTEX
  5
1BF
  8
CUT_HALFWAY_THROUGH
 10
88.84205697564
 20
5.624971
 30
0.0
  0
VERTEX
  5
1C0
  8
CUT_HALFWAY_THROUGH
 10
85.27962097564
 20
4.520007
 30
0.0
  0
VERTEX
  5
1C1
  8
CUT_HALFWAY_THROUGH
 10
81.71718597564
 20
5.624971
 30
0.0
  0
VERTEX
  5
1C2
  8
CUT_HALFWAY_THROUGH
 10
85.27962097564
 20
6.729981
 30
0.0
  0
VERTEX
  5
1C3
  8
CUT_HALFWAY_THROUGH
 10
85.27962097564
 20
6.41588
 30
0.0
  0
VERTEX
  5
1C4
  8
CUT_HALFWAY_THROUGH
 10
82.72983197564
 20
5.624977
 30
0.0
  0
VERTEX
  5
1C5
  8
CUT_HALFWAY_THROUGH
 10
85.27962097564
 20
4.834106
 30
0.0
  0
VERTEX
  5
1C6
  8
CUT_HALFWAY_THROUGH
 10
87.82940997564
 20
5.624977
 30
0.0
  0
VERTEX
  5
1C7
  8
CUT_HALFWAY_THROUGH
 10
85.32737597564
 20
6.401067
 30
0.0
  0
VERTEX
  5
1C8
  8
CUT_HALFWAY_THROUGH
 10
85.32737597564
 20
6.086966
 30
0.0
  0
VERTEX
  5
1C9
  8
CUT_HALFWAY_THROUGH
 10
86.81676297564
 20
5.624983
 30
0.0
  0
VERTEX
  5
1CA
  8
CUT_HALFWAY_THROUGH
 10
85.27962097564
 20
5.148206
 30
0.0
  0
VERTEX
  5
1CB
  8
CUT_HALFWAY_THROUGH
 10
83.74247897564
 20
5.624983
 30
0.0
  0
VERTEX
  5
1CC
  8
CUT_HALFWAY_THROUGH
 10
85.27962097564
 20
6.101779
 30
0.0
  0
VERTEX
  5
1CD
  8
CUT_HALFWAY_THROUGH
 10
85.27962097564
 20
5.787679
 30
0.0
  0
VERTEX
  5
1CE
  8
CUT_HALFWAY_THROUGH
 10
84.75512597564
 20
5.624989
 30
0.0
  0
VERTEX
  5
1CF
  8
CUT_HALFWAY_THROUGH
 10
85.27962097564
 20
5.462306
 30
0.0
  0
VERTEX
  5
1D0
  8
CUT_HALFWAY_THROUGH
 10
85.80411597564
 20
5.624989
 30
0.0
  0
VERTEX
  5
1D1
  8
CUT_HALFWAY_THROUGH
 10
85.32737597564
 20
5.772866
 30
0.0
  0
VERTEX
  5
1D2
  8
CUT_HALFWAY_THROUGH
 10
91.50025797564
 20
5.624955
 30
0.0
  0
VERTEX
  5
1D3
  8
CUT_HALFWAY_THROUGH
 10
79.05898797564
 20
5.624955
 30
0.0
  0
SEQEND
  5
1D4
  8
CUT_HALFWAY_THROUGH
  0
POLYLINE
  5
4C
  8
RECESS_FOR_SCREWS
 66
     1
 10
0.0
 20
0.0
 30
0.0
 70
     1
  0
VERTEX
  5
1D5
  8
RECESS_FOR_SCREWS
 10
27.33327103417268
 20
14.70397092850715
 30
0.0
 42
-0.4142135623730951
  0
VERTEX
  5
1D6
  8
RECESS_FOR_SCREWS
 10
27.13327103417268
 20
14.90397092850715
 30
0.0
 42
-0.4142135623730951
  0
VERTEX
  5
1D7
  8
RECESS_FOR_SCREWS
 10
27.33327103417268
 20
15.10397092850715
 30
0.0
 42
-0.4142135623730951
  0
VERTEX
  5
1D8
  8
RECESS_FOR_SCREWS
 10
27.53327103417269
 20
14.90397092850715
 30
0.0
 42
-0.4142135623730951
  0
SEQEND
  5
1D9
  8
RECESS_FOR_SCREWS
  0
POLYLINE
  5
4D
  8
RECESS_FOR_SCREWS
 66
     1
 10
0.0
 20
0.0
 30
0.0
 70
     1
  0
VERTEX
  5
1DA
  8
RECESS_FOR_SCREWS
 10
27.33327103417268
 20
22.45397092850715
 30
0.0
 42
-0.4142135623730951
  0
VERTEX
  5
1DB
  8
RECESS_FOR_SCREWS
 10
27.13327103417268
 20
22.65397092850715
 30
0.0
 42
-0.4142135623730951
  0
VERTEX
  5
1DC
  8
RECESS_FOR_SCREWS
 10
27.33327103417268
 20
22.85397092850715
 30
0.0
 42
-0.4142135623730951
  0
VERTEX
  5
1DD
  8
RECESS_FOR_SCREWS
 10
27.53327103417269
 20
22.65397092850715
 30
0.0
 42
-0.4142135623730951
  0
SEQEND
  5
1DE
  8
RECESS_FOR_SCREWS
  0
POLYLINE
  5
4E
  8
RECESS_FOR_SCREWS
 66
     1
 10
0.0
 20
0.0
 30
0.0
 70
     1
  0
VERTEX
  5
1DF
  8
RECESS_FOR_SCREWS
 10
27.33327103417268
 20
33.36022092850715
 30
0.0
 42
-0.4142135623730951
  0
VERTEX
  5
1E0
  8
RECESS_FOR_SCREWS
 10
27.13327103417268
 20
33.56022092850715
 30
0.0
 42
-0.4142135623730951
  0
VERTEX
  5
1E1
  8
RECESS_FOR_SCREWS
 10
27.33327103417268
 20
33.76022092850715
 30
0.0
 42
-0.4142135623730951
  0
VERTEX
  5
1E2
  8
RECESS_FOR_SCREWS
 10
27.53327103417269
 20
33.56022092850715
 30
0.0
 42
-0.4142135623730951
  0
SEQEND
  5
1E3
  8
RECESS_FOR_SCREWS
  0
POLYLINE
  5
4F
  8
RECESS_FOR_SCREWS
 66
     1
 10
0.0
 20
0.0
 30
0.0
 70
     1
  0
VERTEX
  5
1E4
  8
RECESS_FOR_SCREWS
 10
27.33327103417268
 20
41.42272092850715
 30
0.0
 42
-0.4142135623730951
  0
VERTEX
  5
1E5
  8
RECESS_FOR_SCREWS
 10
27.13327103417268
 20
41.62272092850715
 30
0.0
 42
-0.4142135623730951
  0
VERTEX
  5
1E6
  8
RECESS_FOR_SCREWS
 10
27.33327103417268
 20
41.82272092850715
 30
0.0
 42
-0.4142135623730951
  0
VERTEX
  5
1E7
  8
RECESS_FOR_SCREWS
 10
27.53327103417269
 20
41.62272092850715
 30
0.0
 42
-0.4142135623730951
  0
SEQEND
  5
1E8
  8
RECESS_FOR_SCREWS
  0
POLYLINE
  5
50
  8
RECESS_FOR_SCREWS
 66
     1
 10
0.0
 20
0.0
 30
0.0
 70
     1
  0
VERTEX
  5
1E9
  8
RECESS_FOR_SCREWS
 10
49.33327103417268
 20
40.86022092850715
 30
0.0
 42
-0.4142135623730951
  0
VERTEX
  5
1EA
  8
RECESS_FOR_SCREWS
 10
49.13327103417268
 20
41.06022092850715
 30
0.0
 42
-0.4142135623730951
  0
VERTEX
  5
1EB
  8
RECESS_FOR_SCREWS
 10
49.33327103417268
 20
41.26022092850715
 30
0.0
 42
-0.4142135623730951
  0
VERTEX
  5
1EC
  8
RECESS_FOR_SCREWS
 10
49.53327103417269
 20
41.06022092850715
 30
0.0
 42
-0.4142135623730951
  0
SEQEND
  5
1ED
  8
RECESS_FOR_SCREWS
  0
POLYLINE
  5
51
  8
RECESS_FOR_SCREWS
 66
     1
 10
0.0
 20
0.0
 30
0.0
 70
     1
  0
VERTEX
  5
1EE
  8
RECESS_FOR_SCREWS
 10
49.33327103417268
 20
33.17272092850715
 30
0.0
 42
-0.4142135623730951
  0
VERTEX
  5
1EF
  8
RECESS_FOR_SCREWS
 10
49.13327103417268
 20
33.37272092850715
 30
0.0
 42
-0.4142135623730951
  0
VERTEX
  5
1F0
  8
RECESS_FOR_SCREWS
 10
49.33327103417268
 20
33.57272092850715
 30
0.0
 42
-0.4142135623730951
  0
VERTEX
  5
1F1
  8
RECESS_FOR_SCREWS
 10
49.53327103417269
 20
33.37272092850715
 30
0.0
 42
-0.4142135623730951
  0
SEQEND
  5
1F2
  8
RECESS_FOR_SCREWS
  0
POLYLINE
  5
52
  8
RECESS_FOR_SCREWS
 66
     1
 10
0.0
 20
0.0
 30
0.0
 70
     1
  0
VERTEX
  5
1F3
  8
RECESS_FOR_SCREWS
 10
49.33327103417268
 20
14.70397092850715
 30
0.0
 42
-0.4142135623730951
  0
VERTEX
  5
1F4
  8
RECESS_FOR_SCREWS
 10
49.13327103417268
 20
14.90397092850715
 30
0.0
 42
-0.4142135623730951
  0
VERTEX
  5
1F5
  8
RECESS_FOR_SCREWS
 10
49.33327103417268
 20
15.10397092850715
 30
0.0
 42
-0.4142135623730951
  0
VERTEX
  5
1F6
  8
RECESS_FOR_SCREWS
 10
49.53327103417269
 20
14.90397092850715
 30
0.0
 42
-0.4142135623730951
  0
SEQEND
  5
1F7
  8
RECESS_FOR_SCREWS
  0
POLYLINE
  5
53
  8
RECESS_FOR_SCREWS
 66
     1
 10
0.0
 20
0.0
 30
0.0
 70
     1
  0
VERTEX
  5
1F8
  8
RECESS_FOR_SCREWS
 10
49.33327103417268
 20
22.45397092850715
 30
0.0
 42
-0.4142135623730951
  0
VERTEX
  5
1F9
  8
RECESS_FOR_SCREWS
 10
49.13327103417268
 20
22.65397092850715
 30
0.0
 42
-0.4142135623730951
  0
VERTEX
  5
1FA
  8
RECESS_FOR_SCREWS
 10
49.33327103417268
 20
22.85397092850715
 30
0.0
 42
-0.4142135623730951
  0
VERTEX
  5
1FB
  8
RECESS_FOR_SCREWS
 10
49.53327103417269
 20
22.65397092850715
 30
0.0
 42
-0.4142135623730951
  0
SEQEND
  5
1FC
  8
RECESS_FOR_SCREWS
  0
POLYLINE
  5
54
  8
RECESS_FOR_SCREWS
 66
     1
 10
0.0
 20
0.0
 30
0.0
 70
     1
  0
VERTEX
  5
1FD
  8
RECESS_FOR_SCREWS
 10
71.33327103417268
 20
14.70397092850715
 30
0.0
 42
-0.4142135623730951
  0
VERTEX
  5
1FE
  8
RECESS_FOR_SCREWS
 10
71.13327103417268
 20
14.90397092850715
 30
0.0
 42
-0.4142135623730951
  0
VERTEX
  5
1FF
  8
RECESS_FOR_SCREWS
 10
71.33327103417268
 20
15.10397092850715
 30
0.0
 42
-0.4142135623730951
  0
VERTEX
  5
200
  8
RECESS_FOR_SCREWS
 10
71.53327103417269
 20
14.90397092850715
 30
0.0
 42
-0.4142135623730951
  0
SEQEND
  5
201
  8
RECESS_FOR_SCREWS
  0
POLYLINE
  5
55
  8
RECESS_FOR_SCREWS
 66
     1
 10
0.0
 20
0.0
 30
0.0
 70
     1
  0
VERTEX
  5
202
  8
RECESS_FOR_SCREWS
 10
71.33327103417268
 20
22.45397092850715
 30
0.0
 42
-0.4142135623730951
  0
VERTEX
  5
203
  8
RECESS_FOR_SCREWS
 10
71.13327103417268
 20
22.65397092850715
 30
0.0
 42
-0.4142135623730951
  0
VERTEX
  5
204
  8
RECESS_FOR_SCREWS
 10
71.33327103417268
 20
22.85397092850715
 30
0.0
 42
-0.4142135623730951
  0
VERTEX
  5
205
  8
RECESS_FOR_SCREWS
 10
71.53327103417269
 20
22.65397092850715
 30
0.0
 42
-0.4142135623730951
  0
SEQEND
  5
206
  8
RECESS_FOR_SCREWS
  0
POLYLINE
  5
56
  8
RECESS_FOR_SCREWS
 66
     1
 10
0.0
 20
0.0
 30
0.0
 70
     1
  0
VERTEX
  5
207
  8
RECESS_FOR_SCREWS
 10
71.33327103417268
 20
33.36022092850715
 30
0.0
 42
-0.4142135623730951
  0
VERTEX
  5
208
  8
RECESS_FOR_SCREWS
 10
71.13327103417268
 20
33.56022092850715
 30
0.0
 42
-0.4142135623730951
  0
VERTEX
  5
209
  8
RECESS_FOR_SCREWS
 10
71.33327103417268
 20
33.76022092850715
 30
0.0
 42
-0.4142135623730951
  0
VERTEX
  5
20A
  8
RECESS_FOR_SCREWS
 10
71.53327103417269
 20
33.56022092850715
 30
0.0
 42
-0.4142135623730951
  0
SEQEND
  5
20B
  8
RECESS_FOR_SCREWS
  0
POLYLINE
  5
57
  8
RECESS_FOR_SCREWS
 66
     1
 10
0.0
 20
0.0
 30
0.0
 70
     1
  0
VERTEX
  5
20C
  8
RECESS_FOR_SCREWS
 10
71.33327103417268
 20
41.42272092850715
 30
0.0
 42
-0.4142135623730951
  0
VERTEX
  5
20D
  8
RECESS_FOR_SCREWS
 10
71.13327103417268
 20
41.62272092850715
 30
0.0
 42
-0.4142135623730951
  0
VERTEX
  5
20E
  8
RECESS_FOR_SCREWS
 10
71.33327103417268
 20
41.82272092850715
 30
0.0
 42
-0.4142135623730951
  0
VERTEX
  5
20F
  8
RECESS_FOR_SCREWS
 10
71.53327103417269
 20
41.62272092850715
 30
0.0
 42
-0.4142135623730951
  0
SEQEND
  5
210
  8
RECESS_FOR_SCREWS
  0
POLYLINE
  5
58
  8
RECESS_FOR_SCREWS
 66
     1
 10
0.0
 20
0.0
 30
0.0
 70
     1
  0
VERTEX
  5
211
  8
RECESS_FOR_SCREWS
 10
32.83327103417268
 20
45.07897092850715
 30
0.0
 42
-0.4142135623730951
  0
VERTEX
  5
212
  8
RECESS_FOR_SCREWS
 10
32.63327103417268
 20
45.27897092850715
 30
0.0
 42
-0.4142135623730951
  0
VERTEX
  5
213
  8
RECESS_FOR_SCREWS
 10
32.83327103417268
 20
45.47897092850715
 30
0.0
 42
-0.4142135623730951
  0
VERTEX
  5
214
  8
RECESS_FOR_SCREWS
 10
33.03327103417269
 20
45.27897092850715
 30
0.0
 42
-0.4142135623730951
  0
SEQEND
  5
215
  8
RECESS_FOR_SCREWS
  0
POLYLINE
  5
59
  8
RECESS_FOR_SCREWS
 66
     1
 10
0.0
 20
0.0
 30
0.0
 70
     1
  0
VERTEX
  5
216
  8
RECESS_FOR_SCREWS
 10
21.83327103417268
 20
45.07897092850715
 30
0.0
 42
-0.4142135623730951
  0
VERTEX
  5
217
  8
RECESS_FOR_SCREWS
 10
21.63327103417268
 20
45.27897092850715
 30
0.0
 42
-0.4142135623730951
  0
VERTEX
  5
218
  8
RECESS_FOR_SCREWS
 10
21.83327103417268
 20
45.47897092850715
 30
0.0
 42
-0.4142135623730951
  0
VERTEX
  5
219
  8
RECESS_FOR_SCREWS
 10
22.03327103417269
 20
45.27897092850715
 30
0.0
 42
-0.4142135623730951
  0
SEQEND
  5
21A
  8
RECESS_FOR_SCREWS
  0
POLYLINE
  5
5A
  8
RECESS_FOR_SCREWS
 66
     1
 10
0.0
 20
0.0
 30
0.0
 70
     1
  0
VERTEX
  5
21B
  8
RECESS_FOR_SCREWS
 10
63.17702103417268
 20
45.07897092850715
 30
0.0
 42
-0.4142135623730951
  0
VERTEX
  5
21C
  8
RECESS_FOR_SCREWS
 10
62.97702103417268
 20
45.27897092850715
 30
0.0
 42
-0.4142135623730951
  0
VERTEX
  5
21D
  8
RECESS_FOR_SCREWS
 10
63.17702103417268
 20
45.47897092850715
 30
0.0
 42
-0.4142135623730951
  0
VERTEX
  5
21E
  8
RECESS_FOR_SCREWS
 10
63.37702103417269
 20
45.27897092850715
 30
0.0
 42
-0.4142135623730951
  0
SEQEND
  5
21F
  8
RECESS_FOR_SCREWS
  0
POLYLINE
  5
5B
  8
RECESS_FOR_SCREWS
 66
     1
 10
0.0
 20
0.0
 30
0.0
 70
     1
  0
VERTEX
  5
220
  8
RECESS_FOR_SCREWS
 10
68.86452103417268
 20
45.07897092850715
 30
0.0
 42
-0.4142135623730951
  0
VERTEX
  5
221
  8
RECESS_FOR_SCREWS
 10
68.66452103417268
 20
45.27897092850715
 30
0.0
 42
-0.4142135623730951
  0
VERTEX
  5
222
  8
RECESS_FOR_SCREWS
 10
68.86452103417268
 20
45.47897092850715
 30
0.0
 42
-0.4142135623730951
  0
VERTEX
  5
223
  8
RECESS_FOR_SCREWS
 10
69.06452103417269
 20
45.27897092850715
 30
0.0
 42
-0.4142135623730951
  0
SEQEND
  5
224
  8
RECESS_FOR_SCREWS
  0
POLYLINE
  5
5C
  8
RECESS_FOR_SCREWS
 66
     1
 10
0.0
 20
0.0
 30
0.0
 70
     1
  0
VERTEX
  5
225
  8
RECESS_FOR_SCREWS
 10
5.333271034172684
 20
22.45397092850715
 30
0.0
 42
-0.4142135623730951
  0
VERTEX
  5
226
  8
RECESS_FOR_SCREWS
 10
5.133271034172685
 20
22.65397092850715
 30
0.0
 42
-0.4142135623730951
  0
VERTEX
  5
227
  8
RECESS_FOR_SCREWS
 10
5.333271034172684
 20
22.85397092850715
 30
0.0
 42
-0.4142135623730951
  0
VERTEX
  5
228
  8
RECESS_FOR_SCREWS
 10
5.533271034172683
 20
22.65397092850715
 30
0.0
 42
-0.4142135623730951
  0
SEQEND
  5
229
  8
RECESS_FOR_SCREWS
  0
POLYLINE
  5
5D
  8
RECESS_FOR_SCREWS
 66
     1
 10
0.0
 20
0.0
 30
0.0
 70
     1
  0
VERTEX
  5
22A
  8
RECESS_FOR_SCREWS
 10
5.333271034172684
 20
33.37262092850715
 30
0.0
 42
-0.4142135623730951
  0
VERTEX
  5
22B
  8
RECESS_FOR_SCREWS
 10
5.333171034172684
 20
33.37272092850715
 30
0.0
 42
-0.4142135623730951
  0
VERTEX
  5
22C
  8
RECESS_FOR_SCREWS
 10
5.333271034172684
 20
33.37282092850715
 30
0.0
 42
-0.4142135623730951
  0
VERTEX
  5
22D
  8
RECESS_FOR_SCREWS
 10
5.333371034172684
 20
33.37272092850715
 30
0.0
 42
-0.4142135623730951
  0
SEQEND
  5
22E
  8
RECESS_FOR_SCREWS
  0
POLYLINE
  5
5E
  8
RECESS_FOR_SCREWS
 66
     1
 10
0.0
 20
0.0
 30
0.0
 70
     1
  0
VERTEX
  5
22F
  8
RECESS_FOR_SCREWS
 10
5.333271034172684
 20
33.17262092850716
 30
0.0
 42
-0.4142135623730951
  0
VERTEX
  5
230
  8
RECESS_FOR_SCREWS
 10
5.133271034172685
 20
33.37262092850715
 30
0.0
 42
-0.4142135623730951
  0
VERTEX
  5
231
  8
RECESS_FOR_SCREWS
 10
5.333271034172684
 20
33.57262092850715
 30
0.0
 42
-0.4142135623730951
  0
VERTEX
  5
232
  8
RECESS_FOR_SCREWS
 10
5.533271034172683
 20
33.37262092850715
 30
0.0
 42
-0.4142135623730951
  0
SEQEND
  5
233
  8
RECESS_FOR_SCREWS
  0
POLYLINE
  5
60
  8
MARK_IN_POCKET
 66
     1
 10
0.0
 20
0.0
 30
0.0
 70
     1
  0
VERTEX
  5
234
  8
MARK_IN_POCKET
 10
85.27962097564
 20
6.3749985
 30
0.0
 42
0.4142135623730951
  0
VERTEX
  5
235
  8
MARK_IN_POCKET
 10
84.52962097564
 20
5.6249985
 30
0.0
 42
0.4142135623730951
  0
VERTEX
  5
236
  8
MARK_IN_POCKET
 10
85.27962097564
 20
4.8749985
 30
0.0
 42
0.4142135623730951
  0
VERTEX
  5
237
  8
MARK_IN_POCKET
 10
86.02962097564
 20
5.6249985
 30
0.0
 42
0.4142135623730951
  0
SEQEND
  5
238
  8
MARK_IN_POCKET
  0
POLYLINE
  5
61
  8
MARK_IN_POCKET
 66
     1
 10
0.0
 20
0.0
 30
0.0
  0
VERTEX
  5
239
  8
MARK_IN_POCKET
 10
10.47449955237242
 20
13.52579886601015
 30
0.0
  0
VERTEX
  5
23A
  8
MARK_IN_POCKET
 10
10.4390285193211
 20
13.5347563444435
 30
0.0
  0
VERTEX
  5
23B
  8
MARK_IN_POCKET
 10
10.40389346325084
 20
13.54411266011768
 30
0.0
  0
VERTEX
  5
23C
  8
MARK_IN_POCKET
 10
10.36910150821409
 20
13.55386330071598
 30
0.0
  0
VERTEX
  5
23D
  8
MARK_IN_POCKET
 10
10.33465977826332
 20
13.56400375392168
 30
0.0
  0
VERTEX
  5
23E
  8
MARK_IN_POCKET
 10
10.30057539745096
 20
13.57452950741805
 30
0.0
  0
VERTEX
  5
23F
  8
MARK_IN_POCKET
 10
10.26685548982949
 20
13.58543604888836
 30
0.0
  0
VERTEX
  5
240
  8
MARK_IN_POCKET
 10
10.23350717945135
 20
13.5967188660159
 30
0.0
  0
VERTEX
  5
241
  8
MARK_IN_POCKET
 10
10.200537590369
 20
13.60837344648395
 30
0.0
  0
VERTEX
  5
242
  8
MARK_IN_POCKET
 10
10.16795384663489
 20
13.62039527797577
 30
0.0
  0
VERTEX
  5
243
  8
MARK_IN_POCKET
 10
10.13576307230148
 20
13.63277984817466
 30
0.0
  0
VERTEX
  5
244
  8
MARK_IN_POCKET
 10
10.10397239142122
 20
13.64552264476388
 30
0.0
  0
VERTEX
  5
245
  8
MARK_IN_POCKET
 10
10.07258892804657
 20
13.65861915542671
 30
0.0
  0
VERTEX
  5
246
  8
MARK_IN_POCKET
 10
10.04161980622998
 20
13.67206486784644
 30
0.0
  0
VERTEX
  5
247
  8
MARK_IN_POCKET
 10
10.0110721500239
 20
13.68585526970632
 30
0.0
  0
VERTEX
  5
248
  8
MARK_IN_POCKET
 10
9.980953083480797
 20
13.69998584868966
 30
0.0
  0
VERTEX
  5
249
  8
MARK_IN_POCKET
 10
9.951269730653113
 20
13.71445209247971
 30
0.0
  0
VERTEX
  5
24A
  8
MARK_IN_POCKET
 10
9.922029215593309
 20
13.72924948875977
 30
0.0
  0
VERTEX
  5
24B
  8
MARK_IN_POCKET
 10
9.893238662353838
 20
13.7443735252131
 30
0.0
  0
VERTEX
  5
24C
  8
MARK_IN_POCKET
 10
9.864905194987156
 20
13.75981968952299
 30
0.0
  0
VERTEX
  5
24D
  8
MARK_IN_POCKET
 10
9.837035937545718
 20
13.77558346937271
 30
0.0
  0
VERTEX
  5
24E
  8
MARK_IN_POCKET
 10
9.809638014081973
 20
13.79166035244554
 30
0.0
  0
VERTEX
  5
24F
  8
MARK_IN_POCKET
 10
9.782718548648383
 20
13.80804582642475
 30
0.0
  0
VERTEX
  5
250
  8
MARK_IN_POCKET
 10
9.756284665297397
 20
13.82473537899362
 30
0.0
  0
VERTEX
  5
251
  8
MARK_IN_POCKET
 10
9.730343488081473
 20
13.84172449783544
 30
0.0
  0
VERTEX
  5
252
  8
MARK_IN_POCKET
 10
9.704902141053065
 20
13.85900867063348
 30
0.0
  0
VERTEX
  5
253
  8
MARK_IN_POCKET
 10
9.679967748264627
 20
13.87658338507101
 30
0.0
  0
VERTEX
  5
254
  8
MARK_IN_POCKET
 10
9.65554743376861
 20
13.89444412883132
 30
0.0
  0
VERTEX
  5
255
  8
MARK_IN_POCKET
 10
9.631648321617476
 20
13.91258638959767
 30
0.0
  0
VERTEX
  5
256
  8
MARK_IN_POCKET
 10
9.608277535863675
 20
13.93100565505335
 30
0.0
  0
VERTEX
  5
257
  8
MARK_IN_POCKET
 10
9.585442200559662
 20
13.94969741288164
 30
0.0
  0
VERTEX
  5
258
  8
MARK_IN_POCKET
 10
9.563149439757888
 20
13.96865715076581
 30
0.0
  0
VERTEX
  5
259
  8
MARK_IN_POCKET
 10
9.541406377510814
 20
13.98788035638913
 30
0.0
  0
VERTEX
  5
25A
  8
MARK_IN_POCKET
 10
9.520220137870893
 20
14.0073625174349
 30
0.0
  0
VERTEX
  5
25B
  8
MARK_IN_POCKET
 10
9.499597844890575
 20
14.02709912158638
 30
0.0
  0
VERTEX
  5
25C
  8
MARK_IN_POCKET
 10
9.479546622622317
 20
14.04708565652685
 30
0.0
  0
VERTEX
  5
25D
  8
MARK_IN_POCKET
 10
9.460073595118576
 20
14.06731760993959
 30
0.0
  0
VERTEX
  5
25E
  8
MARK_IN_POCKET
 10
9.441185886431805
 20
14.08779046950787
 30
0.0
  0
VERTEX
  5
25F
  8
MARK_IN_POCKET
 10
9.422890620614458
 20
14.10849972291498
 30
0.0
  0
VERTEX
  5
260
  8
MARK_IN_POCKET
 10
9.40519492171899
 20
14.12944085784419
 30
0.0
  0
VERTEX
  5
261
  8
MARK_IN_POCKET
 10
9.388105913797855
 20
14.15060936197878
 30
0.0
  0
VERTEX
  5
262
  8
MARK_IN_POCKET
 10
9.371630720903507
 20
14.17200072300203
 30
0.0
  0
VERTEX
  5
263
  8
MARK_IN_POCKET
 10
9.355776467088402
 20
14.19361042859721
 30
0.0
  0
VERTEX
  5
264
  8
MARK_IN_POCKET
 10
9.340550276404993
 20
14.21543396644759
 30
0.0
  0
VERTEX
  5
265
  8
MARK_IN_POCKET
 10
9.325959272905738
 20
14.23746682423647
 30
0.0
  0
VERTEX
  5
266
  8
MARK_IN_POCKET
 10
9.312010580643086
 20
14.25970448964711
 30
0.0
  0
VERTEX
  5
267
  8
MARK_IN_POCKET
 10
9.298711323669497
 20
14.28214245036279
 30
0.0
  0
VERTEX
  5
268
  8
MARK_IN_POCKET
 10
9.286068626037423
 20
14.3047761940668
 30
0.0
  0
VERTEX
  5
269
  8
MARK_IN_POCKET
 10
9.274089611799319
 20
14.32760120844239
 30
0.0
  0
VERTEX
  5
26A
  8
MARK_IN_POCKET
 10
9.26278140500764
 20
14.35061298117287
 30
0.0
  0
VERTEX
  5
26B
  8
MARK_IN_POCKET
 10
9.252151129714838
 20
14.37380699994149
 30
0.0
  0
VERTEX
  5
26C
  8
MARK_IN_POCKET
 10
9.24220590997337
 20
14.39717875243155
 30
0.0
  0
VERTEX
  5
26D
  8
MARK_IN_POCKET
 10
9.232952869835689
 20
14.42072372632631
 30
0.0
  0
VERTEX
  5
26E
  8
MARK_IN_POCKET
 10
9.22439913335425
 20
14.44443740930905
 30
0.0
  0
VERTEX
  5
26F
  8
MARK_IN_POCKET
 10
9.216551824581508
 20
14.46831528906306
 30
0.0
  0
VERTEX
  5
270
  8
MARK_IN_POCKET
 10
9.209418067569917
 20
14.4923528532716
 30
0.0
  0
VERTEX
  5
271
  8
MARK_IN_POCKET
 10
9.203004986371933
 20
14.51654558961796
 30
0.0
  0
VERTEX
  5
272
  8
MARK_IN_POCKET
 10
9.19731970504001
 20
14.54088898578541
 30
0.0
  0
VERTEX
  5
273
  8
MARK_IN_POCKET
 10
9.192369347626602
 20
14.56537852945724
 30
0.0
  0
VERTEX
  5
274
  8
MARK_IN_POCKET
 10
9.188161038184164
 20
14.59000970831671
 30
0.0
  0
VERTEX
  5
275
  8
MARK_IN_POCKET
 10
9.184701900765148
 20
14.6147780100471
 30
0.0
  0
VERTEX
  5
276
  8
MARK_IN_POCKET
 10
9.181999059422012
 20
14.6396789223317
 30
0.0
  0
VERTEX
  5
277
  8
MARK_IN_POCKET
 10
9.180059638207208
 20
14.66470793285378
 30
0.0
  0
VERTEX
  5
278
  8
MARK_IN_POCKET
 10
9.178890761173193
 20
14.68986052929661
 30
0.0
  0
VERTEX
  5
279
  8
MARK_IN_POCKET
 10
9.178499552372422
 20
14.71513219934348
 30
0.0
  0
VERTEX
  5
27A
  8
MARK_IN_POCKET
 10
9.178667110487964
 20
14.73374400199474
 30
0.0
  0
VERTEX
  5
27B
  8
MARK_IN_POCKET
 10
9.1791684444215
 20
14.75229924685698
 30
0.0
  0
VERTEX
  5
27C
  8
MARK_IN_POCKET
 10
9.180001543553399
 20
14.77079652021328
 30
0.0
  0
VERTEX
  5
27D
  8
MARK_IN_POCKET
 10
9.18116439726403
 20
14.7892344083467
 30
0.0
  0
VERTEX
  5
27E
  8
MARK_IN_POCKET
 10
9.18265499493376
 20
14.80761149754033
 30
0.0
  0
VERTEX
  5
27F
  8
MARK_IN_POCKET
 10
9.184471325942958
 20
14.82592637407722
 30
0.0
  0
VERTEX
  5
280
  8
MARK_IN_POCKET
 10
9.18661137967199
 20
14.84417762424045
 30
0.0
  0
VERTEX
  5
281
  8
MARK_IN_POCKET
 10
9.18907314550123
 20
14.8623638343131
 30
0.0
  0
VERTEX
  5
282
  8
MARK_IN_POCKET
 10
9.191854612811039
 20
14.88048359057823
 30
0.0
  0
VERTEX
  5
283
  8
MARK_IN_POCKET
 10
9.194953770981787
 20
14.89853547931891
 30
0.0
  0
VERTEX
  5
284
  8
MARK_IN_POCKET
 10
9.198368609393844
 20
14.91651808681822
 30
0.0
  0
VERTEX
  5
285
  8
MARK_IN_POCKET
 10
9.202097117427577
 20
14.93442999935922
 30
0.0
  0
VERTEX
  5
286
  8
MARK_IN_POCKET
 10
9.206137284463356
 20
14.952269803225
 30
0.0
  0
VERTEX
  5
287
  8
MARK_IN_POCKET
 10
9.210487099881545
 20
14.97003608469862
 30
0.0
  0
VERTEX
  5
288
  8
MARK_IN_POCKET
 10
9.215144553062515
 20
14.98772743006314
 30
0.0
  0
VERTEX
  5
289
  8
MARK_IN_POCKET
 10
9.220107633386634
 20
15.00534242560165
 30
0.0
  0
VERTEX
  5
28A
  8
MARK_IN_POCKET
 10
9.22537433023427
 20
15.02287965759722
 30
0.0
  0
VERTEX
  5
28B
  8
MARK_IN_POCKET
 10
9.23094263298579
 20
15.04033771233291
 30
0.0
  0
VERTEX
  5
28C
  8
MARK_IN_POCKET
 10
9.236810531021565
 20
15.05771517609179
 30
0.0
  0
VERTEX
  5
28D
  8
MARK_IN_POCKET
 10
9.242976013721961
 20
15.07501063515695
 30
0.0
  0
VERTEX
  5
28E
  8
MARK_IN_POCKET
 10
9.249437070467346
 20
15.09222267581145
 30
0.0
  0
VERTEX
  5
28F
  8
MARK_IN_POCKET
 10
9.256191690638088
 20
15.10934988433835
 30
0.0
  0
VERTEX
  5
290
  8
MARK_IN_POCKET
 10
9.263237863614556
 20
15.12639084702074
 30
0.0
  0
VERTEX
  5
291
  8
MARK_IN_POCKET
 10
9.270573578777118
 20
15.14334415014168
 30
0.0
  0
VERTEX
  5
292
  8
MARK_IN_POCKET
 10
9.286105593181993
 20
15.17698212283151
 30
0.0
  0
VERTEX
  5
293
  8
MARK_IN_POCKET
 10
9.30277164889566
 20
15.21025249267241
 30
0.0
  0
VERTEX
  5
294
  8
MARK_IN_POCKET
 10
9.320555660961066
 20
15.24314394992895
 30
0.0
  0
VERTEX
  5
295
  8
MARK_IN_POCKET
 10
9.339441544421152
 20
15.2756451848657
 30
0.0
  0
VERTEX
  5
296
  8
MARK_IN_POCKET
 10
9.359413214318867
 20
15.30774488774723
 30
0.0
  0
VERTEX
  5
297
  8
MARK_IN_POCKET
 10
9.380454585697152
 20
15.33943174883811
 30
0.0
  0
VERTEX
  5
298
  8
MARK_IN_POCKET
 10
9.402549573598954
 20
15.37069445840292
 30
0.0
  0
VERTEX
  5
299
  8
MARK_IN_POCKET
 10
9.425682093067218
 20
15.40152170670622
 30
0.0
  0
VERTEX
  5
29A
  8
MARK_IN_POCKET
 10
9.44983605914489
 20
15.43190218401259
 30
0.0
  0
VERTEX
  5
29B
  8
MARK_IN_POCKET
 10
9.474995386874912
 20
15.46182458058659
 30
0.0
  0
VERTEX
  5
29C
  8
MARK_IN_POCKET
 10
9.501143991300232
 20
15.4912775866928
 30
0.0
  0
VERTEX
  5
29D
  8
MARK_IN_POCKET
 10
9.52826578746379
 20
15.52024989259579
 30
0.0
  0
VERTEX
  5
29E
  8
MARK_IN_POCKET
 10
9.556344690408537
 20
15.54873018856012
 30
0.0
  0
VERTEX
  5
29F
  8
MARK_IN_POCKET
 10
9.585364615177415
 20
15.57670716485037
 30
0.0
  0
VERTEX
  5
2A0
  8
MARK_IN_POCKET
 10
9.61530947681337
 20
15.60416951173111
 30
0.0
  0
VERTEX
  5
2A1
  8
MARK_IN_POCKET
 10
9.646163190359346
 20
15.63110591946691
 30
0.0
  0
VERTEX
  5
2A2
  8
MARK_IN_POCKET
 10
9.67790967085829
 20
15.65750507832234
 30
0.0
  0
VERTEX
  5
2A3
  8
MARK_IN_POCKET
 10
9.710532833353145
 20
15.68335567856197
 30
0.0
  0
VERTEX
  5
2A4
  8
MARK_IN_POCKET
 10
9.744016592886855
 20
15.70864641045037
 30
0.0
  0
VERTEX
  5
2A5
  8
MARK_IN_POCKET
 10
9.778344864502367
 20
15.73336596425212
 30
0.0
  0
VERTEX
  5
2A6
  8
MARK_IN_POCKET
 10
9.813501563242625
 20
15.75750303023177
 30
0.0
  0
VERTEX
  5
2A7
  8
MARK_IN_POCKET
 10
9.849470604150575
 20
15.78104629865391
 30
0.0
  0
VERTEX
  5
2A8
  8
MARK_IN_POCKET
 10
9.88623590226916
 20
15.80398445978311
 30
0.0
  0
VERTEX
  5
2A9
  8
MARK_IN_POCKET
 10
9.923781372641326
 20
15.82630620388393
 30
0.0
  0
VERTEX
  5
2AA
  8
MARK_IN_POCKET
 10
9.96209093031002
 20
15.84800022122094
 30
0.0
  0
VERTEX
  5
2AB
  8
MARK_IN_POCKET
 10
10.00114849031818
 20
15.86905520205872
 30
0.0
  0
VERTEX
  5
2AC
  8
MARK_IN_POCKET
 10
10.04093796770876
 20
15.88945983666184
 30
0.0
  0
VERTEX
  5
2AD
  8
MARK_IN_POCKET
 10
10.0814432775247
 20
15.90920281529487
 30
0.0
  0
VERTEX
  5
2AE
  8
MARK_IN_POCKET
 10
10.12264833480895
 20
15.92827282822237
 30
0.0
  0
VERTEX
  5
2AF
  8
MARK_IN_POCKET
 10
10.16453705460444
 20
15.94665856570892
 30
0.0
  0
VERTEX
  5
2B0
  8
MARK_IN_POCKET
 10
10.20709335195414
 20
15.96434871801909
 30
0.0
  0
VERTEX
  5
2B1
  8
MARK_IN_POCKET
 10
10.25030114190097
 20
15.98133197541746
 30
0.0
  0
VERTEX
  5
2B2
  8
MARK_IN_POCKET
 10
10.29414433948789
 20
15.99759702816858
 30
0.0
  0
VERTEX
  5
2B3
  8
MARK_IN_POCKET
 10
10.33860685975784
 20
16.01313256653703
 30
0.0
  0
VERTEX
  5
2B4
  8
MARK_IN_POCKET
 10
10.38367261775376
 20
16.02792728078739
 30
0.0
  0
VERTEX
  5
2B5
  8
MARK_IN_POCKET
 10
10.42932552851861
 20
16.04196986118422
 30
0.0
  0
VERTEX
  5
2B6
  8
MARK_IN_POCKET
 10
10.47554950709532
 20
16.05524899799209
 30
0.0
  0
VERTEX
  5
2B7
  8
MARK_IN_POCKET
 10
10.52232846852684
 20
16.06775338147558
 30
0.0
  0
VERTEX
  5
2B8
  8
MARK_IN_POCKET
 10
10.56964632785612
 20
16.07947170189926
 30
0.0
  0
VERTEX
  5
2B9
  8
MARK_IN_POCKET
 10
10.6174870001261
 20
16.09039264952769
 30
0.0
  0
VERTEX
  5
2BA
  8
MARK_IN_POCKET
 10
10.66583440037972
 20
16.10050491462544
 30
0.0
  0
VERTEX
  5
2BB
  8
MARK_IN_POCKET
 10
10.71467244365994
 20
16.10979718745709
 30
0.0
  0
VERTEX
  5
2BC
  8
MARK_IN_POCKET
 10
10.76398504500968
 20
16.11825815828721
 30
0.0
  0
VERTEX
  5
2BD
  8
MARK_IN_POCKET
 10
10.81375611947191
 20
16.12587651738037
 30
0.0
  0
VERTEX
  5
2BE
  8
MARK_IN_POCKET
 10
10.86396958208957
 20
16.13264095500113
 30
0.0
  0
VERTEX
  5
2BF
  8
MARK_IN_POCKET
 10
10.91460934790559
 20
16.13854016141408
 30
0.0
  0
VERTEX
  5
2C0
  8
MARK_IN_POCKET
 10
10.96565933196293
 20
16.14356282688377
 30
0.0
  0
VERTEX
  5
2C1
  8
MARK_IN_POCKET
 10
11.01710344930453
 20
16.14769764167479
 30
0.0
  0
VERTEX
  5
2C2
  8
MARK_IN_POCKET
 10
11.06892561497333
 20
16.1509332960517
 30
0.0
  0
VERTEX
  5
2C3
  8
MARK_IN_POCKET
 10
11.12110974401229
 20
16.15325848027907
 30
0.0
  0
VERTEX
  5
2C4
  8
MARK_IN_POCKET
 10
11.17363975146434
 20
16.15466188462148
 30
0.0
  0
VERTEX
  5
2C5
  8
MARK_IN_POCKET
 10
11.22649955237242
 20
16.15513219934348
 30
0.0
  0
VERTEX
  5
2C6
  8
MARK_IN_POCKET
 10
11.27935935328051
 20
16.15466188462148
 30
0.0
  0
VERTEX
  5
2C7
  8
MARK_IN_POCKET
 10
11.33188936073256
 20
16.15325848027907
 30
0.0
  0
VERTEX
  5
2C8
  8
MARK_IN_POCKET
 10
11.38407348977151
 20
16.1509332960517
 30
0.0
  0
VERTEX
  5
2C9
  8
MARK_IN_POCKET
 10
11.43589565544032
 20
16.14769764167479
 30
0.0
  0
VERTEX
  5
2CA
  8
MARK_IN_POCKET
 10
11.48733977278192
 20
16.14356282688377
 30
0.0
  0
VERTEX
  5
2CB
  8
MARK_IN_POCKET
 10
11.53838975683925
 20
16.13854016141408
 30
0.0
  0
VERTEX
  5
2CC
  8
MARK_IN_POCKET
 10
11.58902952265528
 20
16.13264095500113
 30
0.0
  0
VERTEX
  5
2CD
  8
MARK_IN_POCKET
 10
11.63924298527293
 20
16.12587651738037
 30
0.0
  0
VERTEX
  5
2CE
  8
MARK_IN_POCKET
 10
11.68901405973516
 20
16.11825815828721
 30
0.0
  0
VERTEX
  5
2CF
  8
MARK_IN_POCKET
 10
11.73832666108491
 20
16.10979718745709
 30
0.0
  0
VERTEX
  5
2D0
  8
MARK_IN_POCKET
 10
11.78716470436513
 20
16.10050491462544
 30
0.0
  0
VERTEX
  5
2D1
  8
MARK_IN_POCKET
 10
11.83551210461875
 20
16.09039264952769
 30
0.0
  0
VERTEX
  5
2D2
  8
MARK_IN_POCKET
 10
11.88335277688872
 20
16.07947170189926
 30
0.0
  0
VERTEX
  5
2D3
  8
MARK_IN_POCKET
 10
11.930670636218
 20
16.06775338147558
 30
0.0
  0
VERTEX
  5
2D4
  8
MARK_IN_POCKET
 10
11.97744959764952
 20
16.05524899799209
 30
0.0
  0
VERTEX
  5
2D5
  8
MARK_IN_POCKET
 10
12.02367357622623
 20
16.04196986118422
 30
0.0
  0
VERTEX
  5
2D6
  8
MARK_IN_POCKET
 10
12.06932648699108
 20
16.02792728078739
 30
0.0
  0
VERTEX
  5
2D7
  8
MARK_IN_POCKET
 10
12.11439224498701
 20
16.01313256653703
 30
0.0
  0
VERTEX
  5
2D8
  8
MARK_IN_POCKET
 10
12.15885476525695
 20
15.99759702816858
 30
0.0
  0
VERTEX
  5
2D9
  8
MARK_IN_POCKET
 10
12.20269796284387
 20
15.98133197541746
 30
0.0
  0
VERTEX
  5
2DA
  8
MARK_IN_POCKET
 10
12.2459057527907
 20
15.96434871801909
 30
0.0
  0
VERTEX
  5
2DB
  8
MARK_IN_POCKET
 10
12.2884620501404
 20
15.94665856570892
 30
0.0
  0
VERTEX
  5
2DC
  8
MARK_IN_POCKET
 10
12.3303507699359
 20
15.92827282822237
 30
0.0
  0
VERTEX
  5
2DD
  8
MARK_IN_POCKET
 10
12.37155582722014
 20
15.90920281529487
 30
0.0
  0
VERTEX
  5
2DE
  8
MARK_IN_POCKET
 10
12.41206113703608
 20
15.88945983666184
 30
0.0
  0
VERTEX
  5
2DF
  8
MARK_IN_POCKET
 10
12.45185061442666
 20
15.86905520205872
 30
0.0
  0
VERTEX
  5
2E0
  8
MARK_IN_POCKET
 10
12.49090817443482
 20
15.84800022122094
 30
0.0
  0
VERTEX
  5
2E1
  8
MARK_IN_POCKET
 10
12.52921773210352
 20
15.82630620388393
 30
0.0
  0
VERTEX
  5
2E2
  8
MARK_IN_POCKET
 10
12.56676320247568
 20
15.80398445978311
 30
0.0
  0
VERTEX
  5
2E3
  8
MARK_IN_POCKET
 10
12.60352850059427
 20
15.78104629865391
 30
0.0
  0
VERTEX
  5
2E4
  8
MARK_IN_POCKET
 10
12.63949754150222
 20
15.75750303023177
 30
0.0
  0
VERTEX
  5
2E5
  8
MARK_IN_POCKET
 10
12.67465424024248
 20
15.73336596425212
 30
0.0
  0
VERTEX
  5
2E6
  8
MARK_IN_POCKET
 10
12.70898251185799
 20
15.70864641045037
 30
0.0
  0
VERTEX
  5
2E7
  8
MARK_IN_POCKET
 10
12.7424662713917
 20
15.68335567856197
 30
0.0
  0
VERTEX
  5
2E8
  8
MARK_IN_POCKET
 10
12.77508943388655
 20
15.65750507832234
 30
0.0
  0
VERTEX
  5
2E9
  8
MARK_IN_POCKET
 10
12.8068359143855
 20
15.63110591946691
 30
0.0
  0
VERTEX
  5
2EA
  8
MARK_IN_POCKET
 10
12.83768962793147
 20
15.60416951173111
 30
0.0
  0
VERTEX
  5
2EB
  8
MARK_IN_POCKET
 10
12.86763448956743
 20
15.57670716485037
 30
0.0
  0
VERTEX
  5
2EC
  8
MARK_IN_POCKET
 10
12.89665441433631
 20
15.54873018856012
 30
0.0
  0
VERTEX
  5
2ED
  8
MARK_IN_POCKET
 10
12.92473331728105
 20
15.52024989259579
 30
0.0
  0
VERTEX
  5
2EE
  8
MARK_IN_POCKET
 10
12.95185511344461
 20
15.4912775866928
 30
0.0
  0
VERTEX
  5
2EF
  8
MARK_IN_POCKET
 10
12.97800371786993
 20
15.46182458058659
 30
0.0
  0
VERTEX
  5
2F0
  8
MARK_IN_POCKET
 10
13.00316304559995
 20
15.43190218401259
 30
0.0
  0
VERTEX
  5
2F1
  8
MARK_IN_POCKET
 10
13.02731701167763
 20
15.40152170670622
 30
0.0
  0
VERTEX
  5
2F2
  8
MARK_IN_POCKET
 10
13.05044953114589
 20
15.37069445840292
 30
0.0
  0
VERTEX
  5
2F3
  8
MARK_IN_POCKET
 10
13.07254451904769
 20
15.33943174883811
 30
0.0
  0
VERTEX
  5
2F4
  8
MARK_IN_POCKET
 10
13.09358589042598
 20
15.30774488774723
 30
0.0
  0
VERTEX
  5
2F5
  8
MARK_IN_POCKET
 10
13.11355756032369
 20
15.2756451848657
 30
0.0
  0
VERTEX
  5
2F6
  8
MARK_IN_POCKET
 10
13.13244344378378
 20
15.24314394992895
 30
0.0
  0
VERTEX
  5
2F7
  8
MARK_IN_POCKET
 10
13.15022745584918
 20
15.21025249267241
 30
0.0
  0
VERTEX
  5
2F8
  8
MARK_IN_POCKET
 10
13.16689351156285
 20
15.17698212283151
 30
0.0
  0
VERTEX
  5
2F9
  8
MARK_IN_POCKET
 10
13.18242552596773
 20
15.14334415014168
 30
0.0
  0
VERTEX
  5
2FA
  8
MARK_IN_POCKET
 10
13.18976124113029
 20
15.12639084702074
 30
0.0
  0
VERTEX
  5
2FB
  8
MARK_IN_POCKET
 10
13.19680741410676
 20
15.10934988433835
 30
0.0
  0
VERTEX
  5
2FC
  8
MARK_IN_POCKET
 10
13.2035620342775
 20
15.09222267581145
 30
0.0
  0
VERTEX
  5
2FD
  8
MARK_IN_POCKET
 10
13.21002309102288
 20
15.07501063515695
 30
0.0
  0
VERTEX
  5
2FE
  8
MARK_IN_POCKET
 10
13.21618857372328
 20
15.05771517609179
 30
0.0
  0
VERTEX
  5
2FF
  8
MARK_IN_POCKET
 10
13.22205647175905
 20
15.04033771233291
 30
0.0
  0
VERTEX
  5
300
  8
MARK_IN_POCKET
 10
13.22762477451057
 20
15.02287965759722
 30
0.0
  0
VERTEX
  5
301
  8
MARK_IN_POCKET
 10
13.23289147135821
 20
15.00534242560165
 30
0.0
  0
VERTEX
  5
302
  8
MARK_IN_POCKET
 10
13.23785455168233
 20
14.98772743006314
 30
0.0
  0
VERTEX
  5
303
  8
MARK_IN_POCKET
 10
13.2425120048633
 20
14.97003608469862
 30
0.0
  0
VERTEX
  5
304
  8
MARK_IN_POCKET
 10
13.24686182028149
 20
14.952269803225
 30
0.0
  0
VERTEX
  5
305
  8
MARK_IN_POCKET
 10
13.25090198731727
 20
14.93442999935922
 30
0.0
  0
VERTEX
  5
306
  8
MARK_IN_POCKET
 10
13.254630495351
 20
14.91651808681822
 30
0.0
  0
VERTEX
  5
307
  8
MARK_IN_POCKET
 10
13.25804533376306
 20
14.89853547931891
 30
0.0
  0
VERTEX
  5
308
  8
MARK_IN_POCKET
 10
13.26114449193381
 20
14.88048359057823
 30
0.0
  0
VERTEX
  5
309
  8
MARK_IN_POCKET
 10
13.26392595924361
 20
14.8623638343131
 30
0.0
  0
VERTEX
  5
30A
  8
MARK_IN_POCKET
 10
13.26638772507285
 20
14.84417762424045
 30
0.0
  0
VERTEX
  5
30B
  8
MARK_IN_POCKET
 10
13.26852777880189
 20
14.82592637407722
 30
0.0
  0
VERTEX
  5
30C
  8
MARK_IN_POCKET
 10
13.27034410981108
 20
14.80761149754033
 30
0.0
  0
VERTEX
  5
30D
  8
MARK_IN_POCKET
 10
13.27183470748081
 20
14.7892344083467
 30
0.0
  0
VERTEX
  5
30E
  8
MARK_IN_POCKET
 10
13.27299756119145
 20
14.77079652021328
 30
0.0
  0
VERTEX
  5
30F
  8
MARK_IN_POCKET
 10
13.27383066032334
 20
14.75229924685698
 30
0.0
  0
VERTEX
  5
310
  8
MARK_IN_POCKET
 10
13.27433199425688
 20
14.73374400199474
 30
0.0
  0
VERTEX
  5
311
  8
MARK_IN_POCKET
 10
13.27449955237242
 20
14.71513219934348
 30
0.0
  0
VERTEX
  5
312
  8
MARK_IN_POCKET
 10
13.27414572021739
 20
14.69049600365236
 30
0.0
  0
VERTEX
  5
313
  8
MARK_IN_POCKET
 10
13.27308833611133
 20
14.6659699680538
 30
0.0
  0
VERTEX
  5
314
  8
MARK_IN_POCKET
 10
13.27133356859282
 20
14.64155806001239
 30
0.0
  0
VERTEX
  5
315
  8
MARK_IN_POCKET
 10
13.26888758620044
 20
14.61726424699271
 30
0.0
  0
VERTEX
  5
316
  8
MARK_IN_POCKET
 10
13.26575655747276
 20
14.59309249645934
 30
0.0
  0
VERTEX
  5
317
  8
MARK_IN_POCKET
 10
13.26194665094837
 20
14.56904677587686
 30
0.0
  0
VERTEX
  5
318
  8
MARK_IN_POCKET
 10
13.25746403516582
 20
14.54513105270985
 30
0.0
  0
VERTEX
  5
319
  8
MARK_IN_POCKET
 10
13.2523148786637
 20
14.52134929442289
 30
0.0
  0
VERTEX
  5
31A
  8
MARK_IN_POCKET
 10
13.24650534998058
 20
14.49770546848056
 30
0.0
  0
VERTEX
  5
31B
  8
MARK_IN_POCKET
 10
13.24004161765503
 20
14.47420354234745
 30
0.0
  0
VERTEX
  5
31C
  8
MARK_IN_POCKET
 10
13.23292985022564
 20
14.45084748348813
 30
0.0
  0
VERTEX
  5
31D
  8
MARK_IN_POCKET
 10
13.22517621623098
 20
14.42764125936718
 30
0.0
  0
VERTEX
  5
31E
  8
MARK_IN_POCKET
 10
13.21678688420961
 20
14.40458883744919
 30
0.0
  0
VERTEX
  5
31F
  8
MARK_IN_POCKET
 10
13.20776802270013
 20
14.38169418519873
 30
0.0
  0
VERTEX
  5
320
  8
MARK_IN_POCKET
 10
13.19812580024109
 20
14.35896127008038
 30
0.0
  0
VERTEX
  5
321
  8
MARK_IN_POCKET
 10
13.18786638537108
 20
14.33639405955873
 30
0.0
  0
VERTEX
  5
322
  8
MARK_IN_POCKET
 10
13.17699594662867
 20
14.31399652109835
 30
0.0
  0
VERTEX
  5
323
  8
MARK_IN_POCKET
 10
13.16552065255243
 20
14.29177262216384
 30
0.0
  0
VERTEX
  5
324
  8
MARK_IN_POCKET
 10
13.15344667168095
 20
14.26972633021975
 30
0.0
  0
VERTEX
  5
325
  8
MARK_IN_POCKET
 10
13.14078017255279
 20
14.24786161273069
 30
0.0
  0
VERTEX
  5
326
  8
MARK_IN_POCKET
 10
13.12752732370653
 20
14.22618243716122
 30
0.0
  0
VERTEX
  5
327
  8
MARK_IN_POCKET
 10
13.11369429368074
 20
14.20469277097593
 30
0.0
  0
VERTEX
  5
328
  8
MARK_IN_POCKET
 10
13.09928725101401
 20
14.18339658163939
 30
0.0
  0
VERTEX
  5
329
  8
MARK_IN_POCKET
 10
13.0843123642449
 20
14.1622978366162
 30
0.0
  0
VERTEX
  5
32A
  8
MARK_IN_POCKET
 10
13.06877580191199
 20
14.14140050337093
 30
0.0
  0
VERTEX
  5
32B
  8
MARK_IN_POCKET
 10
13.05268373255386
 20
14.12070854936815
 30
0.0
  0
VERTEX
  5
32C
  8
MARK_IN_POCKET
 10
13.03604232470907
 20
14.10022594207246
 30
0.0
  0
VERTEX
  5
32D
  8
MARK_IN_POCKET
 10
13.01885774691621
 20
14.07995664894842
 30
0.0
  0
VERTEX
  5
32E
  8
MARK_IN_POCKET
 10
13.00113616771385
 20
14.05990463746063
 30
0.0
  0
VERTEX
  5
32F
  8
MARK_IN_POCKET
 10
12.98288375564056
 20
14.04007387507366
 30
0.0
  0
VERTEX
  5
330
  8
MARK_IN_POCKET
 10
12.96410667923492
 20
14.0204683292521
 30
0.0
  0
VERTEX
  5
331
  8
MARK_IN_POCKET
 10
12.9448111070355
 20
14.00109196746051
 30
0.0
  0
VERTEX
  5
332
  8
MARK_IN_POCKET
 10
12.92500320758089
 20
13.98194875716349
 30
0.0
  0
VERTEX
  5
333
  8
MARK_IN_POCKET
 10
12.90468914940964
 20
13.96304266582561
 30
0.0
  0
VERTEX
  5
334
  8
MARK_IN_POCKET
 10
12.88387510106035
 20
13.94437766091146
 30
0.0
  0
VERTEX
  5
335
  8
MARK_IN_POCKET
 10
12.86256723107158
 20
13.9259577098856
 30
0.0
  0
VERTEX
  5
336
  8
MARK_IN_POCKET
 10
12.8407717079819
 20
13.90778678021264
 30
0.0
  0
VERTEX
  5
337
  8
MARK_IN_POCKET
 10
12.8184947003299
 20
13.88986883935714
 30
0.0
  0
VERTEX
  5
338
  8
MARK_IN_POCKET
 10
12.79574237665415
 20
13.87220785478369
 30
0.0
  0
VERTEX
  5
339
  8
MARK_IN_POCKET
 10
12.77252090549322
 20
13.85480779395686
 30
0.0
  0
VERTEX
  5
33A
  8
MARK_IN_POCKET
 10
12.74883645538569
 20
13.83767262434124
 30
0.0
  0
VERTEX
  5
33B
  8
MARK_IN_POCKET
 10
12.72469519487013
 20
13.82080631340141
 30
0.0
  0
VERTEX
  5
33C
  8
MARK_IN_POCKET
 10
12.70010329248512
 20
13.80421282860194
 30
0.0
  0
VERTEX
  5
33D
  8
MARK_IN_POCKET
 10
12.67506691676923
 20
13.78789613740742
 30
0.0
  0
VERTEX
  5
33E
  8
MARK_IN_POCKET
 10
12.64959223626103
 20
13.77186020728243
 30
0.0
  0
VERTEX
  5
33F
  8
MARK_IN_POCKET
 10
12.62368541949911
 20
13.75610900569155
 30
0.0
  0
VERTEX
  5
340
  8
MARK_IN_POCKET
 10
12.59735263502204
 20
13.74064650009936
 30
0.0
  0
VERTEX
  5
341
  8
MARK_IN_POCKET
 10
12.57060005136839
 20
13.72547665797044
 30
0.0
  0
VERTEX
  5
342
  8
MARK_IN_POCKET
 10
12.54343383707673
 20
13.71060344676938
 30
0.0
  0
VERTEX
  5
343
  8
MARK_IN_POCKET
 10
12.51586016068565
 20
13.69603083396074
 30
0.0
  0
VERTEX
  5
344
  8
MARK_IN_POCKET
 10
12.48788519073371
 20
13.68176278700911
 30
0.0
  0
VERTEX
  5
345
  8
MARK_IN_POCKET
 10
12.4595150957595
 20
13.66780327337908
 30
0.0
  0
VERTEX
  5
346
  8
MARK_IN_POCKET
 10
12.43075604430158
 20
13.65415626053522
 30
0.0
  0
VERTEX
  5
347
  8
MARK_IN_POCKET
 10
12.40161420489853
 20
13.64082571594211
 30
0.0
  0
VERTEX
  5
348
  8
MARK_IN_POCKET
 10
12.37209574608892
 20
13.62781560706433
 30
0.0
  0
VERTEX
  5
349
  8
MARK_IN_POCKET
 10
12.34220683641134
 20
13.61512990136647
 30
0.0
  0
VERTEX
  5
34A
  8
MARK_IN_POCKET
 10
12.31195364440436
 20
13.60277256631311
 30
0.0
  0
VERTEX
  5
34B
  8
MARK_IN_POCKET
 10
12.28134233860654
 20
13.59074756936882
 30
0.0
  0
VERTEX
  5
34C
  8
MARK_IN_POCKET
 10
12.25037908755647
 20
13.57905887799818
 30
0.0
  0
VERTEX
  5
34D
  8
MARK_IN_POCKET
 10
12.21907005979272
 20
13.56771045966578
 30
0.0
  0
VERTEX
  5
34E
  8
MARK_IN_POCKET
 10
12.18742142385387
 20
13.5567062818362
 30
0.0
  0
VERTEX
  5
34F
  8
MARK_IN_POCKET
 10
12.15543934827848
 20
13.54605031197401
 30
0.0
  0
VERTEX
  5
350
  8
MARK_IN_POCKET
 10
12.12313000160514
 20
13.5357465175438
 30
0.0
  0
VERTEX
  5
351
  8
MARK_IN_POCKET
 10
12.09049955237242
 20
13.52579886601015
 30
0.0
  0
SEQEND
  5
352
  8
MARK_IN_POCKET
  0
ENDSEC
  0
EOF
