  0
SECTION
  2
HEADER
  9
$ACADVER
  1
AC1009
  9
$DWGCODEPAGE
  3
ansi_1252
  9
$INSBASE
 10
0.0
 20
0.0
 30
0.0
  9
$EXTMIN
 10
0.799429
 20
1.132547000000072
 30
0.0
  9
$EXTMAX
 10
94.95121529243727
 20
46.94009047723051
 30
0.0
  9
$LIMMIN
 10
0.0
 20
0.0
  9
$LIMMAX
 10
12.0
 20
9.0
  9
$ORTHOMODE
 70
     0
  9
$REGENMODE
 70
     1
  9
$FILLMODE
 70
     1
  9
$QTEXTMODE
 70
     0
  9
$MIRRTEXT
 70
     1
  9
$DRAGMODE
 70
     2
  9
$LTSCALE
 40
1.0
  9
$OSMODE
 70
    37
  9
$ATTMODE
 70
     1
  9
$TEXTSIZE
 40
0.2
  9
$TRACEWID
 40
0.05
  9
$TEXTSTYLE
  7
STANDARD
  9
$CLAYER
  8
0
  9
$CELTYPE
  6
BYLAYER
  9
$CECOLOR
 62
   256
  9
$DIMSCALE
 40
1.0
  9
$DIMASZ
 40
0.18
  9
$DIMEXO
 40
0.0625
  9
$DIMDLI
 40
0.38
  9
$DIMRND
 40
0.0
  9
$DIMDLE
 40
0.0
  9
$DIMEXE
 40
0.18
  9
$DIMTP
 40
0.0
  9
$DIMTM
 40
0.0
  9
$DIMTXT
 40
0.18
  9
$DIMCEN
 40
0.09
  9
$DIMTSZ
 40
0.0
  9
$DIMTOL
 70
     0
  9
$DIMLIM
 70
     0
  9
$DIMTIH
 70
     1
  9
$DIMTOH
 70
     1
  9
$DIMSE1
 70
     0
  9
$DIMSE2
 70
     0
  9
$DIMTAD
 70
     0
  9
$DIMZIN
 70
     0
  9
$DIMBLK
  1

  9
$DIMASO
 70
     1
  9
$DIMSHO
 70
     1
  9
$DIMPOST
  1

  9
$DIMAPOST
  1

  9
$DIMALT
 70
     0
  9
$DIMALTD
 70
     2
  9
$DIMALTF
 40
25.4
  9
$DIMLFAC
 40
1.0
  9
$DIMTOFL
 70
     0
  9
$DIMTVP
 40
0.0
  9
$DIMTIX
 70
     0
  9
$DIMSOXD
 70
     0
  9
$DIMSAH
 70
     0
  9
$DIMBLK1
  1

  9
$DIMBLK2
  1

  9
$DIMSTYLE
  2
STANDARD
  9
$DIMCLRD
 70
     0
  9
$DIMCLRE
 70
     0
  9
$DIMCLRT
 70
     0
  9
$DIMTFAC
 40
1.0
  9
$DIMGAP
 40
0.09
  9
$LUNITS
 70
     2
  9
$LUPREC
 70
     4
  9
$SKETCHINC
 40
0.1
  9
$FILLETRAD
 40
0.5
  9
$AUNITS
 70
     0
  9
$AUPREC
 70
     0
  9
$MENU
  1
.
  9
$ELEVATION
 40
0.0
  9
$PELEVATION
 40
0.0
  9
$THICKNESS
 40
0.0
  9
$LIMCHECK
 70
     0
  9
$CHAMFERA
 40
0.5
  9
$CHAMFERB
 40
0.5
  9
$SKPOLY
 70
     0
  9
$TDCREATE
 40
2454910.5
  9
$TDUPDATE
 40
2455901.445980891
  9
$TDINDWG
 40
0.0000000116
  9
$TDUSRTIMER
 40
0.0000000116
  9
$USRTIMER
 70
     1
  9
$ANGBASE
 50
0.0
  9
$ANGDIR
 70
     0
  9
$PDMODE
 70
     0
  9
$PDSIZE
 40
0.0
  9
$PLINEWID
 40
0.0
  9
$COORDS
 70
     1
  9
$SPLFRAME
 70
     0
  9
$SPLINETYPE
 70
     6
  9
$SPLINESEGS
 70
     8
  9
$ATTDIA
 70
     0
  9
$ATTREQ
 70
     1
  9
$HANDLING
 70
     1
  9
$HANDSEED
  5
66A
  9
$SURFTAB1
 70
     6
  9
$SURFTAB2
 70
     6
  9
$SURFTYPE
 70
     6
  9
$SURFU
 70
     6
  9
$SURFV
 70
     6
  9
$UCSNAME
  2

  9
$UCSORG
 10
0.0
 20
0.0
 30
0.0
  9
$UCSXDIR
 10
1.0
 20
0.0
 30
0.0
  9
$UCSYDIR
 10
0.0
 20
1.0
 30
0.0
  9
$PUCSNAME
  2

  9
$PUCSORG
 10
0.0
 20
0.0
 30
0.0
  9
$PUCSXDIR
 10
1.0
 20
0.0
 30
0.0
  9
$PUCSYDIR
 10
0.0
 20
1.0
 30
0.0
  9
$USERI1
 70
     0
  9
$USERI2
 70
     0
  9
$USERI3
 70
     0
  9
$USERI4
 70
     0
  9
$USERI5
 70
     0
  9
$USERR1
 40
0.0
  9
$USERR2
 40
0.0
  9
$USERR3
 40
0.0
  9
$USERR4
 40
0.0
  9
$USERR5
 40
0.0
  9
$WORLDVIEW
 70
     1
  9
$SHADEDGE
 70
     3
  9
$SHADEDIF
 70
    70
  9
$TILEMODE
 70
     1
  9
$MAXACTVP
 70
    64
  9
$PLIMCHECK
 70
     0
  9
$PEXTMIN
 10
1.000000000000000E+20
 20
1.000000000000000E+20
 30
1.000000000000000E+20
  9
$PEXTMAX
 10
-1.000000000000000E+20
 20
-1.000000000000000E+20
 30
-1.000000000000000E+20
  9
$PLIMMIN
 10
0.0
 20
0.0
  9
$PLIMMAX
 10
12.0
 20
9.0
  9
$UNITMODE
 70
     0
  9
$VISRETAIN
 70
     1
  9
$PLINEGEN
 70
     0
  9
$PSLTSCALE
 70
     1
  0
ENDSEC
  0
SECTION
  2
TABLES
  0
TABLE
  2
VPORT
 70
     1
  0
VPORT
  2
*ACTIVE
 70
     0
 10
0.0
 20
0.0
 11
1.0
 21
1.0
 12
10.42990654205607
 22
4.5
 13
0.0
 23
0.0
 14
0.5
 24
0.5
 15
0.5
 25
0.5
 16
0.0
 26
0.0
 36
1.0
 17
0.0
 27
0.0
 37
0.0
 40
9.0
 41
1.972972972850329
 42
50.0
 43
0.0
 44
0.0
 50
0.0
 51
0.0
 71
     0
 72
   100
 73
     1
 74
     3
 75
     0
 76
     0
 77
     0
 78
     0
  0
ENDTAB
  0
TABLE
  2
LTYPE
 70
     2
  0
LTYPE
  2
CONTINUOUS
 70
     0
  3
Solid line
 72
    65
 73
     0
 40
0.0
  0
LTYPE
  2
CONTINUOUS2
 70
     0
  3
Solid Line
 72
    65
 73
     0
 40
0.0
  0
ENDTAB
  0
TABLE
  2
LAYER
 70
     5
  0
LAYER
  2
0
 70
     0
 62
     7
  6
CONTINUOUS
  0
LAYER
  2
THROUGH_CUT
 70
     0
 62
    18
  6
CONTINUOUS
  0
LAYER
  2
CUT_HALFWAY_THROUGH
 70
     0
 62
     1
  6
CONTINUOUS
  0
LAYER
  2
MARKS_IN_POCKET
 70
     0
 62
     3
  6
CONTINUOUS
  0
LAYER
  2
LACE_HOLES
 70
     0
 62
     4
  6
CONTINUOUS
  0
ENDTAB
  0
TABLE
  2
STYLE
 70
     1
  0
STYLE
  2
STANDARD
 70
     0
 40
0.0
 41
1.0
 50
0.0
 71
     0
 42
0.2
  3
txt
  4

  0
ENDTAB
  0
TABLE
  2
VIEW
 70
     0
  0
ENDTAB
  0
TABLE
  2
UCS
 70
     0
  0
ENDTAB
  0
TABLE
  2
APPID
 70
     1
  0
APPID
  2
ACAD
 70
     0
  0
ENDTAB
  0
TABLE
  2
DIMSTYLE
 70
     1
  0
DIMSTYLE
  2
STANDARD
 70
     0
  3

  4

  5

  6

  7

 40
1.0
 41
0.18
 42
0.0625
 43
0.38
 44
0.18
 45
0.0
 46
0.0
 47
0.0
 48
0.0
140
0.18
141
0.09
142
0.0
143
25.4
144
1.0
145
0.0
146
1.0
147
0.09
 71
     0
 72
     0
 73
     1
 74
     1
 75
     0
 76
     0
 77
     0
 78
     0
170
     0
171
     2
172
     0
173
     0
174
     0
175
     0
176
     0
177
     0
178
     0
  0
ENDTAB
  0
ENDSEC
  0
SECTION
  2
BLOCKS
  0
BLOCK
  8
0
  2
$MODEL_SPACE
 70
     0
 10
0.0
 20
0.0
 30
0.0
  3
$MODEL_SPACE
  1

  0
ENDBLK
  5
21
  8
0
  0
BLOCK
 67
     1
  8
0
  2
$PAPER_SPACE
 70
     0
 10
0.0
 20
0.0
 30
0.0
  3
$PAPER_SPACE
  1

  0
ENDBLK
  5
1D
 67
     1
  8
0
  0
ENDSEC
  0
SECTION
  2
ENTITIES
  0
POLYLINE
  5
41
  8
THROUGH_CUT
 66
     1
 10
0.0
 20
0.0
 30
0.0
 70
     1
  0
VERTEX
  5
E2
  8
THROUGH_CUT
 10
12.70052603649765
 20
31.33321837164231
 30
0.0
 42
0.4142135623730876
  0
VERTEX
  5
E3
  8
THROUGH_CUT
 10
12.50701583088671
 20
31.12692682954131
 30
0.0
 42
0.4142135623731001
  0
VERTEX
  5
E4
  8
THROUGH_CUT
 10
12.71330737298774
 20
30.93341662393037
 30
0.0
 42
0.4142135623730925
  0
VERTEX
  5
E5
  8
THROUGH_CUT
 10
12.90681757859868
 20
31.1397081660314
 30
0.0
 42
0.4142135623730849
  0
SEQEND
  5
E6
  8
THROUGH_CUT
  0
POLYLINE
  5
42
  8
THROUGH_CUT
 66
     1
 10
0.0
 20
0.0
 30
0.0
 70
     1
  0
VERTEX
  5
E7
  8
THROUGH_CUT
 10
22.85537840020273
 20
37.72688472064325
 30
0.0
 42
0.4142135623731101
  0
VERTEX
  5
E8
  8
THROUGH_CUT
 10
22.6618681945918
 20
37.52059317854225
 30
0.0
 42
0.4142135623731001
  0
VERTEX
  5
E9
  8
THROUGH_CUT
 10
22.86815973669283
 20
37.32708297293129
 30
0.0
 42
0.4142135623731051
  0
VERTEX
  5
EA
  8
THROUGH_CUT
 10
23.06166994230376
 20
37.53337451503234
 30
0.0
 42
0.4142135623731151
  0
SEQEND
  5
EB
  8
THROUGH_CUT
  0
POLYLINE
  5
43
  8
THROUGH_CUT
 66
     1
 10
0.0
 20
0.0
 30
0.0
 70
     1
  0
VERTEX
  5
EC
  8
THROUGH_CUT
 10
18.26449516035356
 20
26.3537798724423
 30
0.0
 42
0.4142135623731003
  0
VERTEX
  5
ED
  8
THROUGH_CUT
 10
18.06449216035353
 20
26.1537768724423
 30
0.0
 42
0.4142135623731054
  0
VERTEX
  5
EE
  8
THROUGH_CUT
 10
18.26449516035357
 20
25.95377387244229
 30
0.0
 42
0.4142135623730951
  0
VERTEX
  5
EF
  8
THROUGH_CUT
 10
18.46449816035355
 20
26.1537768724423
 30
0.0
 42
0.4142135623731003
  0
SEQEND
  5
F0
  8
THROUGH_CUT
  0
POLYLINE
  5
44
  8
THROUGH_CUT
 66
     1
 10
0.0
 20
0.0
 30
0.0
 70
     1
  0
VERTEX
  5
F1
  8
THROUGH_CUT
 10
29.96650516035356
 20
29.0114018724423
 30
0.0
 42
0.4142135623730951
  0
VERTEX
  5
F2
  8
THROUGH_CUT
 10
29.76650216035355
 20
28.81139887244229
 30
0.0
 42
0.4142135623730951
  0
VERTEX
  5
F3
  8
THROUGH_CUT
 10
29.96650516035356
 20
28.6113958724423
 30
0.0
 42
0.4142135623731003
  0
VERTEX
  5
F4
  8
THROUGH_CUT
 10
30.16650816035358
 20
28.81139887244229
 30
0.0
 42
0.4142135623731003
  0
SEQEND
  5
F5
  8
THROUGH_CUT
  0
POLYLINE
  5
45
  8
THROUGH_CUT
 66
     1
 10
0.0
 20
0.0
 30
0.0
 70
     1
  0
VERTEX
  5
F6
  8
THROUGH_CUT
 10
12.45553252384405
 20
9.78760300562189
 30
0.0
 42
0.4142135623730927
  0
VERTEX
  5
F7
  8
THROUGH_CUT
 10
12.23956175209874
 20
9.604958471704947
 30
0.0
 42
0.4142135623730951
  0
VERTEX
  5
F8
  8
THROUGH_CUT
 10
12.42220628601568
 20
9.388987699959639
 30
0.0
 42
0.4142135623730951
  0
VERTEX
  5
F9
  8
THROUGH_CUT
 10
12.638177057761
 20
9.57163223387658
 30
0.0
 42
0.4142135623730927
  0
SEQEND
  5
FA
  8
THROUGH_CUT
  0
POLYLINE
  5
46
  8
THROUGH_CUT
 66
     1
 10
0.0
 20
0.0
 30
0.0
 70
     1
  0
VERTEX
  5
FB
  8
THROUGH_CUT
 10
22.63316477455662
 20
16.14494571219702
 30
0.0
 42
0.4142135623730974
  0
VERTEX
  5
FC
  8
THROUGH_CUT
 10
22.41719400281131
 20
15.96230117828008
 30
0.0
 42
0.4142135623731023
  0
VERTEX
  5
FD
  8
THROUGH_CUT
 10
22.59983853672826
 20
15.74633040653477
 30
0.0
 42
0.4142135623730998
  0
VERTEX
  5
FE
  8
THROUGH_CUT
 10
22.81580930847358
 20
15.92897494045171
 30
0.0
 42
0.4142135623730903
  0
SEQEND
  5
FF
  8
THROUGH_CUT
  0
POLYLINE
  5
47
  8
THROUGH_CUT
 66
     1
 10
0.0
 20
0.0
 30
0.0
 70
     1
  0
VERTEX
  5
100
  8
THROUGH_CUT
 10
26.66179639739449
 20
8.793630684095408
 30
0.0
 42
0.4142135623730951
  0
VERTEX
  5
101
  8
THROUGH_CUT
 10
26.46179339739448
 20
8.59362768409541
 30
0.0
 42
0.4142135623730951
  0
VERTEX
  5
102
  8
THROUGH_CUT
 10
26.66179639739449
 20
8.39362468409541
 30
0.0
 42
0.4142135623730951
  0
VERTEX
  5
103
  8
THROUGH_CUT
 10
26.8617993973945
 20
8.59362768409541
 30
0.0
 42
0.4142135623730951
  0
SEQEND
  5
104
  8
THROUGH_CUT
  0
POLYLINE
  5
48
  8
THROUGH_CUT
 66
     1
 10
0.0
 20
0.0
 30
0.0
 70
     1
  0
VERTEX
  5
105
  8
THROUGH_CUT
 10
38.25291539739448
 20
5.687836684095409
 30
0.0
 42
0.4142135623730951
  0
VERTEX
  5
106
  8
THROUGH_CUT
 10
38.05291239739446
 20
5.48783368409541
 30
0.0
 42
0.4142135623730951
  0
VERTEX
  5
107
  8
THROUGH_CUT
 10
38.25291539739448
 20
5.287830684095411
 30
0.0
 42
0.4142135623730951
  0
VERTEX
  5
108
  8
THROUGH_CUT
 10
38.45291839739449
 20
5.48783368409541
 30
0.0
 42
0.4142135623730951
  0
SEQEND
  5
109
  8
THROUGH_CUT
  0
POLYLINE
  5
49
  8
THROUGH_CUT
 66
     1
 10
0.0
 20
0.0
 30
0.0
 70
     1
  0
VERTEX
  5
10A
  8
THROUGH_CUT
 10
78.80789715973296
 20
12.09404197511027
 30
0.0
 42
0.4142135623731071
  0
VERTEX
  5
10B
  8
THROUGH_CUT
 10
78.59192638798766
 20
11.91139744119333
 30
0.0
 42
0.4142135623731023
  0
VERTEX
  5
10C
  8
THROUGH_CUT
 10
78.7745709219046
 20
11.69542666944802
 30
0.0
 42
0.4142135623731023
  0
VERTEX
  5
10D
  8
THROUGH_CUT
 10
78.9905416936499
 20
11.87807120336496
 30
0.0
 42
0.4142135623731023
  0
SEQEND
  5
10E
  8
THROUGH_CUT
  0
POLYLINE
  5
4A
  8
THROUGH_CUT
 66
     1
 10
0.0
 20
0.0
 30
0.0
 70
     1
  0
VERTEX
  5
10F
  8
THROUGH_CUT
 10
68.2133237266699
 20
17.72920058376047
 30
0.0
 42
0.4142135623731144
  0
VERTEX
  5
110
  8
THROUGH_CUT
 10
67.99735295492462
 20
17.54655604984352
 30
0.0
 42
0.4142135623731047
  0
VERTEX
  5
111
  8
THROUGH_CUT
 10
68.17999748884156
 20
17.33058527809821
 30
0.0
 42
0.4142135623730951
  0
VERTEX
  5
112
  8
THROUGH_CUT
 10
68.39596826058684
 20
17.51322981201515
 30
0.0
 42
0.4142135623730758
  0
SEQEND
  5
113
  8
THROUGH_CUT
  0
POLYLINE
  5
4B
  8
THROUGH_CUT
 66
     1
 10
0.0
 20
0.0
 30
0.0
 70
     1
  0
VERTEX
  5
114
  8
THROUGH_CUT
 10
79.04404240810644
 20
33.87574986557987
 30
0.0
 42
0.4142135623730951
  0
VERTEX
  5
115
  8
THROUGH_CUT
 10
78.85053220249549
 20
33.66945832347886
 30
0.0
 42
0.4142135623730749
  0
VERTEX
  5
116
  8
THROUGH_CUT
 10
79.0568237445965
 20
33.47594811786792
 30
0.0
 42
0.4142135623730647
  0
VERTEX
  5
117
  8
THROUGH_CUT
 10
79.25033395020742
 20
33.68223965996894
 30
0.0
 42
0.4142135623730849
  0
SEQEND
  5
118
  8
THROUGH_CUT
  0
POLYLINE
  5
4C
  8
THROUGH_CUT
 66
     1
 10
0.0
 20
0.0
 30
0.0
 70
     1
  0
VERTEX
  5
119
  8
THROUGH_CUT
 10
68.42966389498682
 20
39.47351344162396
 30
0.0
 42
0.4142135623730647
  0
VERTEX
  5
11A
  8
THROUGH_CUT
 10
68.23615368937587
 20
39.26722189952294
 30
0.0
 42
0.4142135623730849
  0
VERTEX
  5
11B
  8
THROUGH_CUT
 10
68.44244523147691
 20
39.07371169391201
 30
0.0
 42
0.4142135623731051
  0
VERTEX
  5
11C
  8
THROUGH_CUT
 10
68.6359554370878
 20
39.28000323601303
 30
0.0
 42
0.4142135623730647
  0
SEQEND
  5
11D
  8
THROUGH_CUT
  0
POLYLINE
  5
4D
  8
THROUGH_CUT
 66
     1
 10
0.0
 20
0.0
 30
0.0
 70
     1
  0
VERTEX
  5
11E
  8
THROUGH_CUT
 10
83.33515116035355
 20
19.96201087244231
 30
0.0
 42
0.4142135623731107
  0
VERTEX
  5
11F
  8
THROUGH_CUT
 10
83.1351481603536
 20
19.76200787244229
 30
0.0
 42
0.4142135623730951
  0
VERTEX
  5
120
  8
THROUGH_CUT
 10
83.33515116035358
 20
19.56200487244231
 30
0.0
 42
0.4142135623730951
  0
VERTEX
  5
121
  8
THROUGH_CUT
 10
83.53515416035358
 20
19.76200787244229
 30
0.0
 42
0.4142135623731003
  0
SEQEND
  5
122
  8
THROUGH_CUT
  0
POLYLINE
  5
4E
  8
THROUGH_CUT
 66
     1
 10
0.0
 20
0.0
 30
0.0
 70
     1
  0
VERTEX
  5
123
  8
THROUGH_CUT
 10
73.18119616035358
 20
26.3571028724423
 30
0.0
 42
0.4142135623730951
  0
VERTEX
  5
124
  8
THROUGH_CUT
 10
72.9811931603536
 20
26.15709987244229
 30
0.0
 42
0.4142135623731107
  0
VERTEX
  5
125
  8
THROUGH_CUT
 10
73.18119616035358
 20
25.9570968724423
 30
0.0
 42
0.4142135623730951
  0
VERTEX
  5
126
  8
THROUGH_CUT
 10
73.38119916035356
 20
26.15709987244231
 30
0.0
 42
0.4142135623730689
  0
SEQEND
  5
127
  8
THROUGH_CUT
  0
POLYLINE
  5
4F
  8
THROUGH_CUT
 66
     1
 10
0.0
 20
0.0
 30
0.0
 70
     1
  0
VERTEX
  5
128
  8
THROUGH_CUT
 10
4.799954366200629
 20
4.537923883225313
 30
0.0
 42
0.4142135623730951
  0
VERTEX
  5
129
  8
THROUGH_CUT
 10
4.999957366200625
 20
4.737926883225311
 30
0.0
 42
0.4142135623730951
  0
VERTEX
  5
12A
  8
THROUGH_CUT
 10
4.799954366200629
 20
4.937929883225314
 30
0.0
 42
0.4142135623730951
  0
VERTEX
  5
12B
  8
THROUGH_CUT
 10
4.599951366200634
 20
4.737926883225311
 30
0.0
 42
0.4142135623730951
  0
SEQEND
  5
12C
  8
THROUGH_CUT
  0
POLYLINE
  5
50
  8
THROUGH_CUT
 66
     1
 10
0.0
 20
0.0
 30
0.0
 70
     1
  0
VERTEX
  5
12D
  8
THROUGH_CUT
 10
4.799812366200622
 20
16.53792288322531
 30
0.0
 42
0.4142135623730951
  0
VERTEX
  5
12E
  8
THROUGH_CUT
 10
4.999815366200617
 20
16.73792588322531
 30
0.0
 42
0.4142135623730951
  0
VERTEX
  5
12F
  8
THROUGH_CUT
 10
4.799812366200622
 20
16.93792888322531
 30
0.0
 42
0.4142135623730951
  0
VERTEX
  5
130
  8
THROUGH_CUT
 10
4.599809366200627
 20
16.73792588322531
 30
0.0
 42
0.4142135623730951
  0
SEQEND
  5
131
  8
THROUGH_CUT
  0
POLYLINE
  5
51
  8
THROUGH_CUT
 66
     1
 10
0.0
 20
0.0
 30
0.0
 70
     1
  0
VERTEX
  5
132
  8
THROUGH_CUT
 10
2.799346002466222
 20
42.54224407978539
 30
0.0
  0
VERTEX
  5
133
  8
THROUGH_CUT
 10
2.799346002466222
 20
41.79224407978539
 30
0.0
 42
0.4142135623731225
  0
VERTEX
  5
134
  8
THROUGH_CUT
 10
2.989346049966218
 20
41.60224412728539
 30
0.0
 42
0.4142135623731401
  0
VERTEX
  5
135
  8
THROUGH_CUT
 10
3.179346002466211
 20
41.7922441747854
 30
0.0
  0
VERTEX
  5
136
  8
THROUGH_CUT
 10
6.419346002466237
 20
41.7922449847854
 30
0.0
 42
0.4142135623731198
  0
VERTEX
  5
137
  8
THROUGH_CUT
 10
6.609346049966224
 20
41.6022450322854
 30
0.0
 42
0.4142135623731279
  0
VERTEX
  5
138
  8
THROUGH_CUT
 10
6.799346002466222
 20
41.7922450797854
 30
0.0
  0
VERTEX
  5
139
  8
THROUGH_CUT
 10
6.799346002466222
 20
42.54224407978539
 30
0.0
 42
1.0
  0
VERTEX
  5
13A
  8
THROUGH_CUT
 10
6.419346002466223
 20
42.54224407978539
 30
0.0
  0
VERTEX
  5
13B
  8
THROUGH_CUT
 10
3.179346002466223
 20
42.54224407978539
 30
0.0
 42
1.0
  0
SEQEND
  5
13C
  8
THROUGH_CUT
  0
POLYLINE
  5
52
  8
THROUGH_CUT
 66
     1
 10
0.0
 20
0.0
 30
0.0
 70
     1
  0
VERTEX
  5
13D
  8
THROUGH_CUT
 10
30.83333242013886
 20
42.45910096161551
 30
0.0
  0
VERTEX
  5
13E
  8
THROUGH_CUT
 10
30.11685250593028
 20
42.23738823637031
 30
0.0
 42
0.414213562373117
  0
VERTEX
  5
13F
  8
THROUGH_CUT
 10
29.99151148472621
 20
41.99971276770868
 30
0.0
 42
0.4142135623731082
  0
VERTEX
  5
140
  8
THROUGH_CUT
 10
30.22918695338785
 20
41.87437174650462
 30
0.0
  0
VERTEX
  5
141
  8
THROUGH_CUT
 10
31.18698592644714
 20
38.77917851712353
 30
0.0
 42
0.414213562373117
  0
VERTEX
  5
142
  8
THROUGH_CUT
 10
31.06164490524307
 20
38.54150304846188
 30
0.0
 42
0.4142135623731258
  0
VERTEX
  5
143
  8
THROUGH_CUT
 10
31.29932037390471
 20
38.41616202725783
 30
0.0
  0
VERTEX
  5
144
  8
THROUGH_CUT
 10
32.01580124341984
 20
38.63787504812001
 30
0.0
 42
0.4142135623730744
  0
VERTEX
  5
145
  8
THROUGH_CUT
 10
32.14114220520502
 20
38.87555054811688
 30
0.0
 42
0.4142135623730472
  0
VERTEX
  5
146
  8
THROUGH_CUT
 10
31.90346670520815
 20
39.00089150990207
 30
0.0
  0
VERTEX
  5
147
  8
THROUGH_CUT
 10
30.94566695835056
 20
42.09608449983345
 30
0.0
 42
0.4142135623731301
  0
VERTEX
  5
148
  8
THROUGH_CUT
 10
31.07100792013573
 20
42.33375999983033
 30
0.0
 42
0.414213562373152
  0
SEQEND
  5
149
  8
THROUGH_CUT
  0
POLYLINE
  5
53
  8
THROUGH_CUT
 66
     1
 10
0.0
 20
0.0
 30
0.0
 70
     1
  0
VERTEX
  5
14A
  8
THROUGH_CUT
 10
2.799429205425044
 20
23.29224405665217
 30
0.0
  0
VERTEX
  5
14B
  8
THROUGH_CUT
 10
2.799429205425044
 20
22.54224405665217
 30
0.0
 42
0.4142135623730953
  0
VERTEX
  5
14C
  8
THROUGH_CUT
 10
2.989429252925038
 20
22.35224410415217
 30
0.0
 42
0.4142135623730914
  0
VERTEX
  5
14D
  8
THROUGH_CUT
 10
3.179429205425034
 20
22.54224415165217
 30
0.0
  0
VERTEX
  5
14E
  8
THROUGH_CUT
 10
6.419429205425061
 20
22.54224496165218
 30
0.0
 42
1.0
  0
VERTEX
  5
14F
  8
THROUGH_CUT
 10
6.799429205425045
 20
22.54224505665217
 30
0.0
  0
VERTEX
  5
150
  8
THROUGH_CUT
 10
6.799429205425045
 20
23.29224405665217
 30
0.0
 42
1.0
  0
VERTEX
  5
151
  8
THROUGH_CUT
 10
6.419429205425046
 20
23.29224405665217
 30
0.0
  0
VERTEX
  5
152
  8
THROUGH_CUT
 10
3.179429205425046
 20
23.29224405665217
 30
0.0
 42
1.0
  0
SEQEND
  5
153
  8
THROUGH_CUT
  0
POLYLINE
  5
54
  8
THROUGH_CUT
 66
     1
 10
0.0
 20
0.0
 30
0.0
 70
     1
  0
VERTEX
  5
154
  8
THROUGH_CUT
 10
60.84544706693392
 20
43.41410770564188
 30
0.0
  0
VERTEX
  5
155
  8
THROUGH_CUT
 10
60.11441171735587
 20
43.58170041928803
 30
0.0
 42
0.4142135623731041
  0
VERTEX
  5
156
  8
THROUGH_CUT
 10
59.88675927467238
 20
43.4389616181853
 30
0.0
 42
0.4142135623731134
  0
VERTEX
  5
157
  8
THROUGH_CUT
 10
60.02949807577514
 20
43.21130917550183
 30
0.0
  0
VERTEX
  5
158
  8
THROUGH_CUT
 10
59.30549755282371
 20
40.0532364653246
 30
0.0
 42
0.4142135623731317
  0
VERTEX
  5
159
  8
THROUGH_CUT
 10
59.07784511014022
 20
39.91049766422189
 30
0.0
 42
0.4142135623731681
  0
VERTEX
  5
15A
  8
THROUGH_CUT
 10
59.22058391124295
 20
39.68284522153839
 30
0.0
  0
VERTEX
  5
15B
  8
THROUGH_CUT
 10
59.95162023553481
 20
39.51525228443527
 30
0.0
 42
0.9999999999999616
  0
VERTEX
  5
15C
  8
THROUGH_CUT
 10
60.03653378451772
 20
39.8856435494499
 30
0.0
  0
VERTEX
  5
15D
  8
THROUGH_CUT
 10
60.76053351795098
 20
43.04371644062726
 30
0.0
 42
0.4142135623731773
  0
VERTEX
  5
15E
  8
THROUGH_CUT
 10
60.98818592494981
 20
43.18645529864308
 30
0.0
 42
0.4142135623732413
  0
SEQEND
  5
15F
  8
THROUGH_CUT
  0
POLYLINE
  5
55
  8
THROUGH_CUT
 66
     1
 10
0.0
 20
0.0
 30
0.0
 70
     1
  0
VERTEX
  5
160
  8
THROUGH_CUT
 10
65.92681145345838
 20
30.86908884713641
 30
0.0
  0
VERTEX
  5
161
  8
THROUGH_CUT
 10
65.21034776838937
 20
31.09085401116662
 30
0.0
 42
0.4142135623731432
  0
VERTEX
  5
162
  8
THROUGH_CUT
 10
64.97266312661753
 20
30.96553038583681
 30
0.0
 42
0.4142135623731694
  0
VERTEX
  5
163
  8
THROUGH_CUT
 10
65.09798675194739
 20
30.727845744065
 30
0.0
  0
VERTEX
  5
164
  8
THROUGH_CUT
 10
64.13996124333684
 20
27.63272262456692
 30
0.0
 42
0.4142135623731126
  0
VERTEX
  5
165
  8
THROUGH_CUT
 10
63.90227660156501
 20
27.50739899923712
 30
0.0
 42
0.4142135623731213
  0
VERTEX
  5
166
  8
THROUGH_CUT
 10
64.02760022689483
 20
27.2697143574653
 30
0.0
  0
VERTEX
  5
167
  8
THROUGH_CUT
 10
64.74406486724874
 20
27.04794889774819
 30
0.0
 42
0.9999999999998435
  0
VERTEX
  5
168
  8
THROUGH_CUT
 10
64.85642579293867
 20
27.41095719294006
 30
0.0
  0
VERTEX
  5
169
  8
THROUGH_CUT
 10
65.81445052776843
 20
30.50608055194455
 30
0.0
 42
0.4142135623731258
  0
VERTEX
  5
16A
  8
THROUGH_CUT
 10
66.05213513820935
 20
30.6314042366955
 30
0.0
 42
0.414213562373187
  0
SEQEND
  5
16B
  8
THROUGH_CUT
  0
POLYLINE
  5
56
  8
THROUGH_CUT
 66
     1
 10
0.0
 20
0.0
 30
0.0
 70
     1
  0
VERTEX
  5
16C
  8
THROUGH_CUT
 10
35.93362735048845
 20
32.21764956399272
 30
0.0
  0
VERTEX
  5
16D
  8
THROUGH_CUT
 10
35.2022547996283
 20
32.05153456813642
 30
0.0
 42
0.4142135623731087
  0
VERTEX
  5
16E
  8
THROUGH_CUT
 10
35.05905621902731
 20
31.82417105630159
 30
0.0
 42
0.414213562373127
  0
VERTEX
  5
16F
  8
THROUGH_CUT
 10
35.28641973086215
 20
31.68097247570062
 30
0.0
  0
VERTEX
  5
170
  8
THROUGH_CUT
 10
36.00403651296129
 20
28.52144305598481
 30
0.0
 42
0.4142135623730951
  0
VERTEX
  5
171
  8
THROUGH_CUT
 10
35.86083793236027
 20
28.29407954415
 30
0.0
 42
0.4142135623731135
  0
VERTEX
  5
172
  8
THROUGH_CUT
 10
36.0882014441951
 20
28.150880963549
 30
0.0
  0
VERTEX
  5
173
  8
THROUGH_CUT
 10
36.81957497021865
 20
28.31699618089193
 30
0.0
 42
0.9999999999999425
  0
VERTEX
  5
174
  8
THROUGH_CUT
 10
36.73540994634427
 20
28.6875582522865
 30
0.0
  0
VERTEX
  5
175
  8
THROUGH_CUT
 10
36.01779237436281
 20
31.84708749259813
 30
0.0
 42
0.414213562373118
  0
VERTEX
  5
176
  8
THROUGH_CUT
 10
36.16099089812293
 20
32.0744510402326
 30
0.0
 42
0.4142135623731135
  0
SEQEND
  5
177
  8
THROUGH_CUT
  0
POLYLINE
  5
57
  8
THROUGH_CUT
 66
     1
 10
0.0
 20
0.0
 30
0.0
 70
     1
  0
VERTEX
  5
178
  8
THROUGH_CUT
 10
30.60564973159264
 20
20.84953357395264
 30
0.0
  0
VERTEX
  5
179
  8
THROUGH_CUT
 10
29.8883774076356
 20
20.63039796916588
 30
0.0
 42
0.4142135623731038
  0
VERTEX
  5
17A
  8
THROUGH_CUT
 10
29.76218277211245
 20
20.39317462721745
 30
0.0
 42
0.4142135623731081
  0
VERTEX
  5
17B
  8
THROUGH_CUT
 10
29.99940611406089
 20
20.26697999169431
 30
0.0
  0
VERTEX
  5
17C
  8
THROUGH_CUT
 10
30.94607192673966
 20
17.16836355219986
 30
0.0
 42
0.4142135623731215
  0
VERTEX
  5
17D
  8
THROUGH_CUT
 10
30.81987729121649
 20
16.93114021025144
 30
0.0
 42
0.4142135623731169
  0
VERTEX
  5
17E
  8
THROUGH_CUT
 10
31.05710063316491
 20
16.80494557472828
 30
0.0
  0
VERTEX
  5
17F
  8
THROUGH_CUT
 10
31.77437391348506
 20
17.02408147169582
 30
0.0
 42
0.9999999999999609
  0
VERTEX
  5
180
  8
THROUGH_CUT
 10
31.66334511620528
 20
17.3874994214102
 30
0.0
  0
VERTEX
  5
181
  8
THROUGH_CUT
 10
30.71667852887241
 20
20.48611562423823
 30
0.0
 42
0.4142135623731127
  0
VERTEX
  5
182
  8
THROUGH_CUT
 10
30.84287310508974
 20
20.72333899773532
 30
0.0
 42
0.4142135623731127
  0
SEQEND
  5
183
  8
THROUGH_CUT
  0
POLYLINE
  5
58
  8
THROUGH_CUT
 66
     1
 10
0.0
 20
0.0
 30
0.0
 70
     1
  0
VERTEX
  5
184
  8
THROUGH_CUT
 10
60.61684766349366
 20
21.69857502716382
 30
0.0
  0
VERTEX
  5
185
  8
THROUGH_CUT
 10
59.88606898567974
 20
21.86728342663621
 30
0.0
 42
0.4142135623731041
  0
VERTEX
  5
186
  8
THROUGH_CUT
 10
59.65819892610051
 20
21.72489228945638
 30
0.0
 42
0.4142135623731407
  0
VERTEX
  5
187
  8
THROUGH_CUT
 10
59.80059006328037
 20
21.49702222987717
 30
0.0
  0
VERTEX
  5
188
  8
THROUGH_CUT
 10
59.07176977755957
 20
18.34005834172104
 30
0.0
 42
0.4142135623731041
  0
VERTEX
  5
189
  8
THROUGH_CUT
 10
58.84389971798033
 20
18.19766720454122
 30
0.0
 42
0.4142135623731362
  0
VERTEX
  5
18A
  8
THROUGH_CUT
 10
58.98629085516018
 20
17.96979714496199
 30
0.0
  0
VERTEX
  5
18B
  8
THROUGH_CUT
 10
59.71707050734566
 20
17.80108852054504
 30
0.0
 42
0.9999999999999424
  0
VERTEX
  5
18C
  8
THROUGH_CUT
 10
59.80254933717973
 20
18.17134973867382
 30
0.0
  0
VERTEX
  5
18D
  8
THROUGH_CUT
 10
60.53136883365957
 20
21.32831380903504
 30
0.0
 42
0.414213562373127
  0
VERTEX
  5
18E
  8
THROUGH_CUT
 10
60.75923885764102
 20
21.47070500318239
 30
0.0
 42
0.4142135623731041
  0
SEQEND
  5
18F
  8
THROUGH_CUT
  0
POLYLINE
  5
59
  8
THROUGH_CUT
 66
     1
 10
0.0
 20
0.0
 30
0.0
 70
     1
  0
VERTEX
  5
190
  8
THROUGH_CUT
 10
47.32621479243731
 20
7.132560313759733
 30
0.0
  0
VERTEX
  5
191
  8
THROUGH_CUT
 10
46.57621479243731
 20
7.132560313759711
 30
0.0
 42
0.4142135623731198
  0
VERTEX
  5
192
  8
THROUGH_CUT
 10
46.38621479243729
 20
6.942560313759714
 30
0.0
 42
0.4142135623731198
  0
VERTEX
  5
193
  8
THROUGH_CUT
 10
46.57621479243731
 20
6.752560313759716
 30
0.0
  0
VERTEX
  5
194
  8
THROUGH_CUT
 10
46.57621479243733
 20
3.512560313759709
 30
0.0
 42
0.4142135623730896
  0
VERTEX
  5
195
  8
THROUGH_CUT
 10
46.38621479243729
 20
3.322560313759729
 30
0.0
 42
0.4142135623731094
  0
VERTEX
  5
196
  8
THROUGH_CUT
 10
46.57621479243729
 20
3.132560313759708
 30
0.0
  0
VERTEX
  5
197
  8
THROUGH_CUT
 10
47.32621579243729
 20
3.132560313759701
 30
0.0
 42
0.9999999999999813
  0
VERTEX
  5
198
  8
THROUGH_CUT
 10
47.32621569743729
 20
3.512560313759702
 30
0.0
  0
VERTEX
  5
199
  8
THROUGH_CUT
 10
47.32621488743728
 20
6.752560313759723
 30
0.0
 42
0.4142135623731279
  0
VERTEX
  5
19A
  8
THROUGH_CUT
 10
47.51621483993732
 20
6.942560361259716
 30
0.0
 42
0.4142135623731416
  0
SEQEND
  5
19B
  8
THROUGH_CUT
  0
POLYLINE
  5
5A
  8
THROUGH_CUT
 66
     1
 10
0.0
 20
0.0
 30
0.0
 70
     1
  0
VERTEX
  5
19C
  8
THROUGH_CUT
 10
71.70121481618727
 20
7.132560313759721
 30
0.0
  0
VERTEX
  5
19D
  8
THROUGH_CUT
 10
70.95121481618727
 20
7.1325603137597
 30
0.0
 42
1.0
  0
VERTEX
  5
19E
  8
THROUGH_CUT
 10
70.95121481618727
 20
6.752560313759704
 30
0.0
  0
VERTEX
  5
19F
  8
THROUGH_CUT
 10
70.9512148161873
 20
3.512560313759699
 30
0.0
 42
0.4142135623731027
  0
VERTEX
  5
1A0
  8
THROUGH_CUT
 10
70.76121481618728
 20
3.322560313759712
 30
0.0
 42
0.4142135623731675
  0
VERTEX
  5
1A1
  8
THROUGH_CUT
 10
70.95121481618727
 20
3.132560313759696
 30
0.0
  0
VERTEX
  5
1A2
  8
THROUGH_CUT
 10
71.70121581618727
 20
3.132560313759689
 30
0.0
 42
1.0
  0
VERTEX
  5
1A3
  8
THROUGH_CUT
 10
71.70121572118725
 20
3.512560313759692
 30
0.0
  0
VERTEX
  5
1A4
  8
THROUGH_CUT
 10
71.70121491118726
 20
6.752560313759712
 30
0.0
 42
0.414213562373084
  0
VERTEX
  5
1A5
  8
THROUGH_CUT
 10
71.89121486368731
 20
6.942560361259712
 30
0.0
 42
0.4142135623730856
  0
SEQEND
  5
1A6
  8
THROUGH_CUT
  0
POLYLINE
  5
5B
  8
THROUGH_CUT
 66
     1
 10
0.0
 20
0.0
 30
0.0
 70
     1
  0
VERTEX
  5
1A7
  8
THROUGH_CUT
 10
90.95121481618727
 20
7.13256031375972
 30
0.0
  0
VERTEX
  5
1A8
  8
THROUGH_CUT
 10
90.20121481618727
 20
7.132560313759699
 30
0.0
 42
1.0
  0
VERTEX
  5
1A9
  8
THROUGH_CUT
 10
90.20121481618727
 20
6.752560313759704
 30
0.0
  0
VERTEX
  5
1AA
  8
THROUGH_CUT
 10
90.2012148161873
 20
3.512560313759696
 30
0.0
 42
0.4142135623731019
  0
VERTEX
  5
1AB
  8
THROUGH_CUT
 10
90.01121481618728
 20
3.32256031375971
 30
0.0
 42
0.4142135623731655
  0
VERTEX
  5
1AC
  8
THROUGH_CUT
 10
90.20121481618727
 20
3.132560313759695
 30
0.0
  0
VERTEX
  5
1AD
  8
THROUGH_CUT
 10
90.95121581618727
 20
3.132560313759688
 30
0.0
 42
1.0
  0
VERTEX
  5
1AE
  8
THROUGH_CUT
 10
90.95121572118725
 20
3.512560313759689
 30
0.0
  0
VERTEX
  5
1AF
  8
THROUGH_CUT
 10
90.95121491118726
 20
6.752560313759711
 30
0.0
 42
0.4142135623730827
  0
VERTEX
  5
1B0
  8
THROUGH_CUT
 10
91.14121486368731
 20
6.94256036125971
 30
0.0
 42
0.4142135623730814
  0
SEQEND
  5
1B1
  8
THROUGH_CUT
  0
POLYLINE
  5
5C
  8
THROUGH_CUT
 66
     1
 10
0.0
 20
0.0
 30
0.0
 70
     1
  0
VERTEX
  5
1B2
  8
THROUGH_CUT
 10
23.229646
 20
31.383282
 30
0.0
  0
VERTEX
  5
1B3
  8
THROUGH_CUT
 10
35.04854155937545
 20
34.06749348913685
 30
0.0
 42
-0.1992763357268335
  0
VERTEX
  5
1B4
  8
THROUGH_CUT
 10
80.38987772060116
 20
26.34422280967782
 30
0.0
  0
VERTEX
  5
1B5
  8
THROUGH_CUT
 10
84.72353257789572
 20
20.54205235998269
 30
0.0
 42
-0.686768731860125
  0
VERTEX
  5
1B6
  8
THROUGH_CUT
 10
83.23132676271067
 20
18.17281841830022
 30
0.0
  0
VERTEX
  5
1B7
  8
THROUGH_CUT
 10
76.12637120392235
 20
19.57498967065334
 30
0.0
 42
0.1992763356354241
  0
VERTEX
  5
1B8
  8
THROUGH_CUT
 10
36.82580013770187
 20
26.26740855771975
 30
0.0
  0
VERTEX
  5
1B9
  8
THROUGH_CUT
 10
25.00142341035355
 20
23.5819486224423
 30
0.0
  0
VERTEX
  5
1BA
  8
THROUGH_CUT
 10
17.8342668058225
 20
24.62045724762783
 30
0.0
 42
-0.6867687382814167
  0
VERTEX
  5
1BB
  8
THROUGH_CUT
 10
17.21415980732837
 20
27.35091796652073
 30
0.0
  0
SEQEND
  5
1BC
  8
THROUGH_CUT
  0
POLYLINE
  5
5D
  8
THROUGH_CUT
 66
     1
 10
0.0
 20
0.0
 30
0.0
 70
     1
  0
VERTEX
  5
1BD
  8
THROUGH_CUT
 10
15.65343589570099
 20
37.71530118328832
 30
0.0
  0
VERTEX
  5
1BE
  8
THROUGH_CUT
 10
11.31860852605248
 20
31.91394482717584
 30
0.0
 42
0.6867687318601292
  0
VERTEX
  5
1BF
  8
THROUGH_CUT
 10
12.81035452615309
 20
29.54442155110929
 30
0.0
  0
VERTEX
  5
1C0
  8
THROUGH_CUT
 10
19.91559103862918
 20
30.94521668199026
 30
0.0
 42
-0.0583006101824584
  0
VERTEX
  5
1C1
  8
THROUGH_CUT
 10
30.82275897278436
 20
36.1523296850637
 30
0.0
 42
-0.206403219469899
  0
VERTEX
  5
1C2
  8
THROUGH_CUT
 10
71.87747834144685
 20
32.93640622129573
 30
0.0
  0
VERTEX
  5
1C3
  8
THROUGH_CUT
 10
79.06901484412768
 20
32.08315703243584
 30
0.0
 42
0.6867687318601295
  0
VERTEX
  5
1C4
  8
THROUGH_CUT
 10
80.37515982325269
 20
34.55983471941037
 30
0.0
  0
VERTEX
  5
1C5
  8
THROUGH_CUT
 10
75.60929823566609
 20
40.01267145504494
 30
0.0
 42
0.2679341572326668
  0
SEQEND
  5
1C6
  8
THROUGH_CUT
  0
POLYLINE
  5
5E
  8
THROUGH_CUT
 66
     1
 10
0.0
 20
0.0
 30
0.0
 70
     1
  0
VERTEX
  5
1C7
  8
THROUGH_CUT
 10
0.799429
 20
10.735592
 30
0.0
  0
VERTEX
  5
1C8
  8
THROUGH_CUT
 10
3.403615808584027
 20
3.97802001784353
 30
0.0
 42
0.6867687382814196
  0
VERTEX
  5
1C9
  8
THROUGH_CUT
 10
6.203605298645636
 20
3.979752721762081
 30
0.0
  0
VERTEX
  5
1CA
  8
THROUGH_CUT
 10
8.799429205425042
 20
10.74054407978539
 30
0.0
  0
VERTEX
  5
1CB
  8
THROUGH_CUT
 10
8.799429205425042
 20
36.2735430797854
 30
0.0
  0
VERTEX
  5
1CC
  8
THROUGH_CUT
 10
8.799429205425042
 20
45.04239113284734
 30
0.0
 42
0.4142105919715613
  0
VERTEX
  5
1CD
  8
THROUGH_CUT
 10
7.299444417818739
 20
46.54239113277021
 30
0.0
  0
VERTEX
  5
1CE
  8
THROUGH_CUT
 10
0.799429
 20
46.542457
 30
0.0
  0
SEQEND
  5
1CF
  8
THROUGH_CUT
  0
POLYLINE
  5
5F
  8
THROUGH_CUT
 66
     1
 10
0.0
 20
0.0
 30
0.0
 70
     1
  0
VERTEX
  5
1D0
  8
THROUGH_CUT
 10
15.4144335347224
 20
16.16069172115446
 30
0.0
  0
VERTEX
  5
1D1
  8
THROUGH_CUT
 10
11.05333995125959
 20
10.37349233300309
 30
0.0
 42
0.6867687318601292
  0
VERTEX
  5
1D2
  8
THROUGH_CUT
 10
12.53671855777871
 20
7.998722003303785
 30
0.0
  0
VERTEX
  5
1D3
  8
THROUGH_CUT
 10
19.64685180355745
 20
9.374444018917758
 30
0.0
 42
-0.1217647345272361
  0
VERTEX
  5
1D4
  8
THROUGH_CUT
 10
43.36804154016098
 20
17.13049776160669
 30
0.0
 42
-0.1415664106876182
  0
VERTEX
  5
1D5
  8
THROUGH_CUT
 10
71.61543230626498
 20
11.18076663385978
 30
0.0
  0
VERTEX
  5
1D6
  8
THROUGH_CUT
 10
78.80376161342957
 20
10.30146155922953
 30
0.0
 42
0.6867687318601311
  0
VERTEX
  5
1D7
  8
THROUGH_CUT
 10
80.11883453601615
 20
12.77341023944286
 30
0.0
  0
VERTEX
  5
1D8
  8
THROUGH_CUT
 10
75.37239811855109
 20
18.24371228575441
 30
0.0
 42
0.2679523678420804
  0
SEQEND
  5
1D9
  8
THROUGH_CUT
  0
POLYLINE
  5
60
  8
THROUGH_CUT
 66
     1
 10
0.0
 20
0.0
 30
0.0
 70
     1
  0
VERTEX
  5
1DA
  8
THROUGH_CUT
 10
31.42207122743869
 20
3.177146892764384
 30
0.0
 42
0.0655458247501085
  0
VERTEX
  5
1DB
  8
THROUGH_CUT
 10
46.95179359439967
 20
1.132547000000072
 30
0.0
  0
VERTEX
  5
1DC
  8
THROUGH_CUT
 10
94.951215
 20
1.132561
 30
0.0
  0
VERTEX
  5
1DD
  8
THROUGH_CUT
 10
94.95121529243727
 20
7.63256031375971
 30
0.0
 42
0.4142135623734392
  0
VERTEX
  5
1DE
  8
THROUGH_CUT
 10
93.45121529243727
 20
9.13256031375971
 30
0.0
  0
VERTEX
  5
1DF
  8
THROUGH_CUT
 10
84.66837229243728
 20
9.13256031375971
 30
0.0
  0
VERTEX
  5
1E0
  8
THROUGH_CUT
 10
46.95179223712904
 20
9.132547490081553
 30
0.0
 42
-0.0655458231887414
  0
VERTEX
  5
1E1
  8
THROUGH_CUT
 10
33.49269568357118
 20
10.90453466079638
 30
0.0
  0
VERTEX
  5
1E2
  8
THROUGH_CUT
 10
26.29091889319811
 20
10.14311759041604
 30
0.0
 42
0.6867687382814227
  0
VERTEX
  5
1E3
  8
THROUGH_CUT
 10
25.5660494360006
 20
7.438582504356214
 30
0.0
  0
SEQEND
  5
1E4
  8
THROUGH_CUT
  0
POLYLINE
  5
62
  8
CUT_HALFWAY_THROUGH
 66
     1
 10
0.0
 20
0.0
 30
0.0
  0
VERTEX
  5
1E5
  8
CUT_HALFWAY_THROUGH
 10
75.47691908047088
 20
18.04187329073532
 30
0.0
  0
VERTEX
  5
1E6
  8
CUT_HALFWAY_THROUGH
 10
68.16154549339319
 20
18.93651195050241
 30
0.0
 42
0.686768731860128
  0
VERTEX
  5
1E7
  8
CUT_HALFWAY_THROUGH
 10
67.01088016375081
 20
16.77354388655172
 30
0.0
  0
VERTEX
  5
1E8
  8
CUT_HALFWAY_THROUGH
 10
71.84085880682719
 20
11.20706179260195
 30
0.0
  0
VERTEX
  5
1E9
  8
CUT_HALFWAY_THROUGH
 10
71.75941452820683
 20
11.3520533591326
 30
0.0
  0
VERTEX
  5
1EA
  8
CUT_HALFWAY_THROUGH
 10
78.8265853789211
 20
10.48768957799159
 30
0.0
 42
0.6867687318601305
  0
VERTEX
  5
1EB
  8
CUT_HALFWAY_THROUGH
 10
79.97727454896017
 20
12.65064441897962
 30
0.0
  0
VERTEX
  5
1EC
  8
CUT_HALFWAY_THROUGH
 10
75.3111660416493
 20
18.0283850020593
 30
0.0
  0
VERTEX
  5
1ED
  8
CUT_HALFWAY_THROUGH
 10
75.16020189987202
 20
17.74461289476991
 30
0.0
  0
VERTEX
  5
1EE
  8
CUT_HALFWAY_THROUGH
 10
79.75068000071846
 20
12.45403548915436
 30
0.0
 42
-0.6867687318601206
  0
VERTEX
  5
1EF
  8
CUT_HALFWAY_THROUGH
 10
78.86300627459158
 20
10.78547103300737
 30
0.0
  0
VERTEX
  5
1F0
  8
CUT_HALFWAY_THROUGH
 10
71.86074883918755
 20
11.64189544666141
 30
0.0
  0
VERTEX
  5
1F1
  8
CUT_HALFWAY_THROUGH
 10
67.23747286398586
 20
16.97015401862265
 30
0.0
 42
-0.6867687318601274
  0
VERTEX
  5
1F2
  8
CUT_HALFWAY_THROUGH
 10
68.12512825916977
 20
18.63873062816674
 30
0.0
  0
VERTEX
  5
1F3
  8
CUT_HALFWAY_THROUGH
 10
75.1274333725178
 20
17.78237828146244
 30
0.0
  0
VERTEX
  5
1F4
  8
CUT_HALFWAY_THROUGH
 10
74.9764691474262
 20
17.49860517764974
 30
0.0
  0
VERTEX
  5
1F5
  8
CUT_HALFWAY_THROUGH
 10
68.08871052668465
 20
18.34094934748826
 30
0.0
 42
0.6867687318601214
  0
VERTEX
  5
1F6
  8
CUT_HALFWAY_THROUGH
 10
67.464064820224
 20
17.16676552736047
 30
0.0
  0
VERTEX
  5
1F7
  8
CUT_HALFWAY_THROUGH
 10
72.01171289765048
 20
11.92566655742748
 30
0.0
  0
VERTEX
  5
1F8
  8
CUT_HALFWAY_THROUGH
 10
78.89942712860486
 20
11.0832519897615
 30
0.0
 42
0.6867687318601277
  0
VERTEX
  5
1F9
  8
CUT_HALFWAY_THROUGH
 10
79.52408634025014
 20
12.25742635290662
 30
0.0
  0
VERTEX
  5
1FA
  8
CUT_HALFWAY_THROUGH
 10
75.00923667825711
 20
17.46083987427156
 30
0.0
  0
VERTEX
  5
1FB
  8
CUT_HALFWAY_THROUGH
 10
74.85827245316551
 20
17.17706677045886
 30
0.0
  0
VERTEX
  5
1FC
  8
CUT_HALFWAY_THROUGH
 10
79.29749174979037
 20
12.06081745166786
 30
0.0
 42
-0.6867687318601224
  0
VERTEX
  5
1FD
  8
CUT_HALFWAY_THROUGH
 10
78.93584748435651
 20
11.3810329881728
 30
0.0
  0
VERTEX
  5
1FE
  8
CUT_HALFWAY_THROUGH
 10
72.16267703942773
 20
12.20943866471686
 30
0.0
  0
VERTEX
  5
1FF
  8
CUT_HALFWAY_THROUGH
 10
67.69065677646219
 20
17.36337703609829
 30
0.0
 42
-0.6867687318601302
  0
VERTEX
  5
200
  8
CUT_HALFWAY_THROUGH
 10
68.05229325080404
 20
18.04316752689093
 30
0.0
  0
VERTEX
  5
201
  8
CUT_HALFWAY_THROUGH
 10
74.82550400912561
 20
17.2148331536747
 30
0.0
  0
VERTEX
  5
202
  8
CUT_HALFWAY_THROUGH
 10
74.67453978403401
 20
16.93106004986201
 30
0.0
  0
VERTEX
  5
203
  8
CUT_HALFWAY_THROUGH
 10
68.01587601658062
 20
17.74538620455527
 30
0.0
 42
0.6867687318601985
  0
VERTEX
  5
204
  8
CUT_HALFWAY_THROUGH
 10
67.91724873270036
 20
17.5599885448361
 30
0.0
  0
VERTEX
  5
205
  8
CUT_HALFWAY_THROUGH
 10
72.31364109789067
 20
12.49320977548291
 30
0.0
  0
VERTEX
  5
206
  8
CUT_HALFWAY_THROUGH
 10
78.97226833836982
 20
11.67881394492692
 30
0.0
 42
0.6867687318600951
  0
VERTEX
  5
207
  8
CUT_HALFWAY_THROUGH
 10
79.0708981315401
 20
11.86420828683363
 30
0.0
  0
VERTEX
  5
208
  8
CUT_HALFWAY_THROUGH
 10
74.70730731486495
 20
16.89329474648383
 30
0.0
  0
VERTEX
  5
209
  8
CUT_HALFWAY_THROUGH
 10
74.55634308977329
 20
16.60952164267113
 30
0.0
  0
VERTEX
  5
20A
  8
CUT_HALFWAY_THROUGH
 10
78.52485134062346
 20
12.03577149513802
 30
0.0
  0
VERTEX
  5
20B
  8
CUT_HALFWAY_THROUGH
 10
72.46460523966792
 20
12.77698188277229
 30
0.0
  0
VERTEX
  5
20C
  8
CUT_HALFWAY_THROUGH
 10
68.46329506006393
 20
17.3884339792607
 30
0.0
  0
VERTEX
  5
20D
  8
CUT_HALFWAY_THROUGH
 10
74.5235745624191
 20
16.64728702936366
 30
0.0
  0
VERTEX
  5
20E
  8
CUT_HALFWAY_THROUGH
 10
74.37261042064182
 20
16.36351492207428
 30
0.0
  0
VERTEX
  5
20F
  8
CUT_HALFWAY_THROUGH
 10
69.2010137441466
 20
16.99597898854162
 30
0.0
  0
VERTEX
  5
210
  8
CUT_HALFWAY_THROUGH
 10
72.61556929813082
 20
13.06075299353836
 30
0.0
  0
VERTEX
  5
211
  8
CUT_HALFWAY_THROUGH
 10
77.78713639593985
 20
12.42823520462393
 30
0.0
  0
VERTEX
  5
212
  8
CUT_HALFWAY_THROUGH
 10
74.40537786815838
 20
16.32574862217279
 30
0.0
  0
VERTEX
  5
213
  8
CUT_HALFWAY_THROUGH
 10
74.25441372638113
 20
16.04197651488341
 30
0.0
  0
VERTEX
  5
214
  8
CUT_HALFWAY_THROUGH
 10
77.04942236446522
 20
12.82069783427217
 30
0.0
  0
VERTEX
  5
215
  8
CUT_HALFWAY_THROUGH
 10
72.76653335659375
 20
13.34452410430441
 30
0.0
  0
VERTEX
  5
216
  8
CUT_HALFWAY_THROUGH
 10
69.93873342475257
 20
16.60352391450817
 30
0.0
  0
VERTEX
  5
217
  8
CUT_HALFWAY_THROUGH
 10
74.22164519902691
 20
16.07974190157592
 30
0.0
  0
VERTEX
  5
218
  8
CUT_HALFWAY_THROUGH
 10
74.07068097393531
 20
15.79596879776324
 30
0.0
  0
VERTEX
  5
219
  8
CUT_HALFWAY_THROUGH
 10
70.67645210883526
 20
16.21106892378907
 30
0.0
  0
VERTEX
  5
21A
  8
CUT_HALFWAY_THROUGH
 10
72.917497498371
 20
13.62829621159379
 30
0.0
  0
VERTEX
  5
21B
  8
CUT_HALFWAY_THROUGH
 10
76.31170733646724
 20
13.21316054723478
 30
0.0
  0
VERTEX
  5
21C
  8
CUT_HALFWAY_THROUGH
 10
74.1034495012895
 20
15.7582034110707
 30
0.0
  0
VERTEX
  5
21D
  8
CUT_HALFWAY_THROUGH
 10
73.95248427967462
 20
15.47443039057237
 30
0.0
  0
VERTEX
  5
21E
  8
CUT_HALFWAY_THROUGH
 10
75.57399239178363
 20
13.60562425672069
 30
0.0
  0
VERTEX
  5
21F
  8
CUT_HALFWAY_THROUGH
 10
73.06846155683394
 20
13.91206732235986
 30
0.0
  0
VERTEX
  5
220
  8
CUT_HALFWAY_THROUGH
 10
71.41417079291793
 20
15.81861393306997
 30
0.0
  0
VERTEX
  5
221
  8
CUT_HALFWAY_THROUGH
 10
73.91971575232037
 20
15.51219577726488
 30
0.0
  0
VERTEX
  5
222
  8
CUT_HALFWAY_THROUGH
 10
73.76875161054312
 20
15.2284236699755
 30
0.0
  0
VERTEX
  5
223
  8
CUT_HALFWAY_THROUGH
 10
72.15188947700062
 20
15.42615894235088
 30
0.0
  0
VERTEX
  5
224
  8
CUT_HALFWAY_THROUGH
 10
73.21942569861119
 20
14.19583942964924
 30
0.0
  0
VERTEX
  5
225
  8
CUT_HALFWAY_THROUGH
 10
74.83627836030897
 20
13.99808688636894
 30
0.0
  0
VERTEX
  5
226
  8
CUT_HALFWAY_THROUGH
 10
73.801520054583
 20
15.19065728675967
 30
0.0
  0
VERTEX
  5
227
  8
CUT_HALFWAY_THROUGH
 10
73.6505549162824
 20
14.90688526278463
 30
0.0
  0
VERTEX
  5
228
  8
CUT_HALFWAY_THROUGH
 10
74.09856341562534
 20
14.39055059585485
 30
0.0
  0
VERTEX
  5
229
  8
CUT_HALFWAY_THROUGH
 10
73.3703897570741
 20
14.4796105404153
 30
0.0
  0
VERTEX
  5
22A
  8
CUT_HALFWAY_THROUGH
 10
72.8896091576066
 20
15.03370386831743
 30
0.0
  0
VERTEX
  5
22B
  8
CUT_HALFWAY_THROUGH
 10
73.61778638892821
 20
14.94465064947715
 30
0.0
  0
VERTEX
  5
22C
  8
CUT_HALFWAY_THROUGH
 10
68.00222008763888
 20
17.63371836477614
 30
0.0
  0
VERTEX
  5
22D
  8
CUT_HALFWAY_THROUGH
 10
78.98592609772064
 20
11.79048055480838
 30
0.0
  0
SEQEND
  5
22E
  8
CUT_HALFWAY_THROUGH
  0
POLYLINE
  5
63
  8
CUT_HALFWAY_THROUGH
 66
     1
 10
0.0
 20
0.0
 30
0.0
  0
VERTEX
  5
22F
  8
CUT_HALFWAY_THROUGH
 10
19.688848450374
 20
30.9550086502656
 30
0.0
  0
VERTEX
  5
230
  8
CUT_HALFWAY_THROUGH
 10
24.10015857053096
 20
36.85885623012715
 30
0.0
 42
0.6867687318601241
  0
VERTEX
  5
231
  8
CUT_HALFWAY_THROUGH
 10
22.79485784503123
 20
38.93217548267037
 30
0.0
  0
VERTEX
  5
232
  8
CUT_HALFWAY_THROUGH
 10
15.56422298034833
 20
37.50657644369915
 30
0.0
  0
VERTEX
  5
233
  8
CUT_HALFWAY_THROUGH
 10
15.73051654583229
 20
37.50521030145355
 30
0.0
  0
VERTEX
  5
234
  8
CUT_HALFWAY_THROUGH
 10
11.46880941352324
 20
31.80171306044754
 30
0.0
 42
0.6867687318601287
  0
VERTEX
  5
235
  8
CUT_HALFWAY_THROUGH
 10
12.77408717669296
 20
29.72838032179548
 30
0.0
  0
VERTEX
  5
236
  8
CUT_HALFWAY_THROUGH
 10
19.75950420040953
 20
31.10555317519732
 30
0.0
  0
VERTEX
  5
237
  8
CUT_HALFWAY_THROUGH
 10
19.58825516289275
 20
31.37756617445577
 30
0.0
  0
VERTEX
  5
238
  8
CUT_HALFWAY_THROUGH
 10
12.71605933979708
 20
30.02271489561665
 30
0.0
 42
-0.6867687318601301
  0
VERTEX
  5
239
  8
CUT_HALFWAY_THROUGH
 10
11.70913092703485
 20
31.62214243677547
 30
0.0
  0
VERTEX
  5
23A
  8
CUT_HALFWAY_THROUGH
 10
15.93169400154535
 20
37.27325205368938
 30
0.0
  0
VERTEX
  5
23B
  8
CUT_HALFWAY_THROUGH
 10
22.85288770854687
 20
38.63784125866027
 30
0.0
 42
-0.6867687318601312
  0
VERTEX
  5
23C
  8
CUT_HALFWAY_THROUGH
 10
23.85983510851773
 20
37.03842450950393
 30
0.0
  0
VERTEX
  5
23D
  8
CUT_HALFWAY_THROUGH
 10
19.63731118252215
 20
31.38723759312735
 30
0.0
  0
VERTEX
  5
23E
  8
CUT_HALFWAY_THROUGH
 10
19.46606114551598
 20
31.65925056043292
 30
0.0
  0
VERTEX
  5
23F
  8
CUT_HALFWAY_THROUGH
 10
23.61951166248096
 20
37.21799228913601
 30
0.0
 42
0.6867687318601287
  0
VERTEX
  5
240
  8
CUT_HALFWAY_THROUGH
 10
22.9109188541462
 20
38.34350745812009
 30
0.0
  0
VERTEX
  5
241
  8
CUT_HALFWAY_THROUGH
 10
16.10294200761989
 20
37.00124002196746
 30
0.0
  0
VERTEX
  5
242
  8
CUT_HALFWAY_THROUGH
 10
11.94945244054642
 20
31.44257181310335
 30
0.0
 42
0.686768731860137
  0
VERTEX
  5
243
  8
CUT_HALFWAY_THROUGH
 10
12.65803131714282
 20
30.31704919090958
 30
0.0
  0
VERTEX
  5
244
  8
CUT_HALFWAY_THROUGH
 10
19.41700612537597
 20
31.64957917371422
 30
0.0
  0
VERTEX
  5
245
  8
CUT_HALFWAY_THROUGH
 10
19.24575708785918
 20
31.92159217297266
 30
0.0
  0
VERTEX
  5
246
  8
CUT_HALFWAY_THROUGH
 10
12.60000344566659
 20
30.61138396469242
 30
0.0
 42
-0.6867687318601199
  0
VERTEX
  5
247
  8
CUT_HALFWAY_THROUGH
 10
12.18977393808158
 20
31.26300168917595
 30
0.0
  0
VERTEX
  5
248
  8
CUT_HALFWAY_THROUGH
 10
16.27419101318381
 20
36.7292280221984
 30
0.0
  0
VERTEX
  5
249
  8
CUT_HALFWAY_THROUGH
 10
22.96894999974552
 20
38.04917365757991
 30
0.0
 42
-0.686768731860121
  0
VERTEX
  5
24A
  8
CUT_HALFWAY_THROUGH
 10
23.37918821644418
 20
37.39756006876809
 30
0.0
  0
VERTEX
  5
24B
  8
CUT_HALFWAY_THROUGH
 10
19.29481210799919
 20
31.93126355969137
 30
0.0
  0
VERTEX
  5
24C
  8
CUT_HALFWAY_THROUGH
 10
19.12356307048241
 20
32.20327655894981
 30
0.0
  0
VERTEX
  5
24D
  8
CUT_HALFWAY_THROUGH
 10
23.13886477040742
 20
37.57712784840018
 30
0.0
 42
0.6867687318601075
  0
VERTEX
  5
24E
  8
CUT_HALFWAY_THROUGH
 10
23.02698114534486
 20
37.75483985703973
 30
0.0
  0
VERTEX
  5
24F
  8
CUT_HALFWAY_THROUGH
 10
16.44543898730549
 20
36.45721698996584
 30
0.0
  0
VERTEX
  5
250
  8
CUT_HALFWAY_THROUGH
 10
12.43009545159319
 20
31.08343106550386
 30
0.0
 42
0.6867687318601189
  0
VERTEX
  5
251
  8
CUT_HALFWAY_THROUGH
 10
12.54197545759267
 20
30.90571806002368
 30
0.0
  0
VERTEX
  5
252
  8
CUT_HALFWAY_THROUGH
 10
19.07450705085302
 20
32.19360514027824
 30
0.0
  0
VERTEX
  5
253
  8
CUT_HALFWAY_THROUGH
 10
18.90325801333624
 20
32.46561813953669
 30
0.0
  0
VERTEX
  5
254
  8
CUT_HALFWAY_THROUGH
 10
12.96218512428472
 20
31.29433777501845
 30
0.0
  0
VERTEX
  5
255
  8
CUT_HALFWAY_THROUGH
 10
16.61668799286942
 20
36.18520499019677
 30
0.0
  0
VERTEX
  5
256
  8
CUT_HALFWAY_THROUGH
 10
22.60677793936594
 20
37.36621755947207
 30
0.0
  0
VERTEX
  5
257
  8
CUT_HALFWAY_THROUGH
 10
18.95231403296563
 20
32.47528955820827
 30
0.0
  0
VERTEX
  5
258
  8
CUT_HALFWAY_THROUGH
 10
18.78106502740171
 20
32.74730155797733
 30
0.0
  0
VERTEX
  5
259
  8
CUT_HALFWAY_THROUGH
 10
21.89963615976228
 20
36.9210210282064
 30
0.0
  0
VERTEX
  5
25A
  8
CUT_HALFWAY_THROUGH
 10
16.78793599894396
 20
35.91319295847484
 30
0.0
  0
VERTEX
  5
25B
  8
CUT_HALFWAY_THROUGH
 10
13.66933218891102
 20
31.73952547064404
 30
0.0
  0
VERTEX
  5
25C
  8
CUT_HALFWAY_THROUGH
 10
18.73200897581945
 20
32.73763113879514
 30
0.0
  0
VERTEX
  5
25D
  8
CUT_HALFWAY_THROUGH
 10
18.56075997025553
 20
33.00964313856421
 30
0.0
  0
VERTEX
  5
25E
  8
CUT_HALFWAY_THROUGH
 10
14.37648022107382
 20
32.18471419771184
 30
0.0
  0
VERTEX
  5
25F
  8
CUT_HALFWAY_THROUGH
 10
16.95918500450788
 20
35.64118095870577
 30
0.0
  0
VERTEX
  5
260
  8
CUT_HALFWAY_THROUGH
 10
21.19249338066928
 20
36.47582446498787
 30
0.0
  0
VERTEX
  5
261
  8
CUT_HALFWAY_THROUGH
 10
18.60981499039554
 20
33.0193145252829
 30
0.0
  0
VERTEX
  5
262
  8
CUT_HALFWAY_THROUGH
 10
18.43856595287877
 20
33.29132752454136
 30
0.0
  0
VERTEX
  5
263
  8
CUT_HALFWAY_THROUGH
 10
20.48535056962336
 20
36.03062890125872
 30
0.0
  0
VERTEX
  5
264
  8
CUT_HALFWAY_THROUGH
 10
17.13043297862957
 20
35.36916992647322
 30
0.0
  0
VERTEX
  5
265
  8
CUT_HALFWAY_THROUGH
 10
15.08362725374725
 20
32.62990289282682
 30
0.0
  0
VERTEX
  5
266
  8
CUT_HALFWAY_THROUGH
 10
18.38950993324938
 20
33.28165610586978
 30
0.0
  0
VERTEX
  5
267
  8
CUT_HALFWAY_THROUGH
 10
18.21826089573258
 20
33.55366910512824
 30
0.0
  0
VERTEX
  5
268
  8
CUT_HALFWAY_THROUGH
 10
15.79077428642067
 20
33.07509158794178
 30
0.0
  0
VERTEX
  5
269
  8
CUT_HALFWAY_THROUGH
 10
17.3016819841935
 20
35.09715792670415
 30
0.0
  0
VERTEX
  5
26A
  8
CUT_HALFWAY_THROUGH
 10
19.77820879001974
 20
35.58543236999304
 30
0.0
  0
VERTEX
  5
26B
  8
CUT_HALFWAY_THROUGH
 10
18.26731691536196
 20
33.56334052379981
 30
0.0
  0
VERTEX
  5
26C
  8
CUT_HALFWAY_THROUGH
 10
18.0960678778452
 20
33.83535352305825
 30
0.0
  0
VERTEX
  5
26D
  8
CUT_HALFWAY_THROUGH
 10
19.07106601092669
 20
35.14023580677451
 30
0.0
  0
VERTEX
  5
26E
  8
CUT_HALFWAY_THROUGH
 10
17.47293098975741
 20
34.82514592693509
 30
0.0
  0
VERTEX
  5
26F
  8
CUT_HALFWAY_THROUGH
 10
16.49792235053634
 20
33.52027931552023
 30
0.0
  0
VERTEX
  5
270
  8
CUT_HALFWAY_THROUGH
 10
18.04701185821581
 20
33.82568210438669
 30
0.0
  0
VERTEX
  5
271
  8
CUT_HALFWAY_THROUGH
 10
17.87576282069902
 20
34.09769510364512
 30
0.0
  0
VERTEX
  5
272
  8
CUT_HALFWAY_THROUGH
 10
17.20506938320976
 20
33.9654680106352
 30
0.0
  0
VERTEX
  5
273
  8
CUT_HALFWAY_THROUGH
 10
17.6441789638791
 20
34.55313489470252
 30
0.0
  0
VERTEX
  5
274
  8
CUT_HALFWAY_THROUGH
 10
18.36392319988083
 20
34.69504024304536
 30
0.0
  0
VERTEX
  5
275
  8
CUT_HALFWAY_THROUGH
 10
17.92481784083903
 20
34.10736649036384
 30
0.0
  0
VERTEX
  5
276
  8
CUT_HALFWAY_THROUGH
 10
23.04874334091547
 20
37.64446512486248
 30
0.0
  0
VERTEX
  5
277
  8
CUT_HALFWAY_THROUGH
 10
12.52021517735346
 20
31.0160924918678
 30
0.0
  0
SEQEND
  5
278
  8
CUT_HALFWAY_THROUGH
  0
POLYLINE
  5
64
  8
CUT_HALFWAY_THROUGH
 66
     1
 10
0.0
 20
0.0
 30
0.0
  0
VERTEX
  5
279
  8
CUT_HALFWAY_THROUGH
 10
24.79080441035355
 20
23.6664906224423
 30
0.0
  0
VERTEX
  5
27A
  8
CUT_HALFWAY_THROUGH
 10
30.91250509217974
 20
27.77012978129914
 30
0.0
 42
0.6867687318601319
  0
VERTEX
  5
27B
  8
CUT_HALFWAY_THROUGH
 10
30.36988914474457
 20
30.15927802689902
 30
0.0
  0
VERTEX
  5
27C
  8
CUT_HALFWAY_THROUGH
 10
23.07621641035355
 20
31.2160446224423
 30
0.0
  0
VERTEX
  5
27D
  8
CUT_HALFWAY_THROUGH
 10
23.23261741035355
 20
31.15952562244231
 30
0.0
  0
VERTEX
  5
27E
  8
CUT_HALFWAY_THROUGH
 10
17.31856846265253
 20
27.19517854059326
 30
0.0
 42
0.6867687318601302
  0
VERTEX
  5
27F
  8
CUT_HALFWAY_THROUGH
 10
17.86115789311111
 20
24.80602485950433
 30
0.0
  0
VERTEX
  5
280
  8
CUT_HALFWAY_THROUGH
 10
24.90744841035355
 20
23.7850236224423
 30
0.0
  0
VERTEX
  5
281
  8
CUT_HALFWAY_THROUGH
 10
24.83626141035355
 20
24.0984716224423
 30
0.0
  0
VERTEX
  5
282
  8
CUT_HALFWAY_THROUGH
 10
17.90417839866308
 20
25.10292442698503
 30
0.0
 42
-0.6867687318601319
  0
VERTEX
  5
283
  8
CUT_HALFWAY_THROUGH
 10
17.48560947147601
 20
26.94598539294227
 30
0.0
  0
VERTEX
  5
284
  8
CUT_HALFWAY_THROUGH
 10
23.34533741035355
 20
30.8739196224423
 30
0.0
  0
VERTEX
  5
285
  8
CUT_HALFWAY_THROUGH
 10
30.32687062912826
 20
29.86237858931839
 30
0.0
 42
-0.6867687318601305
  0
VERTEX
  5
286
  8
CUT_HALFWAY_THROUGH
 10
30.74546122204804
 20
28.01932101641759
 30
0.0
  0
VERTEX
  5
287
  8
CUT_HALFWAY_THROUGH
 10
24.88574441035355
 20
24.09130162244231
 30
0.0
  0
VERTEX
  5
288
  8
CUT_HALFWAY_THROUGH
 10
24.81455641035355
 20
24.4047496224423
 30
0.0
  0
VERTEX
  5
289
  8
CUT_HALFWAY_THROUGH
 10
30.57841735191634
 20
28.26851275153602
 30
0.0
 42
0.6867687318601303
  0
VERTEX
  5
28A
  8
CUT_HALFWAY_THROUGH
 10
30.28385337912094
 20
29.56547874728102
 30
0.0
  0
VERTEX
  5
28B
  8
CUT_HALFWAY_THROUGH
 10
23.41652441035355
 20
30.5604726224423
 30
0.0
  0
VERTEX
  5
28C
  8
CUT_HALFWAY_THROUGH
 10
17.65265048029949
 20
26.69679224529127
 30
0.0
 42
0.686768731860131
  0
VERTEX
  5
28D
  8
CUT_HALFWAY_THROUGH
 10
17.94719888083412
 20
25.39982360355122
 30
0.0
  0
VERTEX
  5
28E
  8
CUT_HALFWAY_THROUGH
 10
24.76507341035355
 20
24.4119196224423
 30
0.0
  0
VERTEX
  5
28F
  8
CUT_HALFWAY_THROUGH
 10
24.69388641035355
 20
24.72536762244231
 30
0.0
  0
VERTEX
  5
290
  8
CUT_HALFWAY_THROUGH
 10
17.99021939252459
 20
25.69672329900848
 30
0.0
 42
-0.6867687318601388
  0
VERTEX
  5
291
  8
CUT_HALFWAY_THROUGH
 10
17.81969148912296
 20
26.44759859764027
 30
0.0
  0
VERTEX
  5
292
  8
CUT_HALFWAY_THROUGH
 10
23.48771141035355
 20
30.2470256224423
 30
0.0
  0
VERTEX
  5
293
  8
CUT_HALFWAY_THROUGH
 10
30.24083612911362
 20
29.26857890524366
 30
0.0
 42
-0.6867687318601307
  0
VERTEX
  5
294
  8
CUT_HALFWAY_THROUGH
 10
30.41137348178464
 20
28.51770398665445
 30
0.0
  0
VERTEX
  5
295
  8
CUT_HALFWAY_THROUGH
 10
24.74336941035355
 20
24.7181976224423
 30
0.0
  0
VERTEX
  5
296
  8
CUT_HALFWAY_THROUGH
 10
24.67218141035355
 20
25.0316456224423
 30
0.0
  0
VERTEX
  5
297
  8
CUT_HALFWAY_THROUGH
 10
30.24433011165294
 20
28.76689572177289
 30
0.0
 42
0.6867687318601378
  0
VERTEX
  5
298
  8
CUT_HALFWAY_THROUGH
 10
30.19781887910629
 20
28.97167906320631
 30
0.0
  0
VERTEX
  5
299
  8
CUT_HALFWAY_THROUGH
 10
23.55889841035355
 20
29.93357962244231
 30
0.0
  0
VERTEX
  5
29A
  8
CUT_HALFWAY_THROUGH
 10
17.98673249794644
 20
26.19840544998926
 30
0.0
 42
0.6867687318601228
  0
VERTEX
  5
29B
  8
CUT_HALFWAY_THROUGH
 10
18.03323986855713
 20
25.99362234759808
 30
0.0
  0
VERTEX
  5
29C
  8
CUT_HALFWAY_THROUGH
 10
24.62269841035355
 20
25.0388156224423
 30
0.0
  0
VERTEX
  5
29D
  8
CUT_HALFWAY_THROUGH
 10
24.55151141035355
 20
25.3522636224423
 30
0.0
  0
VERTEX
  5
29E
  8
CUT_HALFWAY_THROUGH
 10
18.55866541035355
 20
26.22062162244231
 30
0.0
  0
VERTEX
  5
29F
  8
CUT_HALFWAY_THROUGH
 10
23.63008541035355
 20
29.62013262244231
 30
0.0
  0
VERTEX
  5
2A0
  8
CUT_HALFWAY_THROUGH
 10
29.67239841035355
 20
28.7446736224423
 30
0.0
  0
VERTEX
  5
2A1
  8
CUT_HALFWAY_THROUGH
 10
24.60099441035355
 20
25.34509362244231
 30
0.0
  0
VERTEX
  5
2A2
  8
CUT_HALFWAY_THROUGH
 10
24.52980641035355
 20
25.6585416224423
 30
0.0
  0
VERTEX
  5
2A3
  8
CUT_HALFWAY_THROUGH
 10
28.85753741035355
 20
28.5596046224423
 30
0.0
  0
VERTEX
  5
2A4
  8
CUT_HALFWAY_THROUGH
 10
23.70127341035355
 20
29.30668562244231
 30
0.0
  0
VERTEX
  5
2A5
  8
CUT_HALFWAY_THROUGH
 10
19.37352941035355
 20
26.40568162244231
 30
0.0
  0
VERTEX
  5
2A6
  8
CUT_HALFWAY_THROUGH
 10
24.48032341035355
 20
25.66571162244231
 30
0.0
  0
VERTEX
  5
2A7
  8
CUT_HALFWAY_THROUGH
 10
24.40913641035355
 20
25.9791596224423
 30
0.0
  0
VERTEX
  5
2A8
  8
CUT_HALFWAY_THROUGH
 10
20.18839341035355
 20
26.59074162244231
 30
0.0
  0
VERTEX
  5
2A9
  8
CUT_HALFWAY_THROUGH
 10
23.77246041035355
 20
28.99323862244231
 30
0.0
  0
VERTEX
  5
2AA
  8
CUT_HALFWAY_THROUGH
 10
28.04267541035355
 20
28.37453562244231
 30
0.0
  0
VERTEX
  5
2AB
  8
CUT_HALFWAY_THROUGH
 10
24.45861941035355
 20
25.9719896224423
 30
0.0
  0
VERTEX
  5
2AC
  8
CUT_HALFWAY_THROUGH
 10
24.38743141035355
 20
26.28543762244231
 30
0.0
  0
VERTEX
  5
2AD
  8
CUT_HALFWAY_THROUGH
 10
27.22781341035355
 20
28.1894666224423
 30
0.0
  0
VERTEX
  5
2AE
  8
CUT_HALFWAY_THROUGH
 10
23.84364741035355
 20
28.6797926224423
 30
0.0
  0
VERTEX
  5
2AF
  8
CUT_HALFWAY_THROUGH
 10
21.00325641035355
 20
26.77580162244231
 30
0.0
  0
VERTEX
  5
2B0
  8
CUT_HALFWAY_THROUGH
 10
24.33794841035355
 20
26.2926076224423
 30
0.0
  0
VERTEX
  5
2B1
  8
CUT_HALFWAY_THROUGH
 10
24.26676141035355
 20
26.60605562244231
 30
0.0
  0
VERTEX
  5
2B2
  8
CUT_HALFWAY_THROUGH
 10
21.81812041035355
 20
26.96086162244231
 30
0.0
  0
VERTEX
  5
2B3
  8
CUT_HALFWAY_THROUGH
 10
23.91483441035355
 20
28.3663456224423
 30
0.0
  0
VERTEX
  5
2B4
  8
CUT_HALFWAY_THROUGH
 10
26.41295141035355
 20
28.00439862244231
 30
0.0
  0
VERTEX
  5
2B5
  8
CUT_HALFWAY_THROUGH
 10
24.31624441035355
 20
26.5988856224423
 30
0.0
  0
VERTEX
  5
2B6
  8
CUT_HALFWAY_THROUGH
 10
24.24505641035355
 20
26.9123336224423
 30
0.0
  0
VERTEX
  5
2B7
  8
CUT_HALFWAY_THROUGH
 10
25.59808941035355
 20
27.8193296224423
 30
0.0
  0
VERTEX
  5
2B8
  8
CUT_HALFWAY_THROUGH
 10
23.98602141035355
 20
28.0528986224423
 30
0.0
  0
VERTEX
  5
2B9
  8
CUT_HALFWAY_THROUGH
 10
22.63298441035355
 20
27.14592162244231
 30
0.0
  0
VERTEX
  5
2BA
  8
CUT_HALFWAY_THROUGH
 10
24.19557341035355
 20
26.9195036224423
 30
0.0
  0
VERTEX
  5
2BB
  8
CUT_HALFWAY_THROUGH
 10
24.12438641035355
 20
27.2329516224423
 30
0.0
  0
VERTEX
  5
2BC
  8
CUT_HALFWAY_THROUGH
 10
23.44784841035355
 20
27.33098162244231
 30
0.0
  0
VERTEX
  5
2BD
  8
CUT_HALFWAY_THROUGH
 10
24.05720941035355
 20
27.7394526224423
 30
0.0
  0
VERTEX
  5
2BE
  8
CUT_HALFWAY_THROUGH
 10
24.78322841035355
 20
27.63426062244231
 30
0.0
  0
VERTEX
  5
2BF
  8
CUT_HALFWAY_THROUGH
 10
24.17386941035355
 20
27.22578162244231
 30
0.0
  0
VERTEX
  5
2C0
  8
CUT_HALFWAY_THROUGH
 10
30.18168741035355
 20
28.86034162244231
 30
0.0
  0
VERTEX
  5
2C1
  8
CUT_HALFWAY_THROUGH
 10
18.04937241035355
 20
26.1049586224423
 30
0.0
  0
SEQEND
  5
2C2
  8
CUT_HALFWAY_THROUGH
  0
POLYLINE
  5
65
  8
CUT_HALFWAY_THROUGH
 66
     1
 10
0.0
 20
0.0
 30
0.0
  0
VERTEX
  5
2C3
  8
CUT_HALFWAY_THROUGH
 10
31.2745438973945
 20
3.350234184095404
 30
0.0
  0
VERTEX
  5
2C4
  8
CUT_HALFWAY_THROUGH
 10
38.603574305668
 20
4.12507826119124
 30
0.0
 42
0.6867687318601295
  0
VERTEX
  5
2C5
  8
CUT_HALFWAY_THROUGH
 10
39.2378786738492
 20
6.49153540236532
 30
0.0
  0
VERTEX
  5
2C6
  8
CUT_HALFWAY_THROUGH
 10
33.2789428973945
 20
10.8280651840954
 30
0.0
  0
VERTEX
  5
2C7
  8
CUT_HALFWAY_THROUGH
 10
33.3909308973945
 20
10.70512618409541
 30
0.0
  0
VERTEX
  5
2C8
  8
CUT_HALFWAY_THROUGH
 10
26.31054967198089
 20
9.95664836356396
 30
0.0
 42
0.6867687318601289
  0
VERTEX
  5
2C9
  8
CUT_HALFWAY_THROUGH
 10
25.67621933818437
 20
7.590198994098179
 30
0.0
  0
VERTEX
  5
2CA
  8
CUT_HALFWAY_THROUGH
 10
31.4330078973945
 20
3.400683184095405
 30
0.0
  0
VERTEX
  5
2CB
  8
CUT_HALFWAY_THROUGH
 10
31.5162278973945
 20
3.711153184095405
 30
0.0
  0
VERTEX
  5
2CC
  8
CUT_HALFWAY_THROUGH
 10
25.85274690609062
 20
7.832764331788089
 30
0.0
 42
-0.6867687318601265
  0
VERTEX
  5
2CD
  8
CUT_HALFWAY_THROUGH
 10
26.34208703551838
 20
9.658310523175839
 30
0.0
  0
VERTEX
  5
2CE
  8
CUT_HALFWAY_THROUGH
 10
33.3574338973945
 20
10.39991318409541
 30
0.0
  0
VERTEX
  5
2CF
  8
CUT_HALFWAY_THROUGH
 10
39.0613525239246
 20
6.248969206568987
 30
0.0
 42
-0.6867687318601281
  0
VERTEX
  5
2D0
  8
CUT_HALFWAY_THROUGH
 10
38.57203331234835
 20
4.423415929283619
 30
0.0
  0
VERTEX
  5
2D1
  8
CUT_HALFWAY_THROUGH
 10
31.5566558973945
 20
3.681732184095404
 30
0.0
  0
VERTEX
  5
2D2
  8
CUT_HALFWAY_THROUGH
 10
31.6398758973945
 20
3.992202184095405
 30
0.0
  0
VERTEX
  5
2D3
  8
CUT_HALFWAY_THROUGH
 10
38.54049231902868
 20
4.721753097376
 30
0.0
 42
0.6867687318601292
  0
VERTEX
  5
2D4
  8
CUT_HALFWAY_THROUGH
 10
38.88482759754531
 20
6.006401792502741
 30
0.0
  0
VERTEX
  5
2D5
  8
CUT_HALFWAY_THROUGH
 10
33.2742148973945
 20
10.0894441840954
 30
0.0
  0
VERTEX
  5
2D6
  8
CUT_HALFWAY_THROUGH
 10
26.37362489905586
 20
9.35997268278772
 30
0.0
 42
0.6867687318601323
  0
VERTEX
  5
2D7
  8
CUT_HALFWAY_THROUGH
 10
26.02927449138912
 20
8.075329964863364
 30
0.0
  0
VERTEX
  5
2D8
  8
CUT_HALFWAY_THROUGH
 10
31.5994478973945
 20
4.021623184095407
 30
0.0
  0
VERTEX
  5
2D9
  8
CUT_HALFWAY_THROUGH
 10
31.6826688973945
 20
4.332093184095406
 30
0.0
  0
VERTEX
  5
2DA
  8
CUT_HALFWAY_THROUGH
 10
26.20580198269299
 20
8.31789531717068
 30
0.0
 42
-0.6867687318601352
  0
VERTEX
  5
2DB
  8
CUT_HALFWAY_THROUGH
 10
26.40516276259333
 20
9.061635342399601
 30
0.0
  0
VERTEX
  5
2DC
  8
CUT_HALFWAY_THROUGH
 10
33.1909948973945
 20
9.778975184095405
 30
0.0
  0
VERTEX
  5
2DD
  8
CUT_HALFWAY_THROUGH
 10
38.70830267116602
 20
5.763834378436494
 30
0.0
 42
-0.6867687318601434
  0
VERTEX
  5
2DE
  8
CUT_HALFWAY_THROUGH
 10
38.50895132570903
 20
5.020090265468381
 30
0.0
  0
VERTEX
  5
2DF
  8
CUT_HALFWAY_THROUGH
 10
31.7230958973945
 20
4.302672184095405
 30
0.0
  0
VERTEX
  5
2E0
  8
CUT_HALFWAY_THROUGH
 10
31.8063158973945
 20
4.613142184095405
 30
0.0
  0
VERTEX
  5
2E1
  8
CUT_HALFWAY_THROUGH
 10
38.47741033238937
 20
5.318427933560761
 30
0.0
 42
0.6867687318601191
  0
VERTEX
  5
2E2
  8
CUT_HALFWAY_THROUGH
 10
38.53177774478673
 20
5.521266964370247
 30
0.0
  0
VERTEX
  5
2E3
  8
CUT_HALFWAY_THROUGH
 10
33.1077748973945
 20
9.468506184095405
 30
0.0
  0
VERTEX
  5
2E4
  8
CUT_HALFWAY_THROUGH
 10
26.43670062613081
 20
8.763297502011483
 30
0.0
 42
0.6867687318601021
  0
VERTEX
  5
2E5
  8
CUT_HALFWAY_THROUGH
 10
26.38232964459386
 20
8.560460935628551
 30
0.0
  0
VERTEX
  5
2E6
  8
CUT_HALFWAY_THROUGH
 10
31.7658888973945
 20
4.642563184095405
 30
0.0
  0
VERTEX
  5
2E7
  8
CUT_HALFWAY_THROUGH
 10
31.8491088973945
 20
4.953034184095404
 30
0.0
  0
VERTEX
  5
2E8
  8
CUT_HALFWAY_THROUGH
 10
26.9529798973945
 20
8.516202184095405
 30
0.0
  0
VERTEX
  5
2E9
  8
CUT_HALFWAY_THROUGH
 10
33.02455489739449
 20
9.158038184095405
 30
0.0
  0
VERTEX
  5
2EA
  8
CUT_HALFWAY_THROUGH
 10
37.9611298973945
 20
5.565517184095404
 30
0.0
  0
VERTEX
  5
2EB
  8
CUT_HALFWAY_THROUGH
 10
31.8895358973945
 20
4.923612184095404
 30
0.0
  0
VERTEX
  5
2EC
  8
CUT_HALFWAY_THROUGH
 10
31.9727568973945
 20
5.234083184095404
 30
0.0
  0
VERTEX
  5
2ED
  8
CUT_HALFWAY_THROUGH
 10
37.1540068973945
 20
5.781858184095404
 30
0.0
  0
VERTEX
  5
2EE
  8
CUT_HALFWAY_THROUGH
 10
32.9413348973945
 20
8.847569184095406
 30
0.0
  0
VERTEX
  5
2EF
  8
CUT_HALFWAY_THROUGH
 10
27.7600998973945
 20
8.299853184095404
 30
0.0
  0
VERTEX
  5
2F0
  8
CUT_HALFWAY_THROUGH
 10
31.9323288973945
 20
5.263504184095405
 30
0.0
  0
VERTEX
  5
2F1
  8
CUT_HALFWAY_THROUGH
 10
32.0155488973945
 20
5.573974184095405
 30
0.0
  0
VERTEX
  5
2F2
  8
CUT_HALFWAY_THROUGH
 10
28.5672208973945
 20
8.083503184095406
 30
0.0
  0
VERTEX
  5
2F3
  8
CUT_HALFWAY_THROUGH
 10
32.8581158973945
 20
8.537100184095404
 30
0.0
  0
VERTEX
  5
2F4
  8
CUT_HALFWAY_THROUGH
 10
36.3468848973945
 20
5.998199184095403
 30
0.0
  0
VERTEX
  5
2F5
  8
CUT_HALFWAY_THROUGH
 10
32.0559768973945
 20
5.544553184095406
 30
0.0
  0
VERTEX
  5
2F6
  8
CUT_HALFWAY_THROUGH
 10
32.1391968973945
 20
5.855023184095405
 30
0.0
  0
VERTEX
  5
2F7
  8
CUT_HALFWAY_THROUGH
 10
35.5397618973945
 20
6.214539184095403
 30
0.0
  0
VERTEX
  5
2F8
  8
CUT_HALFWAY_THROUGH
 10
32.7748958973945
 20
8.226631184095405
 30
0.0
  0
VERTEX
  5
2F9
  8
CUT_HALFWAY_THROUGH
 10
29.3743408973945
 20
7.867153184095403
 30
0.0
  0
VERTEX
  5
2FA
  8
CUT_HALFWAY_THROUGH
 10
32.0987688973945
 20
5.884444184095404
 30
0.0
  0
VERTEX
  5
2FB
  8
CUT_HALFWAY_THROUGH
 10
32.1819888973945
 20
6.194914184095404
 30
0.0
  0
VERTEX
  5
2FC
  8
CUT_HALFWAY_THROUGH
 10
30.1814608973945
 20
7.650803184095402
 30
0.0
  0
VERTEX
  5
2FD
  8
CUT_HALFWAY_THROUGH
 10
32.6916758973945
 20
7.916162184095403
 30
0.0
  0
VERTEX
  5
2FE
  8
CUT_HALFWAY_THROUGH
 10
34.7326398973945
 20
6.430880184095403
 30
0.0
  0
VERTEX
  5
2FF
  8
CUT_HALFWAY_THROUGH
 10
32.2224168973945
 20
6.165493184095405
 30
0.0
  0
VERTEX
  5
300
  8
CUT_HALFWAY_THROUGH
 10
32.3056368973945
 20
6.475963184095405
 30
0.0
  0
VERTEX
  5
301
  8
CUT_HALFWAY_THROUGH
 10
33.9255168973945
 20
6.647221184095403
 30
0.0
  0
VERTEX
  5
302
  8
CUT_HALFWAY_THROUGH
 10
32.6084558973945
 20
7.605693184095405
 30
0.0
  0
VERTEX
  5
303
  8
CUT_HALFWAY_THROUGH
 10
30.9885808973945
 20
7.434454184095403
 30
0.0
  0
VERTEX
  5
304
  8
CUT_HALFWAY_THROUGH
 10
32.2652098973945
 20
6.505385184095403
 30
0.0
  0
VERTEX
  5
305
  8
CUT_HALFWAY_THROUGH
 10
32.3484298973945
 20
6.815855184095405
 30
0.0
  0
VERTEX
  5
306
  8
CUT_HALFWAY_THROUGH
 10
31.7957008973945
 20
7.218104184095403
 30
0.0
  0
VERTEX
  5
307
  8
CUT_HALFWAY_THROUGH
 10
32.5252358973945
 20
7.295224184095405
 30
0.0
  0
VERTEX
  5
308
  8
CUT_HALFWAY_THROUGH
 10
33.1183948973945
 20
6.863562184095403
 30
0.0
  0
VERTEX
  5
309
  8
CUT_HALFWAY_THROUGH
 10
32.3888568973945
 20
6.786433184095405
 30
0.0
  0
VERTEX
  5
30A
  8
CUT_HALFWAY_THROUGH
 10
38.4655808973945
 20
5.430304184095403
 30
0.0
  0
VERTEX
  5
30B
  8
CUT_HALFWAY_THROUGH
 10
26.4485268973945
 20
8.651422184095406
 30
0.0
  0
SEQEND
  5
30C
  8
CUT_HALFWAY_THROUGH
  0
POLYLINE
  5
66
  8
CUT_HALFWAY_THROUGH
 66
     1
 10
0.0
 20
0.0
 30
0.0
  0
VERTEX
  5
30D
  8
CUT_HALFWAY_THROUGH
 10
19.42014506046027
 20
9.385035766850608
 30
0.0
  0
VERTEX
  5
30E
  8
CUT_HALFWAY_THROUGH
 10
23.85225367134165
 20
15.27328572908513
 30
0.0
 42
0.6867687318601305
  0
VERTEX
  5
30F
  8
CUT_HALFWAY_THROUGH
 10
22.55427434678199
 20
17.35119622031377
 30
0.0
  0
VERTEX
  5
310
  8
CUT_HALFWAY_THROUGH
 10
15.31865580484187
 20
15.95111182668694
 30
0.0
  0
VERTEX
  5
311
  8
CUT_HALFWAY_THROUGH
 10
15.48494430742036
 20
15.94915982253657
 30
0.0
  0
VERTEX
  5
312
  8
CUT_HALFWAY_THROUGH
 10
11.20314402610746
 20
10.26073153858955
 30
0.0
 42
0.6867687318601292
  0
VERTEX
  5
313
  8
CUT_HALFWAY_THROUGH
 10
12.50109986653857
 20
8.1828076692685
 30
0.0
  0
VERTEX
  5
314
  8
CUT_HALFWAY_THROUGH
 10
19.49133125646598
 20
9.535330462685943
 30
0.0
  0
VERTEX
  5
315
  8
CUT_HALFWAY_THROUGH
 10
19.32104297921234
 20
9.80794571594773
 30
0.0
  0
VERTEX
  5
316
  8
CUT_HALFWAY_THROUGH
 10
12.44411074139212
 20
8.477344847347727
 30
0.0
 42
-0.686768731860131
  0
VERTEX
  5
317
  8
CUT_HALFWAY_THROUGH
 10
11.44283082749544
 20
10.08031466007541
 30
0.0
  0
VERTEX
  5
318
  8
CUT_HALFWAY_THROUGH
 10
15.68530142622969
 20
15.71649329251469
 30
0.0
  0
VERTEX
  5
319
  8
CUT_HALFWAY_THROUGH
 10
22.61126530026871
 20
17.05665923495173
 30
0.0
 42
-0.6867687318601291
  0
VERTEX
  5
31A
  8
CUT_HALFWAY_THROUGH
 10
23.61256480452589
 20
15.45370038500576
 30
0.0
  0
VERTEX
  5
31B
  8
CUT_HALFWAY_THROUGH
 10
19.37013297932403
 20
9.817443836711039
 30
0.0
  0
VERTEX
  5
31C
  8
CUT_HALFWAY_THROUGH
 10
19.19984370554708
 20
10.09005917328717
 30
0.0
  0
VERTEX
  5
31D
  8
CUT_HALFWAY_THROUGH
 10
23.37287643597179
 20
15.63411499926921
 30
0.0
 42
0.6867687318601323
  0
VERTEX
  5
31E
  8
CUT_HALFWAY_THROUGH
 10
22.6682578140326
 20
16.76212255917964
 30
0.0
  0
VERTEX
  5
31F
  8
CUT_HALFWAY_THROUGH
 10
15.85558978679768
 20
15.44387903577622
 30
0.0
  0
VERTEX
  5
320
  8
CUT_HALFWAY_THROUGH
 10
11.68251708896458
 20
9.899897324956791
 30
0.0
 42
0.6867687318601299
  0
VERTEX
  5
321
  8
CUT_HALFWAY_THROUGH
 10
12.38712127509231
 20
8.7718822661507
 30
0.0
  0
VERTEX
  5
322
  8
CUT_HALFWAY_THROUGH
 10
19.15075470195871
 20
10.08056096920951
 30
0.0
  0
VERTEX
  5
323
  8
CUT_HALFWAY_THROUGH
 10
18.98046542818174
 20
10.35317630578564
 30
0.0
  0
VERTEX
  5
324
  8
CUT_HALFWAY_THROUGH
 10
12.33013201454162
 20
9.06641969680784
 30
0.0
 42
-0.6867687318601248
  0
VERTEX
  5
325
  8
CUT_HALFWAY_THROUGH
 10
11.92220389035256
 20
9.719480446442654
 30
0.0
  0
VERTEX
  5
326
  8
CUT_HALFWAY_THROUGH
 10
16.02587715084235
 20
15.17126486235209
 30
0.0
  0
VERTEX
  5
327
  8
CUT_HALFWAY_THROUGH
 10
22.72525032779649
 20
16.46758588340755
 30
0.0
 42
-0.6867687318601299
  0
VERTEX
  5
328
  8
CUT_HALFWAY_THROUGH
 10
23.13318802576052
 20
15.81452911527101
 30
0.0
  0
VERTEX
  5
329
  8
CUT_HALFWAY_THROUGH
 10
19.02955542829343
 20
10.36267442654895
 30
0.0
  0
VERTEX
  5
32A
  8
CUT_HALFWAY_THROUGH
 10
18.85926615451648
 20
10.63528976312508
 30
0.0
  0
VERTEX
  5
32B
  8
CUT_HALFWAY_THROUGH
 10
22.89349915894476
 20
15.99494377119164
 30
0.0
 42
0.6867687318601481
  0
VERTEX
  5
32C
  8
CUT_HALFWAY_THROUGH
 10
22.78224284156038
 20
16.17304920763546
 30
0.0
  0
VERTEX
  5
32D
  8
CUT_HALFWAY_THROUGH
 10
16.19616551141033
 20
14.89865060561362
 30
0.0
  0
VERTEX
  5
32E
  8
CUT_HALFWAY_THROUGH
 10
12.1618901518217
 20
9.539063111324033
 30
0.0
 42
0.686768731860117
  0
VERTEX
  5
32F
  8
CUT_HALFWAY_THROUGH
 10
12.27314268364605
 20
9.360956863032898
 30
0.0
  0
VERTEX
  5
330
  8
CUT_HALFWAY_THROUGH
 10
18.8101771509281
 20
10.62579155904743
 30
0.0
  0
VERTEX
  5
331
  8
CUT_HALFWAY_THROUGH
 10
18.63988787715115
 20
10.89840689562356
 30
0.0
  0
VERTEX
  5
332
  8
CUT_HALFWAY_THROUGH
 10
12.69472062312884
 20
9.748091327069943
 30
0.0
  0
VERTEX
  5
333
  8
CUT_HALFWAY_THROUGH
 10
16.366452875455
 20
14.6260364321895
 30
0.0
  0
VERTEX
  5
334
  8
CUT_HALFWAY_THROUGH
 10
22.3606721113184
 20
15.7859115023756
 30
0.0
  0
VERTEX
  5
335
  8
CUT_HALFWAY_THROUGH
 10
18.68897787726284
 20
10.90790501638686
 30
0.0
  0
VERTEX
  5
336
  8
CUT_HALFWAY_THROUGH
 10
18.5186896000092
 20
11.18052026964865
 30
0.0
  0
VERTEX
  5
337
  8
CUT_HALFWAY_THROUGH
 10
21.65196393260967
 20
15.34321193360649
 30
0.0
  0
VERTEX
  5
338
  8
CUT_HALFWAY_THROUGH
 10
16.53674123602299
 20
14.35342217545103
 30
0.0
  0
VERTEX
  5
339
  8
CUT_HALFWAY_THROUGH
 10
13.40343411446271
 20
10.19078242376646
 30
0.0
  0
VERTEX
  5
33A
  8
CUT_HALFWAY_THROUGH
 10
18.46959959989751
 20
11.17102214888534
 30
0.0
  0
VERTEX
  5
33B
  8
CUT_HALFWAY_THROUGH
 10
18.29931132264387
 20
11.44363740214713
 30
0.0
  0
VERTEX
  5
33C
  8
CUT_HALFWAY_THROUGH
 10
14.11214760579658
 20
10.63347352046297
 30
0.0
  0
VERTEX
  5
33D
  8
CUT_HALFWAY_THROUGH
 10
16.70702860006766
 20
14.08080800202691
 30
0.0
  0
VERTEX
  5
33E
  8
CUT_HALFWAY_THROUGH
 10
20.9432558372153
 20
14.90051336136069
 30
0.0
  0
VERTEX
  5
33F
  8
CUT_HALFWAY_THROUGH
 10
18.34840032623224
 20
11.45313560622478
 30
0.0
  0
VERTEX
  5
340
  8
CUT_HALFWAY_THROUGH
 10
18.17811204897859
 20
11.72575085948657
 30
0.0
  0
VERTEX
  5
341
  8
CUT_HALFWAY_THROUGH
 10
20.23454674529759
 20
14.45781487242924
 30
0.0
  0
VERTEX
  5
342
  8
CUT_HALFWAY_THROUGH
 10
16.87731704394998
 20
13.80819474181176
 30
0.0
  0
VERTEX
  5
343
  8
CUT_HALFWAY_THROUGH
 10
14.82086109713044
 20
11.07616461715948
 30
0.0
  0
VERTEX
  5
344
  8
CUT_HALFWAY_THROUGH
 10
18.12902204886691
 20
11.71625273872326
 30
0.0
  0
VERTEX
  5
345
  8
CUT_HALFWAY_THROUGH
 10
17.95873377161327
 20
11.98886799198504
 30
0.0
  0
VERTEX
  5
346
  8
CUT_HALFWAY_THROUGH
 10
15.52957458846431
 20
11.518855713856
 30
0.0
  0
VERTEX
  5
347
  8
CUT_HALFWAY_THROUGH
 10
17.04760540451797
 20
13.53558048507329
 30
0.0
  0
VERTEX
  5
348
  8
CUT_HALFWAY_THROUGH
 10
19.52583856658886
 20
14.01511530366013
 30
0.0
  0
VERTEX
  5
349
  8
CUT_HALFWAY_THROUGH
 10
18.00782277520164
 20
11.9983661960627
 30
0.0
  0
VERTEX
  5
34A
  8
CUT_HALFWAY_THROUGH
 10
17.837534497948
 20
12.27098144932448
 30
0.0
  0
VERTEX
  5
34B
  8
CUT_HALFWAY_THROUGH
 10
18.81712947467116
 20
13.57241681472868
 30
0.0
  0
VERTEX
  5
34C
  8
CUT_HALFWAY_THROUGH
 10
17.21789276856264
 20
13.26296631164916
 30
0.0
  0
VERTEX
  5
34D
  8
CUT_HALFWAY_THROUGH
 10
16.23828708327486
 20
11.96154689386685
 30
0.0
  0
VERTEX
  5
34E
  8
CUT_HALFWAY_THROUGH
 10
17.78844449783631
 20
12.26148332856117
 30
0.0
  0
VERTEX
  5
34F
  8
CUT_HALFWAY_THROUGH
 10
17.61815622058267
 20
12.53409858182296
 30
0.0
  0
VERTEX
  5
350
  8
CUT_HALFWAY_THROUGH
 10
16.94700057460872
 20
12.40423799056337
 30
0.0
  0
VERTEX
  5
351
  8
CUT_HALFWAY_THROUGH
 10
17.38818112913063
 20
12.9903520549107
 30
0.0
  0
VERTEX
  5
352
  8
CUT_HALFWAY_THROUGH
 10
18.10842129596244
 20
13.12971724595956
 30
0.0
  0
VERTEX
  5
353
  8
CUT_HALFWAY_THROUGH
 10
17.66724622069436
 20
12.54359670258627
 30
0.0
  0
VERTEX
  5
354
  8
CUT_HALFWAY_THROUGH
 10
22.80361503422184
 20
16.06259795422093
 30
0.0
  0
VERTEX
  5
355
  8
CUT_HALFWAY_THROUGH
 10
12.2517718877142
 20
9.471407368157317
 30
0.0
  0
SEQEND
  5
356
  8
CUT_HALFWAY_THROUGH
  0
POLYLINE
  5
67
  8
CUT_HALFWAY_THROUGH
 66
     1
 10
0.0
 20
0.0
 30
0.0
  0
VERTEX
  5
357
  8
CUT_HALFWAY_THROUGH
 10
8.670793866200608
 20
10.55133838322531
 30
0.0
  0
VERTEX
  5
358
  8
CUT_HALFWAY_THROUGH
 10
6.024855410396664
 20
17.42986222787698
 30
0.0
 42
0.6867687318601294
  0
VERTEX
  5
359
  8
CUT_HALFWAY_THROUGH
 10
3.574863247074798
 20
17.42985413356387
 30
0.0
  0
VERTEX
  5
35A
  8
CUT_HALFWAY_THROUGH
 10
0.9289868662006124
 20
10.55135438322532
 30
0.0
  0
VERTEX
  5
35B
  8
CUT_HALFWAY_THROUGH
 10
1.018740866200612
 20
10.69135438322532
 30
0.0
  0
VERTEX
  5
35C
  8
CUT_HALFWAY_THROUGH
 10
3.574835714518307
 20
4.046175410094831
 30
0.0
 42
0.6867687318601294
  0
VERTEX
  5
35D
  8
CUT_HALFWAY_THROUGH
 10
6.024827022761406
 20
4.046156857562887
 30
0.0
  0
VERTEX
  5
35E
  8
CUT_HALFWAY_THROUGH
 10
8.581038866200611
 20
10.69133838322532
 30
0.0
  0
VERTEX
  5
35F
  8
CUT_HALFWAY_THROUGH
 10
8.259607866200621
 20
10.69133938322532
 30
0.0
  0
VERTEX
  5
360
  8
CUT_HALFWAY_THROUGH
 10
5.744828234207993
 20
4.153864321501201
 30
0.0
 42
-0.6867687318601319
  0
VERTEX
  5
361
  8
CUT_HALFWAY_THROUGH
 10
3.854835741569523
 20
4.153878487840144
 30
0.0
  0
VERTEX
  5
362
  8
CUT_HALFWAY_THROUGH
 10
1.32221886620061
 20
10.73802038322532
 30
0.0
  0
VERTEX
  5
363
  8
CUT_HALFWAY_THROUGH
 10
3.854862225263627
 20
17.32214854089051
 30
0.0
 42
-0.6867687318601283
  0
VERTEX
  5
364
  8
CUT_HALFWAY_THROUGH
 10
5.74485647172329
 20
17.32215612052802
 30
0.0
  0
VERTEX
  5
365
  8
CUT_HALFWAY_THROUGH
 10
8.277559866200615
 20
10.73800538322532
 30
0.0
  0
VERTEX
  5
366
  8
CUT_HALFWAY_THROUGH
 10
7.956129866200608
 20
10.73800638322532
 30
0.0
  0
VERTEX
  5
367
  8
CUT_HALFWAY_THROUGH
 10
5.464858033049889
 20
17.21445001317907
 30
0.0
 42
0.6867687318601354
  0
VERTEX
  5
368
  8
CUT_HALFWAY_THROUGH
 10
4.134861822578297
 20
17.2144441978786
 30
0.0
  0
VERTEX
  5
369
  8
CUT_HALFWAY_THROUGH
 10
1.64364786620062
 20
10.73801938322532
 30
0.0
  0
VERTEX
  5
36A
  8
CUT_HALFWAY_THROUGH
 10
4.134835768620738
 20
4.261581565585457
 30
0.0
 42
0.6867687318601301
  0
VERTEX
  5
36B
  8
CUT_HALFWAY_THROUGH
 10
5.464830181669349
 20
4.261571661991278
 30
0.0
  0
VERTEX
  5
36C
  8
CUT_HALFWAY_THROUGH
 10
7.938177866200614
 20
10.69133938322532
 30
0.0
  0
VERTEX
  5
36D
  8
CUT_HALFWAY_THROUGH
 10
7.616747866200607
 20
10.69134038322532
 30
0.0
  0
VERTEX
  5
36E
  8
CUT_HALFWAY_THROUGH
 10
5.184831813661979
 20
4.369279223715393
 30
0.0
 42
-0.6867687318601268
  0
VERTEX
  5
36F
  8
CUT_HALFWAY_THROUGH
 10
4.414835795671954
 20
4.369284643330771
 30
0.0
  0
VERTEX
  5
370
  8
CUT_HALFWAY_THROUGH
 10
1.965076866200615
 20
10.73801838322532
 30
0.0
  0
VERTEX
  5
371
  8
CUT_HALFWAY_THROUGH
 10
4.414861419892953
 20
17.10673985486669
 30
0.0
 42
-0.6867687318601203
  0
VERTEX
  5
372
  8
CUT_HALFWAY_THROUGH
 10
5.184859094376516
 20
17.10674340583012
 30
0.0
  0
VERTEX
  5
373
  8
CUT_HALFWAY_THROUGH
 10
7.634698866200619
 20
10.73800638322532
 30
0.0
  0
VERTEX
  5
374
  8
CUT_HALFWAY_THROUGH
 10
7.313268866200612
 20
10.73800738322532
 30
0.0
  0
VERTEX
  5
375
  8
CUT_HALFWAY_THROUGH
 10
4.904860155703142
 20
16.99903729848117
 30
0.0
 42
0.6867687318600996
  0
VERTEX
  5
376
  8
CUT_HALFWAY_THROUGH
 10
4.69486101720761
 20
16.99903551185478
 30
0.0
  0
VERTEX
  5
377
  8
CUT_HALFWAY_THROUGH
 10
2.286504866200612
 20
10.73801838322532
 30
0.0
  0
VERTEX
  5
378
  8
CUT_HALFWAY_THROUGH
 10
4.69483582272317
 20
4.476988221076081
 30
0.0
 42
0.6867687318601865
  0
VERTEX
  5
379
  8
CUT_HALFWAY_THROUGH
 10
4.90483334057729
 20
4.476986466419669
 30
0.0
  0
VERTEX
  5
37A
  8
CUT_HALFWAY_THROUGH
 10
7.295317866200614
 20
10.69134138322532
 30
0.0
  0
VERTEX
  5
37B
  8
CUT_HALFWAY_THROUGH
 10
6.973887866200609
 20
10.69134138322532
 30
0.0
  0
VERTEX
  5
37C
  8
CUT_HALFWAY_THROUGH
 10
4.799838866200608
 20
5.039638383225318
 30
0.0
  0
VERTEX
  5
37D
  8
CUT_HALFWAY_THROUGH
 10
2.607933866200621
 20
10.73801738322532
 30
0.0
  0
VERTEX
  5
37E
  8
CUT_HALFWAY_THROUGH
 10
4.799862866200608
 20
16.43638738322531
 30
0.0
  0
VERTEX
  5
37F
  8
CUT_HALFWAY_THROUGH
 10
6.991838866200619
 20
10.73800838322532
 30
0.0
  0
VERTEX
  5
380
  8
CUT_HALFWAY_THROUGH
 10
6.670408866200613
 20
10.73800838322532
 30
0.0
  0
VERTEX
  5
381
  8
CUT_HALFWAY_THROUGH
 10
4.799865866200615
 20
15.60077438322531
 30
0.0
  0
VERTEX
  5
382
  8
CUT_HALFWAY_THROUGH
 10
2.929362866200615
 20
10.73801638322532
 30
0.0
  0
VERTEX
  5
383
  8
CUT_HALFWAY_THROUGH
 10
4.799844866200607
 20
5.875251383225317
 30
0.0
  0
VERTEX
  5
384
  8
CUT_HALFWAY_THROUGH
 10
6.652457866200616
 20
10.69134238322532
 30
0.0
  0
VERTEX
  5
385
  8
CUT_HALFWAY_THROUGH
 10
6.33102786620061
 20
10.69134338322532
 30
0.0
  0
VERTEX
  5
386
  8
CUT_HALFWAY_THROUGH
 10
4.799850866200607
 20
6.710865383225318
 30
0.0
  0
VERTEX
  5
387
  8
CUT_HALFWAY_THROUGH
 10
3.250791866200611
 20
10.73801638322532
 30
0.0
  0
VERTEX
  5
388
  8
CUT_HALFWAY_THROUGH
 10
4.799868866200607
 20
14.76516038322532
 30
0.0
  0
VERTEX
  5
389
  8
CUT_HALFWAY_THROUGH
 10
6.34897886620062
 20
10.73800938322532
 30
0.0
  0
VERTEX
  5
38A
  8
CUT_HALFWAY_THROUGH
 10
6.027548866200614
 20
10.73801038322532
 30
0.0
  0
VERTEX
  5
38B
  8
CUT_HALFWAY_THROUGH
 10
4.799870866200616
 20
13.92954638322532
 30
0.0
  0
VERTEX
  5
38C
  8
CUT_HALFWAY_THROUGH
 10
3.572219866200608
 20
10.73801538322532
 30
0.0
  0
VERTEX
  5
38D
  8
CUT_HALFWAY_THROUGH
 10
4.799857866200621
 20
7.54647838322532
 30
0.0
  0
VERTEX
  5
38E
  8
CUT_HALFWAY_THROUGH
 10
6.009597866200617
 20
10.69134338322532
 30
0.0
  0
VERTEX
  5
38F
  8
CUT_HALFWAY_THROUGH
 10
5.688166866200613
 20
10.69134438322532
 30
0.0
  0
VERTEX
  5
390
  8
CUT_HALFWAY_THROUGH
 10
4.79986386620062
 20
8.38209238322532
 30
0.0
  0
VERTEX
  5
391
  8
CUT_HALFWAY_THROUGH
 10
3.893648866200617
 20
10.73801438322532
 30
0.0
  0
VERTEX
  5
392
  8
CUT_HALFWAY_THROUGH
 10
4.799873866200609
 20
13.09393338322532
 30
0.0
  0
VERTEX
  5
393
  8
CUT_HALFWAY_THROUGH
 10
5.706118866200607
 20
10.73801038322532
 30
0.0
  0
VERTEX
  5
394
  8
CUT_HALFWAY_THROUGH
 10
5.384688866200615
 20
10.73801138322532
 30
0.0
  0
VERTEX
  5
395
  8
CUT_HALFWAY_THROUGH
 10
4.799876866200615
 20
12.25831938322532
 30
0.0
  0
VERTEX
  5
396
  8
CUT_HALFWAY_THROUGH
 10
4.215077866200612
 20
10.73801438322532
 30
0.0
  0
VERTEX
  5
397
  8
CUT_HALFWAY_THROUGH
 10
4.799869866200619
 20
9.217706383225321
 30
0.0
  0
VERTEX
  5
398
  8
CUT_HALFWAY_THROUGH
 10
5.366736866200621
 20
10.69134538322532
 30
0.0
  0
VERTEX
  5
399
  8
CUT_HALFWAY_THROUGH
 10
5.045306866200614
 20
10.69134538322532
 30
0.0
  0
VERTEX
  5
39A
  8
CUT_HALFWAY_THROUGH
 10
4.799876866200615
 20
10.05331938322532
 30
0.0
  0
VERTEX
  5
39B
  8
CUT_HALFWAY_THROUGH
 10
4.536506866200621
 20
10.73801338322532
 30
0.0
  0
VERTEX
  5
39C
  8
CUT_HALFWAY_THROUGH
 10
4.799879866200608
 20
11.42270538322532
 30
0.0
  0
VERTEX
  5
39D
  8
CUT_HALFWAY_THROUGH
 10
5.063257866200611
 20
10.73801238322532
 30
0.0
  0
VERTEX
  5
39E
  8
CUT_HALFWAY_THROUGH
 10
4.799860875863369
 20
16.9586470963494
 30
0.0
  0
VERTEX
  5
39F
  8
CUT_HALFWAY_THROUGH
 10
4.799834866200604
 20
4.517376383225317
 30
0.0
  0
SEQEND
  5
3A0
  8
CUT_HALFWAY_THROUGH
  0
POLYLINE
  5
68
  8
CUT_HALFWAY_THROUGH
 66
     1
 10
0.0
 20
0.0
 30
0.0
  0
VERTEX
  5
3A1
  8
CUT_HALFWAY_THROUGH
 10
75.7142275527919
 20
39.81141121741254
 30
0.0
  0
VERTEX
  5
3A2
  8
CUT_HALFWAY_THROUGH
 10
68.395676436517
 20
40.6796754519098
 30
0.0
 42
0.6867687318601219
  0
VERTEX
  5
3A3
  8
CUT_HALFWAY_THROUGH
 10
67.25281477609471
 20
38.51257371638992
 30
0.0
  0
VERTEX
  5
3A4
  8
CUT_HALFWAY_THROUGH
 10
72.10282711954932
 20
32.96353835566085
 30
0.0
  0
VERTEX
  5
3A5
  8
CUT_HALFWAY_THROUGH
 10
72.02086110575425
 20
33.10823455066456
 30
0.0
  0
VERTEX
  5
3A6
  8
CUT_HALFWAY_THROUGH
 10
79.09110176882467
 20
32.26935111060716
 30
0.0
 42
0.6867687318601309
  0
VERTEX
  5
3A7
  8
CUT_HALFWAY_THROUGH
 10
80.23398658993781
 20
34.4364397035957
 30
0.0
  0
VERTEX
  5
3A8
  8
CUT_HALFWAY_THROUGH
 10
75.54852452302543
 20
39.79732594403218
 30
0.0
  0
VERTEX
  5
3A9
  8
CUT_HALFWAY_THROUGH
 10
75.3985834818265
 20
39.51301099757282
 30
0.0
  0
VERTEX
  5
3AA
  8
CUT_HALFWAY_THROUGH
 10
80.0081024896572
 20
34.23901517512539
 30
0.0
 42
-0.686768731860139
  0
VERTEX
  5
3AB
  8
CUT_HALFWAY_THROUGH
 10
79.12644890604022
 20
32.5672615310915
 30
0.0
  0
VERTEX
  5
3AC
  8
CUT_HALFWAY_THROUGH
 10
72.12114941004987
 20
33.3984400871633
 30
0.0
  0
VERTEX
  5
3AD
  8
CUT_HALFWAY_THROUGH
 10
67.47869756009453
 20
38.70999982503757
 30
0.0
 42
-0.6867687318601342
  0
VERTEX
  5
3AE
  8
CUT_HALFWAY_THROUGH
 10
68.3603323037799
 20
40.38176451616991
 30
0.0
  0
VERTEX
  5
3AF
  8
CUT_HALFWAY_THROUGH
 10
75.36567916763536
 20
39.55065851420553
 30
0.0
  0
VERTEX
  5
3B0
  8
CUT_HALFWAY_THROUGH
 10
75.21573865386691
 20
39.26634271814796
 30
0.0
  0
VERTEX
  5
3B1
  8
CUT_HALFWAY_THROUGH
 10
68.32498859584186
 20
40.08385384414528
 30
0.0
 42
0.6867687318601252
  0
VERTEX
  5
3B2
  8
CUT_HALFWAY_THROUGH
 10
67.70457933630226
 20
38.90742683225097
 30
0.0
  0
VERTEX
  5
3B3
  8
CUT_HALFWAY_THROUGH
 10
72.27109012908099
 20
33.682753656594
 30
0.0
  0
VERTEX
  5
3B4
  8
CUT_HALFWAY_THROUGH
 10
79.16179604325583
 20
32.86517195157585
 30
0.0
 42
0.6867687318601416
  0
VERTEX
  5
3B5
  8
CUT_HALFWAY_THROUGH
 10
79.78221872346867
 20
34.04159062505311
 30
0.0
  0
VERTEX
  5
3B6
  8
CUT_HALFWAY_THROUGH
 10
75.2486424406276
 20
39.22869605111346
 30
0.0
  0
VERTEX
  5
3B7
  8
CUT_HALFWAY_THROUGH
 10
75.0987013994287
 20
38.94438110465409
 30
0.0
  0
VERTEX
  5
3B8
  8
CUT_HALFWAY_THROUGH
 10
79.55633446730849
 20
33.84416596665199
 30
0.0
 42
-0.6867687318601279
  0
VERTEX
  5
3B9
  8
CUT_HALFWAY_THROUGH
 10
79.1971427556723
 20
33.16308210834492
 30
0.0
  0
VERTEX
  5
3BA
  8
CUT_HALFWAY_THROUGH
 10
72.42103032068164
 20
33.9670680756229
 30
0.0
  0
VERTEX
  5
3BB
  8
CUT_HALFWAY_THROUGH
 10
67.93046111251002
 20
39.10485383946437
 30
0.0
 42
-0.686768731860115
  0
VERTEX
  5
3BC
  8
CUT_HALFWAY_THROUGH
 10
68.28964488790388
 20
39.78594317212061
 30
0.0
  0
VERTEX
  5
3BD
  8
CUT_HALFWAY_THROUGH
 10
75.06579761266804
 20
38.98202777168859
 30
0.0
  0
VERTEX
  5
3BE
  8
CUT_HALFWAY_THROUGH
 10
74.91585657146913
 20
38.69771282522923
 30
0.0
  0
VERTEX
  5
3BF
  8
CUT_HALFWAY_THROUGH
 10
68.25430117996584
 20
39.48803250009597
 30
0.0
 42
0.6867687318601658
  0
VERTEX
  5
3C0
  8
CUT_HALFWAY_THROUGH
 10
68.15634288871769
 20
39.30228084667778
 30
0.0
  0
VERTEX
  5
3C1
  8
CUT_HALFWAY_THROUGH
 10
72.5709701901146
 20
34.25138111762319
 30
0.0
  0
VERTEX
  5
3C2
  8
CUT_HALFWAY_THROUGH
 10
79.23248989288786
 20
33.46099252882928
 30
0.0
 42
0.686768731860085
  0
VERTEX
  5
3C3
  8
CUT_HALFWAY_THROUGH
 10
79.33045085699956
 20
33.64674154651052
 30
0.0
  0
VERTEX
  5
3C4
  8
CUT_HALFWAY_THROUGH
 10
74.94876088566028
 20
38.66006530859653
 30
0.0
  0
VERTEX
  5
3C5
  8
CUT_HALFWAY_THROUGH
 10
74.7988198444614
 20
38.37575036213716
 30
0.0
  0
VERTEX
  5
3C6
  8
CUT_HALFWAY_THROUGH
 10
78.7837887295689
 20
33.81633507615432
 30
0.0
  0
VERTEX
  5
3C7
  8
CUT_HALFWAY_THROUGH
 10
72.72091038171527
 20
34.5356955366521
 30
0.0
  0
VERTEX
  5
3C8
  8
CUT_HALFWAY_THROUGH
 10
68.70300402225394
 20
39.13269420344603
 30
0.0
  0
VERTEX
  5
3C9
  8
CUT_HALFWAY_THROUGH
 10
74.76591553027023
 20
38.41339787876987
 30
0.0
  0
VERTEX
  5
3CA
  8
CUT_HALFWAY_THROUGH
 10
74.61597533866956
 20
38.12908345974095
 30
0.0
  0
VERTEX
  5
3CB
  8
CUT_HALFWAY_THROUGH
 10
69.44213273484422
 20
38.74290170206016
 30
0.0
  0
VERTEX
  5
3CC
  8
CUT_HALFWAY_THROUGH
 10
72.87085110074639
 20
34.82000910608279
 30
0.0
  0
VERTEX
  5
3CD
  8
CUT_HALFWAY_THROUGH
 10
78.04466502621034
 20
34.20613657240528
 30
0.0
  0
VERTEX
  5
3CE
  8
CUT_HALFWAY_THROUGH
 10
74.6488788032625
 20
38.0914354156778
 30
0.0
  0
VERTEX
  5
3CF
  8
CUT_HALFWAY_THROUGH
 10
74.4989386116618
 20
37.80712099664888
 30
0.0
  0
VERTEX
  5
3D0
  8
CUT_HALFWAY_THROUGH
 10
77.30553994582306
 20
34.595938390824
 30
0.0
  0
VERTEX
  5
3D1
  8
CUT_HALFWAY_THROUGH
 10
73.02079129234707
 20
35.10432352511174
 30
0.0
  0
VERTEX
  5
3D2
  8
CUT_HALFWAY_THROUGH
 10
70.18126197486495
 20
38.3531083510761
 30
0.0
  0
VERTEX
  5
3D3
  8
CUT_HALFWAY_THROUGH
 10
74.46603482490113
 20
37.84476766368336
 30
0.0
  0
VERTEX
  5
3D4
  8
CUT_HALFWAY_THROUGH
 10
74.31609378370223
 20
37.56045271722401
 30
0.0
  0
VERTEX
  5
3D5
  8
CUT_HALFWAY_THROUGH
 10
70.92039036528746
 20
37.96331447266155
 30
0.0
  0
VERTEX
  5
3D6
  8
CUT_HALFWAY_THROUGH
 10
73.17073116178
 20
35.38863656711197
 30
0.0
  0
VERTEX
  5
3D7
  8
CUT_HALFWAY_THROUGH
 10
76.56641539286625
 20
34.98573935964448
 30
0.0
  0
VERTEX
  5
3D8
  8
CUT_HALFWAY_THROUGH
 10
74.34899809789337
 20
37.52280520059129
 30
0.0
  0
VERTEX
  5
3D9
  8
CUT_HALFWAY_THROUGH
 10
74.19905705669447
 20
37.23849025413193
 30
0.0
  0
VERTEX
  5
3DA
  8
CUT_HALFWAY_THROUGH
 10
75.82729083990947
 20
35.375540328465
 30
0.0
  0
VERTEX
  5
3DB
  8
CUT_HALFWAY_THROUGH
 10
73.32067135338067
 20
35.67295098614089
 30
0.0
  0
VERTEX
  5
3DC
  8
CUT_HALFWAY_THROUGH
 10
71.65951907787775
 20
37.57352197127571
 30
0.0
  0
VERTEX
  5
3DD
  8
CUT_HALFWAY_THROUGH
 10
74.16615274250333
 20
37.27613777076463
 30
0.0
  0
VERTEX
  5
3DE
  8
CUT_HALFWAY_THROUGH
 10
74.01621170130443
 20
36.99182282430528
 30
0.0
  0
VERTEX
  5
3DF
  8
CUT_HALFWAY_THROUGH
 10
72.39864831789845
 20
37.18372862029161
 30
0.0
  0
VERTEX
  5
3E0
  8
CUT_HALFWAY_THROUGH
 10
73.47061154498135
 20
35.95726540516981
 30
0.0
  0
VERTEX
  5
3E1
  8
CUT_HALFWAY_THROUGH
 10
75.0881666091204
 20
35.76534267431417
 30
0.0
  0
VERTEX
  5
3E2
  8
CUT_HALFWAY_THROUGH
 10
74.04911601549557
 20
36.95417530767257
 30
0.0
  0
VERTEX
  5
3E3
  8
CUT_HALFWAY_THROUGH
 10
73.8991749742967
 20
36.6698603612132
 30
0.0
  0
VERTEX
  5
3E4
  8
CUT_HALFWAY_THROUGH
 10
74.34904205616363
 20
36.15514364313467
 30
0.0
  0
VERTEX
  5
3E5
  8
CUT_HALFWAY_THROUGH
 10
73.62055141441428
 20
36.24157844717006
 30
0.0
  0
VERTEX
  5
3E6
  8
CUT_HALFWAY_THROUGH
 10
73.13777670832096
 20
36.79393474187712
 30
0.0
  0
VERTEX
  5
3E7
  8
CUT_HALFWAY_THROUGH
 10
73.86627118753597
 20
36.70750702824771
 30
0.0
  0
VERTEX
  5
3E8
  8
CUT_HALFWAY_THROUGH
 10
68.24104791313536
 20
39.37631619970362
 30
0.0
  0
VERTEX
  5
3E9
  8
CUT_HALFWAY_THROUGH
 10
79.24574513498305
 20
33.57270800236559
 30
0.0
  0
SEQEND
  5
3EA
  8
CUT_HALFWAY_THROUGH
  0
POLYLINE
  5
69
  8
CUT_HALFWAY_THROUGH
 66
     1
 10
0.0
 20
0.0
 30
0.0
  0
VERTEX
  5
3EB
  8
CUT_HALFWAY_THROUGH
 10
80.47897422754404
 20
26.13554500302079
 30
0.0
  0
VERTEX
  5
3EC
  8
CUT_HALFWAY_THROUGH
 10
73.24854003646152
 20
27.56239279828868
 30
0.0
 42
0.6867687318601257
  0
VERTEX
  5
3ED
  8
CUT_HALFWAY_THROUGH
 10
71.9428832286041
 20
25.48929776741045
 30
0.0
  0
VERTEX
  5
3EE
  8
CUT_HALFWAY_THROUGH
 10
76.35315393244113
 20
19.58472957954433
 30
0.0
  0
VERTEX
  5
3EF
  8
CUT_HALFWAY_THROUGH
 10
76.28252358154134
 20
19.73528445258992
 30
0.0
  0
VERTEX
  5
3F0
  8
CUT_HALFWAY_THROUGH
 10
83.26763101445334
 20
18.35676981341692
 30
0.0
 42
0.6867687318601188
  0
VERTEX
  5
3F1
  8
CUT_HALFWAY_THROUGH
 10
84.57330990713736
 20
20.42984996463908
 30
0.0
  0
VERTEX
  5
3F2
  8
CUT_HALFWAY_THROUGH
 10
80.31267901802961
 20
26.13420623771296
 30
0.0
  0
VERTEX
  5
3F3
  8
CUT_HALFWAY_THROUGH
 10
80.14137992121941
 20
25.86222476031421
 30
0.0
  0
VERTEX
  5
3F4
  8
CUT_HALFWAY_THROUGH
 10
84.33295350818346
 20
20.2503259476296
 30
0.0
 42
-0.6867687318601345
  0
VERTEX
  5
3F5
  8
CUT_HALFWAY_THROUGH
 10
83.32571595695548
 20
18.6510930680147
 30
0.0
  0
VERTEX
  5
3F6
  8
CUT_HALFWAY_THROUGH
 10
76.404767759408
 20
20.01694623269277
 30
0.0
  0
VERTEX
  5
3F7
  8
CUT_HALFWAY_THROUGH
 10
72.18323843630989
 20
25.66882346086956
 30
0.0
 42
-0.6867687318601312
  0
VERTEX
  5
3F8
  8
CUT_HALFWAY_THROUGH
 10
73.19045805008692
 20
27.26806879958803
 30
0.0
  0
VERTEX
  5
3F9
  8
CUT_HALFWAY_THROUGH
 10
80.11145903904342
 20
25.90228434357228
 30
0.0
  0
VERTEX
  5
3FA
  8
CUT_HALFWAY_THROUGH
 10
79.9401604029693
 20
25.63030197863634
 30
0.0
  0
VERTEX
  5
3FB
  8
CUT_HALFWAY_THROUGH
 10
73.13237650748091
 20
26.97374503125546
 30
0.0
 42
0.6867687318601243
  0
VERTEX
  5
3FC
  8
CUT_HALFWAY_THROUGH
 10
72.4235927080865
 20
25.84835012752032
 30
0.0
  0
VERTEX
  5
3FD
  8
CUT_HALFWAY_THROUGH
 10
76.57606642941711
 20
20.28892636181826
 30
0.0
  0
VERTEX
  5
3FE
  8
CUT_HALFWAY_THROUGH
 10
83.38380089945761
 20
18.94541632261245
 30
0.0
 42
0.6867687318601654
  0
VERTEX
  5
3FF
  8
CUT_HALFWAY_THROUGH
 10
84.09259744068187
 20
20.07080188346572
 30
0.0
  0
VERTEX
  5
400
  8
CUT_HALFWAY_THROUGH
 10
79.97008082440921
 20
25.59024328291543
 30
0.0
  0
VERTEX
  5
401
  8
CUT_HALFWAY_THROUGH
 10
79.798781727599
 20
25.31826180551668
 30
0.0
  0
VERTEX
  5
402
  8
CUT_HALFWAY_THROUGH
 10
83.85224087634498
 20
19.89127774885976
 30
0.0
 42
-0.6867687318601319
  0
VERTEX
  5
403
  8
CUT_HALFWAY_THROUGH
 10
83.44188539819116
 20
19.23973934684212
 30
0.0
  0
VERTEX
  5
404
  8
CUT_HALFWAY_THROUGH
 10
76.74736463869012
 20
20.56090737848092
 30
0.0
  0
VERTEX
  5
405
  8
CUT_HALFWAY_THROUGH
 10
72.66394697986313
 20
26.02787679417106
 30
0.0
 42
-0.6867687318601075
  0
VERTEX
  5
406
  8
CUT_HALFWAY_THROUGH
 10
73.07429496487494
 20
26.67942126292287
 30
0.0
  0
VERTEX
  5
407
  8
CUT_HALFWAY_THROUGH
 10
79.76886130615911
 20
25.35832050123759
 30
0.0
  0
VERTEX
  5
408
  8
CUT_HALFWAY_THROUGH
 10
79.59756220934892
 20
25.08633902383884
 30
0.0
  0
VERTEX
  5
409
  8
CUT_HALFWAY_THROUGH
 10
73.0162134222689
 20
26.38509749459029
 30
0.0
 42
0.6867687318601385
  0
VERTEX
  5
40A
  8
CUT_HALFWAY_THROUGH
 10
72.90430125163975
 20
26.20740346082182
 30
0.0
  0
VERTEX
  5
40B
  8
CUT_HALFWAY_THROUGH
 10
76.91866242116203
 20
20.83288704687033
 30
0.0
  0
VERTEX
  5
40C
  8
CUT_HALFWAY_THROUGH
 10
83.49997034069328
 20
19.5340626014399
 30
0.0
 42
0.6867687318599539
  0
VERTEX
  5
40D
  8
CUT_HALFWAY_THROUGH
 10
83.61188497422637
 20
19.71175380229237
 30
0.0
  0
VERTEX
  5
40E
  8
CUT_HALFWAY_THROUGH
 10
79.62748309152488
 20
25.04627944058076
 30
0.0
  0
VERTEX
  5
40F
  8
CUT_HALFWAY_THROUGH
 10
79.4561839947147
 20
24.774297963182
 30
0.0
  0
VERTEX
  5
410
  8
CUT_HALFWAY_THROUGH
 10
83.0798354274838
 20
19.9227626330912
 30
0.0
  0
VERTEX
  5
411
  8
CUT_HALFWAY_THROUGH
 10
77.08996063043504
 20
21.10486806353299
 30
0.0
  0
VERTEX
  5
412
  8
CUT_HALFWAY_THROUGH
 10
73.4363503354195
 20
25.99640157236858
 30
0.0
  0
VERTEX
  5
413
  8
CUT_HALFWAY_THROUGH
 10
79.42626311253869
 20
24.81435754644009
 30
0.0
  0
VERTEX
  5
414
  8
CUT_HALFWAY_THROUGH
 10
79.25496490326567
 20
24.54237652977741
 30
0.0
  0
VERTEX
  5
415
  8
CUT_HALFWAY_THROUGH
 10
74.14341644997361
 20
25.55108487881065
 30
0.0
  0
VERTEX
  5
416
  8
CUT_HALFWAY_THROUGH
 10
77.26125930044414
 20
21.37684819265847
 30
0.0
  0
VERTEX
  5
417
  8
CUT_HALFWAY_THROUGH
 10
82.37277499708398
 20
20.36808791095985
 30
0.0
  0
VERTEX
  5
418
  8
CUT_HALFWAY_THROUGH
 10
79.28488489790449
 20
24.50231648578325
 30
0.0
  0
VERTEX
  5
419
  8
CUT_HALFWAY_THROUGH
 10
79.11358668863149
 20
24.23033546912059
 30
0.0
  0
VERTEX
  5
41A
  8
CUT_HALFWAY_THROUGH
 10
81.66571321841087
 20
20.81341361562961
 30
0.0
  0
VERTEX
  5
41B
  8
CUT_HALFWAY_THROUGH
 10
77.43255750971716
 20
21.64882920932114
 30
0.0
  0
VERTEX
  5
41C
  8
CUT_HALFWAY_THROUGH
 10
74.8504830252638
 20
25.10576729771553
 30
0.0
  0
VERTEX
  5
41D
  8
CUT_HALFWAY_THROUGH
 10
79.08366626719157
 20
24.27039416484146
 30
0.0
  0
VERTEX
  5
41E
  8
CUT_HALFWAY_THROUGH
 10
78.91236717038137
 20
23.99841268744272
 30
0.0
  0
VERTEX
  5
41F
  8
CUT_HALFWAY_THROUGH
 10
75.55754871301679
 20
24.66044925588431
 30
0.0
  0
VERTEX
  5
420
  8
CUT_HALFWAY_THROUGH
 10
77.60385529218908
 20
21.92080887771053
 30
0.0
  0
VERTEX
  5
421
  8
CUT_HALFWAY_THROUGH
 10
80.95865190047384
 20
21.25873843276215
 30
0.0
  0
VERTEX
  5
422
  8
CUT_HALFWAY_THROUGH
 10
78.94228805255737
 20
23.95835310418463
 30
0.0
  0
VERTEX
  5
423
  8
CUT_HALFWAY_THROUGH
 10
78.77098895574716
 20
23.68637162678587
 30
0.0
  0
VERTEX
  5
424
  8
CUT_HALFWAY_THROUGH
 10
80.25159058253682
 20
21.70406324989473
 30
0.0
  0
VERTEX
  5
425
  8
CUT_HALFWAY_THROUGH
 10
77.77515350146209
 20
22.1927898943732
 30
0.0
  0
VERTEX
  5
426
  8
CUT_HALFWAY_THROUGH
 10
76.26461482757088
 20
24.21513256232639
 30
0.0
  0
VERTEX
  5
427
  8
CUT_HALFWAY_THROUGH
 10
78.74106807357117
 20
23.72643121004394
 30
0.0
  0
VERTEX
  5
428
  8
CUT_HALFWAY_THROUGH
 10
78.56976897676097
 20
23.45444973264522
 30
0.0
  0
VERTEX
  5
429
  8
CUT_HALFWAY_THROUGH
 10
76.97168140286108
 20
23.76981498123125
 30
0.0
  0
VERTEX
  5
42A
  8
CUT_HALFWAY_THROUGH
 10
77.9464517107351
 20
22.46477091103587
 30
0.0
  0
VERTEX
  5
42B
  8
CUT_HALFWAY_THROUGH
 10
79.54452969140087
 20
22.14938941530056
 30
0.0
  0
VERTEX
  5
42C
  8
CUT_HALFWAY_THROUGH
 10
78.59968985893694
 20
23.41439014938713
 30
0.0
  0
VERTEX
  5
42D
  8
CUT_HALFWAY_THROUGH
 10
78.42839076212675
 20
23.14240867198836
 30
0.0
  0
VERTEX
  5
42E
  8
CUT_HALFWAY_THROUGH
 10
78.83746837346385
 20
22.59471423243311
 30
0.0
  0
VERTEX
  5
42F
  8
CUT_HALFWAY_THROUGH
 10
78.11774949320701
 20
22.73675057942527
 30
0.0
  0
VERTEX
  5
430
  8
CUT_HALFWAY_THROUGH
 10
77.67874709061408
 20
23.32449693940005
 30
0.0
  0
VERTEX
  5
431
  8
CUT_HALFWAY_THROUGH
 10
78.39847034068686
 20
23.18246736770926
 30
0.0
  0
VERTEX
  5
432
  8
CUT_HALFWAY_THROUGH
 10
72.99443348106075
 20
26.27472623467177
 30
0.0
  0
VERTEX
  5
433
  8
CUT_HALFWAY_THROUGH
 10
83.52175218795341
 20
19.64443288548582
 30
0.0
  0
SEQEND
  5
434
  8
CUT_HALFWAY_THROUGH
  0
POLYLINE
  5
6B
  8
MARKS_IN_POCKET
 66
     1
 10
0.0
 20
0.0
 30
0.0
 70
     1
  0
VERTEX
  5
435
  8
MARKS_IN_POCKET
 10
4.798475716223381
 20
10.9430497983427
 30
0.0
 42
0.4142135623730951
  0
VERTEX
  5
436
  8
MARKS_IN_POCKET
 10
4.598475716223374
 20
10.74304979834269
 30
0.0
 42
0.4142135623730951
  0
VERTEX
  5
437
  8
MARKS_IN_POCKET
 10
4.798475716223381
 20
10.54304979834268
 30
0.0
 42
0.4142135623730951
  0
VERTEX
  5
438
  8
MARKS_IN_POCKET
 10
4.998475716223388
 20
10.74304979834269
 30
0.0
 42
0.4142135623730951
  0
SEQEND
  5
439
  8
MARKS_IN_POCKET
  0
POLYLINE
  5
6C
  8
MARKS_IN_POCKET
 66
     1
 10
0.0
 20
0.0
 30
0.0
 70
     1
  0
VERTEX
  5
43A
  8
MARKS_IN_POCKET
 10
24.11775919841723
 20
27.68409837122483
 30
0.0
 42
0.4142135623730951
  0
VERTEX
  5
43B
  8
MARKS_IN_POCKET
 10
23.91775919841722
 20
27.48409837122482
 30
0.0
 42
0.4142135623730951
  0
VERTEX
  5
43C
  8
MARKS_IN_POCKET
 10
24.11775919841723
 20
27.28409837122481
 30
0.0
 42
0.4142135623730951
  0
VERTEX
  5
43D
  8
MARKS_IN_POCKET
 10
24.31775919841724
 20
27.48409837122482
 30
0.0
 42
0.4142135623730951
  0
SEQEND
  5
43E
  8
MARKS_IN_POCKET
  0
POLYLINE
  5
6D
  8
MARKS_IN_POCKET
 66
     1
 10
0.0
 20
0.0
 30
0.0
 70
     1
  0
VERTEX
  5
43F
  8
MARKS_IN_POCKET
 10
17.03339689647977
 20
35.72964681248041
 30
0.0
 42
0.4142135623730951
  0
VERTEX
  5
440
  8
MARKS_IN_POCKET
 10
16.83339689647975
 20
35.5296468124804
 30
0.0
 42
0.4142135623730951
  0
VERTEX
  5
441
  8
MARKS_IN_POCKET
 10
17.03339689647977
 20
35.32964681248039
 30
0.0
 42
0.4142135623730951
  0
VERTEX
  5
442
  8
MARKS_IN_POCKET
 10
17.23339689647978
 20
35.5296468124804
 30
0.0
 42
0.4142135623730951
  0
SEQEND
  5
443
  8
MARKS_IN_POCKET
  0
POLYLINE
  5
6E
  8
MARKS_IN_POCKET
 66
     1
 10
0.0
 20
0.0
 30
0.0
 70
     1
  0
VERTEX
  5
444
  8
MARKS_IN_POCKET
 10
18.53881211850118
 20
33.33512702569513
 30
0.0
 42
0.4142135623730951
  0
VERTEX
  5
445
  8
MARKS_IN_POCKET
 10
18.33881211850117
 20
33.13512702569513
 30
0.0
 42
0.4142135623730951
  0
VERTEX
  5
446
  8
MARKS_IN_POCKET
 10
18.53881211850118
 20
32.93512702569512
 30
0.0
 42
0.4142135623730951
  0
VERTEX
  5
447
  8
MARKS_IN_POCKET
 10
18.73881211850119
 20
33.13512702569513
 30
0.0
 42
0.4142135623730951
  0
SEQEND
  5
448
  8
MARKS_IN_POCKET
  0
POLYLINE
  5
6F
  8
MARKS_IN_POCKET
 66
     1
 10
0.0
 20
0.0
 30
0.0
 70
     1
  0
VERTEX
  5
449
  8
MARKS_IN_POCKET
 10
17.78610450749048
 20
34.53238691908778
 30
0.0
 42
0.4142135623730951
  0
VERTEX
  5
44A
  8
MARKS_IN_POCKET
 10
17.58610450749048
 20
34.33238691908778
 30
0.0
 42
0.4142135623730951
  0
VERTEX
  5
44B
  8
MARKS_IN_POCKET
 10
17.78610450749048
 20
34.13238691908778
 30
0.0
 42
0.4142135623730951
  0
VERTEX
  5
44C
  8
MARKS_IN_POCKET
 10
17.98610450749048
 20
34.33238691908778
 30
0.0
 42
0.4142135623730951
  0
SEQEND
  5
44D
  8
MARKS_IN_POCKET
  0
POLYLINE
  5
70
  8
MARKS_IN_POCKET
 66
     1
 10
0.0
 20
0.0
 30
0.0
 70
     1
  0
VERTEX
  5
44E
  8
MARKS_IN_POCKET
 10
16.78084754911777
 20
14.16901280259266
 30
0.0
 42
0.4142135623730951
  0
VERTEX
  5
44F
  8
MARKS_IN_POCKET
 10
16.58084754911776
 20
13.96901280259265
 30
0.0
 42
0.4142135623730951
  0
VERTEX
  5
450
  8
MARKS_IN_POCKET
 10
16.78084754911777
 20
13.76901280259263
 30
0.0
 42
0.4142135623730951
  0
VERTEX
  5
451
  8
MARKS_IN_POCKET
 10
16.98084754911778
 20
13.96901280259265
 30
0.0
 42
0.4142135623730951
  0
SEQEND
  5
452
  8
MARKS_IN_POCKET
  0
POLYLINE
  5
71
  8
MARKS_IN_POCKET
 66
     1
 10
0.0
 20
0.0
 30
0.0
 70
     1
  0
VERTEX
  5
453
  8
MARKS_IN_POCKET
 10
18.27780653876933
 20
11.76919743817368
 30
0.0
 42
0.4142135623730951
  0
VERTEX
  5
454
  8
MARKS_IN_POCKET
 10
18.07780653876933
 20
11.56919743817368
 30
0.0
 42
0.4142135623730951
  0
VERTEX
  5
455
  8
MARKS_IN_POCKET
 10
18.27780653876933
 20
11.36919743817368
 30
0.0
 42
0.4142135623730951
  0
VERTEX
  5
456
  8
MARKS_IN_POCKET
 10
18.47780653876933
 20
11.56919743817368
 30
0.0
 42
0.4142135623730951
  0
SEQEND
  5
457
  8
MARKS_IN_POCKET
  0
POLYLINE
  5
72
  8
MARKS_IN_POCKET
 66
     1
 10
0.0
 20
0.0
 30
0.0
 70
     1
  0
VERTEX
  5
458
  8
MARKS_IN_POCKET
 10
17.52932704394355
 20
12.96910512038319
 30
0.0
 42
0.4142135623730951
  0
VERTEX
  5
459
  8
MARKS_IN_POCKET
 10
17.32932704394354
 20
12.76910512038318
 30
0.0
 42
0.4142135623730951
  0
VERTEX
  5
45A
  8
MARKS_IN_POCKET
 10
17.52932704394355
 20
12.56910512038317
 30
0.0
 42
0.4142135623730951
  0
VERTEX
  5
45B
  8
MARKS_IN_POCKET
 10
17.72932704394356
 20
12.76910512038318
 30
0.0
 42
0.4142135623730951
  0
SEQEND
  5
45C
  8
MARKS_IN_POCKET
  0
POLYLINE
  5
73
  8
MARKS_IN_POCKET
 66
     1
 10
0.0
 20
0.0
 30
0.0
 70
     1
  0
VERTEX
  5
45D
  8
MARKS_IN_POCKET
 10
32.09396118373509
 20
5.873130977906555
 30
0.0
 42
0.4142135623730951
  0
VERTEX
  5
45E
  8
MARKS_IN_POCKET
 10
31.89396118373507
 20
5.673130977906538
 30
0.0
 42
0.4142135623730951
  0
VERTEX
  5
45F
  8
MARKS_IN_POCKET
 10
32.09396118373509
 20
5.473130977906522
 30
0.0
 42
0.4142135623730951
  0
VERTEX
  5
460
  8
MARKS_IN_POCKET
 10
32.29396118373511
 20
5.673130977906538
 30
0.0
 42
0.4142135623730951
  0
SEQEND
  5
461
  8
MARKS_IN_POCKET
  0
POLYLINE
  5
74
  8
MARKS_IN_POCKET
 66
     1
 10
0.0
 20
0.0
 30
0.0
 70
     1
  0
VERTEX
  5
462
  8
MARKS_IN_POCKET
 10
33.82547378353131
 20
6.874062602317988
 30
0.0
 42
0.4142135623730951
  0
VERTEX
  5
463
  8
MARKS_IN_POCKET
 10
33.62547378353128
 20
6.674062602317967
 30
0.0
 42
0.4142135623730951
  0
VERTEX
  5
464
  8
MARKS_IN_POCKET
 10
33.82547378353131
 20
6.474062602317947
 30
0.0
 42
0.4142135623730951
  0
VERTEX
  5
465
  8
MARKS_IN_POCKET
 10
34.02547378353133
 20
6.674062602317967
 30
0.0
 42
0.4142135623730951
  0
SEQEND
  5
466
  8
MARKS_IN_POCKET
  0
POLYLINE
  5
75
  8
MARKS_IN_POCKET
 66
     1
 10
0.0
 20
0.0
 30
0.0
 70
     1
  0
VERTEX
  5
467
  8
MARKS_IN_POCKET
 10
32.82454215911986
 20
8.60557520211421
 30
0.0
 42
0.4142135623730951
  0
VERTEX
  5
468
  8
MARKS_IN_POCKET
 10
32.62454215911986
 20
8.405575202114207
 30
0.0
 42
0.4142135623730951
  0
VERTEX
  5
469
  8
MARKS_IN_POCKET
 10
32.82454215911986
 20
8.205575202114204
 30
0.0
 42
0.4142135623730951
  0
VERTEX
  5
46A
  8
MARKS_IN_POCKET
 10
33.02454215911986
 20
8.405575202114207
 30
0.0
 42
0.4142135623730951
  0
SEQEND
  5
46B
  8
MARKS_IN_POCKET
  0
POLYLINE
  5
76
  8
MARKS_IN_POCKET
 66
     1
 10
0.0
 20
0.0
 30
0.0
 70
     1
  0
VERTEX
  5
46C
  8
MARKS_IN_POCKET
 10
31.09302955932366
 20
7.604643577702731
 30
0.0
 42
0.4142135623730951
  0
VERTEX
  5
46D
  8
MARKS_IN_POCKET
 10
30.89302955932367
 20
7.404643577702743
 30
0.0
 42
0.4142135623730951
  0
VERTEX
  5
46E
  8
MARKS_IN_POCKET
 10
31.09302955932366
 20
7.204643577702754
 30
0.0
 42
0.4142135623730951
  0
VERTEX
  5
46F
  8
MARKS_IN_POCKET
 10
31.29302955932365
 20
7.404643577702743
 30
0.0
 42
0.4142135623730951
  0
SEQEND
  5
470
  8
MARKS_IN_POCKET
  0
POLYLINE
  5
77
  8
MARKS_IN_POCKET
 66
     1
 10
0.0
 20
0.0
 30
0.0
 70
     1
  0
VERTEX
  5
471
  8
MARKS_IN_POCKET
 10
79.45362848071987
 20
22.40880707422903
 30
0.0
 42
0.4142135623730951
  0
VERTEX
  5
472
  8
MARKS_IN_POCKET
 10
79.25362848071988
 20
22.20880707422904
 30
0.0
 42
0.4142135623730951
  0
VERTEX
  5
473
  8
MARKS_IN_POCKET
 10
79.45362848071987
 20
22.00880707422905
 30
0.0
 42
0.4142135623730951
  0
VERTEX
  5
474
  8
MARKS_IN_POCKET
 10
79.65362848071986
 20
22.20880707422904
 30
0.0
 42
0.4142135623730951
  0
SEQEND
  5
475
  8
MARKS_IN_POCKET
  0
POLYLINE
  5
78
  8
MARKS_IN_POCKET
 66
     1
 10
0.0
 20
0.0
 30
0.0
 70
     1
  0
VERTEX
  5
476
  8
MARKS_IN_POCKET
 10
74.99136904609047
 20
36.01934218675077
 30
0.0
 42
0.4142135623730951
  0
VERTEX
  5
477
  8
MARKS_IN_POCKET
 10
74.7913690460905
 20
35.81934218675079
 30
0.0
 42
0.4142135623730951
  0
VERTEX
  5
478
  8
MARKS_IN_POCKET
 10
74.99136904609047
 20
35.61934218675081
 30
0.0
 42
0.4142135623730951
  0
VERTEX
  5
479
  8
MARKS_IN_POCKET
 10
75.19136904609044
 20
35.81934218675079
 30
0.0
 42
0.4142135623730951
  0
SEQEND
  5
47A
  8
MARKS_IN_POCKET
  0
POLYLINE
  5
79
  8
MARKS_IN_POCKET
 66
     1
 10
0.0
 20
0.0
 30
0.0
 70
     1
  0
VERTEX
  5
47B
  8
MARKS_IN_POCKET
 10
74.15589921746255
 20
16.16303289239212
 30
0.0
 42
0.4142135623730951
  0
VERTEX
  5
47C
  8
MARKS_IN_POCKET
 10
73.95589921746253
 20
15.9630328923921
 30
0.0
 42
0.4142135623730951
  0
VERTEX
  5
47D
  8
MARKS_IN_POCKET
 10
74.15589921746255
 20
15.76303289239208
 30
0.0
 42
0.4142135623730951
  0
VERTEX
  5
47E
  8
MARKS_IN_POCKET
 10
74.35589921746256
 20
15.9630328923921
 30
0.0
 42
0.4142135623730951
  0
SEQEND
  5
47F
  8
MARKS_IN_POCKET
  0
POLYLINE
  5
7A
  8
MARKS_IN_POCKET
 66
     1
 10
0.0
 20
0.0
 30
0.0
 70
     1
  0
VERTEX
  5
480
  8
MARKS_IN_POCKET
 10
72.24351000340852
 20
15.57756940593897
 30
0.0
 42
0.4142135623730951
  0
VERTEX
  5
481
  8
MARKS_IN_POCKET
 10
72.04351000340851
 20
15.37756940593896
 30
0.0
 42
0.4142135623730951
  0
VERTEX
  5
482
  8
MARKS_IN_POCKET
 10
72.24351000340852
 20
15.17756940593895
 30
0.0
 42
0.4142135623730951
  0
VERTEX
  5
483
  8
MARKS_IN_POCKET
 10
72.44351000340852
 20
15.37756940593896
 30
0.0
 42
0.4142135623730951
  0
SEQEND
  5
484
  8
MARKS_IN_POCKET
  0
POLYLINE
  5
7B
  8
MARKS_IN_POCKET
 66
     1
 10
0.0
 20
0.0
 30
0.0
 70
     1
  0
VERTEX
  5
485
  8
MARKS_IN_POCKET
 10
72.8289734898617
 20
13.66518019188493
 30
0.0
 42
0.4142135623730951
  0
VERTEX
  5
486
  8
MARKS_IN_POCKET
 10
72.62897348986169
 20
13.46518019188493
 30
0.0
 42
0.4142135623730951
  0
VERTEX
  5
487
  8
MARKS_IN_POCKET
 10
72.8289734898617
 20
13.26518019188493
 30
0.0
 42
0.4142135623730951
  0
VERTEX
  5
488
  8
MARKS_IN_POCKET
 10
73.0289734898617
 20
13.46518019188493
 30
0.0
 42
0.4142135623730951
  0
SEQEND
  5
489
  8
MARKS_IN_POCKET
  0
POLYLINE
  5
7C
  8
MARKS_IN_POCKET
 66
     1
 10
0.0
 20
0.0
 30
0.0
 70
     1
  0
VERTEX
  5
48A
  8
MARKS_IN_POCKET
 10
74.74136270391568
 20
14.25064367833811
 30
0.0
 42
0.4142135623730951
  0
VERTEX
  5
48B
  8
MARKS_IN_POCKET
 10
74.5413627039157
 20
14.05064367833811
 30
0.0
 42
0.4142135623730951
  0
VERTEX
  5
48C
  8
MARKS_IN_POCKET
 10
74.74136270391568
 20
13.85064367833811
 30
0.0
 42
0.4142135623730951
  0
VERTEX
  5
48D
  8
MARKS_IN_POCKET
 10
74.94136270391567
 20
14.05064367833811
 30
0.0
 42
0.4142135623730951
  0
SEQEND
  5
48E
  8
MARKS_IN_POCKET
  0
POLYLINE
  5
7E
  8
LACE_HOLES
 66
     1
 10
0.0
 20
0.0
 30
0.0
 70
     1
  0
VERTEX
  5
48F
  8
LACE_HOLES
 10
19.249962
 20
10.205824
 30
0.0
 42
0.4142135623730951
  0
VERTEX
  5
490
  8
LACE_HOLES
 10
19.054962
 20
10.010824
 30
0.0
 42
0.4142135623730951
  0
VERTEX
  5
491
  8
LACE_HOLES
 10
19.249962
 20
9.815824
 30
0.0
 42
0.4142135623730951
  0
VERTEX
  5
492
  8
LACE_HOLES
 10
19.444962
 20
10.010824
 30
0.0
 42
0.4142135623730951
  0
SEQEND
  5
493
  8
LACE_HOLES
  0
POLYLINE
  5
7F
  8
LACE_HOLES
 66
     1
 10
0.0
 20
0.0
 30
0.0
 70
     1
  0
VERTEX
  5
494
  8
LACE_HOLES
 10
24.078536
 20
12.884335
 30
0.0
 42
0.4142135623730951
  0
VERTEX
  5
495
  8
LACE_HOLES
 10
23.883536
 20
12.689335
 30
0.0
 42
0.4142135623730951
  0
VERTEX
  5
496
  8
LACE_HOLES
 10
24.078536
 20
12.494335
 30
0.0
 42
0.4142135623730951
  0
VERTEX
  5
497
  8
LACE_HOLES
 10
24.273536
 20
12.689335
 30
0.0
 42
0.4142135623730951
  0
SEQEND
  5
498
  8
LACE_HOLES
  0
POLYLINE
  5
80
  8
LACE_HOLES
 66
     1
 10
0.0
 20
0.0
 30
0.0
 70
     1
  0
VERTEX
  5
499
  8
LACE_HOLES
 10
29.160639
 20
15.043449
 30
0.0
 42
0.4142135623730951
  0
VERTEX
  5
49A
  8
LACE_HOLES
 10
28.965639
 20
14.848449
 30
0.0
 42
0.4142135623730951
  0
VERTEX
  5
49B
  8
LACE_HOLES
 10
29.160639
 20
14.653449
 30
0.0
 42
0.4142135623730951
  0
VERTEX
  5
49C
  8
LACE_HOLES
 10
29.355639
 20
14.848449
 30
0.0
 42
0.4142135623730951
  0
SEQEND
  5
49D
  8
LACE_HOLES
  0
POLYLINE
  5
81
  8
LACE_HOLES
 66
     1
 10
0.0
 20
0.0
 30
0.0
 70
     1
  0
VERTEX
  5
49E
  8
LACE_HOLES
 10
34.440591
 20
16.659511
 30
0.0
 42
0.4142135623730951
  0
VERTEX
  5
49F
  8
LACE_HOLES
 10
34.245591
 20
16.464511
 30
0.0
 42
0.4142135623730951
  0
VERTEX
  5
4A0
  8
LACE_HOLES
 10
34.440591
 20
16.269511
 30
0.0
 42
0.4142135623730951
  0
VERTEX
  5
4A1
  8
LACE_HOLES
 10
34.635591
 20
16.464511
 30
0.0
 42
0.4142135623730951
  0
SEQEND
  5
4A2
  8
LACE_HOLES
  0
POLYLINE
  5
82
  8
LACE_HOLES
 66
     1
 10
0.0
 20
0.0
 30
0.0
 70
     1
  0
VERTEX
  5
4A3
  8
LACE_HOLES
 10
39.860543
 20
17.714815
 30
0.0
 42
0.4142135623730951
  0
VERTEX
  5
4A4
  8
LACE_HOLES
 10
39.665543
 20
17.519815
 30
0.0
 42
0.4142135623730951
  0
VERTEX
  5
4A5
  8
LACE_HOLES
 10
39.860543
 20
17.324815
 30
0.0
 42
0.4142135623730951
  0
VERTEX
  5
4A6
  8
LACE_HOLES
 10
40.055543
 20
17.519815
 30
0.0
 42
0.4142135623730951
  0
SEQEND
  5
4A7
  8
LACE_HOLES
  0
POLYLINE
  5
83
  8
LACE_HOLES
 66
     1
 10
0.0
 20
0.0
 30
0.0
 70
     1
  0
VERTEX
  5
4A8
  8
LACE_HOLES
 10
50.882036
 20
18.10317
 30
0.0
 42
0.4142135623730951
  0
VERTEX
  5
4A9
  8
LACE_HOLES
 10
50.687036
 20
17.90817
 30
0.0
 42
0.4142135623730951
  0
VERTEX
  5
4AA
  8
LACE_HOLES
 10
50.882036
 20
17.71317
 30
0.0
 42
0.4142135623730951
  0
VERTEX
  5
4AB
  8
LACE_HOLES
 10
51.077036
 20
17.90817
 30
0.0
 42
0.4142135623730951
  0
SEQEND
  5
4AC
  8
LACE_HOLES
  0
POLYLINE
  5
84
  8
LACE_HOLES
 66
     1
 10
0.0
 20
0.0
 30
0.0
 70
     1
  0
VERTEX
  5
4AD
  8
LACE_HOLES
 10
56.362824
 20
17.431966
 30
0.0
 42
0.4142135623730951
  0
VERTEX
  5
4AE
  8
LACE_HOLES
 10
56.167824
 20
17.236966
 30
0.0
 42
0.4142135623730951
  0
VERTEX
  5
4AF
  8
LACE_HOLES
 10
56.362824
 20
17.041966
 30
0.0
 42
0.4142135623730951
  0
VERTEX
  5
4B0
  8
LACE_HOLES
 10
56.557824
 20
17.236966
 30
0.0
 42
0.4142135623730951
  0
SEQEND
  5
4B1
  8
LACE_HOLES
  0
POLYLINE
  5
85
  8
LACE_HOLES
 66
     1
 10
0.0
 20
0.0
 30
0.0
 70
     1
  0
VERTEX
  5
4B2
  8
LACE_HOLES
 10
61.743427
 20
16.191541
 30
0.0
 42
0.4142135623730951
  0
VERTEX
  5
4B3
  8
LACE_HOLES
 10
61.548427
 20
15.996541
 30
0.0
 42
0.4142135623730951
  0
VERTEX
  5
4B4
  8
LACE_HOLES
 10
61.743427
 20
15.801541
 30
0.0
 42
0.4142135623730951
  0
VERTEX
  5
4B5
  8
LACE_HOLES
 10
61.938427
 20
15.996541
 30
0.0
 42
0.4142135623730951
  0
SEQEND
  5
4B6
  8
LACE_HOLES
  0
POLYLINE
  5
86
  8
LACE_HOLES
 66
     1
 10
0.0
 20
0.0
 30
0.0
 70
     1
  0
VERTEX
  5
4B7
  8
LACE_HOLES
 10
66.964895
 20
14.395485
 30
0.0
 42
0.4142135623730951
  0
VERTEX
  5
4B8
  8
LACE_HOLES
 10
66.769895
 20
14.200485
 30
0.0
 42
0.4142135623730951
  0
VERTEX
  5
4B9
  8
LACE_HOLES
 10
66.964895
 20
14.005485
 30
0.0
 42
0.4142135623730951
  0
VERTEX
  5
4BA
  8
LACE_HOLES
 10
67.15989499999999
 20
14.200485
 30
0.0
 42
0.4142135623730951
  0
SEQEND
  5
4BB
  8
LACE_HOLES
  0
POLYLINE
  5
87
  8
LACE_HOLES
 66
     1
 10
0.0
 20
0.0
 30
0.0
 70
     1
  0
VERTEX
  5
4BC
  8
LACE_HOLES
 10
71.97002
 20
12.063475
 30
0.0
 42
0.4142135623730951
  0
VERTEX
  5
4BD
  8
LACE_HOLES
 10
71.77502000000001
 20
11.868475
 30
0.0
 42
0.4142135623730951
  0
VERTEX
  5
4BE
  8
LACE_HOLES
 10
71.97002
 20
11.673475
 30
0.0
 42
0.4142135623730951
  0
VERTEX
  5
4BF
  8
LACE_HOLES
 10
72.16502
 20
11.868475
 30
0.0
 42
0.4142135623730951
  0
SEQEND
  5
4C0
  8
LACE_HOLES
  0
POLYLINE
  5
88
  8
LACE_HOLES
 66
     1
 10
0.0
 20
0.0
 30
0.0
 70
     1
  0
VERTEX
  5
4C1
  8
LACE_HOLES
 10
76.515194
 20
20.406832
 30
0.0
 42
0.4142135623730951
  0
VERTEX
  5
4C2
  8
LACE_HOLES
 10
76.320194
 20
20.211832
 30
0.0
 42
0.4142135623730951
  0
VERTEX
  5
4C3
  8
LACE_HOLES
 10
76.515194
 20
20.016832
 30
0.0
 42
0.4142135623730951
  0
VERTEX
  5
4C4
  8
LACE_HOLES
 10
76.71019399999999
 20
20.211832
 30
0.0
 42
0.4142135623730951
  0
SEQEND
  5
4C5
  8
LACE_HOLES
  0
POLYLINE
  5
89
  8
LACE_HOLES
 66
     1
 10
0.0
 20
0.0
 30
0.0
 70
     1
  0
VERTEX
  5
4C6
  8
LACE_HOLES
 10
71.693919
 20
23.098458
 30
0.0
 42
0.4142135623730951
  0
VERTEX
  5
4C7
  8
LACE_HOLES
 10
71.498919
 20
22.903458
 30
0.0
 42
0.4142135623730951
  0
VERTEX
  5
4C8
  8
LACE_HOLES
 10
71.693919
 20
22.708458
 30
0.0
 42
0.4142135623730951
  0
VERTEX
  5
4C9
  8
LACE_HOLES
 10
71.88891899999999
 20
22.903458
 30
0.0
 42
0.4142135623730951
  0
SEQEND
  5
4CA
  8
LACE_HOLES
  0
POLYLINE
  5
8A
  8
LACE_HOLES
 66
     1
 10
0.0
 20
0.0
 30
0.0
 70
     1
  0
VERTEX
  5
4CB
  8
LACE_HOLES
 10
66.617704
 20
25.271379
 30
0.0
 42
0.4142135623730951
  0
VERTEX
  5
4CC
  8
LACE_HOLES
 10
66.42270400000001
 20
25.076379
 30
0.0
 42
0.4142135623730951
  0
VERTEX
  5
4CD
  8
LACE_HOLES
 10
66.617704
 20
24.881379
 30
0.0
 42
0.4142135623730951
  0
VERTEX
  5
4CE
  8
LACE_HOLES
 10
66.812704
 20
25.076379
 30
0.0
 42
0.4142135623730951
  0
SEQEND
  5
4CF
  8
LACE_HOLES
  0
POLYLINE
  5
8B
  8
LACE_HOLES
 66
     1
 10
0.0
 20
0.0
 30
0.0
 70
     1
  0
VERTEX
  5
4D0
  8
LACE_HOLES
 10
61.342164
 20
26.901788
 30
0.0
 42
0.4142135623730951
  0
VERTEX
  5
4D1
  8
LACE_HOLES
 10
61.147164
 20
26.706788
 30
0.0
 42
0.4142135623730951
  0
VERTEX
  5
4D2
  8
LACE_HOLES
 10
61.342164
 20
26.511788
 30
0.0
 42
0.4142135623730951
  0
VERTEX
  5
4D3
  8
LACE_HOLES
 10
61.537164
 20
26.706788
 30
0.0
 42
0.4142135623730951
  0
SEQEND
  5
4D4
  8
LACE_HOLES
  0
POLYLINE
  5
8C
  8
LACE_HOLES
 66
     1
 10
0.0
 20
0.0
 30
0.0
 70
     1
  0
VERTEX
  5
4D5
  8
LACE_HOLES
 10
55.925101
 20
27.971821
 30
0.0
 42
0.4142135623730951
  0
VERTEX
  5
4D6
  8
LACE_HOLES
 10
55.730101
 20
27.776821
 30
0.0
 42
0.4142135623730951
  0
VERTEX
  5
4D7
  8
LACE_HOLES
 10
55.925101
 20
27.581821
 30
0.0
 42
0.4142135623730951
  0
VERTEX
  5
4D8
  8
LACE_HOLES
 10
56.120101
 20
27.776821
 30
0.0
 42
0.4142135623730951
  0
SEQEND
  5
4D9
  8
LACE_HOLES
  0
POLYLINE
  5
8D
  8
LACE_HOLES
 66
     1
 10
0.0
 20
0.0
 30
0.0
 70
     1
  0
VERTEX
  5
4DA
  8
LACE_HOLES
 10
50.425864
 20
28.469755
 30
0.0
 42
0.4142135623730951
  0
VERTEX
  5
4DB
  8
LACE_HOLES
 10
50.230864
 20
28.274755
 30
0.0
 42
0.4142135623730951
  0
VERTEX
  5
4DC
  8
LACE_HOLES
 10
50.425864
 20
28.079755
 30
0.0
 42
0.4142135623730951
  0
VERTEX
  5
4DD
  8
LACE_HOLES
 10
50.620864
 20
28.274755
 30
0.0
 42
0.4142135623730951
  0
SEQEND
  5
4DE
  8
LACE_HOLES
  0
POLYLINE
  5
8E
  8
LACE_HOLES
 66
     1
 10
0.0
 20
0.0
 30
0.0
 70
     1
  0
VERTEX
  5
4DF
  8
LACE_HOLES
 10
44.904704
 20
28.390134
 30
0.0
 42
0.4142135623730951
  0
VERTEX
  5
4E0
  8
LACE_HOLES
 10
44.709704
 20
28.195134
 30
0.0
 42
0.4142135623730951
  0
VERTEX
  5
4E1
  8
LACE_HOLES
 10
44.904704
 20
28.000134
 30
0.0
 42
0.4142135623730951
  0
VERTEX
  5
4E2
  8
LACE_HOLES
 10
45.099704
 20
28.195134
 30
0.0
 42
0.4142135623730951
  0
SEQEND
  5
4E3
  8
LACE_HOLES
  0
POLYLINE
  5
8F
  8
LACE_HOLES
 66
     1
 10
0.0
 20
0.0
 30
0.0
 70
     1
  0
VERTEX
  5
4E4
  8
LACE_HOLES
 10
39.422112
 20
27.733831
 30
0.0
 42
0.4142135623730951
  0
VERTEX
  5
4E5
  8
LACE_HOLES
 10
39.227112
 20
27.538831
 30
0.0
 42
0.4142135623730951
  0
VERTEX
  5
4E6
  8
LACE_HOLES
 10
39.422112
 20
27.343831
 30
0.0
 42
0.4142135623730951
  0
VERTEX
  5
4E7
  8
LACE_HOLES
 10
39.617112
 20
27.538831
 30
0.0
 42
0.4142135623730951
  0
SEQEND
  5
4E8
  8
LACE_HOLES
  0
POLYLINE
  5
90
  8
LACE_HOLES
 66
     1
 10
0.0
 20
0.0
 30
0.0
 70
     1
  0
VERTEX
  5
4E9
  8
LACE_HOLES
 10
28.171426
 20
25.262457
 30
0.0
 42
0.4142135623730951
  0
VERTEX
  5
4EA
  8
LACE_HOLES
 10
27.976426
 20
25.067457
 30
0.0
 42
0.4142135623730951
  0
VERTEX
  5
4EB
  8
LACE_HOLES
 10
28.171426
 20
24.872457
 30
0.0
 42
0.4142135623730951
  0
VERTEX
  5
4EC
  8
LACE_HOLES
 10
28.366426
 20
25.067457
 30
0.0
 42
0.4142135623730951
  0
SEQEND
  5
4ED
  8
LACE_HOLES
  0
POLYLINE
  5
91
  8
LACE_HOLES
 66
     1
 10
0.0
 20
0.0
 30
0.0
 70
     1
  0
VERTEX
  5
4EE
  8
LACE_HOLES
 10
34.686023
 20
38.27467
 30
0.0
 42
0.4142135623730951
  0
VERTEX
  5
4EF
  8
LACE_HOLES
 10
34.491023
 20
38.07967
 30
0.0
 42
0.4142135623730951
  0
VERTEX
  5
4F0
  8
LACE_HOLES
 10
34.686023
 20
37.88467
 30
0.0
 42
0.4142135623730951
  0
VERTEX
  5
4F1
  8
LACE_HOLES
 10
34.881023
 20
38.07967
 30
0.0
 42
0.4142135623730951
  0
SEQEND
  5
4F2
  8
LACE_HOLES
  0
POLYLINE
  5
92
  8
LACE_HOLES
 66
     1
 10
0.0
 20
0.0
 30
0.0
 70
     1
  0
VERTEX
  5
4F3
  8
LACE_HOLES
 10
29.411051
 20
36.642426
 30
0.0
 42
0.4142135623730951
  0
VERTEX
  5
4F4
  8
LACE_HOLES
 10
29.216051
 20
36.447426
 30
0.0
 42
0.4142135623730951
  0
VERTEX
  5
4F5
  8
LACE_HOLES
 10
29.411051
 20
36.252426
 30
0.0
 42
0.4142135623730951
  0
VERTEX
  5
4F6
  8
LACE_HOLES
 10
29.606051
 20
36.447426
 30
0.0
 42
0.4142135623730951
  0
SEQEND
  5
4F7
  8
LACE_HOLES
  0
POLYLINE
  5
93
  8
LACE_HOLES
 66
     1
 10
0.0
 20
0.0
 30
0.0
 70
     1
  0
VERTEX
  5
4F8
  8
LACE_HOLES
 10
24.335593
 20
34.467738
 30
0.0
 42
0.4142135623730951
  0
VERTEX
  5
4F9
  8
LACE_HOLES
 10
24.140593
 20
34.272738
 30
0.0
 42
0.4142135623730951
  0
VERTEX
  5
4FA
  8
LACE_HOLES
 10
24.335593
 20
34.077738
 30
0.0
 42
0.4142135623730951
  0
VERTEX
  5
4FB
  8
LACE_HOLES
 10
24.530593
 20
34.272738
 30
0.0
 42
0.4142135623730951
  0
SEQEND
  5
4FC
  8
LACE_HOLES
  0
POLYLINE
  5
94
  8
LACE_HOLES
 66
     1
 10
0.0
 20
0.0
 30
0.0
 70
     1
  0
VERTEX
  5
4FD
  8
LACE_HOLES
 10
33.2828
 20
10.354807
 30
0.0
 42
0.4142135623730951
  0
VERTEX
  5
4FE
  8
LACE_HOLES
 10
33.0878
 20
10.159807
 30
0.0
 42
0.4142135623730951
  0
VERTEX
  5
4FF
  8
LACE_HOLES
 10
33.2828
 20
9.964807
 30
0.0
 42
0.4142135623730951
  0
VERTEX
  5
500
  8
LACE_HOLES
 10
33.4778
 20
10.159807
 30
0.0
 42
0.4142135623730951
  0
SEQEND
  5
501
  8
LACE_HOLES
  0
POLYLINE
  5
95
  8
LACE_HOLES
 66
     1
 10
0.0
 20
0.0
 30
0.0
 70
     1
  0
VERTEX
  5
502
  8
LACE_HOLES
 10
38.683186
 20
9.203557
 30
0.0
 42
0.4142135623730951
  0
VERTEX
  5
503
  8
LACE_HOLES
 10
38.488186
 20
9.008557
 30
0.0
 42
0.4142135623730951
  0
VERTEX
  5
504
  8
LACE_HOLES
 10
38.683186
 20
8.813557
 30
0.0
 42
0.4142135623730951
  0
VERTEX
  5
505
  8
LACE_HOLES
 10
38.878186
 20
9.008557
 30
0.0
 42
0.4142135623730951
  0
SEQEND
  5
506
  8
LACE_HOLES
  0
POLYLINE
  5
96
  8
LACE_HOLES
 66
     1
 10
0.0
 20
0.0
 30
0.0
 70
     1
  0
VERTEX
  5
507
  8
LACE_HOLES
 10
44.174327
 20
8.623108
 30
0.0
 42
0.4142135623730951
  0
VERTEX
  5
508
  8
LACE_HOLES
 10
43.979327
 20
8.428108
 30
0.0
 42
0.4142135623730951
  0
VERTEX
  5
509
  8
LACE_HOLES
 10
44.174327
 20
8.233108
 30
0.0
 42
0.4142135623730951
  0
VERTEX
  5
50A
  8
LACE_HOLES
 10
44.369327
 20
8.428108
 30
0.0
 42
0.4142135623730951
  0
SEQEND
  5
50B
  8
LACE_HOLES
  0
POLYLINE
  5
97
  8
LACE_HOLES
 66
     1
 10
0.0
 20
0.0
 30
0.0
 70
     1
  0
VERTEX
  5
50C
  8
LACE_HOLES
 10
40.102714
 20
39.346588
 30
0.0
 42
0.4142135623730951
  0
VERTEX
  5
50D
  8
LACE_HOLES
 10
39.907714
 20
39.151588
 30
0.0
 42
0.4142135623730951
  0
VERTEX
  5
50E
  8
LACE_HOLES
 10
40.102714
 20
38.956588
 30
0.0
 42
0.4142135623730951
  0
VERTEX
  5
50F
  8
LACE_HOLES
 10
40.297714
 20
39.151588
 30
0.0
 42
0.4142135623730951
  0
SEQEND
  5
510
  8
LACE_HOLES
  0
POLYLINE
  5
98
  8
LACE_HOLES
 66
     1
 10
0.0
 20
0.0
 30
0.0
 70
     1
  0
VERTEX
  5
511
  8
LACE_HOLES
 10
45.601777
 20
39.846436
 30
0.0
 42
0.4142135623730951
  0
VERTEX
  5
512
  8
LACE_HOLES
 10
45.406777
 20
39.651436
 30
0.0
 42
0.4142135623730951
  0
VERTEX
  5
513
  8
LACE_HOLES
 10
45.601777
 20
39.456436
 30
0.0
 42
0.4142135623730951
  0
VERTEX
  5
514
  8
LACE_HOLES
 10
45.796777
 20
39.651436
 30
0.0
 42
0.4142135623730951
  0
SEQEND
  5
515
  8
LACE_HOLES
  0
POLYLINE
  5
99
  8
LACE_HOLES
 66
     1
 10
0.0
 20
0.0
 30
0.0
 70
     1
  0
VERTEX
  5
516
  8
LACE_HOLES
 10
51.122964
 20
39.768737
 30
0.0
 42
0.4142135623730951
  0
VERTEX
  5
517
  8
LACE_HOLES
 10
50.927964
 20
39.573737
 30
0.0
 42
0.4142135623730951
  0
VERTEX
  5
518
  8
LACE_HOLES
 10
51.122964
 20
39.378737
 30
0.0
 42
0.4142135623730951
  0
VERTEX
  5
519
  8
LACE_HOLES
 10
51.317964
 20
39.573737
 30
0.0
 42
0.4142135623730951
  0
SEQEND
  5
51A
  8
LACE_HOLES
  0
POLYLINE
  5
9A
  8
LACE_HOLES
 66
     1
 10
0.0
 20
0.0
 30
0.0
 70
     1
  0
VERTEX
  5
51B
  8
LACE_HOLES
 10
56.605784
 20
39.114342
 30
0.0
 42
0.4142135623730951
  0
VERTEX
  5
51C
  8
LACE_HOLES
 10
56.410784
 20
38.919342
 30
0.0
 42
0.4142135623730951
  0
VERTEX
  5
51D
  8
LACE_HOLES
 10
56.605784
 20
38.724342
 30
0.0
 42
0.4142135623730951
  0
VERTEX
  5
51E
  8
LACE_HOLES
 10
56.800784
 20
38.919342
 30
0.0
 42
0.4142135623730951
  0
SEQEND
  5
51F
  8
LACE_HOLES
  0
POLYLINE
  5
9B
  8
LACE_HOLES
 66
     1
 10
0.0
 20
0.0
 30
0.0
 70
     1
  0
VERTEX
  5
520
  8
LACE_HOLES
 10
61.990166
 20
37.890422
 30
0.0
 42
0.4142135623730951
  0
VERTEX
  5
521
  8
LACE_HOLES
 10
61.795166
 20
37.695422
 30
0.0
 42
0.4142135623730951
  0
VERTEX
  5
522
  8
LACE_HOLES
 10
61.990166
 20
37.500422
 30
0.0
 42
0.4142135623730951
  0
VERTEX
  5
523
  8
LACE_HOLES
 10
62.185166
 20
37.695422
 30
0.0
 42
0.4142135623730951
  0
SEQEND
  5
524
  8
LACE_HOLES
  0
POLYLINE
  5
9C
  8
LACE_HOLES
 66
     1
 10
0.0
 20
0.0
 30
0.0
 70
     1
  0
VERTEX
  5
525
  8
LACE_HOLES
 10
67.217117
 20
36.110385
 30
0.0
 42
0.4142135623730951
  0
VERTEX
  5
526
  8
LACE_HOLES
 10
67.02211700000001
 20
35.915385
 30
0.0
 42
0.4142135623730951
  0
VERTEX
  5
527
  8
LACE_HOLES
 10
67.217117
 20
35.720385
 30
0.0
 42
0.4142135623730951
  0
VERTEX
  5
528
  8
LACE_HOLES
 10
67.412117
 20
35.915385
 30
0.0
 42
0.4142135623730951
  0
SEQEND
  5
529
  8
LACE_HOLES
  0
POLYLINE
  5
9D
  8
LACE_HOLES
 66
     1
 10
0.0
 20
0.0
 30
0.0
 70
     1
  0
VERTEX
  5
52A
  8
LACE_HOLES
 10
72.229369
 20
33.793734
 30
0.0
 42
0.4142135623730951
  0
VERTEX
  5
52B
  8
LACE_HOLES
 10
72.03436900000001
 20
33.598734
 30
0.0
 42
0.4142135623730951
  0
VERTEX
  5
52C
  8
LACE_HOLES
 10
72.229369
 20
33.403734
 30
0.0
 42
0.4142135623730951
  0
VERTEX
  5
52D
  8
LACE_HOLES
 10
72.424369
 20
33.598734
 30
0.0
 42
0.4142135623730951
  0
SEQEND
  5
52E
  8
LACE_HOLES
  0
POLYLINE
  5
9E
  8
LACE_HOLES
 66
     1
 10
0.0
 20
0.0
 30
0.0
 70
     1
  0
VERTEX
  5
52F
  8
LACE_HOLES
 10
8.052673
 20
13.51531
 30
0.0
 42
0.4142135623730951
  0
VERTEX
  5
530
  8
LACE_HOLES
 10
7.857673
 20
13.32031
 30
0.0
 42
0.4142135623730951
  0
VERTEX
  5
531
  8
LACE_HOLES
 10
8.052673
 20
13.12531
 30
0.0
 42
0.4142135623730951
  0
VERTEX
  5
532
  8
LACE_HOLES
 10
8.247673
 20
13.32031
 30
0.0
 42
0.4142135623730951
  0
SEQEND
  5
533
  8
LACE_HOLES
  0
POLYLINE
  5
9F
  8
LACE_HOLES
 66
     1
 10
0.0
 20
0.0
 30
0.0
 70
     1
  0
VERTEX
  5
534
  8
LACE_HOLES
 10
8.052673
 20
19.51531
 30
0.0
 42
0.4142135623730951
  0
VERTEX
  5
535
  8
LACE_HOLES
 10
7.857673
 20
19.32031
 30
0.0
 42
0.4142135623730951
  0
VERTEX
  5
536
  8
LACE_HOLES
 10
8.052673
 20
19.12531
 30
0.0
 42
0.4142135623730951
  0
VERTEX
  5
537
  8
LACE_HOLES
 10
8.247673
 20
19.32031
 30
0.0
 42
0.4142135623730951
  0
SEQEND
  5
538
  8
LACE_HOLES
  0
POLYLINE
  5
A0
  8
LACE_HOLES
 66
     1
 10
0.0
 20
0.0
 30
0.0
 70
     1
  0
VERTEX
  5
539
  8
LACE_HOLES
 10
8.052673
 20
25.51531
 30
0.0
 42
0.4142135623730951
  0
VERTEX
  5
53A
  8
LACE_HOLES
 10
7.857673
 20
25.32031
 30
0.0
 42
0.4142135623730951
  0
VERTEX
  5
53B
  8
LACE_HOLES
 10
8.052673
 20
25.12531
 30
0.0
 42
0.4142135623730951
  0
VERTEX
  5
53C
  8
LACE_HOLES
 10
8.247673
 20
25.32031
 30
0.0
 42
0.4142135623730951
  0
SEQEND
  5
53D
  8
LACE_HOLES
  0
POLYLINE
  5
A1
  8
LACE_HOLES
 66
     1
 10
0.0
 20
0.0
 30
0.0
 70
     1
  0
VERTEX
  5
53E
  8
LACE_HOLES
 10
8.052673
 20
31.51531
 30
0.0
 42
0.4142135623730951
  0
VERTEX
  5
53F
  8
LACE_HOLES
 10
7.857673
 20
31.32031
 30
0.0
 42
0.4142135623730951
  0
VERTEX
  5
540
  8
LACE_HOLES
 10
8.052673
 20
31.12531
 30
0.0
 42
0.4142135623730951
  0
VERTEX
  5
541
  8
LACE_HOLES
 10
8.247673
 20
31.32031
 30
0.0
 42
0.4142135623730951
  0
SEQEND
  5
542
  8
LACE_HOLES
  0
POLYLINE
  5
A2
  8
LACE_HOLES
 66
     1
 10
0.0
 20
0.0
 30
0.0
 70
     1
  0
VERTEX
  5
543
  8
LACE_HOLES
 10
8.052673
 20
37.51531
 30
0.0
 42
0.4142135623730951
  0
VERTEX
  5
544
  8
LACE_HOLES
 10
7.857673
 20
37.32031
 30
0.0
 42
0.4142135623730951
  0
VERTEX
  5
545
  8
LACE_HOLES
 10
8.052673
 20
37.12531
 30
0.0
 42
0.4142135623730951
  0
VERTEX
  5
546
  8
LACE_HOLES
 10
8.247673
 20
37.32031
 30
0.0
 42
0.4142135623730951
  0
SEQEND
  5
547
  8
LACE_HOLES
  0
POLYLINE
  5
A3
  8
LACE_HOLES
 66
     1
 10
0.0
 20
0.0
 30
0.0
 70
     1
  0
VERTEX
  5
548
  8
LACE_HOLES
 10
8.052673
 20
43.51531
 30
0.0
 42
0.4142135623730951
  0
VERTEX
  5
549
  8
LACE_HOLES
 10
7.857673
 20
43.32031
 30
0.0
 42
0.4142135623730951
  0
VERTEX
  5
54A
  8
LACE_HOLES
 10
8.052673
 20
43.12531
 30
0.0
 42
0.4142135623730951
  0
VERTEX
  5
54B
  8
LACE_HOLES
 10
8.247673
 20
43.32031
 30
0.0
 42
0.4142135623730951
  0
SEQEND
  5
54C
  8
LACE_HOLES
  0
POLYLINE
  5
A4
  8
LACE_HOLES
 66
     1
 10
0.0
 20
0.0
 30
0.0
 70
     1
  0
VERTEX
  5
54D
  8
LACE_HOLES
 10
55.69055
 20
8.576418
 30
0.0
 42
0.4142135623730951
  0
VERTEX
  5
54E
  8
LACE_HOLES
 10
55.49555
 20
8.381418
 30
0.0
 42
0.4142135623730951
  0
VERTEX
  5
54F
  8
LACE_HOLES
 10
55.69055
 20
8.186418
 30
0.0
 42
0.4142135623730951
  0
VERTEX
  5
550
  8
LACE_HOLES
 10
55.88555
 20
8.381418
 30
0.0
 42
0.4142135623730951
  0
SEQEND
  5
551
  8
LACE_HOLES
  0
POLYLINE
  5
A5
  8
LACE_HOLES
 66
     1
 10
0.0
 20
0.0
 30
0.0
 70
     1
  0
VERTEX
  5
552
  8
LACE_HOLES
 10
61.69055
 20
8.576418
 30
0.0
 42
0.4142135623730951
  0
VERTEX
  5
553
  8
LACE_HOLES
 10
61.49555
 20
8.381418
 30
0.0
 42
0.4142135623730951
  0
VERTEX
  5
554
  8
LACE_HOLES
 10
61.69055
 20
8.186418
 30
0.0
 42
0.4142135623730951
  0
VERTEX
  5
555
  8
LACE_HOLES
 10
61.88555
 20
8.381418
 30
0.0
 42
0.4142135623730951
  0
SEQEND
  5
556
  8
LACE_HOLES
  0
POLYLINE
  5
A6
  8
LACE_HOLES
 66
     1
 10
0.0
 20
0.0
 30
0.0
 70
     1
  0
VERTEX
  5
557
  8
LACE_HOLES
 10
67.69055
 20
8.576418
 30
0.0
 42
0.4142135623730951
  0
VERTEX
  5
558
  8
LACE_HOLES
 10
67.49555000000001
 20
8.381418
 30
0.0
 42
0.4142135623730951
  0
VERTEX
  5
559
  8
LACE_HOLES
 10
67.69055
 20
8.186418
 30
0.0
 42
0.4142135623730951
  0
VERTEX
  5
55A
  8
LACE_HOLES
 10
67.88555
 20
8.381418
 30
0.0
 42
0.4142135623730951
  0
SEQEND
  5
55B
  8
LACE_HOLES
  0
POLYLINE
  5
A7
  8
LACE_HOLES
 66
     1
 10
0.0
 20
0.0
 30
0.0
 70
     1
  0
VERTEX
  5
55C
  8
LACE_HOLES
 10
73.69055
 20
8.576418
 30
0.0
 42
0.4142135623730951
  0
VERTEX
  5
55D
  8
LACE_HOLES
 10
73.49555000000001
 20
8.381418
 30
0.0
 42
0.4142135623730951
  0
VERTEX
  5
55E
  8
LACE_HOLES
 10
73.69055
 20
8.186418
 30
0.0
 42
0.4142135623730951
  0
VERTEX
  5
55F
  8
LACE_HOLES
 10
73.88555
 20
8.381418
 30
0.0
 42
0.4142135623730951
  0
SEQEND
  5
560
  8
LACE_HOLES
  0
POLYLINE
  5
A8
  8
LACE_HOLES
 66
     1
 10
0.0
 20
0.0
 30
0.0
 70
     1
  0
VERTEX
  5
561
  8
LACE_HOLES
 10
79.69055
 20
8.576418
 30
0.0
 42
0.4142135623730951
  0
VERTEX
  5
562
  8
LACE_HOLES
 10
79.49555000000001
 20
8.381418
 30
0.0
 42
0.4142135623730951
  0
VERTEX
  5
563
  8
LACE_HOLES
 10
79.69055
 20
8.186418
 30
0.0
 42
0.4142135623730951
  0
VERTEX
  5
564
  8
LACE_HOLES
 10
79.88555
 20
8.381418
 30
0.0
 42
0.4142135623730951
  0
SEQEND
  5
565
  8
LACE_HOLES
  0
POLYLINE
  5
A9
  8
LACE_HOLES
 66
     1
 10
0.0
 20
0.0
 30
0.0
 70
     1
  0
VERTEX
  5
566
  8
LACE_HOLES
 10
85.69055
 20
8.576418
 30
0.0
 42
0.4142135623730951
  0
VERTEX
  5
567
  8
LACE_HOLES
 10
85.49555000000001
 20
8.381418
 30
0.0
 42
0.4142135623730951
  0
VERTEX
  5
568
  8
LACE_HOLES
 10
85.69055
 20
8.186418
 30
0.0
 42
0.4142135623730951
  0
VERTEX
  5
569
  8
LACE_HOLES
 10
85.88555
 20
8.381418
 30
0.0
 42
0.4142135623730951
  0
SEQEND
  5
56A
  8
LACE_HOLES
  0
POLYLINE
  5
AA
  8
LACE_HOLES
 66
     1
 10
0.0
 20
0.0
 30
0.0
 70
     1
  0
VERTEX
  5
56B
  8
LACE_HOLES
 10
91.69055
 20
8.576418
 30
0.0
 42
0.4142135623730951
  0
VERTEX
  5
56C
  8
LACE_HOLES
 10
91.49555000000001
 20
8.381418
 30
0.0
 42
0.4142135623730951
  0
VERTEX
  5
56D
  8
LACE_HOLES
 10
91.69055
 20
8.186418
 30
0.0
 42
0.4142135623730951
  0
VERTEX
  5
56E
  8
LACE_HOLES
 10
91.88555
 20
8.381418
 30
0.0
 42
0.4142135623730951
  0
SEQEND
  5
56F
  8
LACE_HOLES
  0
POLYLINE
  5
AB
  8
LACE_HOLES
 66
     1
 10
0.0
 20
0.0
 30
0.0
 70
     1
  0
VERTEX
  5
570
  8
LACE_HOLES
 10
21.629179
 20
11.6083
 30
0.0
 42
0.4142135623730951
  0
VERTEX
  5
571
  8
LACE_HOLES
 10
21.434179
 20
11.4133
 30
0.0
 42
0.4142135623730951
  0
VERTEX
  5
572
  8
LACE_HOLES
 10
21.629179
 20
11.2183
 30
0.0
 42
0.4142135623730951
  0
VERTEX
  5
573
  8
LACE_HOLES
 10
21.824179
 20
11.4133
 30
0.0
 42
0.4142135623730951
  0
SEQEND
  5
574
  8
LACE_HOLES
  0
POLYLINE
  5
AC
  8
LACE_HOLES
 66
     1
 10
0.0
 20
0.0
 30
0.0
 70
     1
  0
VERTEX
  5
575
  8
LACE_HOLES
 10
26.591318
 20
14.030432
 30
0.0
 42
0.4142135623730951
  0
VERTEX
  5
576
  8
LACE_HOLES
 10
26.396318
 20
13.835432
 30
0.0
 42
0.4142135623730951
  0
VERTEX
  5
577
  8
LACE_HOLES
 10
26.591318
 20
13.640432
 30
0.0
 42
0.4142135623730951
  0
VERTEX
  5
578
  8
LACE_HOLES
 10
26.786318
 20
13.835432
 30
0.0
 42
0.4142135623730951
  0
SEQEND
  5
579
  8
LACE_HOLES
  0
POLYLINE
  5
AD
  8
LACE_HOLES
 66
     1
 10
0.0
 20
0.0
 30
0.0
 70
     1
  0
VERTEX
  5
57A
  8
LACE_HOLES
 10
31.779456
 20
15.92061
 30
0.0
 42
0.4142135623730951
  0
VERTEX
  5
57B
  8
LACE_HOLES
 10
31.584456
 20
15.72561
 30
0.0
 42
0.4142135623730951
  0
VERTEX
  5
57C
  8
LACE_HOLES
 10
31.779456
 20
15.53061
 30
0.0
 42
0.4142135623730951
  0
VERTEX
  5
57D
  8
LACE_HOLES
 10
31.974456
 20
15.72561
 30
0.0
 42
0.4142135623730951
  0
SEQEND
  5
57E
  8
LACE_HOLES
  0
POLYLINE
  5
AE
  8
LACE_HOLES
 66
     1
 10
0.0
 20
0.0
 30
0.0
 70
     1
  0
VERTEX
  5
57F
  8
LACE_HOLES
 10
37.13675
 20
17.258126
 30
0.0
 42
0.4142135623730951
  0
VERTEX
  5
580
  8
LACE_HOLES
 10
36.94175
 20
17.063126
 30
0.0
 42
0.4142135623730951
  0
VERTEX
  5
581
  8
LACE_HOLES
 10
37.13675
 20
16.868126
 30
0.0
 42
0.4142135623730951
  0
VERTEX
  5
582
  8
LACE_HOLES
 10
37.33175
 20
17.063126
 30
0.0
 42
0.4142135623730951
  0
SEQEND
  5
583
  8
LACE_HOLES
  0
POLYLINE
  5
AF
  8
LACE_HOLES
 66
     1
 10
0.0
 20
0.0
 30
0.0
 70
     1
  0
VERTEX
  5
584
  8
LACE_HOLES
 10
42.604504
 20
18.028325
 30
0.0
 42
0.4142135623730951
  0
VERTEX
  5
585
  8
LACE_HOLES
 10
42.409504
 20
17.833325
 30
0.0
 42
0.4142135623730951
  0
VERTEX
  5
586
  8
LACE_HOLES
 10
42.604504
 20
17.638325
 30
0.0
 42
0.4142135623730951
  0
VERTEX
  5
587
  8
LACE_HOLES
 10
42.799504
 20
17.833325
 30
0.0
 42
0.4142135623730951
  0
SEQEND
  5
588
  8
LACE_HOLES
  0
POLYLINE
  5
B0
  8
LACE_HOLES
 66
     1
 10
0.0
 20
0.0
 30
0.0
 70
     1
  0
VERTEX
  5
589
  8
LACE_HOLES
 10
48.122813
 20
18.22277
 30
0.0
 42
0.4142135623730951
  0
VERTEX
  5
58A
  8
LACE_HOLES
 10
47.927812
 20
18.027769
 30
0.0
 42
0.4142135623730951
  0
VERTEX
  5
58B
  8
LACE_HOLES
 10
48.122813
 20
17.832768
 30
0.0
 42
0.4142135623730951
  0
VERTEX
  5
58C
  8
LACE_HOLES
 10
48.317814
 20
18.027769
 30
0.0
 42
0.4142135623730951
  0
SEQEND
  5
58D
  8
LACE_HOLES
  0
POLYLINE
  5
B1
  8
LACE_HOLES
 66
     1
 10
0.0
 20
0.0
 30
0.0
 70
     1
  0
VERTEX
  5
58E
  8
LACE_HOLES
 10
53.631218
 20
17.839327
 30
0.0
 42
0.4142135623730951
  0
VERTEX
  5
58F
  8
LACE_HOLES
 10
53.436218
 20
17.644327
 30
0.0
 42
0.4142135623730951
  0
VERTEX
  5
590
  8
LACE_HOLES
 10
53.631218
 20
17.449327
 30
0.0
 42
0.4142135623730951
  0
VERTEX
  5
591
  8
LACE_HOLES
 10
53.826218
 20
17.644327
 30
0.0
 42
0.4142135623730951
  0
SEQEND
  5
592
  8
LACE_HOLES
  0
POLYLINE
  5
B2
  8
LACE_HOLES
 66
     1
 10
0.0
 20
0.0
 30
0.0
 70
     1
  0
VERTEX
  5
593
  8
LACE_HOLES
 10
59.069366
 20
16.882202
 30
0.0
 42
0.4142135623730951
  0
VERTEX
  5
594
  8
LACE_HOLES
 10
58.874365
 20
16.687201
 30
0.0
 42
0.4142135623730951
  0
VERTEX
  5
595
  8
LACE_HOLES
 10
59.069366
 20
16.4922
 30
0.0
 42
0.4142135623730951
  0
VERTEX
  5
596
  8
LACE_HOLES
 10
59.264367
 20
16.687201
 30
0.0
 42
0.4142135623730951
  0
SEQEND
  5
597
  8
LACE_HOLES
  0
POLYLINE
  5
B3
  8
LACE_HOLES
 66
     1
 10
0.0
 20
0.0
 30
0.0
 70
     1
  0
VERTEX
  5
598
  8
LACE_HOLES
 10
64.377677
 20
15.361878
 30
0.0
 42
0.4142135623730951
  0
VERTEX
  5
599
  8
LACE_HOLES
 10
64.182676
 20
15.166877
 30
0.0
 42
0.4142135623730951
  0
VERTEX
  5
59A
  8
LACE_HOLES
 10
64.377677
 20
14.971876
 30
0.0
 42
0.4142135623730951
  0
VERTEX
  5
59B
  8
LACE_HOLES
 10
64.57267800000001
 20
15.166877
 30
0.0
 42
0.4142135623730951
  0
SEQEND
  5
59C
  8
LACE_HOLES
  0
POLYLINE
  5
B4
  8
LACE_HOLES
 66
     1
 10
0.0
 20
0.0
 30
0.0
 70
     1
  0
VERTEX
  5
59D
  8
LACE_HOLES
 10
69.49799
 20
13.295012
 30
0.0
 42
0.4142135623730951
  0
VERTEX
  5
59E
  8
LACE_HOLES
 10
69.30299000000001
 20
13.100012
 30
0.0
 42
0.4142135623730951
  0
VERTEX
  5
59F
  8
LACE_HOLES
 10
69.49799
 20
12.905012
 30
0.0
 42
0.4142135623730951
  0
VERTEX
  5
5A0
  8
LACE_HOLES
 10
69.69299
 20
13.100012
 30
0.0
 42
0.4142135623730951
  0
SEQEND
  5
5A1
  8
LACE_HOLES
  0
POLYLINE
  5
B5
  8
LACE_HOLES
 66
     1
 10
0.0
 20
0.0
 30
0.0
 70
     1
  0
VERTEX
  5
5A2
  8
LACE_HOLES
 10
33.796769
 20
26.498144
 30
0.0
 42
0.4142135623730951
  0
VERTEX
  5
5A3
  8
LACE_HOLES
 10
33.601769
 20
26.303144
 30
0.0
 42
0.4142135623730951
  0
VERTEX
  5
5A4
  8
LACE_HOLES
 10
33.796769
 20
26.108144
 30
0.0
 42
0.4142135623730951
  0
VERTEX
  5
5A5
  8
LACE_HOLES
 10
33.991769
 20
26.303144
 30
0.0
 42
0.4142135623730951
  0
SEQEND
  5
5A6
  8
LACE_HOLES
  0
POLYLINE
  5
B6
  8
LACE_HOLES
 66
     1
 10
0.0
 20
0.0
 30
0.0
 70
     1
  0
VERTEX
  5
5A7
  8
LACE_HOLES
 10
21.890161
 20
33.184199
 30
0.0
 42
0.4142135623730951
  0
VERTEX
  5
5A8
  8
LACE_HOLES
 10
21.695161
 20
32.989199
 30
0.0
 42
0.4142135623730951
  0
VERTEX
  5
5A9
  8
LACE_HOLES
 10
21.890161
 20
32.794199
 30
0.0
 42
0.4142135623730951
  0
VERTEX
  5
5AA
  8
LACE_HOLES
 10
22.085161
 20
32.989199
 30
0.0
 42
0.4142135623730951
  0
SEQEND
  5
5AB
  8
LACE_HOLES
  0
POLYLINE
  5
B7
  8
LACE_HOLES
 66
     1
 10
0.0
 20
0.0
 30
0.0
 70
     1
  0
VERTEX
  5
5AC
  8
LACE_HOLES
 10
26.844849
 20
35.621535
 30
0.0
 42
0.4142135623730951
  0
VERTEX
  5
5AD
  8
LACE_HOLES
 10
26.649849
 20
35.426535
 30
0.0
 42
0.4142135623730951
  0
VERTEX
  5
5AE
  8
LACE_HOLES
 10
26.844849
 20
35.231535
 30
0.0
 42
0.4142135623730951
  0
VERTEX
  5
5AF
  8
LACE_HOLES
 10
27.039849
 20
35.426535
 30
0.0
 42
0.4142135623730951
  0
SEQEND
  5
5B0
  8
LACE_HOLES
  0
POLYLINE
  5
B8
  8
LACE_HOLES
 66
     1
 10
0.0
 20
0.0
 30
0.0
 70
     1
  0
VERTEX
  5
5B1
  8
LACE_HOLES
 10
32.027166
 20
37.527613
 30
0.0
 42
0.4142135623730951
  0
VERTEX
  5
5B2
  8
LACE_HOLES
 10
31.832166
 20
37.332613
 30
0.0
 42
0.4142135623730951
  0
VERTEX
  5
5B3
  8
LACE_HOLES
 10
32.027166
 20
37.137613
 30
0.0
 42
0.4142135623730951
  0
VERTEX
  5
5B4
  8
LACE_HOLES
 10
32.222166
 20
37.332613
 30
0.0
 42
0.4142135623730951
  0
SEQEND
  5
5B5
  8
LACE_HOLES
  0
POLYLINE
  5
B9
  8
LACE_HOLES
 66
     1
 10
0.0
 20
0.0
 30
0.0
 70
     1
  0
VERTEX
  5
5B6
  8
LACE_HOLES
 10
37.380334
 20
38.88155
 30
0.0
 42
0.4142135623730951
  0
VERTEX
  5
5B7
  8
LACE_HOLES
 10
37.185334
 20
38.68655
 30
0.0
 42
0.4142135623730951
  0
VERTEX
  5
5B8
  8
LACE_HOLES
 10
37.380334
 20
38.49155
 30
0.0
 42
0.4142135623730951
  0
VERTEX
  5
5B9
  8
LACE_HOLES
 10
37.575334
 20
38.68655
 30
0.0
 42
0.4142135623730951
  0
SEQEND
  5
5BA
  8
LACE_HOLES
  0
POLYLINE
  5
BA
  8
LACE_HOLES
 66
     1
 10
0.0
 20
0.0
 30
0.0
 70
     1
  0
VERTEX
  5
5BB
  8
LACE_HOLES
 10
42.845701
 20
39.668511
 30
0.0
 42
0.4142135623730951
  0
VERTEX
  5
5BC
  8
LACE_HOLES
 10
42.650701
 20
39.473511
 30
0.0
 42
0.4142135623730951
  0
VERTEX
  5
5BD
  8
LACE_HOLES
 10
42.845701
 20
39.278511
 30
0.0
 42
0.4142135623730951
  0
VERTEX
  5
5BE
  8
LACE_HOLES
 10
43.040701
 20
39.473511
 30
0.0
 42
0.4142135623730951
  0
SEQEND
  5
5BF
  8
LACE_HOLES
  0
POLYLINE
  5
BB
  8
LACE_HOLES
 66
     1
 10
0.0
 20
0.0
 30
0.0
 70
     1
  0
VERTEX
  5
5C0
  8
LACE_HOLES
 10
48.363388
 20
39.879274
 30
0.0
 42
0.4142135623730951
  0
VERTEX
  5
5C1
  8
LACE_HOLES
 10
48.168989
 20
39.684875
 30
0.0
 42
0.4142135623730951
  0
VERTEX
  5
5C2
  8
LACE_HOLES
 10
48.363388
 20
39.490476
 30
0.0
 42
0.4142135623730951
  0
VERTEX
  5
5C3
  8
LACE_HOLES
 10
48.557787
 20
39.684875
 30
0.0
 42
0.4142135623730951
  0
SEQEND
  5
5C4
  8
LACE_HOLES
  0
POLYLINE
  5
BC
  8
LACE_HOLES
 66
     1
 10
0.0
 20
0.0
 30
0.0
 70
     1
  0
VERTEX
  5
5C5
  8
LACE_HOLES
 10
53.872942
 20
39.512725
 30
0.0
 42
0.4142135623730951
  0
VERTEX
  5
5C6
  8
LACE_HOLES
 10
53.678543
 20
39.318326
 30
0.0
 42
0.4142135623730951
  0
VERTEX
  5
5C7
  8
LACE_HOLES
 10
53.872942
 20
39.123927
 30
0.0
 42
0.4142135623730951
  0
VERTEX
  5
5C8
  8
LACE_HOLES
 10
54.067341
 20
39.318326
 30
0.0
 42
0.4142135623730951
  0
SEQEND
  5
5C9
  8
LACE_HOLES
  0
POLYLINE
  5
BD
  8
LACE_HOLES
 66
     1
 10
0.0
 20
0.0
 30
0.0
 70
     1
  0
VERTEX
  5
5CA
  8
LACE_HOLES
 10
59.314
 20
38.57288
 30
0.0
 42
0.4142135623730951
  0
VERTEX
  5
5CB
  8
LACE_HOLES
 10
59.119
 20
38.37788
 30
0.0
 42
0.4142135623730951
  0
VERTEX
  5
5CC
  8
LACE_HOLES
 10
59.314
 20
38.18288
 30
0.0
 42
0.4142135623730951
  0
VERTEX
  5
5CD
  8
LACE_HOLES
 10
59.509
 20
38.37788
 30
0.0
 42
0.4142135623730951
  0
SEQEND
  5
5CE
  8
LACE_HOLES
  0
POLYLINE
  5
BE
  8
LACE_HOLES
 66
     1
 10
0.0
 20
0.0
 30
0.0
 70
     1
  0
VERTEX
  5
5CF
  8
LACE_HOLES
 10
64.626948
 20
37.06884
 30
0.0
 42
0.4142135623730951
  0
VERTEX
  5
5D0
  8
LACE_HOLES
 10
64.431948
 20
36.87384
 30
0.0
 42
0.4142135623730951
  0
VERTEX
  5
5D1
  8
LACE_HOLES
 10
64.626948
 20
36.67884
 30
0.0
 42
0.4142135623730951
  0
VERTEX
  5
5D2
  8
LACE_HOLES
 10
64.82194799999999
 20
36.87384
 30
0.0
 42
0.4142135623730951
  0
SEQEND
  5
5D3
  8
LACE_HOLES
  0
POLYLINE
  5
BF
  8
LACE_HOLES
 66
     1
 10
0.0
 20
0.0
 30
0.0
 70
     1
  0
VERTEX
  5
5D4
  8
LACE_HOLES
 10
69.753575
 20
35.017084
 30
0.0
 42
0.4142135623730951
  0
VERTEX
  5
5D5
  8
LACE_HOLES
 10
69.559176
 20
34.822685
 30
0.0
 42
0.4142135623730951
  0
VERTEX
  5
5D6
  8
LACE_HOLES
 10
69.753575
 20
34.628286
 30
0.0
 42
0.4142135623730951
  0
VERTEX
  5
5D7
  8
LACE_HOLES
 10
69.947974
 20
34.822685
 30
0.0
 42
0.4142135623730951
  0
SEQEND
  5
5D8
  8
LACE_HOLES
  0
POLYLINE
  5
C0
  8
LACE_HOLES
 66
     1
 10
0.0
 20
0.0
 30
0.0
 70
     1
  0
VERTEX
  5
5D9
  8
LACE_HOLES
 10
69.184261
 20
24.251381
 30
0.0
 42
0.4142135623730951
  0
VERTEX
  5
5DA
  8
LACE_HOLES
 10
68.98926100000001
 20
24.056381
 30
0.0
 42
0.4142135623730951
  0
VERTEX
  5
5DB
  8
LACE_HOLES
 10
69.184261
 20
23.861381
 30
0.0
 42
0.4142135623730951
  0
VERTEX
  5
5DC
  8
LACE_HOLES
 10
69.379261
 20
24.056381
 30
0.0
 42
0.4142135623730951
  0
SEQEND
  5
5DD
  8
LACE_HOLES
  0
POLYLINE
  5
C1
  8
LACE_HOLES
 66
     1
 10
0.0
 20
0.0
 30
0.0
 70
     1
  0
VERTEX
  5
5DE
  8
LACE_HOLES
 10
64.00128
 20
26.155055
 30
0.0
 42
0.4142135623730951
  0
VERTEX
  5
5DF
  8
LACE_HOLES
 10
63.806881
 20
25.960656
 30
0.0
 42
0.4142135623730951
  0
VERTEX
  5
5E0
  8
LACE_HOLES
 10
64.00128
 20
25.766257
 30
0.0
 42
0.4142135623730951
  0
VERTEX
  5
5E1
  8
LACE_HOLES
 10
64.195679
 20
25.960656
 30
0.0
 42
0.4142135623730951
  0
SEQEND
  5
5E2
  8
LACE_HOLES
  0
POLYLINE
  5
C2
  8
LACE_HOLES
 66
     1
 10
0.0
 20
0.0
 30
0.0
 70
     1
  0
VERTEX
  5
5E3
  8
LACE_HOLES
 10
58.647642
 20
27.507129
 30
0.0
 42
0.4142135623730951
  0
VERTEX
  5
5E4
  8
LACE_HOLES
 10
58.453243
 20
27.31273
 30
0.0
 42
0.4142135623730951
  0
VERTEX
  5
5E5
  8
LACE_HOLES
 10
58.647642
 20
27.118331
 30
0.0
 42
0.4142135623730951
  0
VERTEX
  5
5E6
  8
LACE_HOLES
 10
58.84204099999999
 20
27.31273
 30
0.0
 42
0.4142135623730951
  0
SEQEND
  5
5E7
  8
LACE_HOLES
  0
POLYLINE
  5
C3
  8
LACE_HOLES
 66
     1
 10
0.0
 20
0.0
 30
0.0
 70
     1
  0
VERTEX
  5
5E8
  8
LACE_HOLES
 10
53.182002
 20
28.292789
 30
0.0
 42
0.4142135623730951
  0
VERTEX
  5
5E9
  8
LACE_HOLES
 10
52.987002
 20
28.097789
 30
0.0
 42
0.4142135623730951
  0
VERTEX
  5
5EA
  8
LACE_HOLES
 10
53.182002
 20
27.902789
 30
0.0
 42
0.4142135623730951
  0
VERTEX
  5
5EB
  8
LACE_HOLES
 10
53.377002
 20
28.097789
 30
0.0
 42
0.4142135623730951
  0
SEQEND
  5
5EC
  8
LACE_HOLES
  0
POLYLINE
  5
C4
  8
LACE_HOLES
 66
     1
 10
0.0
 20
0.0
 30
0.0
 70
     1
  0
VERTEX
  5
5ED
  8
LACE_HOLES
 10
47.664241
 20
28.501632
 30
0.0
 42
0.4142135623730951
  0
VERTEX
  5
5EE
  8
LACE_HOLES
 10
47.469842
 20
28.307233
 30
0.0
 42
0.4142135623730951
  0
VERTEX
  5
5EF
  8
LACE_HOLES
 10
47.664241
 20
28.112834
 30
0.0
 42
0.4142135623730951
  0
VERTEX
  5
5F0
  8
LACE_HOLES
 10
47.85863999999999
 20
28.307233
 30
0.0
 42
0.4142135623730951
  0
SEQEND
  5
5F1
  8
LACE_HOLES
  0
POLYLINE
  5
C5
  8
LACE_HOLES
 66
     1
 10
0.0
 20
0.0
 30
0.0
 70
     1
  0
VERTEX
  5
5F2
  8
LACE_HOLES
 10
42.154815
 20
28.133165
 30
0.0
 42
0.4142135623730951
  0
VERTEX
  5
5F3
  8
LACE_HOLES
 10
41.960416
 20
27.938766
 30
0.0
 42
0.4142135623730951
  0
VERTEX
  5
5F4
  8
LACE_HOLES
 10
42.154815
 20
27.744367
 30
0.0
 42
0.4142135623730951
  0
VERTEX
  5
5F5
  8
LACE_HOLES
 10
42.349214
 20
27.938766
 30
0.0
 42
0.4142135623730951
  0
SEQEND
  5
5F6
  8
LACE_HOLES
  0
POLYLINE
  5
C6
  8
LACE_HOLES
 66
     1
 10
0.0
 20
0.0
 30
0.0
 70
     1
  0
VERTEX
  5
5F7
  8
LACE_HOLES
 10
8.052673
 20
40.514709
 30
0.0
 42
0.4142135623730951
  0
VERTEX
  5
5F8
  8
LACE_HOLES
 10
7.858274000000001
 20
40.32031
 30
0.0
 42
0.4142135623730951
  0
VERTEX
  5
5F9
  8
LACE_HOLES
 10
8.052673
 20
40.125911
 30
0.0
 42
0.4142135623730951
  0
VERTEX
  5
5FA
  8
LACE_HOLES
 10
8.247072000000001
 20
40.32031
 30
0.0
 42
0.4142135623730951
  0
SEQEND
  5
5FB
  8
LACE_HOLES
  0
POLYLINE
  5
C7
  8
LACE_HOLES
 66
     1
 10
0.0
 20
0.0
 30
0.0
 70
     1
  0
VERTEX
  5
5FC
  8
LACE_HOLES
 10
8.052673
 20
34.51531
 30
0.0
 42
0.4142135623730951
  0
VERTEX
  5
5FD
  8
LACE_HOLES
 10
7.857673
 20
34.32031
 30
0.0
 42
0.4142135623730951
  0
VERTEX
  5
5FE
  8
LACE_HOLES
 10
8.052673
 20
34.12531
 30
0.0
 42
0.4142135623730951
  0
VERTEX
  5
5FF
  8
LACE_HOLES
 10
8.247673
 20
34.32031
 30
0.0
 42
0.4142135623730951
  0
SEQEND
  5
600
  8
LACE_HOLES
  0
POLYLINE
  5
C8
  8
LACE_HOLES
 66
     1
 10
0.0
 20
0.0
 30
0.0
 70
     1
  0
VERTEX
  5
601
  8
LACE_HOLES
 10
8.052673
 20
28.514709
 30
0.0
 42
0.4142135623730951
  0
VERTEX
  5
602
  8
LACE_HOLES
 10
7.858274000000001
 20
28.32031
 30
0.0
 42
0.4142135623730951
  0
VERTEX
  5
603
  8
LACE_HOLES
 10
8.052673
 20
28.125911
 30
0.0
 42
0.4142135623730951
  0
VERTEX
  5
604
  8
LACE_HOLES
 10
8.247072000000001
 20
28.32031
 30
0.0
 42
0.4142135623730951
  0
SEQEND
  5
605
  8
LACE_HOLES
  0
POLYLINE
  5
C9
  8
LACE_HOLES
 66
     1
 10
0.0
 20
0.0
 30
0.0
 70
     1
  0
VERTEX
  5
606
  8
LACE_HOLES
 10
8.052673
 20
22.514709
 30
0.0
 42
0.4142135623730951
  0
VERTEX
  5
607
  8
LACE_HOLES
 10
7.858274000000001
 20
22.32031
 30
0.0
 42
0.4142135623730951
  0
VERTEX
  5
608
  8
LACE_HOLES
 10
8.052673
 20
22.125911
 30
0.0
 42
0.4142135623730951
  0
VERTEX
  5
609
  8
LACE_HOLES
 10
8.247072000000001
 20
22.32031
 30
0.0
 42
0.4142135623730951
  0
SEQEND
  5
60A
  8
LACE_HOLES
  0
POLYLINE
  5
CA
  8
LACE_HOLES
 66
     1
 10
0.0
 20
0.0
 30
0.0
 70
     1
  0
VERTEX
  5
60B
  8
LACE_HOLES
 10
8.052673
 20
16.514709
 30
0.0
 42
0.4142135623730951
  0
VERTEX
  5
60C
  8
LACE_HOLES
 10
7.858274000000001
 20
16.32031
 30
0.0
 42
0.4142135623730951
  0
VERTEX
  5
60D
  8
LACE_HOLES
 10
8.052673
 20
16.125911
 30
0.0
 42
0.4142135623730951
  0
VERTEX
  5
60E
  8
LACE_HOLES
 10
8.247072000000001
 20
16.32031
 30
0.0
 42
0.4142135623730951
  0
SEQEND
  5
60F
  8
LACE_HOLES
  0
POLYLINE
  5
CB
  8
LACE_HOLES
 66
     1
 10
0.0
 20
0.0
 30
0.0
 70
     1
  0
VERTEX
  5
610
  8
LACE_HOLES
 10
8.052673
 20
10.51531
 30
0.0
 42
0.4142135623730951
  0
VERTEX
  5
611
  8
LACE_HOLES
 10
7.857673
 20
10.32031
 30
0.0
 42
0.4142135623730951
  0
VERTEX
  5
612
  8
LACE_HOLES
 10
8.052673
 20
10.12531
 30
0.0
 42
0.4142135623730951
  0
VERTEX
  5
613
  8
LACE_HOLES
 10
8.247673
 20
10.32031
 30
0.0
 42
0.4142135623730951
  0
SEQEND
  5
614
  8
LACE_HOLES
  0
POLYLINE
  5
CC
  8
LACE_HOLES
 66
     1
 10
0.0
 20
0.0
 30
0.0
 70
     1
  0
VERTEX
  5
615
  8
LACE_HOLES
 10
36.609439
 20
27.115386
 30
0.0
 42
0.4142135623730951
  0
VERTEX
  5
616
  8
LACE_HOLES
 10
36.41504
 20
26.920987
 30
0.0
 42
0.4142135623730951
  0
VERTEX
  5
617
  8
LACE_HOLES
 10
36.609439
 20
26.726588
 30
0.0
 42
0.4142135623730951
  0
VERTEX
  5
618
  8
LACE_HOLES
 10
36.803838
 20
26.920987
 30
0.0
 42
0.4142135623730951
  0
SEQEND
  5
619
  8
LACE_HOLES
  0
POLYLINE
  5
CD
  8
LACE_HOLES
 66
     1
 10
0.0
 20
0.0
 30
0.0
 70
     1
  0
VERTEX
  5
61A
  8
LACE_HOLES
 10
30.984096
 20
25.879699
 30
0.0
 42
0.4142135623730951
  0
VERTEX
  5
61B
  8
LACE_HOLES
 10
30.789697
 20
25.6853
 30
0.0
 42
0.4142135623730951
  0
VERTEX
  5
61C
  8
LACE_HOLES
 10
30.984096
 20
25.490901
 30
0.0
 42
0.4142135623730951
  0
VERTEX
  5
61D
  8
LACE_HOLES
 10
31.178495
 20
25.6853
 30
0.0
 42
0.4142135623730951
  0
SEQEND
  5
61E
  8
LACE_HOLES
  0
POLYLINE
  5
CE
  8
LACE_HOLES
 66
     1
 10
0.0
 20
0.0
 30
0.0
 70
     1
  0
VERTEX
  5
61F
  8
LACE_HOLES
 10
35.899139
 20
9.725031
 30
0.0
 42
0.4142135623730951
  0
VERTEX
  5
620
  8
LACE_HOLES
 10
35.704139
 20
9.530031
 30
0.0
 42
0.4142135623730951
  0
VERTEX
  5
621
  8
LACE_HOLES
 10
35.899139
 20
9.335030999999999
 30
0.0
 42
0.4142135623730951
  0
VERTEX
  5
622
  8
LACE_HOLES
 10
36.094139
 20
9.530031
 30
0.0
 42
0.4142135623730951
  0
SEQEND
  5
623
  8
LACE_HOLES
  0
POLYLINE
  5
CF
  8
LACE_HOLES
 66
     1
 10
0.0
 20
0.0
 30
0.0
 70
     1
  0
VERTEX
  5
624
  8
LACE_HOLES
 10
41.352376
 20
8.857994
 30
0.0
 42
0.4142135623730951
  0
VERTEX
  5
625
  8
LACE_HOLES
 10
41.157376
 20
8.662994
 30
0.0
 42
0.4142135623730951
  0
VERTEX
  5
626
  8
LACE_HOLES
 10
41.352376
 20
8.467994
 30
0.0
 42
0.4142135623730951
  0
VERTEX
  5
627
  8
LACE_HOLES
 10
41.547376
 20
8.662994
 30
0.0
 42
0.4142135623730951
  0
SEQEND
  5
628
  8
LACE_HOLES
  0
POLYLINE
  5
D0
  8
LACE_HOLES
 66
     1
 10
0.0
 20
0.0
 30
0.0
 70
     1
  0
VERTEX
  5
629
  8
LACE_HOLES
 10
46.858596
 20
8.522671
 30
0.0
 42
0.4142135623730951
  0
VERTEX
  5
62A
  8
LACE_HOLES
 10
46.663596
 20
8.327671
 30
0.0
 42
0.4142135623730951
  0
VERTEX
  5
62B
  8
LACE_HOLES
 10
46.858596
 20
8.132671
 30
0.0
 42
0.4142135623730951
  0
VERTEX
  5
62C
  8
LACE_HOLES
 10
47.053596
 20
8.327671
 30
0.0
 42
0.4142135623730951
  0
SEQEND
  5
62D
  8
LACE_HOLES
  0
POLYLINE
  5
D1
  8
LACE_HOLES
 66
     1
 10
0.0
 20
0.0
 30
0.0
 70
     1
  0
VERTEX
  5
62E
  8
LACE_HOLES
 10
52.69055
 20
8.576418
 30
0.0
 42
0.4142135623730951
  0
VERTEX
  5
62F
  8
LACE_HOLES
 10
52.49555
 20
8.381418
 30
0.0
 42
0.4142135623730951
  0
VERTEX
  5
630
  8
LACE_HOLES
 10
52.69055
 20
8.186418
 30
0.0
 42
0.4142135623730951
  0
VERTEX
  5
631
  8
LACE_HOLES
 10
52.88555
 20
8.381418
 30
0.0
 42
0.4142135623730951
  0
SEQEND
  5
632
  8
LACE_HOLES
  0
POLYLINE
  5
D2
  8
LACE_HOLES
 66
     1
 10
0.0
 20
0.0
 30
0.0
 70
     1
  0
VERTEX
  5
633
  8
LACE_HOLES
 10
58.69055
 20
8.575817
 30
0.0
 42
0.4142135623730951
  0
VERTEX
  5
634
  8
LACE_HOLES
 10
58.496151
 20
8.381418
 30
0.0
 42
0.4142135623730951
  0
VERTEX
  5
635
  8
LACE_HOLES
 10
58.69055
 20
8.187019
 30
0.0
 42
0.4142135623730951
  0
VERTEX
  5
636
  8
LACE_HOLES
 10
58.884949
 20
8.381418
 30
0.0
 42
0.4142135623730951
  0
SEQEND
  5
637
  8
LACE_HOLES
  0
POLYLINE
  5
D3
  8
LACE_HOLES
 66
     1
 10
0.0
 20
0.0
 30
0.0
 70
     1
  0
VERTEX
  5
638
  8
LACE_HOLES
 10
64.69055
 20
8.575817
 30
0.0
 42
0.4142135623730951
  0
VERTEX
  5
639
  8
LACE_HOLES
 10
64.496151
 20
8.381418
 30
0.0
 42
0.4142135623730951
  0
VERTEX
  5
63A
  8
LACE_HOLES
 10
64.69055
 20
8.187019
 30
0.0
 42
0.4142135623730951
  0
VERTEX
  5
63B
  8
LACE_HOLES
 10
64.884949
 20
8.381418
 30
0.0
 42
0.4142135623730951
  0
SEQEND
  5
63C
  8
LACE_HOLES
  0
POLYLINE
  5
D4
  8
LACE_HOLES
 66
     1
 10
0.0
 20
0.0
 30
0.0
 70
     1
  0
VERTEX
  5
63D
  8
LACE_HOLES
 10
70.69055
 20
8.575817
 30
0.0
 42
0.4142135623730951
  0
VERTEX
  5
63E
  8
LACE_HOLES
 10
70.496151
 20
8.381418
 30
0.0
 42
0.4142135623730951
  0
VERTEX
  5
63F
  8
LACE_HOLES
 10
70.69055
 20
8.187019
 30
0.0
 42
0.4142135623730951
  0
VERTEX
  5
640
  8
LACE_HOLES
 10
70.884949
 20
8.381418
 30
0.0
 42
0.4142135623730951
  0
SEQEND
  5
641
  8
LACE_HOLES
  0
POLYLINE
  5
D5
  8
LACE_HOLES
 66
     1
 10
0.0
 20
0.0
 30
0.0
 70
     1
  0
VERTEX
  5
642
  8
LACE_HOLES
 10
76.69055
 20
8.576418
 30
0.0
 42
0.4142135623730951
  0
VERTEX
  5
643
  8
LACE_HOLES
 10
76.49555000000001
 20
8.381418
 30
0.0
 42
0.4142135623730951
  0
VERTEX
  5
644
  8
LACE_HOLES
 10
76.69055
 20
8.186418
 30
0.0
 42
0.4142135623730951
  0
VERTEX
  5
645
  8
LACE_HOLES
 10
76.88555
 20
8.381418
 30
0.0
 42
0.4142135623730951
  0
SEQEND
  5
646
  8
LACE_HOLES
  0
POLYLINE
  5
D6
  8
LACE_HOLES
 66
     1
 10
0.0
 20
0.0
 30
0.0
 70
     1
  0
VERTEX
  5
647
  8
LACE_HOLES
 10
82.69055
 20
8.575817
 30
0.0
 42
0.4142135623730951
  0
VERTEX
  5
648
  8
LACE_HOLES
 10
82.496151
 20
8.381418
 30
0.0
 42
0.4142135623730951
  0
VERTEX
  5
649
  8
LACE_HOLES
 10
82.69055
 20
8.187019
 30
0.0
 42
0.4142135623730951
  0
VERTEX
  5
64A
  8
LACE_HOLES
 10
82.884949
 20
8.381418
 30
0.0
 42
0.4142135623730951
  0
SEQEND
  5
64B
  8
LACE_HOLES
  0
POLYLINE
  5
D7
  8
LACE_HOLES
 66
     1
 10
0.0
 20
0.0
 30
0.0
 70
     1
  0
VERTEX
  5
64C
  8
LACE_HOLES
 10
88.69055
 20
8.575817
 30
0.0
 42
0.4142135623730951
  0
VERTEX
  5
64D
  8
LACE_HOLES
 10
88.496151
 20
8.381418
 30
0.0
 42
0.4142135623730951
  0
VERTEX
  5
64E
  8
LACE_HOLES
 10
88.69055
 20
8.187019
 30
0.0
 42
0.4142135623730951
  0
VERTEX
  5
64F
  8
LACE_HOLES
 10
88.884949
 20
8.381418
 30
0.0
 42
0.4142135623730951
  0
SEQEND
  5
650
  8
LACE_HOLES
  0
POLYLINE
  5
D8
  8
LACE_HOLES
 66
     1
 10
0.0
 20
0.0
 30
0.0
 70
     1
  0
VERTEX
  5
651
  8
LACE_HOLES
 10
25.123817
 20
24.588006
 30
0.0
 42
0.4142135623730951
  0
VERTEX
  5
652
  8
LACE_HOLES
 10
24.933817
 20
24.398006
 30
0.0
 42
0.4142135623730951
  0
VERTEX
  5
653
  8
LACE_HOLES
 10
25.123817
 20
24.208006
 30
0.0
 42
0.4142135623730951
  0
VERTEX
  5
654
  8
LACE_HOLES
 10
25.313817
 20
24.398006
 30
0.0
 42
0.4142135623730951
  0
SEQEND
  5
655
  8
LACE_HOLES
  0
POLYLINE
  5
D9
  8
LACE_HOLES
 66
     1
 10
0.0
 20
0.0
 30
0.0
 70
     1
  0
VERTEX
  5
656
  8
LACE_HOLES
 10
74.139798
 20
21.815169
 30
0.0
 42
0.4142135623730951
  0
VERTEX
  5
657
  8
LACE_HOLES
 10
73.945399
 20
21.62077
 30
0.0
 42
0.4142135623730951
  0
VERTEX
  5
658
  8
LACE_HOLES
 10
74.139798
 20
21.426371
 30
0.0
 42
0.4142135623730951
  0
VERTEX
  5
659
  8
LACE_HOLES
 10
74.334197
 20
21.62077
 30
0.0
 42
0.4142135623730951
  0
SEQEND
  5
65A
  8
LACE_HOLES
  0
POLYLINE
  5
DA
  8
LACE_HOLES
 66
     1
 10
0.0
 20
0.0
 30
0.0
 70
     1
  0
VERTEX
  5
65B
  8
LACE_HOLES
 10
49.69055
 20
8.576418
 30
0.0
 42
0.4142135623730951
  0
VERTEX
  5
65C
  8
LACE_HOLES
 10
49.49555
 20
8.381418
 30
0.0
 42
0.4142135623730951
  0
VERTEX
  5
65D
  8
LACE_HOLES
 10
49.69055
 20
8.186418
 30
0.0
 42
0.4142135623730951
  0
VERTEX
  5
65E
  8
LACE_HOLES
 10
49.88555
 20
8.381418
 30
0.0
 42
0.4142135623730951
  0
SEQEND
  5
65F
  8
LACE_HOLES
  0
POLYLINE
  5
DB
  8
LACE_HOLES
 66
     1
 10
0.0
 20
0.0
 30
0.0
 70
     1
  0
VERTEX
  5
660
  8
LACE_HOLES
 10
45.361113
 20
18.197798
 30
0.0
 42
0.4142135623730951
  0
VERTEX
  5
661
  8
LACE_HOLES
 10
45.166113
 20
18.002798
 30
0.0
 42
0.4142135623730951
  0
VERTEX
  5
662
  8
LACE_HOLES
 10
45.361113
 20
17.807798
 30
0.0
 42
0.4142135623730951
  0
VERTEX
  5
663
  8
LACE_HOLES
 10
45.556113
 20
18.002798
 30
0.0
 42
0.4142135623730951
  0
SEQEND
  5
664
  8
LACE_HOLES
  0
POLYLINE
  5
DC
  8
LACE_HOLES
 66
     1
 10
0.0
 20
0.0
 30
0.0
 70
     1
  0
VERTEX
  5
665
  8
LACE_HOLES
 10
19.515255
 20
31.774434
 30
0.0
 42
0.4142135623730951
  0
VERTEX
  5
666
  8
LACE_HOLES
 10
19.320255
 20
31.579434
 30
0.0
 42
0.4142135623730951
  0
VERTEX
  5
667
  8
LACE_HOLES
 10
19.515255
 20
31.384434
 30
0.0
 42
0.4142135623730951
  0
VERTEX
  5
668
  8
LACE_HOLES
 10
19.710255
 20
31.579434
 30
0.0
 42
0.4142135623730951
  0
SEQEND
  5
669
  8
LACE_HOLES
  0
ENDSEC
  0
EOF
