  0
SECTION
  2
HEADER
  9
$ACADVER
  1
AC1009
  9
$DWGCODEPAGE
  3
ansi_1252
  9
$INSBASE
 10
0.0
 20
0.0
 30
0.0
  9
$EXTMIN
 10
2.779348754239148
 20
1.099552000000006
 30
0.0
  9
$EXTMAX
 10
93.22065124576085
 20
46.900448
 30
0.0
  9
$LIMMIN
 10
0.0
 20
0.0
  9
$LIMMAX
 10
12.0
 20
9.0
  9
$ORTHOMODE
 70
     0
  9
$REGENMODE
 70
     1
  9
$FILLMODE
 70
     1
  9
$QTEXTMODE
 70
     0
  9
$MIRRTEXT
 70
     1
  9
$DRAGMODE
 70
     2
  9
$LTSCALE
 40
1.0
  9
$OSMODE
 70
    37
  9
$ATTMODE
 70
     1
  9
$TEXTSIZE
 40
0.2
  9
$TRACEWID
 40
0.05
  9
$TEXTSTYLE
  7
STANDARD
  9
$CLAYER
  8
0
  9
$CELTYPE
  6
BYLAYER
  9
$CECOLOR
 62
   256
  9
$DIMSCALE
 40
1.0
  9
$DIMASZ
 40
0.18
  9
$DIMEXO
 40
0.0625
  9
$DIMDLI
 40
0.38
  9
$DIMRND
 40
0.0
  9
$DIMDLE
 40
0.0
  9
$DIMEXE
 40
0.18
  9
$DIMTP
 40
0.0
  9
$DIMTM
 40
0.0
  9
$DIMTXT
 40
0.18
  9
$DIMCEN
 40
0.09
  9
$DIMTSZ
 40
0.0
  9
$DIMTOL
 70
     0
  9
$DIMLIM
 70
     0
  9
$DIMTIH
 70
     1
  9
$DIMTOH
 70
     1
  9
$DIMSE1
 70
     0
  9
$DIMSE2
 70
     0
  9
$DIMTAD
 70
     0
  9
$DIMZIN
 70
     0
  9
$DIMBLK
  1

  9
$DIMASO
 70
     1
  9
$DIMSHO
 70
     1
  9
$DIMPOST
  1

  9
$DIMAPOST
  1

  9
$DIMALT
 70
     0
  9
$DIMALTD
 70
     2
  9
$DIMALTF
 40
25.4
  9
$DIMLFAC
 40
1.0
  9
$DIMTOFL
 70
     0
  9
$DIMTVP
 40
0.0
  9
$DIMTIX
 70
     0
  9
$DIMSOXD
 70
     0
  9
$DIMSAH
 70
     0
  9
$DIMBLK1
  1

  9
$DIMBLK2
  1

  9
$DIMSTYLE
  2
STANDARD
  9
$DIMCLRD
 70
     0
  9
$DIMCLRE
 70
     0
  9
$DIMCLRT
 70
     0
  9
$DIMTFAC
 40
1.0
  9
$DIMGAP
 40
0.09
  9
$LUNITS
 70
     2
  9
$LUPREC
 70
     4
  9
$SKETCHINC
 40
0.1
  9
$FILLETRAD
 40
0.5
  9
$AUNITS
 70
     0
  9
$AUPREC
 70
     0
  9
$MENU
  1
.
  9
$ELEVATION
 40
0.0
  9
$PELEVATION
 40
0.0
  9
$THICKNESS
 40
0.0
  9
$LIMCHECK
 70
     0
  9
$CHAMFERA
 40
0.5
  9
$CHAMFERB
 40
0.5
  9
$SKPOLY
 70
     0
  9
$TDCREATE
 40
2454910.5
  9
$TDUPDATE
 40
2455901.446421158
  9
$TDINDWG
 40
0.0000000116
  9
$TDUSRTIMER
 40
0.0000000116
  9
$USRTIMER
 70
     1
  9
$ANGBASE
 50
0.0
  9
$ANGDIR
 70
     0
  9
$PDMODE
 70
     0
  9
$PDSIZE
 40
0.0
  9
$PLINEWID
 40
0.0
  9
$COORDS
 70
     1
  9
$SPLFRAME
 70
     0
  9
$SPLINETYPE
 70
     6
  9
$SPLINESEGS
 70
     8
  9
$ATTDIA
 70
     0
  9
$ATTREQ
 70
     1
  9
$HANDLING
 70
     1
  9
$HANDSEED
  5
353
  9
$SURFTAB1
 70
     6
  9
$SURFTAB2
 70
     6
  9
$SURFTYPE
 70
     6
  9
$SURFU
 70
     6
  9
$SURFV
 70
     6
  9
$UCSNAME
  2

  9
$UCSORG
 10
0.0
 20
0.0
 30
0.0
  9
$UCSXDIR
 10
1.0
 20
0.0
 30
0.0
  9
$UCSYDIR
 10
0.0
 20
1.0
 30
0.0
  9
$PUCSNAME
  2

  9
$PUCSORG
 10
0.0
 20
0.0
 30
0.0
  9
$PUCSXDIR
 10
1.0
 20
0.0
 30
0.0
  9
$PUCSYDIR
 10
0.0
 20
1.0
 30
0.0
  9
$USERI1
 70
     0
  9
$USERI2
 70
     0
  9
$USERI3
 70
     0
  9
$USERI4
 70
     0
  9
$USERI5
 70
     0
  9
$USERR1
 40
0.0
  9
$USERR2
 40
0.0
  9
$USERR3
 40
0.0
  9
$USERR4
 40
0.0
  9
$USERR5
 40
0.0
  9
$WORLDVIEW
 70
     1
  9
$SHADEDGE
 70
     3
  9
$SHADEDIF
 70
    70
  9
$TILEMODE
 70
     1
  9
$MAXACTVP
 70
    64
  9
$PLIMCHECK
 70
     0
  9
$PEXTMIN
 10
1.000000000000000E+20
 20
1.000000000000000E+20
 30
1.000000000000000E+20
  9
$PEXTMAX
 10
-1.000000000000000E+20
 20
-1.000000000000000E+20
 30
-1.000000000000000E+20
  9
$PLIMMIN
 10
0.0
 20
0.0
  9
$PLIMMAX
 10
12.0
 20
9.0
  9
$UNITMODE
 70
     0
  9
$VISRETAIN
 70
     1
  9
$PLINEGEN
 70
     0
  9
$PSLTSCALE
 70
     1
  0
ENDSEC
  0
SECTION
  2
TABLES
  0
TABLE
  2
VPORT
 70
     1
  0
VPORT
  2
*ACTIVE
 70
     0
 10
0.0
 20
0.0
 11
1.0
 21
1.0
 12
10.42990654205607
 22
4.5
 13
0.0
 23
0.0
 14
0.5
 24
0.5
 15
0.5
 25
0.5
 16
0.0
 26
0.0
 36
1.0
 17
0.0
 27
0.0
 37
0.0
 40
9.0
 41
1.972972972850329
 42
50.0
 43
0.0
 44
0.0
 50
0.0
 51
0.0
 71
     0
 72
   100
 73
     1
 74
     3
 75
     0
 76
     0
 77
     0
 78
     0
  0
ENDTAB
  0
TABLE
  2
LTYPE
 70
     2
  0
LTYPE
  2
CONTINUOUS
 70
     0
  3
Solid line
 72
    65
 73
     0
 40
0.0
  0
LTYPE
  2
CONTINUOUS2
 70
     0
  3
Solid Line
 72
    65
 73
     0
 40
0.0
  0
ENDTAB
  0
TABLE
  2
LAYER
 70
     2
  0
LAYER
  2
0
 70
     0
 62
     7
  6
CONTINUOUS
  0
LAYER
  2
THROUGH_CUT
 70
     0
 62
    18
  6
CONTINUOUS
  0
ENDTAB
  0
TABLE
  2
STYLE
 70
     1
  0
STYLE
  2
STANDARD
 70
     0
 40
0.0
 41
1.0
 50
0.0
 71
     0
 42
0.2
  3
txt
  4

  0
ENDTAB
  0
TABLE
  2
VIEW
 70
     0
  0
ENDTAB
  0
TABLE
  2
UCS
 70
     0
  0
ENDTAB
  0
TABLE
  2
APPID
 70
     1
  0
APPID
  2
ACAD
 70
     0
  0
ENDTAB
  0
TABLE
  2
DIMSTYLE
 70
     1
  0
DIMSTYLE
  2
STANDARD
 70
     0
  3

  4

  5

  6

  7

 40
1.0
 41
0.18
 42
0.0625
 43
0.38
 44
0.18
 45
0.0
 46
0.0
 47
0.0
 48
0.0
140
0.18
141
0.09
142
0.0
143
25.4
144
1.0
145
0.0
146
1.0
147
0.09
 71
     0
 72
     0
 73
     1
 74
     1
 75
     0
 76
     0
 77
     0
 78
     0
170
     0
171
     2
172
     0
173
     0
174
     0
175
     0
176
     0
177
     0
178
     0
  0
ENDTAB
  0
ENDSEC
  0
SECTION
  2
BLOCKS
  0
BLOCK
  8
0
  2
$MODEL_SPACE
 70
     0
 10
0.0
 20
0.0
 30
0.0
  3
$MODEL_SPACE
  1

  0
ENDBLK
  5
21
  8
0
  0
BLOCK
 67
     1
  8
0
  2
$PAPER_SPACE
 70
     0
 10
0.0
 20
0.0
 30
0.0
  3
$PAPER_SPACE
  1

  0
ENDBLK
  5
1D
 67
     1
  8
0
  0
ENDSEC
  0
SECTION
  2
ENTITIES
  0
POLYLINE
  5
41
  8
THROUGH_CUT
 66
     1
 10
0.0
 20
0.0
 30
0.0
 70
     1
  0
VERTEX
  5
5A
  8
THROUGH_CUT
 10
30.3750005
 20
11.099777
 30
0.0
  0
VERTEX
  5
5B
  8
THROUGH_CUT
 10
15.26870004189797
 20
11.09977896504709
 30
0.0
 42
-1.0
  0
VERTEX
  5
5C
  8
THROUGH_CUT
 10
14.9999995
 20
11.36847954189798
 30
0.0
  0
VERTEX
  5
5D
  8
THROUGH_CUT
 10
14.9999995
 20
11.699776
 30
0.0
  0
VERTEX
  5
5E
  8
THROUGH_CUT
 10
14.9984805
 20
11.71714100000001
 30
0.0
  0
VERTEX
  5
5F
  8
THROUGH_CUT
 10
14.9939695
 20
11.73397900000001
 30
0.0
  0
VERTEX
  5
60
  8
THROUGH_CUT
 10
14.9866025
 20
11.749776
 30
0.0
  0
VERTEX
  5
61
  8
THROUGH_CUT
 10
14.9766045
 20
11.764055
 30
0.0
  0
VERTEX
  5
62
  8
THROUGH_CUT
 10
14.9642785
 20
11.776381
 30
0.0
  0
VERTEX
  5
63
  8
THROUGH_CUT
 10
14.9499995
 20
11.786379
 30
0.0
  0
VERTEX
  5
64
  8
THROUGH_CUT
 10
14.9342015
 20
11.793746
 30
0.0
  0
VERTEX
  5
65
  8
THROUGH_CUT
 10
14.9173645
 20
11.798257
 30
0.0
  0
VERTEX
  5
66
  8
THROUGH_CUT
 10
14.8999995
 20
11.799776
 30
0.0
  0
VERTEX
  5
67
  8
THROUGH_CUT
 10
12.1000005
 20
11.799776
 30
0.0
  0
VERTEX
  5
68
  8
THROUGH_CUT
 10
12.0826355
 20
11.798257
 30
0.0
  0
VERTEX
  5
69
  8
THROUGH_CUT
 10
12.0657985
 20
11.793746
 30
0.0
  0
VERTEX
  5
6A
  8
THROUGH_CUT
 10
12.0500005
 20
11.786379
 30
0.0
  0
VERTEX
  5
6B
  8
THROUGH_CUT
 10
12.0357215
 20
11.776381
 30
0.0
  0
VERTEX
  5
6C
  8
THROUGH_CUT
 10
12.0233955
 20
11.764055
 30
0.0
  0
VERTEX
  5
6D
  8
THROUGH_CUT
 10
12.0133975
 20
11.749776
 30
0.0
  0
VERTEX
  5
6E
  8
THROUGH_CUT
 10
12.0060305
 20
11.73397900000001
 30
0.0
  0
VERTEX
  5
6F
  8
THROUGH_CUT
 10
12.0015195
 20
11.71714100000001
 30
0.0
  0
VERTEX
  5
70
  8
THROUGH_CUT
 10
12.0000005
 20
11.699776
 30
0.0
  0
VERTEX
  5
71
  8
THROUGH_CUT
 10
12.0000005
 20
11.36845411997329
 30
0.0
 42
-0.9999999999999933
  0
VERTEX
  5
72
  8
THROUGH_CUT
 10
11.73132088084396
 20
11.09975354393972
 30
0.0
  0
VERTEX
  5
73
  8
THROUGH_CUT
 10
10.4999325
 20
11.0996575
 30
0.0
  0
VERTEX
  5
74
  8
THROUGH_CUT
 10
3.740777312486117
 20
8.499586099956293
 30
0.0
 42
0.686768738281419
  0
VERTEX
  5
75
  8
THROUGH_CUT
 10
3.740762164479237
 20
5.699595841947058
 30
0.0
  0
VERTEX
  5
76
  8
THROUGH_CUT
 10
10.5000195
 20
3.099552000000003
 30
0.0
  0
VERTEX
  5
77
  8
THROUGH_CUT
 10
12.0001065
 20
3.099552000000003
 30
0.0
  0
VERTEX
  5
78
  8
THROUGH_CUT
 10
12.0001065
 20
1.099552000000006
 30
0.0
  0
VERTEX
  5
79
  8
THROUGH_CUT
 10
84.0000675
 20
1.099997000000005
 30
0.0
  0
VERTEX
  5
7A
  8
THROUGH_CUT
 10
84.0000675
 20
3.099997000000005
 30
0.0
  0
VERTEX
  5
7B
  8
THROUGH_CUT
 10
85.5000675
 20
3.099894000000004
 30
0.0
  0
VERTEX
  5
7C
  8
THROUGH_CUT
 10
92.25922268751387
 20
5.699742900043717
 30
0.0
 42
0.6867687382814229
  0
VERTEX
  5
7D
  8
THROUGH_CUT
 10
92.25923783552076
 20
8.49973315805295
 30
0.0
  0
VERTEX
  5
7E
  8
THROUGH_CUT
 10
85.5000675
 20
11.099777
 30
0.0
  0
VERTEX
  5
7F
  8
THROUGH_CUT
 10
84.26869971859969
 20
11.09977864174929
 30
0.0
 42
-1.0
  0
VERTEX
  5
80
  8
THROUGH_CUT
 10
83.9999995
 20
11.36847921859994
 30
0.0
  0
VERTEX
  5
81
  8
THROUGH_CUT
 10
83.9999995
 20
11.699776
 30
0.0
  0
VERTEX
  5
82
  8
THROUGH_CUT
 10
83.9984805
 20
11.71714100000001
 30
0.0
  0
VERTEX
  5
83
  8
THROUGH_CUT
 10
83.99396949999999
 20
11.73397900000001
 30
0.0
  0
VERTEX
  5
84
  8
THROUGH_CUT
 10
83.9866025
 20
11.749776
 30
0.0
  0
VERTEX
  5
85
  8
THROUGH_CUT
 10
83.97660450000001
 20
11.764055
 30
0.0
  0
VERTEX
  5
86
  8
THROUGH_CUT
 10
83.9642785
 20
11.776381
 30
0.0
  0
VERTEX
  5
87
  8
THROUGH_CUT
 10
83.94999949999999
 20
11.786379
 30
0.0
  0
VERTEX
  5
88
  8
THROUGH_CUT
 10
83.9342015
 20
11.793746
 30
0.0
  0
VERTEX
  5
89
  8
THROUGH_CUT
 10
83.91736449999999
 20
11.798257
 30
0.0
  0
VERTEX
  5
8A
  8
THROUGH_CUT
 10
83.8999995
 20
11.799776
 30
0.0
  0
VERTEX
  5
8B
  8
THROUGH_CUT
 10
81.1000005
 20
11.799776
 30
0.0
  0
VERTEX
  5
8C
  8
THROUGH_CUT
 10
81.08263550000001
 20
11.798257
 30
0.0
  0
VERTEX
  5
8D
  8
THROUGH_CUT
 10
81.0657985
 20
11.793746
 30
0.0
  0
VERTEX
  5
8E
  8
THROUGH_CUT
 10
81.05000049999998
 20
11.786379
 30
0.0
  0
VERTEX
  5
8F
  8
THROUGH_CUT
 10
81.0357215
 20
11.776381
 30
0.0
  0
VERTEX
  5
90
  8
THROUGH_CUT
 10
81.02339549999999
 20
11.764055
 30
0.0
  0
VERTEX
  5
91
  8
THROUGH_CUT
 10
81.0133975
 20
11.749776
 30
0.0
  0
VERTEX
  5
92
  8
THROUGH_CUT
 10
81.00603050000001
 20
11.73397900000001
 30
0.0
  0
VERTEX
  5
93
  8
THROUGH_CUT
 10
81.0015195
 20
11.71714100000001
 30
0.0
  0
VERTEX
  5
94
  8
THROUGH_CUT
 10
81.0000005
 20
11.699776
 30
0.0
  0
VERTEX
  5
95
  8
THROUGH_CUT
 10
81.0000005
 20
11.36847512054204
 30
0.0
 42
-0.4142135623731288
  0
VERTEX
  5
96
  8
THROUGH_CUT
 10
81.00000047815442
 20
11.09977452184558
 30
0.0
 42
-0.4142135623731106
  0
VERTEX
  5
97
  8
THROUGH_CUT
 10
80.73129987945796
 20
11.09977454369116
 30
0.0
  0
VERTEX
  5
98
  8
THROUGH_CUT
 10
65.6249995
 20
11.099777
 30
0.0
  0
VERTEX
  5
99
  8
THROUGH_CUT
 10
65.6249995
 20
8.499777000000005
 30
0.0
  0
VERTEX
  5
9A
  8
THROUGH_CUT
 10
65.6579185
 20
8.497049000000004
 30
0.0
  0
VERTEX
  5
9B
  8
THROUGH_CUT
 10
65.68993950000001
 20
8.488940000000003
 30
0.0
  0
VERTEX
  5
9C
  8
THROUGH_CUT
 10
65.7201885
 20
8.475671000000002
 30
0.0
  0
VERTEX
  5
9D
  8
THROUGH_CUT
 10
65.74784149999999
 20
8.457605000000004
 30
0.0
  0
VERTEX
  5
9E
  8
THROUGH_CUT
 10
65.7721435
 20
8.435233000000004
 30
0.0
  0
VERTEX
  5
9F
  8
THROUGH_CUT
 10
65.79243249999999
 20
8.409166000000003
 30
0.0
  0
VERTEX
  5
A0
  8
THROUGH_CUT
 10
65.8081535
 20
8.380116000000005
 30
0.0
  0
VERTEX
  5
A1
  8
THROUGH_CUT
 10
65.81887950000001
 20
8.348874000000002
 30
0.0
  0
VERTEX
  5
A2
  8
THROUGH_CUT
 10
65.82431650000001
 20
8.316293000000005
 30
0.0
  0
VERTEX
  5
A3
  8
THROUGH_CUT
 10
65.82431650000001
 20
8.283261000000003
 30
0.0
  0
VERTEX
  5
A4
  8
THROUGH_CUT
 10
65.81887950000001
 20
8.250680000000003
 30
0.0
  0
VERTEX
  5
A5
  8
THROUGH_CUT
 10
65.8081535
 20
8.219438000000004
 30
0.0
  0
VERTEX
  5
A6
  8
THROUGH_CUT
 10
65.79243249999999
 20
8.190387000000005
 30
0.0
  0
VERTEX
  5
A7
  8
THROUGH_CUT
 10
65.7721435
 20
8.164320000000004
 30
0.0
  0
VERTEX
  5
A8
  8
THROUGH_CUT
 10
65.74784149999999
 20
8.141949000000004
 30
0.0
  0
VERTEX
  5
A9
  8
THROUGH_CUT
 10
65.7201885
 20
8.123882000000005
 30
0.0
  0
VERTEX
  5
AA
  8
THROUGH_CUT
 10
65.68993950000001
 20
8.110613000000004
 30
0.0
  0
VERTEX
  5
AB
  8
THROUGH_CUT
 10
65.6579185
 20
8.102504000000003
 30
0.0
  0
VERTEX
  5
AC
  8
THROUGH_CUT
 10
65.6249995
 20
8.099777000000003
 30
0.0
  0
VERTEX
  5
AD
  8
THROUGH_CUT
 10
64.8749995
 20
8.099777000000003
 30
0.0
  0
VERTEX
  5
AE
  8
THROUGH_CUT
 10
64.84208050000001
 20
8.102504000000003
 30
0.0
  0
VERTEX
  5
AF
  8
THROUGH_CUT
 10
64.8100595
 20
8.110613000000004
 30
0.0
  0
VERTEX
  5
B0
  8
THROUGH_CUT
 10
64.7798095
 20
8.123882000000005
 30
0.0
  0
VERTEX
  5
B1
  8
THROUGH_CUT
 10
64.75215649999998
 20
8.141949000000004
 30
0.0
  0
VERTEX
  5
B2
  8
THROUGH_CUT
 10
64.7278545
 20
8.164320000000004
 30
0.0
  0
VERTEX
  5
B3
  8
THROUGH_CUT
 10
64.70756549999999
 20
8.190387000000005
 30
0.0
  0
VERTEX
  5
B4
  8
THROUGH_CUT
 10
64.6918445
 20
8.219438000000004
 30
0.0
  0
VERTEX
  5
B5
  8
THROUGH_CUT
 10
64.6811195
 20
8.250680000000003
 30
0.0
  0
VERTEX
  5
B6
  8
THROUGH_CUT
 10
64.6756825
 20
8.283261000000003
 30
0.0
  0
VERTEX
  5
B7
  8
THROUGH_CUT
 10
64.6756825
 20
8.316293000000005
 30
0.0
  0
VERTEX
  5
B8
  8
THROUGH_CUT
 10
64.6811195
 20
8.348874000000002
 30
0.0
  0
VERTEX
  5
B9
  8
THROUGH_CUT
 10
64.6918445
 20
8.380116000000005
 30
0.0
  0
VERTEX
  5
BA
  8
THROUGH_CUT
 10
64.70756549999999
 20
8.409166000000003
 30
0.0
  0
VERTEX
  5
BB
  8
THROUGH_CUT
 10
64.7278545
 20
8.435233000000004
 30
0.0
  0
VERTEX
  5
BC
  8
THROUGH_CUT
 10
64.75215649999998
 20
8.457605000000004
 30
0.0
  0
VERTEX
  5
BD
  8
THROUGH_CUT
 10
64.7798095
 20
8.475671000000002
 30
0.0
  0
VERTEX
  5
BE
  8
THROUGH_CUT
 10
64.8100595
 20
8.488940000000003
 30
0.0
  0
VERTEX
  5
BF
  8
THROUGH_CUT
 10
64.84208050000001
 20
8.497049000000004
 30
0.0
  0
VERTEX
  5
C0
  8
THROUGH_CUT
 10
64.8749995
 20
8.499777000000005
 30
0.0
  0
VERTEX
  5
C1
  8
THROUGH_CUT
 10
64.8749995
 20
11.099777
 30
0.0
  0
VERTEX
  5
C2
  8
THROUGH_CUT
 10
49.76870004189797
 20
11.09977896504709
 30
0.0
 42
-1.0
  0
VERTEX
  5
C3
  8
THROUGH_CUT
 10
49.4999995
 20
11.36847954189797
 30
0.0
  0
VERTEX
  5
C4
  8
THROUGH_CUT
 10
49.4999995
 20
11.699776
 30
0.0
  0
VERTEX
  5
C5
  8
THROUGH_CUT
 10
49.4984805
 20
11.71714100000001
 30
0.0
  0
VERTEX
  5
C6
  8
THROUGH_CUT
 10
49.4939695
 20
11.73397900000001
 30
0.0
  0
VERTEX
  5
C7
  8
THROUGH_CUT
 10
49.4866025
 20
11.749776
 30
0.0
  0
VERTEX
  5
C8
  8
THROUGH_CUT
 10
49.4766045
 20
11.764055
 30
0.0
  0
VERTEX
  5
C9
  8
THROUGH_CUT
 10
49.4642785
 20
11.776381
 30
0.0
  0
VERTEX
  5
CA
  8
THROUGH_CUT
 10
49.4499995
 20
11.786379
 30
0.0
  0
VERTEX
  5
CB
  8
THROUGH_CUT
 10
49.4342015
 20
11.793746
 30
0.0
  0
VERTEX
  5
CC
  8
THROUGH_CUT
 10
49.4173645
 20
11.798257
 30
0.0
  0
VERTEX
  5
CD
  8
THROUGH_CUT
 10
49.3999995
 20
11.799776
 30
0.0
  0
VERTEX
  5
CE
  8
THROUGH_CUT
 10
46.6000005
 20
11.799776
 30
0.0
  0
VERTEX
  5
CF
  8
THROUGH_CUT
 10
46.58263549999999
 20
11.798257
 30
0.0
  0
VERTEX
  5
D0
  8
THROUGH_CUT
 10
46.5657985
 20
11.793746
 30
0.0
  0
VERTEX
  5
D1
  8
THROUGH_CUT
 10
46.5500005
 20
11.786379
 30
0.0
  0
VERTEX
  5
D2
  8
THROUGH_CUT
 10
46.5357215
 20
11.776381
 30
0.0
  0
VERTEX
  5
D3
  8
THROUGH_CUT
 10
46.5233955
 20
11.764055
 30
0.0
  0
VERTEX
  5
D4
  8
THROUGH_CUT
 10
46.5133975
 20
11.749776
 30
0.0
  0
VERTEX
  5
D5
  8
THROUGH_CUT
 10
46.50603049999999
 20
11.73397900000001
 30
0.0
  0
VERTEX
  5
D6
  8
THROUGH_CUT
 10
46.5015195
 20
11.71714100000001
 30
0.0
  0
VERTEX
  5
D7
  8
THROUGH_CUT
 10
46.5000005
 20
11.699776
 30
0.0
  0
VERTEX
  5
D8
  8
THROUGH_CUT
 10
46.5000005
 20
11.36847512054205
 30
0.0
 42
-1.0
  0
VERTEX
  5
D9
  8
THROUGH_CUT
 10
46.23129987945796
 20
11.09977454369116
 30
0.0
  0
VERTEX
  5
DA
  8
THROUGH_CUT
 10
31.1250005
 20
11.099777
 30
0.0
  0
VERTEX
  5
DB
  8
THROUGH_CUT
 10
31.1250005
 20
8.499777000000005
 30
0.0
  0
VERTEX
  5
DC
  8
THROUGH_CUT
 10
31.1579195
 20
8.497049000000004
 30
0.0
  0
VERTEX
  5
DD
  8
THROUGH_CUT
 10
31.1899405
 20
8.488940000000003
 30
0.0
  0
VERTEX
  5
DE
  8
THROUGH_CUT
 10
31.2201895
 20
8.475671000000002
 30
0.0
  0
VERTEX
  5
DF
  8
THROUGH_CUT
 10
31.2478425
 20
8.457605000000004
 30
0.0
  0
VERTEX
  5
E0
  8
THROUGH_CUT
 10
31.2721445
 20
8.435233000000004
 30
0.0
  0
VERTEX
  5
E1
  8
THROUGH_CUT
 10
31.2924335
 20
8.409166000000003
 30
0.0
  0
VERTEX
  5
E2
  8
THROUGH_CUT
 10
31.3081545
 20
8.380116000000005
 30
0.0
  0
VERTEX
  5
E3
  8
THROUGH_CUT
 10
31.3188805
 20
8.348874000000002
 30
0.0
  0
VERTEX
  5
E4
  8
THROUGH_CUT
 10
31.3243175
 20
8.316293000000005
 30
0.0
  0
VERTEX
  5
E5
  8
THROUGH_CUT
 10
31.3243175
 20
8.283261000000003
 30
0.0
  0
VERTEX
  5
E6
  8
THROUGH_CUT
 10
31.3188805
 20
8.250680000000003
 30
0.0
  0
VERTEX
  5
E7
  8
THROUGH_CUT
 10
31.3081545
 20
8.219438000000004
 30
0.0
  0
VERTEX
  5
E8
  8
THROUGH_CUT
 10
31.2924335
 20
8.190387000000005
 30
0.0
  0
VERTEX
  5
E9
  8
THROUGH_CUT
 10
31.2721445
 20
8.164320000000004
 30
0.0
  0
VERTEX
  5
EA
  8
THROUGH_CUT
 10
31.2478425
 20
8.141949000000004
 30
0.0
  0
VERTEX
  5
EB
  8
THROUGH_CUT
 10
31.2201895
 20
8.123882000000005
 30
0.0
  0
VERTEX
  5
EC
  8
THROUGH_CUT
 10
31.1899405
 20
8.110613000000004
 30
0.0
  0
VERTEX
  5
ED
  8
THROUGH_CUT
 10
31.1579195
 20
8.102504000000003
 30
0.0
  0
VERTEX
  5
EE
  8
THROUGH_CUT
 10
31.1250005
 20
8.099777000000003
 30
0.0
  0
VERTEX
  5
EF
  8
THROUGH_CUT
 10
30.3750005
 20
8.099777000000003
 30
0.0
  0
VERTEX
  5
F0
  8
THROUGH_CUT
 10
30.3420815
 20
8.102504000000003
 30
0.0
  0
VERTEX
  5
F1
  8
THROUGH_CUT
 10
30.3100605
 20
8.110613000000004
 30
0.0
  0
VERTEX
  5
F2
  8
THROUGH_CUT
 10
30.2798105
 20
8.123882000000005
 30
0.0
  0
VERTEX
  5
F3
  8
THROUGH_CUT
 10
30.2521575
 20
8.141949000000004
 30
0.0
  0
VERTEX
  5
F4
  8
THROUGH_CUT
 10
30.2278555
 20
8.164320000000004
 30
0.0
  0
VERTEX
  5
F5
  8
THROUGH_CUT
 10
30.2075665
 20
8.190387000000005
 30
0.0
  0
VERTEX
  5
F6
  8
THROUGH_CUT
 10
30.1918455
 20
8.219438000000004
 30
0.0
  0
VERTEX
  5
F7
  8
THROUGH_CUT
 10
30.1811205
 20
8.250680000000003
 30
0.0
  0
VERTEX
  5
F8
  8
THROUGH_CUT
 10
30.1756835
 20
8.283261000000003
 30
0.0
  0
VERTEX
  5
F9
  8
THROUGH_CUT
 10
30.1756835
 20
8.316293000000005
 30
0.0
  0
VERTEX
  5
FA
  8
THROUGH_CUT
 10
30.1811205
 20
8.348874000000002
 30
0.0
  0
VERTEX
  5
FB
  8
THROUGH_CUT
 10
30.1918455
 20
8.380116000000005
 30
0.0
  0
VERTEX
  5
FC
  8
THROUGH_CUT
 10
30.2075665
 20
8.409166000000003
 30
0.0
  0
VERTEX
  5
FD
  8
THROUGH_CUT
 10
30.2278555
 20
8.435233000000004
 30
0.0
  0
VERTEX
  5
FE
  8
THROUGH_CUT
 10
30.2521575
 20
8.457605000000004
 30
0.0
  0
VERTEX
  5
FF
  8
THROUGH_CUT
 10
30.2798105
 20
8.475671000000002
 30
0.0
  0
VERTEX
  5
100
  8
THROUGH_CUT
 10
30.3100605
 20
8.488940000000003
 30
0.0
  0
VERTEX
  5
101
  8
THROUGH_CUT
 10
30.3420815
 20
8.497049000000004
 30
0.0
  0
VERTEX
  5
102
  8
THROUGH_CUT
 10
30.3750005
 20
8.499777000000005
 30
0.0
  0
SEQEND
  5
103
  8
THROUGH_CUT
  0
POLYLINE
  5
42
  8
THROUGH_CUT
 66
     1
 10
0.0
 20
0.0
 30
0.0
 70
     1
  0
VERTEX
  5
104
  8
THROUGH_CUT
 10
30.3750005
 20
34.500225
 30
0.0
  0
VERTEX
  5
105
  8
THROUGH_CUT
 10
15.26870004189797
 20
34.50022696504709
 30
0.0
 42
-1.0
  0
VERTEX
  5
106
  8
THROUGH_CUT
 10
14.9999995
 20
34.76892754189797
 30
0.0
  0
VERTEX
  5
107
  8
THROUGH_CUT
 10
14.9999995
 20
35.100224
 30
0.0
  0
VERTEX
  5
108
  8
THROUGH_CUT
 10
14.9984805
 20
35.117589
 30
0.0
  0
VERTEX
  5
109
  8
THROUGH_CUT
 10
14.9939695
 20
35.134427
 30
0.0
  0
VERTEX
  5
10A
  8
THROUGH_CUT
 10
14.9866025
 20
35.150224
 30
0.0
  0
VERTEX
  5
10B
  8
THROUGH_CUT
 10
14.9766045
 20
35.164503
 30
0.0
  0
VERTEX
  5
10C
  8
THROUGH_CUT
 10
14.9642785
 20
35.176829
 30
0.0
  0
VERTEX
  5
10D
  8
THROUGH_CUT
 10
14.9499995
 20
35.186827
 30
0.0
  0
VERTEX
  5
10E
  8
THROUGH_CUT
 10
14.9342015
 20
35.194194
 30
0.0
  0
VERTEX
  5
10F
  8
THROUGH_CUT
 10
14.9173645
 20
35.198705
 30
0.0
  0
VERTEX
  5
110
  8
THROUGH_CUT
 10
14.8999995
 20
35.20022400000001
 30
0.0
  0
VERTEX
  5
111
  8
THROUGH_CUT
 10
12.1000005
 20
35.20022400000001
 30
0.0
  0
VERTEX
  5
112
  8
THROUGH_CUT
 10
12.0826355
 20
35.198705
 30
0.0
  0
VERTEX
  5
113
  8
THROUGH_CUT
 10
12.0657985
 20
35.194194
 30
0.0
  0
VERTEX
  5
114
  8
THROUGH_CUT
 10
12.0500005
 20
35.186827
 30
0.0
  0
VERTEX
  5
115
  8
THROUGH_CUT
 10
12.0357215
 20
35.176829
 30
0.0
  0
VERTEX
  5
116
  8
THROUGH_CUT
 10
12.0233955
 20
35.164503
 30
0.0
  0
VERTEX
  5
117
  8
THROUGH_CUT
 10
12.0133975
 20
35.150224
 30
0.0
  0
VERTEX
  5
118
  8
THROUGH_CUT
 10
12.0060305
 20
35.134427
 30
0.0
  0
VERTEX
  5
119
  8
THROUGH_CUT
 10
12.0015195
 20
35.117589
 30
0.0
  0
VERTEX
  5
11A
  8
THROUGH_CUT
 10
12.0000005
 20
35.100224
 30
0.0
  0
VERTEX
  5
11B
  8
THROUGH_CUT
 10
12.0000005
 20
34.76890211997329
 30
0.0
 42
-0.9999999999999933
  0
VERTEX
  5
11C
  8
THROUGH_CUT
 10
11.73132088084396
 20
34.50020154393972
 30
0.0
  0
VERTEX
  5
11D
  8
THROUGH_CUT
 10
10.4999325
 20
34.5001055
 30
0.0
  0
VERTEX
  5
11E
  8
THROUGH_CUT
 10
3.740777312486117
 20
31.90003409995629
 30
0.0
 42
0.6867687382814192
  0
VERTEX
  5
11F
  8
THROUGH_CUT
 10
3.740762164479237
 20
29.10004384194706
 30
0.0
  0
VERTEX
  5
120
  8
THROUGH_CUT
 10
10.5000195
 20
26.5
 30
0.0
  0
VERTEX
  5
121
  8
THROUGH_CUT
 10
12.0001065
 20
26.5
 30
0.0
  0
VERTEX
  5
122
  8
THROUGH_CUT
 10
12.0001065
 20
24.5
 30
0.0
  0
VERTEX
  5
123
  8
THROUGH_CUT
 10
84.0000675
 20
24.500445
 30
0.0
  0
VERTEX
  5
124
  8
THROUGH_CUT
 10
84.0000675
 20
26.500445
 30
0.0
  0
VERTEX
  5
125
  8
THROUGH_CUT
 10
85.5000675
 20
26.500342
 30
0.0
  0
VERTEX
  5
126
  8
THROUGH_CUT
 10
92.25922268751387
 20
29.10019090004371
 30
0.0
 42
0.6867687382814229
  0
VERTEX
  5
127
  8
THROUGH_CUT
 10
92.25923783552076
 20
31.90018115805294
 30
0.0
  0
VERTEX
  5
128
  8
THROUGH_CUT
 10
85.5000675
 20
34.500225
 30
0.0
  0
VERTEX
  5
129
  8
THROUGH_CUT
 10
84.26869971859969
 20
34.50022664174928
 30
0.0
 42
-1.0
  0
VERTEX
  5
12A
  8
THROUGH_CUT
 10
83.9999995
 20
34.76892721859993
 30
0.0
  0
VERTEX
  5
12B
  8
THROUGH_CUT
 10
83.9999995
 20
35.100224
 30
0.0
  0
VERTEX
  5
12C
  8
THROUGH_CUT
 10
83.9984805
 20
35.117589
 30
0.0
  0
VERTEX
  5
12D
  8
THROUGH_CUT
 10
83.99396949999999
 20
35.134427
 30
0.0
  0
VERTEX
  5
12E
  8
THROUGH_CUT
 10
83.9866025
 20
35.150224
 30
0.0
  0
VERTEX
  5
12F
  8
THROUGH_CUT
 10
83.97660450000001
 20
35.164503
 30
0.0
  0
VERTEX
  5
130
  8
THROUGH_CUT
 10
83.9642785
 20
35.176829
 30
0.0
  0
VERTEX
  5
131
  8
THROUGH_CUT
 10
83.94999949999999
 20
35.186827
 30
0.0
  0
VERTEX
  5
132
  8
THROUGH_CUT
 10
83.9342015
 20
35.194194
 30
0.0
  0
VERTEX
  5
133
  8
THROUGH_CUT
 10
83.91736449999999
 20
35.198705
 30
0.0
  0
VERTEX
  5
134
  8
THROUGH_CUT
 10
83.8999995
 20
35.20022400000001
 30
0.0
  0
VERTEX
  5
135
  8
THROUGH_CUT
 10
81.1000005
 20
35.20022400000001
 30
0.0
  0
VERTEX
  5
136
  8
THROUGH_CUT
 10
81.08263550000001
 20
35.198705
 30
0.0
  0
VERTEX
  5
137
  8
THROUGH_CUT
 10
81.0657985
 20
35.194194
 30
0.0
  0
VERTEX
  5
138
  8
THROUGH_CUT
 10
81.05000049999998
 20
35.186827
 30
0.0
  0
VERTEX
  5
139
  8
THROUGH_CUT
 10
81.0357215
 20
35.176829
 30
0.0
  0
VERTEX
  5
13A
  8
THROUGH_CUT
 10
81.02339549999999
 20
35.164503
 30
0.0
  0
VERTEX
  5
13B
  8
THROUGH_CUT
 10
81.0133975
 20
35.150224
 30
0.0
  0
VERTEX
  5
13C
  8
THROUGH_CUT
 10
81.00603050000001
 20
35.134427
 30
0.0
  0
VERTEX
  5
13D
  8
THROUGH_CUT
 10
81.0015195
 20
35.117589
 30
0.0
  0
VERTEX
  5
13E
  8
THROUGH_CUT
 10
81.0000005
 20
35.100224
 30
0.0
  0
VERTEX
  5
13F
  8
THROUGH_CUT
 10
81.0000005
 20
34.76892312054204
 30
0.0
 42
-0.9999999999999736
  0
VERTEX
  5
140
  8
THROUGH_CUT
 10
80.73129987945796
 20
34.50022254369116
 30
0.0
  0
VERTEX
  5
141
  8
THROUGH_CUT
 10
65.6249995
 20
34.500225
 30
0.0
  0
VERTEX
  5
142
  8
THROUGH_CUT
 10
65.6249995
 20
31.90022500000001
 30
0.0
  0
VERTEX
  5
143
  8
THROUGH_CUT
 10
65.6579185
 20
31.897497
 30
0.0
  0
VERTEX
  5
144
  8
THROUGH_CUT
 10
65.68993950000001
 20
31.889388
 30
0.0
  0
VERTEX
  5
145
  8
THROUGH_CUT
 10
65.7201885
 20
31.876119
 30
0.0
  0
VERTEX
  5
146
  8
THROUGH_CUT
 10
65.74784149999999
 20
31.858053
 30
0.0
  0
VERTEX
  5
147
  8
THROUGH_CUT
 10
65.7721435
 20
31.835681
 30
0.0
  0
VERTEX
  5
148
  8
THROUGH_CUT
 10
65.79243249999999
 20
31.809614
 30
0.0
  0
VERTEX
  5
149
  8
THROUGH_CUT
 10
65.8081535
 20
31.780564
 30
0.0
  0
VERTEX
  5
14A
  8
THROUGH_CUT
 10
65.81887950000001
 20
31.749322
 30
0.0
  0
VERTEX
  5
14B
  8
THROUGH_CUT
 10
65.82431650000001
 20
31.716741
 30
0.0
  0
VERTEX
  5
14C
  8
THROUGH_CUT
 10
65.82431650000001
 20
31.683709
 30
0.0
  0
VERTEX
  5
14D
  8
THROUGH_CUT
 10
65.81887950000001
 20
31.651128
 30
0.0
  0
VERTEX
  5
14E
  8
THROUGH_CUT
 10
65.8081535
 20
31.619886
 30
0.0
  0
VERTEX
  5
14F
  8
THROUGH_CUT
 10
65.79243249999999
 20
31.590835
 30
0.0
  0
VERTEX
  5
150
  8
THROUGH_CUT
 10
65.7721435
 20
31.564768
 30
0.0
  0
VERTEX
  5
151
  8
THROUGH_CUT
 10
65.74784149999999
 20
31.542397
 30
0.0
  0
VERTEX
  5
152
  8
THROUGH_CUT
 10
65.7201885
 20
31.52433000000001
 30
0.0
  0
VERTEX
  5
153
  8
THROUGH_CUT
 10
65.68993950000001
 20
31.511061
 30
0.0
  0
VERTEX
  5
154
  8
THROUGH_CUT
 10
65.6579185
 20
31.502952
 30
0.0
  0
VERTEX
  5
155
  8
THROUGH_CUT
 10
65.6249995
 20
31.500225
 30
0.0
  0
VERTEX
  5
156
  8
THROUGH_CUT
 10
64.8749995
 20
31.500225
 30
0.0
  0
VERTEX
  5
157
  8
THROUGH_CUT
 10
64.84208050000001
 20
31.502952
 30
0.0
  0
VERTEX
  5
158
  8
THROUGH_CUT
 10
64.8100595
 20
31.511061
 30
0.0
  0
VERTEX
  5
159
  8
THROUGH_CUT
 10
64.7798095
 20
31.52433000000001
 30
0.0
  0
VERTEX
  5
15A
  8
THROUGH_CUT
 10
64.75215649999998
 20
31.542397
 30
0.0
  0
VERTEX
  5
15B
  8
THROUGH_CUT
 10
64.7278545
 20
31.564768
 30
0.0
  0
VERTEX
  5
15C
  8
THROUGH_CUT
 10
64.70756549999999
 20
31.590835
 30
0.0
  0
VERTEX
  5
15D
  8
THROUGH_CUT
 10
64.6918445
 20
31.619886
 30
0.0
  0
VERTEX
  5
15E
  8
THROUGH_CUT
 10
64.6811195
 20
31.651128
 30
0.0
  0
VERTEX
  5
15F
  8
THROUGH_CUT
 10
64.6756825
 20
31.683709
 30
0.0
  0
VERTEX
  5
160
  8
THROUGH_CUT
 10
64.6756825
 20
31.716741
 30
0.0
  0
VERTEX
  5
161
  8
THROUGH_CUT
 10
64.6811195
 20
31.749322
 30
0.0
  0
VERTEX
  5
162
  8
THROUGH_CUT
 10
64.6918445
 20
31.780564
 30
0.0
  0
VERTEX
  5
163
  8
THROUGH_CUT
 10
64.70756549999999
 20
31.809614
 30
0.0
  0
VERTEX
  5
164
  8
THROUGH_CUT
 10
64.7278545
 20
31.835681
 30
0.0
  0
VERTEX
  5
165
  8
THROUGH_CUT
 10
64.75215649999998
 20
31.858053
 30
0.0
  0
VERTEX
  5
166
  8
THROUGH_CUT
 10
64.7798095
 20
31.876119
 30
0.0
  0
VERTEX
  5
167
  8
THROUGH_CUT
 10
64.8100595
 20
31.889388
 30
0.0
  0
VERTEX
  5
168
  8
THROUGH_CUT
 10
64.84208050000001
 20
31.897497
 30
0.0
  0
VERTEX
  5
169
  8
THROUGH_CUT
 10
64.8749995
 20
31.90022500000001
 30
0.0
  0
VERTEX
  5
16A
  8
THROUGH_CUT
 10
64.8749995
 20
34.500225
 30
0.0
  0
VERTEX
  5
16B
  8
THROUGH_CUT
 10
49.76870004189797
 20
34.50022696504708
 30
0.0
 42
-1.0
  0
VERTEX
  5
16C
  8
THROUGH_CUT
 10
49.4999995
 20
34.76892754189797
 30
0.0
  0
VERTEX
  5
16D
  8
THROUGH_CUT
 10
49.4999995
 20
35.100224
 30
0.0
  0
VERTEX
  5
16E
  8
THROUGH_CUT
 10
49.4984805
 20
35.117589
 30
0.0
  0
VERTEX
  5
16F
  8
THROUGH_CUT
 10
49.4939695
 20
35.134427
 30
0.0
  0
VERTEX
  5
170
  8
THROUGH_CUT
 10
49.4866025
 20
35.150224
 30
0.0
  0
VERTEX
  5
171
  8
THROUGH_CUT
 10
49.4766045
 20
35.164503
 30
0.0
  0
VERTEX
  5
172
  8
THROUGH_CUT
 10
49.4642785
 20
35.176829
 30
0.0
  0
VERTEX
  5
173
  8
THROUGH_CUT
 10
49.4499995
 20
35.186827
 30
0.0
  0
VERTEX
  5
174
  8
THROUGH_CUT
 10
49.4342015
 20
35.194194
 30
0.0
  0
VERTEX
  5
175
  8
THROUGH_CUT
 10
49.4173645
 20
35.198705
 30
0.0
  0
VERTEX
  5
176
  8
THROUGH_CUT
 10
49.3999995
 20
35.20022400000001
 30
0.0
  0
VERTEX
  5
177
  8
THROUGH_CUT
 10
46.6000005
 20
35.20022400000001
 30
0.0
  0
VERTEX
  5
178
  8
THROUGH_CUT
 10
46.58263549999999
 20
35.198705
 30
0.0
  0
VERTEX
  5
179
  8
THROUGH_CUT
 10
46.5657985
 20
35.194194
 30
0.0
  0
VERTEX
  5
17A
  8
THROUGH_CUT
 10
46.5500005
 20
35.186827
 30
0.0
  0
VERTEX
  5
17B
  8
THROUGH_CUT
 10
46.5357215
 20
35.176829
 30
0.0
  0
VERTEX
  5
17C
  8
THROUGH_CUT
 10
46.5233955
 20
35.164503
 30
0.0
  0
VERTEX
  5
17D
  8
THROUGH_CUT
 10
46.5133975
 20
35.150224
 30
0.0
  0
VERTEX
  5
17E
  8
THROUGH_CUT
 10
46.50603049999999
 20
35.134427
 30
0.0
  0
VERTEX
  5
17F
  8
THROUGH_CUT
 10
46.5015195
 20
35.117589
 30
0.0
  0
VERTEX
  5
180
  8
THROUGH_CUT
 10
46.5000005
 20
35.100224
 30
0.0
  0
VERTEX
  5
181
  8
THROUGH_CUT
 10
46.5000005
 20
34.76892312054204
 30
0.0
 42
-0.9999999999999736
  0
VERTEX
  5
182
  8
THROUGH_CUT
 10
46.23129987945796
 20
34.50022254369116
 30
0.0
  0
VERTEX
  5
183
  8
THROUGH_CUT
 10
31.1250005
 20
34.500225
 30
0.0
  0
VERTEX
  5
184
  8
THROUGH_CUT
 10
31.1250005
 20
31.90022500000001
 30
0.0
  0
VERTEX
  5
185
  8
THROUGH_CUT
 10
31.1579195
 20
31.897497
 30
0.0
  0
VERTEX
  5
186
  8
THROUGH_CUT
 10
31.1899405
 20
31.889388
 30
0.0
  0
VERTEX
  5
187
  8
THROUGH_CUT
 10
31.2201895
 20
31.876119
 30
0.0
  0
VERTEX
  5
188
  8
THROUGH_CUT
 10
31.2478425
 20
31.858053
 30
0.0
  0
VERTEX
  5
189
  8
THROUGH_CUT
 10
31.2721445
 20
31.835681
 30
0.0
  0
VERTEX
  5
18A
  8
THROUGH_CUT
 10
31.2924335
 20
31.809614
 30
0.0
  0
VERTEX
  5
18B
  8
THROUGH_CUT
 10
31.3081545
 20
31.780564
 30
0.0
  0
VERTEX
  5
18C
  8
THROUGH_CUT
 10
31.3188805
 20
31.749322
 30
0.0
  0
VERTEX
  5
18D
  8
THROUGH_CUT
 10
31.3243175
 20
31.716741
 30
0.0
  0
VERTEX
  5
18E
  8
THROUGH_CUT
 10
31.3243175
 20
31.683709
 30
0.0
  0
VERTEX
  5
18F
  8
THROUGH_CUT
 10
31.3188805
 20
31.651128
 30
0.0
  0
VERTEX
  5
190
  8
THROUGH_CUT
 10
31.3081545
 20
31.619886
 30
0.0
  0
VERTEX
  5
191
  8
THROUGH_CUT
 10
31.2924335
 20
31.590835
 30
0.0
  0
VERTEX
  5
192
  8
THROUGH_CUT
 10
31.2721445
 20
31.564768
 30
0.0
  0
VERTEX
  5
193
  8
THROUGH_CUT
 10
31.2478425
 20
31.542397
 30
0.0
  0
VERTEX
  5
194
  8
THROUGH_CUT
 10
31.2201895
 20
31.52433000000001
 30
0.0
  0
VERTEX
  5
195
  8
THROUGH_CUT
 10
31.1899405
 20
31.511061
 30
0.0
  0
VERTEX
  5
196
  8
THROUGH_CUT
 10
31.1579195
 20
31.502952
 30
0.0
  0
VERTEX
  5
197
  8
THROUGH_CUT
 10
31.1250005
 20
31.500225
 30
0.0
  0
VERTEX
  5
198
  8
THROUGH_CUT
 10
30.3750005
 20
31.500225
 30
0.0
  0
VERTEX
  5
199
  8
THROUGH_CUT
 10
30.3420815
 20
31.502952
 30
0.0
  0
VERTEX
  5
19A
  8
THROUGH_CUT
 10
30.3100605
 20
31.511061
 30
0.0
  0
VERTEX
  5
19B
  8
THROUGH_CUT
 10
30.2798105
 20
31.52433000000001
 30
0.0
  0
VERTEX
  5
19C
  8
THROUGH_CUT
 10
30.2521575
 20
31.542397
 30
0.0
  0
VERTEX
  5
19D
  8
THROUGH_CUT
 10
30.2278555
 20
31.564768
 30
0.0
  0
VERTEX
  5
19E
  8
THROUGH_CUT
 10
30.2075665
 20
31.590835
 30
0.0
  0
VERTEX
  5
19F
  8
THROUGH_CUT
 10
30.1918455
 20
31.619886
 30
0.0
  0
VERTEX
  5
1A0
  8
THROUGH_CUT
 10
30.1811205
 20
31.651128
 30
0.0
  0
VERTEX
  5
1A1
  8
THROUGH_CUT
 10
30.1756835
 20
31.683709
 30
0.0
  0
VERTEX
  5
1A2
  8
THROUGH_CUT
 10
30.1756835
 20
31.716741
 30
0.0
  0
VERTEX
  5
1A3
  8
THROUGH_CUT
 10
30.1811205
 20
31.749322
 30
0.0
  0
VERTEX
  5
1A4
  8
THROUGH_CUT
 10
30.1918455
 20
31.780564
 30
0.0
  0
VERTEX
  5
1A5
  8
THROUGH_CUT
 10
30.2075665
 20
31.809614
 30
0.0
  0
VERTEX
  5
1A6
  8
THROUGH_CUT
 10
30.2278555
 20
31.835681
 30
0.0
  0
VERTEX
  5
1A7
  8
THROUGH_CUT
 10
30.2521575
 20
31.858053
 30
0.0
  0
VERTEX
  5
1A8
  8
THROUGH_CUT
 10
30.2798105
 20
31.876119
 30
0.0
  0
VERTEX
  5
1A9
  8
THROUGH_CUT
 10
30.3100605
 20
31.889388
 30
0.0
  0
VERTEX
  5
1AA
  8
THROUGH_CUT
 10
30.3420815
 20
31.897497
 30
0.0
  0
VERTEX
  5
1AB
  8
THROUGH_CUT
 10
30.3750005
 20
31.90022500000001
 30
0.0
  0
SEQEND
  5
1AC
  8
THROUGH_CUT
  0
POLYLINE
  5
43
  8
THROUGH_CUT
 66
     1
 10
0.0
 20
0.0
 30
0.0
 70
     1
  0
VERTEX
  5
1AD
  8
THROUGH_CUT
 10
30.3750005
 20
46.200449
 30
0.0
  0
VERTEX
  5
1AE
  8
THROUGH_CUT
 10
15.26870004189797
 20
46.20045096504708
 30
0.0
 42
-1.0
  0
VERTEX
  5
1AF
  8
THROUGH_CUT
 10
14.9999995
 20
46.46915154189797
 30
0.0
  0
VERTEX
  5
1B0
  8
THROUGH_CUT
 10
14.9999995
 20
46.800448
 30
0.0
  0
VERTEX
  5
1B1
  8
THROUGH_CUT
 10
14.9984805
 20
46.817813
 30
0.0
  0
VERTEX
  5
1B2
  8
THROUGH_CUT
 10
14.9939695
 20
46.834651
 30
0.0
  0
VERTEX
  5
1B3
  8
THROUGH_CUT
 10
14.9866025
 20
46.850448
 30
0.0
  0
VERTEX
  5
1B4
  8
THROUGH_CUT
 10
14.9766045
 20
46.864727
 30
0.0
  0
VERTEX
  5
1B5
  8
THROUGH_CUT
 10
14.9642785
 20
46.877053
 30
0.0
  0
VERTEX
  5
1B6
  8
THROUGH_CUT
 10
14.9499995
 20
46.887051
 30
0.0
  0
VERTEX
  5
1B7
  8
THROUGH_CUT
 10
14.9342015
 20
46.894418
 30
0.0
  0
VERTEX
  5
1B8
  8
THROUGH_CUT
 10
14.9173645
 20
46.898929
 30
0.0
  0
VERTEX
  5
1B9
  8
THROUGH_CUT
 10
14.8999995
 20
46.900448
 30
0.0
  0
VERTEX
  5
1BA
  8
THROUGH_CUT
 10
12.1000005
 20
46.900448
 30
0.0
  0
VERTEX
  5
1BB
  8
THROUGH_CUT
 10
12.0826355
 20
46.898929
 30
0.0
  0
VERTEX
  5
1BC
  8
THROUGH_CUT
 10
12.0657985
 20
46.894418
 30
0.0
  0
VERTEX
  5
1BD
  8
THROUGH_CUT
 10
12.0500005
 20
46.887051
 30
0.0
  0
VERTEX
  5
1BE
  8
THROUGH_CUT
 10
12.0357215
 20
46.877053
 30
0.0
  0
VERTEX
  5
1BF
  8
THROUGH_CUT
 10
12.0233955
 20
46.864727
 30
0.0
  0
VERTEX
  5
1C0
  8
THROUGH_CUT
 10
12.0133975
 20
46.850448
 30
0.0
  0
VERTEX
  5
1C1
  8
THROUGH_CUT
 10
12.0060305
 20
46.834651
 30
0.0
  0
VERTEX
  5
1C2
  8
THROUGH_CUT
 10
12.0015195
 20
46.817813
 30
0.0
  0
VERTEX
  5
1C3
  8
THROUGH_CUT
 10
12.0000005
 20
46.800448
 30
0.0
  0
VERTEX
  5
1C4
  8
THROUGH_CUT
 10
12.0000005
 20
46.46912611997329
 30
0.0
 42
-0.9999999999999933
  0
VERTEX
  5
1C5
  8
THROUGH_CUT
 10
11.73132088084396
 20
46.20042554393972
 30
0.0
  0
VERTEX
  5
1C6
  8
THROUGH_CUT
 10
10.4999325
 20
46.2003295
 30
0.0
  0
VERTEX
  5
1C7
  8
THROUGH_CUT
 10
3.740777312486117
 20
43.60025809995629
 30
0.0
 42
0.6867687382814192
  0
VERTEX
  5
1C8
  8
THROUGH_CUT
 10
3.740762164479237
 20
40.80026784194705
 30
0.0
  0
VERTEX
  5
1C9
  8
THROUGH_CUT
 10
10.5000195
 20
38.200224
 30
0.0
  0
VERTEX
  5
1CA
  8
THROUGH_CUT
 10
12.0001065
 20
38.200224
 30
0.0
  0
VERTEX
  5
1CB
  8
THROUGH_CUT
 10
12.0001065
 20
36.20022400000001
 30
0.0
  0
VERTEX
  5
1CC
  8
THROUGH_CUT
 10
84.0000675
 20
36.200669
 30
0.0
  0
VERTEX
  5
1CD
  8
THROUGH_CUT
 10
84.0000675
 20
38.200669
 30
0.0
  0
VERTEX
  5
1CE
  8
THROUGH_CUT
 10
85.5000675
 20
38.200566
 30
0.0
  0
VERTEX
  5
1CF
  8
THROUGH_CUT
 10
92.25922268751387
 20
40.80041490004371
 30
0.0
 42
0.6867687382814229
  0
VERTEX
  5
1D0
  8
THROUGH_CUT
 10
92.25923783552076
 20
43.60040515805294
 30
0.0
  0
VERTEX
  5
1D1
  8
THROUGH_CUT
 10
85.5000675
 20
46.200449
 30
0.0
  0
VERTEX
  5
1D2
  8
THROUGH_CUT
 10
84.26869971859969
 20
46.20045064174928
 30
0.0
 42
-1.0
  0
VERTEX
  5
1D3
  8
THROUGH_CUT
 10
83.9999995
 20
46.46915121859993
 30
0.0
  0
VERTEX
  5
1D4
  8
THROUGH_CUT
 10
83.9999995
 20
46.800448
 30
0.0
  0
VERTEX
  5
1D5
  8
THROUGH_CUT
 10
83.9984805
 20
46.817813
 30
0.0
  0
VERTEX
  5
1D6
  8
THROUGH_CUT
 10
83.99396949999999
 20
46.834651
 30
0.0
  0
VERTEX
  5
1D7
  8
THROUGH_CUT
 10
83.9866025
 20
46.850448
 30
0.0
  0
VERTEX
  5
1D8
  8
THROUGH_CUT
 10
83.97660450000001
 20
46.864727
 30
0.0
  0
VERTEX
  5
1D9
  8
THROUGH_CUT
 10
83.9642785
 20
46.877053
 30
0.0
  0
VERTEX
  5
1DA
  8
THROUGH_CUT
 10
83.94999949999999
 20
46.887051
 30
0.0
  0
VERTEX
  5
1DB
  8
THROUGH_CUT
 10
83.9342015
 20
46.894418
 30
0.0
  0
VERTEX
  5
1DC
  8
THROUGH_CUT
 10
83.91736449999999
 20
46.898929
 30
0.0
  0
VERTEX
  5
1DD
  8
THROUGH_CUT
 10
83.8999995
 20
46.900448
 30
0.0
  0
VERTEX
  5
1DE
  8
THROUGH_CUT
 10
81.1000005
 20
46.900448
 30
0.0
  0
VERTEX
  5
1DF
  8
THROUGH_CUT
 10
81.08263550000001
 20
46.898929
 30
0.0
  0
VERTEX
  5
1E0
  8
THROUGH_CUT
 10
81.0657985
 20
46.894418
 30
0.0
  0
VERTEX
  5
1E1
  8
THROUGH_CUT
 10
81.05000049999998
 20
46.887051
 30
0.0
  0
VERTEX
  5
1E2
  8
THROUGH_CUT
 10
81.0357215
 20
46.877053
 30
0.0
  0
VERTEX
  5
1E3
  8
THROUGH_CUT
 10
81.02339549999999
 20
46.864727
 30
0.0
  0
VERTEX
  5
1E4
  8
THROUGH_CUT
 10
81.0133975
 20
46.850448
 30
0.0
  0
VERTEX
  5
1E5
  8
THROUGH_CUT
 10
81.00603050000001
 20
46.834651
 30
0.0
  0
VERTEX
  5
1E6
  8
THROUGH_CUT
 10
81.0015195
 20
46.817813
 30
0.0
  0
VERTEX
  5
1E7
  8
THROUGH_CUT
 10
81.0000005
 20
46.800448
 30
0.0
  0
VERTEX
  5
1E8
  8
THROUGH_CUT
 10
81.0000005
 20
46.46914712054204
 30
0.0
 42
-0.4142135623730732
  0
VERTEX
  5
1E9
  8
THROUGH_CUT
 10
81.00000047815443
 20
46.20044652184558
 30
0.0
 42
-0.4142135623731151
  0
VERTEX
  5
1EA
  8
THROUGH_CUT
 10
80.73129987945796
 20
46.20044654369116
 30
0.0
  0
VERTEX
  5
1EB
  8
THROUGH_CUT
 10
65.6249995
 20
46.200449
 30
0.0
  0
VERTEX
  5
1EC
  8
THROUGH_CUT
 10
65.6249995
 20
43.600449
 30
0.0
  0
VERTEX
  5
1ED
  8
THROUGH_CUT
 10
65.6579185
 20
43.597721
 30
0.0
  0
VERTEX
  5
1EE
  8
THROUGH_CUT
 10
65.68993950000001
 20
43.589612
 30
0.0
  0
VERTEX
  5
1EF
  8
THROUGH_CUT
 10
65.7201885
 20
43.57634299999999
 30
0.0
  0
VERTEX
  5
1F0
  8
THROUGH_CUT
 10
65.74784149999999
 20
43.558277
 30
0.0
  0
VERTEX
  5
1F1
  8
THROUGH_CUT
 10
65.7721435
 20
43.535905
 30
0.0
  0
VERTEX
  5
1F2
  8
THROUGH_CUT
 10
65.79243249999999
 20
43.509838
 30
0.0
  0
VERTEX
  5
1F3
  8
THROUGH_CUT
 10
65.8081535
 20
43.480788
 30
0.0
  0
VERTEX
  5
1F4
  8
THROUGH_CUT
 10
65.81887950000001
 20
43.449546
 30
0.0
  0
VERTEX
  5
1F5
  8
THROUGH_CUT
 10
65.82431650000001
 20
43.416965
 30
0.0
  0
VERTEX
  5
1F6
  8
THROUGH_CUT
 10
65.82431650000001
 20
43.383933
 30
0.0
  0
VERTEX
  5
1F7
  8
THROUGH_CUT
 10
65.81887950000001
 20
43.351352
 30
0.0
  0
VERTEX
  5
1F8
  8
THROUGH_CUT
 10
65.8081535
 20
43.32011
 30
0.0
  0
VERTEX
  5
1F9
  8
THROUGH_CUT
 10
65.79243249999999
 20
43.291059
 30
0.0
  0
VERTEX
  5
1FA
  8
THROUGH_CUT
 10
65.7721435
 20
43.264992
 30
0.0
  0
VERTEX
  5
1FB
  8
THROUGH_CUT
 10
65.74784149999999
 20
43.242621
 30
0.0
  0
VERTEX
  5
1FC
  8
THROUGH_CUT
 10
65.7201885
 20
43.224554
 30
0.0
  0
VERTEX
  5
1FD
  8
THROUGH_CUT
 10
65.68993950000001
 20
43.211285
 30
0.0
  0
VERTEX
  5
1FE
  8
THROUGH_CUT
 10
65.6579185
 20
43.203176
 30
0.0
  0
VERTEX
  5
1FF
  8
THROUGH_CUT
 10
65.6249995
 20
43.200449
 30
0.0
  0
VERTEX
  5
200
  8
THROUGH_CUT
 10
64.8749995
 20
43.200449
 30
0.0
  0
VERTEX
  5
201
  8
THROUGH_CUT
 10
64.84208050000001
 20
43.203176
 30
0.0
  0
VERTEX
  5
202
  8
THROUGH_CUT
 10
64.8100595
 20
43.211285
 30
0.0
  0
VERTEX
  5
203
  8
THROUGH_CUT
 10
64.7798095
 20
43.224554
 30
0.0
  0
VERTEX
  5
204
  8
THROUGH_CUT
 10
64.75215649999998
 20
43.242621
 30
0.0
  0
VERTEX
  5
205
  8
THROUGH_CUT
 10
64.7278545
 20
43.264992
 30
0.0
  0
VERTEX
  5
206
  8
THROUGH_CUT
 10
64.70756549999999
 20
43.291059
 30
0.0
  0
VERTEX
  5
207
  8
THROUGH_CUT
 10
64.6918445
 20
43.32011
 30
0.0
  0
VERTEX
  5
208
  8
THROUGH_CUT
 10
64.6811195
 20
43.351352
 30
0.0
  0
VERTEX
  5
209
  8
THROUGH_CUT
 10
64.6756825
 20
43.383933
 30
0.0
  0
VERTEX
  5
20A
  8
THROUGH_CUT
 10
64.6756825
 20
43.416965
 30
0.0
  0
VERTEX
  5
20B
  8
THROUGH_CUT
 10
64.6811195
 20
43.449546
 30
0.0
  0
VERTEX
  5
20C
  8
THROUGH_CUT
 10
64.6918445
 20
43.480788
 30
0.0
  0
VERTEX
  5
20D
  8
THROUGH_CUT
 10
64.70756549999999
 20
43.509838
 30
0.0
  0
VERTEX
  5
20E
  8
THROUGH_CUT
 10
64.7278545
 20
43.535905
 30
0.0
  0
VERTEX
  5
20F
  8
THROUGH_CUT
 10
64.75215649999998
 20
43.558277
 30
0.0
  0
VERTEX
  5
210
  8
THROUGH_CUT
 10
64.7798095
 20
43.57634299999999
 30
0.0
  0
VERTEX
  5
211
  8
THROUGH_CUT
 10
64.8100595
 20
43.589612
 30
0.0
  0
VERTEX
  5
212
  8
THROUGH_CUT
 10
64.84208050000001
 20
43.597721
 30
0.0
  0
VERTEX
  5
213
  8
THROUGH_CUT
 10
64.8749995
 20
43.600449
 30
0.0
  0
VERTEX
  5
214
  8
THROUGH_CUT
 10
64.8749995
 20
46.200449
 30
0.0
  0
VERTEX
  5
215
  8
THROUGH_CUT
 10
49.76870004189797
 20
46.20045096504708
 30
0.0
 42
-1.0
  0
VERTEX
  5
216
  8
THROUGH_CUT
 10
49.4999995
 20
46.46915154189797
 30
0.0
  0
VERTEX
  5
217
  8
THROUGH_CUT
 10
49.4999995
 20
46.800448
 30
0.0
  0
VERTEX
  5
218
  8
THROUGH_CUT
 10
49.4984805
 20
46.817813
 30
0.0
  0
VERTEX
  5
219
  8
THROUGH_CUT
 10
49.4939695
 20
46.834651
 30
0.0
  0
VERTEX
  5
21A
  8
THROUGH_CUT
 10
49.4866025
 20
46.850448
 30
0.0
  0
VERTEX
  5
21B
  8
THROUGH_CUT
 10
49.4766045
 20
46.864727
 30
0.0
  0
VERTEX
  5
21C
  8
THROUGH_CUT
 10
49.4642785
 20
46.877053
 30
0.0
  0
VERTEX
  5
21D
  8
THROUGH_CUT
 10
49.4499995
 20
46.887051
 30
0.0
  0
VERTEX
  5
21E
  8
THROUGH_CUT
 10
49.4342015
 20
46.894418
 30
0.0
  0
VERTEX
  5
21F
  8
THROUGH_CUT
 10
49.4173645
 20
46.898929
 30
0.0
  0
VERTEX
  5
220
  8
THROUGH_CUT
 10
49.3999995
 20
46.900448
 30
0.0
  0
VERTEX
  5
221
  8
THROUGH_CUT
 10
46.6000005
 20
46.900448
 30
0.0
  0
VERTEX
  5
222
  8
THROUGH_CUT
 10
46.58263549999999
 20
46.898929
 30
0.0
  0
VERTEX
  5
223
  8
THROUGH_CUT
 10
46.5657985
 20
46.894418
 30
0.0
  0
VERTEX
  5
224
  8
THROUGH_CUT
 10
46.5500005
 20
46.887051
 30
0.0
  0
VERTEX
  5
225
  8
THROUGH_CUT
 10
46.5357215
 20
46.877053
 30
0.0
  0
VERTEX
  5
226
  8
THROUGH_CUT
 10
46.5233955
 20
46.864727
 30
0.0
  0
VERTEX
  5
227
  8
THROUGH_CUT
 10
46.5133975
 20
46.850448
 30
0.0
  0
VERTEX
  5
228
  8
THROUGH_CUT
 10
46.50603049999999
 20
46.834651
 30
0.0
  0
VERTEX
  5
229
  8
THROUGH_CUT
 10
46.5015195
 20
46.817813
 30
0.0
  0
VERTEX
  5
22A
  8
THROUGH_CUT
 10
46.5000005
 20
46.800448
 30
0.0
  0
VERTEX
  5
22B
  8
THROUGH_CUT
 10
46.5000005
 20
46.46914712054204
 30
0.0
 42
-0.4142135623730996
  0
VERTEX
  5
22C
  8
THROUGH_CUT
 10
46.50000047815443
 20
46.20044652184558
 30
0.0
 42
-0.4142135623731151
  0
VERTEX
  5
22D
  8
THROUGH_CUT
 10
46.23129987945796
 20
46.20044654369116
 30
0.0
  0
VERTEX
  5
22E
  8
THROUGH_CUT
 10
31.1250005
 20
46.200449
 30
0.0
  0
VERTEX
  5
22F
  8
THROUGH_CUT
 10
31.1250005
 20
43.600449
 30
0.0
  0
VERTEX
  5
230
  8
THROUGH_CUT
 10
31.1579195
 20
43.597721
 30
0.0
  0
VERTEX
  5
231
  8
THROUGH_CUT
 10
31.1899405
 20
43.589612
 30
0.0
  0
VERTEX
  5
232
  8
THROUGH_CUT
 10
31.2201895
 20
43.57634299999999
 30
0.0
  0
VERTEX
  5
233
  8
THROUGH_CUT
 10
31.2478425
 20
43.558277
 30
0.0
  0
VERTEX
  5
234
  8
THROUGH_CUT
 10
31.2721445
 20
43.535905
 30
0.0
  0
VERTEX
  5
235
  8
THROUGH_CUT
 10
31.2924335
 20
43.509838
 30
0.0
  0
VERTEX
  5
236
  8
THROUGH_CUT
 10
31.3081545
 20
43.480788
 30
0.0
  0
VERTEX
  5
237
  8
THROUGH_CUT
 10
31.3188805
 20
43.449546
 30
0.0
  0
VERTEX
  5
238
  8
THROUGH_CUT
 10
31.3243175
 20
43.416965
 30
0.0
  0
VERTEX
  5
239
  8
THROUGH_CUT
 10
31.3243175
 20
43.383933
 30
0.0
  0
VERTEX
  5
23A
  8
THROUGH_CUT
 10
31.3188805
 20
43.351352
 30
0.0
  0
VERTEX
  5
23B
  8
THROUGH_CUT
 10
31.3081545
 20
43.32011
 30
0.0
  0
VERTEX
  5
23C
  8
THROUGH_CUT
 10
31.2924335
 20
43.291059
 30
0.0
  0
VERTEX
  5
23D
  8
THROUGH_CUT
 10
31.2721445
 20
43.264992
 30
0.0
  0
VERTEX
  5
23E
  8
THROUGH_CUT
 10
31.2478425
 20
43.242621
 30
0.0
  0
VERTEX
  5
23F
  8
THROUGH_CUT
 10
31.2201895
 20
43.224554
 30
0.0
  0
VERTEX
  5
240
  8
THROUGH_CUT
 10
31.1899405
 20
43.211285
 30
0.0
  0
VERTEX
  5
241
  8
THROUGH_CUT
 10
31.1579195
 20
43.203176
 30
0.0
  0
VERTEX
  5
242
  8
THROUGH_CUT
 10
31.1250005
 20
43.200449
 30
0.0
  0
VERTEX
  5
243
  8
THROUGH_CUT
 10
30.3750005
 20
43.200449
 30
0.0
  0
VERTEX
  5
244
  8
THROUGH_CUT
 10
30.3420815
 20
43.203176
 30
0.0
  0
VERTEX
  5
245
  8
THROUGH_CUT
 10
30.3100605
 20
43.211285
 30
0.0
  0
VERTEX
  5
246
  8
THROUGH_CUT
 10
30.2798105
 20
43.224554
 30
0.0
  0
VERTEX
  5
247
  8
THROUGH_CUT
 10
30.2521575
 20
43.242621
 30
0.0
  0
VERTEX
  5
248
  8
THROUGH_CUT
 10
30.2278555
 20
43.264992
 30
0.0
  0
VERTEX
  5
249
  8
THROUGH_CUT
 10
30.2075665
 20
43.291059
 30
0.0
  0
VERTEX
  5
24A
  8
THROUGH_CUT
 10
30.1918455
 20
43.32011
 30
0.0
  0
VERTEX
  5
24B
  8
THROUGH_CUT
 10
30.1811205
 20
43.351352
 30
0.0
  0
VERTEX
  5
24C
  8
THROUGH_CUT
 10
30.1756835
 20
43.383933
 30
0.0
  0
VERTEX
  5
24D
  8
THROUGH_CUT
 10
30.1756835
 20
43.416965
 30
0.0
  0
VERTEX
  5
24E
  8
THROUGH_CUT
 10
30.1811205
 20
43.449546
 30
0.0
  0
VERTEX
  5
24F
  8
THROUGH_CUT
 10
30.1918455
 20
43.480788
 30
0.0
  0
VERTEX
  5
250
  8
THROUGH_CUT
 10
30.2075665
 20
43.509838
 30
0.0
  0
VERTEX
  5
251
  8
THROUGH_CUT
 10
30.2278555
 20
43.535905
 30
0.0
  0
VERTEX
  5
252
  8
THROUGH_CUT
 10
30.2521575
 20
43.558277
 30
0.0
  0
VERTEX
  5
253
  8
THROUGH_CUT
 10
30.2798105
 20
43.57634299999999
 30
0.0
  0
VERTEX
  5
254
  8
THROUGH_CUT
 10
30.3100605
 20
43.589612
 30
0.0
  0
VERTEX
  5
255
  8
THROUGH_CUT
 10
30.3420815
 20
43.597721
 30
0.0
  0
VERTEX
  5
256
  8
THROUGH_CUT
 10
30.3750005
 20
43.600449
 30
0.0
  0
SEQEND
  5
257
  8
THROUGH_CUT
  0
POLYLINE
  5
44
  8
THROUGH_CUT
 66
     1
 10
0.0
 20
0.0
 30
0.0
 70
     1
  0
VERTEX
  5
258
  8
THROUGH_CUT
 10
30.3750005
 20
22.800001
 30
0.0
  0
VERTEX
  5
259
  8
THROUGH_CUT
 10
15.26870004189797
 20
22.80000296504709
 30
0.0
 42
-1.0
  0
VERTEX
  5
25A
  8
THROUGH_CUT
 10
14.9999995
 20
23.06870354189797
 30
0.0
  0
VERTEX
  5
25B
  8
THROUGH_CUT
 10
14.9999995
 20
23.4
 30
0.0
  0
VERTEX
  5
25C
  8
THROUGH_CUT
 10
14.9984805
 20
23.417365
 30
0.0
  0
VERTEX
  5
25D
  8
THROUGH_CUT
 10
14.9939695
 20
23.434203
 30
0.0
  0
VERTEX
  5
25E
  8
THROUGH_CUT
 10
14.9866025
 20
23.45
 30
0.0
  0
VERTEX
  5
25F
  8
THROUGH_CUT
 10
14.9766045
 20
23.464279
 30
0.0
  0
VERTEX
  5
260
  8
THROUGH_CUT
 10
14.9642785
 20
23.476605
 30
0.0
  0
VERTEX
  5
261
  8
THROUGH_CUT
 10
14.9499995
 20
23.486603
 30
0.0
  0
VERTEX
  5
262
  8
THROUGH_CUT
 10
14.9342015
 20
23.49397
 30
0.0
  0
VERTEX
  5
263
  8
THROUGH_CUT
 10
14.9173645
 20
23.498481
 30
0.0
  0
VERTEX
  5
264
  8
THROUGH_CUT
 10
14.8999995
 20
23.5
 30
0.0
  0
VERTEX
  5
265
  8
THROUGH_CUT
 10
12.1000005
 20
23.5
 30
0.0
  0
VERTEX
  5
266
  8
THROUGH_CUT
 10
12.0826355
 20
23.498481
 30
0.0
  0
VERTEX
  5
267
  8
THROUGH_CUT
 10
12.0657985
 20
23.49397
 30
0.0
  0
VERTEX
  5
268
  8
THROUGH_CUT
 10
12.0500005
 20
23.486603
 30
0.0
  0
VERTEX
  5
269
  8
THROUGH_CUT
 10
12.0357215
 20
23.476605
 30
0.0
  0
VERTEX
  5
26A
  8
THROUGH_CUT
 10
12.0233955
 20
23.464279
 30
0.0
  0
VERTEX
  5
26B
  8
THROUGH_CUT
 10
12.0133975
 20
23.45
 30
0.0
  0
VERTEX
  5
26C
  8
THROUGH_CUT
 10
12.0060305
 20
23.434203
 30
0.0
  0
VERTEX
  5
26D
  8
THROUGH_CUT
 10
12.0015195
 20
23.417365
 30
0.0
  0
VERTEX
  5
26E
  8
THROUGH_CUT
 10
12.0000005
 20
23.4
 30
0.0
  0
VERTEX
  5
26F
  8
THROUGH_CUT
 10
12.0000005
 20
23.06867811997329
 30
0.0
 42
-0.9999999999999933
  0
VERTEX
  5
270
  8
THROUGH_CUT
 10
11.73132088084396
 20
22.79997754393972
 30
0.0
  0
VERTEX
  5
271
  8
THROUGH_CUT
 10
10.4999325
 20
22.7998815
 30
0.0
  0
VERTEX
  5
272
  8
THROUGH_CUT
 10
3.740777312486117
 20
20.19981009995629
 30
0.0
 42
0.6867687382814192
  0
VERTEX
  5
273
  8
THROUGH_CUT
 10
3.740762164479237
 20
17.39981984194706
 30
0.0
  0
VERTEX
  5
274
  8
THROUGH_CUT
 10
10.5000195
 20
14.799776
 30
0.0
  0
VERTEX
  5
275
  8
THROUGH_CUT
 10
12.0001065
 20
14.799776
 30
0.0
  0
VERTEX
  5
276
  8
THROUGH_CUT
 10
12.0001065
 20
12.799776
 30
0.0
  0
VERTEX
  5
277
  8
THROUGH_CUT
 10
84.0000675
 20
12.800221
 30
0.0
  0
VERTEX
  5
278
  8
THROUGH_CUT
 10
84.0000675
 20
14.800221
 30
0.0
  0
VERTEX
  5
279
  8
THROUGH_CUT
 10
85.5000675
 20
14.800118
 30
0.0
  0
VERTEX
  5
27A
  8
THROUGH_CUT
 10
92.25922268751387
 20
17.39996690004372
 30
0.0
 42
0.6867687382814229
  0
VERTEX
  5
27B
  8
THROUGH_CUT
 10
92.25923783552076
 20
20.19995715805295
 30
0.0
  0
VERTEX
  5
27C
  8
THROUGH_CUT
 10
85.5000675
 20
22.800001
 30
0.0
  0
VERTEX
  5
27D
  8
THROUGH_CUT
 10
84.26869971859969
 20
22.80000264174928
 30
0.0
 42
-1.0
  0
VERTEX
  5
27E
  8
THROUGH_CUT
 10
83.9999995
 20
23.06870321859994
 30
0.0
  0
VERTEX
  5
27F
  8
THROUGH_CUT
 10
83.9999995
 20
23.4
 30
0.0
  0
VERTEX
  5
280
  8
THROUGH_CUT
 10
83.9984805
 20
23.417365
 30
0.0
  0
VERTEX
  5
281
  8
THROUGH_CUT
 10
83.99396949999999
 20
23.434203
 30
0.0
  0
VERTEX
  5
282
  8
THROUGH_CUT
 10
83.9866025
 20
23.45
 30
0.0
  0
VERTEX
  5
283
  8
THROUGH_CUT
 10
83.97660450000001
 20
23.464279
 30
0.0
  0
VERTEX
  5
284
  8
THROUGH_CUT
 10
83.9642785
 20
23.476605
 30
0.0
  0
VERTEX
  5
285
  8
THROUGH_CUT
 10
83.94999949999999
 20
23.486603
 30
0.0
  0
VERTEX
  5
286
  8
THROUGH_CUT
 10
83.9342015
 20
23.49397
 30
0.0
  0
VERTEX
  5
287
  8
THROUGH_CUT
 10
83.91736449999999
 20
23.498481
 30
0.0
  0
VERTEX
  5
288
  8
THROUGH_CUT
 10
83.8999995
 20
23.5
 30
0.0
  0
VERTEX
  5
289
  8
THROUGH_CUT
 10
81.1000005
 20
23.5
 30
0.0
  0
VERTEX
  5
28A
  8
THROUGH_CUT
 10
81.08263550000001
 20
23.498481
 30
0.0
  0
VERTEX
  5
28B
  8
THROUGH_CUT
 10
81.0657985
 20
23.49397
 30
0.0
  0
VERTEX
  5
28C
  8
THROUGH_CUT
 10
81.05000049999998
 20
23.486603
 30
0.0
  0
VERTEX
  5
28D
  8
THROUGH_CUT
 10
81.0357215
 20
23.476605
 30
0.0
  0
VERTEX
  5
28E
  8
THROUGH_CUT
 10
81.02339549999999
 20
23.464279
 30
0.0
  0
VERTEX
  5
28F
  8
THROUGH_CUT
 10
81.0133975
 20
23.45
 30
0.0
  0
VERTEX
  5
290
  8
THROUGH_CUT
 10
81.00603050000001
 20
23.434203
 30
0.0
  0
VERTEX
  5
291
  8
THROUGH_CUT
 10
81.0015195
 20
23.417365
 30
0.0
  0
VERTEX
  5
292
  8
THROUGH_CUT
 10
81.0000005
 20
23.4
 30
0.0
  0
VERTEX
  5
293
  8
THROUGH_CUT
 10
81.0000005
 20
23.06869912054204
 30
0.0
 42
-0.4142135623731316
  0
VERTEX
  5
294
  8
THROUGH_CUT
 10
81.00000047815442
 20
22.79999852184558
 30
0.0
 42
-0.4142135623731106
  0
VERTEX
  5
295
  8
THROUGH_CUT
 10
80.73129987945796
 20
22.79999854369116
 30
0.0
  0
VERTEX
  5
296
  8
THROUGH_CUT
 10
65.6249995
 20
22.800001
 30
0.0
  0
VERTEX
  5
297
  8
THROUGH_CUT
 10
65.6249995
 20
20.200001
 30
0.0
  0
VERTEX
  5
298
  8
THROUGH_CUT
 10
65.6579185
 20
20.197273
 30
0.0
  0
VERTEX
  5
299
  8
THROUGH_CUT
 10
65.68993950000001
 20
20.189164
 30
0.0
  0
VERTEX
  5
29A
  8
THROUGH_CUT
 10
65.7201885
 20
20.175895
 30
0.0
  0
VERTEX
  5
29B
  8
THROUGH_CUT
 10
65.74784149999999
 20
20.157829
 30
0.0
  0
VERTEX
  5
29C
  8
THROUGH_CUT
 10
65.7721435
 20
20.135457
 30
0.0
  0
VERTEX
  5
29D
  8
THROUGH_CUT
 10
65.79243249999999
 20
20.10939
 30
0.0
  0
VERTEX
  5
29E
  8
THROUGH_CUT
 10
65.8081535
 20
20.08034
 30
0.0
  0
VERTEX
  5
29F
  8
THROUGH_CUT
 10
65.81887950000001
 20
20.049098
 30
0.0
  0
VERTEX
  5
2A0
  8
THROUGH_CUT
 10
65.82431650000001
 20
20.016517
 30
0.0
  0
VERTEX
  5
2A1
  8
THROUGH_CUT
 10
65.82431650000001
 20
19.983485
 30
0.0
  0
VERTEX
  5
2A2
  8
THROUGH_CUT
 10
65.81887950000001
 20
19.950904
 30
0.0
  0
VERTEX
  5
2A3
  8
THROUGH_CUT
 10
65.8081535
 20
19.919662
 30
0.0
  0
VERTEX
  5
2A4
  8
THROUGH_CUT
 10
65.79243249999999
 20
19.890611
 30
0.0
  0
VERTEX
  5
2A5
  8
THROUGH_CUT
 10
65.7721435
 20
19.864544
 30
0.0
  0
VERTEX
  5
2A6
  8
THROUGH_CUT
 10
65.74784149999999
 20
19.842173
 30
0.0
  0
VERTEX
  5
2A7
  8
THROUGH_CUT
 10
65.7201885
 20
19.824106
 30
0.0
  0
VERTEX
  5
2A8
  8
THROUGH_CUT
 10
65.68993950000001
 20
19.810837
 30
0.0
  0
VERTEX
  5
2A9
  8
THROUGH_CUT
 10
65.6579185
 20
19.802728
 30
0.0
  0
VERTEX
  5
2AA
  8
THROUGH_CUT
 10
65.6249995
 20
19.800001
 30
0.0
  0
VERTEX
  5
2AB
  8
THROUGH_CUT
 10
64.8749995
 20
19.800001
 30
0.0
  0
VERTEX
  5
2AC
  8
THROUGH_CUT
 10
64.84208050000001
 20
19.802728
 30
0.0
  0
VERTEX
  5
2AD
  8
THROUGH_CUT
 10
64.8100595
 20
19.810837
 30
0.0
  0
VERTEX
  5
2AE
  8
THROUGH_CUT
 10
64.7798095
 20
19.824106
 30
0.0
  0
VERTEX
  5
2AF
  8
THROUGH_CUT
 10
64.75215649999998
 20
19.842173
 30
0.0
  0
VERTEX
  5
2B0
  8
THROUGH_CUT
 10
64.7278545
 20
19.864544
 30
0.0
  0
VERTEX
  5
2B1
  8
THROUGH_CUT
 10
64.70756549999999
 20
19.890611
 30
0.0
  0
VERTEX
  5
2B2
  8
THROUGH_CUT
 10
64.6918445
 20
19.919662
 30
0.0
  0
VERTEX
  5
2B3
  8
THROUGH_CUT
 10
64.6811195
 20
19.950904
 30
0.0
  0
VERTEX
  5
2B4
  8
THROUGH_CUT
 10
64.6756825
 20
19.983485
 30
0.0
  0
VERTEX
  5
2B5
  8
THROUGH_CUT
 10
64.6756825
 20
20.016517
 30
0.0
  0
VERTEX
  5
2B6
  8
THROUGH_CUT
 10
64.6811195
 20
20.049098
 30
0.0
  0
VERTEX
  5
2B7
  8
THROUGH_CUT
 10
64.6918445
 20
20.08034
 30
0.0
  0
VERTEX
  5
2B8
  8
THROUGH_CUT
 10
64.70756549999999
 20
20.10939
 30
0.0
  0
VERTEX
  5
2B9
  8
THROUGH_CUT
 10
64.7278545
 20
20.135457
 30
0.0
  0
VERTEX
  5
2BA
  8
THROUGH_CUT
 10
64.75215649999998
 20
20.157829
 30
0.0
  0
VERTEX
  5
2BB
  8
THROUGH_CUT
 10
64.7798095
 20
20.175895
 30
0.0
  0
VERTEX
  5
2BC
  8
THROUGH_CUT
 10
64.8100595
 20
20.189164
 30
0.0
  0
VERTEX
  5
2BD
  8
THROUGH_CUT
 10
64.84208050000001
 20
20.197273
 30
0.0
  0
VERTEX
  5
2BE
  8
THROUGH_CUT
 10
64.8749995
 20
20.200001
 30
0.0
  0
VERTEX
  5
2BF
  8
THROUGH_CUT
 10
64.8749995
 20
22.800001
 30
0.0
  0
VERTEX
  5
2C0
  8
THROUGH_CUT
 10
49.76870004189797
 20
22.80000296504709
 30
0.0
 42
-1.0
  0
VERTEX
  5
2C1
  8
THROUGH_CUT
 10
49.4999995
 20
23.06870354189797
 30
0.0
  0
VERTEX
  5
2C2
  8
THROUGH_CUT
 10
49.4999995
 20
23.4
 30
0.0
  0
VERTEX
  5
2C3
  8
THROUGH_CUT
 10
49.4984805
 20
23.417365
 30
0.0
  0
VERTEX
  5
2C4
  8
THROUGH_CUT
 10
49.4939695
 20
23.434203
 30
0.0
  0
VERTEX
  5
2C5
  8
THROUGH_CUT
 10
49.4866025
 20
23.45
 30
0.0
  0
VERTEX
  5
2C6
  8
THROUGH_CUT
 10
49.4766045
 20
23.464279
 30
0.0
  0
VERTEX
  5
2C7
  8
THROUGH_CUT
 10
49.4642785
 20
23.476605
 30
0.0
  0
VERTEX
  5
2C8
  8
THROUGH_CUT
 10
49.4499995
 20
23.486603
 30
0.0
  0
VERTEX
  5
2C9
  8
THROUGH_CUT
 10
49.4342015
 20
23.49397
 30
0.0
  0
VERTEX
  5
2CA
  8
THROUGH_CUT
 10
49.4173645
 20
23.498481
 30
0.0
  0
VERTEX
  5
2CB
  8
THROUGH_CUT
 10
49.3999995
 20
23.5
 30
0.0
  0
VERTEX
  5
2CC
  8
THROUGH_CUT
 10
46.6000005
 20
23.5
 30
0.0
  0
VERTEX
  5
2CD
  8
THROUGH_CUT
 10
46.58263549999999
 20
23.498481
 30
0.0
  0
VERTEX
  5
2CE
  8
THROUGH_CUT
 10
46.5657985
 20
23.49397
 30
0.0
  0
VERTEX
  5
2CF
  8
THROUGH_CUT
 10
46.5500005
 20
23.486603
 30
0.0
  0
VERTEX
  5
2D0
  8
THROUGH_CUT
 10
46.5357215
 20
23.476605
 30
0.0
  0
VERTEX
  5
2D1
  8
THROUGH_CUT
 10
46.5233955
 20
23.464279
 30
0.0
  0
VERTEX
  5
2D2
  8
THROUGH_CUT
 10
46.5133975
 20
23.45
 30
0.0
  0
VERTEX
  5
2D3
  8
THROUGH_CUT
 10
46.50603049999999
 20
23.434203
 30
0.0
  0
VERTEX
  5
2D4
  8
THROUGH_CUT
 10
46.5015195
 20
23.417365
 30
0.0
  0
VERTEX
  5
2D5
  8
THROUGH_CUT
 10
46.5000005
 20
23.4
 30
0.0
  0
VERTEX
  5
2D6
  8
THROUGH_CUT
 10
46.5000005
 20
23.06869912054204
 30
0.0
 42
-0.4142135623731051
  0
VERTEX
  5
2D7
  8
THROUGH_CUT
 10
46.50000047815443
 20
22.79999852184558
 30
0.0
 42
-0.4142135623730887
  0
VERTEX
  5
2D8
  8
THROUGH_CUT
 10
46.23129987945796
 20
22.79999854369116
 30
0.0
  0
VERTEX
  5
2D9
  8
THROUGH_CUT
 10
31.1250005
 20
22.800001
 30
0.0
  0
VERTEX
  5
2DA
  8
THROUGH_CUT
 10
31.1250005
 20
20.200001
 30
0.0
  0
VERTEX
  5
2DB
  8
THROUGH_CUT
 10
31.1579195
 20
20.197273
 30
0.0
  0
VERTEX
  5
2DC
  8
THROUGH_CUT
 10
31.1899405
 20
20.189164
 30
0.0
  0
VERTEX
  5
2DD
  8
THROUGH_CUT
 10
31.2201895
 20
20.175895
 30
0.0
  0
VERTEX
  5
2DE
  8
THROUGH_CUT
 10
31.2478425
 20
20.157829
 30
0.0
  0
VERTEX
  5
2DF
  8
THROUGH_CUT
 10
31.2721445
 20
20.135457
 30
0.0
  0
VERTEX
  5
2E0
  8
THROUGH_CUT
 10
31.2924335
 20
20.10939
 30
0.0
  0
VERTEX
  5
2E1
  8
THROUGH_CUT
 10
31.3081545
 20
20.08034
 30
0.0
  0
VERTEX
  5
2E2
  8
THROUGH_CUT
 10
31.3188805
 20
20.049098
 30
0.0
  0
VERTEX
  5
2E3
  8
THROUGH_CUT
 10
31.3243175
 20
20.016517
 30
0.0
  0
VERTEX
  5
2E4
  8
THROUGH_CUT
 10
31.3243175
 20
19.983485
 30
0.0
  0
VERTEX
  5
2E5
  8
THROUGH_CUT
 10
31.3188805
 20
19.950904
 30
0.0
  0
VERTEX
  5
2E6
  8
THROUGH_CUT
 10
31.3081545
 20
19.919662
 30
0.0
  0
VERTEX
  5
2E7
  8
THROUGH_CUT
 10
31.2924335
 20
19.890611
 30
0.0
  0
VERTEX
  5
2E8
  8
THROUGH_CUT
 10
31.2721445
 20
19.864544
 30
0.0
  0
VERTEX
  5
2E9
  8
THROUGH_CUT
 10
31.2478425
 20
19.842173
 30
0.0
  0
VERTEX
  5
2EA
  8
THROUGH_CUT
 10
31.2201895
 20
19.824106
 30
0.0
  0
VERTEX
  5
2EB
  8
THROUGH_CUT
 10
31.1899405
 20
19.810837
 30
0.0
  0
VERTEX
  5
2EC
  8
THROUGH_CUT
 10
31.1579195
 20
19.802728
 30
0.0
  0
VERTEX
  5
2ED
  8
THROUGH_CUT
 10
31.1250005
 20
19.800001
 30
0.0
  0
VERTEX
  5
2EE
  8
THROUGH_CUT
 10
30.3750005
 20
19.800001
 30
0.0
  0
VERTEX
  5
2EF
  8
THROUGH_CUT
 10
30.3420815
 20
19.802728
 30
0.0
  0
VERTEX
  5
2F0
  8
THROUGH_CUT
 10
30.3100605
 20
19.810837
 30
0.0
  0
VERTEX
  5
2F1
  8
THROUGH_CUT
 10
30.2798105
 20
19.824106
 30
0.0
  0
VERTEX
  5
2F2
  8
THROUGH_CUT
 10
30.2521575
 20
19.842173
 30
0.0
  0
VERTEX
  5
2F3
  8
THROUGH_CUT
 10
30.2278555
 20
19.864544
 30
0.0
  0
VERTEX
  5
2F4
  8
THROUGH_CUT
 10
30.2075665
 20
19.890611
 30
0.0
  0
VERTEX
  5
2F5
  8
THROUGH_CUT
 10
30.1918455
 20
19.919662
 30
0.0
  0
VERTEX
  5
2F6
  8
THROUGH_CUT
 10
30.1811205
 20
19.950904
 30
0.0
  0
VERTEX
  5
2F7
  8
THROUGH_CUT
 10
30.1756835
 20
19.983485
 30
0.0
  0
VERTEX
  5
2F8
  8
THROUGH_CUT
 10
30.1756835
 20
20.016517
 30
0.0
  0
VERTEX
  5
2F9
  8
THROUGH_CUT
 10
30.1811205
 20
20.049098
 30
0.0
  0
VERTEX
  5
2FA
  8
THROUGH_CUT
 10
30.1918455
 20
20.08034
 30
0.0
  0
VERTEX
  5
2FB
  8
THROUGH_CUT
 10
30.2075665
 20
20.10939
 30
0.0
  0
VERTEX
  5
2FC
  8
THROUGH_CUT
 10
30.2278555
 20
20.135457
 30
0.0
  0
VERTEX
  5
2FD
  8
THROUGH_CUT
 10
30.2521575
 20
20.157829
 30
0.0
  0
VERTEX
  5
2FE
  8
THROUGH_CUT
 10
30.2798105
 20
20.175895
 30
0.0
  0
VERTEX
  5
2FF
  8
THROUGH_CUT
 10
30.3100605
 20
20.189164
 30
0.0
  0
VERTEX
  5
300
  8
THROUGH_CUT
 10
30.3420815
 20
20.197273
 30
0.0
  0
VERTEX
  5
301
  8
THROUGH_CUT
 10
30.3750005
 20
20.200001
 30
0.0
  0
SEQEND
  5
302
  8
THROUGH_CUT
  0
POLYLINE
  5
45
  8
THROUGH_CUT
 66
     1
 10
0.0
 20
0.0
 30
0.0
 70
     1
  0
VERTEX
  5
303
  8
THROUGH_CUT
 10
4.4999325
 20
7.299524000000002
 30
0.0
 42
0.4142135623730951
  0
VERTEX
  5
304
  8
THROUGH_CUT
 10
4.299929500000001
 20
7.099521000000003
 30
0.0
 42
0.4142135623730951
  0
VERTEX
  5
305
  8
THROUGH_CUT
 10
4.4999325
 20
6.899518000000004
 30
0.0
 42
0.4142135623730951
  0
VERTEX
  5
306
  8
THROUGH_CUT
 10
4.699935499999999
 20
7.099521000000003
 30
0.0
 42
0.4142135623730951
  0
SEQEND
  5
307
  8
THROUGH_CUT
  0
POLYLINE
  5
46
  8
THROUGH_CUT
 66
     1
 10
0.0
 20
0.0
 30
0.0
 70
     1
  0
VERTEX
  5
308
  8
THROUGH_CUT
 10
16.4999315
 20
7.299658000000001
 30
0.0
 42
0.4142135623731054
  0
VERTEX
  5
309
  8
THROUGH_CUT
 10
16.2999285
 20
7.099655000000002
 30
0.0
 42
0.4142135623731054
  0
VERTEX
  5
30A
  8
THROUGH_CUT
 10
16.4999315
 20
6.899652000000003
 30
0.0
 42
0.4142135623730951
  0
VERTEX
  5
30B
  8
THROUGH_CUT
 10
16.6999345
 20
7.099655000000002
 30
0.0
 42
0.4142135623730951
  0
SEQEND
  5
30C
  8
THROUGH_CUT
  0
POLYLINE
  5
47
  8
THROUGH_CUT
 66
     1
 10
0.0
 20
0.0
 30
0.0
 70
     1
  0
VERTEX
  5
30D
  8
THROUGH_CUT
 10
79.50007049999999
 20
7.299678000000004
 30
0.0
 42
0.4142135623730951
  0
VERTEX
  5
30E
  8
THROUGH_CUT
 10
79.30006749999998
 20
7.099675000000005
 30
0.0
 42
0.4142135623730951
  0
VERTEX
  5
30F
  8
THROUGH_CUT
 10
79.50007049999999
 20
6.899672000000006
 30
0.0
 42
0.4142135623730951
  0
VERTEX
  5
310
  8
THROUGH_CUT
 10
79.7000735
 20
7.099675000000005
 30
0.0
 42
0.4142135623730951
  0
SEQEND
  5
311
  8
THROUGH_CUT
  0
POLYLINE
  5
48
  8
THROUGH_CUT
 66
     1
 10
0.0
 20
0.0
 30
0.0
 70
     1
  0
VERTEX
  5
312
  8
THROUGH_CUT
 10
91.5000695
 20
7.299812000000003
 30
0.0
 42
0.4142135623730951
  0
VERTEX
  5
313
  8
THROUGH_CUT
 10
91.30006649999999
 20
7.099809000000004
 30
0.0
 42
0.4142135623730951
  0
VERTEX
  5
314
  8
THROUGH_CUT
 10
91.5000695
 20
6.899806000000005
 30
0.0
 42
0.4142135623730794
  0
VERTEX
  5
315
  8
THROUGH_CUT
 10
91.70007249999998
 20
7.099809000000004
 30
0.0
 42
0.4142135623730794
  0
SEQEND
  5
316
  8
THROUGH_CUT
  0
POLYLINE
  5
49
  8
THROUGH_CUT
 66
     1
 10
0.0
 20
0.0
 30
0.0
 70
     1
  0
VERTEX
  5
317
  8
THROUGH_CUT
 10
4.4999325
 20
18.999748
 30
0.0
 42
0.4142135623730951
  0
VERTEX
  5
318
  8
THROUGH_CUT
 10
4.299929500000001
 20
18.799745
 30
0.0
 42
0.4142135623730951
  0
VERTEX
  5
319
  8
THROUGH_CUT
 10
4.4999325
 20
18.599742
 30
0.0
 42
0.4142135623730951
  0
VERTEX
  5
31A
  8
THROUGH_CUT
 10
4.699935499999999
 20
18.799745
 30
0.0
 42
0.4142135623730951
  0
SEQEND
  5
31B
  8
THROUGH_CUT
  0
POLYLINE
  5
4A
  8
THROUGH_CUT
 66
     1
 10
0.0
 20
0.0
 30
0.0
 70
     1
  0
VERTEX
  5
31C
  8
THROUGH_CUT
 10
16.4999315
 20
18.999882
 30
0.0
 42
0.4142135623731054
  0
VERTEX
  5
31D
  8
THROUGH_CUT
 10
16.2999285
 20
18.799879
 30
0.0
 42
0.4142135623731003
  0
VERTEX
  5
31E
  8
THROUGH_CUT
 10
16.4999315
 20
18.599876
 30
0.0
 42
0.4142135623730951
  0
VERTEX
  5
31F
  8
THROUGH_CUT
 10
16.6999345
 20
18.799879
 30
0.0
 42
0.4142135623731003
  0
SEQEND
  5
320
  8
THROUGH_CUT
  0
POLYLINE
  5
4B
  8
THROUGH_CUT
 66
     1
 10
0.0
 20
0.0
 30
0.0
 70
     1
  0
VERTEX
  5
321
  8
THROUGH_CUT
 10
79.50007049999999
 20
18.999902
 30
0.0
 42
0.4142135623731003
  0
VERTEX
  5
322
  8
THROUGH_CUT
 10
79.30006749999998
 20
18.799899
 30
0.0
 42
0.4142135623731003
  0
VERTEX
  5
323
  8
THROUGH_CUT
 10
79.50007049999999
 20
18.599896
 30
0.0
 42
0.4142135623731003
  0
VERTEX
  5
324
  8
THROUGH_CUT
 10
79.7000735
 20
18.799899
 30
0.0
 42
0.4142135623731003
  0
SEQEND
  5
325
  8
THROUGH_CUT
  0
POLYLINE
  5
4C
  8
THROUGH_CUT
 66
     1
 10
0.0
 20
0.0
 30
0.0
 70
     1
  0
VERTEX
  5
326
  8
THROUGH_CUT
 10
91.5000695
 20
19.000036
 30
0.0
 42
0.4142135623730951
  0
VERTEX
  5
327
  8
THROUGH_CUT
 10
91.30006649999999
 20
18.800033
 30
0.0
 42
0.4142135623730898
  0
VERTEX
  5
328
  8
THROUGH_CUT
 10
91.5000695
 20
18.60003
 30
0.0
 42
0.4142135623730794
  0
VERTEX
  5
329
  8
THROUGH_CUT
 10
91.70007249999998
 20
18.800033
 30
0.0
 42
0.4142135623730847
  0
SEQEND
  5
32A
  8
THROUGH_CUT
  0
POLYLINE
  5
4D
  8
THROUGH_CUT
 66
     1
 10
0.0
 20
0.0
 30
0.0
 70
     1
  0
VERTEX
  5
32B
  8
THROUGH_CUT
 10
4.4999325
 20
30.699972
 30
0.0
 42
0.4142135623730951
  0
VERTEX
  5
32C
  8
THROUGH_CUT
 10
4.299929500000001
 20
30.499969
 30
0.0
 42
0.4142135623730951
  0
VERTEX
  5
32D
  8
THROUGH_CUT
 10
4.4999325
 20
30.299966
 30
0.0
 42
0.4142135623730951
  0
VERTEX
  5
32E
  8
THROUGH_CUT
 10
4.699935499999999
 20
30.499969
 30
0.0
 42
0.4142135623730951
  0
SEQEND
  5
32F
  8
THROUGH_CUT
  0
POLYLINE
  5
4E
  8
THROUGH_CUT
 66
     1
 10
0.0
 20
0.0
 30
0.0
 70
     1
  0
VERTEX
  5
330
  8
THROUGH_CUT
 10
16.4999315
 20
30.700106
 30
0.0
 42
0.4142135623731003
  0
VERTEX
  5
331
  8
THROUGH_CUT
 10
16.2999285
 20
30.500103
 30
0.0
 42
0.4142135623731054
  0
VERTEX
  5
332
  8
THROUGH_CUT
 10
16.4999315
 20
30.3001
 30
0.0
 42
0.4142135623731003
  0
VERTEX
  5
333
  8
THROUGH_CUT
 10
16.6999345
 20
30.500103
 30
0.0
 42
0.4142135623730951
  0
SEQEND
  5
334
  8
THROUGH_CUT
  0
POLYLINE
  5
4F
  8
THROUGH_CUT
 66
     1
 10
0.0
 20
0.0
 30
0.0
 70
     1
  0
VERTEX
  5
335
  8
THROUGH_CUT
 10
79.50007049999999
 20
30.700126
 30
0.0
 42
0.4142135623730951
  0
VERTEX
  5
336
  8
THROUGH_CUT
 10
79.30006749999998
 20
30.500123
 30
0.0
 42
0.4142135623731003
  0
VERTEX
  5
337
  8
THROUGH_CUT
 10
79.50007049999999
 20
30.30012
 30
0.0
 42
0.4142135623731003
  0
VERTEX
  5
338
  8
THROUGH_CUT
 10
79.7000735
 20
30.500123
 30
0.0
 42
0.4142135623730951
  0
SEQEND
  5
339
  8
THROUGH_CUT
  0
POLYLINE
  5
50
  8
THROUGH_CUT
 66
     1
 10
0.0
 20
0.0
 30
0.0
 70
     1
  0
VERTEX
  5
33A
  8
THROUGH_CUT
 10
91.5000695
 20
30.70026
 30
0.0
 42
0.4142135623731003
  0
VERTEX
  5
33B
  8
THROUGH_CUT
 10
91.30006649999999
 20
30.500257
 30
0.0
 42
0.4142135623730951
  0
VERTEX
  5
33C
  8
THROUGH_CUT
 10
91.5000695
 20
30.300254
 30
0.0
 42
0.4142135623730847
  0
VERTEX
  5
33D
  8
THROUGH_CUT
 10
91.70007249999998
 20
30.500257
 30
0.0
 42
0.4142135623730794
  0
SEQEND
  5
33E
  8
THROUGH_CUT
  0
POLYLINE
  5
51
  8
THROUGH_CUT
 66
     1
 10
0.0
 20
0.0
 30
0.0
 70
     1
  0
VERTEX
  5
33F
  8
THROUGH_CUT
 10
4.4999325
 20
42.40019599999999
 30
0.0
 42
0.4142135623730898
  0
VERTEX
  5
340
  8
THROUGH_CUT
 10
4.299929500000001
 20
42.200193
 30
0.0
 42
0.4142135623731003
  0
VERTEX
  5
341
  8
THROUGH_CUT
 10
4.4999325
 20
42.00019
 30
0.0
 42
0.4142135623731003
  0
VERTEX
  5
342
  8
THROUGH_CUT
 10
4.699935499999999
 20
42.200193
 30
0.0
 42
0.4142135623730898
  0
SEQEND
  5
343
  8
THROUGH_CUT
  0
POLYLINE
  5
52
  8
THROUGH_CUT
 66
     1
 10
0.0
 20
0.0
 30
0.0
 70
     1
  0
VERTEX
  5
344
  8
THROUGH_CUT
 10
16.4999315
 20
42.40033
 30
0.0
 42
0.4142135623731003
  0
VERTEX
  5
345
  8
THROUGH_CUT
 10
16.2999285
 20
42.200327
 30
0.0
 42
0.4142135623731003
  0
VERTEX
  5
346
  8
THROUGH_CUT
 10
16.4999315
 20
42.000324
 30
0.0
 42
0.4142135623730951
  0
VERTEX
  5
347
  8
THROUGH_CUT
 10
16.6999345
 20
42.200327
 30
0.0
 42
0.4142135623731054
  0
SEQEND
  5
348
  8
THROUGH_CUT
  0
POLYLINE
  5
53
  8
THROUGH_CUT
 66
     1
 10
0.0
 20
0.0
 30
0.0
 70
     1
  0
VERTEX
  5
349
  8
THROUGH_CUT
 10
79.50007049999999
 20
42.40035
 30
0.0
 42
0.4142135623730847
  0
VERTEX
  5
34A
  8
THROUGH_CUT
 10
79.30006749999998
 20
42.200347
 30
0.0
 42
0.4142135623730847
  0
VERTEX
  5
34B
  8
THROUGH_CUT
 10
79.50007049999999
 20
42.000344
 30
0.0
 42
0.4142135623730847
  0
VERTEX
  5
34C
  8
THROUGH_CUT
 10
79.7000735
 20
42.200347
 30
0.0
 42
0.4142135623730847
  0
SEQEND
  5
34D
  8
THROUGH_CUT
  0
POLYLINE
  5
54
  8
THROUGH_CUT
 66
     1
 10
0.0
 20
0.0
 30
0.0
 70
     1
  0
VERTEX
  5
34E
  8
THROUGH_CUT
 10
91.5000695
 20
42.400484
 30
0.0
 42
0.4142135623730951
  0
VERTEX
  5
34F
  8
THROUGH_CUT
 10
91.30006649999999
 20
42.200481
 30
0.0
 42
0.4142135623730847
  0
VERTEX
  5
350
  8
THROUGH_CUT
 10
91.5000695
 20
42.000478
 30
0.0
 42
0.4142135623730847
  0
VERTEX
  5
351
  8
THROUGH_CUT
 10
91.70007249999998
 20
42.200481
 30
0.0
 42
0.4142135623731158
  0
SEQEND
  5
352
  8
THROUGH_CUT
  0
ENDSEC
  0
EOF
