  0
SECTION
  2
HEADER
  9
$ACADVER
  1
AC1009
  9
$DWGCODEPAGE
  3
ansi_1252
  9
$INSBASE
 10
0.0
 20
0.0
 30
0.0
  9
$EXTMIN
 10
3.499742975639904
 20
1.124997000000008
 30
0.0
  9
$EXTMAX
 10
92.50025702436011
 20
46.87500299999999
 30
0.0
  9
$LIMMIN
 10
0.0
 20
0.0
  9
$LIMMAX
 10
12.0
 20
9.0
  9
$ORTHOMODE
 70
     0
  9
$REGENMODE
 70
     1
  9
$FILLMODE
 70
     1
  9
$QTEXTMODE
 70
     0
  9
$MIRRTEXT
 70
     1
  9
$DRAGMODE
 70
     2
  9
$LTSCALE
 40
1.0
  9
$OSMODE
 70
    37
  9
$ATTMODE
 70
     1
  9
$TEXTSIZE
 40
0.2
  9
$TRACEWID
 40
0.05
  9
$TEXTSTYLE
  7
STANDARD
  9
$CLAYER
  8
0
  9
$CELTYPE
  6
BYLAYER
  9
$CECOLOR
 62
   256
  9
$DIMSCALE
 40
1.0
  9
$DIMASZ
 40
0.18
  9
$DIMEXO
 40
0.0625
  9
$DIMDLI
 40
0.38
  9
$DIMRND
 40
0.0
  9
$DIMDLE
 40
0.0
  9
$DIMEXE
 40
0.18
  9
$DIMTP
 40
0.0
  9
$DIMTM
 40
0.0
  9
$DIMTXT
 40
0.18
  9
$DIMCEN
 40
0.09
  9
$DIMTSZ
 40
0.0
  9
$DIMTOL
 70
     0
  9
$DIMLIM
 70
     0
  9
$DIMTIH
 70
     1
  9
$DIMTOH
 70
     1
  9
$DIMSE1
 70
     0
  9
$DIMSE2
 70
     0
  9
$DIMTAD
 70
     0
  9
$DIMZIN
 70
     0
  9
$DIMBLK
  1

  9
$DIMASO
 70
     1
  9
$DIMSHO
 70
     1
  9
$DIMPOST
  1

  9
$DIMAPOST
  1

  9
$DIMALT
 70
     0
  9
$DIMALTD
 70
     2
  9
$DIMALTF
 40
25.4
  9
$DIMLFAC
 40
1.0
  9
$DIMTOFL
 70
     0
  9
$DIMTVP
 40
0.0
  9
$DIMTIX
 70
     0
  9
$DIMSOXD
 70
     0
  9
$DIMSAH
 70
     0
  9
$DIMBLK1
  1

  9
$DIMBLK2
  1

  9
$DIMSTYLE
  2
STANDARD
  9
$DIMCLRD
 70
     0
  9
$DIMCLRE
 70
     0
  9
$DIMCLRT
 70
     0
  9
$DIMTFAC
 40
1.0
  9
$DIMGAP
 40
0.09
  9
$LUNITS
 70
     2
  9
$LUPREC
 70
     4
  9
$SKETCHINC
 40
0.1
  9
$FILLETRAD
 40
0.5
  9
$AUNITS
 70
     0
  9
$AUPREC
 70
     0
  9
$MENU
  1
.
  9
$ELEVATION
 40
0.0
  9
$PELEVATION
 40
0.0
  9
$THICKNESS
 40
0.0
  9
$LIMCHECK
 70
     0
  9
$CHAMFERA
 40
0.5
  9
$CHAMFERB
 40
0.5
  9
$SKPOLY
 70
     0
  9
$TDCREATE
 40
2454910.5
  9
$TDUPDATE
 40
2455901.447217639
  9
$TDINDWG
 40
0.0000000116
  9
$TDUSRTIMER
 40
0.0000000116
  9
$USRTIMER
 70
     1
  9
$ANGBASE
 50
0.0
  9
$ANGDIR
 70
     0
  9
$PDMODE
 70
     0
  9
$PDSIZE
 40
0.0
  9
$PLINEWID
 40
0.0
  9
$COORDS
 70
     1
  9
$SPLFRAME
 70
     0
  9
$SPLINETYPE
 70
     6
  9
$SPLINESEGS
 70
     8
  9
$ATTDIA
 70
     0
  9
$ATTREQ
 70
     1
  9
$HANDLING
 70
     1
  9
$HANDSEED
  5
79E
  9
$SURFTAB1
 70
     6
  9
$SURFTAB2
 70
     6
  9
$SURFTYPE
 70
     6
  9
$SURFU
 70
     6
  9
$SURFV
 70
     6
  9
$UCSNAME
  2

  9
$UCSORG
 10
0.0
 20
0.0
 30
0.0
  9
$UCSXDIR
 10
1.0
 20
0.0
 30
0.0
  9
$UCSYDIR
 10
0.0
 20
1.0
 30
0.0
  9
$PUCSNAME
  2

  9
$PUCSORG
 10
0.0
 20
0.0
 30
0.0
  9
$PUCSXDIR
 10
1.0
 20
0.0
 30
0.0
  9
$PUCSYDIR
 10
0.0
 20
1.0
 30
0.0
  9
$USERI1
 70
     0
  9
$USERI2
 70
     0
  9
$USERI3
 70
     0
  9
$USERI4
 70
     0
  9
$USERI5
 70
     0
  9
$USERR1
 40
0.0
  9
$USERR2
 40
0.0
  9
$USERR3
 40
0.0
  9
$USERR4
 40
0.0
  9
$USERR5
 40
0.0
  9
$WORLDVIEW
 70
     1
  9
$SHADEDGE
 70
     3
  9
$SHADEDIF
 70
    70
  9
$TILEMODE
 70
     1
  9
$MAXACTVP
 70
    64
  9
$PLIMCHECK
 70
     0
  9
$PEXTMIN
 10
1.000000000000000E+20
 20
1.000000000000000E+20
 30
1.000000000000000E+20
  9
$PEXTMAX
 10
-1.000000000000000E+20
 20
-1.000000000000000E+20
 30
-1.000000000000000E+20
  9
$PLIMMIN
 10
0.0
 20
0.0
  9
$PLIMMAX
 10
12.0
 20
9.0
  9
$UNITMODE
 70
     0
  9
$VISRETAIN
 70
     1
  9
$PLINEGEN
 70
     0
  9
$PSLTSCALE
 70
     1
  0
ENDSEC
  0
SECTION
  2
TABLES
  0
TABLE
  2
VPORT
 70
     1
  0
VPORT
  2
*ACTIVE
 70
     0
 10
0.0
 20
0.0
 11
1.0
 21
1.0
 12
10.42990654205607
 22
4.5
 13
0.0
 23
0.0
 14
0.5
 24
0.5
 15
0.5
 25
0.5
 16
0.0
 26
0.0
 36
1.0
 17
0.0
 27
0.0
 37
0.0
 40
9.0
 41
1.972972972850329
 42
50.0
 43
0.0
 44
0.0
 50
0.0
 51
0.0
 71
     0
 72
   100
 73
     1
 74
     3
 75
     0
 76
     0
 77
     0
 78
     0
  0
ENDTAB
  0
TABLE
  2
LTYPE
 70
     2
  0
LTYPE
  2
CONTINUOUS
 70
     0
  3
Solid line
 72
    65
 73
     0
 40
0.0
  0
LTYPE
  2
CONTINUOUS2
 70
     0
  3
Solid Line
 72
    65
 73
     0
 40
0.0
  0
ENDTAB
  0
TABLE
  2
LAYER
 70
     4
  0
LAYER
  2
0
 70
     0
 62
     7
  6
CONTINUOUS
  0
LAYER
  2
THROUGH_CUT
 70
     0
 62
    18
  6
CONTINUOUS
  0
LAYER
  2
CUT_HALFWAY_THROUGH
 70
     0
 62
     1
  6
CONTINUOUS
  0
LAYER
  2
MARKS_IN_POCKET
 70
     0
 62
     3
  6
CONTINUOUS
  0
ENDTAB
  0
TABLE
  2
STYLE
 70
     1
  0
STYLE
  2
STANDARD
 70
     0
 40
0.0
 41
1.0
 50
0.0
 71
     0
 42
0.2
  3
txt
  4

  0
ENDTAB
  0
TABLE
  2
VIEW
 70
     0
  0
ENDTAB
  0
TABLE
  2
UCS
 70
     0
  0
ENDTAB
  0
TABLE
  2
APPID
 70
     1
  0
APPID
  2
ACAD
 70
     0
  0
ENDTAB
  0
TABLE
  2
DIMSTYLE
 70
     1
  0
DIMSTYLE
  2
STANDARD
 70
     0
  3

  4

  5

  6

  7

 40
1.0
 41
0.18
 42
0.0625
 43
0.38
 44
0.18
 45
0.0
 46
0.0
 47
0.0
 48
0.0
140
0.18
141
0.09
142
0.0
143
25.4
144
1.0
145
0.0
146
1.0
147
0.09
 71
     0
 72
     0
 73
     1
 74
     1
 75
     0
 76
     0
 77
     0
 78
     0
170
     0
171
     2
172
     0
173
     0
174
     0
175
     0
176
     0
177
     0
178
     0
  0
ENDTAB
  0
ENDSEC
  0
SECTION
  2
BLOCKS
  0
BLOCK
  8
0
  2
$MODEL_SPACE
 70
     0
 10
0.0
 20
0.0
 30
0.0
  3
$MODEL_SPACE
  1

  0
ENDBLK
  5
21
  8
0
  0
BLOCK
 67
     1
  8
0
  2
$PAPER_SPACE
 70
     0
 10
0.0
 20
0.0
 30
0.0
  3
$PAPER_SPACE
  1

  0
ENDBLK
  5
1D
 67
     1
  8
0
  0
ENDSEC
  0
SECTION
  2
ENTITIES
  0
POLYLINE
  5
41
  8
THROUGH_CUT
 66
     1
 10
0.0
 20
0.0
 30
0.0
 70
     1
  0
VERTEX
  5
6C
  8
THROUGH_CUT
 10
78.77962297563991
 20
4.824954000000005
 30
0.0
 42
0.4142135623730132
  0
VERTEX
  5
6D
  8
THROUGH_CUT
 10
78.57962297563991
 20
4.624954000000002
 30
0.0
 42
0.4142135623730938
  0
VERTEX
  5
6E
  8
THROUGH_CUT
 10
78.77962297563991
 20
4.424954
 30
0.0
 42
0.4142135623730938
  0
VERTEX
  5
6F
  8
THROUGH_CUT
 10
78.97962297563991
 20
4.624954000000002
 30
0.0
 42
0.4142135623730132
  0
SEQEND
  5
70
  8
THROUGH_CUT
  0
POLYLINE
  5
42
  8
THROUGH_CUT
 66
     1
 10
0.0
 20
0.0
 30
0.0
 70
     1
  0
VERTEX
  5
71
  8
THROUGH_CUT
 10
90.77962297563991
 20
4.824954000000005
 30
0.0
 42
0.4142135623730132
  0
VERTEX
  5
72
  8
THROUGH_CUT
 10
90.57962297563991
 20
4.624954000000002
 30
0.0
 42
0.4142135623730938
  0
VERTEX
  5
73
  8
THROUGH_CUT
 10
90.77962297563991
 20
4.424954
 30
0.0
 42
0.4142135623730938
  0
VERTEX
  5
74
  8
THROUGH_CUT
 10
90.97962297563991
 20
4.624954000000002
 30
0.0
 42
0.4142135623730132
  0
SEQEND
  5
75
  8
THROUGH_CUT
  0
POLYLINE
  5
43
  8
THROUGH_CUT
 66
     1
 10
0.0
 20
0.0
 30
0.0
 70
     1
  0
VERTEX
  5
76
  8
THROUGH_CUT
 10
78.77962297563991
 20
12.574955
 30
0.0
 42
0.4142135623730951
  0
VERTEX
  5
77
  8
THROUGH_CUT
 10
78.57962297563991
 20
12.374955
 30
0.0
 42
0.4142135623730951
  0
VERTEX
  5
78
  8
THROUGH_CUT
 10
78.77962297563991
 20
12.174955
 30
0.0
 42
0.4142135623730951
  0
VERTEX
  5
79
  8
THROUGH_CUT
 10
78.97962297563991
 20
12.374955
 30
0.0
 42
0.4142135623730951
  0
SEQEND
  5
7A
  8
THROUGH_CUT
  0
POLYLINE
  5
44
  8
THROUGH_CUT
 66
     1
 10
0.0
 20
0.0
 30
0.0
 70
     1
  0
VERTEX
  5
7B
  8
THROUGH_CUT
 10
90.77962297563991
 20
12.574955
 30
0.0
 42
0.4142135623730951
  0
VERTEX
  5
7C
  8
THROUGH_CUT
 10
90.57962297563991
 20
12.374955
 30
0.0
 42
0.4142135623730951
  0
VERTEX
  5
7D
  8
THROUGH_CUT
 10
90.77962297563991
 20
12.174955
 30
0.0
 42
0.4142135623730951
  0
VERTEX
  5
7E
  8
THROUGH_CUT
 10
90.97962297563991
 20
12.374955
 30
0.0
 42
0.4142135623730951
  0
SEQEND
  5
7F
  8
THROUGH_CUT
  0
POLYLINE
  5
45
  8
THROUGH_CUT
 66
     1
 10
0.0
 20
0.0
 30
0.0
 70
     1
  0
VERTEX
  5
80
  8
THROUGH_CUT
 10
78.77962297563991
 20
20.324956
 30
0.0
 42
0.4142135623730898
  0
VERTEX
  5
81
  8
THROUGH_CUT
 10
78.57962297563991
 20
20.124956
 30
0.0
 42
0.4142135623730223
  0
VERTEX
  5
82
  8
THROUGH_CUT
 10
78.77962297563991
 20
19.92495599999999
 30
0.0
 42
0.4142135623730223
  0
VERTEX
  5
83
  8
THROUGH_CUT
 10
78.97962297563991
 20
20.124956
 30
0.0
 42
0.4142135623730898
  0
SEQEND
  5
84
  8
THROUGH_CUT
  0
POLYLINE
  5
46
  8
THROUGH_CUT
 66
     1
 10
0.0
 20
0.0
 30
0.0
 70
     1
  0
VERTEX
  5
85
  8
THROUGH_CUT
 10
90.77962297563991
 20
20.324956
 30
0.0
 42
0.4142135623730898
  0
VERTEX
  5
86
  8
THROUGH_CUT
 10
90.57962297563991
 20
20.124956
 30
0.0
 42
0.4142135623730223
  0
VERTEX
  5
87
  8
THROUGH_CUT
 10
90.77962297563991
 20
19.92495599999999
 30
0.0
 42
0.4142135623730223
  0
VERTEX
  5
88
  8
THROUGH_CUT
 10
90.97962297563991
 20
20.124956
 30
0.0
 42
0.4142135623730898
  0
SEQEND
  5
89
  8
THROUGH_CUT
  0
POLYLINE
  5
47
  8
THROUGH_CUT
 66
     1
 10
0.0
 20
0.0
 30
0.0
 70
     1
  0
VERTEX
  5
8A
  8
THROUGH_CUT
 10
78.77962297563991
 20
28.074957
 30
0.0
 42
0.4142135623730223
  0
VERTEX
  5
8B
  8
THROUGH_CUT
 10
78.57962297563991
 20
27.87495699999999
 30
0.0
 42
0.4142135623730951
  0
VERTEX
  5
8C
  8
THROUGH_CUT
 10
78.77962297563991
 20
27.67495699999999
 30
0.0
 42
0.4142135623730951
  0
VERTEX
  5
8D
  8
THROUGH_CUT
 10
78.97962297563991
 20
27.87495699999999
 30
0.0
 42
0.4142135623730223
  0
SEQEND
  5
8E
  8
THROUGH_CUT
  0
POLYLINE
  5
48
  8
THROUGH_CUT
 66
     1
 10
0.0
 20
0.0
 30
0.0
 70
     1
  0
VERTEX
  5
8F
  8
THROUGH_CUT
 10
90.77962297563991
 20
28.074957
 30
0.0
 42
0.4142135623730223
  0
VERTEX
  5
90
  8
THROUGH_CUT
 10
90.57962297563991
 20
27.87495699999999
 30
0.0
 42
0.4142135623730951
  0
VERTEX
  5
91
  8
THROUGH_CUT
 10
90.77962297563991
 20
27.67495699999999
 30
0.0
 42
0.4142135623730951
  0
VERTEX
  5
92
  8
THROUGH_CUT
 10
90.97962297563991
 20
27.87495699999999
 30
0.0
 42
0.4142135623730223
  0
SEQEND
  5
93
  8
THROUGH_CUT
  0
POLYLINE
  5
49
  8
THROUGH_CUT
 66
     1
 10
0.0
 20
0.0
 30
0.0
 70
     1
  0
VERTEX
  5
94
  8
THROUGH_CUT
 10
78.77962297563991
 20
35.824958
 30
0.0
 42
0.4142135623730223
  0
VERTEX
  5
95
  8
THROUGH_CUT
 10
78.57962297563991
 20
35.62495799999999
 30
0.0
 42
0.4142135623730951
  0
VERTEX
  5
96
  8
THROUGH_CUT
 10
78.77962297563991
 20
35.42495799999999
 30
0.0
 42
0.4142135623730951
  0
VERTEX
  5
97
  8
THROUGH_CUT
 10
78.97962297563991
 20
35.62495799999999
 30
0.0
 42
0.4142135623730223
  0
SEQEND
  5
98
  8
THROUGH_CUT
  0
POLYLINE
  5
4A
  8
THROUGH_CUT
 66
     1
 10
0.0
 20
0.0
 30
0.0
 70
     1
  0
VERTEX
  5
99
  8
THROUGH_CUT
 10
90.77962297563991
 20
35.824958
 30
0.0
 42
0.4142135623730223
  0
VERTEX
  5
9A
  8
THROUGH_CUT
 10
90.57962297563991
 20
35.62495799999999
 30
0.0
 42
0.4142135623730951
  0
VERTEX
  5
9B
  8
THROUGH_CUT
 10
90.77962297563991
 20
35.42495799999999
 30
0.0
 42
0.4142135623730951
  0
VERTEX
  5
9C
  8
THROUGH_CUT
 10
90.97962297563991
 20
35.62495799999999
 30
0.0
 42
0.4142135623730223
  0
SEQEND
  5
9D
  8
THROUGH_CUT
  0
POLYLINE
  5
4B
  8
THROUGH_CUT
 66
     1
 10
0.0
 20
0.0
 30
0.0
 70
     1
  0
VERTEX
  5
9E
  8
THROUGH_CUT
 10
78.77962297563991
 20
43.57495899999999
 30
0.0
 42
0.4142135623730951
  0
VERTEX
  5
9F
  8
THROUGH_CUT
 10
78.57962297563991
 20
43.37495899999999
 30
0.0
 42
0.4142135623730951
  0
VERTEX
  5
A0
  8
THROUGH_CUT
 10
78.77962297563991
 20
43.17495899999999
 30
0.0
 42
0.4142135623730951
  0
VERTEX
  5
A1
  8
THROUGH_CUT
 10
78.97962297563991
 20
43.37495899999999
 30
0.0
 42
0.4142135623730951
  0
SEQEND
  5
A2
  8
THROUGH_CUT
  0
POLYLINE
  5
4C
  8
THROUGH_CUT
 66
     1
 10
0.0
 20
0.0
 30
0.0
 70
     1
  0
VERTEX
  5
A3
  8
THROUGH_CUT
 10
90.77962297563991
 20
43.57495899999999
 30
0.0
 42
0.4142135623730951
  0
VERTEX
  5
A4
  8
THROUGH_CUT
 10
90.57962297563991
 20
43.37495899999999
 30
0.0
 42
0.4142135623730951
  0
VERTEX
  5
A5
  8
THROUGH_CUT
 10
90.77962297563991
 20
43.17495899999999
 30
0.0
 42
0.4142135623730951
  0
VERTEX
  5
A6
  8
THROUGH_CUT
 10
90.97962297563991
 20
43.37495899999999
 30
0.0
 42
0.4142135623730951
  0
SEQEND
  5
A7
  8
THROUGH_CUT
  0
POLYLINE
  5
4D
  8
THROUGH_CUT
 66
     1
 10
0.0
 20
0.0
 30
0.0
 70
     1
  0
VERTEX
  5
A8
  8
THROUGH_CUT
 10
4.452833975639905
 20
4.495417000000003
 30
0.0
 42
0.9614812579400739
  0
VERTEX
  5
A9
  8
THROUGH_CUT
 10
4.540919490576816
 20
3.751200678936018
 30
0.0
 42
0.9614804590529976
  0
VERTEX
  5
AA
  8
THROUGH_CUT
 10
4.511496975639901
 20
4.500034000000014
 30
0.0
 42
0.0196379937251857
  0
VERTEX
  5
AB
  8
THROUGH_CUT
 10
4.482075083382933
 20
4.498877980309046
 30
0.0
 42
0.0196375784392631
  0
SEQEND
  5
AC
  8
THROUGH_CUT
  0
POLYLINE
  5
4E
  8
THROUGH_CUT
 66
     1
 10
0.0
 20
0.0
 30
0.0
 70
     1
  0
VERTEX
  5
AD
  8
THROUGH_CUT
 10
4.452833975639905
 20
12.245418
 30
0.0
 42
0.9614812579400747
  0
VERTEX
  5
AE
  8
THROUGH_CUT
 10
4.540919490576811
 20
11.50120167893588
 30
0.0
 42
0.9614804590530116
  0
VERTEX
  5
AF
  8
THROUGH_CUT
 10
4.511496975639901
 20
12.25003500000001
 30
0.0
 42
0.0196379937252123
  0
VERTEX
  5
B0
  8
THROUGH_CUT
 10
4.482075083382927
 20
12.24887898030904
 30
0.0
 42
0.0196375784392367
  0
SEQEND
  5
B1
  8
THROUGH_CUT
  0
POLYLINE
  5
4F
  8
THROUGH_CUT
 66
     1
 10
0.0
 20
0.0
 30
0.0
 70
     1
  0
VERTEX
  5
B2
  8
THROUGH_CUT
 10
4.452833975639905
 20
19.995419
 30
0.0
 42
0.9614812579400935
  0
VERTEX
  5
B3
  8
THROUGH_CUT
 10
4.540919490576822
 20
19.25120267893588
 30
0.0
 42
0.9614804590529972
  0
VERTEX
  5
B4
  8
THROUGH_CUT
 10
4.511496975639901
 20
20.00003600000001
 30
0.0
 42
0.0196379937251006
  0
VERTEX
  5
B5
  8
THROUGH_CUT
 10
4.482075083382939
 20
19.99887998030904
 30
0.0
 42
0.0196375784391726
  0
SEQEND
  5
B6
  8
THROUGH_CUT
  0
POLYLINE
  5
50
  8
THROUGH_CUT
 66
     1
 10
0.0
 20
0.0
 30
0.0
 70
     1
  0
VERTEX
  5
B7
  8
THROUGH_CUT
 10
4.452833975639905
 20
27.74542
 30
0.0
 42
0.9614812579400447
  0
VERTEX
  5
B8
  8
THROUGH_CUT
 10
4.540919490576806
 20
27.0012036789363
 30
0.0
 42
0.9614804590529965
  0
VERTEX
  5
B9
  8
THROUGH_CUT
 10
4.511496975639901
 20
27.75003700000001
 30
0.0
 42
0.0196379937250882
  0
VERTEX
  5
BA
  8
THROUGH_CUT
 10
4.482075083382922
 20
27.74888098030904
 30
0.0
 42
0.0196375784394198
  0
SEQEND
  5
BB
  8
THROUGH_CUT
  0
POLYLINE
  5
51
  8
THROUGH_CUT
 66
     1
 10
0.0
 20
0.0
 30
0.0
 70
     1
  0
VERTEX
  5
BC
  8
THROUGH_CUT
 10
4.452833975639905
 20
35.49542099999999
 30
0.0
 42
0.9614812579400831
  0
VERTEX
  5
BD
  8
THROUGH_CUT
 10
4.540919490576817
 20
34.75120467893601
 30
0.0
 42
0.9614804590529975
  0
VERTEX
  5
BE
  8
THROUGH_CUT
 10
4.511496975639901
 20
35.500038
 30
0.0
 42
0.0196379937250947
  0
VERTEX
  5
BF
  8
THROUGH_CUT
 10
4.482075083382933
 20
35.49888198030904
 30
0.0
 42
0.019637578439169
  0
SEQEND
  5
C0
  8
THROUGH_CUT
  0
POLYLINE
  5
52
  8
THROUGH_CUT
 66
     1
 10
0.0
 20
0.0
 30
0.0
 70
     1
  0
VERTEX
  5
C1
  8
THROUGH_CUT
 10
4.452833975639905
 20
43.24542199999999
 30
0.0
 42
0.9614812579400831
  0
VERTEX
  5
C2
  8
THROUGH_CUT
 10
4.540919490576817
 20
42.501205678936
 30
0.0
 42
0.9614804590529975
  0
VERTEX
  5
C3
  8
THROUGH_CUT
 10
4.511496975639901
 20
43.250039
 30
0.0
 42
0.0196379937250947
  0
VERTEX
  5
C4
  8
THROUGH_CUT
 10
4.482075083382933
 20
43.24888298030903
 30
0.0
 42
0.019637578439169
  0
SEQEND
  5
C5
  8
THROUGH_CUT
  0
POLYLINE
  5
53
  8
THROUGH_CUT
 66
     1
 10
0.0
 20
0.0
 30
0.0
 70
     1
  0
VERTEX
  5
C6
  8
THROUGH_CUT
 10
73.40462097563992
 20
46.87500299999999
 30
0.0
  0
VERTEX
  5
C7
  8
THROUGH_CUT
 10
52.1546209756399
 20
46.87500299999999
 30
0.0
  0
VERTEX
  5
C8
  8
THROUGH_CUT
 10
52.1546209756399
 20
43.275003
 30
0.0
  0
VERTEX
  5
C9
  8
THROUGH_CUT
 10
52.18753997563991
 20
43.27227499999999
 30
0.0
  0
VERTEX
  5
CA
  8
THROUGH_CUT
 10
52.21956097563991
 20
43.26416599999999
 30
0.0
  0
VERTEX
  5
CB
  8
THROUGH_CUT
 10
52.24980997563991
 20
43.25089799999999
 30
0.0
  0
VERTEX
  5
CC
  8
THROUGH_CUT
 10
52.27746297563991
 20
43.23283099999999
 30
0.0
  0
VERTEX
  5
CD
  8
THROUGH_CUT
 10
52.30176597563991
 20
43.210459
 30
0.0
  0
VERTEX
  5
CE
  8
THROUGH_CUT
 10
52.32205397563992
 20
43.18439199999999
 30
0.0
  0
VERTEX
  5
CF
  8
THROUGH_CUT
 10
52.3377759756399
 20
43.15534199999999
 30
0.0
  0
VERTEX
  5
D0
  8
THROUGH_CUT
 10
52.34850097563991
 20
43.1241
 30
0.0
  0
VERTEX
  5
D1
  8
THROUGH_CUT
 10
52.35393797563991
 20
43.09151899999999
 30
0.0
  0
VERTEX
  5
D2
  8
THROUGH_CUT
 10
52.35393797563991
 20
43.058487
 30
0.0
  0
VERTEX
  5
D3
  8
THROUGH_CUT
 10
52.34850097563991
 20
43.02590599999999
 30
0.0
  0
VERTEX
  5
D4
  8
THROUGH_CUT
 10
52.3377759756399
 20
42.994664
 30
0.0
  0
VERTEX
  5
D5
  8
THROUGH_CUT
 10
52.32205397563992
 20
42.96561299999999
 30
0.0
  0
VERTEX
  5
D6
  8
THROUGH_CUT
 10
52.30176597563991
 20
42.93954599999999
 30
0.0
  0
VERTEX
  5
D7
  8
THROUGH_CUT
 10
52.27746297563991
 20
42.917175
 30
0.0
  0
VERTEX
  5
D8
  8
THROUGH_CUT
 10
52.24980997563991
 20
42.899108
 30
0.0
  0
VERTEX
  5
D9
  8
THROUGH_CUT
 10
52.21956097563991
 20
42.88583899999999
 30
0.0
  0
VERTEX
  5
DA
  8
THROUGH_CUT
 10
52.18753997563991
 20
42.877731
 30
0.0
  0
VERTEX
  5
DB
  8
THROUGH_CUT
 10
52.1546209756399
 20
42.87500299999999
 30
0.0
  0
VERTEX
  5
DC
  8
THROUGH_CUT
 10
51.4046209756399
 20
42.87500299999999
 30
0.0
  0
VERTEX
  5
DD
  8
THROUGH_CUT
 10
51.37170197563991
 20
42.877731
 30
0.0
  0
VERTEX
  5
DE
  8
THROUGH_CUT
 10
51.33968097563991
 20
42.88583899999999
 30
0.0
  0
VERTEX
  5
DF
  8
THROUGH_CUT
 10
51.3094309756399
 20
42.899108
 30
0.0
  0
VERTEX
  5
E0
  8
THROUGH_CUT
 10
51.28177797563991
 20
42.917175
 30
0.0
  0
VERTEX
  5
E1
  8
THROUGH_CUT
 10
51.25747597563991
 20
42.93954599999999
 30
0.0
  0
VERTEX
  5
E2
  8
THROUGH_CUT
 10
51.23718797563991
 20
42.96561299999999
 30
0.0
  0
VERTEX
  5
E3
  8
THROUGH_CUT
 10
51.2214659756399
 20
42.994664
 30
0.0
  0
VERTEX
  5
E4
  8
THROUGH_CUT
 10
51.21074097563991
 20
43.02590599999999
 30
0.0
  0
VERTEX
  5
E5
  8
THROUGH_CUT
 10
51.20530397563991
 20
43.058487
 30
0.0
  0
VERTEX
  5
E6
  8
THROUGH_CUT
 10
51.20530397563991
 20
43.09151899999999
 30
0.0
  0
VERTEX
  5
E7
  8
THROUGH_CUT
 10
51.21074097563991
 20
43.1241
 30
0.0
  0
VERTEX
  5
E8
  8
THROUGH_CUT
 10
51.2214659756399
 20
43.15534199999999
 30
0.0
  0
VERTEX
  5
E9
  8
THROUGH_CUT
 10
51.23718797563991
 20
43.18439199999999
 30
0.0
  0
VERTEX
  5
EA
  8
THROUGH_CUT
 10
51.25747597563991
 20
43.210459
 30
0.0
  0
VERTEX
  5
EB
  8
THROUGH_CUT
 10
51.28177797563991
 20
43.23283099999999
 30
0.0
  0
VERTEX
  5
EC
  8
THROUGH_CUT
 10
51.3094309756399
 20
43.25089799999999
 30
0.0
  0
VERTEX
  5
ED
  8
THROUGH_CUT
 10
51.33968097563991
 20
43.26416599999999
 30
0.0
  0
VERTEX
  5
EE
  8
THROUGH_CUT
 10
51.37170197563991
 20
43.27227499999999
 30
0.0
  0
VERTEX
  5
EF
  8
THROUGH_CUT
 10
51.4046209756399
 20
43.275003
 30
0.0
  0
VERTEX
  5
F0
  8
THROUGH_CUT
 10
51.4046209756399
 20
46.87500299999999
 30
0.0
  0
VERTEX
  5
F1
  8
THROUGH_CUT
 10
30.1546209756399
 20
46.87500299999999
 30
0.0
  0
VERTEX
  5
F2
  8
THROUGH_CUT
 10
30.1546209756399
 20
43.275003
 30
0.0
  0
VERTEX
  5
F3
  8
THROUGH_CUT
 10
30.18753997563989
 20
43.27227499999999
 30
0.0
  0
VERTEX
  5
F4
  8
THROUGH_CUT
 10
30.21956097563991
 20
43.26416599999999
 30
0.0
  0
VERTEX
  5
F5
  8
THROUGH_CUT
 10
30.24980997563991
 20
43.25089799999999
 30
0.0
  0
VERTEX
  5
F6
  8
THROUGH_CUT
 10
30.27746297563992
 20
43.23283099999999
 30
0.0
  0
VERTEX
  5
F7
  8
THROUGH_CUT
 10
30.30176597563992
 20
43.210459
 30
0.0
  0
VERTEX
  5
F8
  8
THROUGH_CUT
 10
30.32205397563992
 20
43.18439199999999
 30
0.0
  0
VERTEX
  5
F9
  8
THROUGH_CUT
 10
30.3377759756399
 20
43.15534199999999
 30
0.0
  0
VERTEX
  5
FA
  8
THROUGH_CUT
 10
30.34850097563991
 20
43.1241
 30
0.0
  0
VERTEX
  5
FB
  8
THROUGH_CUT
 10
30.35393797563991
 20
43.09151899999999
 30
0.0
  0
VERTEX
  5
FC
  8
THROUGH_CUT
 10
30.35393797563991
 20
43.058487
 30
0.0
  0
VERTEX
  5
FD
  8
THROUGH_CUT
 10
30.34850097563991
 20
43.02590599999999
 30
0.0
  0
VERTEX
  5
FE
  8
THROUGH_CUT
 10
30.3377759756399
 20
42.994664
 30
0.0
  0
VERTEX
  5
FF
  8
THROUGH_CUT
 10
30.32205397563992
 20
42.96561299999999
 30
0.0
  0
VERTEX
  5
100
  8
THROUGH_CUT
 10
30.30176597563992
 20
42.93954599999999
 30
0.0
  0
VERTEX
  5
101
  8
THROUGH_CUT
 10
30.27746297563992
 20
42.917175
 30
0.0
  0
VERTEX
  5
102
  8
THROUGH_CUT
 10
30.24980997563991
 20
42.899108
 30
0.0
  0
VERTEX
  5
103
  8
THROUGH_CUT
 10
30.21956097563991
 20
42.88583899999999
 30
0.0
  0
VERTEX
  5
104
  8
THROUGH_CUT
 10
30.18753997563989
 20
42.877731
 30
0.0
  0
VERTEX
  5
105
  8
THROUGH_CUT
 10
30.1546209756399
 20
42.87500299999999
 30
0.0
  0
VERTEX
  5
106
  8
THROUGH_CUT
 10
29.4046209756399
 20
42.87500299999999
 30
0.0
  0
VERTEX
  5
107
  8
THROUGH_CUT
 10
29.37170197563991
 20
42.877731
 30
0.0
  0
VERTEX
  5
108
  8
THROUGH_CUT
 10
29.33968097563992
 20
42.88583899999999
 30
0.0
  0
VERTEX
  5
109
  8
THROUGH_CUT
 10
29.3094309756399
 20
42.899108
 30
0.0
  0
VERTEX
  5
10A
  8
THROUGH_CUT
 10
29.28177797563991
 20
42.917175
 30
0.0
  0
VERTEX
  5
10B
  8
THROUGH_CUT
 10
29.25747597563991
 20
42.93954599999999
 30
0.0
  0
VERTEX
  5
10C
  8
THROUGH_CUT
 10
29.23718797563991
 20
42.96561299999999
 30
0.0
  0
VERTEX
  5
10D
  8
THROUGH_CUT
 10
29.2214659756399
 20
42.994664
 30
0.0
  0
VERTEX
  5
10E
  8
THROUGH_CUT
 10
29.21074097563992
 20
43.02590599999999
 30
0.0
  0
VERTEX
  5
10F
  8
THROUGH_CUT
 10
29.20530397563989
 20
43.058487
 30
0.0
  0
VERTEX
  5
110
  8
THROUGH_CUT
 10
29.20530397563989
 20
43.09151899999999
 30
0.0
  0
VERTEX
  5
111
  8
THROUGH_CUT
 10
29.21074097563992
 20
43.1241
 30
0.0
  0
VERTEX
  5
112
  8
THROUGH_CUT
 10
29.2214659756399
 20
43.15534199999999
 30
0.0
  0
VERTEX
  5
113
  8
THROUGH_CUT
 10
29.23718797563991
 20
43.18439199999999
 30
0.0
  0
VERTEX
  5
114
  8
THROUGH_CUT
 10
29.25747597563991
 20
43.210459
 30
0.0
  0
VERTEX
  5
115
  8
THROUGH_CUT
 10
29.28177797563991
 20
43.23283099999999
 30
0.0
  0
VERTEX
  5
116
  8
THROUGH_CUT
 10
29.3094309756399
 20
43.25089799999999
 30
0.0
  0
VERTEX
  5
117
  8
THROUGH_CUT
 10
29.33968097563992
 20
43.26416599999999
 30
0.0
  0
VERTEX
  5
118
  8
THROUGH_CUT
 10
29.37170197563991
 20
43.27227499999999
 30
0.0
  0
VERTEX
  5
119
  8
THROUGH_CUT
 10
29.4046209756399
 20
43.275003
 30
0.0
  0
VERTEX
  5
11A
  8
THROUGH_CUT
 10
29.4046209756399
 20
46.87500299999999
 30
0.0
  0
VERTEX
  5
11B
  8
THROUGH_CUT
 10
8.1546209756399
 20
46.87500299999999
 30
0.0
  0
VERTEX
  5
11C
  8
THROUGH_CUT
 10
8.1546209756399
 20
43.275003
 30
0.0
  0
VERTEX
  5
11D
  8
THROUGH_CUT
 10
8.187539975639922
 20
43.27227499999999
 30
0.0
  0
VERTEX
  5
11E
  8
THROUGH_CUT
 10
8.219560975639908
 20
43.26416599999999
 30
0.0
  0
VERTEX
  5
11F
  8
THROUGH_CUT
 10
8.249809975639906
 20
43.25089799999999
 30
0.0
  0
VERTEX
  5
120
  8
THROUGH_CUT
 10
8.27746297563992
 20
43.23283099999999
 30
0.0
  0
VERTEX
  5
121
  8
THROUGH_CUT
 10
8.301765975639924
 20
43.210459
 30
0.0
  0
VERTEX
  5
122
  8
THROUGH_CUT
 10
8.322053975639918
 20
43.18439199999999
 30
0.0
  0
VERTEX
  5
123
  8
THROUGH_CUT
 10
8.3377759756399
 20
43.15534199999999
 30
0.0
  0
VERTEX
  5
124
  8
THROUGH_CUT
 10
8.348500975639908
 20
43.1241
 30
0.0
  0
VERTEX
  5
125
  8
THROUGH_CUT
 10
8.353937975639909
 20
43.09151899999999
 30
0.0
  0
VERTEX
  5
126
  8
THROUGH_CUT
 10
8.353937975639909
 20
43.058487
 30
0.0
  0
VERTEX
  5
127
  8
THROUGH_CUT
 10
8.348500975639908
 20
43.02590599999999
 30
0.0
  0
VERTEX
  5
128
  8
THROUGH_CUT
 10
8.3377759756399
 20
42.994664
 30
0.0
  0
VERTEX
  5
129
  8
THROUGH_CUT
 10
8.322053975639918
 20
42.96561299999999
 30
0.0
  0
VERTEX
  5
12A
  8
THROUGH_CUT
 10
8.301765975639924
 20
42.93954599999999
 30
0.0
  0
VERTEX
  5
12B
  8
THROUGH_CUT
 10
8.27746297563992
 20
42.917175
 30
0.0
  0
VERTEX
  5
12C
  8
THROUGH_CUT
 10
8.249809975639906
 20
42.899108
 30
0.0
  0
VERTEX
  5
12D
  8
THROUGH_CUT
 10
8.219560975639908
 20
42.88583899999999
 30
0.0
  0
VERTEX
  5
12E
  8
THROUGH_CUT
 10
8.187539975639922
 20
42.877731
 30
0.0
  0
VERTEX
  5
12F
  8
THROUGH_CUT
 10
8.1546209756399
 20
42.87500299999999
 30
0.0
  0
VERTEX
  5
130
  8
THROUGH_CUT
 10
7.404620975639901
 20
42.87500299999999
 30
0.0
  0
VERTEX
  5
131
  8
THROUGH_CUT
 10
7.371701975639908
 20
42.877731
 30
0.0
  0
VERTEX
  5
132
  8
THROUGH_CUT
 10
7.339680975639922
 20
42.88583899999999
 30
0.0
  0
VERTEX
  5
133
  8
THROUGH_CUT
 10
7.309430975639899
 20
42.899108
 30
0.0
  0
VERTEX
  5
134
  8
THROUGH_CUT
 10
7.281777975639912
 20
42.917175
 30
0.0
  0
VERTEX
  5
135
  8
THROUGH_CUT
 10
7.257475975639906
 20
42.93954599999999
 30
0.0
  0
VERTEX
  5
136
  8
THROUGH_CUT
 10
7.237187975639912
 20
42.96561299999999
 30
0.0
  0
VERTEX
  5
137
  8
THROUGH_CUT
 10
7.221465975639902
 20
42.994664
 30
0.0
  0
VERTEX
  5
138
  8
THROUGH_CUT
 10
7.210740975639922
 20
43.02590599999999
 30
0.0
  0
VERTEX
  5
139
  8
THROUGH_CUT
 10
7.205303975639922
 20
43.058487
 30
0.0
  0
VERTEX
  5
13A
  8
THROUGH_CUT
 10
7.205303975639922
 20
43.09151899999999
 30
0.0
  0
VERTEX
  5
13B
  8
THROUGH_CUT
 10
7.210740975639922
 20
43.1241
 30
0.0
  0
VERTEX
  5
13C
  8
THROUGH_CUT
 10
7.221465975639902
 20
43.15534199999999
 30
0.0
  0
VERTEX
  5
13D
  8
THROUGH_CUT
 10
7.237187975639912
 20
43.18439199999999
 30
0.0
  0
VERTEX
  5
13E
  8
THROUGH_CUT
 10
7.257475975639906
 20
43.210459
 30
0.0
  0
VERTEX
  5
13F
  8
THROUGH_CUT
 10
7.281777975639912
 20
43.23283099999999
 30
0.0
  0
VERTEX
  5
140
  8
THROUGH_CUT
 10
7.309430975639899
 20
43.25089799999999
 30
0.0
  0
VERTEX
  5
141
  8
THROUGH_CUT
 10
7.339680975639922
 20
43.26416599999999
 30
0.0
  0
VERTEX
  5
142
  8
THROUGH_CUT
 10
7.371701975639908
 20
43.27227499999999
 30
0.0
  0
VERTEX
  5
143
  8
THROUGH_CUT
 10
7.404620975639901
 20
43.275003
 30
0.0
  0
VERTEX
  5
144
  8
THROUGH_CUT
 10
7.404620975639901
 20
46.87500299999999
 30
0.0
  0
VERTEX
  5
145
  8
THROUGH_CUT
 10
5.261538975639908
 20
46.87500299999999
 30
0.0
  0
VERTEX
  5
146
  8
THROUGH_CUT
 10
5.261538975639908
 20
45.15784599999999
 30
0.0
  0
VERTEX
  5
147
  8
THROUGH_CUT
 10
5.283947975639919
 20
45.13113999999999
 30
0.0
  0
VERTEX
  5
148
  8
THROUGH_CUT
 10
5.301379975639904
 20
45.10094799999999
 30
0.0
  0
VERTEX
  5
149
  8
THROUGH_CUT
 10
5.3133029756399
 20
45.06818799999999
 30
0.0
  0
VERTEX
  5
14A
  8
THROUGH_CUT
 10
5.319356975639906
 20
45.033856
 30
0.0
  0
VERTEX
  5
14B
  8
THROUGH_CUT
 10
5.319356975639906
 20
44.998994
 30
0.0
  0
VERTEX
  5
14C
  8
THROUGH_CUT
 10
5.3133029756399
 20
44.96466099999999
 30
0.0
  0
VERTEX
  5
14D
  8
THROUGH_CUT
 10
5.301379975639904
 20
44.931901
 30
0.0
  0
VERTEX
  5
14E
  8
THROUGH_CUT
 10
5.283948975639916
 20
44.901709
 30
0.0
  0
VERTEX
  5
14F
  8
THROUGH_CUT
 10
5.261539975639906
 20
44.87500299999999
 30
0.0
  0
VERTEX
  5
150
  8
THROUGH_CUT
 10
5.234833975639916
 20
44.852594
 30
0.0
  0
VERTEX
  5
151
  8
THROUGH_CUT
 10
5.204641975639916
 20
44.83516299999999
 30
0.0
  0
VERTEX
  5
152
  8
THROUGH_CUT
 10
5.17188197563992
 20
44.823239
 30
0.0
  0
VERTEX
  5
153
  8
THROUGH_CUT
 10
5.137549975639914
 20
44.81718599999999
 30
0.0
  0
VERTEX
  5
154
  8
THROUGH_CUT
 10
5.102686975639912
 20
44.81718499999999
 30
0.0
  0
VERTEX
  5
155
  8
THROUGH_CUT
 10
5.068354975639906
 20
44.823239
 30
0.0
  0
VERTEX
  5
156
  8
THROUGH_CUT
 10
5.03559497563991
 20
44.83516299999999
 30
0.0
  0
VERTEX
  5
157
  8
THROUGH_CUT
 10
5.00540297563991
 20
44.852594
 30
0.0
  0
VERTEX
  5
158
  8
THROUGH_CUT
 10
4.97869697563992
 20
44.87500299999999
 30
0.0
  0
VERTEX
  5
159
  8
THROUGH_CUT
 10
3.999742975639904
 20
44.87500299999999
 30
0.0
 42
0.4142135623731007
  0
VERTEX
  5
15A
  8
THROUGH_CUT
 10
3.499742975639904
 20
44.37500299999999
 30
0.0
  0
VERTEX
  5
15B
  8
THROUGH_CUT
 10
3.499742975639904
 20
41.37500299999999
 30
0.0
 42
0.4142135623731007
  0
VERTEX
  5
15C
  8
THROUGH_CUT
 10
3.999742975639904
 20
40.87500299999999
 30
0.0
  0
VERTEX
  5
15D
  8
THROUGH_CUT
 10
4.97869697563992
 20
40.87500299999999
 30
0.0
  0
VERTEX
  5
15E
  8
THROUGH_CUT
 10
5.003902975639917
 20
40.896351
 30
0.0
  0
VERTEX
  5
15F
  8
THROUGH_CUT
 10
5.032278975639898
 20
40.91325999999999
 30
0.0
  0
VERTEX
  5
160
  8
THROUGH_CUT
 10
5.063050975639911
 20
40.92526699999999
 30
0.0
  0
VERTEX
  5
161
  8
THROUGH_CUT
 10
5.095379975639915
 20
40.93204499999999
 30
0.0
  0
VERTEX
  5
162
  8
THROUGH_CUT
 10
5.12838397563992
 20
40.93340999999999
 30
0.0
  0
VERTEX
  5
163
  8
THROUGH_CUT
 10
5.161161975639899
 20
40.92932399999999
 30
0.0
  0
VERTEX
  5
164
  8
THROUGH_CUT
 10
5.192819975639921
 20
40.919899
 30
0.0
  0
VERTEX
  5
165
  8
THROUGH_CUT
 10
5.222495975639916
 20
40.90539199999999
 30
0.0
  0
VERTEX
  5
166
  8
THROUGH_CUT
 10
5.249377975639916
 20
40.88619799999999
 30
0.0
  0
VERTEX
  5
167
  8
THROUGH_CUT
 10
5.272734975639921
 20
40.86284099999999
 30
0.0
  0
VERTEX
  5
168
  8
THROUGH_CUT
 10
5.291928975639919
 20
40.83595799999999
 30
0.0
  0
VERTEX
  5
169
  8
THROUGH_CUT
 10
5.3064359756399
 20
40.806282
 30
0.0
  0
VERTEX
  5
16A
  8
THROUGH_CUT
 10
5.315861975639919
 20
40.77462399999999
 30
0.0
  0
VERTEX
  5
16B
  8
THROUGH_CUT
 10
5.319946975639922
 20
40.741846
 30
0.0
  0
VERTEX
  5
16C
  8
THROUGH_CUT
 10
5.318581975639901
 20
40.70884199999999
 30
0.0
  0
VERTEX
  5
16D
  8
THROUGH_CUT
 10
5.311803975639904
 20
40.676514
 30
0.0
  0
VERTEX
  5
16E
  8
THROUGH_CUT
 10
5.299795975639896
 20
40.645742
 30
0.0
  0
VERTEX
  5
16F
  8
THROUGH_CUT
 10
5.282887975639895
 20
40.61736599999999
 30
0.0
  0
VERTEX
  5
170
  8
THROUGH_CUT
 10
5.261538975639908
 20
40.59215999999999
 30
0.0
  0
VERTEX
  5
171
  8
THROUGH_CUT
 10
5.261538975639908
 20
39.87500299999999
 30
0.0
  0
VERTEX
  5
172
  8
THROUGH_CUT
 10
84.77962097563992
 20
39.87500199999999
 30
0.0
  0
VERTEX
  5
173
  8
THROUGH_CUT
 10
91.44462911488901
 20
41.94229312227364
 30
0.0
 42
0.7368231252251604
  0
VERTEX
  5
174
  8
THROUGH_CUT
 10
91.44464599145988
 20
44.80761977950383
 30
0.0
  0
VERTEX
  5
175
  8
THROUGH_CUT
 10
84.77962097563992
 20
46.87500299999999
 30
0.0
  0
VERTEX
  5
176
  8
THROUGH_CUT
 10
74.15462097563992
 20
46.87500299999999
 30
0.0
  0
VERTEX
  5
177
  8
THROUGH_CUT
 10
74.15462097563992
 20
43.275003
 30
0.0
  0
VERTEX
  5
178
  8
THROUGH_CUT
 10
74.18753997563991
 20
43.27227499999999
 30
0.0
  0
VERTEX
  5
179
  8
THROUGH_CUT
 10
74.21956097563991
 20
43.26416599999999
 30
0.0
  0
VERTEX
  5
17A
  8
THROUGH_CUT
 10
74.2498099756399
 20
43.25089799999999
 30
0.0
  0
VERTEX
  5
17B
  8
THROUGH_CUT
 10
74.2774629756399
 20
43.23283099999999
 30
0.0
  0
VERTEX
  5
17C
  8
THROUGH_CUT
 10
74.30176597563991
 20
43.210459
 30
0.0
  0
VERTEX
  5
17D
  8
THROUGH_CUT
 10
74.3220539756399
 20
43.18439199999999
 30
0.0
  0
VERTEX
  5
17E
  8
THROUGH_CUT
 10
74.33777597563991
 20
43.15534199999999
 30
0.0
  0
VERTEX
  5
17F
  8
THROUGH_CUT
 10
74.34850097563991
 20
43.1241
 30
0.0
  0
VERTEX
  5
180
  8
THROUGH_CUT
 10
74.35393797563991
 20
43.09151899999999
 30
0.0
  0
VERTEX
  5
181
  8
THROUGH_CUT
 10
74.35393797563991
 20
43.058487
 30
0.0
  0
VERTEX
  5
182
  8
THROUGH_CUT
 10
74.34850097563991
 20
43.02590599999999
 30
0.0
  0
VERTEX
  5
183
  8
THROUGH_CUT
 10
74.33777597563991
 20
42.994664
 30
0.0
  0
VERTEX
  5
184
  8
THROUGH_CUT
 10
74.3220539756399
 20
42.96561299999999
 30
0.0
  0
VERTEX
  5
185
  8
THROUGH_CUT
 10
74.30176597563991
 20
42.93954599999999
 30
0.0
  0
VERTEX
  5
186
  8
THROUGH_CUT
 10
74.2774629756399
 20
42.917175
 30
0.0
  0
VERTEX
  5
187
  8
THROUGH_CUT
 10
74.2498099756399
 20
42.899108
 30
0.0
  0
VERTEX
  5
188
  8
THROUGH_CUT
 10
74.21956097563991
 20
42.88583899999999
 30
0.0
  0
VERTEX
  5
189
  8
THROUGH_CUT
 10
74.18753997563991
 20
42.877731
 30
0.0
  0
VERTEX
  5
18A
  8
THROUGH_CUT
 10
74.15462097563992
 20
42.87500299999999
 30
0.0
  0
VERTEX
  5
18B
  8
THROUGH_CUT
 10
73.40462097563992
 20
42.87500299999999
 30
0.0
  0
VERTEX
  5
18C
  8
THROUGH_CUT
 10
73.37170197563991
 20
42.877731
 30
0.0
  0
VERTEX
  5
18D
  8
THROUGH_CUT
 10
73.33968097563991
 20
42.88583899999999
 30
0.0
  0
VERTEX
  5
18E
  8
THROUGH_CUT
 10
73.30943097563991
 20
42.899108
 30
0.0
  0
VERTEX
  5
18F
  8
THROUGH_CUT
 10
73.28177797563991
 20
42.917175
 30
0.0
  0
VERTEX
  5
190
  8
THROUGH_CUT
 10
73.2574759756399
 20
42.93954599999999
 30
0.0
  0
VERTEX
  5
191
  8
THROUGH_CUT
 10
73.23718797563991
 20
42.96561299999999
 30
0.0
  0
VERTEX
  5
192
  8
THROUGH_CUT
 10
73.22146597563992
 20
42.994664
 30
0.0
  0
VERTEX
  5
193
  8
THROUGH_CUT
 10
73.21074097563991
 20
43.02590599999999
 30
0.0
  0
VERTEX
  5
194
  8
THROUGH_CUT
 10
73.20530397563991
 20
43.058487
 30
0.0
  0
VERTEX
  5
195
  8
THROUGH_CUT
 10
73.20530397563991
 20
43.09151899999999
 30
0.0
  0
VERTEX
  5
196
  8
THROUGH_CUT
 10
73.21074097563991
 20
43.1241
 30
0.0
  0
VERTEX
  5
197
  8
THROUGH_CUT
 10
73.22146597563992
 20
43.15534199999999
 30
0.0
  0
VERTEX
  5
198
  8
THROUGH_CUT
 10
73.23718797563991
 20
43.18439199999999
 30
0.0
  0
VERTEX
  5
199
  8
THROUGH_CUT
 10
73.2574759756399
 20
43.210459
 30
0.0
  0
VERTEX
  5
19A
  8
THROUGH_CUT
 10
73.28177797563991
 20
43.23283099999999
 30
0.0
  0
VERTEX
  5
19B
  8
THROUGH_CUT
 10
73.30943097563991
 20
43.25089799999999
 30
0.0
  0
VERTEX
  5
19C
  8
THROUGH_CUT
 10
73.33968097563991
 20
43.26416599999999
 30
0.0
  0
VERTEX
  5
19D
  8
THROUGH_CUT
 10
73.37170197563991
 20
43.27227499999999
 30
0.0
  0
VERTEX
  5
19E
  8
THROUGH_CUT
 10
73.40462097563992
 20
43.275003
 30
0.0
  0
SEQEND
  5
19F
  8
THROUGH_CUT
  0
POLYLINE
  5
54
  8
THROUGH_CUT
 66
     1
 10
0.0
 20
0.0
 30
0.0
 70
     1
  0
VERTEX
  5
1A0
  8
THROUGH_CUT
 10
73.40462097563992
 20
39.12500199999999
 30
0.0
  0
VERTEX
  5
1A1
  8
THROUGH_CUT
 10
52.1546209756399
 20
39.12500199999999
 30
0.0
  0
VERTEX
  5
1A2
  8
THROUGH_CUT
 10
52.1546209756399
 20
35.525002
 30
0.0
  0
VERTEX
  5
1A3
  8
THROUGH_CUT
 10
52.18753997563991
 20
35.522274
 30
0.0
  0
VERTEX
  5
1A4
  8
THROUGH_CUT
 10
52.21956097563991
 20
35.51416499999999
 30
0.0
  0
VERTEX
  5
1A5
  8
THROUGH_CUT
 10
52.24980997563991
 20
35.50089699999999
 30
0.0
  0
VERTEX
  5
1A6
  8
THROUGH_CUT
 10
52.27746297563991
 20
35.48282999999999
 30
0.0
  0
VERTEX
  5
1A7
  8
THROUGH_CUT
 10
52.30176597563991
 20
35.460458
 30
0.0
  0
VERTEX
  5
1A8
  8
THROUGH_CUT
 10
52.32205397563992
 20
35.43439099999999
 30
0.0
  0
VERTEX
  5
1A9
  8
THROUGH_CUT
 10
52.3377759756399
 20
35.40534099999999
 30
0.0
  0
VERTEX
  5
1AA
  8
THROUGH_CUT
 10
52.34850097563991
 20
35.374099
 30
0.0
  0
VERTEX
  5
1AB
  8
THROUGH_CUT
 10
52.35393797563991
 20
35.34151799999999
 30
0.0
  0
VERTEX
  5
1AC
  8
THROUGH_CUT
 10
52.35393797563991
 20
35.308486
 30
0.0
  0
VERTEX
  5
1AD
  8
THROUGH_CUT
 10
52.34850097563991
 20
35.27590499999999
 30
0.0
  0
VERTEX
  5
1AE
  8
THROUGH_CUT
 10
52.3377759756399
 20
35.244663
 30
0.0
  0
VERTEX
  5
1AF
  8
THROUGH_CUT
 10
52.32205397563992
 20
35.21561199999999
 30
0.0
  0
VERTEX
  5
1B0
  8
THROUGH_CUT
 10
52.30176597563991
 20
35.189545
 30
0.0
  0
VERTEX
  5
1B1
  8
THROUGH_CUT
 10
52.27746297563991
 20
35.167174
 30
0.0
  0
VERTEX
  5
1B2
  8
THROUGH_CUT
 10
52.24980997563991
 20
35.149107
 30
0.0
  0
VERTEX
  5
1B3
  8
THROUGH_CUT
 10
52.21956097563991
 20
35.13583799999999
 30
0.0
  0
VERTEX
  5
1B4
  8
THROUGH_CUT
 10
52.18753997563991
 20
35.12773
 30
0.0
  0
VERTEX
  5
1B5
  8
THROUGH_CUT
 10
52.1546209756399
 20
35.12500199999999
 30
0.0
  0
VERTEX
  5
1B6
  8
THROUGH_CUT
 10
51.4046209756399
 20
35.12500199999999
 30
0.0
  0
VERTEX
  5
1B7
  8
THROUGH_CUT
 10
51.37170197563991
 20
35.12773
 30
0.0
  0
VERTEX
  5
1B8
  8
THROUGH_CUT
 10
51.33968097563991
 20
35.13583799999999
 30
0.0
  0
VERTEX
  5
1B9
  8
THROUGH_CUT
 10
51.3094309756399
 20
35.149107
 30
0.0
  0
VERTEX
  5
1BA
  8
THROUGH_CUT
 10
51.28177797563991
 20
35.167174
 30
0.0
  0
VERTEX
  5
1BB
  8
THROUGH_CUT
 10
51.25747597563991
 20
35.189545
 30
0.0
  0
VERTEX
  5
1BC
  8
THROUGH_CUT
 10
51.23718797563991
 20
35.21561199999999
 30
0.0
  0
VERTEX
  5
1BD
  8
THROUGH_CUT
 10
51.2214659756399
 20
35.244663
 30
0.0
  0
VERTEX
  5
1BE
  8
THROUGH_CUT
 10
51.21074097563991
 20
35.27590499999999
 30
0.0
  0
VERTEX
  5
1BF
  8
THROUGH_CUT
 10
51.20530397563991
 20
35.308486
 30
0.0
  0
VERTEX
  5
1C0
  8
THROUGH_CUT
 10
51.20530397563991
 20
35.34151799999999
 30
0.0
  0
VERTEX
  5
1C1
  8
THROUGH_CUT
 10
51.21074097563991
 20
35.374099
 30
0.0
  0
VERTEX
  5
1C2
  8
THROUGH_CUT
 10
51.2214659756399
 20
35.40534099999999
 30
0.0
  0
VERTEX
  5
1C3
  8
THROUGH_CUT
 10
51.23718797563991
 20
35.43439099999999
 30
0.0
  0
VERTEX
  5
1C4
  8
THROUGH_CUT
 10
51.25747597563991
 20
35.460458
 30
0.0
  0
VERTEX
  5
1C5
  8
THROUGH_CUT
 10
51.28177797563991
 20
35.48282999999999
 30
0.0
  0
VERTEX
  5
1C6
  8
THROUGH_CUT
 10
51.3094309756399
 20
35.50089699999999
 30
0.0
  0
VERTEX
  5
1C7
  8
THROUGH_CUT
 10
51.33968097563991
 20
35.51416499999999
 30
0.0
  0
VERTEX
  5
1C8
  8
THROUGH_CUT
 10
51.37170197563991
 20
35.522274
 30
0.0
  0
VERTEX
  5
1C9
  8
THROUGH_CUT
 10
51.4046209756399
 20
35.525002
 30
0.0
  0
VERTEX
  5
1CA
  8
THROUGH_CUT
 10
51.4046209756399
 20
39.12500199999999
 30
0.0
  0
VERTEX
  5
1CB
  8
THROUGH_CUT
 10
30.1546209756399
 20
39.12500199999999
 30
0.0
  0
VERTEX
  5
1CC
  8
THROUGH_CUT
 10
30.1546209756399
 20
35.525002
 30
0.0
  0
VERTEX
  5
1CD
  8
THROUGH_CUT
 10
30.18753997563989
 20
35.522274
 30
0.0
  0
VERTEX
  5
1CE
  8
THROUGH_CUT
 10
30.21956097563991
 20
35.51416499999999
 30
0.0
  0
VERTEX
  5
1CF
  8
THROUGH_CUT
 10
30.24980997563991
 20
35.50089699999999
 30
0.0
  0
VERTEX
  5
1D0
  8
THROUGH_CUT
 10
30.27746297563992
 20
35.48282999999999
 30
0.0
  0
VERTEX
  5
1D1
  8
THROUGH_CUT
 10
30.30176597563992
 20
35.460458
 30
0.0
  0
VERTEX
  5
1D2
  8
THROUGH_CUT
 10
30.32205397563992
 20
35.43439099999999
 30
0.0
  0
VERTEX
  5
1D3
  8
THROUGH_CUT
 10
30.3377759756399
 20
35.40534099999999
 30
0.0
  0
VERTEX
  5
1D4
  8
THROUGH_CUT
 10
30.34850097563991
 20
35.374099
 30
0.0
  0
VERTEX
  5
1D5
  8
THROUGH_CUT
 10
30.35393797563991
 20
35.34151799999999
 30
0.0
  0
VERTEX
  5
1D6
  8
THROUGH_CUT
 10
30.35393797563991
 20
35.308486
 30
0.0
  0
VERTEX
  5
1D7
  8
THROUGH_CUT
 10
30.34850097563991
 20
35.27590499999999
 30
0.0
  0
VERTEX
  5
1D8
  8
THROUGH_CUT
 10
30.3377759756399
 20
35.244663
 30
0.0
  0
VERTEX
  5
1D9
  8
THROUGH_CUT
 10
30.32205397563992
 20
35.21561199999999
 30
0.0
  0
VERTEX
  5
1DA
  8
THROUGH_CUT
 10
30.30176597563992
 20
35.189545
 30
0.0
  0
VERTEX
  5
1DB
  8
THROUGH_CUT
 10
30.27746297563992
 20
35.167174
 30
0.0
  0
VERTEX
  5
1DC
  8
THROUGH_CUT
 10
30.24980997563991
 20
35.149107
 30
0.0
  0
VERTEX
  5
1DD
  8
THROUGH_CUT
 10
30.21956097563991
 20
35.13583799999999
 30
0.0
  0
VERTEX
  5
1DE
  8
THROUGH_CUT
 10
30.18753997563989
 20
35.12773
 30
0.0
  0
VERTEX
  5
1DF
  8
THROUGH_CUT
 10
30.1546209756399
 20
35.12500199999999
 30
0.0
  0
VERTEX
  5
1E0
  8
THROUGH_CUT
 10
29.4046209756399
 20
35.12500199999999
 30
0.0
  0
VERTEX
  5
1E1
  8
THROUGH_CUT
 10
29.37170197563991
 20
35.12773
 30
0.0
  0
VERTEX
  5
1E2
  8
THROUGH_CUT
 10
29.33968097563992
 20
35.13583799999999
 30
0.0
  0
VERTEX
  5
1E3
  8
THROUGH_CUT
 10
29.3094309756399
 20
35.149107
 30
0.0
  0
VERTEX
  5
1E4
  8
THROUGH_CUT
 10
29.28177797563991
 20
35.167174
 30
0.0
  0
VERTEX
  5
1E5
  8
THROUGH_CUT
 10
29.25747597563991
 20
35.189545
 30
0.0
  0
VERTEX
  5
1E6
  8
THROUGH_CUT
 10
29.23718797563991
 20
35.21561199999999
 30
0.0
  0
VERTEX
  5
1E7
  8
THROUGH_CUT
 10
29.2214659756399
 20
35.244663
 30
0.0
  0
VERTEX
  5
1E8
  8
THROUGH_CUT
 10
29.21074097563992
 20
35.27590499999999
 30
0.0
  0
VERTEX
  5
1E9
  8
THROUGH_CUT
 10
29.20530397563989
 20
35.308486
 30
0.0
  0
VERTEX
  5
1EA
  8
THROUGH_CUT
 10
29.20530397563989
 20
35.34151799999999
 30
0.0
  0
VERTEX
  5
1EB
  8
THROUGH_CUT
 10
29.21074097563992
 20
35.374099
 30
0.0
  0
VERTEX
  5
1EC
  8
THROUGH_CUT
 10
29.2214659756399
 20
35.40534099999999
 30
0.0
  0
VERTEX
  5
1ED
  8
THROUGH_CUT
 10
29.23718797563991
 20
35.43439099999999
 30
0.0
  0
VERTEX
  5
1EE
  8
THROUGH_CUT
 10
29.25747597563991
 20
35.460458
 30
0.0
  0
VERTEX
  5
1EF
  8
THROUGH_CUT
 10
29.28177797563991
 20
35.48282999999999
 30
0.0
  0
VERTEX
  5
1F0
  8
THROUGH_CUT
 10
29.3094309756399
 20
35.50089699999999
 30
0.0
  0
VERTEX
  5
1F1
  8
THROUGH_CUT
 10
29.33968097563992
 20
35.51416499999999
 30
0.0
  0
VERTEX
  5
1F2
  8
THROUGH_CUT
 10
29.37170197563991
 20
35.522274
 30
0.0
  0
VERTEX
  5
1F3
  8
THROUGH_CUT
 10
29.4046209756399
 20
35.525002
 30
0.0
  0
VERTEX
  5
1F4
  8
THROUGH_CUT
 10
29.4046209756399
 20
39.12500199999999
 30
0.0
  0
VERTEX
  5
1F5
  8
THROUGH_CUT
 10
8.1546209756399
 20
39.12500199999999
 30
0.0
  0
VERTEX
  5
1F6
  8
THROUGH_CUT
 10
8.1546209756399
 20
35.525002
 30
0.0
  0
VERTEX
  5
1F7
  8
THROUGH_CUT
 10
8.187539975639922
 20
35.522274
 30
0.0
  0
VERTEX
  5
1F8
  8
THROUGH_CUT
 10
8.219560975639908
 20
35.51416499999999
 30
0.0
  0
VERTEX
  5
1F9
  8
THROUGH_CUT
 10
8.249809975639906
 20
35.50089699999999
 30
0.0
  0
VERTEX
  5
1FA
  8
THROUGH_CUT
 10
8.27746297563992
 20
35.48282999999999
 30
0.0
  0
VERTEX
  5
1FB
  8
THROUGH_CUT
 10
8.301765975639924
 20
35.460458
 30
0.0
  0
VERTEX
  5
1FC
  8
THROUGH_CUT
 10
8.322053975639918
 20
35.43439099999999
 30
0.0
  0
VERTEX
  5
1FD
  8
THROUGH_CUT
 10
8.3377759756399
 20
35.40534099999999
 30
0.0
  0
VERTEX
  5
1FE
  8
THROUGH_CUT
 10
8.348500975639908
 20
35.374099
 30
0.0
  0
VERTEX
  5
1FF
  8
THROUGH_CUT
 10
8.353937975639909
 20
35.34151799999999
 30
0.0
  0
VERTEX
  5
200
  8
THROUGH_CUT
 10
8.353937975639909
 20
35.308486
 30
0.0
  0
VERTEX
  5
201
  8
THROUGH_CUT
 10
8.348500975639908
 20
35.27590499999999
 30
0.0
  0
VERTEX
  5
202
  8
THROUGH_CUT
 10
8.3377759756399
 20
35.244663
 30
0.0
  0
VERTEX
  5
203
  8
THROUGH_CUT
 10
8.322053975639918
 20
35.21561199999999
 30
0.0
  0
VERTEX
  5
204
  8
THROUGH_CUT
 10
8.301765975639924
 20
35.189545
 30
0.0
  0
VERTEX
  5
205
  8
THROUGH_CUT
 10
8.27746297563992
 20
35.167174
 30
0.0
  0
VERTEX
  5
206
  8
THROUGH_CUT
 10
8.249809975639906
 20
35.149107
 30
0.0
  0
VERTEX
  5
207
  8
THROUGH_CUT
 10
8.219560975639908
 20
35.13583799999999
 30
0.0
  0
VERTEX
  5
208
  8
THROUGH_CUT
 10
8.187539975639922
 20
35.12773
 30
0.0
  0
VERTEX
  5
209
  8
THROUGH_CUT
 10
8.1546209756399
 20
35.12500199999999
 30
0.0
  0
VERTEX
  5
20A
  8
THROUGH_CUT
 10
7.404620975639901
 20
35.12500199999999
 30
0.0
  0
VERTEX
  5
20B
  8
THROUGH_CUT
 10
7.371701975639908
 20
35.12773
 30
0.0
  0
VERTEX
  5
20C
  8
THROUGH_CUT
 10
7.339680975639922
 20
35.13583799999999
 30
0.0
  0
VERTEX
  5
20D
  8
THROUGH_CUT
 10
7.309430975639899
 20
35.149107
 30
0.0
  0
VERTEX
  5
20E
  8
THROUGH_CUT
 10
7.281777975639912
 20
35.167174
 30
0.0
  0
VERTEX
  5
20F
  8
THROUGH_CUT
 10
7.257475975639906
 20
35.189545
 30
0.0
  0
VERTEX
  5
210
  8
THROUGH_CUT
 10
7.237187975639912
 20
35.21561199999999
 30
0.0
  0
VERTEX
  5
211
  8
THROUGH_CUT
 10
7.221465975639902
 20
35.244663
 30
0.0
  0
VERTEX
  5
212
  8
THROUGH_CUT
 10
7.210740975639922
 20
35.27590499999999
 30
0.0
  0
VERTEX
  5
213
  8
THROUGH_CUT
 10
7.205303975639922
 20
35.308486
 30
0.0
  0
VERTEX
  5
214
  8
THROUGH_CUT
 10
7.205303975639922
 20
35.34151799999999
 30
0.0
  0
VERTEX
  5
215
  8
THROUGH_CUT
 10
7.210740975639922
 20
35.374099
 30
0.0
  0
VERTEX
  5
216
  8
THROUGH_CUT
 10
7.221465975639902
 20
35.40534099999999
 30
0.0
  0
VERTEX
  5
217
  8
THROUGH_CUT
 10
7.237187975639912
 20
35.43439099999999
 30
0.0
  0
VERTEX
  5
218
  8
THROUGH_CUT
 10
7.257475975639906
 20
35.460458
 30
0.0
  0
VERTEX
  5
219
  8
THROUGH_CUT
 10
7.281777975639912
 20
35.48282999999999
 30
0.0
  0
VERTEX
  5
21A
  8
THROUGH_CUT
 10
7.309430975639899
 20
35.50089699999999
 30
0.0
  0
VERTEX
  5
21B
  8
THROUGH_CUT
 10
7.339680975639922
 20
35.51416499999999
 30
0.0
  0
VERTEX
  5
21C
  8
THROUGH_CUT
 10
7.371701975639908
 20
35.522274
 30
0.0
  0
VERTEX
  5
21D
  8
THROUGH_CUT
 10
7.404620975639901
 20
35.525002
 30
0.0
  0
VERTEX
  5
21E
  8
THROUGH_CUT
 10
7.404620975639901
 20
39.12500199999999
 30
0.0
  0
VERTEX
  5
21F
  8
THROUGH_CUT
 10
5.261538975639908
 20
39.12500199999999
 30
0.0
  0
VERTEX
  5
220
  8
THROUGH_CUT
 10
5.261538975639908
 20
37.40784499999999
 30
0.0
  0
VERTEX
  5
221
  8
THROUGH_CUT
 10
5.283947975639919
 20
37.38113899999999
 30
0.0
  0
VERTEX
  5
222
  8
THROUGH_CUT
 10
5.301379975639904
 20
37.35094699999999
 30
0.0
  0
VERTEX
  5
223
  8
THROUGH_CUT
 10
5.3133029756399
 20
37.31818699999999
 30
0.0
  0
VERTEX
  5
224
  8
THROUGH_CUT
 10
5.319356975639906
 20
37.283855
 30
0.0
  0
VERTEX
  5
225
  8
THROUGH_CUT
 10
5.319356975639906
 20
37.248993
 30
0.0
  0
VERTEX
  5
226
  8
THROUGH_CUT
 10
5.3133029756399
 20
37.21465999999999
 30
0.0
  0
VERTEX
  5
227
  8
THROUGH_CUT
 10
5.301379975639904
 20
37.1819
 30
0.0
  0
VERTEX
  5
228
  8
THROUGH_CUT
 10
5.283948975639916
 20
37.151708
 30
0.0
  0
VERTEX
  5
229
  8
THROUGH_CUT
 10
5.261539975639906
 20
37.12500199999999
 30
0.0
  0
VERTEX
  5
22A
  8
THROUGH_CUT
 10
5.234833975639916
 20
37.102593
 30
0.0
  0
VERTEX
  5
22B
  8
THROUGH_CUT
 10
5.204641975639916
 20
37.085162
 30
0.0
  0
VERTEX
  5
22C
  8
THROUGH_CUT
 10
5.17188197563992
 20
37.073238
 30
0.0
  0
VERTEX
  5
22D
  8
THROUGH_CUT
 10
5.137549975639914
 20
37.06718499999999
 30
0.0
  0
VERTEX
  5
22E
  8
THROUGH_CUT
 10
5.102686975639912
 20
37.067184
 30
0.0
  0
VERTEX
  5
22F
  8
THROUGH_CUT
 10
5.068354975639906
 20
37.073238
 30
0.0
  0
VERTEX
  5
230
  8
THROUGH_CUT
 10
5.03559497563991
 20
37.085162
 30
0.0
  0
VERTEX
  5
231
  8
THROUGH_CUT
 10
5.00540297563991
 20
37.102593
 30
0.0
  0
VERTEX
  5
232
  8
THROUGH_CUT
 10
4.97869697563992
 20
37.12500199999999
 30
0.0
  0
VERTEX
  5
233
  8
THROUGH_CUT
 10
3.999742975639904
 20
37.12500199999999
 30
0.0
 42
0.4142135623731007
  0
VERTEX
  5
234
  8
THROUGH_CUT
 10
3.499742975639904
 20
36.62500199999999
 30
0.0
  0
VERTEX
  5
235
  8
THROUGH_CUT
 10
3.499742975639904
 20
33.62500199999999
 30
0.0
 42
0.4142135623731007
  0
VERTEX
  5
236
  8
THROUGH_CUT
 10
3.999742975639904
 20
33.12500199999999
 30
0.0
  0
VERTEX
  5
237
  8
THROUGH_CUT
 10
4.97869697563992
 20
33.12500199999999
 30
0.0
  0
VERTEX
  5
238
  8
THROUGH_CUT
 10
5.003902975639917
 20
33.14635
 30
0.0
  0
VERTEX
  5
239
  8
THROUGH_CUT
 10
5.032278975639898
 20
33.163259
 30
0.0
  0
VERTEX
  5
23A
  8
THROUGH_CUT
 10
5.063050975639911
 20
33.17526599999999
 30
0.0
  0
VERTEX
  5
23B
  8
THROUGH_CUT
 10
5.095379975639915
 20
33.18204399999999
 30
0.0
  0
VERTEX
  5
23C
  8
THROUGH_CUT
 10
5.12838397563992
 20
33.183409
 30
0.0
  0
VERTEX
  5
23D
  8
THROUGH_CUT
 10
5.161161975639899
 20
33.179323
 30
0.0
  0
VERTEX
  5
23E
  8
THROUGH_CUT
 10
5.192819975639921
 20
33.169898
 30
0.0
  0
VERTEX
  5
23F
  8
THROUGH_CUT
 10
5.222495975639916
 20
33.15539099999999
 30
0.0
  0
VERTEX
  5
240
  8
THROUGH_CUT
 10
5.249377975639916
 20
33.136197
 30
0.0
  0
VERTEX
  5
241
  8
THROUGH_CUT
 10
5.272734975639921
 20
33.11283999999999
 30
0.0
  0
VERTEX
  5
242
  8
THROUGH_CUT
 10
5.291928975639919
 20
33.08595699999999
 30
0.0
  0
VERTEX
  5
243
  8
THROUGH_CUT
 10
5.3064359756399
 20
33.056281
 30
0.0
  0
VERTEX
  5
244
  8
THROUGH_CUT
 10
5.315861975639919
 20
33.02462299999999
 30
0.0
  0
VERTEX
  5
245
  8
THROUGH_CUT
 10
5.319946975639922
 20
32.991845
 30
0.0
  0
VERTEX
  5
246
  8
THROUGH_CUT
 10
5.318581975639901
 20
32.95884099999999
 30
0.0
  0
VERTEX
  5
247
  8
THROUGH_CUT
 10
5.311803975639904
 20
32.926513
 30
0.0
  0
VERTEX
  5
248
  8
THROUGH_CUT
 10
5.299795975639896
 20
32.895741
 30
0.0
  0
VERTEX
  5
249
  8
THROUGH_CUT
 10
5.282887975639895
 20
32.86736499999999
 30
0.0
  0
VERTEX
  5
24A
  8
THROUGH_CUT
 10
5.261538975639908
 20
32.842159
 30
0.0
  0
VERTEX
  5
24B
  8
THROUGH_CUT
 10
5.261538975639908
 20
32.12500199999999
 30
0.0
  0
VERTEX
  5
24C
  8
THROUGH_CUT
 10
84.77962097563992
 20
32.125001
 30
0.0
  0
VERTEX
  5
24D
  8
THROUGH_CUT
 10
91.44462911488901
 20
34.19229212227364
 30
0.0
 42
0.73682312522516
  0
VERTEX
  5
24E
  8
THROUGH_CUT
 10
91.44464599145988
 20
37.05761877950383
 30
0.0
  0
VERTEX
  5
24F
  8
THROUGH_CUT
 10
84.77962097563992
 20
39.12500199999999
 30
0.0
  0
VERTEX
  5
250
  8
THROUGH_CUT
 10
74.15462097563992
 20
39.12500199999999
 30
0.0
  0
VERTEX
  5
251
  8
THROUGH_CUT
 10
74.15462097563992
 20
35.525002
 30
0.0
  0
VERTEX
  5
252
  8
THROUGH_CUT
 10
74.18753997563991
 20
35.522274
 30
0.0
  0
VERTEX
  5
253
  8
THROUGH_CUT
 10
74.21956097563991
 20
35.51416499999999
 30
0.0
  0
VERTEX
  5
254
  8
THROUGH_CUT
 10
74.2498099756399
 20
35.50089699999999
 30
0.0
  0
VERTEX
  5
255
  8
THROUGH_CUT
 10
74.2774629756399
 20
35.48282999999999
 30
0.0
  0
VERTEX
  5
256
  8
THROUGH_CUT
 10
74.30176597563991
 20
35.460458
 30
0.0
  0
VERTEX
  5
257
  8
THROUGH_CUT
 10
74.3220539756399
 20
35.43439099999999
 30
0.0
  0
VERTEX
  5
258
  8
THROUGH_CUT
 10
74.33777597563991
 20
35.40534099999999
 30
0.0
  0
VERTEX
  5
259
  8
THROUGH_CUT
 10
74.34850097563991
 20
35.374099
 30
0.0
  0
VERTEX
  5
25A
  8
THROUGH_CUT
 10
74.35393797563991
 20
35.34151799999999
 30
0.0
  0
VERTEX
  5
25B
  8
THROUGH_CUT
 10
74.35393797563991
 20
35.308486
 30
0.0
  0
VERTEX
  5
25C
  8
THROUGH_CUT
 10
74.34850097563991
 20
35.27590499999999
 30
0.0
  0
VERTEX
  5
25D
  8
THROUGH_CUT
 10
74.33777597563991
 20
35.244663
 30
0.0
  0
VERTEX
  5
25E
  8
THROUGH_CUT
 10
74.3220539756399
 20
35.21561199999999
 30
0.0
  0
VERTEX
  5
25F
  8
THROUGH_CUT
 10
74.30176597563991
 20
35.189545
 30
0.0
  0
VERTEX
  5
260
  8
THROUGH_CUT
 10
74.2774629756399
 20
35.167174
 30
0.0
  0
VERTEX
  5
261
  8
THROUGH_CUT
 10
74.2498099756399
 20
35.149107
 30
0.0
  0
VERTEX
  5
262
  8
THROUGH_CUT
 10
74.21956097563991
 20
35.13583799999999
 30
0.0
  0
VERTEX
  5
263
  8
THROUGH_CUT
 10
74.18753997563991
 20
35.12773
 30
0.0
  0
VERTEX
  5
264
  8
THROUGH_CUT
 10
74.15462097563992
 20
35.12500199999999
 30
0.0
  0
VERTEX
  5
265
  8
THROUGH_CUT
 10
73.40462097563992
 20
35.12500199999999
 30
0.0
  0
VERTEX
  5
266
  8
THROUGH_CUT
 10
73.37170197563991
 20
35.12773
 30
0.0
  0
VERTEX
  5
267
  8
THROUGH_CUT
 10
73.33968097563991
 20
35.13583799999999
 30
0.0
  0
VERTEX
  5
268
  8
THROUGH_CUT
 10
73.30943097563991
 20
35.149107
 30
0.0
  0
VERTEX
  5
269
  8
THROUGH_CUT
 10
73.28177797563991
 20
35.167174
 30
0.0
  0
VERTEX
  5
26A
  8
THROUGH_CUT
 10
73.2574759756399
 20
35.189545
 30
0.0
  0
VERTEX
  5
26B
  8
THROUGH_CUT
 10
73.23718797563991
 20
35.21561199999999
 30
0.0
  0
VERTEX
  5
26C
  8
THROUGH_CUT
 10
73.22146597563992
 20
35.244663
 30
0.0
  0
VERTEX
  5
26D
  8
THROUGH_CUT
 10
73.21074097563991
 20
35.27590499999999
 30
0.0
  0
VERTEX
  5
26E
  8
THROUGH_CUT
 10
73.20530397563991
 20
35.308486
 30
0.0
  0
VERTEX
  5
26F
  8
THROUGH_CUT
 10
73.20530397563991
 20
35.34151799999999
 30
0.0
  0
VERTEX
  5
270
  8
THROUGH_CUT
 10
73.21074097563991
 20
35.374099
 30
0.0
  0
VERTEX
  5
271
  8
THROUGH_CUT
 10
73.22146597563992
 20
35.40534099999999
 30
0.0
  0
VERTEX
  5
272
  8
THROUGH_CUT
 10
73.23718797563991
 20
35.43439099999999
 30
0.0
  0
VERTEX
  5
273
  8
THROUGH_CUT
 10
73.2574759756399
 20
35.460458
 30
0.0
  0
VERTEX
  5
274
  8
THROUGH_CUT
 10
73.28177797563991
 20
35.48282999999999
 30
0.0
  0
VERTEX
  5
275
  8
THROUGH_CUT
 10
73.30943097563991
 20
35.50089699999999
 30
0.0
  0
VERTEX
  5
276
  8
THROUGH_CUT
 10
73.33968097563991
 20
35.51416499999999
 30
0.0
  0
VERTEX
  5
277
  8
THROUGH_CUT
 10
73.37170197563991
 20
35.522274
 30
0.0
  0
VERTEX
  5
278
  8
THROUGH_CUT
 10
73.40462097563992
 20
35.525002
 30
0.0
  0
SEQEND
  5
279
  8
THROUGH_CUT
  0
POLYLINE
  5
55
  8
THROUGH_CUT
 66
     1
 10
0.0
 20
0.0
 30
0.0
 70
     1
  0
VERTEX
  5
27A
  8
THROUGH_CUT
 10
73.40462097563992
 20
31.375001
 30
0.0
  0
VERTEX
  5
27B
  8
THROUGH_CUT
 10
52.1546209756399
 20
31.375001
 30
0.0
  0
VERTEX
  5
27C
  8
THROUGH_CUT
 10
52.1546209756399
 20
27.775001
 30
0.0
  0
VERTEX
  5
27D
  8
THROUGH_CUT
 10
52.18753997563991
 20
27.772273
 30
0.0
  0
VERTEX
  5
27E
  8
THROUGH_CUT
 10
52.21956097563991
 20
27.76416399999999
 30
0.0
  0
VERTEX
  5
27F
  8
THROUGH_CUT
 10
52.24980997563991
 20
27.750896
 30
0.0
  0
VERTEX
  5
280
  8
THROUGH_CUT
 10
52.27746297563991
 20
27.732829
 30
0.0
  0
VERTEX
  5
281
  8
THROUGH_CUT
 10
52.30176597563991
 20
27.71045700000001
 30
0.0
  0
VERTEX
  5
282
  8
THROUGH_CUT
 10
52.32205397563992
 20
27.68438999999999
 30
0.0
  0
VERTEX
  5
283
  8
THROUGH_CUT
 10
52.3377759756399
 20
27.65534
 30
0.0
  0
VERTEX
  5
284
  8
THROUGH_CUT
 10
52.34850097563991
 20
27.624098
 30
0.0
  0
VERTEX
  5
285
  8
THROUGH_CUT
 10
52.35393797563991
 20
27.591517
 30
0.0
  0
VERTEX
  5
286
  8
THROUGH_CUT
 10
52.35393797563991
 20
27.558485
 30
0.0
  0
VERTEX
  5
287
  8
THROUGH_CUT
 10
52.34850097563991
 20
27.525904
 30
0.0
  0
VERTEX
  5
288
  8
THROUGH_CUT
 10
52.3377759756399
 20
27.49466200000001
 30
0.0
  0
VERTEX
  5
289
  8
THROUGH_CUT
 10
52.32205397563992
 20
27.465611
 30
0.0
  0
VERTEX
  5
28A
  8
THROUGH_CUT
 10
52.30176597563991
 20
27.439544
 30
0.0
  0
VERTEX
  5
28B
  8
THROUGH_CUT
 10
52.27746297563991
 20
27.41717300000001
 30
0.0
  0
VERTEX
  5
28C
  8
THROUGH_CUT
 10
52.24980997563991
 20
27.399106
 30
0.0
  0
VERTEX
  5
28D
  8
THROUGH_CUT
 10
52.21956097563991
 20
27.385837
 30
0.0
  0
VERTEX
  5
28E
  8
THROUGH_CUT
 10
52.18753997563991
 20
27.377729
 30
0.0
  0
VERTEX
  5
28F
  8
THROUGH_CUT
 10
52.1546209756399
 20
27.375001
 30
0.0
  0
VERTEX
  5
290
  8
THROUGH_CUT
 10
51.4046209756399
 20
27.375001
 30
0.0
  0
VERTEX
  5
291
  8
THROUGH_CUT
 10
51.37170197563991
 20
27.377729
 30
0.0
  0
VERTEX
  5
292
  8
THROUGH_CUT
 10
51.33968097563991
 20
27.385837
 30
0.0
  0
VERTEX
  5
293
  8
THROUGH_CUT
 10
51.3094309756399
 20
27.399106
 30
0.0
  0
VERTEX
  5
294
  8
THROUGH_CUT
 10
51.28177797563991
 20
27.41717300000001
 30
0.0
  0
VERTEX
  5
295
  8
THROUGH_CUT
 10
51.25747597563991
 20
27.439544
 30
0.0
  0
VERTEX
  5
296
  8
THROUGH_CUT
 10
51.23718797563991
 20
27.465611
 30
0.0
  0
VERTEX
  5
297
  8
THROUGH_CUT
 10
51.2214659756399
 20
27.49466200000001
 30
0.0
  0
VERTEX
  5
298
  8
THROUGH_CUT
 10
51.21074097563991
 20
27.525904
 30
0.0
  0
VERTEX
  5
299
  8
THROUGH_CUT
 10
51.20530397563991
 20
27.558485
 30
0.0
  0
VERTEX
  5
29A
  8
THROUGH_CUT
 10
51.20530397563991
 20
27.591517
 30
0.0
  0
VERTEX
  5
29B
  8
THROUGH_CUT
 10
51.21074097563991
 20
27.624098
 30
0.0
  0
VERTEX
  5
29C
  8
THROUGH_CUT
 10
51.2214659756399
 20
27.65534
 30
0.0
  0
VERTEX
  5
29D
  8
THROUGH_CUT
 10
51.23718797563991
 20
27.68438999999999
 30
0.0
  0
VERTEX
  5
29E
  8
THROUGH_CUT
 10
51.25747597563991
 20
27.71045700000001
 30
0.0
  0
VERTEX
  5
29F
  8
THROUGH_CUT
 10
51.28177797563991
 20
27.732829
 30
0.0
  0
VERTEX
  5
2A0
  8
THROUGH_CUT
 10
51.3094309756399
 20
27.750896
 30
0.0
  0
VERTEX
  5
2A1
  8
THROUGH_CUT
 10
51.33968097563991
 20
27.76416399999999
 30
0.0
  0
VERTEX
  5
2A2
  8
THROUGH_CUT
 10
51.37170197563991
 20
27.772273
 30
0.0
  0
VERTEX
  5
2A3
  8
THROUGH_CUT
 10
51.4046209756399
 20
27.775001
 30
0.0
  0
VERTEX
  5
2A4
  8
THROUGH_CUT
 10
51.4046209756399
 20
31.375001
 30
0.0
  0
VERTEX
  5
2A5
  8
THROUGH_CUT
 10
30.1546209756399
 20
31.375001
 30
0.0
  0
VERTEX
  5
2A6
  8
THROUGH_CUT
 10
30.1546209756399
 20
27.775001
 30
0.0
  0
VERTEX
  5
2A7
  8
THROUGH_CUT
 10
30.18753997563989
 20
27.772273
 30
0.0
  0
VERTEX
  5
2A8
  8
THROUGH_CUT
 10
30.21956097563991
 20
27.76416399999999
 30
0.0
  0
VERTEX
  5
2A9
  8
THROUGH_CUT
 10
30.24980997563991
 20
27.750896
 30
0.0
  0
VERTEX
  5
2AA
  8
THROUGH_CUT
 10
30.27746297563992
 20
27.732829
 30
0.0
  0
VERTEX
  5
2AB
  8
THROUGH_CUT
 10
30.30176597563992
 20
27.71045700000001
 30
0.0
  0
VERTEX
  5
2AC
  8
THROUGH_CUT
 10
30.32205397563992
 20
27.68438999999999
 30
0.0
  0
VERTEX
  5
2AD
  8
THROUGH_CUT
 10
30.3377759756399
 20
27.65534
 30
0.0
  0
VERTEX
  5
2AE
  8
THROUGH_CUT
 10
30.34850097563991
 20
27.624098
 30
0.0
  0
VERTEX
  5
2AF
  8
THROUGH_CUT
 10
30.35393797563991
 20
27.591517
 30
0.0
  0
VERTEX
  5
2B0
  8
THROUGH_CUT
 10
30.35393797563991
 20
27.558485
 30
0.0
  0
VERTEX
  5
2B1
  8
THROUGH_CUT
 10
30.34850097563991
 20
27.525904
 30
0.0
  0
VERTEX
  5
2B2
  8
THROUGH_CUT
 10
30.3377759756399
 20
27.49466200000001
 30
0.0
  0
VERTEX
  5
2B3
  8
THROUGH_CUT
 10
30.32205397563992
 20
27.465611
 30
0.0
  0
VERTEX
  5
2B4
  8
THROUGH_CUT
 10
30.30176597563992
 20
27.439544
 30
0.0
  0
VERTEX
  5
2B5
  8
THROUGH_CUT
 10
30.27746297563992
 20
27.41717300000001
 30
0.0
  0
VERTEX
  5
2B6
  8
THROUGH_CUT
 10
30.24980997563991
 20
27.399106
 30
0.0
  0
VERTEX
  5
2B7
  8
THROUGH_CUT
 10
30.21956097563991
 20
27.385837
 30
0.0
  0
VERTEX
  5
2B8
  8
THROUGH_CUT
 10
30.18753997563989
 20
27.377729
 30
0.0
  0
VERTEX
  5
2B9
  8
THROUGH_CUT
 10
30.1546209756399
 20
27.375001
 30
0.0
  0
VERTEX
  5
2BA
  8
THROUGH_CUT
 10
29.4046209756399
 20
27.375001
 30
0.0
  0
VERTEX
  5
2BB
  8
THROUGH_CUT
 10
29.37170197563991
 20
27.377729
 30
0.0
  0
VERTEX
  5
2BC
  8
THROUGH_CUT
 10
29.33968097563992
 20
27.385837
 30
0.0
  0
VERTEX
  5
2BD
  8
THROUGH_CUT
 10
29.3094309756399
 20
27.399106
 30
0.0
  0
VERTEX
  5
2BE
  8
THROUGH_CUT
 10
29.28177797563991
 20
27.41717300000001
 30
0.0
  0
VERTEX
  5
2BF
  8
THROUGH_CUT
 10
29.25747597563991
 20
27.439544
 30
0.0
  0
VERTEX
  5
2C0
  8
THROUGH_CUT
 10
29.23718797563991
 20
27.465611
 30
0.0
  0
VERTEX
  5
2C1
  8
THROUGH_CUT
 10
29.2214659756399
 20
27.49466200000001
 30
0.0
  0
VERTEX
  5
2C2
  8
THROUGH_CUT
 10
29.21074097563992
 20
27.525904
 30
0.0
  0
VERTEX
  5
2C3
  8
THROUGH_CUT
 10
29.20530397563989
 20
27.558485
 30
0.0
  0
VERTEX
  5
2C4
  8
THROUGH_CUT
 10
29.20530397563989
 20
27.591517
 30
0.0
  0
VERTEX
  5
2C5
  8
THROUGH_CUT
 10
29.21074097563992
 20
27.624098
 30
0.0
  0
VERTEX
  5
2C6
  8
THROUGH_CUT
 10
29.2214659756399
 20
27.65534
 30
0.0
  0
VERTEX
  5
2C7
  8
THROUGH_CUT
 10
29.23718797563991
 20
27.68438999999999
 30
0.0
  0
VERTEX
  5
2C8
  8
THROUGH_CUT
 10
29.25747597563991
 20
27.71045700000001
 30
0.0
  0
VERTEX
  5
2C9
  8
THROUGH_CUT
 10
29.28177797563991
 20
27.732829
 30
0.0
  0
VERTEX
  5
2CA
  8
THROUGH_CUT
 10
29.3094309756399
 20
27.750896
 30
0.0
  0
VERTEX
  5
2CB
  8
THROUGH_CUT
 10
29.33968097563992
 20
27.76416399999999
 30
0.0
  0
VERTEX
  5
2CC
  8
THROUGH_CUT
 10
29.37170197563991
 20
27.772273
 30
0.0
  0
VERTEX
  5
2CD
  8
THROUGH_CUT
 10
29.4046209756399
 20
27.775001
 30
0.0
  0
VERTEX
  5
2CE
  8
THROUGH_CUT
 10
29.4046209756399
 20
31.375001
 30
0.0
  0
VERTEX
  5
2CF
  8
THROUGH_CUT
 10
8.1546209756399
 20
31.375001
 30
0.0
  0
VERTEX
  5
2D0
  8
THROUGH_CUT
 10
8.1546209756399
 20
27.775001
 30
0.0
  0
VERTEX
  5
2D1
  8
THROUGH_CUT
 10
8.187539975639922
 20
27.772273
 30
0.0
  0
VERTEX
  5
2D2
  8
THROUGH_CUT
 10
8.219560975639908
 20
27.76416399999999
 30
0.0
  0
VERTEX
  5
2D3
  8
THROUGH_CUT
 10
8.249809975639906
 20
27.750896
 30
0.0
  0
VERTEX
  5
2D4
  8
THROUGH_CUT
 10
8.27746297563992
 20
27.732829
 30
0.0
  0
VERTEX
  5
2D5
  8
THROUGH_CUT
 10
8.301765975639924
 20
27.71045700000001
 30
0.0
  0
VERTEX
  5
2D6
  8
THROUGH_CUT
 10
8.322053975639918
 20
27.68438999999999
 30
0.0
  0
VERTEX
  5
2D7
  8
THROUGH_CUT
 10
8.3377759756399
 20
27.65534
 30
0.0
  0
VERTEX
  5
2D8
  8
THROUGH_CUT
 10
8.348500975639908
 20
27.624098
 30
0.0
  0
VERTEX
  5
2D9
  8
THROUGH_CUT
 10
8.353937975639909
 20
27.591517
 30
0.0
  0
VERTEX
  5
2DA
  8
THROUGH_CUT
 10
8.353937975639909
 20
27.558485
 30
0.0
  0
VERTEX
  5
2DB
  8
THROUGH_CUT
 10
8.348500975639908
 20
27.525904
 30
0.0
  0
VERTEX
  5
2DC
  8
THROUGH_CUT
 10
8.3377759756399
 20
27.49466200000001
 30
0.0
  0
VERTEX
  5
2DD
  8
THROUGH_CUT
 10
8.322053975639918
 20
27.465611
 30
0.0
  0
VERTEX
  5
2DE
  8
THROUGH_CUT
 10
8.301765975639924
 20
27.439544
 30
0.0
  0
VERTEX
  5
2DF
  8
THROUGH_CUT
 10
8.27746297563992
 20
27.41717300000001
 30
0.0
  0
VERTEX
  5
2E0
  8
THROUGH_CUT
 10
8.249809975639906
 20
27.399106
 30
0.0
  0
VERTEX
  5
2E1
  8
THROUGH_CUT
 10
8.219560975639908
 20
27.385837
 30
0.0
  0
VERTEX
  5
2E2
  8
THROUGH_CUT
 10
8.187539975639922
 20
27.377729
 30
0.0
  0
VERTEX
  5
2E3
  8
THROUGH_CUT
 10
8.1546209756399
 20
27.375001
 30
0.0
  0
VERTEX
  5
2E4
  8
THROUGH_CUT
 10
7.404620975639901
 20
27.375001
 30
0.0
  0
VERTEX
  5
2E5
  8
THROUGH_CUT
 10
7.371701975639908
 20
27.377729
 30
0.0
  0
VERTEX
  5
2E6
  8
THROUGH_CUT
 10
7.339680975639922
 20
27.385837
 30
0.0
  0
VERTEX
  5
2E7
  8
THROUGH_CUT
 10
7.309430975639899
 20
27.399106
 30
0.0
  0
VERTEX
  5
2E8
  8
THROUGH_CUT
 10
7.281777975639912
 20
27.41717300000001
 30
0.0
  0
VERTEX
  5
2E9
  8
THROUGH_CUT
 10
7.257475975639906
 20
27.439544
 30
0.0
  0
VERTEX
  5
2EA
  8
THROUGH_CUT
 10
7.237187975639912
 20
27.465611
 30
0.0
  0
VERTEX
  5
2EB
  8
THROUGH_CUT
 10
7.221465975639902
 20
27.49466200000001
 30
0.0
  0
VERTEX
  5
2EC
  8
THROUGH_CUT
 10
7.210740975639922
 20
27.525904
 30
0.0
  0
VERTEX
  5
2ED
  8
THROUGH_CUT
 10
7.205303975639922
 20
27.558485
 30
0.0
  0
VERTEX
  5
2EE
  8
THROUGH_CUT
 10
7.205303975639922
 20
27.591517
 30
0.0
  0
VERTEX
  5
2EF
  8
THROUGH_CUT
 10
7.210740975639922
 20
27.624098
 30
0.0
  0
VERTEX
  5
2F0
  8
THROUGH_CUT
 10
7.221465975639902
 20
27.65534
 30
0.0
  0
VERTEX
  5
2F1
  8
THROUGH_CUT
 10
7.237187975639912
 20
27.68438999999999
 30
0.0
  0
VERTEX
  5
2F2
  8
THROUGH_CUT
 10
7.257475975639906
 20
27.71045700000001
 30
0.0
  0
VERTEX
  5
2F3
  8
THROUGH_CUT
 10
7.281777975639912
 20
27.732829
 30
0.0
  0
VERTEX
  5
2F4
  8
THROUGH_CUT
 10
7.309430975639899
 20
27.750896
 30
0.0
  0
VERTEX
  5
2F5
  8
THROUGH_CUT
 10
7.339680975639922
 20
27.76416399999999
 30
0.0
  0
VERTEX
  5
2F6
  8
THROUGH_CUT
 10
7.371701975639908
 20
27.772273
 30
0.0
  0
VERTEX
  5
2F7
  8
THROUGH_CUT
 10
7.404620975639901
 20
27.775001
 30
0.0
  0
VERTEX
  5
2F8
  8
THROUGH_CUT
 10
7.404620975639901
 20
31.375001
 30
0.0
  0
VERTEX
  5
2F9
  8
THROUGH_CUT
 10
5.261538975639908
 20
31.375001
 30
0.0
  0
VERTEX
  5
2FA
  8
THROUGH_CUT
 10
5.261538975639908
 20
29.657844
 30
0.0
  0
VERTEX
  5
2FB
  8
THROUGH_CUT
 10
5.283947975639919
 20
29.63113799999999
 30
0.0
  0
VERTEX
  5
2FC
  8
THROUGH_CUT
 10
5.301379975639904
 20
29.60094599999999
 30
0.0
  0
VERTEX
  5
2FD
  8
THROUGH_CUT
 10
5.3133029756399
 20
29.568186
 30
0.0
  0
VERTEX
  5
2FE
  8
THROUGH_CUT
 10
5.319356975639906
 20
29.53385400000001
 30
0.0
  0
VERTEX
  5
2FF
  8
THROUGH_CUT
 10
5.319356975639906
 20
29.498992
 30
0.0
  0
VERTEX
  5
300
  8
THROUGH_CUT
 10
5.3133029756399
 20
29.464659
 30
0.0
  0
VERTEX
  5
301
  8
THROUGH_CUT
 10
5.301379975639904
 20
29.431899
 30
0.0
  0
VERTEX
  5
302
  8
THROUGH_CUT
 10
5.283948975639916
 20
29.401707
 30
0.0
  0
VERTEX
  5
303
  8
THROUGH_CUT
 10
5.261539975639906
 20
29.375001
 30
0.0
  0
VERTEX
  5
304
  8
THROUGH_CUT
 10
5.234833975639916
 20
29.352592
 30
0.0
  0
VERTEX
  5
305
  8
THROUGH_CUT
 10
5.204641975639916
 20
29.335161
 30
0.0
  0
VERTEX
  5
306
  8
THROUGH_CUT
 10
5.17188197563992
 20
29.32323700000001
 30
0.0
  0
VERTEX
  5
307
  8
THROUGH_CUT
 10
5.137549975639914
 20
29.317184
 30
0.0
  0
VERTEX
  5
308
  8
THROUGH_CUT
 10
5.102686975639912
 20
29.317183
 30
0.0
  0
VERTEX
  5
309
  8
THROUGH_CUT
 10
5.068354975639906
 20
29.32323700000001
 30
0.0
  0
VERTEX
  5
30A
  8
THROUGH_CUT
 10
5.03559497563991
 20
29.335161
 30
0.0
  0
VERTEX
  5
30B
  8
THROUGH_CUT
 10
5.00540297563991
 20
29.352592
 30
0.0
  0
VERTEX
  5
30C
  8
THROUGH_CUT
 10
4.97869697563992
 20
29.375001
 30
0.0
  0
VERTEX
  5
30D
  8
THROUGH_CUT
 10
3.999742975639904
 20
29.375001
 30
0.0
 42
0.4142135623730991
  0
VERTEX
  5
30E
  8
THROUGH_CUT
 10
3.499742975639904
 20
28.875001
 30
0.0
  0
VERTEX
  5
30F
  8
THROUGH_CUT
 10
3.499742975639904
 20
25.875001
 30
0.0
 42
0.4142135623730991
  0
VERTEX
  5
310
  8
THROUGH_CUT
 10
3.999742975639904
 20
25.375001
 30
0.0
  0
VERTEX
  5
311
  8
THROUGH_CUT
 10
4.97869697563992
 20
25.375001
 30
0.0
  0
VERTEX
  5
312
  8
THROUGH_CUT
 10
5.003902975639917
 20
25.396349
 30
0.0
  0
VERTEX
  5
313
  8
THROUGH_CUT
 10
5.032278975639898
 20
25.413258
 30
0.0
  0
VERTEX
  5
314
  8
THROUGH_CUT
 10
5.063050975639911
 20
25.425265
 30
0.0
  0
VERTEX
  5
315
  8
THROUGH_CUT
 10
5.095379975639915
 20
25.43204299999999
 30
0.0
  0
VERTEX
  5
316
  8
THROUGH_CUT
 10
5.12838397563992
 20
25.433408
 30
0.0
  0
VERTEX
  5
317
  8
THROUGH_CUT
 10
5.161161975639899
 20
25.429322
 30
0.0
  0
VERTEX
  5
318
  8
THROUGH_CUT
 10
5.192819975639921
 20
25.41989700000001
 30
0.0
  0
VERTEX
  5
319
  8
THROUGH_CUT
 10
5.222495975639916
 20
25.40539
 30
0.0
  0
VERTEX
  5
31A
  8
THROUGH_CUT
 10
5.249377975639916
 20
25.386196
 30
0.0
  0
VERTEX
  5
31B
  8
THROUGH_CUT
 10
5.272734975639921
 20
25.36283899999999
 30
0.0
  0
VERTEX
  5
31C
  8
THROUGH_CUT
 10
5.291928975639919
 20
25.335956
 30
0.0
  0
VERTEX
  5
31D
  8
THROUGH_CUT
 10
5.3064359756399
 20
25.30628
 30
0.0
  0
VERTEX
  5
31E
  8
THROUGH_CUT
 10
5.315861975639919
 20
25.27462199999999
 30
0.0
  0
VERTEX
  5
31F
  8
THROUGH_CUT
 10
5.319946975639922
 20
25.241844
 30
0.0
  0
VERTEX
  5
320
  8
THROUGH_CUT
 10
5.318581975639901
 20
25.20884
 30
0.0
  0
VERTEX
  5
321
  8
THROUGH_CUT
 10
5.311803975639904
 20
25.176512
 30
0.0
  0
VERTEX
  5
322
  8
THROUGH_CUT
 10
5.299795975639896
 20
25.14574
 30
0.0
  0
VERTEX
  5
323
  8
THROUGH_CUT
 10
5.282887975639895
 20
25.11736399999999
 30
0.0
  0
VERTEX
  5
324
  8
THROUGH_CUT
 10
5.261538975639908
 20
25.092158
 30
0.0
  0
VERTEX
  5
325
  8
THROUGH_CUT
 10
5.261538975639908
 20
24.375001
 30
0.0
  0
VERTEX
  5
326
  8
THROUGH_CUT
 10
84.77962097563992
 20
24.375
 30
0.0
  0
VERTEX
  5
327
  8
THROUGH_CUT
 10
91.44462911488901
 20
26.44229112227364
 30
0.0
 42
0.7368231252251609
  0
VERTEX
  5
328
  8
THROUGH_CUT
 10
91.44464599145988
 20
29.30761777950384
 30
0.0
  0
VERTEX
  5
329
  8
THROUGH_CUT
 10
84.77962097563992
 20
31.375001
 30
0.0
  0
VERTEX
  5
32A
  8
THROUGH_CUT
 10
74.15462097563992
 20
31.375001
 30
0.0
  0
VERTEX
  5
32B
  8
THROUGH_CUT
 10
74.15462097563992
 20
27.775001
 30
0.0
  0
VERTEX
  5
32C
  8
THROUGH_CUT
 10
74.18753997563991
 20
27.772273
 30
0.0
  0
VERTEX
  5
32D
  8
THROUGH_CUT
 10
74.21956097563991
 20
27.76416399999999
 30
0.0
  0
VERTEX
  5
32E
  8
THROUGH_CUT
 10
74.2498099756399
 20
27.750896
 30
0.0
  0
VERTEX
  5
32F
  8
THROUGH_CUT
 10
74.2774629756399
 20
27.732829
 30
0.0
  0
VERTEX
  5
330
  8
THROUGH_CUT
 10
74.30176597563991
 20
27.71045700000001
 30
0.0
  0
VERTEX
  5
331
  8
THROUGH_CUT
 10
74.3220539756399
 20
27.68438999999999
 30
0.0
  0
VERTEX
  5
332
  8
THROUGH_CUT
 10
74.33777597563991
 20
27.65534
 30
0.0
  0
VERTEX
  5
333
  8
THROUGH_CUT
 10
74.34850097563991
 20
27.624098
 30
0.0
  0
VERTEX
  5
334
  8
THROUGH_CUT
 10
74.35393797563991
 20
27.591517
 30
0.0
  0
VERTEX
  5
335
  8
THROUGH_CUT
 10
74.35393797563991
 20
27.558485
 30
0.0
  0
VERTEX
  5
336
  8
THROUGH_CUT
 10
74.34850097563991
 20
27.525904
 30
0.0
  0
VERTEX
  5
337
  8
THROUGH_CUT
 10
74.33777597563991
 20
27.49466200000001
 30
0.0
  0
VERTEX
  5
338
  8
THROUGH_CUT
 10
74.3220539756399
 20
27.465611
 30
0.0
  0
VERTEX
  5
339
  8
THROUGH_CUT
 10
74.30176597563991
 20
27.439544
 30
0.0
  0
VERTEX
  5
33A
  8
THROUGH_CUT
 10
74.2774629756399
 20
27.41717300000001
 30
0.0
  0
VERTEX
  5
33B
  8
THROUGH_CUT
 10
74.2498099756399
 20
27.399106
 30
0.0
  0
VERTEX
  5
33C
  8
THROUGH_CUT
 10
74.21956097563991
 20
27.385837
 30
0.0
  0
VERTEX
  5
33D
  8
THROUGH_CUT
 10
74.18753997563991
 20
27.377729
 30
0.0
  0
VERTEX
  5
33E
  8
THROUGH_CUT
 10
74.15462097563992
 20
27.375001
 30
0.0
  0
VERTEX
  5
33F
  8
THROUGH_CUT
 10
73.40462097563992
 20
27.375001
 30
0.0
  0
VERTEX
  5
340
  8
THROUGH_CUT
 10
73.37170197563991
 20
27.377729
 30
0.0
  0
VERTEX
  5
341
  8
THROUGH_CUT
 10
73.33968097563991
 20
27.385837
 30
0.0
  0
VERTEX
  5
342
  8
THROUGH_CUT
 10
73.30943097563991
 20
27.399106
 30
0.0
  0
VERTEX
  5
343
  8
THROUGH_CUT
 10
73.28177797563991
 20
27.41717300000001
 30
0.0
  0
VERTEX
  5
344
  8
THROUGH_CUT
 10
73.2574759756399
 20
27.439544
 30
0.0
  0
VERTEX
  5
345
  8
THROUGH_CUT
 10
73.23718797563991
 20
27.465611
 30
0.0
  0
VERTEX
  5
346
  8
THROUGH_CUT
 10
73.22146597563992
 20
27.49466200000001
 30
0.0
  0
VERTEX
  5
347
  8
THROUGH_CUT
 10
73.21074097563991
 20
27.525904
 30
0.0
  0
VERTEX
  5
348
  8
THROUGH_CUT
 10
73.20530397563991
 20
27.558485
 30
0.0
  0
VERTEX
  5
349
  8
THROUGH_CUT
 10
73.20530397563991
 20
27.591517
 30
0.0
  0
VERTEX
  5
34A
  8
THROUGH_CUT
 10
73.21074097563991
 20
27.624098
 30
0.0
  0
VERTEX
  5
34B
  8
THROUGH_CUT
 10
73.22146597563992
 20
27.65534
 30
0.0
  0
VERTEX
  5
34C
  8
THROUGH_CUT
 10
73.23718797563991
 20
27.68438999999999
 30
0.0
  0
VERTEX
  5
34D
  8
THROUGH_CUT
 10
73.2574759756399
 20
27.71045700000001
 30
0.0
  0
VERTEX
  5
34E
  8
THROUGH_CUT
 10
73.28177797563991
 20
27.732829
 30
0.0
  0
VERTEX
  5
34F
  8
THROUGH_CUT
 10
73.30943097563991
 20
27.750896
 30
0.0
  0
VERTEX
  5
350
  8
THROUGH_CUT
 10
73.33968097563991
 20
27.76416399999999
 30
0.0
  0
VERTEX
  5
351
  8
THROUGH_CUT
 10
73.37170197563991
 20
27.772273
 30
0.0
  0
VERTEX
  5
352
  8
THROUGH_CUT
 10
73.40462097563992
 20
27.775001
 30
0.0
  0
SEQEND
  5
353
  8
THROUGH_CUT
  0
POLYLINE
  5
56
  8
THROUGH_CUT
 66
     1
 10
0.0
 20
0.0
 30
0.0
 70
     1
  0
VERTEX
  5
354
  8
THROUGH_CUT
 10
73.40462097563992
 20
23.625
 30
0.0
  0
VERTEX
  5
355
  8
THROUGH_CUT
 10
52.1546209756399
 20
23.625
 30
0.0
  0
VERTEX
  5
356
  8
THROUGH_CUT
 10
52.1546209756399
 20
20.02500000000001
 30
0.0
  0
VERTEX
  5
357
  8
THROUGH_CUT
 10
52.18753997563991
 20
20.022272
 30
0.0
  0
VERTEX
  5
358
  8
THROUGH_CUT
 10
52.21956097563991
 20
20.014163
 30
0.0
  0
VERTEX
  5
359
  8
THROUGH_CUT
 10
52.24980997563991
 20
20.000895
 30
0.0
  0
VERTEX
  5
35A
  8
THROUGH_CUT
 10
52.27746297563991
 20
19.982828
 30
0.0
  0
VERTEX
  5
35B
  8
THROUGH_CUT
 10
52.30176597563991
 20
19.96045600000001
 30
0.0
  0
VERTEX
  5
35C
  8
THROUGH_CUT
 10
52.32205397563992
 20
19.934389
 30
0.0
  0
VERTEX
  5
35D
  8
THROUGH_CUT
 10
52.3377759756399
 20
19.905339
 30
0.0
  0
VERTEX
  5
35E
  8
THROUGH_CUT
 10
52.34850097563991
 20
19.87409700000001
 30
0.0
  0
VERTEX
  5
35F
  8
THROUGH_CUT
 10
52.35393797563991
 20
19.841516
 30
0.0
  0
VERTEX
  5
360
  8
THROUGH_CUT
 10
52.35393797563991
 20
19.80848400000001
 30
0.0
  0
VERTEX
  5
361
  8
THROUGH_CUT
 10
52.34850097563991
 20
19.775903
 30
0.0
  0
VERTEX
  5
362
  8
THROUGH_CUT
 10
52.3377759756399
 20
19.74466100000001
 30
0.0
  0
VERTEX
  5
363
  8
THROUGH_CUT
 10
52.32205397563992
 20
19.71561
 30
0.0
  0
VERTEX
  5
364
  8
THROUGH_CUT
 10
52.30176597563991
 20
19.689543
 30
0.0
  0
VERTEX
  5
365
  8
THROUGH_CUT
 10
52.27746297563991
 20
19.66717200000001
 30
0.0
  0
VERTEX
  5
366
  8
THROUGH_CUT
 10
52.24980997563991
 20
19.64910500000001
 30
0.0
  0
VERTEX
  5
367
  8
THROUGH_CUT
 10
52.21956097563991
 20
19.635836
 30
0.0
  0
VERTEX
  5
368
  8
THROUGH_CUT
 10
52.18753997563991
 20
19.627728
 30
0.0
  0
VERTEX
  5
369
  8
THROUGH_CUT
 10
52.1546209756399
 20
19.625
 30
0.0
  0
VERTEX
  5
36A
  8
THROUGH_CUT
 10
51.4046209756399
 20
19.625
 30
0.0
  0
VERTEX
  5
36B
  8
THROUGH_CUT
 10
51.37170197563991
 20
19.627728
 30
0.0
  0
VERTEX
  5
36C
  8
THROUGH_CUT
 10
51.33968097563991
 20
19.635836
 30
0.0
  0
VERTEX
  5
36D
  8
THROUGH_CUT
 10
51.3094309756399
 20
19.64910500000001
 30
0.0
  0
VERTEX
  5
36E
  8
THROUGH_CUT
 10
51.28177797563991
 20
19.66717200000001
 30
0.0
  0
VERTEX
  5
36F
  8
THROUGH_CUT
 10
51.25747597563991
 20
19.689543
 30
0.0
  0
VERTEX
  5
370
  8
THROUGH_CUT
 10
51.23718797563991
 20
19.71561
 30
0.0
  0
VERTEX
  5
371
  8
THROUGH_CUT
 10
51.2214659756399
 20
19.74466100000001
 30
0.0
  0
VERTEX
  5
372
  8
THROUGH_CUT
 10
51.21074097563991
 20
19.775903
 30
0.0
  0
VERTEX
  5
373
  8
THROUGH_CUT
 10
51.20530397563991
 20
19.80848400000001
 30
0.0
  0
VERTEX
  5
374
  8
THROUGH_CUT
 10
51.20530397563991
 20
19.841516
 30
0.0
  0
VERTEX
  5
375
  8
THROUGH_CUT
 10
51.21074097563991
 20
19.87409700000001
 30
0.0
  0
VERTEX
  5
376
  8
THROUGH_CUT
 10
51.2214659756399
 20
19.905339
 30
0.0
  0
VERTEX
  5
377
  8
THROUGH_CUT
 10
51.23718797563991
 20
19.934389
 30
0.0
  0
VERTEX
  5
378
  8
THROUGH_CUT
 10
51.25747597563991
 20
19.96045600000001
 30
0.0
  0
VERTEX
  5
379
  8
THROUGH_CUT
 10
51.28177797563991
 20
19.982828
 30
0.0
  0
VERTEX
  5
37A
  8
THROUGH_CUT
 10
51.3094309756399
 20
20.000895
 30
0.0
  0
VERTEX
  5
37B
  8
THROUGH_CUT
 10
51.33968097563991
 20
20.014163
 30
0.0
  0
VERTEX
  5
37C
  8
THROUGH_CUT
 10
51.37170197563991
 20
20.022272
 30
0.0
  0
VERTEX
  5
37D
  8
THROUGH_CUT
 10
51.4046209756399
 20
20.02500000000001
 30
0.0
  0
VERTEX
  5
37E
  8
THROUGH_CUT
 10
51.4046209756399
 20
23.625
 30
0.0
  0
VERTEX
  5
37F
  8
THROUGH_CUT
 10
30.1546209756399
 20
23.625
 30
0.0
  0
VERTEX
  5
380
  8
THROUGH_CUT
 10
30.1546209756399
 20
20.02500000000001
 30
0.0
  0
VERTEX
  5
381
  8
THROUGH_CUT
 10
30.18753997563989
 20
20.022272
 30
0.0
  0
VERTEX
  5
382
  8
THROUGH_CUT
 10
30.21956097563991
 20
20.014163
 30
0.0
  0
VERTEX
  5
383
  8
THROUGH_CUT
 10
30.24980997563991
 20
20.000895
 30
0.0
  0
VERTEX
  5
384
  8
THROUGH_CUT
 10
30.27746297563992
 20
19.982828
 30
0.0
  0
VERTEX
  5
385
  8
THROUGH_CUT
 10
30.30176597563992
 20
19.96045600000001
 30
0.0
  0
VERTEX
  5
386
  8
THROUGH_CUT
 10
30.32205397563992
 20
19.934389
 30
0.0
  0
VERTEX
  5
387
  8
THROUGH_CUT
 10
30.3377759756399
 20
19.905339
 30
0.0
  0
VERTEX
  5
388
  8
THROUGH_CUT
 10
30.34850097563991
 20
19.87409700000001
 30
0.0
  0
VERTEX
  5
389
  8
THROUGH_CUT
 10
30.35393797563991
 20
19.841516
 30
0.0
  0
VERTEX
  5
38A
  8
THROUGH_CUT
 10
30.35393797563991
 20
19.80848400000001
 30
0.0
  0
VERTEX
  5
38B
  8
THROUGH_CUT
 10
30.34850097563991
 20
19.775903
 30
0.0
  0
VERTEX
  5
38C
  8
THROUGH_CUT
 10
30.3377759756399
 20
19.74466100000001
 30
0.0
  0
VERTEX
  5
38D
  8
THROUGH_CUT
 10
30.32205397563992
 20
19.71561
 30
0.0
  0
VERTEX
  5
38E
  8
THROUGH_CUT
 10
30.30176597563992
 20
19.689543
 30
0.0
  0
VERTEX
  5
38F
  8
THROUGH_CUT
 10
30.27746297563992
 20
19.66717200000001
 30
0.0
  0
VERTEX
  5
390
  8
THROUGH_CUT
 10
30.24980997563991
 20
19.64910500000001
 30
0.0
  0
VERTEX
  5
391
  8
THROUGH_CUT
 10
30.21956097563991
 20
19.635836
 30
0.0
  0
VERTEX
  5
392
  8
THROUGH_CUT
 10
30.18753997563989
 20
19.627728
 30
0.0
  0
VERTEX
  5
393
  8
THROUGH_CUT
 10
30.1546209756399
 20
19.625
 30
0.0
  0
VERTEX
  5
394
  8
THROUGH_CUT
 10
29.4046209756399
 20
19.625
 30
0.0
  0
VERTEX
  5
395
  8
THROUGH_CUT
 10
29.37170197563991
 20
19.627728
 30
0.0
  0
VERTEX
  5
396
  8
THROUGH_CUT
 10
29.33968097563992
 20
19.635836
 30
0.0
  0
VERTEX
  5
397
  8
THROUGH_CUT
 10
29.3094309756399
 20
19.64910500000001
 30
0.0
  0
VERTEX
  5
398
  8
THROUGH_CUT
 10
29.28177797563991
 20
19.66717200000001
 30
0.0
  0
VERTEX
  5
399
  8
THROUGH_CUT
 10
29.25747597563991
 20
19.689543
 30
0.0
  0
VERTEX
  5
39A
  8
THROUGH_CUT
 10
29.23718797563991
 20
19.71561
 30
0.0
  0
VERTEX
  5
39B
  8
THROUGH_CUT
 10
29.2214659756399
 20
19.74466100000001
 30
0.0
  0
VERTEX
  5
39C
  8
THROUGH_CUT
 10
29.21074097563992
 20
19.775903
 30
0.0
  0
VERTEX
  5
39D
  8
THROUGH_CUT
 10
29.20530397563989
 20
19.80848400000001
 30
0.0
  0
VERTEX
  5
39E
  8
THROUGH_CUT
 10
29.20530397563989
 20
19.841516
 30
0.0
  0
VERTEX
  5
39F
  8
THROUGH_CUT
 10
29.21074097563992
 20
19.87409700000001
 30
0.0
  0
VERTEX
  5
3A0
  8
THROUGH_CUT
 10
29.2214659756399
 20
19.905339
 30
0.0
  0
VERTEX
  5
3A1
  8
THROUGH_CUT
 10
29.23718797563991
 20
19.934389
 30
0.0
  0
VERTEX
  5
3A2
  8
THROUGH_CUT
 10
29.25747597563991
 20
19.96045600000001
 30
0.0
  0
VERTEX
  5
3A3
  8
THROUGH_CUT
 10
29.28177797563991
 20
19.982828
 30
0.0
  0
VERTEX
  5
3A4
  8
THROUGH_CUT
 10
29.3094309756399
 20
20.000895
 30
0.0
  0
VERTEX
  5
3A5
  8
THROUGH_CUT
 10
29.33968097563992
 20
20.014163
 30
0.0
  0
VERTEX
  5
3A6
  8
THROUGH_CUT
 10
29.37170197563991
 20
20.022272
 30
0.0
  0
VERTEX
  5
3A7
  8
THROUGH_CUT
 10
29.4046209756399
 20
20.02500000000001
 30
0.0
  0
VERTEX
  5
3A8
  8
THROUGH_CUT
 10
29.4046209756399
 20
23.625
 30
0.0
  0
VERTEX
  5
3A9
  8
THROUGH_CUT
 10
8.1546209756399
 20
23.625
 30
0.0
  0
VERTEX
  5
3AA
  8
THROUGH_CUT
 10
8.1546209756399
 20
20.02500000000001
 30
0.0
  0
VERTEX
  5
3AB
  8
THROUGH_CUT
 10
8.187539975639922
 20
20.022272
 30
0.0
  0
VERTEX
  5
3AC
  8
THROUGH_CUT
 10
8.219560975639908
 20
20.014163
 30
0.0
  0
VERTEX
  5
3AD
  8
THROUGH_CUT
 10
8.249809975639906
 20
20.000895
 30
0.0
  0
VERTEX
  5
3AE
  8
THROUGH_CUT
 10
8.27746297563992
 20
19.982828
 30
0.0
  0
VERTEX
  5
3AF
  8
THROUGH_CUT
 10
8.301765975639924
 20
19.96045600000001
 30
0.0
  0
VERTEX
  5
3B0
  8
THROUGH_CUT
 10
8.322053975639918
 20
19.934389
 30
0.0
  0
VERTEX
  5
3B1
  8
THROUGH_CUT
 10
8.3377759756399
 20
19.905339
 30
0.0
  0
VERTEX
  5
3B2
  8
THROUGH_CUT
 10
8.348500975639908
 20
19.87409700000001
 30
0.0
  0
VERTEX
  5
3B3
  8
THROUGH_CUT
 10
8.353937975639909
 20
19.841516
 30
0.0
  0
VERTEX
  5
3B4
  8
THROUGH_CUT
 10
8.353937975639909
 20
19.80848400000001
 30
0.0
  0
VERTEX
  5
3B5
  8
THROUGH_CUT
 10
8.348500975639908
 20
19.775903
 30
0.0
  0
VERTEX
  5
3B6
  8
THROUGH_CUT
 10
8.3377759756399
 20
19.74466100000001
 30
0.0
  0
VERTEX
  5
3B7
  8
THROUGH_CUT
 10
8.322053975639918
 20
19.71561
 30
0.0
  0
VERTEX
  5
3B8
  8
THROUGH_CUT
 10
8.301765975639924
 20
19.689543
 30
0.0
  0
VERTEX
  5
3B9
  8
THROUGH_CUT
 10
8.27746297563992
 20
19.66717200000001
 30
0.0
  0
VERTEX
  5
3BA
  8
THROUGH_CUT
 10
8.249809975639906
 20
19.64910500000001
 30
0.0
  0
VERTEX
  5
3BB
  8
THROUGH_CUT
 10
8.219560975639908
 20
19.635836
 30
0.0
  0
VERTEX
  5
3BC
  8
THROUGH_CUT
 10
8.187539975639922
 20
19.627728
 30
0.0
  0
VERTEX
  5
3BD
  8
THROUGH_CUT
 10
8.1546209756399
 20
19.625
 30
0.0
  0
VERTEX
  5
3BE
  8
THROUGH_CUT
 10
7.404620975639901
 20
19.625
 30
0.0
  0
VERTEX
  5
3BF
  8
THROUGH_CUT
 10
7.371701975639908
 20
19.627728
 30
0.0
  0
VERTEX
  5
3C0
  8
THROUGH_CUT
 10
7.339680975639922
 20
19.635836
 30
0.0
  0
VERTEX
  5
3C1
  8
THROUGH_CUT
 10
7.309430975639899
 20
19.64910500000001
 30
0.0
  0
VERTEX
  5
3C2
  8
THROUGH_CUT
 10
7.281777975639912
 20
19.66717200000001
 30
0.0
  0
VERTEX
  5
3C3
  8
THROUGH_CUT
 10
7.257475975639906
 20
19.689543
 30
0.0
  0
VERTEX
  5
3C4
  8
THROUGH_CUT
 10
7.237187975639912
 20
19.71561
 30
0.0
  0
VERTEX
  5
3C5
  8
THROUGH_CUT
 10
7.221465975639902
 20
19.74466100000001
 30
0.0
  0
VERTEX
  5
3C6
  8
THROUGH_CUT
 10
7.210740975639922
 20
19.775903
 30
0.0
  0
VERTEX
  5
3C7
  8
THROUGH_CUT
 10
7.205303975639922
 20
19.80848400000001
 30
0.0
  0
VERTEX
  5
3C8
  8
THROUGH_CUT
 10
7.205303975639922
 20
19.841516
 30
0.0
  0
VERTEX
  5
3C9
  8
THROUGH_CUT
 10
7.210740975639922
 20
19.87409700000001
 30
0.0
  0
VERTEX
  5
3CA
  8
THROUGH_CUT
 10
7.221465975639902
 20
19.905339
 30
0.0
  0
VERTEX
  5
3CB
  8
THROUGH_CUT
 10
7.237187975639912
 20
19.934389
 30
0.0
  0
VERTEX
  5
3CC
  8
THROUGH_CUT
 10
7.257475975639906
 20
19.96045600000001
 30
0.0
  0
VERTEX
  5
3CD
  8
THROUGH_CUT
 10
7.281777975639912
 20
19.982828
 30
0.0
  0
VERTEX
  5
3CE
  8
THROUGH_CUT
 10
7.309430975639899
 20
20.000895
 30
0.0
  0
VERTEX
  5
3CF
  8
THROUGH_CUT
 10
7.339680975639922
 20
20.014163
 30
0.0
  0
VERTEX
  5
3D0
  8
THROUGH_CUT
 10
7.371701975639908
 20
20.022272
 30
0.0
  0
VERTEX
  5
3D1
  8
THROUGH_CUT
 10
7.404620975639901
 20
20.02500000000001
 30
0.0
  0
VERTEX
  5
3D2
  8
THROUGH_CUT
 10
7.404620975639901
 20
23.625
 30
0.0
  0
VERTEX
  5
3D3
  8
THROUGH_CUT
 10
5.261538975639908
 20
23.625
 30
0.0
  0
VERTEX
  5
3D4
  8
THROUGH_CUT
 10
5.261538975639908
 20
21.907843
 30
0.0
  0
VERTEX
  5
3D5
  8
THROUGH_CUT
 10
5.283947975639919
 20
21.881137
 30
0.0
  0
VERTEX
  5
3D6
  8
THROUGH_CUT
 10
5.301379975639904
 20
21.850945
 30
0.0
  0
VERTEX
  5
3D7
  8
THROUGH_CUT
 10
5.3133029756399
 20
21.818185
 30
0.0
  0
VERTEX
  5
3D8
  8
THROUGH_CUT
 10
5.319356975639906
 20
21.78385300000001
 30
0.0
  0
VERTEX
  5
3D9
  8
THROUGH_CUT
 10
5.319356975639906
 20
21.748991
 30
0.0
  0
VERTEX
  5
3DA
  8
THROUGH_CUT
 10
5.3133029756399
 20
21.714658
 30
0.0
  0
VERTEX
  5
3DB
  8
THROUGH_CUT
 10
5.301379975639904
 20
21.681898
 30
0.0
  0
VERTEX
  5
3DC
  8
THROUGH_CUT
 10
5.283948975639916
 20
21.651706
 30
0.0
  0
VERTEX
  5
3DD
  8
THROUGH_CUT
 10
5.261539975639906
 20
21.625
 30
0.0
  0
VERTEX
  5
3DE
  8
THROUGH_CUT
 10
5.234833975639916
 20
21.602591
 30
0.0
  0
VERTEX
  5
3DF
  8
THROUGH_CUT
 10
5.204641975639916
 20
21.58516
 30
0.0
  0
VERTEX
  5
3E0
  8
THROUGH_CUT
 10
5.17188197563992
 20
21.57323600000001
 30
0.0
  0
VERTEX
  5
3E1
  8
THROUGH_CUT
 10
5.137549975639914
 20
21.567183
 30
0.0
  0
VERTEX
  5
3E2
  8
THROUGH_CUT
 10
5.102686975639912
 20
21.567182
 30
0.0
  0
VERTEX
  5
3E3
  8
THROUGH_CUT
 10
5.068354975639906
 20
21.57323600000001
 30
0.0
  0
VERTEX
  5
3E4
  8
THROUGH_CUT
 10
5.03559497563991
 20
21.58516
 30
0.0
  0
VERTEX
  5
3E5
  8
THROUGH_CUT
 10
5.00540297563991
 20
21.602591
 30
0.0
  0
VERTEX
  5
3E6
  8
THROUGH_CUT
 10
4.97869697563992
 20
21.625
 30
0.0
  0
VERTEX
  5
3E7
  8
THROUGH_CUT
 10
3.999742975639904
 20
21.625
 30
0.0
 42
0.4142135623730991
  0
VERTEX
  5
3E8
  8
THROUGH_CUT
 10
3.499742975639904
 20
21.125
 30
0.0
  0
VERTEX
  5
3E9
  8
THROUGH_CUT
 10
3.499742975639904
 20
18.125
 30
0.0
 42
0.4142135623730991
  0
VERTEX
  5
3EA
  8
THROUGH_CUT
 10
3.999742975639904
 20
17.625
 30
0.0
  0
VERTEX
  5
3EB
  8
THROUGH_CUT
 10
4.97869697563992
 20
17.625
 30
0.0
  0
VERTEX
  5
3EC
  8
THROUGH_CUT
 10
5.003902975639917
 20
17.646348
 30
0.0
  0
VERTEX
  5
3ED
  8
THROUGH_CUT
 10
5.032278975639898
 20
17.663257
 30
0.0
  0
VERTEX
  5
3EE
  8
THROUGH_CUT
 10
5.063050975639911
 20
17.675264
 30
0.0
  0
VERTEX
  5
3EF
  8
THROUGH_CUT
 10
5.095379975639915
 20
17.682042
 30
0.0
  0
VERTEX
  5
3F0
  8
THROUGH_CUT
 10
5.12838397563992
 20
17.683407
 30
0.0
  0
VERTEX
  5
3F1
  8
THROUGH_CUT
 10
5.161161975639899
 20
17.679321
 30
0.0
  0
VERTEX
  5
3F2
  8
THROUGH_CUT
 10
5.192819975639921
 20
17.66989600000001
 30
0.0
  0
VERTEX
  5
3F3
  8
THROUGH_CUT
 10
5.222495975639916
 20
17.655389
 30
0.0
  0
VERTEX
  5
3F4
  8
THROUGH_CUT
 10
5.249377975639916
 20
17.636195
 30
0.0
  0
VERTEX
  5
3F5
  8
THROUGH_CUT
 10
5.272734975639921
 20
17.612838
 30
0.0
  0
VERTEX
  5
3F6
  8
THROUGH_CUT
 10
5.291928975639919
 20
17.585955
 30
0.0
  0
VERTEX
  5
3F7
  8
THROUGH_CUT
 10
5.3064359756399
 20
17.556279
 30
0.0
  0
VERTEX
  5
3F8
  8
THROUGH_CUT
 10
5.315861975639919
 20
17.524621
 30
0.0
  0
VERTEX
  5
3F9
  8
THROUGH_CUT
 10
5.319946975639922
 20
17.491843
 30
0.0
  0
VERTEX
  5
3FA
  8
THROUGH_CUT
 10
5.318581975639901
 20
17.458839
 30
0.0
  0
VERTEX
  5
3FB
  8
THROUGH_CUT
 10
5.311803975639904
 20
17.426511
 30
0.0
  0
VERTEX
  5
3FC
  8
THROUGH_CUT
 10
5.299795975639896
 20
17.39573900000001
 30
0.0
  0
VERTEX
  5
3FD
  8
THROUGH_CUT
 10
5.282887975639895
 20
17.367363
 30
0.0
  0
VERTEX
  5
3FE
  8
THROUGH_CUT
 10
5.261538975639908
 20
17.342157
 30
0.0
  0
VERTEX
  5
3FF
  8
THROUGH_CUT
 10
5.261538975639908
 20
16.625
 30
0.0
  0
VERTEX
  5
400
  8
THROUGH_CUT
 10
84.77962097563992
 20
16.624999
 30
0.0
  0
VERTEX
  5
401
  8
THROUGH_CUT
 10
91.44462911488901
 20
18.69229012227365
 30
0.0
 42
0.7368231252251602
  0
VERTEX
  5
402
  8
THROUGH_CUT
 10
91.44464599145988
 20
21.55761677950384
 30
0.0
  0
VERTEX
  5
403
  8
THROUGH_CUT
 10
84.77962097563992
 20
23.625
 30
0.0
  0
VERTEX
  5
404
  8
THROUGH_CUT
 10
74.15462097563992
 20
23.625
 30
0.0
  0
VERTEX
  5
405
  8
THROUGH_CUT
 10
74.15462097563992
 20
20.02500000000001
 30
0.0
  0
VERTEX
  5
406
  8
THROUGH_CUT
 10
74.18753997563991
 20
20.022272
 30
0.0
  0
VERTEX
  5
407
  8
THROUGH_CUT
 10
74.21956097563991
 20
20.014163
 30
0.0
  0
VERTEX
  5
408
  8
THROUGH_CUT
 10
74.2498099756399
 20
20.000895
 30
0.0
  0
VERTEX
  5
409
  8
THROUGH_CUT
 10
74.2774629756399
 20
19.982828
 30
0.0
  0
VERTEX
  5
40A
  8
THROUGH_CUT
 10
74.30176597563991
 20
19.96045600000001
 30
0.0
  0
VERTEX
  5
40B
  8
THROUGH_CUT
 10
74.3220539756399
 20
19.934389
 30
0.0
  0
VERTEX
  5
40C
  8
THROUGH_CUT
 10
74.33777597563991
 20
19.905339
 30
0.0
  0
VERTEX
  5
40D
  8
THROUGH_CUT
 10
74.34850097563991
 20
19.87409700000001
 30
0.0
  0
VERTEX
  5
40E
  8
THROUGH_CUT
 10
74.35393797563991
 20
19.841516
 30
0.0
  0
VERTEX
  5
40F
  8
THROUGH_CUT
 10
74.35393797563991
 20
19.80848400000001
 30
0.0
  0
VERTEX
  5
410
  8
THROUGH_CUT
 10
74.34850097563991
 20
19.775903
 30
0.0
  0
VERTEX
  5
411
  8
THROUGH_CUT
 10
74.33777597563991
 20
19.74466100000001
 30
0.0
  0
VERTEX
  5
412
  8
THROUGH_CUT
 10
74.3220539756399
 20
19.71561
 30
0.0
  0
VERTEX
  5
413
  8
THROUGH_CUT
 10
74.30176597563991
 20
19.689543
 30
0.0
  0
VERTEX
  5
414
  8
THROUGH_CUT
 10
74.2774629756399
 20
19.66717200000001
 30
0.0
  0
VERTEX
  5
415
  8
THROUGH_CUT
 10
74.2498099756399
 20
19.64910500000001
 30
0.0
  0
VERTEX
  5
416
  8
THROUGH_CUT
 10
74.21956097563991
 20
19.635836
 30
0.0
  0
VERTEX
  5
417
  8
THROUGH_CUT
 10
74.18753997563991
 20
19.627728
 30
0.0
  0
VERTEX
  5
418
  8
THROUGH_CUT
 10
74.15462097563992
 20
19.625
 30
0.0
  0
VERTEX
  5
419
  8
THROUGH_CUT
 10
73.40462097563992
 20
19.625
 30
0.0
  0
VERTEX
  5
41A
  8
THROUGH_CUT
 10
73.37170197563991
 20
19.627728
 30
0.0
  0
VERTEX
  5
41B
  8
THROUGH_CUT
 10
73.33968097563991
 20
19.635836
 30
0.0
  0
VERTEX
  5
41C
  8
THROUGH_CUT
 10
73.30943097563991
 20
19.64910500000001
 30
0.0
  0
VERTEX
  5
41D
  8
THROUGH_CUT
 10
73.28177797563991
 20
19.66717200000001
 30
0.0
  0
VERTEX
  5
41E
  8
THROUGH_CUT
 10
73.2574759756399
 20
19.689543
 30
0.0
  0
VERTEX
  5
41F
  8
THROUGH_CUT
 10
73.23718797563991
 20
19.71561
 30
0.0
  0
VERTEX
  5
420
  8
THROUGH_CUT
 10
73.22146597563992
 20
19.74466100000001
 30
0.0
  0
VERTEX
  5
421
  8
THROUGH_CUT
 10
73.21074097563991
 20
19.775903
 30
0.0
  0
VERTEX
  5
422
  8
THROUGH_CUT
 10
73.20530397563991
 20
19.80848400000001
 30
0.0
  0
VERTEX
  5
423
  8
THROUGH_CUT
 10
73.20530397563991
 20
19.841516
 30
0.0
  0
VERTEX
  5
424
  8
THROUGH_CUT
 10
73.21074097563991
 20
19.87409700000001
 30
0.0
  0
VERTEX
  5
425
  8
THROUGH_CUT
 10
73.22146597563992
 20
19.905339
 30
0.0
  0
VERTEX
  5
426
  8
THROUGH_CUT
 10
73.23718797563991
 20
19.934389
 30
0.0
  0
VERTEX
  5
427
  8
THROUGH_CUT
 10
73.2574759756399
 20
19.96045600000001
 30
0.0
  0
VERTEX
  5
428
  8
THROUGH_CUT
 10
73.28177797563991
 20
19.982828
 30
0.0
  0
VERTEX
  5
429
  8
THROUGH_CUT
 10
73.30943097563991
 20
20.000895
 30
0.0
  0
VERTEX
  5
42A
  8
THROUGH_CUT
 10
73.33968097563991
 20
20.014163
 30
0.0
  0
VERTEX
  5
42B
  8
THROUGH_CUT
 10
73.37170197563991
 20
20.022272
 30
0.0
  0
VERTEX
  5
42C
  8
THROUGH_CUT
 10
73.40462097563992
 20
20.02500000000001
 30
0.0
  0
SEQEND
  5
42D
  8
THROUGH_CUT
  0
POLYLINE
  5
57
  8
THROUGH_CUT
 66
     1
 10
0.0
 20
0.0
 30
0.0
 70
     1
  0
VERTEX
  5
42E
  8
THROUGH_CUT
 10
73.40462097563992
 20
15.874999
 30
0.0
  0
VERTEX
  5
42F
  8
THROUGH_CUT
 10
52.1546209756399
 20
15.874999
 30
0.0
  0
VERTEX
  5
430
  8
THROUGH_CUT
 10
52.1546209756399
 20
12.27499900000001
 30
0.0
  0
VERTEX
  5
431
  8
THROUGH_CUT
 10
52.18753997563991
 20
12.272271
 30
0.0
  0
VERTEX
  5
432
  8
THROUGH_CUT
 10
52.21956097563991
 20
12.264162
 30
0.0
  0
VERTEX
  5
433
  8
THROUGH_CUT
 10
52.24980997563991
 20
12.250894
 30
0.0
  0
VERTEX
  5
434
  8
THROUGH_CUT
 10
52.27746297563991
 20
12.232827
 30
0.0
  0
VERTEX
  5
435
  8
THROUGH_CUT
 10
52.30176597563991
 20
12.21045500000001
 30
0.0
  0
VERTEX
  5
436
  8
THROUGH_CUT
 10
52.32205397563992
 20
12.184388
 30
0.0
  0
VERTEX
  5
437
  8
THROUGH_CUT
 10
52.3377759756399
 20
12.155338
 30
0.0
  0
VERTEX
  5
438
  8
THROUGH_CUT
 10
52.34850097563991
 20
12.12409600000001
 30
0.0
  0
VERTEX
  5
439
  8
THROUGH_CUT
 10
52.35393797563991
 20
12.091515
 30
0.0
  0
VERTEX
  5
43A
  8
THROUGH_CUT
 10
52.35393797563991
 20
12.05848300000001
 30
0.0
  0
VERTEX
  5
43B
  8
THROUGH_CUT
 10
52.34850097563991
 20
12.025902
 30
0.0
  0
VERTEX
  5
43C
  8
THROUGH_CUT
 10
52.3377759756399
 20
11.99466000000001
 30
0.0
  0
VERTEX
  5
43D
  8
THROUGH_CUT
 10
52.32205397563992
 20
11.965609
 30
0.0
  0
VERTEX
  5
43E
  8
THROUGH_CUT
 10
52.30176597563991
 20
11.939542
 30
0.0
  0
VERTEX
  5
43F
  8
THROUGH_CUT
 10
52.27746297563991
 20
11.91717100000001
 30
0.0
  0
VERTEX
  5
440
  8
THROUGH_CUT
 10
52.24980997563991
 20
11.89910400000001
 30
0.0
  0
VERTEX
  5
441
  8
THROUGH_CUT
 10
52.21956097563991
 20
11.885835
 30
0.0
  0
VERTEX
  5
442
  8
THROUGH_CUT
 10
52.18753997563991
 20
11.87772700000001
 30
0.0
  0
VERTEX
  5
443
  8
THROUGH_CUT
 10
52.1546209756399
 20
11.874999
 30
0.0
  0
VERTEX
  5
444
  8
THROUGH_CUT
 10
51.4046209756399
 20
11.874999
 30
0.0
  0
VERTEX
  5
445
  8
THROUGH_CUT
 10
51.37170197563991
 20
11.87772700000001
 30
0.0
  0
VERTEX
  5
446
  8
THROUGH_CUT
 10
51.33968097563991
 20
11.885835
 30
0.0
  0
VERTEX
  5
447
  8
THROUGH_CUT
 10
51.3094309756399
 20
11.89910400000001
 30
0.0
  0
VERTEX
  5
448
  8
THROUGH_CUT
 10
51.28177797563991
 20
11.91717100000001
 30
0.0
  0
VERTEX
  5
449
  8
THROUGH_CUT
 10
51.25747597563991
 20
11.939542
 30
0.0
  0
VERTEX
  5
44A
  8
THROUGH_CUT
 10
51.23718797563991
 20
11.965609
 30
0.0
  0
VERTEX
  5
44B
  8
THROUGH_CUT
 10
51.2214659756399
 20
11.99466000000001
 30
0.0
  0
VERTEX
  5
44C
  8
THROUGH_CUT
 10
51.21074097563991
 20
12.025902
 30
0.0
  0
VERTEX
  5
44D
  8
THROUGH_CUT
 10
51.20530397563991
 20
12.05848300000001
 30
0.0
  0
VERTEX
  5
44E
  8
THROUGH_CUT
 10
51.20530397563991
 20
12.091515
 30
0.0
  0
VERTEX
  5
44F
  8
THROUGH_CUT
 10
51.21074097563991
 20
12.12409600000001
 30
0.0
  0
VERTEX
  5
450
  8
THROUGH_CUT
 10
51.2214659756399
 20
12.155338
 30
0.0
  0
VERTEX
  5
451
  8
THROUGH_CUT
 10
51.23718797563991
 20
12.184388
 30
0.0
  0
VERTEX
  5
452
  8
THROUGH_CUT
 10
51.25747597563991
 20
12.21045500000001
 30
0.0
  0
VERTEX
  5
453
  8
THROUGH_CUT
 10
51.28177797563991
 20
12.232827
 30
0.0
  0
VERTEX
  5
454
  8
THROUGH_CUT
 10
51.3094309756399
 20
12.250894
 30
0.0
  0
VERTEX
  5
455
  8
THROUGH_CUT
 10
51.33968097563991
 20
12.264162
 30
0.0
  0
VERTEX
  5
456
  8
THROUGH_CUT
 10
51.37170197563991
 20
12.272271
 30
0.0
  0
VERTEX
  5
457
  8
THROUGH_CUT
 10
51.4046209756399
 20
12.27499900000001
 30
0.0
  0
VERTEX
  5
458
  8
THROUGH_CUT
 10
51.4046209756399
 20
15.874999
 30
0.0
  0
VERTEX
  5
459
  8
THROUGH_CUT
 10
30.1546209756399
 20
15.874999
 30
0.0
  0
VERTEX
  5
45A
  8
THROUGH_CUT
 10
30.1546209756399
 20
12.27499900000001
 30
0.0
  0
VERTEX
  5
45B
  8
THROUGH_CUT
 10
30.18753997563989
 20
12.272271
 30
0.0
  0
VERTEX
  5
45C
  8
THROUGH_CUT
 10
30.21956097563991
 20
12.264162
 30
0.0
  0
VERTEX
  5
45D
  8
THROUGH_CUT
 10
30.24980997563991
 20
12.250894
 30
0.0
  0
VERTEX
  5
45E
  8
THROUGH_CUT
 10
30.27746297563992
 20
12.232827
 30
0.0
  0
VERTEX
  5
45F
  8
THROUGH_CUT
 10
30.30176597563992
 20
12.21045500000001
 30
0.0
  0
VERTEX
  5
460
  8
THROUGH_CUT
 10
30.32205397563992
 20
12.184388
 30
0.0
  0
VERTEX
  5
461
  8
THROUGH_CUT
 10
30.3377759756399
 20
12.155338
 30
0.0
  0
VERTEX
  5
462
  8
THROUGH_CUT
 10
30.34850097563991
 20
12.12409600000001
 30
0.0
  0
VERTEX
  5
463
  8
THROUGH_CUT
 10
30.35393797563991
 20
12.091515
 30
0.0
  0
VERTEX
  5
464
  8
THROUGH_CUT
 10
30.35393797563991
 20
12.05848300000001
 30
0.0
  0
VERTEX
  5
465
  8
THROUGH_CUT
 10
30.34850097563991
 20
12.025902
 30
0.0
  0
VERTEX
  5
466
  8
THROUGH_CUT
 10
30.3377759756399
 20
11.99466000000001
 30
0.0
  0
VERTEX
  5
467
  8
THROUGH_CUT
 10
30.32205397563992
 20
11.965609
 30
0.0
  0
VERTEX
  5
468
  8
THROUGH_CUT
 10
30.30176597563992
 20
11.939542
 30
0.0
  0
VERTEX
  5
469
  8
THROUGH_CUT
 10
30.27746297563992
 20
11.91717100000001
 30
0.0
  0
VERTEX
  5
46A
  8
THROUGH_CUT
 10
30.24980997563991
 20
11.89910400000001
 30
0.0
  0
VERTEX
  5
46B
  8
THROUGH_CUT
 10
30.21956097563991
 20
11.885835
 30
0.0
  0
VERTEX
  5
46C
  8
THROUGH_CUT
 10
30.18753997563989
 20
11.87772700000001
 30
0.0
  0
VERTEX
  5
46D
  8
THROUGH_CUT
 10
30.1546209756399
 20
11.874999
 30
0.0
  0
VERTEX
  5
46E
  8
THROUGH_CUT
 10
29.4046209756399
 20
11.874999
 30
0.0
  0
VERTEX
  5
46F
  8
THROUGH_CUT
 10
29.37170197563991
 20
11.87772700000001
 30
0.0
  0
VERTEX
  5
470
  8
THROUGH_CUT
 10
29.33968097563992
 20
11.885835
 30
0.0
  0
VERTEX
  5
471
  8
THROUGH_CUT
 10
29.3094309756399
 20
11.89910400000001
 30
0.0
  0
VERTEX
  5
472
  8
THROUGH_CUT
 10
29.28177797563991
 20
11.91717100000001
 30
0.0
  0
VERTEX
  5
473
  8
THROUGH_CUT
 10
29.25747597563991
 20
11.939542
 30
0.0
  0
VERTEX
  5
474
  8
THROUGH_CUT
 10
29.23718797563991
 20
11.965609
 30
0.0
  0
VERTEX
  5
475
  8
THROUGH_CUT
 10
29.2214659756399
 20
11.99466000000001
 30
0.0
  0
VERTEX
  5
476
  8
THROUGH_CUT
 10
29.21074097563992
 20
12.025902
 30
0.0
  0
VERTEX
  5
477
  8
THROUGH_CUT
 10
29.20530397563989
 20
12.05848300000001
 30
0.0
  0
VERTEX
  5
478
  8
THROUGH_CUT
 10
29.20530397563989
 20
12.091515
 30
0.0
  0
VERTEX
  5
479
  8
THROUGH_CUT
 10
29.21074097563992
 20
12.12409600000001
 30
0.0
  0
VERTEX
  5
47A
  8
THROUGH_CUT
 10
29.2214659756399
 20
12.155338
 30
0.0
  0
VERTEX
  5
47B
  8
THROUGH_CUT
 10
29.23718797563991
 20
12.184388
 30
0.0
  0
VERTEX
  5
47C
  8
THROUGH_CUT
 10
29.25747597563991
 20
12.21045500000001
 30
0.0
  0
VERTEX
  5
47D
  8
THROUGH_CUT
 10
29.28177797563991
 20
12.232827
 30
0.0
  0
VERTEX
  5
47E
  8
THROUGH_CUT
 10
29.3094309756399
 20
12.250894
 30
0.0
  0
VERTEX
  5
47F
  8
THROUGH_CUT
 10
29.33968097563992
 20
12.264162
 30
0.0
  0
VERTEX
  5
480
  8
THROUGH_CUT
 10
29.37170197563991
 20
12.272271
 30
0.0
  0
VERTEX
  5
481
  8
THROUGH_CUT
 10
29.4046209756399
 20
12.27499900000001
 30
0.0
  0
VERTEX
  5
482
  8
THROUGH_CUT
 10
29.4046209756399
 20
15.874999
 30
0.0
  0
VERTEX
  5
483
  8
THROUGH_CUT
 10
8.1546209756399
 20
15.874999
 30
0.0
  0
VERTEX
  5
484
  8
THROUGH_CUT
 10
8.1546209756399
 20
12.27499900000001
 30
0.0
  0
VERTEX
  5
485
  8
THROUGH_CUT
 10
8.187539975639922
 20
12.272271
 30
0.0
  0
VERTEX
  5
486
  8
THROUGH_CUT
 10
8.219560975639908
 20
12.264162
 30
0.0
  0
VERTEX
  5
487
  8
THROUGH_CUT
 10
8.249809975639906
 20
12.250894
 30
0.0
  0
VERTEX
  5
488
  8
THROUGH_CUT
 10
8.27746297563992
 20
12.232827
 30
0.0
  0
VERTEX
  5
489
  8
THROUGH_CUT
 10
8.301765975639924
 20
12.21045500000001
 30
0.0
  0
VERTEX
  5
48A
  8
THROUGH_CUT
 10
8.322053975639918
 20
12.184388
 30
0.0
  0
VERTEX
  5
48B
  8
THROUGH_CUT
 10
8.3377759756399
 20
12.155338
 30
0.0
  0
VERTEX
  5
48C
  8
THROUGH_CUT
 10
8.348500975639908
 20
12.12409600000001
 30
0.0
  0
VERTEX
  5
48D
  8
THROUGH_CUT
 10
8.353937975639909
 20
12.091515
 30
0.0
  0
VERTEX
  5
48E
  8
THROUGH_CUT
 10
8.353937975639909
 20
12.05848300000001
 30
0.0
  0
VERTEX
  5
48F
  8
THROUGH_CUT
 10
8.348500975639908
 20
12.025902
 30
0.0
  0
VERTEX
  5
490
  8
THROUGH_CUT
 10
8.3377759756399
 20
11.99466000000001
 30
0.0
  0
VERTEX
  5
491
  8
THROUGH_CUT
 10
8.322053975639918
 20
11.965609
 30
0.0
  0
VERTEX
  5
492
  8
THROUGH_CUT
 10
8.301765975639924
 20
11.939542
 30
0.0
  0
VERTEX
  5
493
  8
THROUGH_CUT
 10
8.27746297563992
 20
11.91717100000001
 30
0.0
  0
VERTEX
  5
494
  8
THROUGH_CUT
 10
8.249809975639906
 20
11.89910400000001
 30
0.0
  0
VERTEX
  5
495
  8
THROUGH_CUT
 10
8.219560975639908
 20
11.885835
 30
0.0
  0
VERTEX
  5
496
  8
THROUGH_CUT
 10
8.187539975639922
 20
11.87772700000001
 30
0.0
  0
VERTEX
  5
497
  8
THROUGH_CUT
 10
8.1546209756399
 20
11.874999
 30
0.0
  0
VERTEX
  5
498
  8
THROUGH_CUT
 10
7.404620975639901
 20
11.874999
 30
0.0
  0
VERTEX
  5
499
  8
THROUGH_CUT
 10
7.371701975639908
 20
11.87772700000001
 30
0.0
  0
VERTEX
  5
49A
  8
THROUGH_CUT
 10
7.339680975639922
 20
11.885835
 30
0.0
  0
VERTEX
  5
49B
  8
THROUGH_CUT
 10
7.309430975639899
 20
11.89910400000001
 30
0.0
  0
VERTEX
  5
49C
  8
THROUGH_CUT
 10
7.281777975639912
 20
11.91717100000001
 30
0.0
  0
VERTEX
  5
49D
  8
THROUGH_CUT
 10
7.257475975639906
 20
11.939542
 30
0.0
  0
VERTEX
  5
49E
  8
THROUGH_CUT
 10
7.237187975639912
 20
11.965609
 30
0.0
  0
VERTEX
  5
49F
  8
THROUGH_CUT
 10
7.221465975639902
 20
11.99466000000001
 30
0.0
  0
VERTEX
  5
4A0
  8
THROUGH_CUT
 10
7.210740975639922
 20
12.025902
 30
0.0
  0
VERTEX
  5
4A1
  8
THROUGH_CUT
 10
7.205303975639922
 20
12.05848300000001
 30
0.0
  0
VERTEX
  5
4A2
  8
THROUGH_CUT
 10
7.205303975639922
 20
12.091515
 30
0.0
  0
VERTEX
  5
4A3
  8
THROUGH_CUT
 10
7.210740975639922
 20
12.12409600000001
 30
0.0
  0
VERTEX
  5
4A4
  8
THROUGH_CUT
 10
7.221465975639902
 20
12.155338
 30
0.0
  0
VERTEX
  5
4A5
  8
THROUGH_CUT
 10
7.237187975639912
 20
12.184388
 30
0.0
  0
VERTEX
  5
4A6
  8
THROUGH_CUT
 10
7.257475975639906
 20
12.21045500000001
 30
0.0
  0
VERTEX
  5
4A7
  8
THROUGH_CUT
 10
7.281777975639912
 20
12.232827
 30
0.0
  0
VERTEX
  5
4A8
  8
THROUGH_CUT
 10
7.309430975639899
 20
12.250894
 30
0.0
  0
VERTEX
  5
4A9
  8
THROUGH_CUT
 10
7.339680975639922
 20
12.264162
 30
0.0
  0
VERTEX
  5
4AA
  8
THROUGH_CUT
 10
7.371701975639908
 20
12.272271
 30
0.0
  0
VERTEX
  5
4AB
  8
THROUGH_CUT
 10
7.404620975639901
 20
12.27499900000001
 30
0.0
  0
VERTEX
  5
4AC
  8
THROUGH_CUT
 10
7.404620975639901
 20
15.874999
 30
0.0
  0
VERTEX
  5
4AD
  8
THROUGH_CUT
 10
5.261538975639908
 20
15.874999
 30
0.0
  0
VERTEX
  5
4AE
  8
THROUGH_CUT
 10
5.261538975639908
 20
14.157842
 30
0.0
  0
VERTEX
  5
4AF
  8
THROUGH_CUT
 10
5.283947975639919
 20
14.131136
 30
0.0
  0
VERTEX
  5
4B0
  8
THROUGH_CUT
 10
5.301379975639904
 20
14.100944
 30
0.0
  0
VERTEX
  5
4B1
  8
THROUGH_CUT
 10
5.3133029756399
 20
14.068184
 30
0.0
  0
VERTEX
  5
4B2
  8
THROUGH_CUT
 10
5.319356975639906
 20
14.03385200000001
 30
0.0
  0
VERTEX
  5
4B3
  8
THROUGH_CUT
 10
5.319356975639906
 20
13.99899000000001
 30
0.0
  0
VERTEX
  5
4B4
  8
THROUGH_CUT
 10
5.3133029756399
 20
13.964657
 30
0.0
  0
VERTEX
  5
4B5
  8
THROUGH_CUT
 10
5.301379975639904
 20
13.93189700000001
 30
0.0
  0
VERTEX
  5
4B6
  8
THROUGH_CUT
 10
5.283948975639916
 20
13.90170500000001
 30
0.0
  0
VERTEX
  5
4B7
  8
THROUGH_CUT
 10
5.261539975639906
 20
13.874999
 30
0.0
  0
VERTEX
  5
4B8
  8
THROUGH_CUT
 10
5.234833975639916
 20
13.85259000000001
 30
0.0
  0
VERTEX
  5
4B9
  8
THROUGH_CUT
 10
5.204641975639916
 20
13.835159
 30
0.0
  0
VERTEX
  5
4BA
  8
THROUGH_CUT
 10
5.17188197563992
 20
13.82323500000001
 30
0.0
  0
VERTEX
  5
4BB
  8
THROUGH_CUT
 10
5.137549975639914
 20
13.817182
 30
0.0
  0
VERTEX
  5
4BC
  8
THROUGH_CUT
 10
5.102686975639912
 20
13.81718100000001
 30
0.0
  0
VERTEX
  5
4BD
  8
THROUGH_CUT
 10
5.068354975639906
 20
13.82323500000001
 30
0.0
  0
VERTEX
  5
4BE
  8
THROUGH_CUT
 10
5.03559497563991
 20
13.835159
 30
0.0
  0
VERTEX
  5
4BF
  8
THROUGH_CUT
 10
5.00540297563991
 20
13.85259000000001
 30
0.0
  0
VERTEX
  5
4C0
  8
THROUGH_CUT
 10
4.97869697563992
 20
13.874999
 30
0.0
  0
VERTEX
  5
4C1
  8
THROUGH_CUT
 10
3.999742975639904
 20
13.874999
 30
0.0
 42
0.4142135623731007
  0
VERTEX
  5
4C2
  8
THROUGH_CUT
 10
3.499742975639904
 20
13.374999
 30
0.0
  0
VERTEX
  5
4C3
  8
THROUGH_CUT
 10
3.499742975639904
 20
10.374999
 30
0.0
 42
0.4142135623730983
  0
VERTEX
  5
4C4
  8
THROUGH_CUT
 10
3.999742975639904
 20
9.874999000000003
 30
0.0
  0
VERTEX
  5
4C5
  8
THROUGH_CUT
 10
4.97869697563992
 20
9.874999000000003
 30
0.0
  0
VERTEX
  5
4C6
  8
THROUGH_CUT
 10
5.003902975639917
 20
9.896347000000006
 30
0.0
  0
VERTEX
  5
4C7
  8
THROUGH_CUT
 10
5.032278975639898
 20
9.913256000000004
 30
0.0
  0
VERTEX
  5
4C8
  8
THROUGH_CUT
 10
5.063050975639911
 20
9.925263000000001
 30
0.0
  0
VERTEX
  5
4C9
  8
THROUGH_CUT
 10
5.095379975639915
 20
9.932040999999998
 30
0.0
  0
VERTEX
  5
4CA
  8
THROUGH_CUT
 10
5.12838397563992
 20
9.933406000000005
 30
0.0
  0
VERTEX
  5
4CB
  8
THROUGH_CUT
 10
5.161161975639899
 20
9.929320000000004
 30
0.0
  0
VERTEX
  5
4CC
  8
THROUGH_CUT
 10
5.192819975639921
 20
9.919895000000011
 30
0.0
  0
VERTEX
  5
4CD
  8
THROUGH_CUT
 10
5.222495975639916
 20
9.905388000000002
 30
0.0
  0
VERTEX
  5
4CE
  8
THROUGH_CUT
 10
5.249377975639916
 20
9.886194000000003
 30
0.0
  0
VERTEX
  5
4CF
  8
THROUGH_CUT
 10
5.272734975639921
 20
9.862836999999999
 30
0.0
  0
VERTEX
  5
4D0
  8
THROUGH_CUT
 10
5.291928975639919
 20
9.835954000000001
 30
0.0
  0
VERTEX
  5
4D1
  8
THROUGH_CUT
 10
5.3064359756399
 20
9.806278000000006
 30
0.0
  0
VERTEX
  5
4D2
  8
THROUGH_CUT
 10
5.315861975639919
 20
9.774619999999999
 30
0.0
  0
VERTEX
  5
4D3
  8
THROUGH_CUT
 10
5.319946975639922
 20
9.741842000000005
 30
0.0
  0
VERTEX
  5
4D4
  8
THROUGH_CUT
 10
5.318581975639901
 20
9.708838
 30
0.0
  0
VERTEX
  5
4D5
  8
THROUGH_CUT
 10
5.311803975639904
 20
9.676510000000007
 30
0.0
  0
VERTEX
  5
4D6
  8
THROUGH_CUT
 10
5.299795975639896
 20
9.645738000000009
 30
0.0
  0
VERTEX
  5
4D7
  8
THROUGH_CUT
 10
5.282887975639895
 20
9.617362
 30
0.0
  0
VERTEX
  5
4D8
  8
THROUGH_CUT
 10
5.261538975639908
 20
9.592156000000003
 30
0.0
  0
VERTEX
  5
4D9
  8
THROUGH_CUT
 10
5.261538975639908
 20
8.874999000000003
 30
0.0
  0
VERTEX
  5
4DA
  8
THROUGH_CUT
 10
84.77962097563992
 20
8.874998000000005
 30
0.0
  0
VERTEX
  5
4DB
  8
THROUGH_CUT
 10
91.44462911488901
 20
10.94228912227365
 30
0.0
 42
0.7368231252251604
  0
VERTEX
  5
4DC
  8
THROUGH_CUT
 10
91.44464599145988
 20
13.80761577950384
 30
0.0
  0
VERTEX
  5
4DD
  8
THROUGH_CUT
 10
84.77962097563992
 20
15.874999
 30
0.0
  0
VERTEX
  5
4DE
  8
THROUGH_CUT
 10
74.15462097563992
 20
15.874999
 30
0.0
  0
VERTEX
  5
4DF
  8
THROUGH_CUT
 10
74.15462097563992
 20
12.27499900000001
 30
0.0
  0
VERTEX
  5
4E0
  8
THROUGH_CUT
 10
74.18753997563991
 20
12.272271
 30
0.0
  0
VERTEX
  5
4E1
  8
THROUGH_CUT
 10
74.21956097563991
 20
12.264162
 30
0.0
  0
VERTEX
  5
4E2
  8
THROUGH_CUT
 10
74.2498099756399
 20
12.250894
 30
0.0
  0
VERTEX
  5
4E3
  8
THROUGH_CUT
 10
74.2774629756399
 20
12.232827
 30
0.0
  0
VERTEX
  5
4E4
  8
THROUGH_CUT
 10
74.30176597563991
 20
12.21045500000001
 30
0.0
  0
VERTEX
  5
4E5
  8
THROUGH_CUT
 10
74.3220539756399
 20
12.184388
 30
0.0
  0
VERTEX
  5
4E6
  8
THROUGH_CUT
 10
74.33777597563991
 20
12.155338
 30
0.0
  0
VERTEX
  5
4E7
  8
THROUGH_CUT
 10
74.34850097563991
 20
12.12409600000001
 30
0.0
  0
VERTEX
  5
4E8
  8
THROUGH_CUT
 10
74.35393797563991
 20
12.091515
 30
0.0
  0
VERTEX
  5
4E9
  8
THROUGH_CUT
 10
74.35393797563991
 20
12.05848300000001
 30
0.0
  0
VERTEX
  5
4EA
  8
THROUGH_CUT
 10
74.34850097563991
 20
12.025902
 30
0.0
  0
VERTEX
  5
4EB
  8
THROUGH_CUT
 10
74.33777597563991
 20
11.99466000000001
 30
0.0
  0
VERTEX
  5
4EC
  8
THROUGH_CUT
 10
74.3220539756399
 20
11.965609
 30
0.0
  0
VERTEX
  5
4ED
  8
THROUGH_CUT
 10
74.30176597563991
 20
11.939542
 30
0.0
  0
VERTEX
  5
4EE
  8
THROUGH_CUT
 10
74.2774629756399
 20
11.91717100000001
 30
0.0
  0
VERTEX
  5
4EF
  8
THROUGH_CUT
 10
74.2498099756399
 20
11.89910400000001
 30
0.0
  0
VERTEX
  5
4F0
  8
THROUGH_CUT
 10
74.21956097563991
 20
11.885835
 30
0.0
  0
VERTEX
  5
4F1
  8
THROUGH_CUT
 10
74.18753997563991
 20
11.87772700000001
 30
0.0
  0
VERTEX
  5
4F2
  8
THROUGH_CUT
 10
74.15462097563992
 20
11.874999
 30
0.0
  0
VERTEX
  5
4F3
  8
THROUGH_CUT
 10
73.40462097563992
 20
11.874999
 30
0.0
  0
VERTEX
  5
4F4
  8
THROUGH_CUT
 10
73.37170197563991
 20
11.87772700000001
 30
0.0
  0
VERTEX
  5
4F5
  8
THROUGH_CUT
 10
73.33968097563991
 20
11.885835
 30
0.0
  0
VERTEX
  5
4F6
  8
THROUGH_CUT
 10
73.30943097563991
 20
11.89910400000001
 30
0.0
  0
VERTEX
  5
4F7
  8
THROUGH_CUT
 10
73.28177797563991
 20
11.91717100000001
 30
0.0
  0
VERTEX
  5
4F8
  8
THROUGH_CUT
 10
73.2574759756399
 20
11.939542
 30
0.0
  0
VERTEX
  5
4F9
  8
THROUGH_CUT
 10
73.23718797563991
 20
11.965609
 30
0.0
  0
VERTEX
  5
4FA
  8
THROUGH_CUT
 10
73.22146597563992
 20
11.99466000000001
 30
0.0
  0
VERTEX
  5
4FB
  8
THROUGH_CUT
 10
73.21074097563991
 20
12.025902
 30
0.0
  0
VERTEX
  5
4FC
  8
THROUGH_CUT
 10
73.20530397563991
 20
12.05848300000001
 30
0.0
  0
VERTEX
  5
4FD
  8
THROUGH_CUT
 10
73.20530397563991
 20
12.091515
 30
0.0
  0
VERTEX
  5
4FE
  8
THROUGH_CUT
 10
73.21074097563991
 20
12.12409600000001
 30
0.0
  0
VERTEX
  5
4FF
  8
THROUGH_CUT
 10
73.22146597563992
 20
12.155338
 30
0.0
  0
VERTEX
  5
500
  8
THROUGH_CUT
 10
73.23718797563991
 20
12.184388
 30
0.0
  0
VERTEX
  5
501
  8
THROUGH_CUT
 10
73.2574759756399
 20
12.21045500000001
 30
0.0
  0
VERTEX
  5
502
  8
THROUGH_CUT
 10
73.28177797563991
 20
12.232827
 30
0.0
  0
VERTEX
  5
503
  8
THROUGH_CUT
 10
73.30943097563991
 20
12.250894
 30
0.0
  0
VERTEX
  5
504
  8
THROUGH_CUT
 10
73.33968097563991
 20
12.264162
 30
0.0
  0
VERTEX
  5
505
  8
THROUGH_CUT
 10
73.37170197563991
 20
12.272271
 30
0.0
  0
VERTEX
  5
506
  8
THROUGH_CUT
 10
73.40462097563992
 20
12.27499900000001
 30
0.0
  0
SEQEND
  5
507
  8
THROUGH_CUT
  0
POLYLINE
  5
58
  8
THROUGH_CUT
 66
     1
 10
0.0
 20
0.0
 30
0.0
 70
     1
  0
VERTEX
  5
508
  8
THROUGH_CUT
 10
73.40462097563992
 20
8.124998000000005
 30
0.0
  0
VERTEX
  5
509
  8
THROUGH_CUT
 10
52.1546209756399
 20
8.124998000000005
 30
0.0
  0
VERTEX
  5
50A
  8
THROUGH_CUT
 10
52.1546209756399
 20
4.524998000000011
 30
0.0
  0
VERTEX
  5
50B
  8
THROUGH_CUT
 10
52.18753997563991
 20
4.522270000000006
 30
0.0
  0
VERTEX
  5
50C
  8
THROUGH_CUT
 10
52.21956097563991
 20
4.514161000000001
 30
0.0
  0
VERTEX
  5
50D
  8
THROUGH_CUT
 10
52.24980997563991
 20
4.500893000000005
 30
0.0
  0
VERTEX
  5
50E
  8
THROUGH_CUT
 10
52.27746297563991
 20
4.482826000000003
 30
0.0
  0
VERTEX
  5
50F
  8
THROUGH_CUT
 10
52.30176597563991
 20
4.460454000000013
 30
0.0
  0
VERTEX
  5
510
  8
THROUGH_CUT
 10
52.32205397563992
 20
4.434387000000001
 30
0.0
  0
VERTEX
  5
511
  8
THROUGH_CUT
 10
52.3377759756399
 20
4.405337000000003
 30
0.0
  0
VERTEX
  5
512
  8
THROUGH_CUT
 10
52.34850097563991
 20
4.374095000000011
 30
0.0
  0
VERTEX
  5
513
  8
THROUGH_CUT
 10
52.35393797563991
 20
4.341514000000004
 30
0.0
  0
VERTEX
  5
514
  8
THROUGH_CUT
 10
52.35393797563991
 20
4.308482000000012
 30
0.0
  0
VERTEX
  5
515
  8
THROUGH_CUT
 10
52.34850097563991
 20
4.275901000000005
 30
0.0
  0
VERTEX
  5
516
  8
THROUGH_CUT
 10
52.3377759756399
 20
4.244659000000013
 30
0.0
  0
VERTEX
  5
517
  8
THROUGH_CUT
 10
52.32205397563992
 20
4.215608000000003
 30
0.0
  0
VERTEX
  5
518
  8
THROUGH_CUT
 10
52.30176597563991
 20
4.189541000000006
 30
0.0
  0
VERTEX
  5
519
  8
THROUGH_CUT
 10
52.27746297563991
 20
4.167170000000013
 30
0.0
  0
VERTEX
  5
51A
  8
THROUGH_CUT
 10
52.24980997563991
 20
4.149103000000011
 30
0.0
  0
VERTEX
  5
51B
  8
THROUGH_CUT
 10
52.21956097563991
 20
4.135834000000003
 30
0.0
  0
VERTEX
  5
51C
  8
THROUGH_CUT
 10
52.18753997563991
 20
4.12772600000001
 30
0.0
  0
VERTEX
  5
51D
  8
THROUGH_CUT
 10
52.1546209756399
 20
4.124998000000005
 30
0.0
  0
VERTEX
  5
51E
  8
THROUGH_CUT
 10
51.4046209756399
 20
4.124998000000005
 30
0.0
  0
VERTEX
  5
51F
  8
THROUGH_CUT
 10
51.37170197563991
 20
4.12772600000001
 30
0.0
  0
VERTEX
  5
520
  8
THROUGH_CUT
 10
51.33968097563991
 20
4.135834000000003
 30
0.0
  0
VERTEX
  5
521
  8
THROUGH_CUT
 10
51.3094309756399
 20
4.149103000000011
 30
0.0
  0
VERTEX
  5
522
  8
THROUGH_CUT
 10
51.28177797563991
 20
4.167170000000013
 30
0.0
  0
VERTEX
  5
523
  8
THROUGH_CUT
 10
51.25747597563991
 20
4.189541000000006
 30
0.0
  0
VERTEX
  5
524
  8
THROUGH_CUT
 10
51.23718797563991
 20
4.215608000000003
 30
0.0
  0
VERTEX
  5
525
  8
THROUGH_CUT
 10
51.2214659756399
 20
4.244659000000013
 30
0.0
  0
VERTEX
  5
526
  8
THROUGH_CUT
 10
51.21074097563991
 20
4.275901000000005
 30
0.0
  0
VERTEX
  5
527
  8
THROUGH_CUT
 10
51.20530397563991
 20
4.308482000000012
 30
0.0
  0
VERTEX
  5
528
  8
THROUGH_CUT
 10
51.20530397563991
 20
4.341514000000004
 30
0.0
  0
VERTEX
  5
529
  8
THROUGH_CUT
 10
51.21074097563991
 20
4.374095000000011
 30
0.0
  0
VERTEX
  5
52A
  8
THROUGH_CUT
 10
51.2214659756399
 20
4.405337000000003
 30
0.0
  0
VERTEX
  5
52B
  8
THROUGH_CUT
 10
51.23718797563991
 20
4.434387000000001
 30
0.0
  0
VERTEX
  5
52C
  8
THROUGH_CUT
 10
51.25747597563991
 20
4.460454000000013
 30
0.0
  0
VERTEX
  5
52D
  8
THROUGH_CUT
 10
51.28177797563991
 20
4.482826000000003
 30
0.0
  0
VERTEX
  5
52E
  8
THROUGH_CUT
 10
51.3094309756399
 20
4.500893000000005
 30
0.0
  0
VERTEX
  5
52F
  8
THROUGH_CUT
 10
51.33968097563991
 20
4.514161000000001
 30
0.0
  0
VERTEX
  5
530
  8
THROUGH_CUT
 10
51.37170197563991
 20
4.522270000000006
 30
0.0
  0
VERTEX
  5
531
  8
THROUGH_CUT
 10
51.4046209756399
 20
4.524998000000011
 30
0.0
  0
VERTEX
  5
532
  8
THROUGH_CUT
 10
51.4046209756399
 20
8.124998000000005
 30
0.0
  0
VERTEX
  5
533
  8
THROUGH_CUT
 10
30.1546209756399
 20
8.124998000000005
 30
0.0
  0
VERTEX
  5
534
  8
THROUGH_CUT
 10
30.1546209756399
 20
4.524998000000011
 30
0.0
  0
VERTEX
  5
535
  8
THROUGH_CUT
 10
30.18753997563989
 20
4.522270000000006
 30
0.0
  0
VERTEX
  5
536
  8
THROUGH_CUT
 10
30.21956097563991
 20
4.514161000000001
 30
0.0
  0
VERTEX
  5
537
  8
THROUGH_CUT
 10
30.24980997563991
 20
4.500893000000005
 30
0.0
  0
VERTEX
  5
538
  8
THROUGH_CUT
 10
30.27746297563992
 20
4.482826000000003
 30
0.0
  0
VERTEX
  5
539
  8
THROUGH_CUT
 10
30.30176597563992
 20
4.460454000000013
 30
0.0
  0
VERTEX
  5
53A
  8
THROUGH_CUT
 10
30.32205397563992
 20
4.434387000000001
 30
0.0
  0
VERTEX
  5
53B
  8
THROUGH_CUT
 10
30.3377759756399
 20
4.405337000000003
 30
0.0
  0
VERTEX
  5
53C
  8
THROUGH_CUT
 10
30.34850097563991
 20
4.374095000000011
 30
0.0
  0
VERTEX
  5
53D
  8
THROUGH_CUT
 10
30.35393797563991
 20
4.341514000000004
 30
0.0
  0
VERTEX
  5
53E
  8
THROUGH_CUT
 10
30.35393797563991
 20
4.308482000000012
 30
0.0
  0
VERTEX
  5
53F
  8
THROUGH_CUT
 10
30.34850097563991
 20
4.275901000000005
 30
0.0
  0
VERTEX
  5
540
  8
THROUGH_CUT
 10
30.3377759756399
 20
4.244659000000013
 30
0.0
  0
VERTEX
  5
541
  8
THROUGH_CUT
 10
30.32205397563992
 20
4.215608000000003
 30
0.0
  0
VERTEX
  5
542
  8
THROUGH_CUT
 10
30.30176597563992
 20
4.189541000000006
 30
0.0
  0
VERTEX
  5
543
  8
THROUGH_CUT
 10
30.27746297563992
 20
4.167170000000013
 30
0.0
  0
VERTEX
  5
544
  8
THROUGH_CUT
 10
30.24980997563991
 20
4.149103000000011
 30
0.0
  0
VERTEX
  5
545
  8
THROUGH_CUT
 10
30.21956097563991
 20
4.135834000000003
 30
0.0
  0
VERTEX
  5
546
  8
THROUGH_CUT
 10
30.18753997563989
 20
4.12772600000001
 30
0.0
  0
VERTEX
  5
547
  8
THROUGH_CUT
 10
30.1546209756399
 20
4.124998000000005
 30
0.0
  0
VERTEX
  5
548
  8
THROUGH_CUT
 10
29.4046209756399
 20
4.124998000000005
 30
0.0
  0
VERTEX
  5
549
  8
THROUGH_CUT
 10
29.37170197563991
 20
4.12772600000001
 30
0.0
  0
VERTEX
  5
54A
  8
THROUGH_CUT
 10
29.33968097563992
 20
4.135834000000003
 30
0.0
  0
VERTEX
  5
54B
  8
THROUGH_CUT
 10
29.3094309756399
 20
4.149103000000011
 30
0.0
  0
VERTEX
  5
54C
  8
THROUGH_CUT
 10
29.28177797563991
 20
4.167170000000013
 30
0.0
  0
VERTEX
  5
54D
  8
THROUGH_CUT
 10
29.25747597563991
 20
4.189541000000006
 30
0.0
  0
VERTEX
  5
54E
  8
THROUGH_CUT
 10
29.23718797563991
 20
4.215608000000003
 30
0.0
  0
VERTEX
  5
54F
  8
THROUGH_CUT
 10
29.2214659756399
 20
4.244659000000013
 30
0.0
  0
VERTEX
  5
550
  8
THROUGH_CUT
 10
29.21074097563992
 20
4.275901000000005
 30
0.0
  0
VERTEX
  5
551
  8
THROUGH_CUT
 10
29.20530397563989
 20
4.308482000000012
 30
0.0
  0
VERTEX
  5
552
  8
THROUGH_CUT
 10
29.20530397563989
 20
4.341514000000004
 30
0.0
  0
VERTEX
  5
553
  8
THROUGH_CUT
 10
29.21074097563992
 20
4.374095000000011
 30
0.0
  0
VERTEX
  5
554
  8
THROUGH_CUT
 10
29.2214659756399
 20
4.405337000000003
 30
0.0
  0
VERTEX
  5
555
  8
THROUGH_CUT
 10
29.23718797563991
 20
4.434387000000001
 30
0.0
  0
VERTEX
  5
556
  8
THROUGH_CUT
 10
29.25747597563991
 20
4.460454000000013
 30
0.0
  0
VERTEX
  5
557
  8
THROUGH_CUT
 10
29.28177797563991
 20
4.482826000000003
 30
0.0
  0
VERTEX
  5
558
  8
THROUGH_CUT
 10
29.3094309756399
 20
4.500893000000005
 30
0.0
  0
VERTEX
  5
559
  8
THROUGH_CUT
 10
29.33968097563992
 20
4.514161000000001
 30
0.0
  0
VERTEX
  5
55A
  8
THROUGH_CUT
 10
29.37170197563991
 20
4.522270000000006
 30
0.0
  0
VERTEX
  5
55B
  8
THROUGH_CUT
 10
29.4046209756399
 20
4.524998000000011
 30
0.0
  0
VERTEX
  5
55C
  8
THROUGH_CUT
 10
29.4046209756399
 20
8.124998000000005
 30
0.0
  0
VERTEX
  5
55D
  8
THROUGH_CUT
 10
8.1546209756399
 20
8.124998000000005
 30
0.0
  0
VERTEX
  5
55E
  8
THROUGH_CUT
 10
8.1546209756399
 20
4.524998000000011
 30
0.0
  0
VERTEX
  5
55F
  8
THROUGH_CUT
 10
8.187539975639922
 20
4.522270000000006
 30
0.0
  0
VERTEX
  5
560
  8
THROUGH_CUT
 10
8.219560975639908
 20
4.514161000000001
 30
0.0
  0
VERTEX
  5
561
  8
THROUGH_CUT
 10
8.249809975639906
 20
4.500893000000005
 30
0.0
  0
VERTEX
  5
562
  8
THROUGH_CUT
 10
8.27746297563992
 20
4.482826000000003
 30
0.0
  0
VERTEX
  5
563
  8
THROUGH_CUT
 10
8.301765975639924
 20
4.460454000000013
 30
0.0
  0
VERTEX
  5
564
  8
THROUGH_CUT
 10
8.322053975639918
 20
4.434387000000001
 30
0.0
  0
VERTEX
  5
565
  8
THROUGH_CUT
 10
8.3377759756399
 20
4.405337000000003
 30
0.0
  0
VERTEX
  5
566
  8
THROUGH_CUT
 10
8.348500975639908
 20
4.374095000000011
 30
0.0
  0
VERTEX
  5
567
  8
THROUGH_CUT
 10
8.353937975639909
 20
4.341514000000004
 30
0.0
  0
VERTEX
  5
568
  8
THROUGH_CUT
 10
8.353937975639909
 20
4.308482000000012
 30
0.0
  0
VERTEX
  5
569
  8
THROUGH_CUT
 10
8.348500975639908
 20
4.275901000000005
 30
0.0
  0
VERTEX
  5
56A
  8
THROUGH_CUT
 10
8.3377759756399
 20
4.244659000000013
 30
0.0
  0
VERTEX
  5
56B
  8
THROUGH_CUT
 10
8.322053975639918
 20
4.215608000000003
 30
0.0
  0
VERTEX
  5
56C
  8
THROUGH_CUT
 10
8.301765975639924
 20
4.189541000000006
 30
0.0
  0
VERTEX
  5
56D
  8
THROUGH_CUT
 10
8.27746297563992
 20
4.167170000000013
 30
0.0
  0
VERTEX
  5
56E
  8
THROUGH_CUT
 10
8.249809975639906
 20
4.149103000000011
 30
0.0
  0
VERTEX
  5
56F
  8
THROUGH_CUT
 10
8.219560975639908
 20
4.135834000000003
 30
0.0
  0
VERTEX
  5
570
  8
THROUGH_CUT
 10
8.187539975639922
 20
4.12772600000001
 30
0.0
  0
VERTEX
  5
571
  8
THROUGH_CUT
 10
8.1546209756399
 20
4.124998000000005
 30
0.0
  0
VERTEX
  5
572
  8
THROUGH_CUT
 10
7.404620975639901
 20
4.124998000000005
 30
0.0
  0
VERTEX
  5
573
  8
THROUGH_CUT
 10
7.371701975639908
 20
4.12772600000001
 30
0.0
  0
VERTEX
  5
574
  8
THROUGH_CUT
 10
7.339680975639922
 20
4.135834000000003
 30
0.0
  0
VERTEX
  5
575
  8
THROUGH_CUT
 10
7.309430975639899
 20
4.149103000000011
 30
0.0
  0
VERTEX
  5
576
  8
THROUGH_CUT
 10
7.281777975639912
 20
4.167170000000013
 30
0.0
  0
VERTEX
  5
577
  8
THROUGH_CUT
 10
7.257475975639906
 20
4.189541000000006
 30
0.0
  0
VERTEX
  5
578
  8
THROUGH_CUT
 10
7.237187975639912
 20
4.215608000000003
 30
0.0
  0
VERTEX
  5
579
  8
THROUGH_CUT
 10
7.221465975639902
 20
4.244659000000013
 30
0.0
  0
VERTEX
  5
57A
  8
THROUGH_CUT
 10
7.210740975639922
 20
4.275901000000005
 30
0.0
  0
VERTEX
  5
57B
  8
THROUGH_CUT
 10
7.205303975639922
 20
4.308482000000012
 30
0.0
  0
VERTEX
  5
57C
  8
THROUGH_CUT
 10
7.205303975639922
 20
4.341514000000004
 30
0.0
  0
VERTEX
  5
57D
  8
THROUGH_CUT
 10
7.210740975639922
 20
4.374095000000011
 30
0.0
  0
VERTEX
  5
57E
  8
THROUGH_CUT
 10
7.221465975639902
 20
4.405337000000003
 30
0.0
  0
VERTEX
  5
57F
  8
THROUGH_CUT
 10
7.237187975639912
 20
4.434387000000001
 30
0.0
  0
VERTEX
  5
580
  8
THROUGH_CUT
 10
7.257475975639906
 20
4.460454000000013
 30
0.0
  0
VERTEX
  5
581
  8
THROUGH_CUT
 10
7.281777975639912
 20
4.482826000000003
 30
0.0
  0
VERTEX
  5
582
  8
THROUGH_CUT
 10
7.309430975639899
 20
4.500893000000005
 30
0.0
  0
VERTEX
  5
583
  8
THROUGH_CUT
 10
7.339680975639922
 20
4.514161000000001
 30
0.0
  0
VERTEX
  5
584
  8
THROUGH_CUT
 10
7.371701975639908
 20
4.522270000000006
 30
0.0
  0
VERTEX
  5
585
  8
THROUGH_CUT
 10
7.404620975639901
 20
4.524998000000011
 30
0.0
  0
VERTEX
  5
586
  8
THROUGH_CUT
 10
7.404620975639901
 20
8.124998000000005
 30
0.0
  0
VERTEX
  5
587
  8
THROUGH_CUT
 10
5.261538975639908
 20
8.124998000000005
 30
0.0
  0
VERTEX
  5
588
  8
THROUGH_CUT
 10
5.261538975639908
 20
6.407841000000005
 30
0.0
  0
VERTEX
  5
589
  8
THROUGH_CUT
 10
5.283947975639919
 20
6.381135
 30
0.0
  0
VERTEX
  5
58A
  8
THROUGH_CUT
 10
5.301379975639904
 20
6.350943000000001
 30
0.0
  0
VERTEX
  5
58B
  8
THROUGH_CUT
 10
5.3133029756399
 20
6.318183000000005
 30
0.0
  0
VERTEX
  5
58C
  8
THROUGH_CUT
 10
5.319356975639906
 20
6.283851000000013
 30
0.0
  0
VERTEX
  5
58D
  8
THROUGH_CUT
 10
5.319356975639906
 20
6.248989000000009
 30
0.0
  0
VERTEX
  5
58E
  8
THROUGH_CUT
 10
5.3133029756399
 20
6.214656000000005
 30
0.0
  0
VERTEX
  5
58F
  8
THROUGH_CUT
 10
5.301379975639904
 20
6.181896000000009
 30
0.0
  0
VERTEX
  5
590
  8
THROUGH_CUT
 10
5.283948975639916
 20
6.151704000000009
 30
0.0
  0
VERTEX
  5
591
  8
THROUGH_CUT
 10
5.261539975639906
 20
6.124998000000005
 30
0.0
  0
VERTEX
  5
592
  8
THROUGH_CUT
 10
5.234833975639916
 20
6.102589000000009
 30
0.0
  0
VERTEX
  5
593
  8
THROUGH_CUT
 10
5.204641975639916
 20
6.085158000000007
 30
0.0
  0
VERTEX
  5
594
  8
THROUGH_CUT
 10
5.17188197563992
 20
6.073234000000014
 30
0.0
  0
VERTEX
  5
595
  8
THROUGH_CUT
 10
5.137549975639914
 20
6.067181000000005
 30
0.0
  0
VERTEX
  5
596
  8
THROUGH_CUT
 10
5.102686975639912
 20
6.067180000000008
 30
0.0
  0
VERTEX
  5
597
  8
THROUGH_CUT
 10
5.068354975639906
 20
6.073234000000014
 30
0.0
  0
VERTEX
  5
598
  8
THROUGH_CUT
 10
5.03559497563991
 20
6.085158000000007
 30
0.0
  0
VERTEX
  5
599
  8
THROUGH_CUT
 10
5.00540297563991
 20
6.102589000000009
 30
0.0
  0
VERTEX
  5
59A
  8
THROUGH_CUT
 10
4.97869697563992
 20
6.124998000000005
 30
0.0
  0
VERTEX
  5
59B
  8
THROUGH_CUT
 10
3.999742975639904
 20
6.124998000000005
 30
0.0
 42
0.4142135623731003
  0
VERTEX
  5
59C
  8
THROUGH_CUT
 10
3.499742975639904
 20
5.624998000000005
 30
0.0
  0
VERTEX
  5
59D
  8
THROUGH_CUT
 10
3.499742975639904
 20
2.624998000000005
 30
0.0
 42
0.4142135623731007
  0
VERTEX
  5
59E
  8
THROUGH_CUT
 10
3.999742975639904
 20
2.124998000000005
 30
0.0
  0
VERTEX
  5
59F
  8
THROUGH_CUT
 10
4.97869697563992
 20
2.124998000000005
 30
0.0
  0
VERTEX
  5
5A0
  8
THROUGH_CUT
 10
5.003902975639917
 20
2.146346000000008
 30
0.0
  0
VERTEX
  5
5A1
  8
THROUGH_CUT
 10
5.032278975639898
 20
2.163255000000007
 30
0.0
  0
VERTEX
  5
5A2
  8
THROUGH_CUT
 10
5.063050975639911
 20
2.175262000000004
 30
0.0
  0
VERTEX
  5
5A3
  8
THROUGH_CUT
 10
5.095379975639915
 20
2.182040000000001
 30
0.0
  0
VERTEX
  5
5A4
  8
THROUGH_CUT
 10
5.12838397563992
 20
2.183405000000008
 30
0.0
  0
VERTEX
  5
5A5
  8
THROUGH_CUT
 10
5.161161975639899
 20
2.179319000000007
 30
0.0
  0
VERTEX
  5
5A6
  8
THROUGH_CUT
 10
5.192819975639921
 20
2.169894000000014
 30
0.0
  0
VERTEX
  5
5A7
  8
THROUGH_CUT
 10
5.222495975639916
 20
2.155387000000005
 30
0.0
  0
VERTEX
  5
5A8
  8
THROUGH_CUT
 10
5.249377975639916
 20
2.136193000000006
 30
0.0
  0
VERTEX
  5
5A9
  8
THROUGH_CUT
 10
5.272734975639921
 20
2.112836000000001
 30
0.0
  0
VERTEX
  5
5AA
  8
THROUGH_CUT
 10
5.291928975639919
 20
2.085953000000003
 30
0.0
  0
VERTEX
  5
5AB
  8
THROUGH_CUT
 10
5.3064359756399
 20
2.056277000000009
 30
0.0
  0
VERTEX
  5
5AC
  8
THROUGH_CUT
 10
5.315861975639919
 20
2.024619000000001
 30
0.0
  0
VERTEX
  5
5AD
  8
THROUGH_CUT
 10
5.319946975639922
 20
1.991841000000008
 30
0.0
  0
VERTEX
  5
5AE
  8
THROUGH_CUT
 10
5.318581975639901
 20
1.958837000000003
 30
0.0
  0
VERTEX
  5
5AF
  8
THROUGH_CUT
 10
5.311803975639904
 20
1.92650900000001
 30
0.0
  0
VERTEX
  5
5B0
  8
THROUGH_CUT
 10
5.299795975639896
 20
1.895737000000011
 30
0.0
  0
VERTEX
  5
5B1
  8
THROUGH_CUT
 10
5.282887975639895
 20
1.867361000000002
 30
0.0
  0
VERTEX
  5
5B2
  8
THROUGH_CUT
 10
5.261538975639908
 20
1.842155000000005
 30
0.0
  0
VERTEX
  5
5B3
  8
THROUGH_CUT
 10
5.261538975639908
 20
1.124998000000005
 30
0.0
  0
VERTEX
  5
5B4
  8
THROUGH_CUT
 10
84.77962097563992
 20
1.124997000000008
 30
0.0
  0
VERTEX
  5
5B5
  8
THROUGH_CUT
 10
91.44462911488901
 20
3.192288122273652
 30
0.0
 42
0.7368231252251604
  0
VERTEX
  5
5B6
  8
THROUGH_CUT
 10
91.44464599145988
 20
6.057614779503844
 30
0.0
  0
VERTEX
  5
5B7
  8
THROUGH_CUT
 10
84.77962097563992
 20
8.124998000000005
 30
0.0
  0
VERTEX
  5
5B8
  8
THROUGH_CUT
 10
74.15462097563992
 20
8.124998000000007
 30
0.0
  0
VERTEX
  5
5B9
  8
THROUGH_CUT
 10
74.15462097563992
 20
4.524998000000011
 30
0.0
  0
VERTEX
  5
5BA
  8
THROUGH_CUT
 10
74.18753997563991
 20
4.522270000000006
 30
0.0
  0
VERTEX
  5
5BB
  8
THROUGH_CUT
 10
74.21956097563991
 20
4.514161000000001
 30
0.0
  0
VERTEX
  5
5BC
  8
THROUGH_CUT
 10
74.2498099756399
 20
4.500893000000005
 30
0.0
  0
VERTEX
  5
5BD
  8
THROUGH_CUT
 10
74.2774629756399
 20
4.482826000000003
 30
0.0
  0
VERTEX
  5
5BE
  8
THROUGH_CUT
 10
74.30176597563991
 20
4.460454000000013
 30
0.0
  0
VERTEX
  5
5BF
  8
THROUGH_CUT
 10
74.3220539756399
 20
4.434387000000001
 30
0.0
  0
VERTEX
  5
5C0
  8
THROUGH_CUT
 10
74.33777597563991
 20
4.405337000000003
 30
0.0
  0
VERTEX
  5
5C1
  8
THROUGH_CUT
 10
74.34850097563991
 20
4.374095000000011
 30
0.0
  0
VERTEX
  5
5C2
  8
THROUGH_CUT
 10
74.35393797563991
 20
4.341514000000004
 30
0.0
  0
VERTEX
  5
5C3
  8
THROUGH_CUT
 10
74.35393797563991
 20
4.308482000000012
 30
0.0
  0
VERTEX
  5
5C4
  8
THROUGH_CUT
 10
74.34850097563991
 20
4.275901000000005
 30
0.0
  0
VERTEX
  5
5C5
  8
THROUGH_CUT
 10
74.33777597563991
 20
4.244659000000013
 30
0.0
  0
VERTEX
  5
5C6
  8
THROUGH_CUT
 10
74.3220539756399
 20
4.215608000000003
 30
0.0
  0
VERTEX
  5
5C7
  8
THROUGH_CUT
 10
74.30176597563991
 20
4.189541000000006
 30
0.0
  0
VERTEX
  5
5C8
  8
THROUGH_CUT
 10
74.2774629756399
 20
4.167170000000013
 30
0.0
  0
VERTEX
  5
5C9
  8
THROUGH_CUT
 10
74.2498099756399
 20
4.149103000000011
 30
0.0
  0
VERTEX
  5
5CA
  8
THROUGH_CUT
 10
74.21956097563991
 20
4.135834000000003
 30
0.0
  0
VERTEX
  5
5CB
  8
THROUGH_CUT
 10
74.18753997563991
 20
4.12772600000001
 30
0.0
  0
VERTEX
  5
5CC
  8
THROUGH_CUT
 10
74.15462097563992
 20
4.124998000000005
 30
0.0
  0
VERTEX
  5
5CD
  8
THROUGH_CUT
 10
73.40462097563992
 20
4.124998000000005
 30
0.0
  0
VERTEX
  5
5CE
  8
THROUGH_CUT
 10
73.37170197563991
 20
4.12772600000001
 30
0.0
  0
VERTEX
  5
5CF
  8
THROUGH_CUT
 10
73.33968097563991
 20
4.135834000000003
 30
0.0
  0
VERTEX
  5
5D0
  8
THROUGH_CUT
 10
73.30943097563991
 20
4.149103000000011
 30
0.0
  0
VERTEX
  5
5D1
  8
THROUGH_CUT
 10
73.28177797563991
 20
4.167170000000013
 30
0.0
  0
VERTEX
  5
5D2
  8
THROUGH_CUT
 10
73.2574759756399
 20
4.189541000000006
 30
0.0
  0
VERTEX
  5
5D3
  8
THROUGH_CUT
 10
73.23718797563991
 20
4.215608000000003
 30
0.0
  0
VERTEX
  5
5D4
  8
THROUGH_CUT
 10
73.22146597563992
 20
4.244659000000013
 30
0.0
  0
VERTEX
  5
5D5
  8
THROUGH_CUT
 10
73.21074097563991
 20
4.275901000000005
 30
0.0
  0
VERTEX
  5
5D6
  8
THROUGH_CUT
 10
73.20530397563991
 20
4.308482000000012
 30
0.0
  0
VERTEX
  5
5D7
  8
THROUGH_CUT
 10
73.20530397563991
 20
4.341514000000004
 30
0.0
  0
VERTEX
  5
5D8
  8
THROUGH_CUT
 10
73.21074097563991
 20
4.374095000000011
 30
0.0
  0
VERTEX
  5
5D9
  8
THROUGH_CUT
 10
73.22146597563992
 20
4.405337000000003
 30
0.0
  0
VERTEX
  5
5DA
  8
THROUGH_CUT
 10
73.23718797563991
 20
4.434387000000001
 30
0.0
  0
VERTEX
  5
5DB
  8
THROUGH_CUT
 10
73.2574759756399
 20
4.460454000000013
 30
0.0
  0
VERTEX
  5
5DC
  8
THROUGH_CUT
 10
73.28177797563991
 20
4.482826000000003
 30
0.0
  0
VERTEX
  5
5DD
  8
THROUGH_CUT
 10
73.30943097563991
 20
4.500893000000005
 30
0.0
  0
VERTEX
  5
5DE
  8
THROUGH_CUT
 10
73.33968097563991
 20
4.514161000000001
 30
0.0
  0
VERTEX
  5
5DF
  8
THROUGH_CUT
 10
73.37170197563991
 20
4.522270000000006
 30
0.0
  0
VERTEX
  5
5E0
  8
THROUGH_CUT
 10
73.40462097563992
 20
4.524998000000011
 30
0.0
  0
SEQEND
  5
5E1
  8
THROUGH_CUT
  0
POLYLINE
  5
5A
  8
CUT_HALFWAY_THROUGH
 66
     1
 10
0.0
 20
0.0
 30
0.0
  0
VERTEX
  5
5E2
  8
CUT_HALFWAY_THROUGH
 10
84.92288697563991
 20
7.973124000000013
 30
0.0
  0
VERTEX
  5
5E3
  8
CUT_HALFWAY_THROUGH
 10
78.17014802748648
 20
5.878532895459131
 30
0.0
 42
0.7368230982963235
  0
VERTEX
  5
5E4
  8
CUT_HALFWAY_THROUGH
 10
78.17016292262815
 20
3.371370810735186
 30
0.0
  0
VERTEX
  5
5E5
  8
CUT_HALFWAY_THROUGH
 10
84.92288797563991
 20
1.276872000000012
 30
0.0
  0
VERTEX
  5
5E6
  8
CUT_HALFWAY_THROUGH
 10
84.82737597563991
 20
1.336121000000006
 30
0.0
  0
VERTEX
  5
5E7
  8
CUT_HALFWAY_THROUGH
 10
91.3890828914674
 20
3.371371791683892
 30
0.0
 42
0.7368231252251598
  0
VERTEX
  5
5E8
  8
CUT_HALFWAY_THROUGH
 10
91.38909772096622
 20
5.878531934871631
 30
0.0
  0
VERTEX
  5
5E9
  8
CUT_HALFWAY_THROUGH
 10
84.82737597563991
 20
7.913872000000012
 30
0.0
  0
VERTEX
  5
5EA
  8
CUT_HALFWAY_THROUGH
 10
84.82737597563991
 20
7.599771000000004
 30
0.0
  0
VERTEX
  5
5EB
  8
CUT_HALFWAY_THROUGH
 10
91.30021988817631
 20
5.591999783460096
 30
0.0
 42
-0.7368231252251596
  0
VERTEX
  5
5EC
  8
CUT_HALFWAY_THROUGH
 10
91.3002082339928
 20
3.657904962740282
 30
0.0
  0
VERTEX
  5
5ED
  8
CUT_HALFWAY_THROUGH
 10
84.77962097563992
 20
1.635408000000012
 30
0.0
  0
VERTEX
  5
5EE
  8
CUT_HALFWAY_THROUGH
 10
78.25903707760227
 20
3.657903982567142
 30
0.0
 42
-0.73682309829633
  0
VERTEX
  5
5EF
  8
CUT_HALFWAY_THROUGH
 10
78.2590258727787
 20
5.592000747925617
 30
0.0
  0
VERTEX
  5
5F0
  8
CUT_HALFWAY_THROUGH
 10
84.77962097563992
 20
7.614584000000008
 30
0.0
  0
VERTEX
  5
5F1
  8
CUT_HALFWAY_THROUGH
 10
84.77962097563992
 20
7.300483000000014
 30
0.0
  0
VERTEX
  5
5F2
  8
CUT_HALFWAY_THROUGH
 10
78.34790321807091
 20
5.305468100392098
 30
0.0
 42
0.7368230982963286
  0
VERTEX
  5
5F3
  8
CUT_HALFWAY_THROUGH
 10
78.34791148951285
 20
3.9444373087982
 30
0.0
  0
VERTEX
  5
5F4
  8
CUT_HALFWAY_THROUGH
 10
84.77962097563992
 20
1.949508000000009
 30
0.0
  0
VERTEX
  5
5F5
  8
CUT_HALFWAY_THROUGH
 10
91.2113340765182
 20
3.944438633796658
 30
0.0
 42
0.7368231252251458
  0
VERTEX
  5
5F6
  8
CUT_HALFWAY_THROUGH
 10
91.21134213513297
 20
5.305467264097118
 30
0.0
  0
VERTEX
  5
5F7
  8
CUT_HALFWAY_THROUGH
 10
84.82737597563991
 20
7.28567000000001
 30
0.0
  0
VERTEX
  5
5F8
  8
CUT_HALFWAY_THROUGH
 10
84.82737597563991
 20
6.971570000000014
 30
0.0
  0
VERTEX
  5
5F9
  8
CUT_HALFWAY_THROUGH
 10
91.12246422259656
 20
5.018934980637027
 30
0.0
 42
-0.7368231252251589
  0
VERTEX
  5
5FA
  8
CUT_HALFWAY_THROUGH
 10
91.12245991904362
 20
4.230971804853048
 30
0.0
  0
VERTEX
  5
5FB
  8
CUT_HALFWAY_THROUGH
 10
84.77962097563992
 20
2.263608000000005
 30
0.0
  0
VERTEX
  5
5FC
  8
CUT_HALFWAY_THROUGH
 10
78.4367858875505
 20
4.230970826231065
 30
0.0
 42
-0.7368230982963317
  0
VERTEX
  5
5FD
  8
CUT_HALFWAY_THROUGH
 10
78.43678106336311
 20
5.018935952858591
 30
0.0
  0
VERTEX
  5
5FE
  8
CUT_HALFWAY_THROUGH
 10
84.77962097563992
 20
6.986383000000004
 30
0.0
  0
VERTEX
  5
5FF
  8
CUT_HALFWAY_THROUGH
 10
84.77962097563992
 20
6.67228200000001
 30
0.0
  0
VERTEX
  5
600
  8
CUT_HALFWAY_THROUGH
 10
78.52565890865533
 20
4.73240380532507
 30
0.0
 42
0.7368230982960815
  0
VERTEX
  5
601
  8
CUT_HALFWAY_THROUGH
 10
78.5256600425246
 20
4.51750399806302
 30
0.0
  0
VERTEX
  5
602
  8
CUT_HALFWAY_THROUGH
 10
84.77962097563992
 20
2.577707000000004
 30
0.0
  0
VERTEX
  5
603
  8
CUT_HALFWAY_THROUGH
 10
91.03358526156902
 20
4.517504975909432
 30
0.0
 42
0.7368231252253463
  0
VERTEX
  5
604
  8
CUT_HALFWAY_THROUGH
 10
91.03358688980667
 20
4.732402829225492
 30
0.0
  0
VERTEX
  5
605
  8
CUT_HALFWAY_THROUGH
 10
84.82737597563991
 20
6.657469000000006
 30
0.0
  0
VERTEX
  5
606
  8
CUT_HALFWAY_THROUGH
 10
84.82737597563991
 20
6.343368000000012
 30
0.0
  0
VERTEX
  5
607
  8
CUT_HALFWAY_THROUGH
 10
90.36734997563991
 20
4.624958000000007
 30
0.0
  0
VERTEX
  5
608
  8
CUT_HALFWAY_THROUGH
 10
84.77962097563992
 20
2.891807000000014
 30
0.0
  0
VERTEX
  5
609
  8
CUT_HALFWAY_THROUGH
 10
79.1918919756399
 20
4.624958000000007
 30
0.0
  0
VERTEX
  5
60A
  8
CUT_HALFWAY_THROUGH
 10
84.77962097563992
 20
6.358181000000002
 30
0.0
  0
VERTEX
  5
60B
  8
CUT_HALFWAY_THROUGH
 10
84.77962097563992
 20
6.044081000000006
 30
0.0
  0
VERTEX
  5
60C
  8
CUT_HALFWAY_THROUGH
 10
80.2045389756399
 20
4.624964000000006
 30
0.0
  0
VERTEX
  5
60D
  8
CUT_HALFWAY_THROUGH
 10
84.77962097563992
 20
3.205906000000013
 30
0.0
  0
VERTEX
  5
60E
  8
CUT_HALFWAY_THROUGH
 10
89.35470297563991
 20
4.624964000000006
 30
0.0
  0
VERTEX
  5
60F
  8
CUT_HALFWAY_THROUGH
 10
84.82737597563991
 20
6.029268000000002
 30
0.0
  0
VERTEX
  5
610
  8
CUT_HALFWAY_THROUGH
 10
84.82737597563991
 20
5.715167000000008
 30
0.0
  0
VERTEX
  5
611
  8
CUT_HALFWAY_THROUGH
 10
88.3420569756399
 20
4.624970000000005
 30
0.0
  0
VERTEX
  5
612
  8
CUT_HALFWAY_THROUGH
 10
84.77962097563992
 20
3.520006000000009
 30
0.0
  0
VERTEX
  5
613
  8
CUT_HALFWAY_THROUGH
 10
81.21718597563991
 20
4.624970000000005
 30
0.0
  0
VERTEX
  5
614
  8
CUT_HALFWAY_THROUGH
 10
84.77962097563992
 20
5.729980000000012
 30
0.0
  0
VERTEX
  5
615
  8
CUT_HALFWAY_THROUGH
 10
84.77962097563992
 20
5.415879000000004
 30
0.0
  0
VERTEX
  5
616
  8
CUT_HALFWAY_THROUGH
 10
82.22983197563991
 20
4.624976000000004
 30
0.0
  0
VERTEX
  5
617
  8
CUT_HALFWAY_THROUGH
 10
84.77962097563992
 20
3.834105000000008
 30
0.0
  0
VERTEX
  5
618
  8
CUT_HALFWAY_THROUGH
 10
87.3294099756399
 20
4.624976000000004
 30
0.0
  0
VERTEX
  5
619
  8
CUT_HALFWAY_THROUGH
 10
84.82737597563991
 20
5.401066000000014
 30
0.0
  0
VERTEX
  5
61A
  8
CUT_HALFWAY_THROUGH
 10
84.82737597563991
 20
5.086965000000006
 30
0.0
  0
VERTEX
  5
61B
  8
CUT_HALFWAY_THROUGH
 10
86.3167629756399
 20
4.624982000000003
 30
0.0
  0
VERTEX
  5
61C
  8
CUT_HALFWAY_THROUGH
 10
84.77962097563992
 20
4.148205000000004
 30
0.0
  0
VERTEX
  5
61D
  8
CUT_HALFWAY_THROUGH
 10
83.24247897563991
 20
4.624982000000003
 30
0.0
  0
VERTEX
  5
61E
  8
CUT_HALFWAY_THROUGH
 10
84.77962097563992
 20
5.10177800000001
 30
0.0
  0
VERTEX
  5
61F
  8
CUT_HALFWAY_THROUGH
 10
84.77962097563992
 20
4.787678000000014
 30
0.0
  0
VERTEX
  5
620
  8
CUT_HALFWAY_THROUGH
 10
84.25512597563991
 20
4.624988000000002
 30
0.0
  0
VERTEX
  5
621
  8
CUT_HALFWAY_THROUGH
 10
84.77962097563992
 20
4.462305000000001
 30
0.0
  0
VERTEX
  5
622
  8
CUT_HALFWAY_THROUGH
 10
85.3041159756399
 20
4.624988000000002
 30
0.0
  0
VERTEX
  5
623
  8
CUT_HALFWAY_THROUGH
 10
84.82737597563991
 20
4.77286500000001
 30
0.0
  0
VERTEX
  5
624
  8
CUT_HALFWAY_THROUGH
 10
91.00025797563991
 20
4.624954000000002
 30
0.0
  0
VERTEX
  5
625
  8
CUT_HALFWAY_THROUGH
 10
78.55898797563991
 20
4.624954000000002
 30
0.0
  0
SEQEND
  5
626
  8
CUT_HALFWAY_THROUGH
  0
POLYLINE
  5
5B
  8
CUT_HALFWAY_THROUGH
 66
     1
 10
0.0
 20
0.0
 30
0.0
  0
VERTEX
  5
627
  8
CUT_HALFWAY_THROUGH
 10
84.92288697563991
 20
15.72312500000001
 30
0.0
  0
VERTEX
  5
628
  8
CUT_HALFWAY_THROUGH
 10
78.17014802748648
 20
13.62853389545913
 30
0.0
 42
0.7368230982963239
  0
VERTEX
  5
629
  8
CUT_HALFWAY_THROUGH
 10
78.17016292262815
 20
11.12137181073518
 30
0.0
  0
VERTEX
  5
62A
  8
CUT_HALFWAY_THROUGH
 10
84.92288797563991
 20
9.026873000000009
 30
0.0
  0
VERTEX
  5
62B
  8
CUT_HALFWAY_THROUGH
 10
84.82737597563991
 20
9.086122000000003
 30
0.0
  0
VERTEX
  5
62C
  8
CUT_HALFWAY_THROUGH
 10
91.3890828914674
 20
11.12137279168389
 30
0.0
 42
0.7368231252251598
  0
VERTEX
  5
62D
  8
CUT_HALFWAY_THROUGH
 10
91.38909772096622
 20
13.62853293487163
 30
0.0
  0
VERTEX
  5
62E
  8
CUT_HALFWAY_THROUGH
 10
84.82737597563991
 20
15.66387300000001
 30
0.0
  0
VERTEX
  5
62F
  8
CUT_HALFWAY_THROUGH
 10
84.82737597563991
 20
15.349772
 30
0.0
  0
VERTEX
  5
630
  8
CUT_HALFWAY_THROUGH
 10
91.30021988817631
 20
13.34200078346009
 30
0.0
 42
-0.7368231252251591
  0
VERTEX
  5
631
  8
CUT_HALFWAY_THROUGH
 10
91.3002082339928
 20
11.40790596274028
 30
0.0
  0
VERTEX
  5
632
  8
CUT_HALFWAY_THROUGH
 10
84.77962097563992
 20
9.38540900000001
 30
0.0
  0
VERTEX
  5
633
  8
CUT_HALFWAY_THROUGH
 10
78.25903707760227
 20
11.40790498256714
 30
0.0
 42
-0.7368230982963291
  0
VERTEX
  5
634
  8
CUT_HALFWAY_THROUGH
 10
78.2590258727787
 20
13.34200174792561
 30
0.0
  0
VERTEX
  5
635
  8
CUT_HALFWAY_THROUGH
 10
84.77962097563992
 20
15.36458500000001
 30
0.0
  0
VERTEX
  5
636
  8
CUT_HALFWAY_THROUGH
 10
84.77962097563992
 20
15.05048400000001
 30
0.0
  0
VERTEX
  5
637
  8
CUT_HALFWAY_THROUGH
 10
78.34790321807091
 20
13.0554691003921
 30
0.0
 42
0.7368230982963293
  0
VERTEX
  5
638
  8
CUT_HALFWAY_THROUGH
 10
78.34791148951285
 20
11.6944383087982
 30
0.0
  0
VERTEX
  5
639
  8
CUT_HALFWAY_THROUGH
 10
84.77962097563992
 20
9.699509000000006
 30
0.0
  0
VERTEX
  5
63A
  8
CUT_HALFWAY_THROUGH
 10
91.2113340765182
 20
11.69443963379666
 30
0.0
 42
0.7368231252251459
  0
VERTEX
  5
63B
  8
CUT_HALFWAY_THROUGH
 10
91.21134213513297
 20
13.05546826409712
 30
0.0
  0
VERTEX
  5
63C
  8
CUT_HALFWAY_THROUGH
 10
84.82737597563991
 20
15.03567100000001
 30
0.0
  0
VERTEX
  5
63D
  8
CUT_HALFWAY_THROUGH
 10
84.82737597563991
 20
14.72157100000001
 30
0.0
  0
VERTEX
  5
63E
  8
CUT_HALFWAY_THROUGH
 10
91.12246422259656
 20
12.76893598063702
 30
0.0
 42
-0.7368231252251564
  0
VERTEX
  5
63F
  8
CUT_HALFWAY_THROUGH
 10
91.12245991904362
 20
11.98097280485305
 30
0.0
  0
VERTEX
  5
640
  8
CUT_HALFWAY_THROUGH
 10
84.77962097563992
 20
10.013609
 30
0.0
  0
VERTEX
  5
641
  8
CUT_HALFWAY_THROUGH
 10
78.4367858875505
 20
11.98097182623106
 30
0.0
 42
-0.7368230982963327
  0
VERTEX
  5
642
  8
CUT_HALFWAY_THROUGH
 10
78.43678106336311
 20
12.76893695285859
 30
0.0
  0
VERTEX
  5
643
  8
CUT_HALFWAY_THROUGH
 10
84.77962097563992
 20
14.736384
 30
0.0
  0
VERTEX
  5
644
  8
CUT_HALFWAY_THROUGH
 10
84.77962097563992
 20
14.42228300000001
 30
0.0
  0
VERTEX
  5
645
  8
CUT_HALFWAY_THROUGH
 10
78.52565890865533
 20
12.48240480532507
 30
0.0
 42
0.7368230982960815
  0
VERTEX
  5
646
  8
CUT_HALFWAY_THROUGH
 10
78.5256600425246
 20
12.26750499806302
 30
0.0
  0
VERTEX
  5
647
  8
CUT_HALFWAY_THROUGH
 10
84.77962097563992
 20
10.327708
 30
0.0
  0
VERTEX
  5
648
  8
CUT_HALFWAY_THROUGH
 10
91.03358526156902
 20
12.26750597590943
 30
0.0
 42
0.7368231252253463
  0
VERTEX
  5
649
  8
CUT_HALFWAY_THROUGH
 10
91.03358688980667
 20
12.48240382922549
 30
0.0
  0
VERTEX
  5
64A
  8
CUT_HALFWAY_THROUGH
 10
84.82737597563991
 20
14.40747
 30
0.0
  0
VERTEX
  5
64B
  8
CUT_HALFWAY_THROUGH
 10
84.82737597563991
 20
14.09336900000001
 30
0.0
  0
VERTEX
  5
64C
  8
CUT_HALFWAY_THROUGH
 10
90.36734997563991
 20
12.374959
 30
0.0
  0
VERTEX
  5
64D
  8
CUT_HALFWAY_THROUGH
 10
84.77962097563992
 20
10.64180800000001
 30
0.0
  0
VERTEX
  5
64E
  8
CUT_HALFWAY_THROUGH
 10
79.1918919756399
 20
12.374959
 30
0.0
  0
VERTEX
  5
64F
  8
CUT_HALFWAY_THROUGH
 10
84.77962097563992
 20
14.108182
 30
0.0
  0
VERTEX
  5
650
  8
CUT_HALFWAY_THROUGH
 10
84.77962097563992
 20
13.794082
 30
0.0
  0
VERTEX
  5
651
  8
CUT_HALFWAY_THROUGH
 10
80.2045389756399
 20
12.374965
 30
0.0
  0
VERTEX
  5
652
  8
CUT_HALFWAY_THROUGH
 10
84.77962097563992
 20
10.95590700000001
 30
0.0
  0
VERTEX
  5
653
  8
CUT_HALFWAY_THROUGH
 10
89.35470297563991
 20
12.374965
 30
0.0
  0
VERTEX
  5
654
  8
CUT_HALFWAY_THROUGH
 10
84.82737597563991
 20
13.779269
 30
0.0
  0
VERTEX
  5
655
  8
CUT_HALFWAY_THROUGH
 10
84.82737597563991
 20
13.46516800000001
 30
0.0
  0
VERTEX
  5
656
  8
CUT_HALFWAY_THROUGH
 10
88.3420569756399
 20
12.374971
 30
0.0
  0
VERTEX
  5
657
  8
CUT_HALFWAY_THROUGH
 10
84.77962097563992
 20
11.27000700000001
 30
0.0
  0
VERTEX
  5
658
  8
CUT_HALFWAY_THROUGH
 10
81.21718597563991
 20
12.374971
 30
0.0
  0
VERTEX
  5
659
  8
CUT_HALFWAY_THROUGH
 10
84.77962097563992
 20
13.47998100000001
 30
0.0
  0
VERTEX
  5
65A
  8
CUT_HALFWAY_THROUGH
 10
84.77962097563992
 20
13.16588
 30
0.0
  0
VERTEX
  5
65B
  8
CUT_HALFWAY_THROUGH
 10
82.22983197563991
 20
12.374977
 30
0.0
  0
VERTEX
  5
65C
  8
CUT_HALFWAY_THROUGH
 10
84.77962097563992
 20
11.58410600000001
 30
0.0
  0
VERTEX
  5
65D
  8
CUT_HALFWAY_THROUGH
 10
87.3294099756399
 20
12.374977
 30
0.0
  0
VERTEX
  5
65E
  8
CUT_HALFWAY_THROUGH
 10
84.82737597563991
 20
13.15106700000001
 30
0.0
  0
VERTEX
  5
65F
  8
CUT_HALFWAY_THROUGH
 10
84.82737597563991
 20
12.836966
 30
0.0
  0
VERTEX
  5
660
  8
CUT_HALFWAY_THROUGH
 10
86.3167629756399
 20
12.374983
 30
0.0
  0
VERTEX
  5
661
  8
CUT_HALFWAY_THROUGH
 10
84.77962097563992
 20
11.898206
 30
0.0
  0
VERTEX
  5
662
  8
CUT_HALFWAY_THROUGH
 10
83.24247897563991
 20
12.374983
 30
0.0
  0
VERTEX
  5
663
  8
CUT_HALFWAY_THROUGH
 10
84.77962097563992
 20
12.85177900000001
 30
0.0
  0
VERTEX
  5
664
  8
CUT_HALFWAY_THROUGH
 10
84.77962097563992
 20
12.53767900000001
 30
0.0
  0
VERTEX
  5
665
  8
CUT_HALFWAY_THROUGH
 10
84.25512597563991
 20
12.374989
 30
0.0
  0
VERTEX
  5
666
  8
CUT_HALFWAY_THROUGH
 10
84.77962097563992
 20
12.212306
 30
0.0
  0
VERTEX
  5
667
  8
CUT_HALFWAY_THROUGH
 10
85.3041159756399
 20
12.374989
 30
0.0
  0
VERTEX
  5
668
  8
CUT_HALFWAY_THROUGH
 10
84.82737597563991
 20
12.52286600000001
 30
0.0
  0
VERTEX
  5
669
  8
CUT_HALFWAY_THROUGH
 10
91.00025797563991
 20
12.374955
 30
0.0
  0
VERTEX
  5
66A
  8
CUT_HALFWAY_THROUGH
 10
78.55898797563991
 20
12.374955
 30
0.0
  0
SEQEND
  5
66B
  8
CUT_HALFWAY_THROUGH
  0
POLYLINE
  5
5C
  8
CUT_HALFWAY_THROUGH
 66
     1
 10
0.0
 20
0.0
 30
0.0
  0
VERTEX
  5
66C
  8
CUT_HALFWAY_THROUGH
 10
84.92288697563991
 20
23.47312600000001
 30
0.0
  0
VERTEX
  5
66D
  8
CUT_HALFWAY_THROUGH
 10
78.17014802748648
 20
21.37853489545913
 30
0.0
 42
0.7368230982963236
  0
VERTEX
  5
66E
  8
CUT_HALFWAY_THROUGH
 10
78.17016292262815
 20
18.87137281073518
 30
0.0
  0
VERTEX
  5
66F
  8
CUT_HALFWAY_THROUGH
 10
84.92288797563991
 20
16.77687400000001
 30
0.0
  0
VERTEX
  5
670
  8
CUT_HALFWAY_THROUGH
 10
84.82737597563991
 20
16.836123
 30
0.0
  0
VERTEX
  5
671
  8
CUT_HALFWAY_THROUGH
 10
91.3890828914674
 20
18.87137379168389
 30
0.0
 42
0.7368231252251518
  0
VERTEX
  5
672
  8
CUT_HALFWAY_THROUGH
 10
91.38909772096622
 20
21.37853393487163
 30
0.0
  0
VERTEX
  5
673
  8
CUT_HALFWAY_THROUGH
 10
84.82737597563991
 20
23.41387400000001
 30
0.0
  0
VERTEX
  5
674
  8
CUT_HALFWAY_THROUGH
 10
84.82737597563991
 20
23.099773
 30
0.0
  0
VERTEX
  5
675
  8
CUT_HALFWAY_THROUGH
 10
91.30021988817631
 20
21.09200178346009
 30
0.0
 42
-0.7368231252251591
  0
VERTEX
  5
676
  8
CUT_HALFWAY_THROUGH
 10
91.3002082339928
 20
19.15790696274028
 30
0.0
  0
VERTEX
  5
677
  8
CUT_HALFWAY_THROUGH
 10
84.77962097563992
 20
17.13541000000001
 30
0.0
  0
VERTEX
  5
678
  8
CUT_HALFWAY_THROUGH
 10
78.25903707760227
 20
19.15790598256714
 30
0.0
 42
-0.7368230982963291
  0
VERTEX
  5
679
  8
CUT_HALFWAY_THROUGH
 10
78.2590258727787
 20
21.09200274792561
 30
0.0
  0
VERTEX
  5
67A
  8
CUT_HALFWAY_THROUGH
 10
84.77962097563992
 20
23.114586
 30
0.0
  0
VERTEX
  5
67B
  8
CUT_HALFWAY_THROUGH
 10
84.77962097563992
 20
22.80048500000001
 30
0.0
  0
VERTEX
  5
67C
  8
CUT_HALFWAY_THROUGH
 10
78.34790321807091
 20
20.80547010039209
 30
0.0
 42
0.7368230982963275
  0
VERTEX
  5
67D
  8
CUT_HALFWAY_THROUGH
 10
78.34791148951285
 20
19.4444393087982
 30
0.0
  0
VERTEX
  5
67E
  8
CUT_HALFWAY_THROUGH
 10
84.77962097563992
 20
17.44951
 30
0.0
  0
VERTEX
  5
67F
  8
CUT_HALFWAY_THROUGH
 10
91.2113340765182
 20
19.44444063379665
 30
0.0
 42
0.7368231252251459
  0
VERTEX
  5
680
  8
CUT_HALFWAY_THROUGH
 10
91.21134213513297
 20
20.80546926409711
 30
0.0
  0
VERTEX
  5
681
  8
CUT_HALFWAY_THROUGH
 10
84.82737597563991
 20
22.78567200000001
 30
0.0
  0
VERTEX
  5
682
  8
CUT_HALFWAY_THROUGH
 10
84.82737597563991
 20
22.47157200000001
 30
0.0
  0
VERTEX
  5
683
  8
CUT_HALFWAY_THROUGH
 10
91.12246422259656
 20
20.51893698063702
 30
0.0
 42
-0.7368231252251587
  0
VERTEX
  5
684
  8
CUT_HALFWAY_THROUGH
 10
91.12245991904362
 20
19.73097380485304
 30
0.0
  0
VERTEX
  5
685
  8
CUT_HALFWAY_THROUGH
 10
84.77962097563992
 20
17.76361
 30
0.0
  0
VERTEX
  5
686
  8
CUT_HALFWAY_THROUGH
 10
78.4367858875505
 20
19.73097282623106
 30
0.0
 42
-0.7368230982963327
  0
VERTEX
  5
687
  8
CUT_HALFWAY_THROUGH
 10
78.43678106336311
 20
20.51893795285859
 30
0.0
  0
VERTEX
  5
688
  8
CUT_HALFWAY_THROUGH
 10
84.77962097563992
 20
22.486385
 30
0.0
  0
VERTEX
  5
689
  8
CUT_HALFWAY_THROUGH
 10
84.77962097563992
 20
22.172284
 30
0.0
  0
VERTEX
  5
68A
  8
CUT_HALFWAY_THROUGH
 10
78.52565890865533
 20
20.23240580532507
 30
0.0
 42
0.7368230982960815
  0
VERTEX
  5
68B
  8
CUT_HALFWAY_THROUGH
 10
78.5256600425246
 20
20.01750599806302
 30
0.0
  0
VERTEX
  5
68C
  8
CUT_HALFWAY_THROUGH
 10
84.77962097563992
 20
18.077709
 30
0.0
  0
VERTEX
  5
68D
  8
CUT_HALFWAY_THROUGH
 10
91.03358526156902
 20
20.01750697590943
 30
0.0
 42
0.7368231252253463
  0
VERTEX
  5
68E
  8
CUT_HALFWAY_THROUGH
 10
91.03358688980667
 20
20.23240482922549
 30
0.0
  0
VERTEX
  5
68F
  8
CUT_HALFWAY_THROUGH
 10
84.82737597563991
 20
22.157471
 30
0.0
  0
VERTEX
  5
690
  8
CUT_HALFWAY_THROUGH
 10
84.82737597563991
 20
21.84337000000001
 30
0.0
  0
VERTEX
  5
691
  8
CUT_HALFWAY_THROUGH
 10
90.36734997563991
 20
20.12496
 30
0.0
  0
VERTEX
  5
692
  8
CUT_HALFWAY_THROUGH
 10
84.77962097563992
 20
18.39180900000001
 30
0.0
  0
VERTEX
  5
693
  8
CUT_HALFWAY_THROUGH
 10
79.1918919756399
 20
20.12496
 30
0.0
  0
VERTEX
  5
694
  8
CUT_HALFWAY_THROUGH
 10
84.77962097563992
 20
21.858183
 30
0.0
  0
VERTEX
  5
695
  8
CUT_HALFWAY_THROUGH
 10
84.77962097563992
 20
21.544083
 30
0.0
  0
VERTEX
  5
696
  8
CUT_HALFWAY_THROUGH
 10
80.2045389756399
 20
20.124966
 30
0.0
  0
VERTEX
  5
697
  8
CUT_HALFWAY_THROUGH
 10
84.77962097563992
 20
18.70590800000001
 30
0.0
  0
VERTEX
  5
698
  8
CUT_HALFWAY_THROUGH
 10
89.35470297563991
 20
20.124966
 30
0.0
  0
VERTEX
  5
699
  8
CUT_HALFWAY_THROUGH
 10
84.82737597563991
 20
21.52927
 30
0.0
  0
VERTEX
  5
69A
  8
CUT_HALFWAY_THROUGH
 10
84.82737597563991
 20
21.215169
 30
0.0
  0
VERTEX
  5
69B
  8
CUT_HALFWAY_THROUGH
 10
88.3420569756399
 20
20.124972
 30
0.0
  0
VERTEX
  5
69C
  8
CUT_HALFWAY_THROUGH
 10
84.77962097563992
 20
19.020008
 30
0.0
  0
VERTEX
  5
69D
  8
CUT_HALFWAY_THROUGH
 10
81.21718597563991
 20
20.124972
 30
0.0
  0
VERTEX
  5
69E
  8
CUT_HALFWAY_THROUGH
 10
84.77962097563992
 20
21.22998200000001
 30
0.0
  0
VERTEX
  5
69F
  8
CUT_HALFWAY_THROUGH
 10
84.77962097563992
 20
20.915881
 30
0.0
  0
VERTEX
  5
6A0
  8
CUT_HALFWAY_THROUGH
 10
82.22983197563991
 20
20.124978
 30
0.0
  0
VERTEX
  5
6A1
  8
CUT_HALFWAY_THROUGH
 10
84.77962097563992
 20
19.334107
 30
0.0
  0
VERTEX
  5
6A2
  8
CUT_HALFWAY_THROUGH
 10
87.3294099756399
 20
20.124978
 30
0.0
  0
VERTEX
  5
6A3
  8
CUT_HALFWAY_THROUGH
 10
84.82737597563991
 20
20.90106800000001
 30
0.0
  0
VERTEX
  5
6A4
  8
CUT_HALFWAY_THROUGH
 10
84.82737597563991
 20
20.586967
 30
0.0
  0
VERTEX
  5
6A5
  8
CUT_HALFWAY_THROUGH
 10
86.3167629756399
 20
20.124984
 30
0.0
  0
VERTEX
  5
6A6
  8
CUT_HALFWAY_THROUGH
 10
84.77962097563992
 20
19.648207
 30
0.0
  0
VERTEX
  5
6A7
  8
CUT_HALFWAY_THROUGH
 10
83.24247897563991
 20
20.124984
 30
0.0
  0
VERTEX
  5
6A8
  8
CUT_HALFWAY_THROUGH
 10
84.77962097563992
 20
20.60178000000001
 30
0.0
  0
VERTEX
  5
6A9
  8
CUT_HALFWAY_THROUGH
 10
84.77962097563992
 20
20.28768000000001
 30
0.0
  0
VERTEX
  5
6AA
  8
CUT_HALFWAY_THROUGH
 10
84.25512597563991
 20
20.12499
 30
0.0
  0
VERTEX
  5
6AB
  8
CUT_HALFWAY_THROUGH
 10
84.77962097563992
 20
19.962307
 30
0.0
  0
VERTEX
  5
6AC
  8
CUT_HALFWAY_THROUGH
 10
85.3041159756399
 20
20.12499
 30
0.0
  0
VERTEX
  5
6AD
  8
CUT_HALFWAY_THROUGH
 10
84.82737597563991
 20
20.27286700000001
 30
0.0
  0
VERTEX
  5
6AE
  8
CUT_HALFWAY_THROUGH
 10
91.00025797563991
 20
20.124956
 30
0.0
  0
VERTEX
  5
6AF
  8
CUT_HALFWAY_THROUGH
 10
78.55898797563991
 20
20.124956
 30
0.0
  0
SEQEND
  5
6B0
  8
CUT_HALFWAY_THROUGH
  0
POLYLINE
  5
5D
  8
CUT_HALFWAY_THROUGH
 66
     1
 10
0.0
 20
0.0
 30
0.0
  0
VERTEX
  5
6B1
  8
CUT_HALFWAY_THROUGH
 10
84.92288697563991
 20
31.22312700000001
 30
0.0
  0
VERTEX
  5
6B2
  8
CUT_HALFWAY_THROUGH
 10
78.17014802748648
 20
29.12853589545912
 30
0.0
 42
0.736823098296323
  0
VERTEX
  5
6B3
  8
CUT_HALFWAY_THROUGH
 10
78.17016292262815
 20
26.62137381073518
 30
0.0
  0
VERTEX
  5
6B4
  8
CUT_HALFWAY_THROUGH
 10
84.92288797563991
 20
24.526875
 30
0.0
  0
VERTEX
  5
6B5
  8
CUT_HALFWAY_THROUGH
 10
84.82737597563991
 20
24.586124
 30
0.0
  0
VERTEX
  5
6B6
  8
CUT_HALFWAY_THROUGH
 10
91.3890828914674
 20
26.62137479168388
 30
0.0
 42
0.7368231252251518
  0
VERTEX
  5
6B7
  8
CUT_HALFWAY_THROUGH
 10
91.38909772096622
 20
29.12853493487162
 30
0.0
  0
VERTEX
  5
6B8
  8
CUT_HALFWAY_THROUGH
 10
84.82737597563991
 20
31.163875
 30
0.0
  0
VERTEX
  5
6B9
  8
CUT_HALFWAY_THROUGH
 10
84.82737597563991
 20
30.849774
 30
0.0
  0
VERTEX
  5
6BA
  8
CUT_HALFWAY_THROUGH
 10
91.30021988817631
 20
28.84200278346009
 30
0.0
 42
-0.73682312522516
  0
VERTEX
  5
6BB
  8
CUT_HALFWAY_THROUGH
 10
91.3002082339928
 20
26.90790796274027
 30
0.0
  0
VERTEX
  5
6BC
  8
CUT_HALFWAY_THROUGH
 10
84.77962097563992
 20
24.885411
 30
0.0
  0
VERTEX
  5
6BD
  8
CUT_HALFWAY_THROUGH
 10
78.25903707760227
 20
26.90790698256713
 30
0.0
 42
-0.7368230982963304
  0
VERTEX
  5
6BE
  8
CUT_HALFWAY_THROUGH
 10
78.2590258727787
 20
28.84200374792561
 30
0.0
  0
VERTEX
  5
6BF
  8
CUT_HALFWAY_THROUGH
 10
84.77962097563992
 20
30.864587
 30
0.0
  0
VERTEX
  5
6C0
  8
CUT_HALFWAY_THROUGH
 10
84.77962097563992
 20
30.55048600000001
 30
0.0
  0
VERTEX
  5
6C1
  8
CUT_HALFWAY_THROUGH
 10
78.34790321807091
 20
28.55547110039209
 30
0.0
 42
0.7368230982963293
  0
VERTEX
  5
6C2
  8
CUT_HALFWAY_THROUGH
 10
78.34791148951285
 20
27.19444030879819
 30
0.0
  0
VERTEX
  5
6C3
  8
CUT_HALFWAY_THROUGH
 10
84.77962097563992
 20
25.199511
 30
0.0
  0
VERTEX
  5
6C4
  8
CUT_HALFWAY_THROUGH
 10
91.2113340765182
 20
27.19444163379665
 30
0.0
 42
0.7368231252251459
  0
VERTEX
  5
6C5
  8
CUT_HALFWAY_THROUGH
 10
91.21134213513297
 20
28.55547026409711
 30
0.0
  0
VERTEX
  5
6C6
  8
CUT_HALFWAY_THROUGH
 10
84.82737597563991
 20
30.535673
 30
0.0
  0
VERTEX
  5
6C7
  8
CUT_HALFWAY_THROUGH
 10
84.82737597563991
 20
30.22157300000001
 30
0.0
  0
VERTEX
  5
6C8
  8
CUT_HALFWAY_THROUGH
 10
91.12246422259656
 20
28.26893798063702
 30
0.0
 42
-0.7368231252251587
  0
VERTEX
  5
6C9
  8
CUT_HALFWAY_THROUGH
 10
91.12245991904362
 20
27.48097480485304
 30
0.0
  0
VERTEX
  5
6CA
  8
CUT_HALFWAY_THROUGH
 10
84.77962097563992
 20
25.513611
 30
0.0
  0
VERTEX
  5
6CB
  8
CUT_HALFWAY_THROUGH
 10
78.4367858875505
 20
27.48097382623106
 30
0.0
 42
-0.7368230982963296
  0
VERTEX
  5
6CC
  8
CUT_HALFWAY_THROUGH
 10
78.43678106336311
 20
28.26893895285858
 30
0.0
  0
VERTEX
  5
6CD
  8
CUT_HALFWAY_THROUGH
 10
84.77962097563992
 20
30.236386
 30
0.0
  0
VERTEX
  5
6CE
  8
CUT_HALFWAY_THROUGH
 10
84.77962097563992
 20
29.922285
 30
0.0
  0
VERTEX
  5
6CF
  8
CUT_HALFWAY_THROUGH
 10
78.52565890865533
 20
27.98240680532506
 30
0.0
 42
0.7368230982960815
  0
VERTEX
  5
6D0
  8
CUT_HALFWAY_THROUGH
 10
78.5256600425246
 20
27.76750699806301
 30
0.0
  0
VERTEX
  5
6D1
  8
CUT_HALFWAY_THROUGH
 10
84.77962097563992
 20
25.82771
 30
0.0
  0
VERTEX
  5
6D2
  8
CUT_HALFWAY_THROUGH
 10
91.03358526156902
 20
27.76750797590942
 30
0.0
 42
0.7368231252253463
  0
VERTEX
  5
6D3
  8
CUT_HALFWAY_THROUGH
 10
91.03358688980667
 20
27.98240582922548
 30
0.0
  0
VERTEX
  5
6D4
  8
CUT_HALFWAY_THROUGH
 10
84.82737597563991
 20
29.907472
 30
0.0
  0
VERTEX
  5
6D5
  8
CUT_HALFWAY_THROUGH
 10
84.82737597563991
 20
29.593371
 30
0.0
  0
VERTEX
  5
6D6
  8
CUT_HALFWAY_THROUGH
 10
90.36734997563991
 20
27.874961
 30
0.0
  0
VERTEX
  5
6D7
  8
CUT_HALFWAY_THROUGH
 10
84.77962097563992
 20
26.14181000000001
 30
0.0
  0
VERTEX
  5
6D8
  8
CUT_HALFWAY_THROUGH
 10
79.1918919756399
 20
27.874961
 30
0.0
  0
VERTEX
  5
6D9
  8
CUT_HALFWAY_THROUGH
 10
84.77962097563992
 20
29.60818399999999
 30
0.0
  0
VERTEX
  5
6DA
  8
CUT_HALFWAY_THROUGH
 10
84.77962097563992
 20
29.294084
 30
0.0
  0
VERTEX
  5
6DB
  8
CUT_HALFWAY_THROUGH
 10
80.2045389756399
 20
27.874967
 30
0.0
  0
VERTEX
  5
6DC
  8
CUT_HALFWAY_THROUGH
 10
84.77962097563992
 20
26.45590900000001
 30
0.0
  0
VERTEX
  5
6DD
  8
CUT_HALFWAY_THROUGH
 10
89.35470297563991
 20
27.874967
 30
0.0
  0
VERTEX
  5
6DE
  8
CUT_HALFWAY_THROUGH
 10
84.82737597563991
 20
29.27927099999999
 30
0.0
  0
VERTEX
  5
6DF
  8
CUT_HALFWAY_THROUGH
 10
84.82737597563991
 20
28.96517
 30
0.0
  0
VERTEX
  5
6E0
  8
CUT_HALFWAY_THROUGH
 10
88.3420569756399
 20
27.874973
 30
0.0
  0
VERTEX
  5
6E1
  8
CUT_HALFWAY_THROUGH
 10
84.77962097563992
 20
26.770009
 30
0.0
  0
VERTEX
  5
6E2
  8
CUT_HALFWAY_THROUGH
 10
81.21718597563991
 20
27.874973
 30
0.0
  0
VERTEX
  5
6E3
  8
CUT_HALFWAY_THROUGH
 10
84.77962097563992
 20
28.979983
 30
0.0
  0
VERTEX
  5
6E4
  8
CUT_HALFWAY_THROUGH
 10
84.77962097563992
 20
28.665882
 30
0.0
  0
VERTEX
  5
6E5
  8
CUT_HALFWAY_THROUGH
 10
82.22983197563991
 20
27.874979
 30
0.0
  0
VERTEX
  5
6E6
  8
CUT_HALFWAY_THROUGH
 10
84.77962097563992
 20
27.084108
 30
0.0
  0
VERTEX
  5
6E7
  8
CUT_HALFWAY_THROUGH
 10
87.3294099756399
 20
27.874979
 30
0.0
  0
VERTEX
  5
6E8
  8
CUT_HALFWAY_THROUGH
 10
84.82737597563991
 20
28.65106900000001
 30
0.0
  0
VERTEX
  5
6E9
  8
CUT_HALFWAY_THROUGH
 10
84.82737597563991
 20
28.336968
 30
0.0
  0
VERTEX
  5
6EA
  8
CUT_HALFWAY_THROUGH
 10
86.3167629756399
 20
27.874985
 30
0.0
  0
VERTEX
  5
6EB
  8
CUT_HALFWAY_THROUGH
 10
84.77962097563992
 20
27.398208
 30
0.0
  0
VERTEX
  5
6EC
  8
CUT_HALFWAY_THROUGH
 10
83.24247897563991
 20
27.874985
 30
0.0
  0
VERTEX
  5
6ED
  8
CUT_HALFWAY_THROUGH
 10
84.77962097563992
 20
28.351781
 30
0.0
  0
VERTEX
  5
6EE
  8
CUT_HALFWAY_THROUGH
 10
84.77962097563992
 20
28.03768100000001
 30
0.0
  0
VERTEX
  5
6EF
  8
CUT_HALFWAY_THROUGH
 10
84.25512597563991
 20
27.87499099999999
 30
0.0
  0
VERTEX
  5
6F0
  8
CUT_HALFWAY_THROUGH
 10
84.77962097563992
 20
27.71230799999999
 30
0.0
  0
VERTEX
  5
6F1
  8
CUT_HALFWAY_THROUGH
 10
85.3041159756399
 20
27.87499099999999
 30
0.0
  0
VERTEX
  5
6F2
  8
CUT_HALFWAY_THROUGH
 10
84.82737597563991
 20
28.022868
 30
0.0
  0
VERTEX
  5
6F3
  8
CUT_HALFWAY_THROUGH
 10
91.00025797563991
 20
27.87495699999999
 30
0.0
  0
VERTEX
  5
6F4
  8
CUT_HALFWAY_THROUGH
 10
78.55898797563991
 20
27.87495699999999
 30
0.0
  0
SEQEND
  5
6F5
  8
CUT_HALFWAY_THROUGH
  0
POLYLINE
  5
5E
  8
CUT_HALFWAY_THROUGH
 66
     1
 10
0.0
 20
0.0
 30
0.0
  0
VERTEX
  5
6F6
  8
CUT_HALFWAY_THROUGH
 10
84.92288697563991
 20
38.973128
 30
0.0
  0
VERTEX
  5
6F7
  8
CUT_HALFWAY_THROUGH
 10
78.17014802748648
 20
36.87853689545912
 30
0.0
 42
0.7368230982963228
  0
VERTEX
  5
6F8
  8
CUT_HALFWAY_THROUGH
 10
78.17016292262815
 20
34.37137481073518
 30
0.0
  0
VERTEX
  5
6F9
  8
CUT_HALFWAY_THROUGH
 10
84.92288797563991
 20
32.276876
 30
0.0
  0
VERTEX
  5
6FA
  8
CUT_HALFWAY_THROUGH
 10
84.82737597563991
 20
32.336125
 30
0.0
  0
VERTEX
  5
6FB
  8
CUT_HALFWAY_THROUGH
 10
91.3890828914674
 20
34.37137579168388
 30
0.0
 42
0.7368231252251518
  0
VERTEX
  5
6FC
  8
CUT_HALFWAY_THROUGH
 10
91.38909772096622
 20
36.87853593487162
 30
0.0
  0
VERTEX
  5
6FD
  8
CUT_HALFWAY_THROUGH
 10
84.82737597563991
 20
38.913876
 30
0.0
  0
VERTEX
  5
6FE
  8
CUT_HALFWAY_THROUGH
 10
84.82737597563991
 20
38.59977499999999
 30
0.0
  0
VERTEX
  5
6FF
  8
CUT_HALFWAY_THROUGH
 10
91.30021988817631
 20
36.59200378346009
 30
0.0
 42
-0.7368231252251604
  0
VERTEX
  5
700
  8
CUT_HALFWAY_THROUGH
 10
91.3002082339928
 20
34.65790896274027
 30
0.0
  0
VERTEX
  5
701
  8
CUT_HALFWAY_THROUGH
 10
84.77962097563992
 20
32.635412
 30
0.0
  0
VERTEX
  5
702
  8
CUT_HALFWAY_THROUGH
 10
78.25903707760227
 20
34.65790798256713
 30
0.0
 42
-0.73682309829633
  0
VERTEX
  5
703
  8
CUT_HALFWAY_THROUGH
 10
78.2590258727787
 20
36.59200474792561
 30
0.0
  0
VERTEX
  5
704
  8
CUT_HALFWAY_THROUGH
 10
84.77962097563992
 20
38.614588
 30
0.0
  0
VERTEX
  5
705
  8
CUT_HALFWAY_THROUGH
 10
84.77962097563992
 20
38.300487
 30
0.0
  0
VERTEX
  5
706
  8
CUT_HALFWAY_THROUGH
 10
78.34790321807091
 20
36.30547210039209
 30
0.0
 42
0.7368230982963286
  0
VERTEX
  5
707
  8
CUT_HALFWAY_THROUGH
 10
78.34791148951285
 20
34.94444130879819
 30
0.0
  0
VERTEX
  5
708
  8
CUT_HALFWAY_THROUGH
 10
84.77962097563992
 20
32.949512
 30
0.0
  0
VERTEX
  5
709
  8
CUT_HALFWAY_THROUGH
 10
91.2113340765182
 20
34.94444263379665
 30
0.0
 42
0.7368231252251459
  0
VERTEX
  5
70A
  8
CUT_HALFWAY_THROUGH
 10
91.21134213513297
 20
36.30547126409711
 30
0.0
  0
VERTEX
  5
70B
  8
CUT_HALFWAY_THROUGH
 10
84.82737597563991
 20
38.285674
 30
0.0
  0
VERTEX
  5
70C
  8
CUT_HALFWAY_THROUGH
 10
84.82737597563991
 20
37.971574
 30
0.0
  0
VERTEX
  5
70D
  8
CUT_HALFWAY_THROUGH
 10
91.12246422259656
 20
36.01893898063702
 30
0.0
 42
-0.7368231252251587
  0
VERTEX
  5
70E
  8
CUT_HALFWAY_THROUGH
 10
91.12245991904362
 20
35.23097580485304
 30
0.0
  0
VERTEX
  5
70F
  8
CUT_HALFWAY_THROUGH
 10
84.77962097563992
 20
33.26361199999999
 30
0.0
  0
VERTEX
  5
710
  8
CUT_HALFWAY_THROUGH
 10
78.4367858875505
 20
35.23097482623105
 30
0.0
 42
-0.7368230982963082
  0
VERTEX
  5
711
  8
CUT_HALFWAY_THROUGH
 10
78.43678106336311
 20
36.01893995285858
 30
0.0
  0
VERTEX
  5
712
  8
CUT_HALFWAY_THROUGH
 10
84.77962097563992
 20
37.98638699999999
 30
0.0
  0
VERTEX
  5
713
  8
CUT_HALFWAY_THROUGH
 10
84.77962097563992
 20
37.672286
 30
0.0
  0
VERTEX
  5
714
  8
CUT_HALFWAY_THROUGH
 10
78.52565890865533
 20
35.73240780532506
 30
0.0
 42
0.7368230982960815
  0
VERTEX
  5
715
  8
CUT_HALFWAY_THROUGH
 10
78.5256600425246
 20
35.51750799806301
 30
0.0
  0
VERTEX
  5
716
  8
CUT_HALFWAY_THROUGH
 10
84.77962097563992
 20
33.57771099999999
 30
0.0
  0
VERTEX
  5
717
  8
CUT_HALFWAY_THROUGH
 10
91.03358526156902
 20
35.51750897590942
 30
0.0
 42
0.7368231252253463
  0
VERTEX
  5
718
  8
CUT_HALFWAY_THROUGH
 10
91.03358688980667
 20
35.73240682922548
 30
0.0
  0
VERTEX
  5
719
  8
CUT_HALFWAY_THROUGH
 10
84.82737597563991
 20
37.657473
 30
0.0
  0
VERTEX
  5
71A
  8
CUT_HALFWAY_THROUGH
 10
84.82737597563991
 20
37.343372
 30
0.0
  0
VERTEX
  5
71B
  8
CUT_HALFWAY_THROUGH
 10
90.36734997563991
 20
35.624962
 30
0.0
  0
VERTEX
  5
71C
  8
CUT_HALFWAY_THROUGH
 10
84.77962097563992
 20
33.891811
 30
0.0
  0
VERTEX
  5
71D
  8
CUT_HALFWAY_THROUGH
 10
79.1918919756399
 20
35.624962
 30
0.0
  0
VERTEX
  5
71E
  8
CUT_HALFWAY_THROUGH
 10
84.77962097563992
 20
37.35818499999999
 30
0.0
  0
VERTEX
  5
71F
  8
CUT_HALFWAY_THROUGH
 10
84.77962097563992
 20
37.044085
 30
0.0
  0
VERTEX
  5
720
  8
CUT_HALFWAY_THROUGH
 10
80.2045389756399
 20
35.624968
 30
0.0
  0
VERTEX
  5
721
  8
CUT_HALFWAY_THROUGH
 10
84.77962097563992
 20
34.20591
 30
0.0
  0
VERTEX
  5
722
  8
CUT_HALFWAY_THROUGH
 10
89.35470297563991
 20
35.624968
 30
0.0
  0
VERTEX
  5
723
  8
CUT_HALFWAY_THROUGH
 10
84.82737597563991
 20
37.02927199999999
 30
0.0
  0
VERTEX
  5
724
  8
CUT_HALFWAY_THROUGH
 10
84.82737597563991
 20
36.715171
 30
0.0
  0
VERTEX
  5
725
  8
CUT_HALFWAY_THROUGH
 10
88.3420569756399
 20
35.62497399999999
 30
0.0
  0
VERTEX
  5
726
  8
CUT_HALFWAY_THROUGH
 10
84.77962097563992
 20
34.52001
 30
0.0
  0
VERTEX
  5
727
  8
CUT_HALFWAY_THROUGH
 10
81.21718597563991
 20
35.62497399999999
 30
0.0
  0
VERTEX
  5
728
  8
CUT_HALFWAY_THROUGH
 10
84.77962097563992
 20
36.729984
 30
0.0
  0
VERTEX
  5
729
  8
CUT_HALFWAY_THROUGH
 10
84.77962097563992
 20
36.41588299999999
 30
0.0
  0
VERTEX
  5
72A
  8
CUT_HALFWAY_THROUGH
 10
82.22983197563991
 20
35.62497999999999
 30
0.0
  0
VERTEX
  5
72B
  8
CUT_HALFWAY_THROUGH
 10
84.77962097563992
 20
34.834109
 30
0.0
  0
VERTEX
  5
72C
  8
CUT_HALFWAY_THROUGH
 10
87.3294099756399
 20
35.62497999999999
 30
0.0
  0
VERTEX
  5
72D
  8
CUT_HALFWAY_THROUGH
 10
84.82737597563991
 20
36.40107
 30
0.0
  0
VERTEX
  5
72E
  8
CUT_HALFWAY_THROUGH
 10
84.82737597563991
 20
36.086969
 30
0.0
  0
VERTEX
  5
72F
  8
CUT_HALFWAY_THROUGH
 10
86.3167629756399
 20
35.62498599999999
 30
0.0
  0
VERTEX
  5
730
  8
CUT_HALFWAY_THROUGH
 10
84.77962097563992
 20
35.14820899999999
 30
0.0
  0
VERTEX
  5
731
  8
CUT_HALFWAY_THROUGH
 10
83.24247897563991
 20
35.62498599999999
 30
0.0
  0
VERTEX
  5
732
  8
CUT_HALFWAY_THROUGH
 10
84.77962097563992
 20
36.101782
 30
0.0
  0
VERTEX
  5
733
  8
CUT_HALFWAY_THROUGH
 10
84.77962097563992
 20
35.787682
 30
0.0
  0
VERTEX
  5
734
  8
CUT_HALFWAY_THROUGH
 10
84.25512597563991
 20
35.62499199999999
 30
0.0
  0
VERTEX
  5
735
  8
CUT_HALFWAY_THROUGH
 10
84.77962097563992
 20
35.46230899999999
 30
0.0
  0
VERTEX
  5
736
  8
CUT_HALFWAY_THROUGH
 10
85.3041159756399
 20
35.62499199999999
 30
0.0
  0
VERTEX
  5
737
  8
CUT_HALFWAY_THROUGH
 10
84.82737597563991
 20
35.772869
 30
0.0
  0
VERTEX
  5
738
  8
CUT_HALFWAY_THROUGH
 10
91.00025797563991
 20
35.62495799999999
 30
0.0
  0
VERTEX
  5
739
  8
CUT_HALFWAY_THROUGH
 10
78.55898797563991
 20
35.62495799999999
 30
0.0
  0
SEQEND
  5
73A
  8
CUT_HALFWAY_THROUGH
  0
POLYLINE
  5
5F
  8
CUT_HALFWAY_THROUGH
 66
     1
 10
0.0
 20
0.0
 30
0.0
  0
VERTEX
  5
73B
  8
CUT_HALFWAY_THROUGH
 10
84.92288697563991
 20
46.723129
 30
0.0
  0
VERTEX
  5
73C
  8
CUT_HALFWAY_THROUGH
 10
78.17014802748648
 20
44.62853789545912
 30
0.0
 42
0.7368230982963239
  0
VERTEX
  5
73D
  8
CUT_HALFWAY_THROUGH
 10
78.17016292262815
 20
42.12137581073517
 30
0.0
  0
VERTEX
  5
73E
  8
CUT_HALFWAY_THROUGH
 10
84.92288797563991
 20
40.026877
 30
0.0
  0
VERTEX
  5
73F
  8
CUT_HALFWAY_THROUGH
 10
84.82737597563991
 20
40.08612599999999
 30
0.0
  0
VERTEX
  5
740
  8
CUT_HALFWAY_THROUGH
 10
91.3890828914674
 20
42.12137679168388
 30
0.0
 42
0.7368231252251518
  0
VERTEX
  5
741
  8
CUT_HALFWAY_THROUGH
 10
91.38909772096622
 20
44.62853693487162
 30
0.0
  0
VERTEX
  5
742
  8
CUT_HALFWAY_THROUGH
 10
84.82737597563991
 20
46.663877
 30
0.0
  0
VERTEX
  5
743
  8
CUT_HALFWAY_THROUGH
 10
84.82737597563991
 20
46.34977599999999
 30
0.0
  0
VERTEX
  5
744
  8
CUT_HALFWAY_THROUGH
 10
91.30021988817631
 20
44.34200478346008
 30
0.0
 42
-0.7368231252251587
  0
VERTEX
  5
745
  8
CUT_HALFWAY_THROUGH
 10
91.3002082339928
 20
42.40790996274027
 30
0.0
  0
VERTEX
  5
746
  8
CUT_HALFWAY_THROUGH
 10
84.77962097563992
 20
40.385413
 30
0.0
  0
VERTEX
  5
747
  8
CUT_HALFWAY_THROUGH
 10
78.25903707760227
 20
42.40790898256713
 30
0.0
 42
-0.7368230982963291
  0
VERTEX
  5
748
  8
CUT_HALFWAY_THROUGH
 10
78.2590258727787
 20
44.3420057479256
 30
0.0
  0
VERTEX
  5
749
  8
CUT_HALFWAY_THROUGH
 10
84.77962097563992
 20
46.364589
 30
0.0
  0
VERTEX
  5
74A
  8
CUT_HALFWAY_THROUGH
 10
84.77962097563992
 20
46.050488
 30
0.0
  0
VERTEX
  5
74B
  8
CUT_HALFWAY_THROUGH
 10
78.34790321807091
 20
44.05547310039208
 30
0.0
 42
0.7368230982963275
  0
VERTEX
  5
74C
  8
CUT_HALFWAY_THROUGH
 10
78.34791148951285
 20
42.69444230879819
 30
0.0
  0
VERTEX
  5
74D
  8
CUT_HALFWAY_THROUGH
 10
84.77962097563992
 20
40.699513
 30
0.0
  0
VERTEX
  5
74E
  8
CUT_HALFWAY_THROUGH
 10
91.2113340765182
 20
42.69444363379665
 30
0.0
 42
0.7368231252251459
  0
VERTEX
  5
74F
  8
CUT_HALFWAY_THROUGH
 10
91.21134213513297
 20
44.05547226409711
 30
0.0
  0
VERTEX
  5
750
  8
CUT_HALFWAY_THROUGH
 10
84.82737597563991
 20
46.035675
 30
0.0
  0
VERTEX
  5
751
  8
CUT_HALFWAY_THROUGH
 10
84.82737597563991
 20
45.721575
 30
0.0
  0
VERTEX
  5
752
  8
CUT_HALFWAY_THROUGH
 10
91.12246422259656
 20
43.76893998063701
 30
0.0
 42
-0.7368231252251547
  0
VERTEX
  5
753
  8
CUT_HALFWAY_THROUGH
 10
91.12245991904362
 20
42.98097680485304
 30
0.0
  0
VERTEX
  5
754
  8
CUT_HALFWAY_THROUGH
 10
84.77962097563992
 20
41.01361299999999
 30
0.0
  0
VERTEX
  5
755
  8
CUT_HALFWAY_THROUGH
 10
78.4367858875505
 20
42.98097582623105
 30
0.0
 42
-0.7368230982963317
  0
VERTEX
  5
756
  8
CUT_HALFWAY_THROUGH
 10
78.43678106336311
 20
43.76894095285858
 30
0.0
  0
VERTEX
  5
757
  8
CUT_HALFWAY_THROUGH
 10
84.77962097563992
 20
45.73638799999999
 30
0.0
  0
VERTEX
  5
758
  8
CUT_HALFWAY_THROUGH
 10
84.77962097563992
 20
45.422287
 30
0.0
  0
VERTEX
  5
759
  8
CUT_HALFWAY_THROUGH
 10
78.52565890865533
 20
43.48240880532506
 30
0.0
 42
0.7368230982960815
  0
VERTEX
  5
75A
  8
CUT_HALFWAY_THROUGH
 10
78.5256600425246
 20
43.26750899806301
 30
0.0
  0
VERTEX
  5
75B
  8
CUT_HALFWAY_THROUGH
 10
84.77962097563992
 20
41.32771199999999
 30
0.0
  0
VERTEX
  5
75C
  8
CUT_HALFWAY_THROUGH
 10
91.03358526156902
 20
43.26750997590942
 30
0.0
 42
0.7368231252253463
  0
VERTEX
  5
75D
  8
CUT_HALFWAY_THROUGH
 10
91.03358688980667
 20
43.48240782922548
 30
0.0
  0
VERTEX
  5
75E
  8
CUT_HALFWAY_THROUGH
 10
84.82737597563991
 20
45.40747399999999
 30
0.0
  0
VERTEX
  5
75F
  8
CUT_HALFWAY_THROUGH
 10
84.82737597563991
 20
45.093373
 30
0.0
  0
VERTEX
  5
760
  8
CUT_HALFWAY_THROUGH
 10
90.36734997563991
 20
43.37496299999999
 30
0.0
  0
VERTEX
  5
761
  8
CUT_HALFWAY_THROUGH
 10
84.77962097563992
 20
41.641812
 30
0.0
  0
VERTEX
  5
762
  8
CUT_HALFWAY_THROUGH
 10
79.1918919756399
 20
43.37496299999999
 30
0.0
  0
VERTEX
  5
763
  8
CUT_HALFWAY_THROUGH
 10
84.77962097563992
 20
45.10818599999999
 30
0.0
  0
VERTEX
  5
764
  8
CUT_HALFWAY_THROUGH
 10
84.77962097563992
 20
44.79408599999999
 30
0.0
  0
VERTEX
  5
765
  8
CUT_HALFWAY_THROUGH
 10
80.2045389756399
 20
43.37496899999999
 30
0.0
  0
VERTEX
  5
766
  8
CUT_HALFWAY_THROUGH
 10
84.77962097563992
 20
41.955911
 30
0.0
  0
VERTEX
  5
767
  8
CUT_HALFWAY_THROUGH
 10
89.35470297563991
 20
43.37496899999999
 30
0.0
  0
VERTEX
  5
768
  8
CUT_HALFWAY_THROUGH
 10
84.82737597563991
 20
44.77927299999999
 30
0.0
  0
VERTEX
  5
769
  8
CUT_HALFWAY_THROUGH
 10
84.82737597563991
 20
44.465172
 30
0.0
  0
VERTEX
  5
76A
  8
CUT_HALFWAY_THROUGH
 10
88.3420569756399
 20
43.37497499999999
 30
0.0
  0
VERTEX
  5
76B
  8
CUT_HALFWAY_THROUGH
 10
84.77962097563992
 20
42.270011
 30
0.0
  0
VERTEX
  5
76C
  8
CUT_HALFWAY_THROUGH
 10
81.21718597563991
 20
43.37497499999999
 30
0.0
  0
VERTEX
  5
76D
  8
CUT_HALFWAY_THROUGH
 10
84.77962097563992
 20
44.479985
 30
0.0
  0
VERTEX
  5
76E
  8
CUT_HALFWAY_THROUGH
 10
84.77962097563992
 20
44.16588399999999
 30
0.0
  0
VERTEX
  5
76F
  8
CUT_HALFWAY_THROUGH
 10
82.22983197563991
 20
43.37498099999999
 30
0.0
  0
VERTEX
  5
770
  8
CUT_HALFWAY_THROUGH
 10
84.77962097563992
 20
42.58411
 30
0.0
  0
VERTEX
  5
771
  8
CUT_HALFWAY_THROUGH
 10
87.3294099756399
 20
43.37498099999999
 30
0.0
  0
VERTEX
  5
772
  8
CUT_HALFWAY_THROUGH
 10
84.82737597563991
 20
44.151071
 30
0.0
  0
VERTEX
  5
773
  8
CUT_HALFWAY_THROUGH
 10
84.82737597563991
 20
43.83696999999999
 30
0.0
  0
VERTEX
  5
774
  8
CUT_HALFWAY_THROUGH
 10
86.3167629756399
 20
43.37498699999999
 30
0.0
  0
VERTEX
  5
775
  8
CUT_HALFWAY_THROUGH
 10
84.77962097563992
 20
42.89820999999999
 30
0.0
  0
VERTEX
  5
776
  8
CUT_HALFWAY_THROUGH
 10
83.24247897563991
 20
43.37498699999999
 30
0.0
  0
VERTEX
  5
777
  8
CUT_HALFWAY_THROUGH
 10
84.77962097563992
 20
43.851783
 30
0.0
  0
VERTEX
  5
778
  8
CUT_HALFWAY_THROUGH
 10
84.77962097563992
 20
43.537683
 30
0.0
  0
VERTEX
  5
779
  8
CUT_HALFWAY_THROUGH
 10
84.25512597563991
 20
43.37499299999999
 30
0.0
  0
VERTEX
  5
77A
  8
CUT_HALFWAY_THROUGH
 10
84.77962097563992
 20
43.21230999999999
 30
0.0
  0
VERTEX
  5
77B
  8
CUT_HALFWAY_THROUGH
 10
85.3041159756399
 20
43.37499299999999
 30
0.0
  0
VERTEX
  5
77C
  8
CUT_HALFWAY_THROUGH
 10
84.82737597563991
 20
43.52287
 30
0.0
  0
VERTEX
  5
77D
  8
CUT_HALFWAY_THROUGH
 10
91.00025797563991
 20
43.37495899999999
 30
0.0
  0
VERTEX
  5
77E
  8
CUT_HALFWAY_THROUGH
 10
78.55898797563991
 20
43.37495899999999
 30
0.0
  0
SEQEND
  5
77F
  8
CUT_HALFWAY_THROUGH
  0
POLYLINE
  5
61
  8
MARKS_IN_POCKET
 66
     1
 10
0.0
 20
0.0
 30
0.0
 70
     1
  0
VERTEX
  5
780
  8
MARKS_IN_POCKET
 10
84.77962097563992
 20
5.374997500000006
 30
0.0
 42
0.4142135623730951
  0
VERTEX
  5
781
  8
MARKS_IN_POCKET
 10
84.02962097563992
 20
4.624997500000006
 30
0.0
 42
0.4142135623730951
  0
VERTEX
  5
782
  8
MARKS_IN_POCKET
 10
84.77962097563992
 20
3.874997500000006
 30
0.0
 42
0.4142135623730951
  0
VERTEX
  5
783
  8
MARKS_IN_POCKET
 10
85.52962097563992
 20
4.624997500000006
 30
0.0
 42
0.4142135623730951
  0
SEQEND
  5
784
  8
MARKS_IN_POCKET
  0
POLYLINE
  5
62
  8
MARKS_IN_POCKET
 66
     1
 10
0.0
 20
0.0
 30
0.0
 70
     1
  0
VERTEX
  5
785
  8
MARKS_IN_POCKET
 10
84.77962097563992
 20
13.1249985
 30
0.0
 42
0.4142135623730951
  0
VERTEX
  5
786
  8
MARKS_IN_POCKET
 10
84.02962097563992
 20
12.3749985
 30
0.0
 42
0.4142135623730951
  0
VERTEX
  5
787
  8
MARKS_IN_POCKET
 10
84.77962097563992
 20
11.6249985
 30
0.0
 42
0.4142135623730951
  0
VERTEX
  5
788
  8
MARKS_IN_POCKET
 10
85.52962097563992
 20
12.3749985
 30
0.0
 42
0.4142135623730951
  0
SEQEND
  5
789
  8
MARKS_IN_POCKET
  0
POLYLINE
  5
63
  8
MARKS_IN_POCKET
 66
     1
 10
0.0
 20
0.0
 30
0.0
 70
     1
  0
VERTEX
  5
78A
  8
MARKS_IN_POCKET
 10
84.77962097563992
 20
20.8749995
 30
0.0
 42
0.4142135623730951
  0
VERTEX
  5
78B
  8
MARKS_IN_POCKET
 10
84.02962097563992
 20
20.1249995
 30
0.0
 42
0.4142135623730951
  0
VERTEX
  5
78C
  8
MARKS_IN_POCKET
 10
84.77962097563992
 20
19.3749995
 30
0.0
 42
0.4142135623730951
  0
VERTEX
  5
78D
  8
MARKS_IN_POCKET
 10
85.52962097563992
 20
20.1249995
 30
0.0
 42
0.4142135623730951
  0
SEQEND
  5
78E
  8
MARKS_IN_POCKET
  0
POLYLINE
  5
64
  8
MARKS_IN_POCKET
 66
     1
 10
0.0
 20
0.0
 30
0.0
 70
     1
  0
VERTEX
  5
78F
  8
MARKS_IN_POCKET
 10
84.77962097563992
 20
28.6250005
 30
0.0
 42
0.4142135623730951
  0
VERTEX
  5
790
  8
MARKS_IN_POCKET
 10
84.02962097563992
 20
27.8750005
 30
0.0
 42
0.4142135623730951
  0
VERTEX
  5
791
  8
MARKS_IN_POCKET
 10
84.77962097563992
 20
27.1250005
 30
0.0
 42
0.4142135623730951
  0
VERTEX
  5
792
  8
MARKS_IN_POCKET
 10
85.52962097563992
 20
27.8750005
 30
0.0
 42
0.4142135623730951
  0
SEQEND
  5
793
  8
MARKS_IN_POCKET
  0
POLYLINE
  5
65
  8
MARKS_IN_POCKET
 66
     1
 10
0.0
 20
0.0
 30
0.0
 70
     1
  0
VERTEX
  5
794
  8
MARKS_IN_POCKET
 10
84.77962097563992
 20
36.37500149999999
 30
0.0
 42
0.4142135623730951
  0
VERTEX
  5
795
  8
MARKS_IN_POCKET
 10
84.02962097563992
 20
35.62500149999999
 30
0.0
 42
0.4142135623730951
  0
VERTEX
  5
796
  8
MARKS_IN_POCKET
 10
84.77962097563992
 20
34.87500149999999
 30
0.0
 42
0.4142135623730951
  0
VERTEX
  5
797
  8
MARKS_IN_POCKET
 10
85.52962097563992
 20
35.62500149999999
 30
0.0
 42
0.4142135623730951
  0
SEQEND
  5
798
  8
MARKS_IN_POCKET
  0
POLYLINE
  5
66
  8
MARKS_IN_POCKET
 66
     1
 10
0.0
 20
0.0
 30
0.0
 70
     1
  0
VERTEX
  5
799
  8
MARKS_IN_POCKET
 10
84.77962097563992
 20
44.12500249999999
 30
0.0
 42
0.4142135623730951
  0
VERTEX
  5
79A
  8
MARKS_IN_POCKET
 10
84.02962097563992
 20
43.37500249999999
 30
0.0
 42
0.4142135623730951
  0
VERTEX
  5
79B
  8
MARKS_IN_POCKET
 10
84.77962097563992
 20
42.62500249999999
 30
0.0
 42
0.4142135623730951
  0
VERTEX
  5
79C
  8
MARKS_IN_POCKET
 10
85.52962097563992
 20
43.37500249999999
 30
0.0
 42
0.4142135623730951
  0
SEQEND
  5
79D
  8
MARKS_IN_POCKET
  0
ENDSEC
  0
EOF
