  0
SECTION
  2
HEADER
  9
$ACADVER
  1
AC1009
  9
$DWGCODEPAGE
  3
ansi_1252
  9
$INSBASE
 10
0.0
 20
0.0
 30
0.0
  9
$EXTMIN
 10
3.934763186628965
 20
-45.59251216545891
 30
0.0
  9
$EXTMAX
 10
162.970927186629
 20
46.62709957389941
 30
0.0
  9
$LIMMIN
 10
0.0
 20
0.0
  9
$LIMMAX
 10
12.0
 20
9.0
  9
$ORTHOMODE
 70
     0
  9
$REGENMODE
 70
     1
  9
$FILLMODE
 70
     1
  9
$QTEXTMODE
 70
     0
  9
$MIRRTEXT
 70
     1
  9
$DRAGMODE
 70
     2
  9
$LTSCALE
 40
1.0
  9
$OSMODE
 70
    37
  9
$ATTMODE
 70
     1
  9
$TEXTSIZE
 40
0.2
  9
$TRACEWID
 40
0.05
  9
$TEXTSTYLE
  7
STANDARD
  9
$CLAYER
  8
0
  9
$CELTYPE
  6
BYLAYER
  9
$CECOLOR
 62
   256
  9
$DIMSCALE
 40
1.0
  9
$DIMASZ
 40
0.18
  9
$DIMEXO
 40
0.0625
  9
$DIMDLI
 40
0.38
  9
$DIMRND
 40
0.0
  9
$DIMDLE
 40
0.0
  9
$DIMEXE
 40
0.18
  9
$DIMTP
 40
0.0
  9
$DIMTM
 40
0.0
  9
$DIMTXT
 40
0.18
  9
$DIMCEN
 40
0.09
  9
$DIMTSZ
 40
0.0
  9
$DIMTOL
 70
     0
  9
$DIMLIM
 70
     0
  9
$DIMTIH
 70
     1
  9
$DIMTOH
 70
     1
  9
$DIMSE1
 70
     0
  9
$DIMSE2
 70
     0
  9
$DIMTAD
 70
     0
  9
$DIMZIN
 70
     0
  9
$DIMBLK
  1

  9
$DIMASO
 70
     1
  9
$DIMSHO
 70
     1
  9
$DIMPOST
  1

  9
$DIMAPOST
  1

  9
$DIMALT
 70
     0
  9
$DIMALTD
 70
     2
  9
$DIMALTF
 40
25.4
  9
$DIMLFAC
 40
1.0
  9
$DIMTOFL
 70
     0
  9
$DIMTVP
 40
0.0
  9
$DIMTIX
 70
     0
  9
$DIMSOXD
 70
     0
  9
$DIMSAH
 70
     0
  9
$DIMBLK1
  1

  9
$DIMBLK2
  1

  9
$DIMSTYLE
  2
STANDARD
  9
$DIMCLRD
 70
     0
  9
$DIMCLRE
 70
     0
  9
$DIMCLRT
 70
     0
  9
$DIMTFAC
 40
1.0
  9
$DIMGAP
 40
0.09
  9
$LUNITS
 70
     2
  9
$LUPREC
 70
     4
  9
$SKETCHINC
 40
0.1
  9
$FILLETRAD
 40
0.5
  9
$AUNITS
 70
     0
  9
$AUPREC
 70
     0
  9
$MENU
  1
.
  9
$ELEVATION
 40
0.0
  9
$PELEVATION
 40
0.0
  9
$THICKNESS
 40
0.0
  9
$LIMCHECK
 70
     0
  9
$CHAMFERA
 40
0.5
  9
$CHAMFERB
 40
0.5
  9
$SKPOLY
 70
     0
  9
$TDCREATE
 40
2454910.5
  9
$TDUPDATE
 40
2455901.447659086
  9
$TDINDWG
 40
0.0000000116
  9
$TDUSRTIMER
 40
0.0000000116
  9
$USRTIMER
 70
     1
  9
$ANGBASE
 50
0.0
  9
$ANGDIR
 70
     0
  9
$PDMODE
 70
     0
  9
$PDSIZE
 40
0.0
  9
$PLINEWID
 40
0.0
  9
$COORDS
 70
     1
  9
$SPLFRAME
 70
     0
  9
$SPLINETYPE
 70
     6
  9
$SPLINESEGS
 70
     8
  9
$ATTDIA
 70
     0
  9
$ATTREQ
 70
     1
  9
$HANDLING
 70
     1
  9
$HANDSEED
  5
509
  9
$SURFTAB1
 70
     6
  9
$SURFTAB2
 70
     6
  9
$SURFTYPE
 70
     6
  9
$SURFU
 70
     6
  9
$SURFV
 70
     6
  9
$UCSNAME
  2

  9
$UCSORG
 10
0.0
 20
0.0
 30
0.0
  9
$UCSXDIR
 10
1.0
 20
0.0
 30
0.0
  9
$UCSYDIR
 10
0.0
 20
1.0
 30
0.0
  9
$PUCSNAME
  2

  9
$PUCSORG
 10
0.0
 20
0.0
 30
0.0
  9
$PUCSXDIR
 10
1.0
 20
0.0
 30
0.0
  9
$PUCSYDIR
 10
0.0
 20
1.0
 30
0.0
  9
$USERI1
 70
     0
  9
$USERI2
 70
     0
  9
$USERI3
 70
     0
  9
$USERI4
 70
     0
  9
$USERI5
 70
     0
  9
$USERR1
 40
0.0
  9
$USERR2
 40
0.0
  9
$USERR3
 40
0.0
  9
$USERR4
 40
0.0
  9
$USERR5
 40
0.0
  9
$WORLDVIEW
 70
     1
  9
$SHADEDGE
 70
     3
  9
$SHADEDIF
 70
    70
  9
$TILEMODE
 70
     1
  9
$MAXACTVP
 70
    64
  9
$PLIMCHECK
 70
     0
  9
$PEXTMIN
 10
1.000000000000000E+20
 20
1.000000000000000E+20
 30
1.000000000000000E+20
  9
$PEXTMAX
 10
-1.000000000000000E+20
 20
-1.000000000000000E+20
 30
-1.000000000000000E+20
  9
$PLIMMIN
 10
0.0
 20
0.0
  9
$PLIMMAX
 10
12.0
 20
9.0
  9
$UNITMODE
 70
     0
  9
$VISRETAIN
 70
     1
  9
$PLINEGEN
 70
     0
  9
$PSLTSCALE
 70
     1
  0
ENDSEC
  0
SECTION
  2
TABLES
  0
TABLE
  2
VPORT
 70
     1
  0
VPORT
  2
*ACTIVE
 70
     0
 10
0.0
 20
0.0
 11
1.0
 21
1.0
 12
10.42990654205607
 22
4.5
 13
0.0
 23
0.0
 14
0.5
 24
0.5
 15
0.5
 25
0.5
 16
0.0
 26
0.0
 36
1.0
 17
0.0
 27
0.0
 37
0.0
 40
9.0
 41
1.972972972850329
 42
50.0
 43
0.0
 44
0.0
 50
0.0
 51
0.0
 71
     0
 72
   100
 73
     1
 74
     3
 75
     0
 76
     0
 77
     0
 78
     0
  0
ENDTAB
  0
TABLE
  2
LTYPE
 70
     2
  0
LTYPE
  2
CONTINUOUS
 70
     0
  3
Solid line
 72
    65
 73
     0
 40
0.0
  0
LTYPE
  2
CONTINUOUS2
 70
     0
  3
Solid Line
 72
    65
 73
     0
 40
0.0
  0
ENDTAB
  0
TABLE
  2
LAYER
 70
     3
  0
LAYER
  2
0
 70
     0
 62
     7
  6
CONTINUOUS
  0
LAYER
  2
THROUGH_CUT
 70
     0
 62
    18
  6
CONTINUOUS
  0
LAYER
  2
MARKS_ON_FACE
 70
     0
 62
     5
  6
CONTINUOUS
  0
ENDTAB
  0
TABLE
  2
STYLE
 70
     1
  0
STYLE
  2
STANDARD
 70
     0
 40
0.0
 41
1.0
 50
0.0
 71
     0
 42
0.2
  3
txt
  4

  0
ENDTAB
  0
TABLE
  2
VIEW
 70
     0
  0
ENDTAB
  0
TABLE
  2
UCS
 70
     0
  0
ENDTAB
  0
TABLE
  2
APPID
 70
     1
  0
APPID
  2
ACAD
 70
     0
  0
ENDTAB
  0
TABLE
  2
DIMSTYLE
 70
     1
  0
DIMSTYLE
  2
STANDARD
 70
     0
  3

  4

  5

  6

  7

 40
1.0
 41
0.18
 42
0.0625
 43
0.38
 44
0.18
 45
0.0
 46
0.0
 47
0.0
 48
0.0
140
0.18
141
0.09
142
0.0
143
25.4
144
1.0
145
0.0
146
1.0
147
0.09
 71
     0
 72
     0
 73
     1
 74
     1
 75
     0
 76
     0
 77
     0
 78
     0
170
     0
171
     2
172
     0
173
     0
174
     0
175
     0
176
     0
177
     0
178
     0
  0
ENDTAB
  0
ENDSEC
  0
SECTION
  2
BLOCKS
  0
BLOCK
  8
0
  2
$MODEL_SPACE
 70
     0
 10
0.0
 20
0.0
 30
0.0
  3
$MODEL_SPACE
  1

  0
ENDBLK
  5
21
  8
0
  0
BLOCK
 67
     1
  8
0
  2
$PAPER_SPACE
 70
     0
 10
0.0
 20
0.0
 30
0.0
  3
$PAPER_SPACE
  1

  0
ENDBLK
  5
1D
 67
     1
  8
0
  0
ENDSEC
  0
SECTION
  2
ENTITIES
  0
POLYLINE
  5
41
  8
THROUGH_CUT
 66
     1
 10
0.0
 20
0.0
 30
0.0
 70
     1
  0
VERTEX
  5
7A
  8
THROUGH_CUT
 10
81.87723468035803
 20
4.759360352197369
 30
0.0
 42
0.4142135623731158
  0
VERTEX
  5
7B
  8
THROUGH_CUT
 10
81.67723468035804
 20
4.559360352197366
 30
0.0
 42
0.4142135623731158
  0
VERTEX
  5
7C
  8
THROUGH_CUT
 10
81.87723468035803
 20
4.359360352197363
 30
0.0
 42
0.4142135623730951
  0
VERTEX
  5
7D
  8
THROUGH_CUT
 10
82.07723468035805
 20
4.559360352197366
 30
0.0
 42
0.4142135623730951
  0
SEQEND
  5
7E
  8
THROUGH_CUT
  0
POLYLINE
  5
42
  8
THROUGH_CUT
 66
     1
 10
0.0
 20
0.0
 30
0.0
 70
     1
  0
VERTEX
  5
7F
  8
THROUGH_CUT
 10
12.8482487825534
 20
4.257293042293725
 30
0.0
 42
0.9634013525171801
  0
VERTEX
  5
80
  8
THROUGH_CUT
 10
12.89158158679377
 20
3.864921087655935
 30
0.0
 42
0.9642873832494362
  0
VERTEX
  5
81
  8
THROUGH_CUT
 10
12.87723268035804
 20
4.259404352197372
 30
0.0
 42
0.0181809530800668
  0
VERTEX
  5
82
  8
THROUGH_CUT
 10
12.86252089235165
 20
4.258869226658265
 30
0.0
 42
0.0186404310233797
  0
SEQEND
  5
83
  8
THROUGH_CUT
  0
POLYLINE
  5
43
  8
THROUGH_CUT
 66
     1
 10
0.0
 20
0.0
 30
0.0
 70
     1
  0
VERTEX
  5
84
  8
THROUGH_CUT
 10
34.8482487825534
 20
4.257293042293724
 30
0.0
 42
0.9634013525171781
  0
VERTEX
  5
85
  8
THROUGH_CUT
 10
34.89158158679378
 20
3.864921087655949
 30
0.0
 42
0.9642873832494467
  0
VERTEX
  5
86
  8
THROUGH_CUT
 10
34.87723268035803
 20
4.259404352197372
 30
0.0
 42
0.0181809530800668
  0
VERTEX
  5
87
  8
THROUGH_CUT
 10
34.86252089235164
 20
4.258869226658265
 30
0.0
 42
0.0186404310233452
  0
SEQEND
  5
88
  8
THROUGH_CUT
  0
POLYLINE
  5
44
  8
THROUGH_CUT
 66
     1
 10
0.0
 20
0.0
 30
0.0
 70
     1
  0
VERTEX
  5
89
  8
THROUGH_CUT
 10
56.8482487825534
 20
4.257293042293725
 30
0.0
 42
0.9634013525171482
  0
VERTEX
  5
8A
  8
THROUGH_CUT
 10
56.8926019801198
 20
3.855681581216123
 30
0.0
 42
0.9659220169862599
  0
VERTEX
  5
8B
  8
THROUGH_CUT
 10
56.87723268035803
 20
4.259404352197372
 30
0.0
 42
0.017334351372683
  0
VERTEX
  5
8C
  8
THROUGH_CUT
 10
56.86217631585818
 20
4.258831172292859
 30
0.0
 42
0.0186404310234139
  0
SEQEND
  5
8D
  8
THROUGH_CUT
  0
POLYLINE
  5
45
  8
THROUGH_CUT
 66
     1
 10
0.0
 20
0.0
 30
0.0
 70
     1
  0
VERTEX
  5
8E
  8
THROUGH_CUT
 10
14.35914868035805
 20
12.50936335219737
 30
0.0
 42
-0.4142135623731158
  0
VERTEX
  5
8F
  8
THROUGH_CUT
 10
14.55914868035804
 20
12.30936335219737
 30
0.0
 42
-0.4142135623731158
  0
VERTEX
  5
90
  8
THROUGH_CUT
 10
14.35914868035805
 20
12.10936335219736
 30
0.0
 42
-0.4142135623730951
  0
VERTEX
  5
91
  8
THROUGH_CUT
 10
14.15914868035803
 20
12.30936335219737
 30
0.0
 42
-0.4142135623730951
  0
SEQEND
  5
92
  8
THROUGH_CUT
  0
POLYLINE
  5
46
  8
THROUGH_CUT
 66
     1
 10
0.0
 20
0.0
 30
0.0
 70
     1
  0
VERTEX
  5
93
  8
THROUGH_CUT
 10
83.38813457816268
 20
12.00729604229372
 30
0.0
 42
-0.9634013525171801
  0
VERTEX
  5
94
  8
THROUGH_CUT
 10
83.3448017739223
 20
11.61492408765594
 30
0.0
 42
-0.9642873832494362
  0
VERTEX
  5
95
  8
THROUGH_CUT
 10
83.35915068035804
 20
12.00940735219737
 30
0.0
 42
-0.0181809530800668
  0
VERTEX
  5
96
  8
THROUGH_CUT
 10
83.37386246836442
 20
12.00887222665827
 30
0.0
 42
-0.0186404310233797
  0
SEQEND
  5
97
  8
THROUGH_CUT
  0
POLYLINE
  5
47
  8
THROUGH_CUT
 66
     1
 10
0.0
 20
0.0
 30
0.0
 70
     1
  0
VERTEX
  5
98
  8
THROUGH_CUT
 10
61.38813457816268
 20
12.00729604229372
 30
0.0
 42
-0.9634013525171781
  0
VERTEX
  5
99
  8
THROUGH_CUT
 10
61.3448017739223
 20
11.61492408765595
 30
0.0
 42
-0.9642873832494467
  0
VERTEX
  5
9A
  8
THROUGH_CUT
 10
61.35915068035804
 20
12.00940735219737
 30
0.0
 42
-0.0181809530800668
  0
VERTEX
  5
9B
  8
THROUGH_CUT
 10
61.37386246836444
 20
12.00887222665827
 30
0.0
 42
-0.0186404310233452
  0
SEQEND
  5
9C
  8
THROUGH_CUT
  0
POLYLINE
  5
48
  8
THROUGH_CUT
 66
     1
 10
0.0
 20
0.0
 30
0.0
 70
     1
  0
VERTEX
  5
9D
  8
THROUGH_CUT
 10
39.38813457816268
 20
12.00729604229372
 30
0.0
 42
-0.9634013525171482
  0
VERTEX
  5
9E
  8
THROUGH_CUT
 10
39.34378138059628
 20
11.60568458121612
 30
0.0
 42
-0.9659220169862599
  0
VERTEX
  5
9F
  8
THROUGH_CUT
 10
39.35915068035804
 20
12.00940735219737
 30
0.0
 42
-0.017334351372683
  0
VERTEX
  5
A0
  8
THROUGH_CUT
 10
39.3742070448579
 20
12.00883417229286
 30
0.0
 42
-0.0186404310234139
  0
SEQEND
  5
A1
  8
THROUGH_CUT
  0
POLYLINE
  5
49
  8
THROUGH_CUT
 66
     1
 10
0.0
 20
0.0
 30
0.0
 70
     1
  0
VERTEX
  5
A2
  8
THROUGH_CUT
 10
87.87723268035803
 20
1.059403602197371
 30
0.0
  0
VERTEX
  5
A3
  8
THROUGH_CUT
 10
88.92028607095129
 20
2.102350461604097
 30
0.0
 42
0.4142135623730944
  0
VERTEX
  5
A4
  8
THROUGH_CUT
 10
88.92028607095129
 20
3.516457242790644
 30
0.0
  0
VERTEX
  5
A5
  8
THROUGH_CUT
 10
86.83417928976475
 20
5.602350461604098
 30
0.0
 42
-0.4142135623730946
  0
VERTEX
  5
A6
  8
THROUGH_CUT
 10
86.83417928976475
 20
7.016457242790645
 30
0.0
  0
VERTEX
  5
A7
  8
THROUGH_CUT
 10
87.87723268035803
 20
8.05940410219737
 30
0.0
  0
VERTEX
  5
A8
  8
THROUGH_CUT
 10
77.25223268035803
 20
8.05940435219737
 30
0.0
  0
VERTEX
  5
A9
  8
THROUGH_CUT
 10
77.25223268035803
 20
6.439404352197369
 30
0.0
 42
-1.0
  0
VERTEX
  5
AA
  8
THROUGH_CUT
 10
77.25223268035803
 20
6.059404352197369
 30
0.0
  0
VERTEX
  5
AB
  8
THROUGH_CUT
 10
76.50223268035803
 20
6.059404352197369
 30
0.0
 42
-1.0
  0
VERTEX
  5
AC
  8
THROUGH_CUT
 10
76.50223268035803
 20
6.439404352197369
 30
0.0
  0
VERTEX
  5
AD
  8
THROUGH_CUT
 10
76.50223268035803
 20
8.059404352197369
 30
0.0
  0
VERTEX
  5
AE
  8
THROUGH_CUT
 10
55.25223268035803
 20
8.059404352197369
 30
0.0
  0
VERTEX
  5
AF
  8
THROUGH_CUT
 10
55.25223268035803
 20
6.439404352197369
 30
0.0
 42
-1.0
  0
VERTEX
  5
B0
  8
THROUGH_CUT
 10
55.25223268035803
 20
6.059404352197369
 30
0.0
  0
VERTEX
  5
B1
  8
THROUGH_CUT
 10
54.50223268035803
 20
6.059404352197369
 30
0.0
 42
-1.0
  0
VERTEX
  5
B2
  8
THROUGH_CUT
 10
54.50223268035803
 20
6.439404352197369
 30
0.0
  0
VERTEX
  5
B3
  8
THROUGH_CUT
 10
54.50223268035803
 20
8.059404352197369
 30
0.0
  0
VERTEX
  5
B4
  8
THROUGH_CUT
 10
33.25223268035804
 20
8.059404352197369
 30
0.0
  0
VERTEX
  5
B5
  8
THROUGH_CUT
 10
33.25223268035804
 20
6.439404352197369
 30
0.0
 42
-1.0
  0
VERTEX
  5
B6
  8
THROUGH_CUT
 10
33.25223268035804
 20
6.059404352197369
 30
0.0
  0
VERTEX
  5
B7
  8
THROUGH_CUT
 10
32.50223268035804
 20
6.059404352197369
 30
0.0
 42
-1.0
  0
VERTEX
  5
B8
  8
THROUGH_CUT
 10
32.50223268035804
 20
6.439404352197369
 30
0.0
  0
VERTEX
  5
B9
  8
THROUGH_CUT
 10
32.50223268035804
 20
8.059404352197369
 30
0.0
  0
VERTEX
  5
BA
  8
THROUGH_CUT
 10
11.25223268035804
 20
8.059404352197369
 30
0.0
  0
VERTEX
  5
BB
  8
THROUGH_CUT
 10
11.25223268035804
 20
6.439404352197369
 30
0.0
 42
-1.0
  0
VERTEX
  5
BC
  8
THROUGH_CUT
 10
11.25223268035804
 20
6.059404352197369
 30
0.0
  0
VERTEX
  5
BD
  8
THROUGH_CUT
 10
10.50223268035804
 20
6.059404352197369
 30
0.0
 42
-1.0
  0
VERTEX
  5
BE
  8
THROUGH_CUT
 10
10.50223268035804
 20
6.439404352197369
 30
0.0
  0
VERTEX
  5
BF
  8
THROUGH_CUT
 10
10.50223268035804
 20
8.059404352197369
 30
0.0
  0
VERTEX
  5
C0
  8
THROUGH_CUT
 10
9.359150680358036
 20
8.059404352197369
 30
0.0
 42
0.4142135623731007
  0
VERTEX
  5
C1
  8
THROUGH_CUT
 10
8.359150680358036
 20
7.059404352197369
 30
0.0
  0
VERTEX
  5
C2
  8
THROUGH_CUT
 10
8.359150680358036
 20
4.059404352197369
 30
0.0
 42
0.4142135572611445
  0
VERTEX
  5
C3
  8
THROUGH_CUT
 10
11.3591506541781
 20
1.059404352197369
 30
0.0
  0
SEQEND
  5
C4
  8
THROUGH_CUT
  0
POLYLINE
  5
4A
  8
THROUGH_CUT
 66
     1
 10
0.0
 20
0.0
 30
0.0
 70
     1
  0
VERTEX
  5
C5
  8
THROUGH_CUT
 10
8.359150680358042
 20
8.80940660219737
 30
0.0
  0
VERTEX
  5
C6
  8
THROUGH_CUT
 10
84.87723270653797
 20
8.809407352197368
 30
0.0
 42
0.4142135572611445
  0
VERTEX
  5
C7
  8
THROUGH_CUT
 10
87.87723268035805
 20
11.80940735219737
 30
0.0
  0
VERTEX
  5
C8
  8
THROUGH_CUT
 10
87.87723268035805
 20
14.80940735219737
 30
0.0
 42
0.4142135623731007
  0
VERTEX
  5
C9
  8
THROUGH_CUT
 10
86.87723268035805
 20
15.80940735219737
 30
0.0
  0
VERTEX
  5
CA
  8
THROUGH_CUT
 10
85.73415068035806
 20
15.80940735219737
 30
0.0
  0
VERTEX
  5
CB
  8
THROUGH_CUT
 10
85.73415068035806
 20
14.18940735219737
 30
0.0
 42
-1.0
  0
VERTEX
  5
CC
  8
THROUGH_CUT
 10
85.73415068035806
 20
13.80940735219737
 30
0.0
  0
VERTEX
  5
CD
  8
THROUGH_CUT
 10
84.98415068035806
 20
13.80940735219737
 30
0.0
 42
-1.0
  0
VERTEX
  5
CE
  8
THROUGH_CUT
 10
84.98415068035806
 20
14.18940735219737
 30
0.0
  0
VERTEX
  5
CF
  8
THROUGH_CUT
 10
84.98415068035806
 20
15.80940735219737
 30
0.0
  0
VERTEX
  5
D0
  8
THROUGH_CUT
 10
63.73415068035806
 20
15.80940735219737
 30
0.0
  0
VERTEX
  5
D1
  8
THROUGH_CUT
 10
63.73415068035806
 20
14.18940735219737
 30
0.0
 42
-1.0
  0
VERTEX
  5
D2
  8
THROUGH_CUT
 10
63.73415068035806
 20
13.80940735219737
 30
0.0
  0
VERTEX
  5
D3
  8
THROUGH_CUT
 10
62.98415068035806
 20
13.80940735219737
 30
0.0
 42
-1.0
  0
VERTEX
  5
D4
  8
THROUGH_CUT
 10
62.98415068035806
 20
14.18940735219737
 30
0.0
  0
VERTEX
  5
D5
  8
THROUGH_CUT
 10
62.98415068035806
 20
15.80940735219737
 30
0.0
  0
VERTEX
  5
D6
  8
THROUGH_CUT
 10
41.73415068035804
 20
15.80940735219737
 30
0.0
  0
VERTEX
  5
D7
  8
THROUGH_CUT
 10
41.73415068035804
 20
14.18940735219737
 30
0.0
 42
-1.0
  0
VERTEX
  5
D8
  8
THROUGH_CUT
 10
41.73415068035804
 20
13.80940735219737
 30
0.0
  0
VERTEX
  5
D9
  8
THROUGH_CUT
 10
40.98415068035804
 20
13.80940735219737
 30
0.0
 42
-1.0
  0
VERTEX
  5
DA
  8
THROUGH_CUT
 10
40.98415068035804
 20
14.18940735219737
 30
0.0
  0
VERTEX
  5
DB
  8
THROUGH_CUT
 10
40.98415068035804
 20
15.80940735219737
 30
0.0
  0
VERTEX
  5
DC
  8
THROUGH_CUT
 10
19.73415068035804
 20
15.80940735219737
 30
0.0
  0
VERTEX
  5
DD
  8
THROUGH_CUT
 10
19.73415068035804
 20
14.18940735219737
 30
0.0
 42
-1.0
  0
VERTEX
  5
DE
  8
THROUGH_CUT
 10
19.73415068035804
 20
13.80940735219737
 30
0.0
  0
VERTEX
  5
DF
  8
THROUGH_CUT
 10
18.98415068035804
 20
13.80940735219737
 30
0.0
 42
-1.0
  0
VERTEX
  5
E0
  8
THROUGH_CUT
 10
18.98415068035804
 20
14.18940735219737
 30
0.0
  0
VERTEX
  5
E1
  8
THROUGH_CUT
 10
18.98415068035804
 20
15.80940735219737
 30
0.0
  0
VERTEX
  5
E2
  8
THROUGH_CUT
 10
8.359150680358042
 20
15.80940710219737
 30
0.0
  0
VERTEX
  5
E3
  8
THROUGH_CUT
 10
7.31609728976477
 20
14.76646024279064
 30
0.0
 42
0.4142135623730946
  0
VERTEX
  5
E4
  8
THROUGH_CUT
 10
7.31609728976477
 20
13.3523534616041
 30
0.0
  0
VERTEX
  5
E5
  8
THROUGH_CUT
 10
9.402204070951313
 20
11.26646024279064
 30
0.0
 42
-0.4142135623730944
  0
VERTEX
  5
E6
  8
THROUGH_CUT
 10
9.402204070951313
 20
9.852353461604096
 30
0.0
  0
SEQEND
  5
E7
  8
THROUGH_CUT
  0
POLYLINE
  5
4B
  8
THROUGH_CUT
 66
     1
 10
0.0
 20
0.0
 30
0.0
 70
     1
  0
VERTEX
  5
E8
  8
THROUGH_CUT
 10
83.45284518662896
 20
-45.59251216545891
 30
0.0
  0
VERTEX
  5
E9
  8
THROUGH_CUT
 10
84.49589857722222
 20
-44.54956530605218
 30
0.0
 42
0.4142135623730944
  0
VERTEX
  5
EA
  8
THROUGH_CUT
 10
84.49589857722222
 20
-43.13545852486563
 30
0.0
  0
VERTEX
  5
EB
  8
THROUGH_CUT
 10
82.40979179603568
 20
-41.04956530605218
 30
0.0
 42
-0.4142135623730946
  0
VERTEX
  5
EC
  8
THROUGH_CUT
 10
82.40979179603568
 20
-39.63545852486563
 30
0.0
  0
VERTEX
  5
ED
  8
THROUGH_CUT
 10
83.45284518662896
 20
-38.59251166545891
 30
0.0
  0
VERTEX
  5
EE
  8
THROUGH_CUT
 10
72.82784518662896
 20
-38.59251141545891
 30
0.0
  0
VERTEX
  5
EF
  8
THROUGH_CUT
 10
72.82784518662896
 20
-40.21251141545891
 30
0.0
 42
-1.0
  0
VERTEX
  5
F0
  8
THROUGH_CUT
 10
72.82784518662896
 20
-40.59251141545891
 30
0.0
  0
VERTEX
  5
F1
  8
THROUGH_CUT
 10
72.07784518662896
 20
-40.59251141545891
 30
0.0
 42
-1.0
  0
VERTEX
  5
F2
  8
THROUGH_CUT
 10
72.07784518662896
 20
-40.21251141545891
 30
0.0
  0
VERTEX
  5
F3
  8
THROUGH_CUT
 10
72.07784518662896
 20
-38.59251141545891
 30
0.0
  0
VERTEX
  5
F4
  8
THROUGH_CUT
 10
50.82784518662896
 20
-38.59251141545891
 30
0.0
  0
VERTEX
  5
F5
  8
THROUGH_CUT
 10
50.82784518662896
 20
-40.21251141545891
 30
0.0
 42
-1.0
  0
VERTEX
  5
F6
  8
THROUGH_CUT
 10
50.82784518662896
 20
-40.59251141545891
 30
0.0
  0
VERTEX
  5
F7
  8
THROUGH_CUT
 10
50.07784518662896
 20
-40.59251141545891
 30
0.0
 42
-1.0
  0
VERTEX
  5
F8
  8
THROUGH_CUT
 10
50.07784518662896
 20
-40.21251141545891
 30
0.0
  0
VERTEX
  5
F9
  8
THROUGH_CUT
 10
50.07784518662896
 20
-38.59251141545891
 30
0.0
  0
VERTEX
  5
FA
  8
THROUGH_CUT
 10
28.82784518662897
 20
-38.59251141545891
 30
0.0
  0
VERTEX
  5
FB
  8
THROUGH_CUT
 10
28.82784518662897
 20
-40.21251141545891
 30
0.0
 42
-1.0
  0
VERTEX
  5
FC
  8
THROUGH_CUT
 10
28.82784518662897
 20
-40.59251141545891
 30
0.0
  0
VERTEX
  5
FD
  8
THROUGH_CUT
 10
28.07784518662897
 20
-40.59251141545891
 30
0.0
 42
-1.0
  0
VERTEX
  5
FE
  8
THROUGH_CUT
 10
28.07784518662897
 20
-40.21251141545891
 30
0.0
  0
VERTEX
  5
FF
  8
THROUGH_CUT
 10
28.07784518662897
 20
-38.59251141545891
 30
0.0
  0
VERTEX
  5
100
  8
THROUGH_CUT
 10
6.827845186628965
 20
-38.59251141545891
 30
0.0
  0
VERTEX
  5
101
  8
THROUGH_CUT
 10
6.827845186628965
 20
-40.21251141545891
 30
0.0
 42
-1.0
  0
VERTEX
  5
102
  8
THROUGH_CUT
 10
6.827845186628965
 20
-40.59251141545891
 30
0.0
  0
VERTEX
  5
103
  8
THROUGH_CUT
 10
6.077845186628965
 20
-40.59251141545891
 30
0.0
 42
-1.0
  0
VERTEX
  5
104
  8
THROUGH_CUT
 10
6.077845186628965
 20
-40.21251141545891
 30
0.0
  0
VERTEX
  5
105
  8
THROUGH_CUT
 10
6.077845186628965
 20
-38.59251141545891
 30
0.0
  0
VERTEX
  5
106
  8
THROUGH_CUT
 10
4.934763186628965
 20
-38.59251141545891
 30
0.0
 42
0.4142135623731007
  0
VERTEX
  5
107
  8
THROUGH_CUT
 10
3.934763186628965
 20
-39.59251141545891
 30
0.0
  0
VERTEX
  5
108
  8
THROUGH_CUT
 10
3.934763186628965
 20
-42.59251141545891
 30
0.0
 42
0.4142135572611445
  0
VERTEX
  5
109
  8
THROUGH_CUT
 10
6.934763160449027
 20
-45.59251141545891
 30
0.0
  0
SEQEND
  5
10A
  8
THROUGH_CUT
  0
POLYLINE
  5
4C
  8
THROUGH_CUT
 66
     1
 10
0.0
 20
0.0
 30
0.0
 70
     1
  0
VERTEX
  5
10B
  8
THROUGH_CUT
 10
83.45284518662896
 20
-45.59251216545891
 30
0.0
  0
VERTEX
  5
10C
  8
THROUGH_CUT
 10
159.9709272128089
 20
-45.59251141545891
 30
0.0
 42
0.4142135572611445
  0
VERTEX
  5
10D
  8
THROUGH_CUT
 10
162.970927186629
 20
-42.59251141545891
 30
0.0
  0
VERTEX
  5
10E
  8
THROUGH_CUT
 10
162.970927186629
 20
-39.59251141545891
 30
0.0
 42
0.4142135623731007
  0
VERTEX
  5
10F
  8
THROUGH_CUT
 10
161.970927186629
 20
-38.59251141545891
 30
0.0
  0
VERTEX
  5
110
  8
THROUGH_CUT
 10
160.827845186629
 20
-38.59251141545891
 30
0.0
  0
VERTEX
  5
111
  8
THROUGH_CUT
 10
160.827845186629
 20
-40.21251141545891
 30
0.0
 42
-1.0
  0
VERTEX
  5
112
  8
THROUGH_CUT
 10
160.827845186629
 20
-40.59251141545891
 30
0.0
  0
VERTEX
  5
113
  8
THROUGH_CUT
 10
160.077845186629
 20
-40.59251141545891
 30
0.0
 42
-1.0
  0
VERTEX
  5
114
  8
THROUGH_CUT
 10
160.077845186629
 20
-40.21251141545891
 30
0.0
  0
VERTEX
  5
115
  8
THROUGH_CUT
 10
160.077845186629
 20
-38.59251141545891
 30
0.0
  0
VERTEX
  5
116
  8
THROUGH_CUT
 10
138.827845186629
 20
-38.59251141545891
 30
0.0
  0
VERTEX
  5
117
  8
THROUGH_CUT
 10
138.827845186629
 20
-40.21251141545891
 30
0.0
 42
-1.0
  0
VERTEX
  5
118
  8
THROUGH_CUT
 10
138.827845186629
 20
-40.59251141545891
 30
0.0
  0
VERTEX
  5
119
  8
THROUGH_CUT
 10
138.077845186629
 20
-40.59251141545891
 30
0.0
 42
-1.0
  0
VERTEX
  5
11A
  8
THROUGH_CUT
 10
138.077845186629
 20
-40.21251141545891
 30
0.0
  0
VERTEX
  5
11B
  8
THROUGH_CUT
 10
138.077845186629
 20
-38.59251141545891
 30
0.0
  0
VERTEX
  5
11C
  8
THROUGH_CUT
 10
116.827845186629
 20
-38.59251141545891
 30
0.0
  0
VERTEX
  5
11D
  8
THROUGH_CUT
 10
116.827845186629
 20
-40.21251141545891
 30
0.0
 42
-1.0
  0
VERTEX
  5
11E
  8
THROUGH_CUT
 10
116.827845186629
 20
-40.59251141545891
 30
0.0
  0
VERTEX
  5
11F
  8
THROUGH_CUT
 10
116.077845186629
 20
-40.59251141545891
 30
0.0
 42
-1.0
  0
VERTEX
  5
120
  8
THROUGH_CUT
 10
116.077845186629
 20
-40.21251141545891
 30
0.0
  0
VERTEX
  5
121
  8
THROUGH_CUT
 10
116.077845186629
 20
-38.59251141545891
 30
0.0
  0
VERTEX
  5
122
  8
THROUGH_CUT
 10
94.82784518662896
 20
-38.59251141545891
 30
0.0
  0
VERTEX
  5
123
  8
THROUGH_CUT
 10
94.82784518662896
 20
-40.21251141545891
 30
0.0
 42
-1.0
  0
VERTEX
  5
124
  8
THROUGH_CUT
 10
94.82784518662896
 20
-40.59251141545891
 30
0.0
  0
VERTEX
  5
125
  8
THROUGH_CUT
 10
94.07784518662896
 20
-40.59251141545891
 30
0.0
 42
-1.0
  0
VERTEX
  5
126
  8
THROUGH_CUT
 10
94.07784518662896
 20
-40.21251141545891
 30
0.0
  0
VERTEX
  5
127
  8
THROUGH_CUT
 10
94.07784518662896
 20
-38.59251141545891
 30
0.0
  0
VERTEX
  5
128
  8
THROUGH_CUT
 10
83.45284518662896
 20
-38.59251166545891
 30
0.0
  0
VERTEX
  5
129
  8
THROUGH_CUT
 10
82.40979179603569
 20
-39.63545852486563
 30
0.0
 42
0.4142135623730946
  0
VERTEX
  5
12A
  8
THROUGH_CUT
 10
82.40979179603569
 20
-41.04956530605218
 30
0.0
  0
VERTEX
  5
12B
  8
THROUGH_CUT
 10
84.49589857722223
 20
-43.13545852486563
 30
0.0
 42
-0.4142135623730944
  0
VERTEX
  5
12C
  8
THROUGH_CUT
 10
84.49589857722223
 20
-44.54956530605218
 30
0.0
  0
SEQEND
  5
12D
  8
THROUGH_CUT
  0
POLYLINE
  5
4D
  8
THROUGH_CUT
 66
     1
 10
0.0
 20
0.0
 30
0.0
 70
     1
  0
VERTEX
  5
12E
  8
THROUGH_CUT
 10
11.27363782534309
 20
35.05650094125381
 30
0.0
 42
0.961490096133456
  0
VERTEX
  5
12F
  8
THROUGH_CUT
 10
11.3206202419495
 20
34.65958921697626
 30
0.0
 42
0.9614707681241729
  0
VERTEX
  5
130
  8
THROUGH_CUT
 10
11.30492482534309
 20
35.05896394125381
 30
0.0
 42
0.0196430313934635
  0
VERTEX
  5
131
  8
THROUGH_CUT
 10
11.28923694316306
 20
35.05834740787921
 30
0.0
 42
0.0196329840983488
  0
SEQEND
  5
132
  8
THROUGH_CUT
  0
POLYLINE
  5
4E
  8
THROUGH_CUT
 66
     1
 10
0.0
 20
0.0
 30
0.0
 70
     1
  0
VERTEX
  5
133
  8
THROUGH_CUT
 10
33.27019482534308
 20
35.05592494125381
 30
0.0
 42
0.9203497392141604
  0
VERTEX
  5
134
  8
THROUGH_CUT
 10
33.30666909914483
 20
34.6589849978969
 30
0.0
 42
0.920351574329487
  0
VERTEX
  5
135
  8
THROUGH_CUT
 10
33.33621082534309
 20
35.05650094125381
 30
0.0
 42
0.0414759603059265
  0
VERTEX
  5
136
  8
THROUGH_CUT
 10
33.30317849634648
 20
35.05895576611107
 30
0.0
 42
0.0414769555563666
  0
SEQEND
  5
137
  8
THROUGH_CUT
  0
POLYLINE
  5
4F
  8
THROUGH_CUT
 66
     1
 10
0.0
 20
0.0
 30
0.0
 70
     1
  0
VERTEX
  5
138
  8
THROUGH_CUT
 10
82.05092159947719
 20
35.06556850757661
 30
0.0
 42
-0.9614900961334423
  0
VERTEX
  5
139
  8
THROUGH_CUT
 10
82.0039391828708
 20
34.6686567832989
 30
0.0
 42
-0.9614707681242259
  0
VERTEX
  5
13A
  8
THROUGH_CUT
 10
82.01963459947719
 20
35.06803150757661
 30
0.0
 42
-0.0196430313934435
  0
VERTEX
  5
13B
  8
THROUGH_CUT
 10
82.03532248165723
 20
35.06741497420201
 30
0.0
 42
-0.0196329840985384
  0
SEQEND
  5
13C
  8
THROUGH_CUT
  0
POLYLINE
  5
50
  8
THROUGH_CUT
 66
     1
 10
0.0
 20
0.0
 30
0.0
 70
     1
  0
VERTEX
  5
13D
  8
THROUGH_CUT
 10
60.05436459947719
 20
35.06499250757661
 30
0.0
 42
-0.9203497392142354
  0
VERTEX
  5
13E
  8
THROUGH_CUT
 10
60.01789032567543
 20
34.66805256421965
 30
0.0
 42
-0.9203515743295231
  0
VERTEX
  5
13F
  8
THROUGH_CUT
 10
59.98834859947717
 20
35.06556850757661
 30
0.0
 42
-0.0414759603059335
  0
VERTEX
  5
140
  8
THROUGH_CUT
 10
60.0213809284738
 20
35.06802333243387
 30
0.0
 42
-0.041476955556153
  0
SEQEND
  5
141
  8
THROUGH_CUT
  0
POLYLINE
  5
51
  8
THROUGH_CUT
 66
     1
 10
0.0
 20
0.0
 30
0.0
 70
     1
  0
VERTEX
  5
142
  8
THROUGH_CUT
 10
11.27363782534309
 20
42.81556900757661
 30
0.0
 42
0.961490096133456
  0
VERTEX
  5
143
  8
THROUGH_CUT
 10
11.3206202419495
 20
42.41865728329906
 30
0.0
 42
0.9614707681241729
  0
VERTEX
  5
144
  8
THROUGH_CUT
 10
11.30492482534309
 20
42.81803200757661
 30
0.0
 42
0.0196430313934635
  0
VERTEX
  5
145
  8
THROUGH_CUT
 10
11.28923694316306
 20
42.81741547420201
 30
0.0
 42
0.0196329840983488
  0
SEQEND
  5
146
  8
THROUGH_CUT
  0
POLYLINE
  5
52
  8
THROUGH_CUT
 66
     1
 10
0.0
 20
0.0
 30
0.0
 70
     1
  0
VERTEX
  5
147
  8
THROUGH_CUT
 10
33.27019482534308
 20
42.81499300757661
 30
0.0
 42
0.9203497392141604
  0
VERTEX
  5
148
  8
THROUGH_CUT
 10
33.30666909914483
 20
42.41805306421971
 30
0.0
 42
0.920351574329487
  0
VERTEX
  5
149
  8
THROUGH_CUT
 10
33.33621082534309
 20
42.81556900757661
 30
0.0
 42
0.0414759603059265
  0
VERTEX
  5
14A
  8
THROUGH_CUT
 10
33.30317849634648
 20
42.81802383243387
 30
0.0
 42
0.0414769555563666
  0
SEQEND
  5
14B
  8
THROUGH_CUT
  0
POLYLINE
  5
53
  8
THROUGH_CUT
 66
     1
 10
0.0
 20
0.0
 30
0.0
 70
     1
  0
VERTEX
  5
14C
  8
THROUGH_CUT
 10
82.05092159947719
 20
42.82463657389941
 30
0.0
 42
-0.9614900961334423
  0
VERTEX
  5
14D
  8
THROUGH_CUT
 10
82.0039391828708
 20
42.4277248496217
 30
0.0
 42
-0.9614707681242259
  0
VERTEX
  5
14E
  8
THROUGH_CUT
 10
82.01963459947719
 20
42.82709957389941
 30
0.0
 42
-0.0196430313934435
  0
VERTEX
  5
14F
  8
THROUGH_CUT
 10
82.03532248165723
 20
42.82648304052481
 30
0.0
 42
-0.0196329840985384
  0
SEQEND
  5
150
  8
THROUGH_CUT
  0
POLYLINE
  5
54
  8
THROUGH_CUT
 66
     1
 10
0.0
 20
0.0
 30
0.0
 70
     1
  0
VERTEX
  5
151
  8
THROUGH_CUT
 10
60.05436459947719
 20
42.82406057389942
 30
0.0
 42
-0.9203497392142354
  0
VERTEX
  5
152
  8
THROUGH_CUT
 10
60.01789032567543
 20
42.42712063054245
 30
0.0
 42
-0.9203515743295231
  0
VERTEX
  5
153
  8
THROUGH_CUT
 10
59.98834859947717
 20
42.82463657389941
 30
0.0
 42
-0.0414759603059335
  0
VERTEX
  5
154
  8
THROUGH_CUT
 10
60.0213809284738
 20
42.82709139875667
 30
0.0
 42
-0.041476955556153
  0
SEQEND
  5
155
  8
THROUGH_CUT
  0
POLYLINE
  5
55
  8
THROUGH_CUT
 66
     1
 10
0.0
 20
0.0
 30
0.0
 70
     1
  0
VERTEX
  5
156
  8
THROUGH_CUT
 10
30.92992482534309
 20
38.85896394125381
 30
0.0
  0
VERTEX
  5
157
  8
THROUGH_CUT
 10
9.679924825343088
 20
38.85896394125381
 30
0.0
  0
VERTEX
  5
158
  8
THROUGH_CUT
 10
9.679924825343088
 20
37.23896394125381
 30
0.0
  0
VERTEX
  5
159
  8
THROUGH_CUT
 10
9.71119682534309
 20
37.23637194125381
 30
0.0
  0
VERTEX
  5
15A
  8
THROUGH_CUT
 10
9.741616825343089
 20
37.22866894125382
 30
0.0
  0
VERTEX
  5
15B
  8
THROUGH_CUT
 10
9.77035482534309
 20
37.21606394125381
 30
0.0
  0
VERTEX
  5
15C
  8
THROUGH_CUT
 10
9.79662482534309
 20
37.19889994125381
 30
0.0
  0
VERTEX
  5
15D
  8
THROUGH_CUT
 10
9.819711825343086
 20
37.17764694125381
 30
0.0
  0
VERTEX
  5
15E
  8
THROUGH_CUT
 10
9.838985825343089
 20
37.15288394125381
 30
0.0
  0
VERTEX
  5
15F
  8
THROUGH_CUT
 10
9.85392082534309
 20
37.12528594125381
 30
0.0
  0
VERTEX
  5
160
  8
THROUGH_CUT
 10
9.864110825343088
 20
37.09560594125381
 30
0.0
  0
VERTEX
  5
161
  8
THROUGH_CUT
 10
9.86927582534309
 20
37.06465394125381
 30
0.0
  0
VERTEX
  5
162
  8
THROUGH_CUT
 10
9.86927582534309
 20
37.03327394125381
 30
0.0
  0
VERTEX
  5
163
  8
THROUGH_CUT
 10
9.864110825343088
 20
37.00232094125381
 30
0.0
  0
VERTEX
  5
164
  8
THROUGH_CUT
 10
9.85392082534309
 20
36.97264194125381
 30
0.0
  0
VERTEX
  5
165
  8
THROUGH_CUT
 10
9.838985825343089
 20
36.94504394125381
 30
0.0
  0
VERTEX
  5
166
  8
THROUGH_CUT
 10
9.819711825343086
 20
36.92027994125381
 30
0.0
  0
VERTEX
  5
167
  8
THROUGH_CUT
 10
9.79662482534309
 20
36.89902694125381
 30
0.0
  0
VERTEX
  5
168
  8
THROUGH_CUT
 10
9.77035482534309
 20
36.88186394125381
 30
0.0
  0
VERTEX
  5
169
  8
THROUGH_CUT
 10
9.741616825343089
 20
36.86925794125381
 30
0.0
  0
VERTEX
  5
16A
  8
THROUGH_CUT
 10
9.71119682534309
 20
36.86155494125381
 30
0.0
  0
VERTEX
  5
16B
  8
THROUGH_CUT
 10
9.679924825343088
 20
36.85896394125381
 30
0.0
  0
VERTEX
  5
16C
  8
THROUGH_CUT
 10
8.929924825343088
 20
36.85896394125381
 30
0.0
  0
VERTEX
  5
16D
  8
THROUGH_CUT
 10
8.898651825343089
 20
36.86155494125381
 30
0.0
  0
VERTEX
  5
16E
  8
THROUGH_CUT
 10
8.86823182534309
 20
36.86925794125381
 30
0.0
  0
VERTEX
  5
16F
  8
THROUGH_CUT
 10
8.83949482534309
 20
36.88186394125381
 30
0.0
  0
VERTEX
  5
170
  8
THROUGH_CUT
 10
8.813223825343089
 20
36.89902694125381
 30
0.0
  0
VERTEX
  5
171
  8
THROUGH_CUT
 10
8.790136825343088
 20
36.92027994125381
 30
0.0
  0
VERTEX
  5
172
  8
THROUGH_CUT
 10
8.77086282534309
 20
36.94504394125381
 30
0.0
  0
VERTEX
  5
173
  8
THROUGH_CUT
 10
8.755927825343088
 20
36.97264194125381
 30
0.0
  0
VERTEX
  5
174
  8
THROUGH_CUT
 10
8.745737825343086
 20
37.00232094125381
 30
0.0
  0
VERTEX
  5
175
  8
THROUGH_CUT
 10
8.74057282534309
 20
37.03327394125381
 30
0.0
  0
VERTEX
  5
176
  8
THROUGH_CUT
 10
8.74057282534309
 20
37.06465394125381
 30
0.0
  0
VERTEX
  5
177
  8
THROUGH_CUT
 10
8.745737825343086
 20
37.09560594125381
 30
0.0
  0
VERTEX
  5
178
  8
THROUGH_CUT
 10
8.755927825343088
 20
37.12528594125381
 30
0.0
  0
VERTEX
  5
179
  8
THROUGH_CUT
 10
8.77086282534309
 20
37.15288394125381
 30
0.0
  0
VERTEX
  5
17A
  8
THROUGH_CUT
 10
8.790136825343088
 20
37.17764694125381
 30
0.0
  0
VERTEX
  5
17B
  8
THROUGH_CUT
 10
8.813223825343089
 20
37.19889994125381
 30
0.0
  0
VERTEX
  5
17C
  8
THROUGH_CUT
 10
8.83949482534309
 20
37.21606394125381
 30
0.0
  0
VERTEX
  5
17D
  8
THROUGH_CUT
 10
8.86823182534309
 20
37.22866894125382
 30
0.0
  0
VERTEX
  5
17E
  8
THROUGH_CUT
 10
8.898651825343089
 20
37.23637194125381
 30
0.0
  0
VERTEX
  5
17F
  8
THROUGH_CUT
 10
8.929924825343088
 20
37.23896394125381
 30
0.0
  0
VERTEX
  5
180
  8
THROUGH_CUT
 10
8.929924825343088
 20
38.85896394125381
 30
0.0
  0
VERTEX
  5
181
  8
THROUGH_CUT
 10
7.786842825343088
 20
38.85896394125381
 30
0.0
  0
VERTEX
  5
182
  8
THROUGH_CUT
 10
7.63040782534309
 20
38.84665194125381
 30
0.0
  0
VERTEX
  5
183
  8
THROUGH_CUT
 10
7.477825825343088
 20
38.81001994125381
 30
0.0
  0
VERTEX
  5
184
  8
THROUGH_CUT
 10
7.33285182534309
 20
38.74996994125381
 30
0.0
  0
VERTEX
  5
185
  8
THROUGH_CUT
 10
7.199056825343087
 20
38.6679809412538
 30
0.0
  0
VERTEX
  5
186
  8
THROUGH_CUT
 10
7.079735825343088
 20
38.56607094125381
 30
0.0
  0
VERTEX
  5
187
  8
THROUGH_CUT
 10
6.977825825343088
 20
38.4467489412538
 30
0.0
  0
VERTEX
  5
188
  8
THROUGH_CUT
 10
6.89583582534309
 20
38.31295394125381
 30
0.0
  0
VERTEX
  5
189
  8
THROUGH_CUT
 10
6.835785825343089
 20
38.1679809412538
 30
0.0
  0
VERTEX
  5
18A
  8
THROUGH_CUT
 10
6.799153825343089
 20
38.01539794125381
 30
0.0
  0
VERTEX
  5
18B
  8
THROUGH_CUT
 10
6.786842825343088
 20
37.85896394125381
 30
0.0
  0
VERTEX
  5
18C
  8
THROUGH_CUT
 10
6.786842825343111
 20
34.85896417945434
 30
0.0
 42
0.4142133630070195
  0
VERTEX
  5
18D
  8
THROUGH_CUT
 10
9.786842066124612
 20
31.858963941254
 30
0.0
  0
VERTEX
  5
18E
  8
THROUGH_CUT
 10
43.30492482534308
 20
31.85896356625381
 30
0.0
  0
VERTEX
  5
18F
  8
THROUGH_CUT
 10
44.34797821593635
 20
32.90191030066054
 30
0.0
 42
0.4142135623730944
  0
VERTEX
  5
190
  8
THROUGH_CUT
 10
44.34797821593635
 20
34.31601708184709
 30
0.0
  0
VERTEX
  5
191
  8
THROUGH_CUT
 10
42.26187143474981
 20
36.40191030066055
 30
0.0
 42
-0.4142135623730946
  0
VERTEX
  5
192
  8
THROUGH_CUT
 10
42.26187143474981
 20
37.81601708184709
 30
0.0
  0
VERTEX
  5
193
  8
THROUGH_CUT
 10
43.30492482534308
 20
38.85896381625381
 30
0.0
  0
VERTEX
  5
194
  8
THROUGH_CUT
 10
31.67992482534309
 20
38.85896394125381
 30
0.0
  0
VERTEX
  5
195
  8
THROUGH_CUT
 10
31.67992482534309
 20
37.23896394125381
 30
0.0
  0
VERTEX
  5
196
  8
THROUGH_CUT
 10
31.71119682534309
 20
37.23637194125381
 30
0.0
  0
VERTEX
  5
197
  8
THROUGH_CUT
 10
31.74161682534309
 20
37.22866894125382
 30
0.0
  0
VERTEX
  5
198
  8
THROUGH_CUT
 10
31.77035482534309
 20
37.21606394125381
 30
0.0
  0
VERTEX
  5
199
  8
THROUGH_CUT
 10
31.79662482534309
 20
37.19889994125381
 30
0.0
  0
VERTEX
  5
19A
  8
THROUGH_CUT
 10
31.81971182534309
 20
37.17764694125381
 30
0.0
  0
VERTEX
  5
19B
  8
THROUGH_CUT
 10
31.83898582534309
 20
37.15288394125381
 30
0.0
  0
VERTEX
  5
19C
  8
THROUGH_CUT
 10
31.85392082534309
 20
37.12528594125381
 30
0.0
  0
VERTEX
  5
19D
  8
THROUGH_CUT
 10
31.86411082534309
 20
37.09560594125381
 30
0.0
  0
VERTEX
  5
19E
  8
THROUGH_CUT
 10
31.86927582534309
 20
37.06465394125381
 30
0.0
  0
VERTEX
  5
19F
  8
THROUGH_CUT
 10
31.86927582534309
 20
37.03327394125381
 30
0.0
  0
VERTEX
  5
1A0
  8
THROUGH_CUT
 10
31.86411082534309
 20
37.00232094125381
 30
0.0
  0
VERTEX
  5
1A1
  8
THROUGH_CUT
 10
31.85392082534309
 20
36.97264194125381
 30
0.0
  0
VERTEX
  5
1A2
  8
THROUGH_CUT
 10
31.83898582534309
 20
36.94504394125381
 30
0.0
  0
VERTEX
  5
1A3
  8
THROUGH_CUT
 10
31.81971182534309
 20
36.92027994125381
 30
0.0
  0
VERTEX
  5
1A4
  8
THROUGH_CUT
 10
31.79662482534309
 20
36.89902694125381
 30
0.0
  0
VERTEX
  5
1A5
  8
THROUGH_CUT
 10
31.77035482534309
 20
36.88186394125381
 30
0.0
  0
VERTEX
  5
1A6
  8
THROUGH_CUT
 10
31.74161682534309
 20
36.86925794125381
 30
0.0
  0
VERTEX
  5
1A7
  8
THROUGH_CUT
 10
31.71119682534309
 20
36.86155494125381
 30
0.0
  0
VERTEX
  5
1A8
  8
THROUGH_CUT
 10
31.67992482534309
 20
36.85896394125381
 30
0.0
  0
VERTEX
  5
1A9
  8
THROUGH_CUT
 10
30.92992482534309
 20
36.85896394125381
 30
0.0
  0
VERTEX
  5
1AA
  8
THROUGH_CUT
 10
30.89865182534309
 20
36.86155494125381
 30
0.0
  0
VERTEX
  5
1AB
  8
THROUGH_CUT
 10
30.86823182534309
 20
36.86925794125381
 30
0.0
  0
VERTEX
  5
1AC
  8
THROUGH_CUT
 10
30.83949482534309
 20
36.88186394125381
 30
0.0
  0
VERTEX
  5
1AD
  8
THROUGH_CUT
 10
30.81322382534309
 20
36.89902694125381
 30
0.0
  0
VERTEX
  5
1AE
  8
THROUGH_CUT
 10
30.79013682534308
 20
36.92027994125381
 30
0.0
  0
VERTEX
  5
1AF
  8
THROUGH_CUT
 10
30.77086282534309
 20
36.94504394125381
 30
0.0
  0
VERTEX
  5
1B0
  8
THROUGH_CUT
 10
30.75592782534309
 20
36.97264194125381
 30
0.0
  0
VERTEX
  5
1B1
  8
THROUGH_CUT
 10
30.74573782534309
 20
37.00232094125381
 30
0.0
  0
VERTEX
  5
1B2
  8
THROUGH_CUT
 10
30.74057282534309
 20
37.03327394125381
 30
0.0
  0
VERTEX
  5
1B3
  8
THROUGH_CUT
 10
30.74057282534309
 20
37.06465394125381
 30
0.0
  0
VERTEX
  5
1B4
  8
THROUGH_CUT
 10
30.74573782534309
 20
37.09560594125381
 30
0.0
  0
VERTEX
  5
1B5
  8
THROUGH_CUT
 10
30.75592782534309
 20
37.12528594125381
 30
0.0
  0
VERTEX
  5
1B6
  8
THROUGH_CUT
 10
30.77086282534309
 20
37.15288394125381
 30
0.0
  0
VERTEX
  5
1B7
  8
THROUGH_CUT
 10
30.79013682534308
 20
37.17764694125381
 30
0.0
  0
VERTEX
  5
1B8
  8
THROUGH_CUT
 10
30.81322382534309
 20
37.19889994125381
 30
0.0
  0
VERTEX
  5
1B9
  8
THROUGH_CUT
 10
30.83949482534309
 20
37.21606394125381
 30
0.0
  0
VERTEX
  5
1BA
  8
THROUGH_CUT
 10
30.86823182534309
 20
37.22866894125382
 30
0.0
  0
VERTEX
  5
1BB
  8
THROUGH_CUT
 10
30.89865182534309
 20
37.23637194125381
 30
0.0
  0
VERTEX
  5
1BC
  8
THROUGH_CUT
 10
30.92992482534309
 20
37.23896394125381
 30
0.0
  0
SEQEND
  5
1BD
  8
THROUGH_CUT
  0
POLYLINE
  5
56
  8
THROUGH_CUT
 66
     1
 10
0.0
 20
0.0
 30
0.0
 70
     1
  0
VERTEX
  5
1BE
  8
THROUGH_CUT
 10
30.92992482534309
 20
46.61803200757662
 30
0.0
  0
VERTEX
  5
1BF
  8
THROUGH_CUT
 10
30.92992482534309
 20
44.99803200757661
 30
0.0
  0
VERTEX
  5
1C0
  8
THROUGH_CUT
 10
30.89865182534309
 20
44.99544000757661
 30
0.0
  0
VERTEX
  5
1C1
  8
THROUGH_CUT
 10
30.86823182534309
 20
44.98773700757661
 30
0.0
  0
VERTEX
  5
1C2
  8
THROUGH_CUT
 10
30.83949482534309
 20
44.97513200757661
 30
0.0
  0
VERTEX
  5
1C3
  8
THROUGH_CUT
 10
30.81322382534309
 20
44.95796800757661
 30
0.0
  0
VERTEX
  5
1C4
  8
THROUGH_CUT
 10
30.79013682534308
 20
44.93671500757661
 30
0.0
  0
VERTEX
  5
1C5
  8
THROUGH_CUT
 10
30.77086282534309
 20
44.91195200757662
 30
0.0
  0
VERTEX
  5
1C6
  8
THROUGH_CUT
 10
30.75592782534309
 20
44.88435400757661
 30
0.0
  0
VERTEX
  5
1C7
  8
THROUGH_CUT
 10
30.74573782534309
 20
44.85467400757661
 30
0.0
  0
VERTEX
  5
1C8
  8
THROUGH_CUT
 10
30.74057282534309
 20
44.82372200757661
 30
0.0
  0
VERTEX
  5
1C9
  8
THROUGH_CUT
 10
30.74057282534309
 20
44.79234200757661
 30
0.0
  0
VERTEX
  5
1CA
  8
THROUGH_CUT
 10
30.74573782534309
 20
44.76138900757661
 30
0.0
  0
VERTEX
  5
1CB
  8
THROUGH_CUT
 10
30.75592782534309
 20
44.73171000757661
 30
0.0
  0
VERTEX
  5
1CC
  8
THROUGH_CUT
 10
30.77086282534309
 20
44.70411200757661
 30
0.0
  0
VERTEX
  5
1CD
  8
THROUGH_CUT
 10
30.79013682534308
 20
44.67934800757661
 30
0.0
  0
VERTEX
  5
1CE
  8
THROUGH_CUT
 10
30.81322382534309
 20
44.65809500757661
 30
0.0
  0
VERTEX
  5
1CF
  8
THROUGH_CUT
 10
30.83949482534309
 20
44.64093200757661
 30
0.0
  0
VERTEX
  5
1D0
  8
THROUGH_CUT
 10
30.86823182534309
 20
44.62832600757661
 30
0.0
  0
VERTEX
  5
1D1
  8
THROUGH_CUT
 10
30.89865182534309
 20
44.62062300757661
 30
0.0
  0
VERTEX
  5
1D2
  8
THROUGH_CUT
 10
30.92992482534309
 20
44.61803200757662
 30
0.0
  0
VERTEX
  5
1D3
  8
THROUGH_CUT
 10
31.67992482534309
 20
44.61803200757662
 30
0.0
  0
VERTEX
  5
1D4
  8
THROUGH_CUT
 10
31.71119682534309
 20
44.62062300757661
 30
0.0
  0
VERTEX
  5
1D5
  8
THROUGH_CUT
 10
31.74161682534309
 20
44.62832600757661
 30
0.0
  0
VERTEX
  5
1D6
  8
THROUGH_CUT
 10
31.77035482534309
 20
44.64093200757661
 30
0.0
  0
VERTEX
  5
1D7
  8
THROUGH_CUT
 10
31.79662482534309
 20
44.65809500757661
 30
0.0
  0
VERTEX
  5
1D8
  8
THROUGH_CUT
 10
31.81971182534309
 20
44.67934800757661
 30
0.0
  0
VERTEX
  5
1D9
  8
THROUGH_CUT
 10
31.83898582534309
 20
44.70411200757661
 30
0.0
  0
VERTEX
  5
1DA
  8
THROUGH_CUT
 10
31.85392082534309
 20
44.73171000757661
 30
0.0
  0
VERTEX
  5
1DB
  8
THROUGH_CUT
 10
31.86411082534309
 20
44.76138900757661
 30
0.0
  0
VERTEX
  5
1DC
  8
THROUGH_CUT
 10
31.86927582534309
 20
44.79234200757661
 30
0.0
  0
VERTEX
  5
1DD
  8
THROUGH_CUT
 10
31.86927582534309
 20
44.82372200757661
 30
0.0
  0
VERTEX
  5
1DE
  8
THROUGH_CUT
 10
31.86411082534309
 20
44.85467400757661
 30
0.0
  0
VERTEX
  5
1DF
  8
THROUGH_CUT
 10
31.85392082534309
 20
44.88435400757661
 30
0.0
  0
VERTEX
  5
1E0
  8
THROUGH_CUT
 10
31.83898582534309
 20
44.91195200757662
 30
0.0
  0
VERTEX
  5
1E1
  8
THROUGH_CUT
 10
31.81971182534309
 20
44.93671500757661
 30
0.0
  0
VERTEX
  5
1E2
  8
THROUGH_CUT
 10
31.79662482534309
 20
44.95796800757661
 30
0.0
  0
VERTEX
  5
1E3
  8
THROUGH_CUT
 10
31.77035482534309
 20
44.97513200757661
 30
0.0
  0
VERTEX
  5
1E4
  8
THROUGH_CUT
 10
31.74161682534309
 20
44.98773700757661
 30
0.0
  0
VERTEX
  5
1E5
  8
THROUGH_CUT
 10
31.71119682534309
 20
44.99544000757661
 30
0.0
  0
VERTEX
  5
1E6
  8
THROUGH_CUT
 10
31.67992482534309
 20
44.99803200757661
 30
0.0
  0
VERTEX
  5
1E7
  8
THROUGH_CUT
 10
31.67992482534309
 20
46.61803200757662
 30
0.0
  0
VERTEX
  5
1E8
  8
THROUGH_CUT
 10
43.30492482534309
 20
46.61803188257662
 30
0.0
  0
VERTEX
  5
1E9
  8
THROUGH_CUT
 10
42.26187143474981
 20
45.57508514816989
 30
0.0
 42
0.4142135623730946
  0
VERTEX
  5
1EA
  8
THROUGH_CUT
 10
42.26187143474981
 20
44.16097836698334
 30
0.0
  0
VERTEX
  5
1EB
  8
THROUGH_CUT
 10
44.34797821593637
 20
42.07508514816989
 30
0.0
 42
-0.4142135623730944
  0
VERTEX
  5
1EC
  8
THROUGH_CUT
 10
44.34797821593637
 20
40.66097836698334
 30
0.0
  0
VERTEX
  5
1ED
  8
THROUGH_CUT
 10
43.30492482534309
 20
39.61803163257662
 30
0.0
  0
VERTEX
  5
1EE
  8
THROUGH_CUT
 10
9.786842066124612
 20
39.6180320075768
 30
0.0
 42
-0.4142133630070195
  0
VERTEX
  5
1EF
  8
THROUGH_CUT
 10
6.786842825343111
 20
42.61803224577714
 30
0.0
  0
VERTEX
  5
1F0
  8
THROUGH_CUT
 10
6.786842825343088
 20
45.61803200757662
 30
0.0
  0
VERTEX
  5
1F1
  8
THROUGH_CUT
 10
6.799153825343089
 20
45.77446600757661
 30
0.0
  0
VERTEX
  5
1F2
  8
THROUGH_CUT
 10
6.835785825343089
 20
45.9270490075766
 30
0.0
  0
VERTEX
  5
1F3
  8
THROUGH_CUT
 10
6.89583582534309
 20
46.07202200757661
 30
0.0
  0
VERTEX
  5
1F4
  8
THROUGH_CUT
 10
6.977825825343088
 20
46.2058170075766
 30
0.0
  0
VERTEX
  5
1F5
  8
THROUGH_CUT
 10
7.079735825343088
 20
46.32513900757661
 30
0.0
  0
VERTEX
  5
1F6
  8
THROUGH_CUT
 10
7.199056825343087
 20
46.4270490075766
 30
0.0
  0
VERTEX
  5
1F7
  8
THROUGH_CUT
 10
7.33285182534309
 20
46.50903800757661
 30
0.0
  0
VERTEX
  5
1F8
  8
THROUGH_CUT
 10
7.477825825343088
 20
46.56908800757661
 30
0.0
  0
VERTEX
  5
1F9
  8
THROUGH_CUT
 10
7.63040782534309
 20
46.60572000757661
 30
0.0
  0
VERTEX
  5
1FA
  8
THROUGH_CUT
 10
7.786842825343088
 20
46.61803200757662
 30
0.0
  0
VERTEX
  5
1FB
  8
THROUGH_CUT
 10
8.929924825343088
 20
46.61803200757662
 30
0.0
  0
VERTEX
  5
1FC
  8
THROUGH_CUT
 10
8.929924825343088
 20
44.99803200757661
 30
0.0
  0
VERTEX
  5
1FD
  8
THROUGH_CUT
 10
8.898651825343089
 20
44.99544000757661
 30
0.0
  0
VERTEX
  5
1FE
  8
THROUGH_CUT
 10
8.86823182534309
 20
44.98773700757661
 30
0.0
  0
VERTEX
  5
1FF
  8
THROUGH_CUT
 10
8.83949482534309
 20
44.97513200757661
 30
0.0
  0
VERTEX
  5
200
  8
THROUGH_CUT
 10
8.813223825343089
 20
44.95796800757661
 30
0.0
  0
VERTEX
  5
201
  8
THROUGH_CUT
 10
8.790136825343088
 20
44.93671500757661
 30
0.0
  0
VERTEX
  5
202
  8
THROUGH_CUT
 10
8.77086282534309
 20
44.91195200757662
 30
0.0
  0
VERTEX
  5
203
  8
THROUGH_CUT
 10
8.755927825343088
 20
44.88435400757661
 30
0.0
  0
VERTEX
  5
204
  8
THROUGH_CUT
 10
8.745737825343086
 20
44.85467400757661
 30
0.0
  0
VERTEX
  5
205
  8
THROUGH_CUT
 10
8.74057282534309
 20
44.82372200757661
 30
0.0
  0
VERTEX
  5
206
  8
THROUGH_CUT
 10
8.74057282534309
 20
44.79234200757661
 30
0.0
  0
VERTEX
  5
207
  8
THROUGH_CUT
 10
8.745737825343086
 20
44.76138900757661
 30
0.0
  0
VERTEX
  5
208
  8
THROUGH_CUT
 10
8.755927825343088
 20
44.73171000757661
 30
0.0
  0
VERTEX
  5
209
  8
THROUGH_CUT
 10
8.77086282534309
 20
44.70411200757661
 30
0.0
  0
VERTEX
  5
20A
  8
THROUGH_CUT
 10
8.790136825343088
 20
44.67934800757661
 30
0.0
  0
VERTEX
  5
20B
  8
THROUGH_CUT
 10
8.813223825343089
 20
44.65809500757661
 30
0.0
  0
VERTEX
  5
20C
  8
THROUGH_CUT
 10
8.83949482534309
 20
44.64093200757661
 30
0.0
  0
VERTEX
  5
20D
  8
THROUGH_CUT
 10
8.86823182534309
 20
44.62832600757661
 30
0.0
  0
VERTEX
  5
20E
  8
THROUGH_CUT
 10
8.898651825343089
 20
44.62062300757661
 30
0.0
  0
VERTEX
  5
20F
  8
THROUGH_CUT
 10
8.929924825343088
 20
44.61803200757662
 30
0.0
  0
VERTEX
  5
210
  8
THROUGH_CUT
 10
9.679924825343088
 20
44.61803200757662
 30
0.0
  0
VERTEX
  5
211
  8
THROUGH_CUT
 10
9.71119682534309
 20
44.62062300757661
 30
0.0
  0
VERTEX
  5
212
  8
THROUGH_CUT
 10
9.741616825343089
 20
44.62832600757661
 30
0.0
  0
VERTEX
  5
213
  8
THROUGH_CUT
 10
9.77035482534309
 20
44.64093200757661
 30
0.0
  0
VERTEX
  5
214
  8
THROUGH_CUT
 10
9.79662482534309
 20
44.65809500757661
 30
0.0
  0
VERTEX
  5
215
  8
THROUGH_CUT
 10
9.819711825343086
 20
44.67934800757661
 30
0.0
  0
VERTEX
  5
216
  8
THROUGH_CUT
 10
9.838985825343089
 20
44.70411200757661
 30
0.0
  0
VERTEX
  5
217
  8
THROUGH_CUT
 10
9.85392082534309
 20
44.73171000757661
 30
0.0
  0
VERTEX
  5
218
  8
THROUGH_CUT
 10
9.864110825343088
 20
44.76138900757661
 30
0.0
  0
VERTEX
  5
219
  8
THROUGH_CUT
 10
9.86927582534309
 20
44.79234200757661
 30
0.0
  0
VERTEX
  5
21A
  8
THROUGH_CUT
 10
9.86927582534309
 20
44.82372200757661
 30
0.0
  0
VERTEX
  5
21B
  8
THROUGH_CUT
 10
9.864110825343088
 20
44.85467400757661
 30
0.0
  0
VERTEX
  5
21C
  8
THROUGH_CUT
 10
9.85392082534309
 20
44.88435400757661
 30
0.0
  0
VERTEX
  5
21D
  8
THROUGH_CUT
 10
9.838985825343089
 20
44.91195200757662
 30
0.0
  0
VERTEX
  5
21E
  8
THROUGH_CUT
 10
9.819711825343086
 20
44.93671500757661
 30
0.0
  0
VERTEX
  5
21F
  8
THROUGH_CUT
 10
9.79662482534309
 20
44.95796800757661
 30
0.0
  0
VERTEX
  5
220
  8
THROUGH_CUT
 10
9.77035482534309
 20
44.97513200757661
 30
0.0
  0
VERTEX
  5
221
  8
THROUGH_CUT
 10
9.741616825343089
 20
44.98773700757661
 30
0.0
  0
VERTEX
  5
222
  8
THROUGH_CUT
 10
9.71119682534309
 20
44.99544000757661
 30
0.0
  0
VERTEX
  5
223
  8
THROUGH_CUT
 10
9.679924825343088
 20
44.99803200757661
 30
0.0
  0
VERTEX
  5
224
  8
THROUGH_CUT
 10
9.679924825343088
 20
46.61803200757662
 30
0.0
  0
SEQEND
  5
225
  8
THROUGH_CUT
  0
POLYLINE
  5
57
  8
THROUGH_CUT
 66
     1
 10
0.0
 20
0.0
 30
0.0
 70
     1
  0
VERTEX
  5
226
  8
THROUGH_CUT
 10
61.64463459947719
 20
38.86803150757661
 30
0.0
  0
VERTEX
  5
227
  8
THROUGH_CUT
 10
61.64463459947719
 20
37.24803150757661
 30
0.0
  0
VERTEX
  5
228
  8
THROUGH_CUT
 10
61.61336259947719
 20
37.24543950757661
 30
0.0
  0
VERTEX
  5
229
  8
THROUGH_CUT
 10
61.58294259947717
 20
37.23773650757661
 30
0.0
  0
VERTEX
  5
22A
  8
THROUGH_CUT
 10
61.55420459947717
 20
37.22513150757661
 30
0.0
  0
VERTEX
  5
22B
  8
THROUGH_CUT
 10
61.52793459947719
 20
37.20796750757661
 30
0.0
  0
VERTEX
  5
22C
  8
THROUGH_CUT
 10
61.50484759947718
 20
37.18671450757661
 30
0.0
  0
VERTEX
  5
22D
  8
THROUGH_CUT
 10
61.48557359947719
 20
37.16195150757661
 30
0.0
  0
VERTEX
  5
22E
  8
THROUGH_CUT
 10
61.47063859947718
 20
37.13435350757661
 30
0.0
  0
VERTEX
  5
22F
  8
THROUGH_CUT
 10
61.46044859947718
 20
37.10467350757661
 30
0.0
  0
VERTEX
  5
230
  8
THROUGH_CUT
 10
61.45528359947718
 20
37.07372150757661
 30
0.0
  0
VERTEX
  5
231
  8
THROUGH_CUT
 10
61.45528359947718
 20
37.04234150757661
 30
0.0
  0
VERTEX
  5
232
  8
THROUGH_CUT
 10
61.46044859947718
 20
37.01138850757661
 30
0.0
  0
VERTEX
  5
233
  8
THROUGH_CUT
 10
61.47063859947718
 20
36.98170950757661
 30
0.0
  0
VERTEX
  5
234
  8
THROUGH_CUT
 10
61.48557359947719
 20
36.95411150757661
 30
0.0
  0
VERTEX
  5
235
  8
THROUGH_CUT
 10
61.50484759947718
 20
36.92934750757661
 30
0.0
  0
VERTEX
  5
236
  8
THROUGH_CUT
 10
61.52793459947719
 20
36.90809450757661
 30
0.0
  0
VERTEX
  5
237
  8
THROUGH_CUT
 10
61.55420459947717
 20
36.89093150757661
 30
0.0
  0
VERTEX
  5
238
  8
THROUGH_CUT
 10
61.58294259947717
 20
36.87832550757661
 30
0.0
  0
VERTEX
  5
239
  8
THROUGH_CUT
 10
61.61336259947719
 20
36.87062250757661
 30
0.0
  0
VERTEX
  5
23A
  8
THROUGH_CUT
 10
61.64463459947719
 20
36.86803150757661
 30
0.0
  0
VERTEX
  5
23B
  8
THROUGH_CUT
 10
62.39463459947719
 20
36.86803150757661
 30
0.0
  0
VERTEX
  5
23C
  8
THROUGH_CUT
 10
62.42590759947719
 20
36.87062250757661
 30
0.0
  0
VERTEX
  5
23D
  8
THROUGH_CUT
 10
62.45632759947719
 20
36.87832550757661
 30
0.0
  0
VERTEX
  5
23E
  8
THROUGH_CUT
 10
62.48506459947719
 20
36.89093150757661
 30
0.0
  0
VERTEX
  5
23F
  8
THROUGH_CUT
 10
62.51133559947717
 20
36.90809450757661
 30
0.0
  0
VERTEX
  5
240
  8
THROUGH_CUT
 10
62.53442259947718
 20
36.92934750757661
 30
0.0
  0
VERTEX
  5
241
  8
THROUGH_CUT
 10
62.55369659947717
 20
36.95411150757661
 30
0.0
  0
VERTEX
  5
242
  8
THROUGH_CUT
 10
62.56863159947718
 20
36.98170950757661
 30
0.0
  0
VERTEX
  5
243
  8
THROUGH_CUT
 10
62.57882159947717
 20
37.01138850757661
 30
0.0
  0
VERTEX
  5
244
  8
THROUGH_CUT
 10
62.58398659947718
 20
37.04234150757661
 30
0.0
  0
VERTEX
  5
245
  8
THROUGH_CUT
 10
62.58398659947718
 20
37.07372150757661
 30
0.0
  0
VERTEX
  5
246
  8
THROUGH_CUT
 10
62.57882159947717
 20
37.10467350757661
 30
0.0
  0
VERTEX
  5
247
  8
THROUGH_CUT
 10
62.56863159947718
 20
37.13435350757661
 30
0.0
  0
VERTEX
  5
248
  8
THROUGH_CUT
 10
62.55369659947717
 20
37.16195150757661
 30
0.0
  0
VERTEX
  5
249
  8
THROUGH_CUT
 10
62.53442259947718
 20
37.18671450757661
 30
0.0
  0
VERTEX
  5
24A
  8
THROUGH_CUT
 10
62.51133559947717
 20
37.20796750757661
 30
0.0
  0
VERTEX
  5
24B
  8
THROUGH_CUT
 10
62.48506459947719
 20
37.22513150757661
 30
0.0
  0
VERTEX
  5
24C
  8
THROUGH_CUT
 10
62.45632759947719
 20
37.23773650757661
 30
0.0
  0
VERTEX
  5
24D
  8
THROUGH_CUT
 10
62.42590759947719
 20
37.24543950757661
 30
0.0
  0
VERTEX
  5
24E
  8
THROUGH_CUT
 10
62.39463459947719
 20
37.24803150757661
 30
0.0
  0
VERTEX
  5
24F
  8
THROUGH_CUT
 10
62.39463459947719
 20
38.86803150757661
 30
0.0
  0
VERTEX
  5
250
  8
THROUGH_CUT
 10
83.64463459947719
 20
38.86803150757661
 30
0.0
  0
VERTEX
  5
251
  8
THROUGH_CUT
 10
83.64463459947719
 20
37.24803150757661
 30
0.0
  0
VERTEX
  5
252
  8
THROUGH_CUT
 10
83.61336259947718
 20
37.24543950757661
 30
0.0
  0
VERTEX
  5
253
  8
THROUGH_CUT
 10
83.58294259947718
 20
37.23773650757661
 30
0.0
  0
VERTEX
  5
254
  8
THROUGH_CUT
 10
83.55420459947717
 20
37.22513150757661
 30
0.0
  0
VERTEX
  5
255
  8
THROUGH_CUT
 10
83.52793459947719
 20
37.20796750757661
 30
0.0
  0
VERTEX
  5
256
  8
THROUGH_CUT
 10
83.50484759947719
 20
37.18671450757661
 30
0.0
  0
VERTEX
  5
257
  8
THROUGH_CUT
 10
83.48557359947719
 20
37.16195150757661
 30
0.0
  0
VERTEX
  5
258
  8
THROUGH_CUT
 10
83.47063859947718
 20
37.13435350757661
 30
0.0
  0
VERTEX
  5
259
  8
THROUGH_CUT
 10
83.46044859947719
 20
37.10467350757661
 30
0.0
  0
VERTEX
  5
25A
  8
THROUGH_CUT
 10
83.45528359947718
 20
37.07372150757661
 30
0.0
  0
VERTEX
  5
25B
  8
THROUGH_CUT
 10
83.45528359947718
 20
37.04234150757661
 30
0.0
  0
VERTEX
  5
25C
  8
THROUGH_CUT
 10
83.46044859947719
 20
37.01138850757661
 30
0.0
  0
VERTEX
  5
25D
  8
THROUGH_CUT
 10
83.47063859947718
 20
36.98170950757661
 30
0.0
  0
VERTEX
  5
25E
  8
THROUGH_CUT
 10
83.48557359947719
 20
36.95411150757661
 30
0.0
  0
VERTEX
  5
25F
  8
THROUGH_CUT
 10
83.50484759947719
 20
36.92934750757661
 30
0.0
  0
VERTEX
  5
260
  8
THROUGH_CUT
 10
83.52793459947719
 20
36.90809450757661
 30
0.0
  0
VERTEX
  5
261
  8
THROUGH_CUT
 10
83.55420459947717
 20
36.89093150757661
 30
0.0
  0
VERTEX
  5
262
  8
THROUGH_CUT
 10
83.58294259947718
 20
36.87832550757661
 30
0.0
  0
VERTEX
  5
263
  8
THROUGH_CUT
 10
83.61336259947718
 20
36.87062250757661
 30
0.0
  0
VERTEX
  5
264
  8
THROUGH_CUT
 10
83.64463459947719
 20
36.86803150757661
 30
0.0
  0
VERTEX
  5
265
  8
THROUGH_CUT
 10
84.39463459947719
 20
36.86803150757661
 30
0.0
  0
VERTEX
  5
266
  8
THROUGH_CUT
 10
84.42590759947718
 20
36.87062250757661
 30
0.0
  0
VERTEX
  5
267
  8
THROUGH_CUT
 10
84.45632759947719
 20
36.87832550757661
 30
0.0
  0
VERTEX
  5
268
  8
THROUGH_CUT
 10
84.48506459947718
 20
36.89093150757661
 30
0.0
  0
VERTEX
  5
269
  8
THROUGH_CUT
 10
84.51133559947718
 20
36.90809450757661
 30
0.0
  0
VERTEX
  5
26A
  8
THROUGH_CUT
 10
84.53442259947718
 20
36.92934750757661
 30
0.0
  0
VERTEX
  5
26B
  8
THROUGH_CUT
 10
84.55369659947718
 20
36.95411150757661
 30
0.0
  0
VERTEX
  5
26C
  8
THROUGH_CUT
 10
84.56863159947719
 20
36.98170950757661
 30
0.0
  0
VERTEX
  5
26D
  8
THROUGH_CUT
 10
84.57882159947718
 20
37.01138850757661
 30
0.0
  0
VERTEX
  5
26E
  8
THROUGH_CUT
 10
84.58398659947719
 20
37.04234150757661
 30
0.0
  0
VERTEX
  5
26F
  8
THROUGH_CUT
 10
84.58398659947719
 20
37.07372150757661
 30
0.0
  0
VERTEX
  5
270
  8
THROUGH_CUT
 10
84.57882159947718
 20
37.10467350757661
 30
0.0
  0
VERTEX
  5
271
  8
THROUGH_CUT
 10
84.56863159947719
 20
37.13435350757661
 30
0.0
  0
VERTEX
  5
272
  8
THROUGH_CUT
 10
84.55369659947718
 20
37.16195150757661
 30
0.0
  0
VERTEX
  5
273
  8
THROUGH_CUT
 10
84.53442259947718
 20
37.18671450757661
 30
0.0
  0
VERTEX
  5
274
  8
THROUGH_CUT
 10
84.51133559947718
 20
37.20796750757661
 30
0.0
  0
VERTEX
  5
275
  8
THROUGH_CUT
 10
84.48506459947718
 20
37.22513150757661
 30
0.0
  0
VERTEX
  5
276
  8
THROUGH_CUT
 10
84.45632759947719
 20
37.23773650757661
 30
0.0
  0
VERTEX
  5
277
  8
THROUGH_CUT
 10
84.42590759947718
 20
37.24543950757661
 30
0.0
  0
VERTEX
  5
278
  8
THROUGH_CUT
 10
84.39463459947719
 20
37.24803150757661
 30
0.0
  0
VERTEX
  5
279
  8
THROUGH_CUT
 10
84.39463459947719
 20
38.86803150757661
 30
0.0
  0
VERTEX
  5
27A
  8
THROUGH_CUT
 10
85.53771659947719
 20
38.86803150757661
 30
0.0
  0
VERTEX
  5
27B
  8
THROUGH_CUT
 10
85.69415159947718
 20
38.85571950757661
 30
0.0
  0
VERTEX
  5
27C
  8
THROUGH_CUT
 10
85.84673359947719
 20
38.81908750757661
 30
0.0
  0
VERTEX
  5
27D
  8
THROUGH_CUT
 10
85.9917075994772
 20
38.75903750757661
 30
0.0
  0
VERTEX
  5
27E
  8
THROUGH_CUT
 10
86.12550259947719
 20
38.6770485075766
 30
0.0
  0
VERTEX
  5
27F
  8
THROUGH_CUT
 10
86.24482359947719
 20
38.57513850757661
 30
0.0
  0
VERTEX
  5
280
  8
THROUGH_CUT
 10
86.34673359947719
 20
38.4558165075766
 30
0.0
  0
VERTEX
  5
281
  8
THROUGH_CUT
 10
86.4287235994772
 20
38.32202150757661
 30
0.0
  0
VERTEX
  5
282
  8
THROUGH_CUT
 10
86.48877359947718
 20
38.1770485075766
 30
0.0
  0
VERTEX
  5
283
  8
THROUGH_CUT
 10
86.52540559947718
 20
38.02446550757661
 30
0.0
  0
VERTEX
  5
284
  8
THROUGH_CUT
 10
86.53771659947719
 20
37.86803150757661
 30
0.0
  0
VERTEX
  5
285
  8
THROUGH_CUT
 10
86.53771659947716
 20
34.86803174577713
 30
0.0
 42
-0.4142133630070199
  0
VERTEX
  5
286
  8
THROUGH_CUT
 10
83.53771735869566
 20
31.8680315075768
 30
0.0
  0
VERTEX
  5
287
  8
THROUGH_CUT
 10
50.01963459947719
 20
31.86803113257661
 30
0.0
  0
VERTEX
  5
288
  8
THROUGH_CUT
 10
51.06268799007046
 20
32.91097786698334
 30
0.0
 42
0.4142135623730944
  0
VERTEX
  5
289
  8
THROUGH_CUT
 10
51.06268799007046
 20
34.32508464816988
 30
0.0
  0
VERTEX
  5
28A
  8
THROUGH_CUT
 10
48.97658120888391
 20
36.41097786698334
 30
0.0
 42
-0.4142135623730946
  0
VERTEX
  5
28B
  8
THROUGH_CUT
 10
48.97658120888391
 20
37.82508464816988
 30
0.0
  0
VERTEX
  5
28C
  8
THROUGH_CUT
 10
50.01963459947719
 20
38.8680313825766
 30
0.0
  0
SEQEND
  5
28D
  8
THROUGH_CUT
  0
POLYLINE
  5
58
  8
THROUGH_CUT
 66
     1
 10
0.0
 20
0.0
 30
0.0
 70
     1
  0
VERTEX
  5
28E
  8
THROUGH_CUT
 10
61.64463459947719
 20
46.62709957389941
 30
0.0
  0
VERTEX
  5
28F
  8
THROUGH_CUT
 10
61.64463459947719
 20
45.00709957389941
 30
0.0
  0
VERTEX
  5
290
  8
THROUGH_CUT
 10
61.61336259947719
 20
45.00450757389941
 30
0.0
  0
VERTEX
  5
291
  8
THROUGH_CUT
 10
61.58294259947717
 20
44.99680457389941
 30
0.0
  0
VERTEX
  5
292
  8
THROUGH_CUT
 10
61.55420459947717
 20
44.98419957389941
 30
0.0
  0
VERTEX
  5
293
  8
THROUGH_CUT
 10
61.52793459947719
 20
44.96703557389941
 30
0.0
  0
VERTEX
  5
294
  8
THROUGH_CUT
 10
61.50484759947718
 20
44.94578257389941
 30
0.0
  0
VERTEX
  5
295
  8
THROUGH_CUT
 10
61.48557359947719
 20
44.92101957389941
 30
0.0
  0
VERTEX
  5
296
  8
THROUGH_CUT
 10
61.47063859947718
 20
44.89342157389941
 30
0.0
  0
VERTEX
  5
297
  8
THROUGH_CUT
 10
61.46044859947718
 20
44.86374157389941
 30
0.0
  0
VERTEX
  5
298
  8
THROUGH_CUT
 10
61.45528359947718
 20
44.83278957389941
 30
0.0
  0
VERTEX
  5
299
  8
THROUGH_CUT
 10
61.45528359947718
 20
44.80140957389941
 30
0.0
  0
VERTEX
  5
29A
  8
THROUGH_CUT
 10
61.46044859947718
 20
44.77045657389941
 30
0.0
  0
VERTEX
  5
29B
  8
THROUGH_CUT
 10
61.47063859947718
 20
44.74077757389941
 30
0.0
  0
VERTEX
  5
29C
  8
THROUGH_CUT
 10
61.48557359947719
 20
44.71317957389941
 30
0.0
  0
VERTEX
  5
29D
  8
THROUGH_CUT
 10
61.50484759947718
 20
44.68841557389941
 30
0.0
  0
VERTEX
  5
29E
  8
THROUGH_CUT
 10
61.52793459947719
 20
44.66716257389941
 30
0.0
  0
VERTEX
  5
29F
  8
THROUGH_CUT
 10
61.55420459947717
 20
44.64999957389941
 30
0.0
  0
VERTEX
  5
2A0
  8
THROUGH_CUT
 10
61.58294259947717
 20
44.63739357389942
 30
0.0
  0
VERTEX
  5
2A1
  8
THROUGH_CUT
 10
61.61336259947719
 20
44.62969057389941
 30
0.0
  0
VERTEX
  5
2A2
  8
THROUGH_CUT
 10
61.64463459947719
 20
44.62709957389941
 30
0.0
  0
VERTEX
  5
2A3
  8
THROUGH_CUT
 10
62.39463459947719
 20
44.62709957389941
 30
0.0
  0
VERTEX
  5
2A4
  8
THROUGH_CUT
 10
62.42590759947719
 20
44.62969057389941
 30
0.0
  0
VERTEX
  5
2A5
  8
THROUGH_CUT
 10
62.45632759947719
 20
44.63739357389942
 30
0.0
  0
VERTEX
  5
2A6
  8
THROUGH_CUT
 10
62.48506459947719
 20
44.64999957389941
 30
0.0
  0
VERTEX
  5
2A7
  8
THROUGH_CUT
 10
62.51133559947717
 20
44.66716257389941
 30
0.0
  0
VERTEX
  5
2A8
  8
THROUGH_CUT
 10
62.53442259947718
 20
44.68841557389941
 30
0.0
  0
VERTEX
  5
2A9
  8
THROUGH_CUT
 10
62.55369659947717
 20
44.71317957389941
 30
0.0
  0
VERTEX
  5
2AA
  8
THROUGH_CUT
 10
62.56863159947718
 20
44.74077757389941
 30
0.0
  0
VERTEX
  5
2AB
  8
THROUGH_CUT
 10
62.57882159947717
 20
44.77045657389941
 30
0.0
  0
VERTEX
  5
2AC
  8
THROUGH_CUT
 10
62.58398659947718
 20
44.80140957389941
 30
0.0
  0
VERTEX
  5
2AD
  8
THROUGH_CUT
 10
62.58398659947718
 20
44.83278957389941
 30
0.0
  0
VERTEX
  5
2AE
  8
THROUGH_CUT
 10
62.57882159947717
 20
44.86374157389941
 30
0.0
  0
VERTEX
  5
2AF
  8
THROUGH_CUT
 10
62.56863159947718
 20
44.89342157389941
 30
0.0
  0
VERTEX
  5
2B0
  8
THROUGH_CUT
 10
62.55369659947717
 20
44.92101957389941
 30
0.0
  0
VERTEX
  5
2B1
  8
THROUGH_CUT
 10
62.53442259947718
 20
44.94578257389941
 30
0.0
  0
VERTEX
  5
2B2
  8
THROUGH_CUT
 10
62.51133559947717
 20
44.96703557389941
 30
0.0
  0
VERTEX
  5
2B3
  8
THROUGH_CUT
 10
62.48506459947719
 20
44.98419957389941
 30
0.0
  0
VERTEX
  5
2B4
  8
THROUGH_CUT
 10
62.45632759947719
 20
44.99680457389941
 30
0.0
  0
VERTEX
  5
2B5
  8
THROUGH_CUT
 10
62.42590759947719
 20
45.00450757389941
 30
0.0
  0
VERTEX
  5
2B6
  8
THROUGH_CUT
 10
62.39463459947719
 20
45.00709957389941
 30
0.0
  0
VERTEX
  5
2B7
  8
THROUGH_CUT
 10
62.39463459947719
 20
46.62709957389941
 30
0.0
  0
VERTEX
  5
2B8
  8
THROUGH_CUT
 10
83.64463459947719
 20
46.62709957389941
 30
0.0
  0
VERTEX
  5
2B9
  8
THROUGH_CUT
 10
83.64463459947719
 20
45.00709957389941
 30
0.0
  0
VERTEX
  5
2BA
  8
THROUGH_CUT
 10
83.61336259947718
 20
45.00450757389941
 30
0.0
  0
VERTEX
  5
2BB
  8
THROUGH_CUT
 10
83.58294259947718
 20
44.99680457389941
 30
0.0
  0
VERTEX
  5
2BC
  8
THROUGH_CUT
 10
83.55420459947717
 20
44.98419957389941
 30
0.0
  0
VERTEX
  5
2BD
  8
THROUGH_CUT
 10
83.52793459947719
 20
44.96703557389941
 30
0.0
  0
VERTEX
  5
2BE
  8
THROUGH_CUT
 10
83.50484759947719
 20
44.94578257389941
 30
0.0
  0
VERTEX
  5
2BF
  8
THROUGH_CUT
 10
83.48557359947719
 20
44.92101957389941
 30
0.0
  0
VERTEX
  5
2C0
  8
THROUGH_CUT
 10
83.47063859947718
 20
44.89342157389941
 30
0.0
  0
VERTEX
  5
2C1
  8
THROUGH_CUT
 10
83.46044859947719
 20
44.86374157389941
 30
0.0
  0
VERTEX
  5
2C2
  8
THROUGH_CUT
 10
83.45528359947718
 20
44.83278957389941
 30
0.0
  0
VERTEX
  5
2C3
  8
THROUGH_CUT
 10
83.45528359947718
 20
44.80140957389941
 30
0.0
  0
VERTEX
  5
2C4
  8
THROUGH_CUT
 10
83.46044859947719
 20
44.77045657389941
 30
0.0
  0
VERTEX
  5
2C5
  8
THROUGH_CUT
 10
83.47063859947718
 20
44.74077757389941
 30
0.0
  0
VERTEX
  5
2C6
  8
THROUGH_CUT
 10
83.48557359947719
 20
44.71317957389941
 30
0.0
  0
VERTEX
  5
2C7
  8
THROUGH_CUT
 10
83.50484759947719
 20
44.68841557389941
 30
0.0
  0
VERTEX
  5
2C8
  8
THROUGH_CUT
 10
83.52793459947719
 20
44.66716257389941
 30
0.0
  0
VERTEX
  5
2C9
  8
THROUGH_CUT
 10
83.55420459947717
 20
44.64999957389941
 30
0.0
  0
VERTEX
  5
2CA
  8
THROUGH_CUT
 10
83.58294259947718
 20
44.63739357389942
 30
0.0
  0
VERTEX
  5
2CB
  8
THROUGH_CUT
 10
83.61336259947718
 20
44.62969057389941
 30
0.0
  0
VERTEX
  5
2CC
  8
THROUGH_CUT
 10
83.64463459947719
 20
44.62709957389941
 30
0.0
  0
VERTEX
  5
2CD
  8
THROUGH_CUT
 10
84.39463459947719
 20
44.62709957389941
 30
0.0
  0
VERTEX
  5
2CE
  8
THROUGH_CUT
 10
84.42590759947718
 20
44.62969057389941
 30
0.0
  0
VERTEX
  5
2CF
  8
THROUGH_CUT
 10
84.45632759947719
 20
44.63739357389942
 30
0.0
  0
VERTEX
  5
2D0
  8
THROUGH_CUT
 10
84.48506459947718
 20
44.64999957389941
 30
0.0
  0
VERTEX
  5
2D1
  8
THROUGH_CUT
 10
84.51133559947718
 20
44.66716257389941
 30
0.0
  0
VERTEX
  5
2D2
  8
THROUGH_CUT
 10
84.53442259947718
 20
44.68841557389941
 30
0.0
  0
VERTEX
  5
2D3
  8
THROUGH_CUT
 10
84.55369659947718
 20
44.71317957389941
 30
0.0
  0
VERTEX
  5
2D4
  8
THROUGH_CUT
 10
84.56863159947719
 20
44.74077757389941
 30
0.0
  0
VERTEX
  5
2D5
  8
THROUGH_CUT
 10
84.57882159947718
 20
44.77045657389941
 30
0.0
  0
VERTEX
  5
2D6
  8
THROUGH_CUT
 10
84.58398659947719
 20
44.80140957389941
 30
0.0
  0
VERTEX
  5
2D7
  8
THROUGH_CUT
 10
84.58398659947719
 20
44.83278957389941
 30
0.0
  0
VERTEX
  5
2D8
  8
THROUGH_CUT
 10
84.57882159947718
 20
44.86374157389941
 30
0.0
  0
VERTEX
  5
2D9
  8
THROUGH_CUT
 10
84.56863159947719
 20
44.89342157389941
 30
0.0
  0
VERTEX
  5
2DA
  8
THROUGH_CUT
 10
84.55369659947718
 20
44.92101957389941
 30
0.0
  0
VERTEX
  5
2DB
  8
THROUGH_CUT
 10
84.53442259947718
 20
44.94578257389941
 30
0.0
  0
VERTEX
  5
2DC
  8
THROUGH_CUT
 10
84.51133559947718
 20
44.96703557389941
 30
0.0
  0
VERTEX
  5
2DD
  8
THROUGH_CUT
 10
84.48506459947718
 20
44.98419957389941
 30
0.0
  0
VERTEX
  5
2DE
  8
THROUGH_CUT
 10
84.45632759947719
 20
44.99680457389941
 30
0.0
  0
VERTEX
  5
2DF
  8
THROUGH_CUT
 10
84.42590759947718
 20
45.00450757389941
 30
0.0
  0
VERTEX
  5
2E0
  8
THROUGH_CUT
 10
84.39463459947719
 20
45.00709957389941
 30
0.0
  0
VERTEX
  5
2E1
  8
THROUGH_CUT
 10
84.39463459947719
 20
46.62709957389941
 30
0.0
  0
VERTEX
  5
2E2
  8
THROUGH_CUT
 10
85.53771659947719
 20
46.62709957389941
 30
0.0
  0
VERTEX
  5
2E3
  8
THROUGH_CUT
 10
85.69415159947718
 20
46.61478757389941
 30
0.0
  0
VERTEX
  5
2E4
  8
THROUGH_CUT
 10
85.84673359947719
 20
46.57815557389941
 30
0.0
  0
VERTEX
  5
2E5
  8
THROUGH_CUT
 10
85.9917075994772
 20
46.51810557389941
 30
0.0
  0
VERTEX
  5
2E6
  8
THROUGH_CUT
 10
86.12550259947719
 20
46.4361165738994
 30
0.0
  0
VERTEX
  5
2E7
  8
THROUGH_CUT
 10
86.24482359947719
 20
46.33420657389941
 30
0.0
  0
VERTEX
  5
2E8
  8
THROUGH_CUT
 10
86.34673359947719
 20
46.2148845738994
 30
0.0
  0
VERTEX
  5
2E9
  8
THROUGH_CUT
 10
86.4287235994772
 20
46.08108957389941
 30
0.0
  0
VERTEX
  5
2EA
  8
THROUGH_CUT
 10
86.48877359947718
 20
45.9361165738994
 30
0.0
  0
VERTEX
  5
2EB
  8
THROUGH_CUT
 10
86.52540559947718
 20
45.78353357389941
 30
0.0
  0
VERTEX
  5
2EC
  8
THROUGH_CUT
 10
86.53771659947719
 20
45.62709957389941
 30
0.0
  0
VERTEX
  5
2ED
  8
THROUGH_CUT
 10
86.53771659947716
 20
42.62709981209993
 30
0.0
 42
-0.4142133630070199
  0
VERTEX
  5
2EE
  8
THROUGH_CUT
 10
83.53771735869566
 20
39.6270995738996
 30
0.0
  0
VERTEX
  5
2EF
  8
THROUGH_CUT
 10
50.01963459947719
 20
39.62709919889942
 30
0.0
  0
VERTEX
  5
2F0
  8
THROUGH_CUT
 10
51.06268799007046
 20
40.67004593330615
 30
0.0
 42
0.4142135623730944
  0
VERTEX
  5
2F1
  8
THROUGH_CUT
 10
51.06268799007046
 20
42.0841527144927
 30
0.0
  0
VERTEX
  5
2F2
  8
THROUGH_CUT
 10
48.97658120888391
 20
44.17004593330615
 30
0.0
 42
-0.4142135623730946
  0
VERTEX
  5
2F3
  8
THROUGH_CUT
 10
48.97658120888391
 20
45.5841527144927
 30
0.0
  0
VERTEX
  5
2F4
  8
THROUGH_CUT
 10
50.01963459947719
 20
46.62709944889941
 30
0.0
  0
SEQEND
  5
2F5
  8
THROUGH_CUT
  0
POLYLINE
  5
59
  8
THROUGH_CUT
 66
     1
 10
0.0
 20
0.0
 30
0.0
 70
     1
  0
VERTEX
  5
2F6
  8
THROUGH_CUT
 10
11.27363782534309
 20
19.55650094125381
 30
0.0
 42
0.961490096133456
  0
VERTEX
  5
2F7
  8
THROUGH_CUT
 10
11.3206202419495
 20
19.15958921697626
 30
0.0
 42
0.9614707681241729
  0
VERTEX
  5
2F8
  8
THROUGH_CUT
 10
11.30492482534309
 20
19.55896394125381
 30
0.0
 42
0.0196430313934635
  0
VERTEX
  5
2F9
  8
THROUGH_CUT
 10
11.28923694316306
 20
19.55834740787921
 30
0.0
 42
0.0196329840983488
  0
SEQEND
  5
2FA
  8
THROUGH_CUT
  0
POLYLINE
  5
5A
  8
THROUGH_CUT
 66
     1
 10
0.0
 20
0.0
 30
0.0
 70
     1
  0
VERTEX
  5
2FB
  8
THROUGH_CUT
 10
33.27019482534308
 20
19.55592494125381
 30
0.0
 42
0.9203497392141604
  0
VERTEX
  5
2FC
  8
THROUGH_CUT
 10
33.30666909914483
 20
19.1589849978969
 30
0.0
 42
0.920351574329487
  0
VERTEX
  5
2FD
  8
THROUGH_CUT
 10
33.33621082534309
 20
19.55650094125381
 30
0.0
 42
0.0414759603059265
  0
VERTEX
  5
2FE
  8
THROUGH_CUT
 10
33.30317849634648
 20
19.55895576611107
 30
0.0
 42
0.0414769555563666
  0
SEQEND
  5
2FF
  8
THROUGH_CUT
  0
POLYLINE
  5
5B
  8
THROUGH_CUT
 66
     1
 10
0.0
 20
0.0
 30
0.0
 70
     1
  0
VERTEX
  5
300
  8
THROUGH_CUT
 10
82.05092159947719
 20
19.56556850757661
 30
0.0
 42
-0.9614900961334423
  0
VERTEX
  5
301
  8
THROUGH_CUT
 10
82.0039391828708
 20
19.1686567832989
 30
0.0
 42
-0.9614707681242259
  0
VERTEX
  5
302
  8
THROUGH_CUT
 10
82.01963459947719
 20
19.56803150757661
 30
0.0
 42
-0.0196430313934435
  0
VERTEX
  5
303
  8
THROUGH_CUT
 10
82.03532248165723
 20
19.56741497420201
 30
0.0
 42
-0.0196329840985384
  0
SEQEND
  5
304
  8
THROUGH_CUT
  0
POLYLINE
  5
5C
  8
THROUGH_CUT
 66
     1
 10
0.0
 20
0.0
 30
0.0
 70
     1
  0
VERTEX
  5
305
  8
THROUGH_CUT
 10
60.05436459947719
 20
19.56499250757661
 30
0.0
 42
-0.9203497392142354
  0
VERTEX
  5
306
  8
THROUGH_CUT
 10
60.01789032567543
 20
19.16805256421965
 30
0.0
 42
-0.9203515743295231
  0
VERTEX
  5
307
  8
THROUGH_CUT
 10
59.98834859947717
 20
19.56556850757661
 30
0.0
 42
-0.0414759603059335
  0
VERTEX
  5
308
  8
THROUGH_CUT
 10
60.0213809284738
 20
19.56802333243387
 30
0.0
 42
-0.041476955556153
  0
SEQEND
  5
309
  8
THROUGH_CUT
  0
POLYLINE
  5
5D
  8
THROUGH_CUT
 66
     1
 10
0.0
 20
0.0
 30
0.0
 70
     1
  0
VERTEX
  5
30A
  8
THROUGH_CUT
 10
11.27363782534309
 20
27.31556900757661
 30
0.0
 42
0.961490096133456
  0
VERTEX
  5
30B
  8
THROUGH_CUT
 10
11.3206202419495
 20
26.91865728329906
 30
0.0
 42
0.9614707681241729
  0
VERTEX
  5
30C
  8
THROUGH_CUT
 10
11.30492482534309
 20
27.31803200757661
 30
0.0
 42
0.0196430313934635
  0
VERTEX
  5
30D
  8
THROUGH_CUT
 10
11.28923694316306
 20
27.31741547420201
 30
0.0
 42
0.0196329840983488
  0
SEQEND
  5
30E
  8
THROUGH_CUT
  0
POLYLINE
  5
5E
  8
THROUGH_CUT
 66
     1
 10
0.0
 20
0.0
 30
0.0
 70
     1
  0
VERTEX
  5
30F
  8
THROUGH_CUT
 10
33.27019482534308
 20
27.31499300757661
 30
0.0
 42
0.9203497392141604
  0
VERTEX
  5
310
  8
THROUGH_CUT
 10
33.30666909914483
 20
26.91805306421971
 30
0.0
 42
0.920351574329487
  0
VERTEX
  5
311
  8
THROUGH_CUT
 10
33.33621082534309
 20
27.31556900757661
 30
0.0
 42
0.0414759603059265
  0
VERTEX
  5
312
  8
THROUGH_CUT
 10
33.30317849634648
 20
27.31802383243387
 30
0.0
 42
0.0414769555563666
  0
SEQEND
  5
313
  8
THROUGH_CUT
  0
POLYLINE
  5
5F
  8
THROUGH_CUT
 66
     1
 10
0.0
 20
0.0
 30
0.0
 70
     1
  0
VERTEX
  5
314
  8
THROUGH_CUT
 10
82.05092159947719
 20
27.32463657389941
 30
0.0
 42
-0.9614900961334423
  0
VERTEX
  5
315
  8
THROUGH_CUT
 10
82.0039391828708
 20
26.9277248496217
 30
0.0
 42
-0.9614707681242259
  0
VERTEX
  5
316
  8
THROUGH_CUT
 10
82.01963459947719
 20
27.32709957389941
 30
0.0
 42
-0.0196430313934435
  0
VERTEX
  5
317
  8
THROUGH_CUT
 10
82.03532248165723
 20
27.32648304052481
 30
0.0
 42
-0.0196329840985384
  0
SEQEND
  5
318
  8
THROUGH_CUT
  0
POLYLINE
  5
60
  8
THROUGH_CUT
 66
     1
 10
0.0
 20
0.0
 30
0.0
 70
     1
  0
VERTEX
  5
319
  8
THROUGH_CUT
 10
60.05436459947719
 20
27.32406057389942
 30
0.0
 42
-0.9203497392142354
  0
VERTEX
  5
31A
  8
THROUGH_CUT
 10
60.01789032567543
 20
26.92712063054245
 30
0.0
 42
-0.9203515743295231
  0
VERTEX
  5
31B
  8
THROUGH_CUT
 10
59.98834859947717
 20
27.32463657389941
 30
0.0
 42
-0.0414759603059335
  0
VERTEX
  5
31C
  8
THROUGH_CUT
 10
60.0213809284738
 20
27.32709139875667
 30
0.0
 42
-0.041476955556153
  0
SEQEND
  5
31D
  8
THROUGH_CUT
  0
POLYLINE
  5
61
  8
THROUGH_CUT
 66
     1
 10
0.0
 20
0.0
 30
0.0
 70
     1
  0
VERTEX
  5
31E
  8
THROUGH_CUT
 10
30.92992482534309
 20
23.35896394125381
 30
0.0
  0
VERTEX
  5
31F
  8
THROUGH_CUT
 10
9.679924825343088
 20
23.35896394125381
 30
0.0
  0
VERTEX
  5
320
  8
THROUGH_CUT
 10
9.679924825343088
 20
21.73896394125381
 30
0.0
  0
VERTEX
  5
321
  8
THROUGH_CUT
 10
9.71119682534309
 20
21.73637194125381
 30
0.0
  0
VERTEX
  5
322
  8
THROUGH_CUT
 10
9.741616825343089
 20
21.72866894125382
 30
0.0
  0
VERTEX
  5
323
  8
THROUGH_CUT
 10
9.77035482534309
 20
21.71606394125381
 30
0.0
  0
VERTEX
  5
324
  8
THROUGH_CUT
 10
9.79662482534309
 20
21.69889994125381
 30
0.0
  0
VERTEX
  5
325
  8
THROUGH_CUT
 10
9.819711825343086
 20
21.67764694125381
 30
0.0
  0
VERTEX
  5
326
  8
THROUGH_CUT
 10
9.838985825343089
 20
21.65288394125381
 30
0.0
  0
VERTEX
  5
327
  8
THROUGH_CUT
 10
9.85392082534309
 20
21.62528594125381
 30
0.0
  0
VERTEX
  5
328
  8
THROUGH_CUT
 10
9.864110825343088
 20
21.59560594125381
 30
0.0
  0
VERTEX
  5
329
  8
THROUGH_CUT
 10
9.86927582534309
 20
21.56465394125381
 30
0.0
  0
VERTEX
  5
32A
  8
THROUGH_CUT
 10
9.86927582534309
 20
21.53327394125381
 30
0.0
  0
VERTEX
  5
32B
  8
THROUGH_CUT
 10
9.864110825343088
 20
21.50232094125381
 30
0.0
  0
VERTEX
  5
32C
  8
THROUGH_CUT
 10
9.85392082534309
 20
21.47264194125381
 30
0.0
  0
VERTEX
  5
32D
  8
THROUGH_CUT
 10
9.838985825343089
 20
21.44504394125381
 30
0.0
  0
VERTEX
  5
32E
  8
THROUGH_CUT
 10
9.819711825343086
 20
21.42027994125381
 30
0.0
  0
VERTEX
  5
32F
  8
THROUGH_CUT
 10
9.79662482534309
 20
21.39902694125381
 30
0.0
  0
VERTEX
  5
330
  8
THROUGH_CUT
 10
9.77035482534309
 20
21.38186394125381
 30
0.0
  0
VERTEX
  5
331
  8
THROUGH_CUT
 10
9.741616825343089
 20
21.36925794125381
 30
0.0
  0
VERTEX
  5
332
  8
THROUGH_CUT
 10
9.71119682534309
 20
21.36155494125381
 30
0.0
  0
VERTEX
  5
333
  8
THROUGH_CUT
 10
9.679924825343088
 20
21.35896394125381
 30
0.0
  0
VERTEX
  5
334
  8
THROUGH_CUT
 10
8.929924825343088
 20
21.35896394125381
 30
0.0
  0
VERTEX
  5
335
  8
THROUGH_CUT
 10
8.898651825343089
 20
21.36155494125381
 30
0.0
  0
VERTEX
  5
336
  8
THROUGH_CUT
 10
8.86823182534309
 20
21.36925794125381
 30
0.0
  0
VERTEX
  5
337
  8
THROUGH_CUT
 10
8.83949482534309
 20
21.38186394125381
 30
0.0
  0
VERTEX
  5
338
  8
THROUGH_CUT
 10
8.813223825343089
 20
21.39902694125381
 30
0.0
  0
VERTEX
  5
339
  8
THROUGH_CUT
 10
8.790136825343088
 20
21.42027994125381
 30
0.0
  0
VERTEX
  5
33A
  8
THROUGH_CUT
 10
8.77086282534309
 20
21.44504394125381
 30
0.0
  0
VERTEX
  5
33B
  8
THROUGH_CUT
 10
8.755927825343088
 20
21.47264194125381
 30
0.0
  0
VERTEX
  5
33C
  8
THROUGH_CUT
 10
8.745737825343086
 20
21.50232094125381
 30
0.0
  0
VERTEX
  5
33D
  8
THROUGH_CUT
 10
8.74057282534309
 20
21.53327394125381
 30
0.0
  0
VERTEX
  5
33E
  8
THROUGH_CUT
 10
8.74057282534309
 20
21.56465394125381
 30
0.0
  0
VERTEX
  5
33F
  8
THROUGH_CUT
 10
8.745737825343086
 20
21.59560594125381
 30
0.0
  0
VERTEX
  5
340
  8
THROUGH_CUT
 10
8.755927825343088
 20
21.62528594125381
 30
0.0
  0
VERTEX
  5
341
  8
THROUGH_CUT
 10
8.77086282534309
 20
21.65288394125381
 30
0.0
  0
VERTEX
  5
342
  8
THROUGH_CUT
 10
8.790136825343088
 20
21.67764694125381
 30
0.0
  0
VERTEX
  5
343
  8
THROUGH_CUT
 10
8.813223825343089
 20
21.69889994125381
 30
0.0
  0
VERTEX
  5
344
  8
THROUGH_CUT
 10
8.83949482534309
 20
21.71606394125381
 30
0.0
  0
VERTEX
  5
345
  8
THROUGH_CUT
 10
8.86823182534309
 20
21.72866894125382
 30
0.0
  0
VERTEX
  5
346
  8
THROUGH_CUT
 10
8.898651825343089
 20
21.73637194125381
 30
0.0
  0
VERTEX
  5
347
  8
THROUGH_CUT
 10
8.929924825343088
 20
21.73896394125381
 30
0.0
  0
VERTEX
  5
348
  8
THROUGH_CUT
 10
8.929924825343088
 20
23.35896394125381
 30
0.0
  0
VERTEX
  5
349
  8
THROUGH_CUT
 10
7.786842825343088
 20
23.35896394125381
 30
0.0
  0
VERTEX
  5
34A
  8
THROUGH_CUT
 10
7.63040782534309
 20
23.34665194125381
 30
0.0
  0
VERTEX
  5
34B
  8
THROUGH_CUT
 10
7.477825825343088
 20
23.31001994125381
 30
0.0
  0
VERTEX
  5
34C
  8
THROUGH_CUT
 10
7.33285182534309
 20
23.24996994125381
 30
0.0
  0
VERTEX
  5
34D
  8
THROUGH_CUT
 10
7.199056825343087
 20
23.1679809412538
 30
0.0
  0
VERTEX
  5
34E
  8
THROUGH_CUT
 10
7.079735825343088
 20
23.06607094125381
 30
0.0
  0
VERTEX
  5
34F
  8
THROUGH_CUT
 10
6.977825825343088
 20
22.9467489412538
 30
0.0
  0
VERTEX
  5
350
  8
THROUGH_CUT
 10
6.89583582534309
 20
22.81295394125381
 30
0.0
  0
VERTEX
  5
351
  8
THROUGH_CUT
 10
6.835785825343089
 20
22.6679809412538
 30
0.0
  0
VERTEX
  5
352
  8
THROUGH_CUT
 10
6.799153825343089
 20
22.51539794125381
 30
0.0
  0
VERTEX
  5
353
  8
THROUGH_CUT
 10
6.786842825343088
 20
22.35896394125381
 30
0.0
  0
VERTEX
  5
354
  8
THROUGH_CUT
 10
6.786842825343111
 20
19.35896417945434
 30
0.0
 42
0.4142133630070195
  0
VERTEX
  5
355
  8
THROUGH_CUT
 10
9.786842066124612
 20
16.358963941254
 30
0.0
  0
VERTEX
  5
356
  8
THROUGH_CUT
 10
43.30492482534308
 20
16.35896356625381
 30
0.0
  0
VERTEX
  5
357
  8
THROUGH_CUT
 10
44.34797821593635
 20
17.40191030066054
 30
0.0
 42
0.4142135623730944
  0
VERTEX
  5
358
  8
THROUGH_CUT
 10
44.34797821593635
 20
18.81601708184709
 30
0.0
  0
VERTEX
  5
359
  8
THROUGH_CUT
 10
42.26187143474981
 20
20.90191030066055
 30
0.0
 42
-0.4142135623730946
  0
VERTEX
  5
35A
  8
THROUGH_CUT
 10
42.26187143474981
 20
22.31601708184709
 30
0.0
  0
VERTEX
  5
35B
  8
THROUGH_CUT
 10
43.30492482534308
 20
23.35896381625381
 30
0.0
  0
VERTEX
  5
35C
  8
THROUGH_CUT
 10
31.67992482534309
 20
23.35896394125381
 30
0.0
  0
VERTEX
  5
35D
  8
THROUGH_CUT
 10
31.67992482534309
 20
21.73896394125381
 30
0.0
  0
VERTEX
  5
35E
  8
THROUGH_CUT
 10
31.71119682534309
 20
21.73637194125381
 30
0.0
  0
VERTEX
  5
35F
  8
THROUGH_CUT
 10
31.74161682534309
 20
21.72866894125382
 30
0.0
  0
VERTEX
  5
360
  8
THROUGH_CUT
 10
31.77035482534309
 20
21.71606394125381
 30
0.0
  0
VERTEX
  5
361
  8
THROUGH_CUT
 10
31.79662482534309
 20
21.69889994125381
 30
0.0
  0
VERTEX
  5
362
  8
THROUGH_CUT
 10
31.81971182534309
 20
21.67764694125381
 30
0.0
  0
VERTEX
  5
363
  8
THROUGH_CUT
 10
31.83898582534309
 20
21.65288394125381
 30
0.0
  0
VERTEX
  5
364
  8
THROUGH_CUT
 10
31.85392082534309
 20
21.62528594125381
 30
0.0
  0
VERTEX
  5
365
  8
THROUGH_CUT
 10
31.86411082534309
 20
21.59560594125381
 30
0.0
  0
VERTEX
  5
366
  8
THROUGH_CUT
 10
31.86927582534309
 20
21.56465394125381
 30
0.0
  0
VERTEX
  5
367
  8
THROUGH_CUT
 10
31.86927582534309
 20
21.53327394125381
 30
0.0
  0
VERTEX
  5
368
  8
THROUGH_CUT
 10
31.86411082534309
 20
21.50232094125381
 30
0.0
  0
VERTEX
  5
369
  8
THROUGH_CUT
 10
31.85392082534309
 20
21.47264194125381
 30
0.0
  0
VERTEX
  5
36A
  8
THROUGH_CUT
 10
31.83898582534309
 20
21.44504394125381
 30
0.0
  0
VERTEX
  5
36B
  8
THROUGH_CUT
 10
31.81971182534309
 20
21.42027994125381
 30
0.0
  0
VERTEX
  5
36C
  8
THROUGH_CUT
 10
31.79662482534309
 20
21.39902694125381
 30
0.0
  0
VERTEX
  5
36D
  8
THROUGH_CUT
 10
31.77035482534309
 20
21.38186394125381
 30
0.0
  0
VERTEX
  5
36E
  8
THROUGH_CUT
 10
31.74161682534309
 20
21.36925794125381
 30
0.0
  0
VERTEX
  5
36F
  8
THROUGH_CUT
 10
31.71119682534309
 20
21.36155494125381
 30
0.0
  0
VERTEX
  5
370
  8
THROUGH_CUT
 10
31.67992482534309
 20
21.35896394125381
 30
0.0
  0
VERTEX
  5
371
  8
THROUGH_CUT
 10
30.92992482534309
 20
21.35896394125381
 30
0.0
  0
VERTEX
  5
372
  8
THROUGH_CUT
 10
30.89865182534309
 20
21.36155494125381
 30
0.0
  0
VERTEX
  5
373
  8
THROUGH_CUT
 10
30.86823182534309
 20
21.36925794125381
 30
0.0
  0
VERTEX
  5
374
  8
THROUGH_CUT
 10
30.83949482534309
 20
21.38186394125381
 30
0.0
  0
VERTEX
  5
375
  8
THROUGH_CUT
 10
30.81322382534309
 20
21.39902694125381
 30
0.0
  0
VERTEX
  5
376
  8
THROUGH_CUT
 10
30.79013682534308
 20
21.42027994125381
 30
0.0
  0
VERTEX
  5
377
  8
THROUGH_CUT
 10
30.77086282534309
 20
21.44504394125381
 30
0.0
  0
VERTEX
  5
378
  8
THROUGH_CUT
 10
30.75592782534309
 20
21.47264194125381
 30
0.0
  0
VERTEX
  5
379
  8
THROUGH_CUT
 10
30.74573782534309
 20
21.50232094125381
 30
0.0
  0
VERTEX
  5
37A
  8
THROUGH_CUT
 10
30.74057282534309
 20
21.53327394125381
 30
0.0
  0
VERTEX
  5
37B
  8
THROUGH_CUT
 10
30.74057282534309
 20
21.56465394125381
 30
0.0
  0
VERTEX
  5
37C
  8
THROUGH_CUT
 10
30.74573782534309
 20
21.59560594125381
 30
0.0
  0
VERTEX
  5
37D
  8
THROUGH_CUT
 10
30.75592782534309
 20
21.62528594125381
 30
0.0
  0
VERTEX
  5
37E
  8
THROUGH_CUT
 10
30.77086282534309
 20
21.65288394125381
 30
0.0
  0
VERTEX
  5
37F
  8
THROUGH_CUT
 10
30.79013682534308
 20
21.67764694125381
 30
0.0
  0
VERTEX
  5
380
  8
THROUGH_CUT
 10
30.81322382534309
 20
21.69889994125381
 30
0.0
  0
VERTEX
  5
381
  8
THROUGH_CUT
 10
30.83949482534309
 20
21.71606394125381
 30
0.0
  0
VERTEX
  5
382
  8
THROUGH_CUT
 10
30.86823182534309
 20
21.72866894125382
 30
0.0
  0
VERTEX
  5
383
  8
THROUGH_CUT
 10
30.89865182534309
 20
21.73637194125381
 30
0.0
  0
VERTEX
  5
384
  8
THROUGH_CUT
 10
30.92992482534309
 20
21.73896394125381
 30
0.0
  0
SEQEND
  5
385
  8
THROUGH_CUT
  0
POLYLINE
  5
62
  8
THROUGH_CUT
 66
     1
 10
0.0
 20
0.0
 30
0.0
 70
     1
  0
VERTEX
  5
386
  8
THROUGH_CUT
 10
30.92992482534309
 20
31.11803200757662
 30
0.0
  0
VERTEX
  5
387
  8
THROUGH_CUT
 10
30.92992482534309
 20
29.49803200757661
 30
0.0
  0
VERTEX
  5
388
  8
THROUGH_CUT
 10
30.89865182534309
 20
29.49544000757661
 30
0.0
  0
VERTEX
  5
389
  8
THROUGH_CUT
 10
30.86823182534309
 20
29.48773700757661
 30
0.0
  0
VERTEX
  5
38A
  8
THROUGH_CUT
 10
30.83949482534309
 20
29.47513200757661
 30
0.0
  0
VERTEX
  5
38B
  8
THROUGH_CUT
 10
30.81322382534309
 20
29.45796800757661
 30
0.0
  0
VERTEX
  5
38C
  8
THROUGH_CUT
 10
30.79013682534308
 20
29.43671500757661
 30
0.0
  0
VERTEX
  5
38D
  8
THROUGH_CUT
 10
30.77086282534309
 20
29.41195200757662
 30
0.0
  0
VERTEX
  5
38E
  8
THROUGH_CUT
 10
30.75592782534309
 20
29.38435400757661
 30
0.0
  0
VERTEX
  5
38F
  8
THROUGH_CUT
 10
30.74573782534309
 20
29.35467400757661
 30
0.0
  0
VERTEX
  5
390
  8
THROUGH_CUT
 10
30.74057282534309
 20
29.32372200757661
 30
0.0
  0
VERTEX
  5
391
  8
THROUGH_CUT
 10
30.74057282534309
 20
29.29234200757661
 30
0.0
  0
VERTEX
  5
392
  8
THROUGH_CUT
 10
30.74573782534309
 20
29.26138900757661
 30
0.0
  0
VERTEX
  5
393
  8
THROUGH_CUT
 10
30.75592782534309
 20
29.23171000757661
 30
0.0
  0
VERTEX
  5
394
  8
THROUGH_CUT
 10
30.77086282534309
 20
29.20411200757661
 30
0.0
  0
VERTEX
  5
395
  8
THROUGH_CUT
 10
30.79013682534308
 20
29.17934800757661
 30
0.0
  0
VERTEX
  5
396
  8
THROUGH_CUT
 10
30.81322382534309
 20
29.15809500757661
 30
0.0
  0
VERTEX
  5
397
  8
THROUGH_CUT
 10
30.83949482534309
 20
29.14093200757661
 30
0.0
  0
VERTEX
  5
398
  8
THROUGH_CUT
 10
30.86823182534309
 20
29.12832600757661
 30
0.0
  0
VERTEX
  5
399
  8
THROUGH_CUT
 10
30.89865182534309
 20
29.12062300757661
 30
0.0
  0
VERTEX
  5
39A
  8
THROUGH_CUT
 10
30.92992482534309
 20
29.11803200757662
 30
0.0
  0
VERTEX
  5
39B
  8
THROUGH_CUT
 10
31.67992482534309
 20
29.11803200757662
 30
0.0
  0
VERTEX
  5
39C
  8
THROUGH_CUT
 10
31.71119682534309
 20
29.12062300757661
 30
0.0
  0
VERTEX
  5
39D
  8
THROUGH_CUT
 10
31.74161682534309
 20
29.12832600757661
 30
0.0
  0
VERTEX
  5
39E
  8
THROUGH_CUT
 10
31.77035482534309
 20
29.14093200757661
 30
0.0
  0
VERTEX
  5
39F
  8
THROUGH_CUT
 10
31.79662482534309
 20
29.15809500757661
 30
0.0
  0
VERTEX
  5
3A0
  8
THROUGH_CUT
 10
31.81971182534309
 20
29.17934800757661
 30
0.0
  0
VERTEX
  5
3A1
  8
THROUGH_CUT
 10
31.83898582534309
 20
29.20411200757661
 30
0.0
  0
VERTEX
  5
3A2
  8
THROUGH_CUT
 10
31.85392082534309
 20
29.23171000757661
 30
0.0
  0
VERTEX
  5
3A3
  8
THROUGH_CUT
 10
31.86411082534309
 20
29.26138900757661
 30
0.0
  0
VERTEX
  5
3A4
  8
THROUGH_CUT
 10
31.86927582534309
 20
29.29234200757661
 30
0.0
  0
VERTEX
  5
3A5
  8
THROUGH_CUT
 10
31.86927582534309
 20
29.32372200757661
 30
0.0
  0
VERTEX
  5
3A6
  8
THROUGH_CUT
 10
31.86411082534309
 20
29.35467400757661
 30
0.0
  0
VERTEX
  5
3A7
  8
THROUGH_CUT
 10
31.85392082534309
 20
29.38435400757661
 30
0.0
  0
VERTEX
  5
3A8
  8
THROUGH_CUT
 10
31.83898582534309
 20
29.41195200757662
 30
0.0
  0
VERTEX
  5
3A9
  8
THROUGH_CUT
 10
31.81971182534309
 20
29.43671500757661
 30
0.0
  0
VERTEX
  5
3AA
  8
THROUGH_CUT
 10
31.79662482534309
 20
29.45796800757661
 30
0.0
  0
VERTEX
  5
3AB
  8
THROUGH_CUT
 10
31.77035482534309
 20
29.47513200757661
 30
0.0
  0
VERTEX
  5
3AC
  8
THROUGH_CUT
 10
31.74161682534309
 20
29.48773700757661
 30
0.0
  0
VERTEX
  5
3AD
  8
THROUGH_CUT
 10
31.71119682534309
 20
29.49544000757661
 30
0.0
  0
VERTEX
  5
3AE
  8
THROUGH_CUT
 10
31.67992482534309
 20
29.49803200757661
 30
0.0
  0
VERTEX
  5
3AF
  8
THROUGH_CUT
 10
31.67992482534309
 20
31.11803200757662
 30
0.0
  0
VERTEX
  5
3B0
  8
THROUGH_CUT
 10
43.30492482534309
 20
31.11803188257662
 30
0.0
  0
VERTEX
  5
3B1
  8
THROUGH_CUT
 10
42.26187143474981
 20
30.07508514816989
 30
0.0
 42
0.4142135623730946
  0
VERTEX
  5
3B2
  8
THROUGH_CUT
 10
42.26187143474981
 20
28.66097836698334
 30
0.0
  0
VERTEX
  5
3B3
  8
THROUGH_CUT
 10
44.34797821593637
 20
26.57508514816989
 30
0.0
 42
-0.4142135623730944
  0
VERTEX
  5
3B4
  8
THROUGH_CUT
 10
44.34797821593637
 20
25.16097836698334
 30
0.0
  0
VERTEX
  5
3B5
  8
THROUGH_CUT
 10
43.30492482534309
 20
24.11803163257662
 30
0.0
  0
VERTEX
  5
3B6
  8
THROUGH_CUT
 10
9.786842066124612
 20
24.1180320075768
 30
0.0
 42
-0.4142133630070195
  0
VERTEX
  5
3B7
  8
THROUGH_CUT
 10
6.786842825343111
 20
27.11803224577714
 30
0.0
  0
VERTEX
  5
3B8
  8
THROUGH_CUT
 10
6.786842825343088
 20
30.11803200757662
 30
0.0
  0
VERTEX
  5
3B9
  8
THROUGH_CUT
 10
6.799153825343089
 20
30.27446600757661
 30
0.0
  0
VERTEX
  5
3BA
  8
THROUGH_CUT
 10
6.835785825343089
 20
30.4270490075766
 30
0.0
  0
VERTEX
  5
3BB
  8
THROUGH_CUT
 10
6.89583582534309
 20
30.57202200757661
 30
0.0
  0
VERTEX
  5
3BC
  8
THROUGH_CUT
 10
6.977825825343088
 20
30.7058170075766
 30
0.0
  0
VERTEX
  5
3BD
  8
THROUGH_CUT
 10
7.079735825343088
 20
30.82513900757661
 30
0.0
  0
VERTEX
  5
3BE
  8
THROUGH_CUT
 10
7.199056825343087
 20
30.9270490075766
 30
0.0
  0
VERTEX
  5
3BF
  8
THROUGH_CUT
 10
7.33285182534309
 20
31.00903800757661
 30
0.0
  0
VERTEX
  5
3C0
  8
THROUGH_CUT
 10
7.477825825343088
 20
31.06908800757661
 30
0.0
  0
VERTEX
  5
3C1
  8
THROUGH_CUT
 10
7.63040782534309
 20
31.10572000757661
 30
0.0
  0
VERTEX
  5
3C2
  8
THROUGH_CUT
 10
7.786842825343088
 20
31.11803200757662
 30
0.0
  0
VERTEX
  5
3C3
  8
THROUGH_CUT
 10
8.929924825343088
 20
31.11803200757662
 30
0.0
  0
VERTEX
  5
3C4
  8
THROUGH_CUT
 10
8.929924825343088
 20
29.49803200757661
 30
0.0
  0
VERTEX
  5
3C5
  8
THROUGH_CUT
 10
8.898651825343089
 20
29.49544000757661
 30
0.0
  0
VERTEX
  5
3C6
  8
THROUGH_CUT
 10
8.86823182534309
 20
29.48773700757661
 30
0.0
  0
VERTEX
  5
3C7
  8
THROUGH_CUT
 10
8.83949482534309
 20
29.47513200757661
 30
0.0
  0
VERTEX
  5
3C8
  8
THROUGH_CUT
 10
8.813223825343089
 20
29.45796800757661
 30
0.0
  0
VERTEX
  5
3C9
  8
THROUGH_CUT
 10
8.790136825343088
 20
29.43671500757661
 30
0.0
  0
VERTEX
  5
3CA
  8
THROUGH_CUT
 10
8.77086282534309
 20
29.41195200757662
 30
0.0
  0
VERTEX
  5
3CB
  8
THROUGH_CUT
 10
8.755927825343088
 20
29.38435400757661
 30
0.0
  0
VERTEX
  5
3CC
  8
THROUGH_CUT
 10
8.745737825343086
 20
29.35467400757661
 30
0.0
  0
VERTEX
  5
3CD
  8
THROUGH_CUT
 10
8.74057282534309
 20
29.32372200757661
 30
0.0
  0
VERTEX
  5
3CE
  8
THROUGH_CUT
 10
8.74057282534309
 20
29.29234200757661
 30
0.0
  0
VERTEX
  5
3CF
  8
THROUGH_CUT
 10
8.745737825343086
 20
29.26138900757661
 30
0.0
  0
VERTEX
  5
3D0
  8
THROUGH_CUT
 10
8.755927825343088
 20
29.23171000757661
 30
0.0
  0
VERTEX
  5
3D1
  8
THROUGH_CUT
 10
8.77086282534309
 20
29.20411200757661
 30
0.0
  0
VERTEX
  5
3D2
  8
THROUGH_CUT
 10
8.790136825343088
 20
29.17934800757661
 30
0.0
  0
VERTEX
  5
3D3
  8
THROUGH_CUT
 10
8.813223825343089
 20
29.15809500757661
 30
0.0
  0
VERTEX
  5
3D4
  8
THROUGH_CUT
 10
8.83949482534309
 20
29.14093200757661
 30
0.0
  0
VERTEX
  5
3D5
  8
THROUGH_CUT
 10
8.86823182534309
 20
29.12832600757661
 30
0.0
  0
VERTEX
  5
3D6
  8
THROUGH_CUT
 10
8.898651825343089
 20
29.12062300757661
 30
0.0
  0
VERTEX
  5
3D7
  8
THROUGH_CUT
 10
8.929924825343088
 20
29.11803200757662
 30
0.0
  0
VERTEX
  5
3D8
  8
THROUGH_CUT
 10
9.679924825343088
 20
29.11803200757662
 30
0.0
  0
VERTEX
  5
3D9
  8
THROUGH_CUT
 10
9.71119682534309
 20
29.12062300757661
 30
0.0
  0
VERTEX
  5
3DA
  8
THROUGH_CUT
 10
9.741616825343089
 20
29.12832600757661
 30
0.0
  0
VERTEX
  5
3DB
  8
THROUGH_CUT
 10
9.77035482534309
 20
29.14093200757661
 30
0.0
  0
VERTEX
  5
3DC
  8
THROUGH_CUT
 10
9.79662482534309
 20
29.15809500757661
 30
0.0
  0
VERTEX
  5
3DD
  8
THROUGH_CUT
 10
9.819711825343086
 20
29.17934800757661
 30
0.0
  0
VERTEX
  5
3DE
  8
THROUGH_CUT
 10
9.838985825343089
 20
29.20411200757661
 30
0.0
  0
VERTEX
  5
3DF
  8
THROUGH_CUT
 10
9.85392082534309
 20
29.23171000757661
 30
0.0
  0
VERTEX
  5
3E0
  8
THROUGH_CUT
 10
9.864110825343088
 20
29.26138900757661
 30
0.0
  0
VERTEX
  5
3E1
  8
THROUGH_CUT
 10
9.86927582534309
 20
29.29234200757661
 30
0.0
  0
VERTEX
  5
3E2
  8
THROUGH_CUT
 10
9.86927582534309
 20
29.32372200757661
 30
0.0
  0
VERTEX
  5
3E3
  8
THROUGH_CUT
 10
9.864110825343088
 20
29.35467400757661
 30
0.0
  0
VERTEX
  5
3E4
  8
THROUGH_CUT
 10
9.85392082534309
 20
29.38435400757661
 30
0.0
  0
VERTEX
  5
3E5
  8
THROUGH_CUT
 10
9.838985825343089
 20
29.41195200757662
 30
0.0
  0
VERTEX
  5
3E6
  8
THROUGH_CUT
 10
9.819711825343086
 20
29.43671500757661
 30
0.0
  0
VERTEX
  5
3E7
  8
THROUGH_CUT
 10
9.79662482534309
 20
29.45796800757661
 30
0.0
  0
VERTEX
  5
3E8
  8
THROUGH_CUT
 10
9.77035482534309
 20
29.47513200757661
 30
0.0
  0
VERTEX
  5
3E9
  8
THROUGH_CUT
 10
9.741616825343089
 20
29.48773700757661
 30
0.0
  0
VERTEX
  5
3EA
  8
THROUGH_CUT
 10
9.71119682534309
 20
29.49544000757661
 30
0.0
  0
VERTEX
  5
3EB
  8
THROUGH_CUT
 10
9.679924825343088
 20
29.49803200757661
 30
0.0
  0
VERTEX
  5
3EC
  8
THROUGH_CUT
 10
9.679924825343088
 20
31.11803200757662
 30
0.0
  0
SEQEND
  5
3ED
  8
THROUGH_CUT
  0
POLYLINE
  5
63
  8
THROUGH_CUT
 66
     1
 10
0.0
 20
0.0
 30
0.0
 70
     1
  0
VERTEX
  5
3EE
  8
THROUGH_CUT
 10
61.64463459947719
 20
23.36803150757661
 30
0.0
  0
VERTEX
  5
3EF
  8
THROUGH_CUT
 10
61.64463459947719
 20
21.74803150757661
 30
0.0
  0
VERTEX
  5
3F0
  8
THROUGH_CUT
 10
61.61336259947719
 20
21.74543950757661
 30
0.0
  0
VERTEX
  5
3F1
  8
THROUGH_CUT
 10
61.58294259947717
 20
21.73773650757661
 30
0.0
  0
VERTEX
  5
3F2
  8
THROUGH_CUT
 10
61.55420459947717
 20
21.72513150757661
 30
0.0
  0
VERTEX
  5
3F3
  8
THROUGH_CUT
 10
61.52793459947719
 20
21.70796750757661
 30
0.0
  0
VERTEX
  5
3F4
  8
THROUGH_CUT
 10
61.50484759947718
 20
21.68671450757661
 30
0.0
  0
VERTEX
  5
3F5
  8
THROUGH_CUT
 10
61.48557359947719
 20
21.66195150757661
 30
0.0
  0
VERTEX
  5
3F6
  8
THROUGH_CUT
 10
61.47063859947718
 20
21.63435350757661
 30
0.0
  0
VERTEX
  5
3F7
  8
THROUGH_CUT
 10
61.46044859947718
 20
21.60467350757661
 30
0.0
  0
VERTEX
  5
3F8
  8
THROUGH_CUT
 10
61.45528359947718
 20
21.57372150757661
 30
0.0
  0
VERTEX
  5
3F9
  8
THROUGH_CUT
 10
61.45528359947718
 20
21.54234150757661
 30
0.0
  0
VERTEX
  5
3FA
  8
THROUGH_CUT
 10
61.46044859947718
 20
21.51138850757661
 30
0.0
  0
VERTEX
  5
3FB
  8
THROUGH_CUT
 10
61.47063859947718
 20
21.48170950757661
 30
0.0
  0
VERTEX
  5
3FC
  8
THROUGH_CUT
 10
61.48557359947719
 20
21.45411150757661
 30
0.0
  0
VERTEX
  5
3FD
  8
THROUGH_CUT
 10
61.50484759947718
 20
21.42934750757661
 30
0.0
  0
VERTEX
  5
3FE
  8
THROUGH_CUT
 10
61.52793459947719
 20
21.40809450757661
 30
0.0
  0
VERTEX
  5
3FF
  8
THROUGH_CUT
 10
61.55420459947717
 20
21.39093150757661
 30
0.0
  0
VERTEX
  5
400
  8
THROUGH_CUT
 10
61.58294259947717
 20
21.37832550757661
 30
0.0
  0
VERTEX
  5
401
  8
THROUGH_CUT
 10
61.61336259947719
 20
21.37062250757661
 30
0.0
  0
VERTEX
  5
402
  8
THROUGH_CUT
 10
61.64463459947719
 20
21.36803150757661
 30
0.0
  0
VERTEX
  5
403
  8
THROUGH_CUT
 10
62.39463459947719
 20
21.36803150757661
 30
0.0
  0
VERTEX
  5
404
  8
THROUGH_CUT
 10
62.42590759947719
 20
21.37062250757661
 30
0.0
  0
VERTEX
  5
405
  8
THROUGH_CUT
 10
62.45632759947719
 20
21.37832550757661
 30
0.0
  0
VERTEX
  5
406
  8
THROUGH_CUT
 10
62.48506459947719
 20
21.39093150757661
 30
0.0
  0
VERTEX
  5
407
  8
THROUGH_CUT
 10
62.51133559947717
 20
21.40809450757661
 30
0.0
  0
VERTEX
  5
408
  8
THROUGH_CUT
 10
62.53442259947718
 20
21.42934750757661
 30
0.0
  0
VERTEX
  5
409
  8
THROUGH_CUT
 10
62.55369659947717
 20
21.45411150757661
 30
0.0
  0
VERTEX
  5
40A
  8
THROUGH_CUT
 10
62.56863159947718
 20
21.48170950757661
 30
0.0
  0
VERTEX
  5
40B
  8
THROUGH_CUT
 10
62.57882159947717
 20
21.51138850757661
 30
0.0
  0
VERTEX
  5
40C
  8
THROUGH_CUT
 10
62.58398659947718
 20
21.54234150757661
 30
0.0
  0
VERTEX
  5
40D
  8
THROUGH_CUT
 10
62.58398659947718
 20
21.57372150757661
 30
0.0
  0
VERTEX
  5
40E
  8
THROUGH_CUT
 10
62.57882159947717
 20
21.60467350757661
 30
0.0
  0
VERTEX
  5
40F
  8
THROUGH_CUT
 10
62.56863159947718
 20
21.63435350757661
 30
0.0
  0
VERTEX
  5
410
  8
THROUGH_CUT
 10
62.55369659947717
 20
21.66195150757661
 30
0.0
  0
VERTEX
  5
411
  8
THROUGH_CUT
 10
62.53442259947718
 20
21.68671450757661
 30
0.0
  0
VERTEX
  5
412
  8
THROUGH_CUT
 10
62.51133559947717
 20
21.70796750757661
 30
0.0
  0
VERTEX
  5
413
  8
THROUGH_CUT
 10
62.48506459947719
 20
21.72513150757661
 30
0.0
  0
VERTEX
  5
414
  8
THROUGH_CUT
 10
62.45632759947719
 20
21.73773650757661
 30
0.0
  0
VERTEX
  5
415
  8
THROUGH_CUT
 10
62.42590759947719
 20
21.74543950757661
 30
0.0
  0
VERTEX
  5
416
  8
THROUGH_CUT
 10
62.39463459947719
 20
21.74803150757661
 30
0.0
  0
VERTEX
  5
417
  8
THROUGH_CUT
 10
62.39463459947719
 20
23.36803150757661
 30
0.0
  0
VERTEX
  5
418
  8
THROUGH_CUT
 10
83.64463459947719
 20
23.36803150757661
 30
0.0
  0
VERTEX
  5
419
  8
THROUGH_CUT
 10
83.64463459947719
 20
21.74803150757661
 30
0.0
  0
VERTEX
  5
41A
  8
THROUGH_CUT
 10
83.61336259947718
 20
21.74543950757661
 30
0.0
  0
VERTEX
  5
41B
  8
THROUGH_CUT
 10
83.58294259947718
 20
21.73773650757661
 30
0.0
  0
VERTEX
  5
41C
  8
THROUGH_CUT
 10
83.55420459947717
 20
21.72513150757661
 30
0.0
  0
VERTEX
  5
41D
  8
THROUGH_CUT
 10
83.52793459947719
 20
21.70796750757661
 30
0.0
  0
VERTEX
  5
41E
  8
THROUGH_CUT
 10
83.50484759947719
 20
21.68671450757661
 30
0.0
  0
VERTEX
  5
41F
  8
THROUGH_CUT
 10
83.48557359947719
 20
21.66195150757661
 30
0.0
  0
VERTEX
  5
420
  8
THROUGH_CUT
 10
83.47063859947718
 20
21.63435350757661
 30
0.0
  0
VERTEX
  5
421
  8
THROUGH_CUT
 10
83.46044859947719
 20
21.60467350757661
 30
0.0
  0
VERTEX
  5
422
  8
THROUGH_CUT
 10
83.45528359947718
 20
21.57372150757661
 30
0.0
  0
VERTEX
  5
423
  8
THROUGH_CUT
 10
83.45528359947718
 20
21.54234150757661
 30
0.0
  0
VERTEX
  5
424
  8
THROUGH_CUT
 10
83.46044859947719
 20
21.51138850757661
 30
0.0
  0
VERTEX
  5
425
  8
THROUGH_CUT
 10
83.47063859947718
 20
21.48170950757661
 30
0.0
  0
VERTEX
  5
426
  8
THROUGH_CUT
 10
83.48557359947719
 20
21.45411150757661
 30
0.0
  0
VERTEX
  5
427
  8
THROUGH_CUT
 10
83.50484759947719
 20
21.42934750757661
 30
0.0
  0
VERTEX
  5
428
  8
THROUGH_CUT
 10
83.52793459947719
 20
21.40809450757661
 30
0.0
  0
VERTEX
  5
429
  8
THROUGH_CUT
 10
83.55420459947717
 20
21.39093150757661
 30
0.0
  0
VERTEX
  5
42A
  8
THROUGH_CUT
 10
83.58294259947718
 20
21.37832550757661
 30
0.0
  0
VERTEX
  5
42B
  8
THROUGH_CUT
 10
83.61336259947718
 20
21.37062250757661
 30
0.0
  0
VERTEX
  5
42C
  8
THROUGH_CUT
 10
83.64463459947719
 20
21.36803150757661
 30
0.0
  0
VERTEX
  5
42D
  8
THROUGH_CUT
 10
84.39463459947719
 20
21.36803150757661
 30
0.0
  0
VERTEX
  5
42E
  8
THROUGH_CUT
 10
84.42590759947718
 20
21.37062250757661
 30
0.0
  0
VERTEX
  5
42F
  8
THROUGH_CUT
 10
84.45632759947719
 20
21.37832550757661
 30
0.0
  0
VERTEX
  5
430
  8
THROUGH_CUT
 10
84.48506459947718
 20
21.39093150757661
 30
0.0
  0
VERTEX
  5
431
  8
THROUGH_CUT
 10
84.51133559947718
 20
21.40809450757661
 30
0.0
  0
VERTEX
  5
432
  8
THROUGH_CUT
 10
84.53442259947718
 20
21.42934750757661
 30
0.0
  0
VERTEX
  5
433
  8
THROUGH_CUT
 10
84.55369659947718
 20
21.45411150757661
 30
0.0
  0
VERTEX
  5
434
  8
THROUGH_CUT
 10
84.56863159947719
 20
21.48170950757661
 30
0.0
  0
VERTEX
  5
435
  8
THROUGH_CUT
 10
84.57882159947718
 20
21.51138850757661
 30
0.0
  0
VERTEX
  5
436
  8
THROUGH_CUT
 10
84.58398659947719
 20
21.54234150757661
 30
0.0
  0
VERTEX
  5
437
  8
THROUGH_CUT
 10
84.58398659947719
 20
21.57372150757661
 30
0.0
  0
VERTEX
  5
438
  8
THROUGH_CUT
 10
84.57882159947718
 20
21.60467350757661
 30
0.0
  0
VERTEX
  5
439
  8
THROUGH_CUT
 10
84.56863159947719
 20
21.63435350757661
 30
0.0
  0
VERTEX
  5
43A
  8
THROUGH_CUT
 10
84.55369659947718
 20
21.66195150757661
 30
0.0
  0
VERTEX
  5
43B
  8
THROUGH_CUT
 10
84.53442259947718
 20
21.68671450757661
 30
0.0
  0
VERTEX
  5
43C
  8
THROUGH_CUT
 10
84.51133559947718
 20
21.70796750757661
 30
0.0
  0
VERTEX
  5
43D
  8
THROUGH_CUT
 10
84.48506459947718
 20
21.72513150757661
 30
0.0
  0
VERTEX
  5
43E
  8
THROUGH_CUT
 10
84.45632759947719
 20
21.73773650757661
 30
0.0
  0
VERTEX
  5
43F
  8
THROUGH_CUT
 10
84.42590759947718
 20
21.74543950757661
 30
0.0
  0
VERTEX
  5
440
  8
THROUGH_CUT
 10
84.39463459947719
 20
21.74803150757661
 30
0.0
  0
VERTEX
  5
441
  8
THROUGH_CUT
 10
84.39463459947719
 20
23.36803150757661
 30
0.0
  0
VERTEX
  5
442
  8
THROUGH_CUT
 10
85.53771659947719
 20
23.36803150757661
 30
0.0
  0
VERTEX
  5
443
  8
THROUGH_CUT
 10
85.69415159947718
 20
23.35571950757661
 30
0.0
  0
VERTEX
  5
444
  8
THROUGH_CUT
 10
85.84673359947719
 20
23.31908750757661
 30
0.0
  0
VERTEX
  5
445
  8
THROUGH_CUT
 10
85.9917075994772
 20
23.25903750757661
 30
0.0
  0
VERTEX
  5
446
  8
THROUGH_CUT
 10
86.12550259947719
 20
23.1770485075766
 30
0.0
  0
VERTEX
  5
447
  8
THROUGH_CUT
 10
86.24482359947719
 20
23.07513850757661
 30
0.0
  0
VERTEX
  5
448
  8
THROUGH_CUT
 10
86.34673359947719
 20
22.9558165075766
 30
0.0
  0
VERTEX
  5
449
  8
THROUGH_CUT
 10
86.4287235994772
 20
22.82202150757661
 30
0.0
  0
VERTEX
  5
44A
  8
THROUGH_CUT
 10
86.48877359947718
 20
22.6770485075766
 30
0.0
  0
VERTEX
  5
44B
  8
THROUGH_CUT
 10
86.52540559947718
 20
22.52446550757661
 30
0.0
  0
VERTEX
  5
44C
  8
THROUGH_CUT
 10
86.53771659947719
 20
22.36803150757661
 30
0.0
  0
VERTEX
  5
44D
  8
THROUGH_CUT
 10
86.53771659947716
 20
19.36803174577713
 30
0.0
 42
-0.4142133630070199
  0
VERTEX
  5
44E
  8
THROUGH_CUT
 10
83.53771735869566
 20
16.3680315075768
 30
0.0
  0
VERTEX
  5
44F
  8
THROUGH_CUT
 10
50.01963459947719
 20
16.36803113257661
 30
0.0
  0
VERTEX
  5
450
  8
THROUGH_CUT
 10
51.06268799007046
 20
17.41097786698334
 30
0.0
 42
0.4142135623730944
  0
VERTEX
  5
451
  8
THROUGH_CUT
 10
51.06268799007046
 20
18.82508464816988
 30
0.0
  0
VERTEX
  5
452
  8
THROUGH_CUT
 10
48.97658120888391
 20
20.91097786698334
 30
0.0
 42
-0.4142135623730946
  0
VERTEX
  5
453
  8
THROUGH_CUT
 10
48.97658120888391
 20
22.32508464816988
 30
0.0
  0
VERTEX
  5
454
  8
THROUGH_CUT
 10
50.01963459947719
 20
23.3680313825766
 30
0.0
  0
SEQEND
  5
455
  8
THROUGH_CUT
  0
POLYLINE
  5
64
  8
THROUGH_CUT
 66
     1
 10
0.0
 20
0.0
 30
0.0
 70
     1
  0
VERTEX
  5
456
  8
THROUGH_CUT
 10
61.64463459947719
 20
31.12709957389941
 30
0.0
  0
VERTEX
  5
457
  8
THROUGH_CUT
 10
61.64463459947719
 20
29.50709957389941
 30
0.0
  0
VERTEX
  5
458
  8
THROUGH_CUT
 10
61.61336259947719
 20
29.50450757389941
 30
0.0
  0
VERTEX
  5
459
  8
THROUGH_CUT
 10
61.58294259947717
 20
29.49680457389941
 30
0.0
  0
VERTEX
  5
45A
  8
THROUGH_CUT
 10
61.55420459947717
 20
29.48419957389941
 30
0.0
  0
VERTEX
  5
45B
  8
THROUGH_CUT
 10
61.52793459947719
 20
29.46703557389941
 30
0.0
  0
VERTEX
  5
45C
  8
THROUGH_CUT
 10
61.50484759947718
 20
29.44578257389941
 30
0.0
  0
VERTEX
  5
45D
  8
THROUGH_CUT
 10
61.48557359947719
 20
29.42101957389941
 30
0.0
  0
VERTEX
  5
45E
  8
THROUGH_CUT
 10
61.47063859947718
 20
29.39342157389941
 30
0.0
  0
VERTEX
  5
45F
  8
THROUGH_CUT
 10
61.46044859947718
 20
29.36374157389941
 30
0.0
  0
VERTEX
  5
460
  8
THROUGH_CUT
 10
61.45528359947718
 20
29.33278957389941
 30
0.0
  0
VERTEX
  5
461
  8
THROUGH_CUT
 10
61.45528359947718
 20
29.30140957389941
 30
0.0
  0
VERTEX
  5
462
  8
THROUGH_CUT
 10
61.46044859947718
 20
29.27045657389941
 30
0.0
  0
VERTEX
  5
463
  8
THROUGH_CUT
 10
61.47063859947718
 20
29.24077757389941
 30
0.0
  0
VERTEX
  5
464
  8
THROUGH_CUT
 10
61.48557359947719
 20
29.21317957389941
 30
0.0
  0
VERTEX
  5
465
  8
THROUGH_CUT
 10
61.50484759947718
 20
29.18841557389941
 30
0.0
  0
VERTEX
  5
466
  8
THROUGH_CUT
 10
61.52793459947719
 20
29.16716257389941
 30
0.0
  0
VERTEX
  5
467
  8
THROUGH_CUT
 10
61.55420459947717
 20
29.14999957389941
 30
0.0
  0
VERTEX
  5
468
  8
THROUGH_CUT
 10
61.58294259947717
 20
29.13739357389942
 30
0.0
  0
VERTEX
  5
469
  8
THROUGH_CUT
 10
61.61336259947719
 20
29.12969057389941
 30
0.0
  0
VERTEX
  5
46A
  8
THROUGH_CUT
 10
61.64463459947719
 20
29.12709957389941
 30
0.0
  0
VERTEX
  5
46B
  8
THROUGH_CUT
 10
62.39463459947719
 20
29.12709957389941
 30
0.0
  0
VERTEX
  5
46C
  8
THROUGH_CUT
 10
62.42590759947719
 20
29.12969057389941
 30
0.0
  0
VERTEX
  5
46D
  8
THROUGH_CUT
 10
62.45632759947719
 20
29.13739357389942
 30
0.0
  0
VERTEX
  5
46E
  8
THROUGH_CUT
 10
62.48506459947719
 20
29.14999957389941
 30
0.0
  0
VERTEX
  5
46F
  8
THROUGH_CUT
 10
62.51133559947717
 20
29.16716257389941
 30
0.0
  0
VERTEX
  5
470
  8
THROUGH_CUT
 10
62.53442259947718
 20
29.18841557389941
 30
0.0
  0
VERTEX
  5
471
  8
THROUGH_CUT
 10
62.55369659947717
 20
29.21317957389941
 30
0.0
  0
VERTEX
  5
472
  8
THROUGH_CUT
 10
62.56863159947718
 20
29.24077757389941
 30
0.0
  0
VERTEX
  5
473
  8
THROUGH_CUT
 10
62.57882159947717
 20
29.27045657389941
 30
0.0
  0
VERTEX
  5
474
  8
THROUGH_CUT
 10
62.58398659947718
 20
29.30140957389941
 30
0.0
  0
VERTEX
  5
475
  8
THROUGH_CUT
 10
62.58398659947718
 20
29.33278957389941
 30
0.0
  0
VERTEX
  5
476
  8
THROUGH_CUT
 10
62.57882159947717
 20
29.36374157389941
 30
0.0
  0
VERTEX
  5
477
  8
THROUGH_CUT
 10
62.56863159947718
 20
29.39342157389941
 30
0.0
  0
VERTEX
  5
478
  8
THROUGH_CUT
 10
62.55369659947717
 20
29.42101957389941
 30
0.0
  0
VERTEX
  5
479
  8
THROUGH_CUT
 10
62.53442259947718
 20
29.44578257389941
 30
0.0
  0
VERTEX
  5
47A
  8
THROUGH_CUT
 10
62.51133559947717
 20
29.46703557389941
 30
0.0
  0
VERTEX
  5
47B
  8
THROUGH_CUT
 10
62.48506459947719
 20
29.48419957389941
 30
0.0
  0
VERTEX
  5
47C
  8
THROUGH_CUT
 10
62.45632759947719
 20
29.49680457389941
 30
0.0
  0
VERTEX
  5
47D
  8
THROUGH_CUT
 10
62.42590759947719
 20
29.50450757389941
 30
0.0
  0
VERTEX
  5
47E
  8
THROUGH_CUT
 10
62.39463459947719
 20
29.50709957389941
 30
0.0
  0
VERTEX
  5
47F
  8
THROUGH_CUT
 10
62.39463459947719
 20
31.12709957389941
 30
0.0
  0
VERTEX
  5
480
  8
THROUGH_CUT
 10
83.64463459947719
 20
31.12709957389941
 30
0.0
  0
VERTEX
  5
481
  8
THROUGH_CUT
 10
83.64463459947719
 20
29.50709957389941
 30
0.0
  0
VERTEX
  5
482
  8
THROUGH_CUT
 10
83.61336259947718
 20
29.50450757389941
 30
0.0
  0
VERTEX
  5
483
  8
THROUGH_CUT
 10
83.58294259947718
 20
29.49680457389941
 30
0.0
  0
VERTEX
  5
484
  8
THROUGH_CUT
 10
83.55420459947717
 20
29.48419957389941
 30
0.0
  0
VERTEX
  5
485
  8
THROUGH_CUT
 10
83.52793459947719
 20
29.46703557389941
 30
0.0
  0
VERTEX
  5
486
  8
THROUGH_CUT
 10
83.50484759947719
 20
29.44578257389941
 30
0.0
  0
VERTEX
  5
487
  8
THROUGH_CUT
 10
83.48557359947719
 20
29.42101957389941
 30
0.0
  0
VERTEX
  5
488
  8
THROUGH_CUT
 10
83.47063859947718
 20
29.39342157389941
 30
0.0
  0
VERTEX
  5
489
  8
THROUGH_CUT
 10
83.46044859947719
 20
29.36374157389941
 30
0.0
  0
VERTEX
  5
48A
  8
THROUGH_CUT
 10
83.45528359947718
 20
29.33278957389941
 30
0.0
  0
VERTEX
  5
48B
  8
THROUGH_CUT
 10
83.45528359947718
 20
29.30140957389941
 30
0.0
  0
VERTEX
  5
48C
  8
THROUGH_CUT
 10
83.46044859947719
 20
29.27045657389941
 30
0.0
  0
VERTEX
  5
48D
  8
THROUGH_CUT
 10
83.47063859947718
 20
29.24077757389941
 30
0.0
  0
VERTEX
  5
48E
  8
THROUGH_CUT
 10
83.48557359947719
 20
29.21317957389941
 30
0.0
  0
VERTEX
  5
48F
  8
THROUGH_CUT
 10
83.50484759947719
 20
29.18841557389941
 30
0.0
  0
VERTEX
  5
490
  8
THROUGH_CUT
 10
83.52793459947719
 20
29.16716257389941
 30
0.0
  0
VERTEX
  5
491
  8
THROUGH_CUT
 10
83.55420459947717
 20
29.14999957389941
 30
0.0
  0
VERTEX
  5
492
  8
THROUGH_CUT
 10
83.58294259947718
 20
29.13739357389942
 30
0.0
  0
VERTEX
  5
493
  8
THROUGH_CUT
 10
83.61336259947718
 20
29.12969057389941
 30
0.0
  0
VERTEX
  5
494
  8
THROUGH_CUT
 10
83.64463459947719
 20
29.12709957389941
 30
0.0
  0
VERTEX
  5
495
  8
THROUGH_CUT
 10
84.39463459947719
 20
29.12709957389941
 30
0.0
  0
VERTEX
  5
496
  8
THROUGH_CUT
 10
84.42590759947718
 20
29.12969057389941
 30
0.0
  0
VERTEX
  5
497
  8
THROUGH_CUT
 10
84.45632759947719
 20
29.13739357389942
 30
0.0
  0
VERTEX
  5
498
  8
THROUGH_CUT
 10
84.48506459947718
 20
29.14999957389941
 30
0.0
  0
VERTEX
  5
499
  8
THROUGH_CUT
 10
84.51133559947718
 20
29.16716257389941
 30
0.0
  0
VERTEX
  5
49A
  8
THROUGH_CUT
 10
84.53442259947718
 20
29.18841557389941
 30
0.0
  0
VERTEX
  5
49B
  8
THROUGH_CUT
 10
84.55369659947718
 20
29.21317957389941
 30
0.0
  0
VERTEX
  5
49C
  8
THROUGH_CUT
 10
84.56863159947719
 20
29.24077757389941
 30
0.0
  0
VERTEX
  5
49D
  8
THROUGH_CUT
 10
84.57882159947718
 20
29.27045657389941
 30
0.0
  0
VERTEX
  5
49E
  8
THROUGH_CUT
 10
84.58398659947719
 20
29.30140957389941
 30
0.0
  0
VERTEX
  5
49F
  8
THROUGH_CUT
 10
84.58398659947719
 20
29.33278957389941
 30
0.0
  0
VERTEX
  5
4A0
  8
THROUGH_CUT
 10
84.57882159947718
 20
29.36374157389941
 30
0.0
  0
VERTEX
  5
4A1
  8
THROUGH_CUT
 10
84.56863159947719
 20
29.39342157389941
 30
0.0
  0
VERTEX
  5
4A2
  8
THROUGH_CUT
 10
84.55369659947718
 20
29.42101957389941
 30
0.0
  0
VERTEX
  5
4A3
  8
THROUGH_CUT
 10
84.53442259947718
 20
29.44578257389941
 30
0.0
  0
VERTEX
  5
4A4
  8
THROUGH_CUT
 10
84.51133559947718
 20
29.46703557389941
 30
0.0
  0
VERTEX
  5
4A5
  8
THROUGH_CUT
 10
84.48506459947718
 20
29.48419957389941
 30
0.0
  0
VERTEX
  5
4A6
  8
THROUGH_CUT
 10
84.45632759947719
 20
29.49680457389941
 30
0.0
  0
VERTEX
  5
4A7
  8
THROUGH_CUT
 10
84.42590759947718
 20
29.50450757389941
 30
0.0
  0
VERTEX
  5
4A8
  8
THROUGH_CUT
 10
84.39463459947719
 20
29.50709957389941
 30
0.0
  0
VERTEX
  5
4A9
  8
THROUGH_CUT
 10
84.39463459947719
 20
31.12709957389941
 30
0.0
  0
VERTEX
  5
4AA
  8
THROUGH_CUT
 10
85.53771659947719
 20
31.12709957389941
 30
0.0
  0
VERTEX
  5
4AB
  8
THROUGH_CUT
 10
85.69415159947718
 20
31.11478757389941
 30
0.0
  0
VERTEX
  5
4AC
  8
THROUGH_CUT
 10
85.84673359947719
 20
31.07815557389941
 30
0.0
  0
VERTEX
  5
4AD
  8
THROUGH_CUT
 10
85.9917075994772
 20
31.01810557389941
 30
0.0
  0
VERTEX
  5
4AE
  8
THROUGH_CUT
 10
86.12550259947719
 20
30.9361165738994
 30
0.0
  0
VERTEX
  5
4AF
  8
THROUGH_CUT
 10
86.24482359947719
 20
30.83420657389941
 30
0.0
  0
VERTEX
  5
4B0
  8
THROUGH_CUT
 10
86.34673359947719
 20
30.7148845738994
 30
0.0
  0
VERTEX
  5
4B1
  8
THROUGH_CUT
 10
86.4287235994772
 20
30.58108957389941
 30
0.0
  0
VERTEX
  5
4B2
  8
THROUGH_CUT
 10
86.48877359947718
 20
30.4361165738994
 30
0.0
  0
VERTEX
  5
4B3
  8
THROUGH_CUT
 10
86.52540559947718
 20
30.28353357389941
 30
0.0
  0
VERTEX
  5
4B4
  8
THROUGH_CUT
 10
86.53771659947719
 20
30.12709957389941
 30
0.0
  0
VERTEX
  5
4B5
  8
THROUGH_CUT
 10
86.53771659947716
 20
27.12709981209993
 30
0.0
 42
-0.4142133630070199
  0
VERTEX
  5
4B6
  8
THROUGH_CUT
 10
83.53771735869566
 20
24.1270995738996
 30
0.0
  0
VERTEX
  5
4B7
  8
THROUGH_CUT
 10
50.01963459947719
 20
24.12709919889942
 30
0.0
  0
VERTEX
  5
4B8
  8
THROUGH_CUT
 10
51.06268799007046
 20
25.17004593330615
 30
0.0
 42
0.4142135623730944
  0
VERTEX
  5
4B9
  8
THROUGH_CUT
 10
51.06268799007046
 20
26.5841527144927
 30
0.0
  0
VERTEX
  5
4BA
  8
THROUGH_CUT
 10
48.97658120888391
 20
28.67004593330615
 30
0.0
 42
-0.4142135623730946
  0
VERTEX
  5
4BB
  8
THROUGH_CUT
 10
48.97658120888391
 20
30.0841527144927
 30
0.0
  0
VERTEX
  5
4BC
  8
THROUGH_CUT
 10
50.01963459947719
 20
31.12709944889941
 30
0.0
  0
SEQEND
  5
4BD
  8
THROUGH_CUT
  0
POLYLINE
  5
66
  8
MARKS_ON_FACE
 66
     1
 10
0.0
 20
0.0
 30
0.0
 70
     1
  0
VERTEX
  5
4BE
  8
MARKS_ON_FACE
 10
16.35915068035804
 20
13.05940685219737
 30
0.0
 42
-0.4142135623730951
  0
VERTEX
  5
4BF
  8
MARKS_ON_FACE
 10
17.10915068035804
 20
12.30940685219737
 30
0.0
 42
-0.4142135623730951
  0
VERTEX
  5
4C0
  8
MARKS_ON_FACE
 10
16.35915068035804
 20
11.55940685219737
 30
0.0
 42
-0.4142135623730951
  0
VERTEX
  5
4C1
  8
MARKS_ON_FACE
 10
15.60915068035804
 20
12.30940685219737
 30
0.0
 42
-0.4142135623730951
  0
SEQEND
  5
4C2
  8
MARKS_ON_FACE
  0
POLYLINE
  5
67
  8
MARKS_ON_FACE
 66
     1
 10
0.0
 20
0.0
 30
0.0
 70
     1
  0
VERTEX
  5
4C3
  8
MARKS_ON_FACE
 10
12.35915068035804
 20
13.05940685219737
 30
0.0
 42
-0.4142135623730951
  0
VERTEX
  5
4C4
  8
MARKS_ON_FACE
 10
13.10915068035804
 20
12.30940685219737
 30
0.0
 42
-0.4142135623730951
  0
VERTEX
  5
4C5
  8
MARKS_ON_FACE
 10
12.35915068035804
 20
11.55940685219737
 30
0.0
 42
-0.4142135623730951
  0
VERTEX
  5
4C6
  8
MARKS_ON_FACE
 10
11.60915068035804
 20
12.30940685219737
 30
0.0
 42
-0.4142135623730951
  0
SEQEND
  5
4C7
  8
MARKS_ON_FACE
  0
POLYLINE
  5
68
  8
MARKS_ON_FACE
 66
     1
 10
0.0
 20
0.0
 30
0.0
 70
     1
  0
VERTEX
  5
4C8
  8
MARKS_ON_FACE
 10
84.87723268035803
 20
5.30940385219737
 30
0.0
 42
0.4142135623730951
  0
VERTEX
  5
4C9
  8
MARKS_ON_FACE
 10
84.12723268035803
 20
4.55940385219737
 30
0.0
 42
0.4142135623730951
  0
VERTEX
  5
4CA
  8
MARKS_ON_FACE
 10
84.87723268035803
 20
3.80940385219737
 30
0.0
 42
0.4142135623730951
  0
VERTEX
  5
4CB
  8
MARKS_ON_FACE
 10
85.62723268035803
 20
4.55940385219737
 30
0.0
 42
0.4142135623730951
  0
SEQEND
  5
4CC
  8
MARKS_ON_FACE
  0
POLYLINE
  5
69
  8
MARKS_ON_FACE
 66
     1
 10
0.0
 20
0.0
 30
0.0
 70
     1
  0
VERTEX
  5
4CD
  8
MARKS_ON_FACE
 10
37.32307697641375
 20
35.60896394125381
 30
0.0
 42
0.4142135623730951
  0
VERTEX
  5
4CE
  8
MARKS_ON_FACE
 10
36.57307697641375
 20
34.85896394125381
 30
0.0
 42
0.4142135623730951
  0
VERTEX
  5
4CF
  8
MARKS_ON_FACE
 10
37.32307697641375
 20
34.10896394125381
 30
0.0
 42
0.4142135623730951
  0
VERTEX
  5
4D0
  8
MARKS_ON_FACE
 10
38.07307697641375
 20
34.85896394125381
 30
0.0
 42
0.4142135623730951
  0
SEQEND
  5
4D1
  8
MARKS_ON_FACE
  0
POLYLINE
  5
6A
  8
MARKS_ON_FACE
 66
     1
 10
0.0
 20
0.0
 30
0.0
 70
     1
  0
VERTEX
  5
4D2
  8
MARKS_ON_FACE
 10
54.00148244840653
 20
35.61803150757661
 30
0.0
 42
-0.4142135623730951
  0
VERTEX
  5
4D3
  8
MARKS_ON_FACE
 10
54.75148244840653
 20
34.86803150757661
 30
0.0
 42
-0.4142135623730951
  0
VERTEX
  5
4D4
  8
MARKS_ON_FACE
 10
54.00148244840653
 20
34.11803150757661
 30
0.0
 42
-0.4142135623730951
  0
VERTEX
  5
4D5
  8
MARKS_ON_FACE
 10
53.25148244840653
 20
34.86803150757661
 30
0.0
 42
-0.4142135623730951
  0
SEQEND
  5
4D6
  8
MARKS_ON_FACE
  0
POLYLINE
  5
6B
  8
MARKS_ON_FACE
 66
     1
 10
0.0
 20
0.0
 30
0.0
 70
     1
  0
VERTEX
  5
4D7
  8
MARKS_ON_FACE
 10
37.32307697641375
 20
43.36803200757662
 30
0.0
 42
0.4142135623730951
  0
VERTEX
  5
4D8
  8
MARKS_ON_FACE
 10
36.57307697641375
 20
42.61803200757662
 30
0.0
 42
0.4142135623730951
  0
VERTEX
  5
4D9
  8
MARKS_ON_FACE
 10
37.32307697641375
 20
41.86803200757662
 30
0.0
 42
0.4142135623730951
  0
VERTEX
  5
4DA
  8
MARKS_ON_FACE
 10
38.07307697641375
 20
42.61803200757662
 30
0.0
 42
0.4142135623730951
  0
SEQEND
  5
4DB
  8
MARKS_ON_FACE
  0
POLYLINE
  5
6C
  8
MARKS_ON_FACE
 66
     1
 10
0.0
 20
0.0
 30
0.0
 70
     1
  0
VERTEX
  5
4DC
  8
MARKS_ON_FACE
 10
54.00148244840653
 20
43.37709957389941
 30
0.0
 42
-0.4142135623730951
  0
VERTEX
  5
4DD
  8
MARKS_ON_FACE
 10
54.75148244840653
 20
42.62709957389941
 30
0.0
 42
-0.4142135623730951
  0
VERTEX
  5
4DE
  8
MARKS_ON_FACE
 10
54.00148244840653
 20
41.87709957389941
 30
0.0
 42
-0.4142135623730951
  0
VERTEX
  5
4DF
  8
MARKS_ON_FACE
 10
53.25148244840653
 20
42.62709957389941
 30
0.0
 42
-0.4142135623730951
  0
SEQEND
  5
4E0
  8
MARKS_ON_FACE
  0
POLYLINE
  5
6D
  8
MARKS_ON_FACE
 66
     1
 10
0.0
 20
0.0
 30
0.0
 70
     1
  0
VERTEX
  5
4E1
  8
MARKS_ON_FACE
 10
58.00148244840653
 20
35.61803150757661
 30
0.0
 42
-0.4142135623730951
  0
VERTEX
  5
4E2
  8
MARKS_ON_FACE
 10
58.75148244840653
 20
34.86803150757661
 30
0.0
 42
-0.4142135623730951
  0
VERTEX
  5
4E3
  8
MARKS_ON_FACE
 10
58.00148244840653
 20
34.11803150757661
 30
0.0
 42
-0.4142135623730951
  0
VERTEX
  5
4E4
  8
MARKS_ON_FACE
 10
57.25148244840653
 20
34.86803150757661
 30
0.0
 42
-0.4142135623730951
  0
SEQEND
  5
4E5
  8
MARKS_ON_FACE
  0
POLYLINE
  5
6E
  8
MARKS_ON_FACE
 66
     1
 10
0.0
 20
0.0
 30
0.0
 70
     1
  0
VERTEX
  5
4E6
  8
MARKS_ON_FACE
 10
58.00148244840653
 20
43.37709957389941
 30
0.0
 42
-0.4142135623730951
  0
VERTEX
  5
4E7
  8
MARKS_ON_FACE
 10
58.75148244840653
 20
42.62709957389941
 30
0.0
 42
-0.4142135623730951
  0
VERTEX
  5
4E8
  8
MARKS_ON_FACE
 10
58.00148244840653
 20
41.87709957389941
 30
0.0
 42
-0.4142135623730951
  0
VERTEX
  5
4E9
  8
MARKS_ON_FACE
 10
57.25148244840653
 20
42.62709957389941
 30
0.0
 42
-0.4142135623730951
  0
SEQEND
  5
4EA
  8
MARKS_ON_FACE
  0
POLYLINE
  5
6F
  8
MARKS_ON_FACE
 66
     1
 10
0.0
 20
0.0
 30
0.0
 70
     1
  0
VERTEX
  5
4EB
  8
MARKS_ON_FACE
 10
37.32307697641375
 20
20.10896394125381
 30
0.0
 42
0.4142135623730951
  0
VERTEX
  5
4EC
  8
MARKS_ON_FACE
 10
36.57307697641375
 20
19.35896394125381
 30
0.0
 42
0.4142135623730951
  0
VERTEX
  5
4ED
  8
MARKS_ON_FACE
 10
37.32307697641375
 20
18.60896394125381
 30
0.0
 42
0.4142135623730951
  0
VERTEX
  5
4EE
  8
MARKS_ON_FACE
 10
38.07307697641375
 20
19.35896394125381
 30
0.0
 42
0.4142135623730951
  0
SEQEND
  5
4EF
  8
MARKS_ON_FACE
  0
POLYLINE
  5
70
  8
MARKS_ON_FACE
 66
     1
 10
0.0
 20
0.0
 30
0.0
 70
     1
  0
VERTEX
  5
4F0
  8
MARKS_ON_FACE
 10
54.00148244840653
 20
20.11803150757661
 30
0.0
 42
-0.4142135623730951
  0
VERTEX
  5
4F1
  8
MARKS_ON_FACE
 10
54.75148244840653
 20
19.36803150757661
 30
0.0
 42
-0.4142135623730951
  0
VERTEX
  5
4F2
  8
MARKS_ON_FACE
 10
54.00148244840653
 20
18.61803150757661
 30
0.0
 42
-0.4142135623730951
  0
VERTEX
  5
4F3
  8
MARKS_ON_FACE
 10
53.25148244840653
 20
19.36803150757661
 30
0.0
 42
-0.4142135623730951
  0
SEQEND
  5
4F4
  8
MARKS_ON_FACE
  0
POLYLINE
  5
71
  8
MARKS_ON_FACE
 66
     1
 10
0.0
 20
0.0
 30
0.0
 70
     1
  0
VERTEX
  5
4F5
  8
MARKS_ON_FACE
 10
37.32307697641375
 20
27.86803200757662
 30
0.0
 42
0.4142135623730951
  0
VERTEX
  5
4F6
  8
MARKS_ON_FACE
 10
36.57307697641375
 20
27.11803200757662
 30
0.0
 42
0.4142135623730951
  0
VERTEX
  5
4F7
  8
MARKS_ON_FACE
 10
37.32307697641375
 20
26.36803200757662
 30
0.0
 42
0.4142135623730951
  0
VERTEX
  5
4F8
  8
MARKS_ON_FACE
 10
38.07307697641375
 20
27.11803200757662
 30
0.0
 42
0.4142135623730951
  0
SEQEND
  5
4F9
  8
MARKS_ON_FACE
  0
POLYLINE
  5
72
  8
MARKS_ON_FACE
 66
     1
 10
0.0
 20
0.0
 30
0.0
 70
     1
  0
VERTEX
  5
4FA
  8
MARKS_ON_FACE
 10
54.00148244840653
 20
27.87709957389941
 30
0.0
 42
-0.4142135623730951
  0
VERTEX
  5
4FB
  8
MARKS_ON_FACE
 10
54.75148244840653
 20
27.12709957389941
 30
0.0
 42
-0.4142135623730951
  0
VERTEX
  5
4FC
  8
MARKS_ON_FACE
 10
54.00148244840653
 20
26.37709957389941
 30
0.0
 42
-0.4142135623730951
  0
VERTEX
  5
4FD
  8
MARKS_ON_FACE
 10
53.25148244840653
 20
27.12709957389941
 30
0.0
 42
-0.4142135623730951
  0
SEQEND
  5
4FE
  8
MARKS_ON_FACE
  0
POLYLINE
  5
73
  8
MARKS_ON_FACE
 66
     1
 10
0.0
 20
0.0
 30
0.0
 70
     1
  0
VERTEX
  5
4FF
  8
MARKS_ON_FACE
 10
58.00148244840653
 20
20.11803150757661
 30
0.0
 42
-0.4142135623730951
  0
VERTEX
  5
500
  8
MARKS_ON_FACE
 10
58.75148244840653
 20
19.36803150757661
 30
0.0
 42
-0.4142135623730951
  0
VERTEX
  5
501
  8
MARKS_ON_FACE
 10
58.00148244840653
 20
18.61803150757661
 30
0.0
 42
-0.4142135623730951
  0
VERTEX
  5
502
  8
MARKS_ON_FACE
 10
57.25148244840653
 20
19.36803150757661
 30
0.0
 42
-0.4142135623730951
  0
SEQEND
  5
503
  8
MARKS_ON_FACE
  0
POLYLINE
  5
74
  8
MARKS_ON_FACE
 66
     1
 10
0.0
 20
0.0
 30
0.0
 70
     1
  0
VERTEX
  5
504
  8
MARKS_ON_FACE
 10
58.00148244840653
 20
27.87709957389941
 30
0.0
 42
-0.4142135623730951
  0
VERTEX
  5
505
  8
MARKS_ON_FACE
 10
58.75148244840653
 20
27.12709957389941
 30
0.0
 42
-0.4142135623730951
  0
VERTEX
  5
506
  8
MARKS_ON_FACE
 10
58.00148244840653
 20
26.37709957389941
 30
0.0
 42
-0.4142135623730951
  0
VERTEX
  5
507
  8
MARKS_ON_FACE
 10
57.25148244840653
 20
27.12709957389941
 30
0.0
 42
-0.4142135623730951
  0
SEQEND
  5
508
  8
MARKS_ON_FACE
  0
ENDSEC
  0
EOF
