  0
SECTION
  2
HEADER
  9
$ACADVER
  1
AC1009
  9
$DWGCODEPAGE
  3
ansi_1252
  9
$INSBASE
 10
0.0
 20
0.0
 30
0.0
  9
$EXTMIN
 10
2.7
 20
3.58
 30
0.0
  9
$EXTMAX
 10
91.075
 20
44.27
 30
0.0
  9
$LIMMIN
 10
0.0
 20
0.0
  9
$LIMMAX
 10
12.0
 20
9.0
  9
$ORTHOMODE
 70
     0
  9
$REGENMODE
 70
     1
  9
$FILLMODE
 70
     1
  9
$QTEXTMODE
 70
     0
  9
$MIRRTEXT
 70
     1
  9
$DRAGMODE
 70
     2
  9
$LTSCALE
 40
1.0
  9
$OSMODE
 70
    37
  9
$ATTMODE
 70
     1
  9
$TEXTSIZE
 40
0.2
  9
$TRACEWID
 40
0.05
  9
$TEXTSTYLE
  7
STANDARD
  9
$CLAYER
  8
0
  9
$CELTYPE
  6
BYLAYER
  9
$CECOLOR
 62
   256
  9
$DIMSCALE
 40
1.0
  9
$DIMASZ
 40
0.18
  9
$DIMEXO
 40
0.0625
  9
$DIMDLI
 40
0.38
  9
$DIMRND
 40
0.0
  9
$DIMDLE
 40
0.0
  9
$DIMEXE
 40
0.18
  9
$DIMTP
 40
0.0
  9
$DIMTM
 40
0.0
  9
$DIMTXT
 40
0.18
  9
$DIMCEN
 40
0.09
  9
$DIMTSZ
 40
0.0
  9
$DIMTOL
 70
     0
  9
$DIMLIM
 70
     0
  9
$DIMTIH
 70
     1
  9
$DIMTOH
 70
     1
  9
$DIMSE1
 70
     0
  9
$DIMSE2
 70
     0
  9
$DIMTAD
 70
     0
  9
$DIMZIN
 70
     0
  9
$DIMBLK
  1

  9
$DIMASO
 70
     1
  9
$DIMSHO
 70
     1
  9
$DIMPOST
  1

  9
$DIMAPOST
  1

  9
$DIMALT
 70
     0
  9
$DIMALTD
 70
     2
  9
$DIMALTF
 40
25.4
  9
$DIMLFAC
 40
1.0
  9
$DIMTOFL
 70
     0
  9
$DIMTVP
 40
0.0
  9
$DIMTIX
 70
     0
  9
$DIMSOXD
 70
     0
  9
$DIMSAH
 70
     0
  9
$DIMBLK1
  1

  9
$DIMBLK2
  1

  9
$DIMSTYLE
  2
STANDARD
  9
$DIMCLRD
 70
     0
  9
$DIMCLRE
 70
     0
  9
$DIMCLRT
 70
     0
  9
$DIMTFAC
 40
1.0
  9
$DIMGAP
 40
0.09
  9
$LUNITS
 70
     2
  9
$LUPREC
 70
     4
  9
$SKETCHINC
 40
0.1
  9
$FILLETRAD
 40
0.5
  9
$AUNITS
 70
     0
  9
$AUPREC
 70
     0
  9
$MENU
  1
.
  9
$ELEVATION
 40
0.0
  9
$PELEVATION
 40
0.0
  9
$THICKNESS
 40
0.0
  9
$LIMCHECK
 70
     0
  9
$CHAMFERA
 40
0.5
  9
$CHAMFERB
 40
0.5
  9
$SKPOLY
 70
     0
  9
$TDCREATE
 40
2454910.5
  9
$TDUPDATE
 40
2455901.458914525
  9
$TDINDWG
 40
0.0000000116
  9
$TDUSRTIMER
 40
0.0000000116
  9
$USRTIMER
 70
     1
  9
$ANGBASE
 50
0.0
  9
$ANGDIR
 70
     0
  9
$PDMODE
 70
     0
  9
$PDSIZE
 40
0.0
  9
$PLINEWID
 40
0.0
  9
$COORDS
 70
     1
  9
$SPLFRAME
 70
     0
  9
$SPLINETYPE
 70
     6
  9
$SPLINESEGS
 70
     8
  9
$ATTDIA
 70
     0
  9
$ATTREQ
 70
     1
  9
$HANDLING
 70
     1
  9
$HANDSEED
  5
D7
  9
$SURFTAB1
 70
     6
  9
$SURFTAB2
 70
     6
  9
$SURFTYPE
 70
     6
  9
$SURFU
 70
     6
  9
$SURFV
 70
     6
  9
$UCSNAME
  2

  9
$UCSORG
 10
0.0
 20
0.0
 30
0.0
  9
$UCSXDIR
 10
1.0
 20
0.0
 30
0.0
  9
$UCSYDIR
 10
0.0
 20
1.0
 30
0.0
  9
$PUCSNAME
  2

  9
$PUCSORG
 10
0.0
 20
0.0
 30
0.0
  9
$PUCSXDIR
 10
1.0
 20
0.0
 30
0.0
  9
$PUCSYDIR
 10
0.0
 20
1.0
 30
0.0
  9
$USERI1
 70
     0
  9
$USERI2
 70
     0
  9
$USERI3
 70
     0
  9
$USERI4
 70
     0
  9
$USERI5
 70
     0
  9
$USERR1
 40
0.0
  9
$USERR2
 40
0.0
  9
$USERR3
 40
0.0
  9
$USERR4
 40
0.0
  9
$USERR5
 40
0.0
  9
$WORLDVIEW
 70
     1
  9
$SHADEDGE
 70
     3
  9
$SHADEDIF
 70
    70
  9
$TILEMODE
 70
     1
  9
$MAXACTVP
 70
    64
  9
$PLIMCHECK
 70
     0
  9
$PEXTMIN
 10
1.000000000000000E+20
 20
1.000000000000000E+20
 30
1.000000000000000E+20
  9
$PEXTMAX
 10
-1.000000000000000E+20
 20
-1.000000000000000E+20
 30
-1.000000000000000E+20
  9
$PLIMMIN
 10
0.0
 20
0.0
  9
$PLIMMAX
 10
12.0
 20
9.0
  9
$UNITMODE
 70
     0
  9
$VISRETAIN
 70
     1
  9
$PLINEGEN
 70
     0
  9
$PSLTSCALE
 70
     1
  0
ENDSEC
  0
SECTION
  2
TABLES
  0
TABLE
  2
VPORT
 70
     1
  0
VPORT
  2
*ACTIVE
 70
     0
 10
0.0
 20
0.0
 11
1.0
 21
1.0
 12
10.42990654205607
 22
4.5
 13
0.0
 23
0.0
 14
0.5
 24
0.5
 15
0.5
 25
0.5
 16
0.0
 26
0.0
 36
1.0
 17
0.0
 27
0.0
 37
0.0
 40
9.0
 41
1.972972972850329
 42
50.0
 43
0.0
 44
0.0
 50
0.0
 51
0.0
 71
     0
 72
   100
 73
     1
 74
     3
 75
     0
 76
     0
 77
     0
 78
     0
  0
ENDTAB
  0
TABLE
  2
LTYPE
 70
     2
  0
LTYPE
  2
CONTINUOUS
 70
     0
  3
Solid line
 72
    65
 73
     0
 40
0.0
  0
LTYPE
  2
CONTINUOUS2
 70
     0
  3
Solid Line
 72
    65
 73
     0
 40
0.0
  0
ENDTAB
  0
TABLE
  2
LAYER
 70
     3
  0
LAYER
  2
0
 70
     0
 62
     7
  6
CONTINUOUS
  0
LAYER
  2
THROUGH_CUT
 70
     0
 62
    18
  6
CONTINUOUS
  0
LAYER
  2
RECESS_FOR_SCREWS
 70
     0
 62
     5
  6
CONTINUOUS
  0
ENDTAB
  0
TABLE
  2
STYLE
 70
     1
  0
STYLE
  2
STANDARD
 70
     0
 40
0.0
 41
1.0
 50
0.0
 71
     0
 42
0.2
  3
txt
  4

  0
ENDTAB
  0
TABLE
  2
VIEW
 70
     0
  0
ENDTAB
  0
TABLE
  2
UCS
 70
     0
  0
ENDTAB
  0
TABLE
  2
APPID
 70
     1
  0
APPID
  2
ACAD
 70
     0
  0
ENDTAB
  0
TABLE
  2
DIMSTYLE
 70
     1
  0
DIMSTYLE
  2
STANDARD
 70
     0
  3

  4

  5

  6

  7

 40
1.0
 41
0.18
 42
0.0625
 43
0.38
 44
0.18
 45
0.0
 46
0.0
 47
0.0
 48
0.0
140
0.18
141
0.09
142
0.0
143
25.4
144
1.0
145
0.0
146
1.0
147
0.09
 71
     0
 72
     0
 73
     1
 74
     1
 75
     0
 76
     0
 77
     0
 78
     0
170
     0
171
     2
172
     0
173
     0
174
     0
175
     0
176
     0
177
     0
178
     0
  0
ENDTAB
  0
ENDSEC
  0
SECTION
  2
BLOCKS
  0
BLOCK
  8
0
  2
$MODEL_SPACE
 70
     0
 10
0.0
 20
0.0
 30
0.0
  3
$MODEL_SPACE
  1

  0
ENDBLK
  5
21
  8
0
  0
BLOCK
 67
     1
  8
0
  2
$PAPER_SPACE
 70
     0
 10
0.0
 20
0.0
 30
0.0
  3
$PAPER_SPACE
  1

  0
ENDBLK
  5
1D
 67
     1
  8
0
  0
ENDSEC
  0
SECTION
  2
ENTITIES
  0
POLYLINE
  5
41
  8
THROUGH_CUT
 66
     1
 10
0.0
 20
0.0
 30
0.0
 70
     1
  0
VERTEX
  5
4C
  8
THROUGH_CUT
 10
3.095
 20
3.58
 30
0.0
  0
VERTEX
  5
4D
  8
THROUGH_CUT
 10
3.09500031566357
 20
4.750003279546441
 30
0.0
  0
VERTEX
  5
4E
  8
THROUGH_CUT
 10
3.106574457706977
 20
4.750316232833645
 30
0.0
  0
VERTEX
  5
4F
  8
THROUGH_CUT
 10
3.117783539140293
 20
4.751163634884077
 30
0.0
  0
VERTEX
  5
50
  8
THROUGH_CUT
 10
3.128627445158977
 20
4.752528265027697
 30
0.0
  0
VERTEX
  5
51
  8
THROUGH_CUT
 10
3.139106060958483
 20
4.754392902594464
 30
0.0
  0
VERTEX
  5
52
  8
THROUGH_CUT
 10
3.149219271734268
 20
4.756740326914335
 30
0.0
  0
VERTEX
  5
53
  8
THROUGH_CUT
 10
3.158966962681788
 20
4.759553317317272
 30
0.0
  0
VERTEX
  5
54
  8
THROUGH_CUT
 10
3.168349018996501
 20
4.762814653133232
 30
0.0
  0
VERTEX
  5
55
  8
THROUGH_CUT
 10
3.177365325873863
 20
4.766507113692173
 30
0.0
  0
VERTEX
  5
56
  8
THROUGH_CUT
 10
3.18601576850933
 20
4.770613478324055
 30
0.0
  0
VERTEX
  5
57
  8
THROUGH_CUT
 10
3.194300232098358
 20
4.775116526358835
 30
0.0
  0
VERTEX
  5
58
  8
THROUGH_CUT
 10
3.202218601836405
 20
4.779999037126474
 30
0.0
  0
VERTEX
  5
59
  8
THROUGH_CUT
 10
3.209770762918928
 20
4.785243789956929
 30
0.0
  0
VERTEX
  5
5A
  8
THROUGH_CUT
 10
3.216956600541381
 20
4.79083356418016
 30
0.0
  0
VERTEX
  5
5B
  8
THROUGH_CUT
 10
3.223775999899222
 20
4.796751139126124
 30
0.0
  0
VERTEX
  5
5C
  8
THROUGH_CUT
 10
3.230228846187908
 20
4.802979294124784
 30
0.0
  0
VERTEX
  5
5D
  8
THROUGH_CUT
 10
3.236315024602894
 20
4.809500808506094
 30
0.0
  0
VERTEX
  5
5E
  8
THROUGH_CUT
 10
3.242034420339638
 20
4.816298461600015
 30
0.0
  0
VERTEX
  5
5F
  8
THROUGH_CUT
 10
3.247386918593596
 20
4.823355032736506
 30
0.0
  0
VERTEX
  5
60
  8
THROUGH_CUT
 10
3.252372404560225
 20
4.830653301245524
 30
0.0
  0
VERTEX
  5
61
  8
THROUGH_CUT
 10
3.25699076343498
 20
4.838176046457031
 30
0.0
  0
VERTEX
  5
62
  8
THROUGH_CUT
 10
3.261241880413319
 20
4.845906047700983
 30
0.0
  0
VERTEX
  5
63
  8
THROUGH_CUT
 10
3.265125640690698
 20
4.85382608430734
 30
0.0
  0
VERTEX
  5
64
  8
THROUGH_CUT
 10
3.268641929462574
 20
4.861918935606061
 30
0.0
  0
VERTEX
  5
65
  8
THROUGH_CUT
 10
3.271790631924403
 20
4.870167380927104
 30
0.0
  0
VERTEX
  5
66
  8
THROUGH_CUT
 10
3.274571633271642
 20
4.878554199600428
 30
0.0
  0
VERTEX
  5
67
  8
THROUGH_CUT
 10
3.276984818699747
 20
4.887062170955991
 30
0.0
  0
VERTEX
  5
68
  8
THROUGH_CUT
 10
3.279030073404174
 20
4.895674074323754
 30
0.0
  0
VERTEX
  5
69
  8
THROUGH_CUT
 10
3.280707282580381
 20
4.904372689033673
 30
0.0
  0
VERTEX
  5
6A
  8
THROUGH_CUT
 10
3.282016331423823
 20
4.913140794415709
 30
0.0
  0
VERTEX
  5
6B
  8
THROUGH_CUT
 10
3.282957105129958
 20
4.92196116979982
 30
0.0
  0
VERTEX
  5
6C
  8
THROUGH_CUT
 10
3.283529488894241
 20
4.930816594515965
 30
0.0
  0
VERTEX
  5
6D
  8
THROUGH_CUT
 10
3.28373336791213
 20
4.939689847894103
 30
0.0
  0
VERTEX
  5
6E
  8
THROUGH_CUT
 10
3.283568627379081
 20
4.948563709264192
 30
0.0
  0
VERTEX
  5
6F
  8
THROUGH_CUT
 10
3.28303515249055
 20
4.957420957956192
 30
0.0
  0
VERTEX
  5
70
  8
THROUGH_CUT
 10
3.282132828441994
 20
4.966244373300059
 30
0.0
  0
VERTEX
  5
71
  8
THROUGH_CUT
 10
3.280861540428869
 20
4.975016734625755
 30
0.0
  0
VERTEX
  5
72
  8
THROUGH_CUT
 10
3.279221173646632
 20
4.983720821263238
 30
0.0
  0
VERTEX
  5
73
  8
THROUGH_CUT
 10
3.27721161329074
 20
4.992339412542465
 30
0.0
  0
VERTEX
  5
74
  8
THROUGH_CUT
 10
3.274832744556648
 20
5.000855287793398
 30
0.0
  0
VERTEX
  5
75
  8
THROUGH_CUT
 10
3.272084452639814
 20
5.009251226345993
 30
0.0
  0
VERTEX
  5
76
  8
THROUGH_CUT
 10
3.268966622735694
 20
5.017510007530209
 30
0.0
  0
VERTEX
  5
77
  8
THROUGH_CUT
 10
3.265479140039744
 20
5.025614410676006
 30
0.0
  0
VERTEX
  5
78
  8
THROUGH_CUT
 10
3.261621889747422
 20
5.033547215113343
 30
0.0
  0
VERTEX
  5
79
  8
THROUGH_CUT
 10
3.257394757054183
 20
5.041291200172177
 30
0.0
  0
VERTEX
  5
7A
  8
THROUGH_CUT
 10
3.252797627155485
 20
5.048829145182468
 30
0.0
  0
VERTEX
  5
7B
  8
THROUGH_CUT
 10
3.247830385246782
 20
5.056143829474175
 30
0.0
  0
VERTEX
  5
7C
  8
THROUGH_CUT
 10
3.242492916523533
 20
5.063218032377256
 30
0.0
  0
VERTEX
  5
7D
  8
THROUGH_CUT
 10
3.236785106181194
 20
5.070034533221671
 30
0.0
  0
VERTEX
  5
7E
  8
THROUGH_CUT
 10
3.230706839415221
 20
5.076576111337377
 30
0.0
  0
VERTEX
  5
7F
  8
THROUGH_CUT
 10
3.22425800142107
 20
5.082825546054335
 30
0.0
  0
VERTEX
  5
80
  8
THROUGH_CUT
 10
3.217438477394199
 20
5.088765616702502
 30
0.0
  0
VERTEX
  5
81
  8
THROUGH_CUT
 10
3.210248152530063
 20
5.094379102611837
 30
0.0
  0
VERTEX
  5
82
  8
THROUGH_CUT
 10
3.20268691202412
 20
5.099648783112301
 30
0.0
  0
VERTEX
  5
83
  8
THROUGH_CUT
 10
3.194754641071826
 20
5.104557437533849
 30
0.0
  0
VERTEX
  5
84
  8
THROUGH_CUT
 10
3.186451224868637
 20
5.109087845206444
 30
0.0
  0
VERTEX
  5
85
  8
THROUGH_CUT
 10
3.17777654861001
 20
5.11322278546004
 30
0.0
  0
VERTEX
  5
86
  8
THROUGH_CUT
 10
3.168730497491401
 20
5.1169450376246
 30
0.0
  0
VERTEX
  5
87
  8
THROUGH_CUT
 10
3.159312956708267
 20
5.120237381030081
 30
0.0
  0
VERTEX
  5
88
  8
THROUGH_CUT
 10
3.149523811456064
 20
5.123082595006442
 30
0.0
  0
VERTEX
  5
89
  8
THROUGH_CUT
 10
3.13936294693025
 20
5.12546345888364
 30
0.0
  0
VERTEX
  5
8A
  8
THROUGH_CUT
 10
3.12883024832628
 20
5.127362751991637
 30
0.0
  0
VERTEX
  5
8B
  8
THROUGH_CUT
 10
3.117925600839611
 20
5.12876325366039
 30
0.0
  0
VERTEX
  5
8C
  8
THROUGH_CUT
 10
3.106648889665698
 20
5.129647743219858
 30
0.0
  0
VERTEX
  5
8D
  8
THROUGH_CUT
 10
3.095
 20
5.129999
 30
0.0
  0
VERTEX
  5
8E
  8
THROUGH_CUT
 10
2.7
 20
5.129999
 30
0.0
  0
VERTEX
  5
8F
  8
THROUGH_CUT
 10
2.7
 20
23.73749900000011
 30
0.0
 42
0.4142135623730951
  0
VERTEX
  5
90
  8
THROUGH_CUT
 10
2.887499999999999
 20
23.924999
 30
0.0
 42
0.4142135623730951
  0
VERTEX
  5
91
  8
THROUGH_CUT
 10
2.7
 20
24.11249899999992
 30
0.0
  0
VERTEX
  5
92
  8
THROUGH_CUT
 10
2.7
 20
42.719999
 30
0.0
  0
VERTEX
  5
93
  8
THROUGH_CUT
 10
3.095
 20
42.719999
 30
0.0
 42
1.0
  0
VERTEX
  5
94
  8
THROUGH_CUT
 10
3.095
 20
43.099999
 30
0.0
  0
VERTEX
  5
95
  8
THROUGH_CUT
 10
3.095
 20
44.27
 30
0.0
  0
VERTEX
  5
96
  8
THROUGH_CUT
 10
24.305
 20
44.27
 30
0.0
  0
VERTEX
  5
97
  8
THROUGH_CUT
 10
24.305
 20
43.099999
 30
0.0
 42
1.0
  0
VERTEX
  5
98
  8
THROUGH_CUT
 10
24.305
 20
42.719999
 30
0.0
  0
VERTEX
  5
99
  8
THROUGH_CUT
 10
25.095
 20
42.719999
 30
0.0
 42
1.0
  0
VERTEX
  5
9A
  8
THROUGH_CUT
 10
25.095
 20
43.099999
 30
0.0
  0
VERTEX
  5
9B
  8
THROUGH_CUT
 10
25.095
 20
44.27
 30
0.0
  0
VERTEX
  5
9C
  8
THROUGH_CUT
 10
46.305
 20
44.27
 30
0.0
  0
VERTEX
  5
9D
  8
THROUGH_CUT
 10
46.305
 20
43.099999
 30
0.0
 42
1.0
  0
VERTEX
  5
9E
  8
THROUGH_CUT
 10
46.305
 20
42.719999
 30
0.0
  0
VERTEX
  5
9F
  8
THROUGH_CUT
 10
47.095
 20
42.719999
 30
0.0
 42
1.0
  0
VERTEX
  5
A0
  8
THROUGH_CUT
 10
47.095
 20
43.099999
 30
0.0
  0
VERTEX
  5
A1
  8
THROUGH_CUT
 10
47.095
 20
44.27
 30
0.0
  0
VERTEX
  5
A2
  8
THROUGH_CUT
 10
68.305
 20
44.27
 30
0.0
  0
VERTEX
  5
A3
  8
THROUGH_CUT
 10
68.305
 20
43.099999
 30
0.0
 42
1.0
  0
VERTEX
  5
A4
  8
THROUGH_CUT
 10
68.305
 20
42.719999
 30
0.0
  0
VERTEX
  5
A5
  8
THROUGH_CUT
 10
69.095
 20
42.719999
 30
0.0
 42
1.0
  0
VERTEX
  5
A6
  8
THROUGH_CUT
 10
69.095
 20
43.099999
 30
0.0
  0
VERTEX
  5
A7
  8
THROUGH_CUT
 10
69.095
 20
44.27
 30
0.0
  0
VERTEX
  5
A8
  8
THROUGH_CUT
 10
90.305
 20
44.27
 30
0.0
  0
VERTEX
  5
A9
  8
THROUGH_CUT
 10
90.305
 20
43.099999
 30
0.0
 42
1.0
  0
VERTEX
  5
AA
  8
THROUGH_CUT
 10
90.305
 20
42.719999
 30
0.0
  0
VERTEX
  5
AB
  8
THROUGH_CUT
 10
91.075
 20
42.719999
 30
0.0
  0
VERTEX
  5
AC
  8
THROUGH_CUT
 10
91.075
 20
5.129999
 30
0.0
  0
VERTEX
  5
AD
  8
THROUGH_CUT
 10
90.305
 20
5.129999
 30
0.0
 42
1.0
  0
VERTEX
  5
AE
  8
THROUGH_CUT
 10
90.305
 20
4.749999
 30
0.0
  0
VERTEX
  5
AF
  8
THROUGH_CUT
 10
90.305
 20
3.58
 30
0.0
  0
VERTEX
  5
B0
  8
THROUGH_CUT
 10
69.095
 20
3.58
 30
0.0
  0
VERTEX
  5
B1
  8
THROUGH_CUT
 10
69.095
 20
4.749999
 30
0.0
 42
1.0
  0
VERTEX
  5
B2
  8
THROUGH_CUT
 10
69.095
 20
5.129999
 30
0.0
  0
VERTEX
  5
B3
  8
THROUGH_CUT
 10
68.305
 20
5.129999
 30
0.0
 42
1.0
  0
VERTEX
  5
B4
  8
THROUGH_CUT
 10
68.305
 20
4.749999
 30
0.0
  0
VERTEX
  5
B5
  8
THROUGH_CUT
 10
68.305
 20
3.58
 30
0.0
  0
VERTEX
  5
B6
  8
THROUGH_CUT
 10
47.095
 20
3.58
 30
0.0
  0
VERTEX
  5
B7
  8
THROUGH_CUT
 10
47.095
 20
4.749999
 30
0.0
 42
1.0
  0
VERTEX
  5
B8
  8
THROUGH_CUT
 10
47.095
 20
5.129999
 30
0.0
  0
VERTEX
  5
B9
  8
THROUGH_CUT
 10
46.305
 20
5.129999
 30
0.0
 42
1.0
  0
VERTEX
  5
BA
  8
THROUGH_CUT
 10
46.305
 20
4.749999
 30
0.0
  0
VERTEX
  5
BB
  8
THROUGH_CUT
 10
46.305
 20
3.58
 30
0.0
  0
VERTEX
  5
BC
  8
THROUGH_CUT
 10
25.095
 20
3.58
 30
0.0
  0
VERTEX
  5
BD
  8
THROUGH_CUT
 10
25.095
 20
4.749999
 30
0.0
 42
1.0
  0
VERTEX
  5
BE
  8
THROUGH_CUT
 10
25.095
 20
5.129999
 30
0.0
  0
VERTEX
  5
BF
  8
THROUGH_CUT
 10
24.305
 20
5.129999
 30
0.0
 42
1.0
  0
VERTEX
  5
C0
  8
THROUGH_CUT
 10
24.305
 20
4.749999
 30
0.0
  0
VERTEX
  5
C1
  8
THROUGH_CUT
 10
24.305
 20
3.58
 30
0.0
  0
SEQEND
  5
C2
  8
THROUGH_CUT
  0
POLYLINE
  5
43
  8
RECESS_FOR_SCREWS
 66
     1
 10
0.0
 20
0.0
 30
0.0
 70
     1
  0
VERTEX
  5
C3
  8
RECESS_FOR_SCREWS
 10
24.7
 20
24.1125
 30
0.0
 42
0.4142135623730951
  0
VERTEX
  5
C4
  8
RECESS_FOR_SCREWS
 10
24.5125
 20
23.925
 30
0.0
 42
0.4142135623730951
  0
VERTEX
  5
C5
  8
RECESS_FOR_SCREWS
 10
24.7
 20
23.7375
 30
0.0
 42
0.4142135623730951
  0
VERTEX
  5
C6
  8
RECESS_FOR_SCREWS
 10
24.8875
 20
23.925
 30
0.0
 42
0.4142135623730951
  0
SEQEND
  5
C7
  8
RECESS_FOR_SCREWS
  0
POLYLINE
  5
44
  8
RECESS_FOR_SCREWS
 66
     1
 10
0.0
 20
0.0
 30
0.0
 70
     1
  0
VERTEX
  5
C8
  8
RECESS_FOR_SCREWS
 10
46.7
 20
24.1125
 30
0.0
 42
0.4142135623730951
  0
VERTEX
  5
C9
  8
RECESS_FOR_SCREWS
 10
46.5125
 20
23.925
 30
0.0
 42
0.4142135623730951
  0
VERTEX
  5
CA
  8
RECESS_FOR_SCREWS
 10
46.7
 20
23.7375
 30
0.0
 42
0.4142135623730951
  0
VERTEX
  5
CB
  8
RECESS_FOR_SCREWS
 10
46.8875
 20
23.925
 30
0.0
 42
0.4142135623730951
  0
SEQEND
  5
CC
  8
RECESS_FOR_SCREWS
  0
POLYLINE
  5
45
  8
RECESS_FOR_SCREWS
 66
     1
 10
0.0
 20
0.0
 30
0.0
 70
     1
  0
VERTEX
  5
CD
  8
RECESS_FOR_SCREWS
 10
68.7
 20
24.1125
 30
0.0
 42
0.4142135623730951
  0
VERTEX
  5
CE
  8
RECESS_FOR_SCREWS
 10
68.5125
 20
23.925
 30
0.0
 42
0.4142135623730951
  0
VERTEX
  5
CF
  8
RECESS_FOR_SCREWS
 10
68.7
 20
23.7375
 30
0.0
 42
0.4142135623730951
  0
VERTEX
  5
D0
  8
RECESS_FOR_SCREWS
 10
68.8875
 20
23.925
 30
0.0
 42
0.4142135623730951
  0
SEQEND
  5
D1
  8
RECESS_FOR_SCREWS
  0
POLYLINE
  5
46
  8
RECESS_FOR_SCREWS
 66
     1
 10
0.0
 20
0.0
 30
0.0
 70
     1
  0
VERTEX
  5
D2
  8
RECESS_FOR_SCREWS
 10
90.69
 20
24.1125
 30
0.0
 42
0.4142135623730951
  0
VERTEX
  5
D3
  8
RECESS_FOR_SCREWS
 10
90.5025
 20
23.925
 30
0.0
 42
0.4142135623730951
  0
VERTEX
  5
D4
  8
RECESS_FOR_SCREWS
 10
90.69
 20
23.7375
 30
0.0
 42
0.4142135623730951
  0
VERTEX
  5
D5
  8
RECESS_FOR_SCREWS
 10
90.8775
 20
23.925
 30
0.0
 42
0.4142135623730951
  0
SEQEND
  5
D6
  8
RECESS_FOR_SCREWS
  0
ENDSEC
  0
EOF
