  0
SECTION
  2
HEADER
  9
$ACADVER
  1
AC1009
  9
$DWGCODEPAGE
  3
ansi_1252
  9
$INSBASE
 10
0.0
 20
0.0
 30
0.0
  9
$EXTMIN
 10
3.625000000000008
 20
2.124998000000005
 30
0.0
  9
$EXTMAX
 10
93.0002570243601
 20
46.625
 30
0.0
  9
$LIMMIN
 10
0.0
 20
0.0
  9
$LIMMAX
 10
12.0
 20
9.0
  9
$ORTHOMODE
 70
     0
  9
$REGENMODE
 70
     1
  9
$FILLMODE
 70
     1
  9
$QTEXTMODE
 70
     0
  9
$MIRRTEXT
 70
     1
  9
$DRAGMODE
 70
     2
  9
$LTSCALE
 40
1.0
  9
$OSMODE
 70
    37
  9
$ATTMODE
 70
     1
  9
$TEXTSIZE
 40
0.2
  9
$TRACEWID
 40
0.05
  9
$TEXTSTYLE
  7
STANDARD
  9
$CLAYER
  8
0
  9
$CELTYPE
  6
BYLAYER
  9
$CECOLOR
 62
   256
  9
$DIMSCALE
 40
1.0
  9
$DIMASZ
 40
0.18
  9
$DIMEXO
 40
0.0625
  9
$DIMDLI
 40
0.38
  9
$DIMRND
 40
0.0
  9
$DIMDLE
 40
0.0
  9
$DIMEXE
 40
0.18
  9
$DIMTP
 40
0.0
  9
$DIMTM
 40
0.0
  9
$DIMTXT
 40
0.18
  9
$DIMCEN
 40
0.09
  9
$DIMTSZ
 40
0.0
  9
$DIMTOL
 70
     0
  9
$DIMLIM
 70
     0
  9
$DIMTIH
 70
     1
  9
$DIMTOH
 70
     1
  9
$DIMSE1
 70
     0
  9
$DIMSE2
 70
     0
  9
$DIMTAD
 70
     0
  9
$DIMZIN
 70
     0
  9
$DIMBLK
  1

  9
$DIMASO
 70
     1
  9
$DIMSHO
 70
     1
  9
$DIMPOST
  1

  9
$DIMAPOST
  1

  9
$DIMALT
 70
     0
  9
$DIMALTD
 70
     2
  9
$DIMALTF
 40
25.4
  9
$DIMLFAC
 40
1.0
  9
$DIMTOFL
 70
     0
  9
$DIMTVP
 40
0.0
  9
$DIMTIX
 70
     0
  9
$DIMSOXD
 70
     0
  9
$DIMSAH
 70
     0
  9
$DIMBLK1
  1

  9
$DIMBLK2
  1

  9
$DIMSTYLE
  2
STANDARD
  9
$DIMCLRD
 70
     0
  9
$DIMCLRE
 70
     0
  9
$DIMCLRT
 70
     0
  9
$DIMTFAC
 40
1.0
  9
$DIMGAP
 40
0.09
  9
$LUNITS
 70
     2
  9
$LUPREC
 70
     4
  9
$SKETCHINC
 40
0.1
  9
$FILLETRAD
 40
0.5
  9
$AUNITS
 70
     0
  9
$AUPREC
 70
     0
  9
$MENU
  1
.
  9
$ELEVATION
 40
0.0
  9
$PELEVATION
 40
0.0
  9
$THICKNESS
 40
0.0
  9
$LIMCHECK
 70
     0
  9
$CHAMFERA
 40
0.5
  9
$CHAMFERB
 40
0.5
  9
$SKPOLY
 70
     0
  9
$TDCREATE
 40
2454910.5
  9
$TDUPDATE
 40
2455901.444725717
  9
$TDINDWG
 40
0.0000000116
  9
$TDUSRTIMER
 40
0.0000000116
  9
$USRTIMER
 70
     1
  9
$ANGBASE
 50
0.0
  9
$ANGDIR
 70
     0
  9
$PDMODE
 70
     0
  9
$PDSIZE
 40
0.0
  9
$PLINEWID
 40
0.0
  9
$COORDS
 70
     1
  9
$SPLFRAME
 70
     0
  9
$SPLINETYPE
 70
     6
  9
$SPLINESEGS
 70
     8
  9
$ATTDIA
 70
     0
  9
$ATTREQ
 70
     1
  9
$HANDLING
 70
     1
  9
$HANDSEED
  5
3A8
  9
$SURFTAB1
 70
     6
  9
$SURFTAB2
 70
     6
  9
$SURFTYPE
 70
     6
  9
$SURFU
 70
     6
  9
$SURFV
 70
     6
  9
$UCSNAME
  2

  9
$UCSORG
 10
0.0
 20
0.0
 30
0.0
  9
$UCSXDIR
 10
1.0
 20
0.0
 30
0.0
  9
$UCSYDIR
 10
0.0
 20
1.0
 30
0.0
  9
$PUCSNAME
  2

  9
$PUCSORG
 10
0.0
 20
0.0
 30
0.0
  9
$PUCSXDIR
 10
1.0
 20
0.0
 30
0.0
  9
$PUCSYDIR
 10
0.0
 20
1.0
 30
0.0
  9
$USERI1
 70
     0
  9
$USERI2
 70
     0
  9
$USERI3
 70
     0
  9
$USERI4
 70
     0
  9
$USERI5
 70
     0
  9
$USERR1
 40
0.0
  9
$USERR2
 40
0.0
  9
$USERR3
 40
0.0
  9
$USERR4
 40
0.0
  9
$USERR5
 40
0.0
  9
$WORLDVIEW
 70
     1
  9
$SHADEDGE
 70
     3
  9
$SHADEDIF
 70
    70
  9
$TILEMODE
 70
     1
  9
$MAXACTVP
 70
    64
  9
$PLIMCHECK
 70
     0
  9
$PEXTMIN
 10
1.000000000000000E+20
 20
1.000000000000000E+20
 30
1.000000000000000E+20
  9
$PEXTMAX
 10
-1.000000000000000E+20
 20
-1.000000000000000E+20
 30
-1.000000000000000E+20
  9
$PLIMMIN
 10
0.0
 20
0.0
  9
$PLIMMAX
 10
12.0
 20
9.0
  9
$UNITMODE
 70
     0
  9
$VISRETAIN
 70
     1
  9
$PLINEGEN
 70
     0
  9
$PSLTSCALE
 70
     1
  0
ENDSEC
  0
SECTION
  2
TABLES
  0
TABLE
  2
VPORT
 70
     1
  0
VPORT
  2
*ACTIVE
 70
     0
 10
0.0
 20
0.0
 11
1.0
 21
1.0
 12
10.42990654205607
 22
4.5
 13
0.0
 23
0.0
 14
0.5
 24
0.5
 15
0.5
 25
0.5
 16
0.0
 26
0.0
 36
1.0
 17
0.0
 27
0.0
 37
0.0
 40
9.0
 41
1.972972972850329
 42
50.0
 43
0.0
 44
0.0
 50
0.0
 51
0.0
 71
     0
 72
   100
 73
     1
 74
     3
 75
     0
 76
     0
 77
     0
 78
     0
  0
ENDTAB
  0
TABLE
  2
LTYPE
 70
     2
  0
LTYPE
  2
CONTINUOUS
 70
     0
  3
Solid line
 72
    65
 73
     0
 40
0.0
  0
LTYPE
  2
CONTINUOUS2
 70
     0
  3
Solid Line
 72
    65
 73
     0
 40
0.0
  0
ENDTAB
  0
TABLE
  2
LAYER
 70
     5
  0
LAYER
  2
0
 70
     0
 62
     7
  6
CONTINUOUS
  0
LAYER
  2
THROUGH_CUT
 70
     0
 62
    18
  6
CONTINUOUS
  0
LAYER
  2
CUT_HALFWAY_THROUGH
 70
     0
 62
     1
  6
CONTINUOUS
  0
LAYER
  2
RECESS_FOR_SCREWS
 70
     0
 62
     5
  6
CONTINUOUS
  0
LAYER
  2
MARKS_IN_POCKET
 70
     0
 62
     3
  6
CONTINUOUS
  0
ENDTAB
  0
TABLE
  2
STYLE
 70
     1
  0
STYLE
  2
STANDARD
 70
     0
 40
0.0
 41
1.0
 50
0.0
 71
     0
 42
0.2
  3
txt
  4

  0
ENDTAB
  0
TABLE
  2
VIEW
 70
     0
  0
ENDTAB
  0
TABLE
  2
UCS
 70
     0
  0
ENDTAB
  0
TABLE
  2
APPID
 70
     1
  0
APPID
  2
ACAD
 70
     0
  0
ENDTAB
  0
TABLE
  2
DIMSTYLE
 70
     1
  0
DIMSTYLE
  2
STANDARD
 70
     0
  3

  4

  5

  6

  7

 40
1.0
 41
0.18
 42
0.0625
 43
0.38
 44
0.18
 45
0.0
 46
0.0
 47
0.0
 48
0.0
140
0.18
141
0.09
142
0.0
143
25.4
144
1.0
145
0.0
146
1.0
147
0.09
 71
     0
 72
     0
 73
     1
 74
     1
 75
     0
 76
     0
 77
     0
 78
     0
170
     0
171
     2
172
     0
173
     0
174
     0
175
     0
176
     0
177
     0
178
     0
  0
ENDTAB
  0
ENDSEC
  0
SECTION
  2
BLOCKS
  0
BLOCK
  8
0
  2
$MODEL_SPACE
 70
     0
 10
0.0
 20
0.0
 30
0.0
  3
$MODEL_SPACE
  1

  0
ENDBLK
  5
21
  8
0
  0
BLOCK
 67
     1
  8
0
  2
$PAPER_SPACE
 70
     0
 10
0.0
 20
0.0
 30
0.0
  3
$PAPER_SPACE
  1

  0
ENDBLK
  5
1D
 67
     1
  8
0
  0
ENDSEC
  0
SECTION
  2
ENTITIES
  0
POLYLINE
  5
41
  8
THROUGH_CUT
 66
     1
 10
0.0
 20
0.0
 30
0.0
 70
     1
  0
VERTEX
  5
6F
  8
THROUGH_CUT
 10
26.37500000000001
 20
27.5
 30
0.0
  0
VERTEX
  5
70
  8
THROUGH_CUT
 10
25.62500000000001
 20
27.5
 30
0.0
 42
-1.0
  0
VERTEX
  5
71
  8
THROUGH_CUT
 10
25.62500000000001
 20
27.88
 30
0.0
  0
VERTEX
  5
72
  8
THROUGH_CUT
 10
25.62500000000001
 20
30.12
 30
0.0
 42
-1.0
  0
VERTEX
  5
73
  8
THROUGH_CUT
 10
25.62500000000001
 20
30.5
 30
0.0
  0
VERTEX
  5
74
  8
THROUGH_CUT
 10
26.37500000000001
 20
30.5
 30
0.0
 42
-1.0
  0
VERTEX
  5
75
  8
THROUGH_CUT
 10
26.37500000000001
 20
30.12
 30
0.0
  0
VERTEX
  5
76
  8
THROUGH_CUT
 10
26.37500000000001
 20
27.88
 30
0.0
 42
-1.0
  0
SEQEND
  5
77
  8
THROUGH_CUT
  0
POLYLINE
  5
42
  8
THROUGH_CUT
 66
     1
 10
0.0
 20
0.0
 30
0.0
 70
     1
  0
VERTEX
  5
78
  8
THROUGH_CUT
 10
48.37499999999999
 20
27.5
 30
0.0
  0
VERTEX
  5
79
  8
THROUGH_CUT
 10
47.62499999999999
 20
27.5
 30
0.0
 42
-1.0
  0
VERTEX
  5
7A
  8
THROUGH_CUT
 10
47.62499999999999
 20
27.88
 30
0.0
  0
VERTEX
  5
7B
  8
THROUGH_CUT
 10
47.625
 20
30.12
 30
0.0
 42
-1.0
  0
VERTEX
  5
7C
  8
THROUGH_CUT
 10
47.625
 20
30.5
 30
0.0
  0
VERTEX
  5
7D
  8
THROUGH_CUT
 10
48.375
 20
30.5
 30
0.0
 42
-1.0
  0
VERTEX
  5
7E
  8
THROUGH_CUT
 10
48.375
 20
30.12
 30
0.0
  0
VERTEX
  5
7F
  8
THROUGH_CUT
 10
48.37499999999999
 20
27.88
 30
0.0
 42
-1.0
  0
SEQEND
  5
80
  8
THROUGH_CUT
  0
POLYLINE
  5
43
  8
THROUGH_CUT
 66
     1
 10
0.0
 20
0.0
 30
0.0
 70
     1
  0
VERTEX
  5
81
  8
THROUGH_CUT
 10
70.375
 20
30.12
 30
0.0
  0
VERTEX
  5
82
  8
THROUGH_CUT
 10
70.375
 20
27.88
 30
0.0
 42
-1.0
  0
VERTEX
  5
83
  8
THROUGH_CUT
 10
70.375
 20
27.5
 30
0.0
  0
VERTEX
  5
84
  8
THROUGH_CUT
 10
69.625
 20
27.5
 30
0.0
 42
-1.0
  0
VERTEX
  5
85
  8
THROUGH_CUT
 10
69.625
 20
27.88
 30
0.0
  0
VERTEX
  5
86
  8
THROUGH_CUT
 10
69.625
 20
30.12
 30
0.0
 42
-1.0
  0
VERTEX
  5
87
  8
THROUGH_CUT
 10
69.625
 20
30.5
 30
0.0
  0
VERTEX
  5
88
  8
THROUGH_CUT
 10
70.375
 20
30.5
 30
0.0
 42
-1.0
  0
SEQEND
  5
89
  8
THROUGH_CUT
  0
POLYLINE
  5
44
  8
THROUGH_CUT
 66
     1
 10
0.0
 20
0.0
 30
0.0
 70
     1
  0
VERTEX
  5
8A
  8
THROUGH_CUT
 10
79.27962297563991
 20
5.824955000000003
 30
0.0
 42
0.4142135623730951
  0
VERTEX
  5
8B
  8
THROUGH_CUT
 10
79.07962297563991
 20
5.624955
 30
0.0
 42
0.4142135623730951
  0
VERTEX
  5
8C
  8
THROUGH_CUT
 10
79.27962297563991
 20
5.424954999999997
 30
0.0
 42
0.4142135623730951
  0
VERTEX
  5
8D
  8
THROUGH_CUT
 10
79.47962297563991
 20
5.624955
 30
0.0
 42
0.4142135623730951
  0
SEQEND
  5
8E
  8
THROUGH_CUT
  0
POLYLINE
  5
45
  8
THROUGH_CUT
 66
     1
 10
0.0
 20
0.0
 30
0.0
 70
     1
  0
VERTEX
  5
8F
  8
THROUGH_CUT
 10
91.27962297563991
 20
5.824955000000003
 30
0.0
 42
0.4142135623730951
  0
VERTEX
  5
90
  8
THROUGH_CUT
 10
91.07962297563991
 20
5.624955
 30
0.0
 42
0.4142135623730951
  0
VERTEX
  5
91
  8
THROUGH_CUT
 10
91.27962297563991
 20
5.424954999999997
 30
0.0
 42
0.4142135623730951
  0
VERTEX
  5
92
  8
THROUGH_CUT
 10
91.47962297563991
 20
5.624955
 30
0.0
 42
0.4142135623730951
  0
SEQEND
  5
93
  8
THROUGH_CUT
  0
POLYLINE
  5
46
  8
THROUGH_CUT
 66
     1
 10
0.0
 20
0.0
 30
0.0
 70
     1
  0
VERTEX
  5
94
  8
THROUGH_CUT
 10
4.952833975639905
 20
5.495418000000001
 30
0.0
  0
VERTEX
  5
95
  8
THROUGH_CUT
 10
4.895615975639899
 20
5.481681000000009
 30
0.0
  0
VERTEX
  5
96
  8
THROUGH_CUT
 10
4.841250975639909
 20
5.459162000000006
 30
0.0
  0
VERTEX
  5
97
  8
THROUGH_CUT
 10
4.791077975639908
 20
5.428415999999999
 30
0.0
  0
VERTEX
  5
98
  8
THROUGH_CUT
 10
4.746331975639904
 20
5.390200000000007
 30
0.0
  0
VERTEX
  5
99
  8
THROUGH_CUT
 10
4.708115975639899
 20
5.345454000000004
 30
0.0
  0
VERTEX
  5
9A
  8
THROUGH_CUT
 10
4.677369975639905
 20
5.295281000000003
 30
0.0
  0
VERTEX
  5
9B
  8
THROUGH_CUT
 10
4.654850975639917
 20
5.240915999999999
 30
0.0
  0
VERTEX
  5
9C
  8
THROUGH_CUT
 10
4.641113975639897
 20
5.183698000000007
 30
0.0
  0
VERTEX
  5
9D
  8
THROUGH_CUT
 10
4.636496975639901
 20
5.125035000000011
 30
0.0
  0
VERTEX
  5
9E
  8
THROUGH_CUT
 10
4.641113975639897
 20
5.066372000000001
 30
0.0
  0
VERTEX
  5
9F
  8
THROUGH_CUT
 10
4.654850975639917
 20
5.009152999999998
 30
0.0
  0
VERTEX
  5
A0
  8
THROUGH_CUT
 10
4.677369975639905
 20
4.954788000000008
 30
0.0
  0
VERTEX
  5
A1
  8
THROUGH_CUT
 10
4.708115975639899
 20
4.904615000000007
 30
0.0
  0
VERTEX
  5
A2
  8
THROUGH_CUT
 10
4.746331975639904
 20
4.859870000000001
 30
0.0
  0
VERTEX
  5
A3
  8
THROUGH_CUT
 10
4.791077975639908
 20
4.821652999999998
 30
0.0
  0
VERTEX
  5
A4
  8
THROUGH_CUT
 10
4.841250975639909
 20
4.790907000000004
 30
0.0
  0
VERTEX
  5
A5
  8
THROUGH_CUT
 10
4.895615975639899
 20
4.768388999999999
 30
0.0
  0
VERTEX
  5
A6
  8
THROUGH_CUT
 10
4.952833975639905
 20
4.754652000000007
 30
0.0
  0
VERTEX
  5
A7
  8
THROUGH_CUT
 10
5.011496975639901
 20
4.750035000000011
 30
0.0
  0
VERTEX
  5
A8
  8
THROUGH_CUT
 10
5.070159975639896
 20
4.754652000000007
 30
0.0
  0
VERTEX
  5
A9
  8
THROUGH_CUT
 10
5.1273789756399
 20
4.768388999999999
 30
0.0
  0
VERTEX
  5
AA
  8
THROUGH_CUT
 10
5.181743975639918
 20
4.790907000000004
 30
0.0
  0
VERTEX
  5
AB
  8
THROUGH_CUT
 10
5.231916975639919
 20
4.821652999999998
 30
0.0
  0
VERTEX
  5
AC
  8
THROUGH_CUT
 10
5.276661975639897
 20
4.859870000000001
 30
0.0
  0
VERTEX
  5
AD
  8
THROUGH_CUT
 10
5.3148789756399
 20
4.904615000000007
 30
0.0
  0
VERTEX
  5
AE
  8
THROUGH_CUT
 10
5.345624975639922
 20
4.954788000000008
 30
0.0
  0
VERTEX
  5
AF
  8
THROUGH_CUT
 10
5.36814397563991
 20
5.009152999999998
 30
0.0
  0
VERTEX
  5
B0
  8
THROUGH_CUT
 10
5.381879975639905
 20
5.066372000000001
 30
0.0
  0
VERTEX
  5
B1
  8
THROUGH_CUT
 10
5.386496975639901
 20
5.125035000000011
 30
0.0
  0
VERTEX
  5
B2
  8
THROUGH_CUT
 10
5.381879975639905
 20
5.183698000000007
 30
0.0
  0
VERTEX
  5
B3
  8
THROUGH_CUT
 10
5.36814397563991
 20
5.240915999999999
 30
0.0
  0
VERTEX
  5
B4
  8
THROUGH_CUT
 10
5.345624975639922
 20
5.295281000000003
 30
0.0
  0
VERTEX
  5
B5
  8
THROUGH_CUT
 10
5.3148789756399
 20
5.345454000000004
 30
0.0
  0
VERTEX
  5
B6
  8
THROUGH_CUT
 10
5.276661975639897
 20
5.390200000000007
 30
0.0
  0
VERTEX
  5
B7
  8
THROUGH_CUT
 10
5.231916975639919
 20
5.428415999999999
 30
0.0
  0
VERTEX
  5
B8
  8
THROUGH_CUT
 10
5.181743975639918
 20
5.459162000000006
 30
0.0
  0
VERTEX
  5
B9
  8
THROUGH_CUT
 10
5.1273789756399
 20
5.481681000000009
 30
0.0
  0
VERTEX
  5
BA
  8
THROUGH_CUT
 10
5.070159975639896
 20
5.495418000000001
 30
0.0
  0
VERTEX
  5
BB
  8
THROUGH_CUT
 10
5.011496975639901
 20
5.500035000000011
 30
0.0
  0
SEQEND
  5
BC
  8
THROUGH_CUT
  0
POLYLINE
  5
47
  8
THROUGH_CUT
 66
     1
 10
0.0
 20
0.0
 30
0.0
  0
VERTEX
  5
BD
  8
THROUGH_CUT
 10
73.90462097563992
 20
9.124999000000003
 30
0.0
  0
VERTEX
  5
BE
  8
THROUGH_CUT
 10
52.6546209756399
 20
9.124999000000003
 30
0.0
  0
VERTEX
  5
BF
  8
THROUGH_CUT
 10
52.6546209756399
 20
5.524999000000008
 30
0.0
  0
VERTEX
  5
C0
  8
THROUGH_CUT
 10
52.68753997563991
 20
5.522271000000003
 30
0.0
  0
VERTEX
  5
C1
  8
THROUGH_CUT
 10
52.71956097563991
 20
5.514161999999999
 30
0.0
  0
VERTEX
  5
C2
  8
THROUGH_CUT
 10
52.74980997563991
 20
5.500894000000002
 30
0.0
  0
VERTEX
  5
C3
  8
THROUGH_CUT
 10
52.77746297563991
 20
5.482827
 30
0.0
  0
VERTEX
  5
C4
  8
THROUGH_CUT
 10
52.80176597563991
 20
5.46045500000001
 30
0.0
  0
VERTEX
  5
C5
  8
THROUGH_CUT
 10
52.82205397563992
 20
5.434387999999998
 30
0.0
  0
VERTEX
  5
C6
  8
THROUGH_CUT
 10
52.8377759756399
 20
5.405338
 30
0.0
  0
VERTEX
  5
C7
  8
THROUGH_CUT
 10
52.84850097563991
 20
5.374096000000009
 30
0.0
  0
VERTEX
  5
C8
  8
THROUGH_CUT
 10
52.85393797563991
 20
5.341515000000001
 30
0.0
  0
VERTEX
  5
C9
  8
THROUGH_CUT
 10
52.85393797563991
 20
5.30848300000001
 30
0.0
  0
VERTEX
  5
CA
  8
THROUGH_CUT
 10
52.84850097563991
 20
5.275902000000002
 30
0.0
  0
VERTEX
  5
CB
  8
THROUGH_CUT
 10
52.8377759756399
 20
5.24466000000001
 30
0.0
  0
VERTEX
  5
CC
  8
THROUGH_CUT
 10
52.82205397563992
 20
5.215609000000001
 30
0.0
  0
VERTEX
  5
CD
  8
THROUGH_CUT
 10
52.80176597563991
 20
5.189542000000003
 30
0.0
  0
VERTEX
  5
CE
  8
THROUGH_CUT
 10
52.77746297563991
 20
5.16717100000001
 30
0.0
  0
VERTEX
  5
CF
  8
THROUGH_CUT
 10
52.74980997563991
 20
5.149104000000008
 30
0.0
  0
VERTEX
  5
D0
  8
THROUGH_CUT
 10
52.71956097563991
 20
5.135835
 30
0.0
  0
VERTEX
  5
D1
  8
THROUGH_CUT
 10
52.68753997563991
 20
5.127727000000007
 30
0.0
  0
VERTEX
  5
D2
  8
THROUGH_CUT
 10
52.6546209756399
 20
5.124999000000003
 30
0.0
  0
VERTEX
  5
D3
  8
THROUGH_CUT
 10
51.9046209756399
 20
5.124999000000003
 30
0.0
  0
VERTEX
  5
D4
  8
THROUGH_CUT
 10
51.87170197563991
 20
5.127727000000007
 30
0.0
  0
VERTEX
  5
D5
  8
THROUGH_CUT
 10
51.83968097563991
 20
5.135835
 30
0.0
  0
VERTEX
  5
D6
  8
THROUGH_CUT
 10
51.8094309756399
 20
5.149104000000008
 30
0.0
  0
VERTEX
  5
D7
  8
THROUGH_CUT
 10
51.78177797563991
 20
5.16717100000001
 30
0.0
  0
VERTEX
  5
D8
  8
THROUGH_CUT
 10
51.75747597563991
 20
5.189542000000003
 30
0.0
  0
VERTEX
  5
D9
  8
THROUGH_CUT
 10
51.73718797563991
 20
5.215609000000001
 30
0.0
  0
VERTEX
  5
DA
  8
THROUGH_CUT
 10
51.7214659756399
 20
5.24466000000001
 30
0.0
  0
VERTEX
  5
DB
  8
THROUGH_CUT
 10
51.71074097563991
 20
5.275902000000002
 30
0.0
  0
VERTEX
  5
DC
  8
THROUGH_CUT
 10
51.70530397563991
 20
5.30848300000001
 30
0.0
  0
VERTEX
  5
DD
  8
THROUGH_CUT
 10
51.70530397563991
 20
5.341515000000001
 30
0.0
  0
VERTEX
  5
DE
  8
THROUGH_CUT
 10
51.71074097563991
 20
5.374096000000009
 30
0.0
  0
VERTEX
  5
DF
  8
THROUGH_CUT
 10
51.7214659756399
 20
5.405338
 30
0.0
  0
VERTEX
  5
E0
  8
THROUGH_CUT
 10
51.73718797563991
 20
5.434387999999998
 30
0.0
  0
VERTEX
  5
E1
  8
THROUGH_CUT
 10
51.75747597563991
 20
5.46045500000001
 30
0.0
  0
VERTEX
  5
E2
  8
THROUGH_CUT
 10
51.78177797563991
 20
5.482827
 30
0.0
  0
VERTEX
  5
E3
  8
THROUGH_CUT
 10
51.8094309756399
 20
5.500894000000002
 30
0.0
  0
VERTEX
  5
E4
  8
THROUGH_CUT
 10
51.83968097563991
 20
5.514161999999999
 30
0.0
  0
VERTEX
  5
E5
  8
THROUGH_CUT
 10
51.87170197563991
 20
5.522271000000003
 30
0.0
  0
VERTEX
  5
E6
  8
THROUGH_CUT
 10
51.9046209756399
 20
5.524999000000008
 30
0.0
  0
VERTEX
  5
E7
  8
THROUGH_CUT
 10
51.9046209756399
 20
9.124999000000003
 30
0.0
  0
VERTEX
  5
E8
  8
THROUGH_CUT
 10
30.6546209756399
 20
9.124999000000003
 30
0.0
  0
VERTEX
  5
E9
  8
THROUGH_CUT
 10
30.6546209756399
 20
5.524999000000008
 30
0.0
  0
VERTEX
  5
EA
  8
THROUGH_CUT
 10
30.68753997563989
 20
5.522271000000003
 30
0.0
  0
VERTEX
  5
EB
  8
THROUGH_CUT
 10
30.71956097563991
 20
5.514161999999999
 30
0.0
  0
VERTEX
  5
EC
  8
THROUGH_CUT
 10
30.74980997563991
 20
5.500894000000002
 30
0.0
  0
VERTEX
  5
ED
  8
THROUGH_CUT
 10
30.77746297563992
 20
5.482827
 30
0.0
  0
VERTEX
  5
EE
  8
THROUGH_CUT
 10
30.80176597563992
 20
5.46045500000001
 30
0.0
  0
VERTEX
  5
EF
  8
THROUGH_CUT
 10
30.82205397563992
 20
5.434387999999998
 30
0.0
  0
VERTEX
  5
F0
  8
THROUGH_CUT
 10
30.8377759756399
 20
5.405338
 30
0.0
  0
VERTEX
  5
F1
  8
THROUGH_CUT
 10
30.84850097563991
 20
5.374096000000009
 30
0.0
  0
VERTEX
  5
F2
  8
THROUGH_CUT
 10
30.85393797563991
 20
5.341515000000001
 30
0.0
  0
VERTEX
  5
F3
  8
THROUGH_CUT
 10
30.85393797563991
 20
5.30848300000001
 30
0.0
  0
VERTEX
  5
F4
  8
THROUGH_CUT
 10
30.84850097563991
 20
5.275902000000002
 30
0.0
  0
VERTEX
  5
F5
  8
THROUGH_CUT
 10
30.8377759756399
 20
5.24466000000001
 30
0.0
  0
VERTEX
  5
F6
  8
THROUGH_CUT
 10
30.82205397563992
 20
5.215609000000001
 30
0.0
  0
VERTEX
  5
F7
  8
THROUGH_CUT
 10
30.80176597563992
 20
5.189542000000003
 30
0.0
  0
VERTEX
  5
F8
  8
THROUGH_CUT
 10
30.77746297563992
 20
5.16717100000001
 30
0.0
  0
VERTEX
  5
F9
  8
THROUGH_CUT
 10
30.74980997563991
 20
5.149104000000008
 30
0.0
  0
VERTEX
  5
FA
  8
THROUGH_CUT
 10
30.71956097563991
 20
5.135835
 30
0.0
  0
VERTEX
  5
FB
  8
THROUGH_CUT
 10
30.68753997563989
 20
5.127727000000007
 30
0.0
  0
VERTEX
  5
FC
  8
THROUGH_CUT
 10
30.6546209756399
 20
5.124999000000003
 30
0.0
  0
VERTEX
  5
FD
  8
THROUGH_CUT
 10
29.9046209756399
 20
5.124999000000003
 30
0.0
  0
VERTEX
  5
FE
  8
THROUGH_CUT
 10
29.87170197563991
 20
5.127727000000007
 30
0.0
  0
VERTEX
  5
FF
  8
THROUGH_CUT
 10
29.83968097563992
 20
5.135835
 30
0.0
  0
VERTEX
  5
100
  8
THROUGH_CUT
 10
29.8094309756399
 20
5.149104000000008
 30
0.0
  0
VERTEX
  5
101
  8
THROUGH_CUT
 10
29.78177797563991
 20
5.16717100000001
 30
0.0
  0
VERTEX
  5
102
  8
THROUGH_CUT
 10
29.75747597563991
 20
5.189542000000003
 30
0.0
  0
VERTEX
  5
103
  8
THROUGH_CUT
 10
29.73718797563991
 20
5.215609000000001
 30
0.0
  0
VERTEX
  5
104
  8
THROUGH_CUT
 10
29.7214659756399
 20
5.24466000000001
 30
0.0
  0
VERTEX
  5
105
  8
THROUGH_CUT
 10
29.71074097563992
 20
5.275902000000002
 30
0.0
  0
VERTEX
  5
106
  8
THROUGH_CUT
 10
29.70530397563989
 20
5.30848300000001
 30
0.0
  0
VERTEX
  5
107
  8
THROUGH_CUT
 10
29.70530397563989
 20
5.341515000000001
 30
0.0
  0
VERTEX
  5
108
  8
THROUGH_CUT
 10
29.71074097563992
 20
5.374096000000009
 30
0.0
  0
VERTEX
  5
109
  8
THROUGH_CUT
 10
29.7214659756399
 20
5.405338
 30
0.0
  0
VERTEX
  5
10A
  8
THROUGH_CUT
 10
29.73718797563991
 20
5.434387999999998
 30
0.0
  0
VERTEX
  5
10B
  8
THROUGH_CUT
 10
29.75747597563991
 20
5.46045500000001
 30
0.0
  0
VERTEX
  5
10C
  8
THROUGH_CUT
 10
29.78177797563991
 20
5.482827
 30
0.0
  0
VERTEX
  5
10D
  8
THROUGH_CUT
 10
29.8094309756399
 20
5.500894000000002
 30
0.0
  0
VERTEX
  5
10E
  8
THROUGH_CUT
 10
29.83968097563992
 20
5.514161999999999
 30
0.0
  0
VERTEX
  5
10F
  8
THROUGH_CUT
 10
29.87170197563991
 20
5.522271000000003
 30
0.0
  0
VERTEX
  5
110
  8
THROUGH_CUT
 10
29.9046209756399
 20
5.524999000000008
 30
0.0
  0
VERTEX
  5
111
  8
THROUGH_CUT
 10
29.9046209756399
 20
9.124999000000003
 30
0.0
  0
VERTEX
  5
112
  8
THROUGH_CUT
 10
8.6546209756399
 20
9.124999000000003
 30
0.0
  0
VERTEX
  5
113
  8
THROUGH_CUT
 10
8.6546209756399
 20
5.524999000000008
 30
0.0
  0
VERTEX
  5
114
  8
THROUGH_CUT
 10
8.687539975639922
 20
5.522271000000003
 30
0.0
  0
VERTEX
  5
115
  8
THROUGH_CUT
 10
8.719560975639908
 20
5.514161999999999
 30
0.0
  0
VERTEX
  5
116
  8
THROUGH_CUT
 10
8.749809975639906
 20
5.500894000000002
 30
0.0
  0
VERTEX
  5
117
  8
THROUGH_CUT
 10
8.77746297563992
 20
5.482827
 30
0.0
  0
VERTEX
  5
118
  8
THROUGH_CUT
 10
8.801765975639924
 20
5.46045500000001
 30
0.0
  0
VERTEX
  5
119
  8
THROUGH_CUT
 10
8.822053975639918
 20
5.434387999999998
 30
0.0
  0
VERTEX
  5
11A
  8
THROUGH_CUT
 10
8.8377759756399
 20
5.405338
 30
0.0
  0
VERTEX
  5
11B
  8
THROUGH_CUT
 10
8.848500975639908
 20
5.374096000000009
 30
0.0
  0
VERTEX
  5
11C
  8
THROUGH_CUT
 10
8.853937975639909
 20
5.341515000000001
 30
0.0
  0
VERTEX
  5
11D
  8
THROUGH_CUT
 10
8.853937975639909
 20
5.30848300000001
 30
0.0
  0
VERTEX
  5
11E
  8
THROUGH_CUT
 10
8.848500975639908
 20
5.275902000000002
 30
0.0
  0
VERTEX
  5
11F
  8
THROUGH_CUT
 10
8.8377759756399
 20
5.24466000000001
 30
0.0
  0
VERTEX
  5
120
  8
THROUGH_CUT
 10
8.822053975639918
 20
5.215609000000001
 30
0.0
  0
VERTEX
  5
121
  8
THROUGH_CUT
 10
8.801765975639924
 20
5.189542000000003
 30
0.0
  0
VERTEX
  5
122
  8
THROUGH_CUT
 10
8.77746297563992
 20
5.16717100000001
 30
0.0
  0
VERTEX
  5
123
  8
THROUGH_CUT
 10
8.749809975639906
 20
5.149104000000008
 30
0.0
  0
VERTEX
  5
124
  8
THROUGH_CUT
 10
8.719560975639908
 20
5.135835
 30
0.0
  0
VERTEX
  5
125
  8
THROUGH_CUT
 10
8.687539975639922
 20
5.127727000000007
 30
0.0
  0
VERTEX
  5
126
  8
THROUGH_CUT
 10
8.6546209756399
 20
5.124999000000003
 30
0.0
  0
VERTEX
  5
127
  8
THROUGH_CUT
 10
7.904620975639901
 20
5.124999000000003
 30
0.0
  0
VERTEX
  5
128
  8
THROUGH_CUT
 10
7.871701975639908
 20
5.127727000000007
 30
0.0
  0
VERTEX
  5
129
  8
THROUGH_CUT
 10
7.839680975639922
 20
5.135835
 30
0.0
  0
VERTEX
  5
12A
  8
THROUGH_CUT
 10
7.809430975639899
 20
5.149104000000008
 30
0.0
  0
VERTEX
  5
12B
  8
THROUGH_CUT
 10
7.781777975639912
 20
5.16717100000001
 30
0.0
  0
VERTEX
  5
12C
  8
THROUGH_CUT
 10
7.757475975639906
 20
5.189542000000003
 30
0.0
  0
VERTEX
  5
12D
  8
THROUGH_CUT
 10
7.737187975639912
 20
5.215609000000001
 30
0.0
  0
VERTEX
  5
12E
  8
THROUGH_CUT
 10
7.721465975639902
 20
5.24466000000001
 30
0.0
  0
VERTEX
  5
12F
  8
THROUGH_CUT
 10
7.710740975639922
 20
5.275902000000002
 30
0.0
  0
VERTEX
  5
130
  8
THROUGH_CUT
 10
7.705303975639922
 20
5.30848300000001
 30
0.0
  0
VERTEX
  5
131
  8
THROUGH_CUT
 10
7.705303975639922
 20
5.341515000000001
 30
0.0
  0
VERTEX
  5
132
  8
THROUGH_CUT
 10
7.710740975639922
 20
5.374096000000009
 30
0.0
  0
VERTEX
  5
133
  8
THROUGH_CUT
 10
7.721465975639902
 20
5.405338
 30
0.0
  0
VERTEX
  5
134
  8
THROUGH_CUT
 10
7.737187975639912
 20
5.434387999999998
 30
0.0
  0
VERTEX
  5
135
  8
THROUGH_CUT
 10
7.757475975639906
 20
5.46045500000001
 30
0.0
  0
VERTEX
  5
136
  8
THROUGH_CUT
 10
7.781777975639912
 20
5.482827
 30
0.0
  0
VERTEX
  5
137
  8
THROUGH_CUT
 10
7.809430975639899
 20
5.500894000000002
 30
0.0
  0
VERTEX
  5
138
  8
THROUGH_CUT
 10
7.839680975639922
 20
5.514161999999999
 30
0.0
  0
VERTEX
  5
139
  8
THROUGH_CUT
 10
7.871701975639908
 20
5.522271000000003
 30
0.0
  0
VERTEX
  5
13A
  8
THROUGH_CUT
 10
7.904620975639901
 20
5.524999000000008
 30
0.0
  0
VERTEX
  5
13B
  8
THROUGH_CUT
 10
7.904620975639901
 20
9.124999000000003
 30
0.0
  0
VERTEX
  5
13C
  8
THROUGH_CUT
 10
5.761538975639908
 20
9.124999000000003
 30
0.0
  0
VERTEX
  5
13D
  8
THROUGH_CUT
 10
5.761538975639908
 20
7.407842000000002
 30
0.0
  0
VERTEX
  5
13E
  8
THROUGH_CUT
 10
5.783947975639919
 20
7.381135999999998
 30
0.0
  0
VERTEX
  5
13F
  8
THROUGH_CUT
 10
5.801379975639904
 20
7.350943999999998
 30
0.0
  0
VERTEX
  5
140
  8
THROUGH_CUT
 10
5.8133029756399
 20
7.318184000000002
 30
0.0
  0
VERTEX
  5
141
  8
THROUGH_CUT
 10
5.819356975639906
 20
7.28385200000001
 30
0.0
  0
VERTEX
  5
142
  8
THROUGH_CUT
 10
5.819356975639906
 20
7.248990000000006
 30
0.0
  0
VERTEX
  5
143
  8
THROUGH_CUT
 10
5.8133029756399
 20
7.214657000000003
 30
0.0
  0
VERTEX
  5
144
  8
THROUGH_CUT
 10
5.801379975639904
 20
7.181897000000006
 30
0.0
  0
VERTEX
  5
145
  8
THROUGH_CUT
 10
5.783948975639916
 20
7.151705000000007
 30
0.0
  0
VERTEX
  5
146
  8
THROUGH_CUT
 10
5.761539975639906
 20
7.124999000000003
 30
0.0
  0
VERTEX
  5
147
  8
THROUGH_CUT
 10
5.734833975639916
 20
7.102590000000006
 30
0.0
  0
VERTEX
  5
148
  8
THROUGH_CUT
 10
5.704641975639916
 20
7.085159000000004
 30
0.0
  0
VERTEX
  5
149
  8
THROUGH_CUT
 10
5.67188197563992
 20
7.073235000000011
 30
0.0
  0
VERTEX
  5
14A
  8
THROUGH_CUT
 10
5.637549975639914
 20
7.067182000000003
 30
0.0
  0
VERTEX
  5
14B
  8
THROUGH_CUT
 10
5.602686975639912
 20
7.067181000000005
 30
0.0
  0
VERTEX
  5
14C
  8
THROUGH_CUT
 10
5.568354975639906
 20
7.073235000000011
 30
0.0
  0
VERTEX
  5
14D
  8
THROUGH_CUT
 10
5.53559497563991
 20
7.085159000000004
 30
0.0
  0
VERTEX
  5
14E
  8
THROUGH_CUT
 10
5.50540297563991
 20
7.102590000000006
 30
0.0
  0
VERTEX
  5
14F
  8
THROUGH_CUT
 10
5.47869697563992
 20
7.124999000000003
 30
0.0
  0
VERTEX
  5
150
  8
THROUGH_CUT
 10
4.499742975639904
 20
7.124999000000003
 30
0.0
 42
0.4142135623731005
  0
VERTEX
  5
151
  8
THROUGH_CUT
 10
3.999742975639904
 20
6.624999000000003
 30
0.0
  0
VERTEX
  5
152
  8
THROUGH_CUT
 10
3.999742975639904
 20
3.624999000000003
 30
0.0
 42
0.4142135623731005
  0
VERTEX
  5
153
  8
THROUGH_CUT
 10
4.499742975639904
 20
3.124999000000003
 30
0.0
  0
VERTEX
  5
154
  8
THROUGH_CUT
 10
5.47869697563992
 20
3.124999000000003
 30
0.0
  0
VERTEX
  5
155
  8
THROUGH_CUT
 10
5.503902975639917
 20
3.146347000000006
 30
0.0
  0
VERTEX
  5
156
  8
THROUGH_CUT
 10
5.532278975639898
 20
3.163256000000004
 30
0.0
  0
VERTEX
  5
157
  8
THROUGH_CUT
 10
5.563050975639911
 20
3.175263000000001
 30
0.0
  0
VERTEX
  5
158
  8
THROUGH_CUT
 10
5.595379975639915
 20
3.182040999999998
 30
0.0
  0
VERTEX
  5
159
  8
THROUGH_CUT
 10
5.62838397563992
 20
3.183406000000005
 30
0.0
  0
VERTEX
  5
15A
  8
THROUGH_CUT
 10
5.661161975639899
 20
3.179320000000004
 30
0.0
  0
VERTEX
  5
15B
  8
THROUGH_CUT
 10
5.692819975639921
 20
3.169895000000011
 30
0.0
  0
VERTEX
  5
15C
  8
THROUGH_CUT
 10
5.722495975639916
 20
3.155388000000002
 30
0.0
  0
VERTEX
  5
15D
  8
THROUGH_CUT
 10
5.749377975639916
 20
3.136194000000003
 30
0.0
  0
VERTEX
  5
15E
  8
THROUGH_CUT
 10
5.772734975639921
 20
3.112836999999999
 30
0.0
  0
VERTEX
  5
15F
  8
THROUGH_CUT
 10
5.791928975639919
 20
3.085954000000001
 30
0.0
  0
VERTEX
  5
160
  8
THROUGH_CUT
 10
5.8064359756399
 20
3.056278000000006
 30
0.0
  0
VERTEX
  5
161
  8
THROUGH_CUT
 10
5.815861975639919
 20
3.024619999999999
 30
0.0
  0
VERTEX
  5
162
  8
THROUGH_CUT
 10
5.819946975639922
 20
2.991842000000005
 30
0.0
  0
VERTEX
  5
163
  8
THROUGH_CUT
 10
5.818581975639901
 20
2.958838
 30
0.0
  0
VERTEX
  5
164
  8
THROUGH_CUT
 10
5.811803975639904
 20
2.926510000000007
 30
0.0
  0
VERTEX
  5
165
  8
THROUGH_CUT
 10
5.799795975639896
 20
2.895738000000009
 30
0.0
  0
VERTEX
  5
166
  8
THROUGH_CUT
 10
5.782887975639895
 20
2.867362
 30
0.0
  0
VERTEX
  5
167
  8
THROUGH_CUT
 10
5.761538975639908
 20
2.842156000000003
 30
0.0
  0
VERTEX
  5
168
  8
THROUGH_CUT
 10
5.761538975639908
 20
2.124999000000003
 30
0.0
  0
VERTEX
  5
169
  8
THROUGH_CUT
 10
85.27962097563992
 20
2.124998000000005
 30
0.0
  0
VERTEX
  5
16A
  8
THROUGH_CUT
 10
91.94462911488901
 20
4.19228912227365
 30
0.0
 42
0.7368231252251604
  0
VERTEX
  5
16B
  8
THROUGH_CUT
 10
91.94464599145988
 20
7.057615779503841
 30
0.0
  0
VERTEX
  5
16C
  8
THROUGH_CUT
 10
85.27962097563992
 20
9.124999000000003
 30
0.0
  0
VERTEX
  5
16D
  8
THROUGH_CUT
 10
74.65462097563992
 20
9.124999000000003
 30
0.0
  0
SEQEND
  5
16E
  8
THROUGH_CUT
  0
POLYLINE
  5
48
  8
THROUGH_CUT
 66
     1
 10
0.0
 20
0.0
 30
0.0
  0
VERTEX
  5
16F
  8
THROUGH_CUT
 10
74.65462097563992
 20
9.124999000000003
 30
0.0
  0
VERTEX
  5
170
  8
THROUGH_CUT
 10
74.65462097563992
 20
5.524999000000008
 30
0.0
  0
VERTEX
  5
171
  8
THROUGH_CUT
 10
74.68753997563991
 20
5.522271000000003
 30
0.0
  0
VERTEX
  5
172
  8
THROUGH_CUT
 10
74.71956097563991
 20
5.514161999999999
 30
0.0
  0
VERTEX
  5
173
  8
THROUGH_CUT
 10
74.7498099756399
 20
5.500894000000002
 30
0.0
  0
VERTEX
  5
174
  8
THROUGH_CUT
 10
74.7774629756399
 20
5.482827
 30
0.0
  0
VERTEX
  5
175
  8
THROUGH_CUT
 10
74.80176597563991
 20
5.46045500000001
 30
0.0
  0
VERTEX
  5
176
  8
THROUGH_CUT
 10
74.8220539756399
 20
5.434387999999998
 30
0.0
  0
VERTEX
  5
177
  8
THROUGH_CUT
 10
74.83777597563991
 20
5.405338
 30
0.0
  0
VERTEX
  5
178
  8
THROUGH_CUT
 10
74.84850097563991
 20
5.374096000000009
 30
0.0
  0
VERTEX
  5
179
  8
THROUGH_CUT
 10
74.85393797563991
 20
5.341515000000001
 30
0.0
  0
VERTEX
  5
17A
  8
THROUGH_CUT
 10
74.85393797563991
 20
5.30848300000001
 30
0.0
  0
VERTEX
  5
17B
  8
THROUGH_CUT
 10
74.84850097563991
 20
5.275902000000002
 30
0.0
  0
VERTEX
  5
17C
  8
THROUGH_CUT
 10
74.83777597563991
 20
5.24466000000001
 30
0.0
  0
VERTEX
  5
17D
  8
THROUGH_CUT
 10
74.8220539756399
 20
5.215609000000001
 30
0.0
  0
VERTEX
  5
17E
  8
THROUGH_CUT
 10
74.80176597563991
 20
5.189542000000003
 30
0.0
  0
VERTEX
  5
17F
  8
THROUGH_CUT
 10
74.7774629756399
 20
5.16717100000001
 30
0.0
  0
VERTEX
  5
180
  8
THROUGH_CUT
 10
74.7498099756399
 20
5.149104000000008
 30
0.0
  0
VERTEX
  5
181
  8
THROUGH_CUT
 10
74.71956097563991
 20
5.135835
 30
0.0
  0
VERTEX
  5
182
  8
THROUGH_CUT
 10
74.68753997563991
 20
5.127727000000007
 30
0.0
  0
VERTEX
  5
183
  8
THROUGH_CUT
 10
74.65462097563992
 20
5.124999000000003
 30
0.0
  0
VERTEX
  5
184
  8
THROUGH_CUT
 10
73.90462097563992
 20
5.124999000000003
 30
0.0
  0
VERTEX
  5
185
  8
THROUGH_CUT
 10
73.87170197563991
 20
5.127727000000007
 30
0.0
  0
VERTEX
  5
186
  8
THROUGH_CUT
 10
73.83968097563991
 20
5.135835
 30
0.0
  0
VERTEX
  5
187
  8
THROUGH_CUT
 10
73.80943097563991
 20
5.149104000000008
 30
0.0
  0
VERTEX
  5
188
  8
THROUGH_CUT
 10
73.78177797563991
 20
5.16717100000001
 30
0.0
  0
VERTEX
  5
189
  8
THROUGH_CUT
 10
73.7574759756399
 20
5.189542000000003
 30
0.0
  0
VERTEX
  5
18A
  8
THROUGH_CUT
 10
73.73718797563991
 20
5.215609000000001
 30
0.0
  0
VERTEX
  5
18B
  8
THROUGH_CUT
 10
73.72146597563992
 20
5.24466000000001
 30
0.0
  0
VERTEX
  5
18C
  8
THROUGH_CUT
 10
73.71074097563991
 20
5.275902000000002
 30
0.0
  0
VERTEX
  5
18D
  8
THROUGH_CUT
 10
73.70530397563991
 20
5.30848300000001
 30
0.0
  0
VERTEX
  5
18E
  8
THROUGH_CUT
 10
73.70530397563991
 20
5.341515000000001
 30
0.0
  0
VERTEX
  5
18F
  8
THROUGH_CUT
 10
73.71074097563991
 20
5.374096000000009
 30
0.0
  0
VERTEX
  5
190
  8
THROUGH_CUT
 10
73.72146597563992
 20
5.405338
 30
0.0
  0
VERTEX
  5
191
  8
THROUGH_CUT
 10
73.73718797563991
 20
5.434387999999998
 30
0.0
  0
VERTEX
  5
192
  8
THROUGH_CUT
 10
73.7574759756399
 20
5.46045500000001
 30
0.0
  0
VERTEX
  5
193
  8
THROUGH_CUT
 10
73.78177797563991
 20
5.482827
 30
0.0
  0
VERTEX
  5
194
  8
THROUGH_CUT
 10
73.80943097563991
 20
5.500894000000002
 30
0.0
  0
VERTEX
  5
195
  8
THROUGH_CUT
 10
73.83968097563991
 20
5.514161999999999
 30
0.0
  0
VERTEX
  5
196
  8
THROUGH_CUT
 10
73.87170197563991
 20
5.522271000000003
 30
0.0
  0
VERTEX
  5
197
  8
THROUGH_CUT
 10
73.90462097563992
 20
5.524999000000008
 30
0.0
  0
VERTEX
  5
198
  8
THROUGH_CUT
 10
73.90462097563992
 20
9.124999000000003
 30
0.0
  0
SEQEND
  5
199
  8
THROUGH_CUT
  0
POLYLINE
  5
49
  8
THROUGH_CUT
 66
     1
 10
0.0
 20
0.0
 30
0.0
 70
     1
  0
VERTEX
  5
19A
  8
THROUGH_CUT
 10
91.62499999999999
 20
12.12499999999999
 30
0.0
  0
VERTEX
  5
19B
  8
THROUGH_CUT
 10
91.62499999999999
 20
18.30749999999999
 30
0.0
 42
-1.0
  0
VERTEX
  5
19C
  8
THROUGH_CUT
 10
91.62499999999999
 20
18.68749999999999
 30
0.0
  0
VERTEX
  5
19D
  8
THROUGH_CUT
 10
92.37499999999999
 20
18.68749999999999
 30
0.0
  0
VERTEX
  5
19E
  8
THROUGH_CUT
 10
92.37499999999999
 20
25.49999999999999
 30
0.0
  0
VERTEX
  5
19F
  8
THROUGH_CUT
 10
91.99999999999999
 20
25.49999999999999
 30
0.0
 42
-1.0
  0
VERTEX
  5
1A0
  8
THROUGH_CUT
 10
91.99999999999999
 20
25.88
 30
0.0
  0
VERTEX
  5
1A1
  8
THROUGH_CUT
 10
91.99999999999999
 20
27.49999999999999
 30
0.0
  0
VERTEX
  5
1A2
  8
THROUGH_CUT
 10
91.62499999999999
 20
27.49999999999999
 30
0.0
 42
-1.0
  0
VERTEX
  5
1A3
  8
THROUGH_CUT
 10
91.62499999999999
 20
27.87999999999999
 30
0.0
  0
VERTEX
  5
1A4
  8
THROUGH_CUT
 10
91.62499999999999
 20
30.11999999999999
 30
0.0
 42
-1.0
  0
VERTEX
  5
1A5
  8
THROUGH_CUT
 10
91.62499999999999
 20
30.49999999999999
 30
0.0
  0
VERTEX
  5
1A6
  8
THROUGH_CUT
 10
91.99999999999999
 20
30.49999999999999
 30
0.0
  0
VERTEX
  5
1A7
  8
THROUGH_CUT
 10
91.99999999999999
 20
32.11999999999999
 30
0.0
 42
-1.0
  0
VERTEX
  5
1A8
  8
THROUGH_CUT
 10
91.99999999999999
 20
32.49999999999999
 30
0.0
  0
VERTEX
  5
1A9
  8
THROUGH_CUT
 10
92.37499999999999
 20
32.49999999999999
 30
0.0
  0
VERTEX
  5
1AA
  8
THROUGH_CUT
 10
92.37499999999999
 20
39.31249999999999
 30
0.0
  0
VERTEX
  5
1AB
  8
THROUGH_CUT
 10
91.62499999999999
 20
39.31249999999999
 30
0.0
 42
-1.0
  0
VERTEX
  5
1AC
  8
THROUGH_CUT
 10
91.62499999999999
 20
39.6925
 30
0.0
  0
VERTEX
  5
1AD
  8
THROUGH_CUT
 10
91.625
 20
45.87499999999999
 30
0.0
  0
VERTEX
  5
1AE
  8
THROUGH_CUT
 10
81.38
 20
45.87499999999999
 30
0.0
 42
-1.0
  0
VERTEX
  5
1AF
  8
THROUGH_CUT
 10
81.0
 20
45.87499999999999
 30
0.0
  0
VERTEX
  5
1B0
  8
THROUGH_CUT
 10
81.0
 20
46.62499999999999
 30
0.0
  0
VERTEX
  5
1B1
  8
THROUGH_CUT
 10
70.0
 20
46.625
 30
0.0
  0
VERTEX
  5
1B2
  8
THROUGH_CUT
 10
59.0
 20
46.625
 30
0.0
  0
VERTEX
  5
1B3
  8
THROUGH_CUT
 10
59.0
 20
45.875
 30
0.0
 42
-1.0
  0
VERTEX
  5
1B4
  8
THROUGH_CUT
 10
58.61999999999999
 20
45.875
 30
0.0
  0
VERTEX
  5
1B5
  8
THROUGH_CUT
 10
48.0
 20
45.875
 30
0.0
  0
VERTEX
  5
1B6
  8
THROUGH_CUT
 10
37.38000000000001
 20
45.875
 30
0.0
 42
-1.0
  0
VERTEX
  5
1B7
  8
THROUGH_CUT
 10
37.00000000000001
 20
45.875
 30
0.0
  0
VERTEX
  5
1B8
  8
THROUGH_CUT
 10
37.00000000000001
 20
46.625
 30
0.0
  0
VERTEX
  5
1B9
  8
THROUGH_CUT
 10
26.00000000000001
 20
46.625
 30
0.0
  0
VERTEX
  5
1BA
  8
THROUGH_CUT
 10
15.00000000000001
 20
46.625
 30
0.0
  0
VERTEX
  5
1BB
  8
THROUGH_CUT
 10
15.00000000000001
 20
45.875
 30
0.0
 42
-1.0
  0
VERTEX
  5
1BC
  8
THROUGH_CUT
 10
14.62000000000001
 20
45.875
 30
0.0
  0
VERTEX
  5
1BD
  8
THROUGH_CUT
 10
3.625000000000008
 20
45.875
 30
0.0
  0
VERTEX
  5
1BE
  8
THROUGH_CUT
 10
3.625000000000008
 20
30.5
 30
0.0
  0
VERTEX
  5
1BF
  8
THROUGH_CUT
 10
4.375000000000009
 20
30.5
 30
0.0
 42
-1.0
  0
VERTEX
  5
1C0
  8
THROUGH_CUT
 10
4.375000000000009
 20
30.12
 30
0.0
  0
VERTEX
  5
1C1
  8
THROUGH_CUT
 10
4.375000000000009
 20
27.88
 30
0.0
 42
-1.0
  0
VERTEX
  5
1C2
  8
THROUGH_CUT
 10
4.375000000000009
 20
27.5
 30
0.0
  0
VERTEX
  5
1C3
  8
THROUGH_CUT
 10
3.625000000000008
 20
27.5
 30
0.0
  0
VERTEX
  5
1C4
  8
THROUGH_CUT
 10
3.625000000000008
 20
12.12500000000001
 30
0.0
  0
VERTEX
  5
1C5
  8
THROUGH_CUT
 10
14.62000000000001
 20
12.125
 30
0.0
 42
-1.0
  0
VERTEX
  5
1C6
  8
THROUGH_CUT
 10
15.00000000000001
 20
12.125
 30
0.0
  0
VERTEX
  5
1C7
  8
THROUGH_CUT
 10
15.00000000000001
 20
11.375
 30
0.0
  0
VERTEX
  5
1C8
  8
THROUGH_CUT
 10
26.00000000000001
 20
11.375
 30
0.0
  0
VERTEX
  5
1C9
  8
THROUGH_CUT
 10
37.0
 20
11.375
 30
0.0
  0
VERTEX
  5
1CA
  8
THROUGH_CUT
 10
37.0
 20
12.125
 30
0.0
 42
-1.0
  0
VERTEX
  5
1CB
  8
THROUGH_CUT
 10
37.38
 20
12.125
 30
0.0
  0
VERTEX
  5
1CC
  8
THROUGH_CUT
 10
47.99999999999999
 20
12.125
 30
0.0
  0
VERTEX
  5
1CD
  8
THROUGH_CUT
 10
58.61999999999998
 20
12.125
 30
0.0
 42
-1.0
  0
VERTEX
  5
1CE
  8
THROUGH_CUT
 10
58.99999999999999
 20
12.125
 30
0.0
  0
VERTEX
  5
1CF
  8
THROUGH_CUT
 10
58.99999999999999
 20
11.375
 30
0.0
  0
VERTEX
  5
1D0
  8
THROUGH_CUT
 10
70.0
 20
11.37499999999999
 30
0.0
  0
VERTEX
  5
1D1
  8
THROUGH_CUT
 10
81.0
 20
11.37499999999999
 30
0.0
  0
VERTEX
  5
1D2
  8
THROUGH_CUT
 10
81.0
 20
12.12499999999999
 30
0.0
 42
-1.0
  0
VERTEX
  5
1D3
  8
THROUGH_CUT
 10
81.38
 20
12.12499999999999
 30
0.0
  0
SEQEND
  5
1D4
  8
THROUGH_CUT
  0
POLYLINE
  5
4B
  8
CUT_HALFWAY_THROUGH
 66
     1
 10
0.0
 20
0.0
 30
0.0
  0
VERTEX
  5
1D5
  8
CUT_HALFWAY_THROUGH
 10
85.42288697563991
 20
8.97312500000001
 30
0.0
  0
VERTEX
  5
1D6
  8
CUT_HALFWAY_THROUGH
 10
78.67014802748648
 20
6.878533895459128
 30
0.0
 42
0.7368230982963234
  0
VERTEX
  5
1D7
  8
CUT_HALFWAY_THROUGH
 10
78.67016292262815
 20
4.371371810735184
 30
0.0
  0
VERTEX
  5
1D8
  8
CUT_HALFWAY_THROUGH
 10
85.42288797563991
 20
2.276873000000009
 30
0.0
  0
VERTEX
  5
1D9
  8
CUT_HALFWAY_THROUGH
 10
85.32737597563991
 20
2.336122000000003
 30
0.0
  0
VERTEX
  5
1DA
  8
CUT_HALFWAY_THROUGH
 10
91.8890828914674
 20
4.371372791683889
 30
0.0
 42
0.7368231252251518
  0
VERTEX
  5
1DB
  8
CUT_HALFWAY_THROUGH
 10
91.88909772096622
 20
6.878532934871629
 30
0.0
  0
VERTEX
  5
1DC
  8
CUT_HALFWAY_THROUGH
 10
85.32737597563991
 20
8.91387300000001
 30
0.0
  0
VERTEX
  5
1DD
  8
CUT_HALFWAY_THROUGH
 10
85.32737597563991
 20
8.599772000000002
 30
0.0
  0
VERTEX
  5
1DE
  8
CUT_HALFWAY_THROUGH
 10
91.80021988817631
 20
6.592000783460094
 30
0.0
 42
-0.7368231252251594
  0
VERTEX
  5
1DF
  8
CUT_HALFWAY_THROUGH
 10
91.8002082339928
 20
4.65790596274028
 30
0.0
  0
VERTEX
  5
1E0
  8
CUT_HALFWAY_THROUGH
 10
85.27962097563992
 20
2.63540900000001
 30
0.0
  0
VERTEX
  5
1E1
  8
CUT_HALFWAY_THROUGH
 10
78.75903707760227
 20
4.657904982567139
 30
0.0
 42
-0.7368230982963302
  0
VERTEX
  5
1E2
  8
CUT_HALFWAY_THROUGH
 10
78.7590258727787
 20
6.592001747925615
 30
0.0
  0
VERTEX
  5
1E3
  8
CUT_HALFWAY_THROUGH
 10
85.27962097563992
 20
8.614585000000005
 30
0.0
  0
VERTEX
  5
1E4
  8
CUT_HALFWAY_THROUGH
 10
85.27962097563992
 20
8.300484000000012
 30
0.0
  0
VERTEX
  5
1E5
  8
CUT_HALFWAY_THROUGH
 10
78.84790321807091
 20
6.305469100392095
 30
0.0
 42
0.7368230982963286
  0
VERTEX
  5
1E6
  8
CUT_HALFWAY_THROUGH
 10
78.84791148951285
 20
4.944438308798198
 30
0.0
  0
VERTEX
  5
1E7
  8
CUT_HALFWAY_THROUGH
 10
85.27962097563992
 20
2.949509000000006
 30
0.0
  0
VERTEX
  5
1E8
  8
CUT_HALFWAY_THROUGH
 10
91.7113340765182
 20
4.944439633796655
 30
0.0
 42
0.7368231252251459
  0
VERTEX
  5
1E9
  8
CUT_HALFWAY_THROUGH
 10
91.71134213513297
 20
6.305468264097115
 30
0.0
  0
VERTEX
  5
1EA
  8
CUT_HALFWAY_THROUGH
 10
85.32737597563991
 20
8.285671000000008
 30
0.0
  0
VERTEX
  5
1EB
  8
CUT_HALFWAY_THROUGH
 10
85.32737597563991
 20
7.971571000000012
 30
0.0
  0
VERTEX
  5
1EC
  8
CUT_HALFWAY_THROUGH
 10
91.62246422259656
 20
6.018935980637025
 30
0.0
 42
-0.7368231252251587
  0
VERTEX
  5
1ED
  8
CUT_HALFWAY_THROUGH
 10
91.62245991904362
 20
5.230972804853046
 30
0.0
  0
VERTEX
  5
1EE
  8
CUT_HALFWAY_THROUGH
 10
85.27962097563992
 20
3.263609000000002
 30
0.0
  0
VERTEX
  5
1EF
  8
CUT_HALFWAY_THROUGH
 10
78.9367858875505
 20
5.230971826231062
 30
0.0
 42
-0.7368230982963322
  0
VERTEX
  5
1F0
  8
CUT_HALFWAY_THROUGH
 10
78.93678106336311
 20
6.018936952858589
 30
0.0
  0
VERTEX
  5
1F1
  8
CUT_HALFWAY_THROUGH
 10
85.27962097563992
 20
7.986384000000001
 30
0.0
  0
VERTEX
  5
1F2
  8
CUT_HALFWAY_THROUGH
 10
85.27962097563992
 20
7.672283000000007
 30
0.0
  0
VERTEX
  5
1F3
  8
CUT_HALFWAY_THROUGH
 10
79.02565890865533
 20
5.732404805325068
 30
0.0
 42
0.7368230982960815
  0
VERTEX
  5
1F4
  8
CUT_HALFWAY_THROUGH
 10
79.0256600425246
 20
5.517504998063018
 30
0.0
  0
VERTEX
  5
1F5
  8
CUT_HALFWAY_THROUGH
 10
85.27962097563992
 20
3.577708000000001
 30
0.0
  0
VERTEX
  5
1F6
  8
CUT_HALFWAY_THROUGH
 10
91.53358526156902
 20
5.51750597590943
 30
0.0
 42
0.7368231252253463
  0
VERTEX
  5
1F7
  8
CUT_HALFWAY_THROUGH
 10
91.53358688980667
 20
5.73240382922549
 30
0.0
  0
VERTEX
  5
1F8
  8
CUT_HALFWAY_THROUGH
 10
85.32737597563991
 20
7.657470000000004
 30
0.0
  0
VERTEX
  5
1F9
  8
CUT_HALFWAY_THROUGH
 10
85.32737597563991
 20
7.34336900000001
 30
0.0
  0
VERTEX
  5
1FA
  8
CUT_HALFWAY_THROUGH
 10
90.86734997563991
 20
5.624959000000004
 30
0.0
  0
VERTEX
  5
1FB
  8
CUT_HALFWAY_THROUGH
 10
85.27962097563992
 20
3.891808000000012
 30
0.0
  0
VERTEX
  5
1FC
  8
CUT_HALFWAY_THROUGH
 10
79.6918919756399
 20
5.624959000000004
 30
0.0
  0
VERTEX
  5
1FD
  8
CUT_HALFWAY_THROUGH
 10
85.27962097563992
 20
7.358181999999999
 30
0.0
  0
VERTEX
  5
1FE
  8
CUT_HALFWAY_THROUGH
 10
85.27962097563992
 20
7.044082000000003
 30
0.0
  0
VERTEX
  5
1FF
  8
CUT_HALFWAY_THROUGH
 10
80.7045389756399
 20
5.624965000000003
 30
0.0
  0
VERTEX
  5
200
  8
CUT_HALFWAY_THROUGH
 10
85.27962097563992
 20
4.20590700000001
 30
0.0
  0
VERTEX
  5
201
  8
CUT_HALFWAY_THROUGH
 10
89.85470297563991
 20
5.624965000000003
 30
0.0
  0
VERTEX
  5
202
  8
CUT_HALFWAY_THROUGH
 10
85.32737597563991
 20
7.029268999999999
 30
0.0
  0
VERTEX
  5
203
  8
CUT_HALFWAY_THROUGH
 10
85.32737597563991
 20
6.715168000000006
 30
0.0
  0
VERTEX
  5
204
  8
CUT_HALFWAY_THROUGH
 10
88.8420569756399
 20
5.624971000000002
 30
0.0
  0
VERTEX
  5
205
  8
CUT_HALFWAY_THROUGH
 10
85.27962097563992
 20
4.520007000000007
 30
0.0
  0
VERTEX
  5
206
  8
CUT_HALFWAY_THROUGH
 10
81.71718597563991
 20
5.624971000000002
 30
0.0
  0
VERTEX
  5
207
  8
CUT_HALFWAY_THROUGH
 10
85.27962097563992
 20
6.729981000000009
 30
0.0
  0
VERTEX
  5
208
  8
CUT_HALFWAY_THROUGH
 10
85.27962097563992
 20
6.415880000000001
 30
0.0
  0
VERTEX
  5
209
  8
CUT_HALFWAY_THROUGH
 10
82.72983197563991
 20
5.624977000000001
 30
0.0
  0
VERTEX
  5
20A
  8
CUT_HALFWAY_THROUGH
 10
85.27962097563992
 20
4.834106000000006
 30
0.0
  0
VERTEX
  5
20B
  8
CUT_HALFWAY_THROUGH
 10
87.8294099756399
 20
5.624977000000001
 30
0.0
  0
VERTEX
  5
20C
  8
CUT_HALFWAY_THROUGH
 10
85.32737597563991
 20
6.401067000000012
 30
0.0
  0
VERTEX
  5
20D
  8
CUT_HALFWAY_THROUGH
 10
85.32737597563991
 20
6.086966000000004
 30
0.0
  0
VERTEX
  5
20E
  8
CUT_HALFWAY_THROUGH
 10
86.8167629756399
 20
5.624983
 30
0.0
  0
VERTEX
  5
20F
  8
CUT_HALFWAY_THROUGH
 10
85.27962097563992
 20
5.148206000000002
 30
0.0
  0
VERTEX
  5
210
  8
CUT_HALFWAY_THROUGH
 10
83.74247897563991
 20
5.624983
 30
0.0
  0
VERTEX
  5
211
  8
CUT_HALFWAY_THROUGH
 10
85.27962097563992
 20
6.101779000000008
 30
0.0
  0
VERTEX
  5
212
  8
CUT_HALFWAY_THROUGH
 10
85.27962097563992
 20
5.787679000000011
 30
0.0
  0
VERTEX
  5
213
  8
CUT_HALFWAY_THROUGH
 10
84.75512597563991
 20
5.624988999999999
 30
0.0
  0
VERTEX
  5
214
  8
CUT_HALFWAY_THROUGH
 10
85.27962097563992
 20
5.462305999999998
 30
0.0
  0
VERTEX
  5
215
  8
CUT_HALFWAY_THROUGH
 10
85.8041159756399
 20
5.624988999999999
 30
0.0
  0
VERTEX
  5
216
  8
CUT_HALFWAY_THROUGH
 10
85.32737597563991
 20
5.772866000000008
 30
0.0
  0
VERTEX
  5
217
  8
CUT_HALFWAY_THROUGH
 10
91.50025797563991
 20
5.624955
 30
0.0
  0
VERTEX
  5
218
  8
CUT_HALFWAY_THROUGH
 10
79.05898797563991
 20
5.624955
 30
0.0
  0
SEQEND
  5
219
  8
CUT_HALFWAY_THROUGH
  0
POLYLINE
  5
4D
  8
RECESS_FOR_SCREWS
 66
     1
 10
0.0
 20
0.0
 30
0.0
 70
     1
  0
VERTEX
  5
21A
  8
RECESS_FOR_SCREWS
 10
75.499869895015
 20
11.54999999999999
 30
0.0
 42
0.4142135623730951
  0
VERTEX
  5
21B
  8
RECESS_FOR_SCREWS
 10
75.699869895015
 20
11.74999999999999
 30
0.0
 42
0.4142135623730951
  0
VERTEX
  5
21C
  8
RECESS_FOR_SCREWS
 10
75.499869895015
 20
11.95
 30
0.0
 42
0.4142135623730951
  0
VERTEX
  5
21D
  8
RECESS_FOR_SCREWS
 10
75.299869895015
 20
11.74999999999999
 30
0.0
 42
0.4142135623730951
  0
SEQEND
  5
21E
  8
RECESS_FOR_SCREWS
  0
POLYLINE
  5
4E
  8
RECESS_FOR_SCREWS
 66
     1
 10
0.0
 20
0.0
 30
0.0
 70
     1
  0
VERTEX
  5
21F
  8
RECESS_FOR_SCREWS
 10
64.49960968504499
 20
11.55
 30
0.0
 42
0.4142135623730951
  0
VERTEX
  5
220
  8
RECESS_FOR_SCREWS
 10
64.69960968504499
 20
11.75
 30
0.0
 42
0.4142135623730951
  0
VERTEX
  5
221
  8
RECESS_FOR_SCREWS
 10
64.49960968504499
 20
11.95
 30
0.0
 42
0.4142135623730951
  0
VERTEX
  5
222
  8
RECESS_FOR_SCREWS
 10
64.29960968504498
 20
11.75
 30
0.0
 42
0.4142135623730951
  0
SEQEND
  5
223
  8
RECESS_FOR_SCREWS
  0
POLYLINE
  5
4F
  8
RECESS_FOR_SCREWS
 66
     1
 10
0.0
 20
0.0
 30
0.0
 70
     1
  0
VERTEX
  5
224
  8
RECESS_FOR_SCREWS
 10
31.50000000000001
 20
11.55
 30
0.0
 42
0.4142135623730951
  0
VERTEX
  5
225
  8
RECESS_FOR_SCREWS
 10
31.70000000000001
 20
11.75
 30
0.0
 42
0.4142135623730951
  0
VERTEX
  5
226
  8
RECESS_FOR_SCREWS
 10
31.50000000000001
 20
11.95
 30
0.0
 42
0.4142135623730951
  0
VERTEX
  5
227
  8
RECESS_FOR_SCREWS
 10
31.3
 20
11.75
 30
0.0
 42
0.4142135623730951
  0
SEQEND
  5
228
  8
RECESS_FOR_SCREWS
  0
POLYLINE
  5
50
  8
RECESS_FOR_SCREWS
 66
     1
 10
0.0
 20
0.0
 30
0.0
 70
     1
  0
VERTEX
  5
229
  8
RECESS_FOR_SCREWS
 10
20.50000000000001
 20
11.55
 30
0.0
 42
0.4142135623730951
  0
VERTEX
  5
22A
  8
RECESS_FOR_SCREWS
 10
20.70000000000001
 20
11.75
 30
0.0
 42
0.4142135623730951
  0
VERTEX
  5
22B
  8
RECESS_FOR_SCREWS
 10
20.50000000000001
 20
11.95
 30
0.0
 42
0.4142135623730951
  0
VERTEX
  5
22C
  8
RECESS_FOR_SCREWS
 10
20.3
 20
11.75
 30
0.0
 42
0.4142135623730951
  0
SEQEND
  5
22D
  8
RECESS_FOR_SCREWS
  0
POLYLINE
  5
51
  8
RECESS_FOR_SCREWS
 66
     1
 10
0.0
 20
0.0
 30
0.0
 70
     1
  0
VERTEX
  5
22E
  8
RECESS_FOR_SCREWS
 10
4.000000000000009
 20
15.76875
 30
0.0
 42
0.4142135623730951
  0
VERTEX
  5
22F
  8
RECESS_FOR_SCREWS
 10
4.200000000000012
 20
15.96875000000001
 30
0.0
 42
0.4142135623730951
  0
VERTEX
  5
230
  8
RECESS_FOR_SCREWS
 10
4.000000000000009
 20
16.16875000000001
 30
0.0
 42
0.4142135623730951
  0
VERTEX
  5
231
  8
RECESS_FOR_SCREWS
 10
3.800000000000006
 20
15.96875000000001
 30
0.0
 42
0.4142135623730951
  0
SEQEND
  5
232
  8
RECESS_FOR_SCREWS
  0
POLYLINE
  5
52
  8
RECESS_FOR_SCREWS
 66
     1
 10
0.0
 20
0.0
 30
0.0
 70
     1
  0
VERTEX
  5
233
  8
RECESS_FOR_SCREWS
 10
4.000000000000009
 20
23.45625
 30
0.0
 42
0.4142135623730951
  0
VERTEX
  5
234
  8
RECESS_FOR_SCREWS
 10
4.200000000000012
 20
23.65625000000001
 30
0.0
 42
0.4142135623730951
  0
VERTEX
  5
235
  8
RECESS_FOR_SCREWS
 10
4.000000000000009
 20
23.85625000000001
 30
0.0
 42
0.4142135623730951
  0
VERTEX
  5
236
  8
RECESS_FOR_SCREWS
 10
3.800000000000006
 20
23.65625000000001
 30
0.0
 42
0.4142135623730951
  0
SEQEND
  5
237
  8
RECESS_FOR_SCREWS
  0
POLYLINE
  5
53
  8
RECESS_FOR_SCREWS
 66
     1
 10
0.0
 20
0.0
 30
0.0
 70
     1
  0
VERTEX
  5
238
  8
RECESS_FOR_SCREWS
 10
4.000000000000009
 20
34.14375
 30
0.0
 42
0.4142135623730951
  0
VERTEX
  5
239
  8
RECESS_FOR_SCREWS
 10
4.200000000000012
 20
34.34375
 30
0.0
 42
0.4142135623730951
  0
VERTEX
  5
23A
  8
RECESS_FOR_SCREWS
 10
4.000000000000009
 20
34.54375
 30
0.0
 42
0.4142135623730951
  0
VERTEX
  5
23B
  8
RECESS_FOR_SCREWS
 10
3.800000000000006
 20
34.34375
 30
0.0
 42
0.4142135623730951
  0
SEQEND
  5
23C
  8
RECESS_FOR_SCREWS
  0
POLYLINE
  5
54
  8
RECESS_FOR_SCREWS
 66
     1
 10
0.0
 20
0.0
 30
0.0
 70
     1
  0
VERTEX
  5
23D
  8
RECESS_FOR_SCREWS
 10
4.000000000000009
 20
41.83125
 30
0.0
 42
0.4142135623730951
  0
VERTEX
  5
23E
  8
RECESS_FOR_SCREWS
 10
4.200000000000012
 20
42.03125
 30
0.0
 42
0.4142135623730951
  0
VERTEX
  5
23F
  8
RECESS_FOR_SCREWS
 10
4.000000000000009
 20
42.23125
 30
0.0
 42
0.4142135623730951
  0
VERTEX
  5
240
  8
RECESS_FOR_SCREWS
 10
3.800000000000006
 20
42.03125
 30
0.0
 42
0.4142135623730951
  0
SEQEND
  5
241
  8
RECESS_FOR_SCREWS
  0
POLYLINE
  5
55
  8
RECESS_FOR_SCREWS
 66
     1
 10
0.0
 20
0.0
 30
0.0
 70
     1
  0
VERTEX
  5
242
  8
RECESS_FOR_SCREWS
 10
20.50000000000001
 20
46.05
 30
0.0
 42
0.4142135623730951
  0
VERTEX
  5
243
  8
RECESS_FOR_SCREWS
 10
20.70000000000001
 20
46.25
 30
0.0
 42
0.4142135623730951
  0
VERTEX
  5
244
  8
RECESS_FOR_SCREWS
 10
20.50000000000001
 20
46.45
 30
0.0
 42
0.4142135623730951
  0
VERTEX
  5
245
  8
RECESS_FOR_SCREWS
 10
20.3
 20
46.25
 30
0.0
 42
0.4142135623730951
  0
SEQEND
  5
246
  8
RECESS_FOR_SCREWS
  0
POLYLINE
  5
56
  8
RECESS_FOR_SCREWS
 66
     1
 10
0.0
 20
0.0
 30
0.0
 70
     1
  0
VERTEX
  5
247
  8
RECESS_FOR_SCREWS
 10
31.50000000000001
 20
46.05
 30
0.0
 42
0.4142135623730951
  0
VERTEX
  5
248
  8
RECESS_FOR_SCREWS
 10
31.70000000000001
 20
46.25
 30
0.0
 42
0.4142135623730951
  0
VERTEX
  5
249
  8
RECESS_FOR_SCREWS
 10
31.50000000000001
 20
46.45
 30
0.0
 42
0.4142135623730951
  0
VERTEX
  5
24A
  8
RECESS_FOR_SCREWS
 10
31.3
 20
46.25
 30
0.0
 42
0.4142135623730951
  0
SEQEND
  5
24B
  8
RECESS_FOR_SCREWS
  0
POLYLINE
  5
57
  8
RECESS_FOR_SCREWS
 66
     1
 10
0.0
 20
0.0
 30
0.0
 70
     1
  0
VERTEX
  5
24C
  8
RECESS_FOR_SCREWS
 10
64.5
 20
46.05
 30
0.0
 42
0.4142135623730951
  0
VERTEX
  5
24D
  8
RECESS_FOR_SCREWS
 10
64.7
 20
46.25
 30
0.0
 42
0.4142135623730951
  0
VERTEX
  5
24E
  8
RECESS_FOR_SCREWS
 10
64.5
 20
46.45
 30
0.0
 42
0.4142135623730951
  0
VERTEX
  5
24F
  8
RECESS_FOR_SCREWS
 10
64.30000000000001
 20
46.25
 30
0.0
 42
0.4142135623730951
  0
SEQEND
  5
250
  8
RECESS_FOR_SCREWS
  0
POLYLINE
  5
58
  8
RECESS_FOR_SCREWS
 66
     1
 10
0.0
 20
0.0
 30
0.0
 70
     1
  0
VERTEX
  5
251
  8
RECESS_FOR_SCREWS
 10
91.99999999999999
 20
21.89401020997001
 30
0.0
 42
0.4142135623730951
  0
VERTEX
  5
252
  8
RECESS_FOR_SCREWS
 10
92.19999999999999
 20
22.09401020997
 30
0.0
 42
0.4142135623730951
  0
VERTEX
  5
253
  8
RECESS_FOR_SCREWS
 10
91.99999999999999
 20
22.29401020997
 30
0.0
 42
0.4142135623730951
  0
VERTEX
  5
254
  8
RECESS_FOR_SCREWS
 10
91.79999999999998
 20
22.09401020997
 30
0.0
 42
0.4142135623730951
  0
SEQEND
  5
255
  8
RECESS_FOR_SCREWS
  0
POLYLINE
  5
59
  8
RECESS_FOR_SCREWS
 66
     1
 10
0.0
 20
0.0
 30
0.0
 70
     1
  0
VERTEX
  5
256
  8
RECESS_FOR_SCREWS
 10
91.99999999999999
 20
35.69577961591779
 30
0.0
 42
0.4142135623730951
  0
VERTEX
  5
257
  8
RECESS_FOR_SCREWS
 10
92.19999999999999
 20
35.89577961591778
 30
0.0
 42
0.4142135623730951
  0
VERTEX
  5
258
  8
RECESS_FOR_SCREWS
 10
91.99999999999999
 20
36.09577961591778
 30
0.0
 42
0.4142135623730951
  0
VERTEX
  5
259
  8
RECESS_FOR_SCREWS
 10
91.8
 20
35.89577961591778
 30
0.0
 42
0.4142135623730951
  0
SEQEND
  5
25A
  8
RECESS_FOR_SCREWS
  0
POLYLINE
  5
5A
  8
RECESS_FOR_SCREWS
 66
     1
 10
0.0
 20
0.0
 30
0.0
 70
     1
  0
VERTEX
  5
25B
  8
RECESS_FOR_SCREWS
 10
70.0
 20
15.48749999999999
 30
0.0
 42
0.4142135623730951
  0
VERTEX
  5
25C
  8
RECESS_FOR_SCREWS
 10
70.2
 20
15.68749999999999
 30
0.0
 42
0.4142135623730951
  0
VERTEX
  5
25D
  8
RECESS_FOR_SCREWS
 10
70.0
 20
15.8875
 30
0.0
 42
0.4142135623730951
  0
VERTEX
  5
25E
  8
RECESS_FOR_SCREWS
 10
69.80000000000001
 20
15.68749999999999
 30
0.0
 42
0.4142135623730951
  0
SEQEND
  5
25F
  8
RECESS_FOR_SCREWS
  0
POLYLINE
  5
5B
  8
RECESS_FOR_SCREWS
 66
     1
 10
0.0
 20
0.0
 30
0.0
 70
     1
  0
VERTEX
  5
260
  8
RECESS_FOR_SCREWS
 10
70.0
 20
23.36249999999999
 30
0.0
 42
0.4142135623730951
  0
VERTEX
  5
261
  8
RECESS_FOR_SCREWS
 10
70.2
 20
23.56249999999999
 30
0.0
 42
0.4142135623730951
  0
VERTEX
  5
262
  8
RECESS_FOR_SCREWS
 10
70.0
 20
23.7625
 30
0.0
 42
0.4142135623730951
  0
VERTEX
  5
263
  8
RECESS_FOR_SCREWS
 10
69.80000000000001
 20
23.56249999999999
 30
0.0
 42
0.4142135623730951
  0
SEQEND
  5
264
  8
RECESS_FOR_SCREWS
  0
POLYLINE
  5
5C
  8
RECESS_FOR_SCREWS
 66
     1
 10
0.0
 20
0.0
 30
0.0
 70
     1
  0
VERTEX
  5
265
  8
RECESS_FOR_SCREWS
 10
70.0
 20
34.2375
 30
0.0
 42
0.4142135623730951
  0
VERTEX
  5
266
  8
RECESS_FOR_SCREWS
 10
70.2
 20
34.4375
 30
0.0
 42
0.4142135623730951
  0
VERTEX
  5
267
  8
RECESS_FOR_SCREWS
 10
70.0
 20
34.6375
 30
0.0
 42
0.4142135623730951
  0
VERTEX
  5
268
  8
RECESS_FOR_SCREWS
 10
69.80000000000001
 20
34.4375
 30
0.0
 42
0.4142135623730951
  0
SEQEND
  5
269
  8
RECESS_FOR_SCREWS
  0
POLYLINE
  5
5D
  8
RECESS_FOR_SCREWS
 66
     1
 10
0.0
 20
0.0
 30
0.0
 70
     1
  0
VERTEX
  5
26A
  8
RECESS_FOR_SCREWS
 10
70.0
 20
42.1125
 30
0.0
 42
0.4142135623730951
  0
VERTEX
  5
26B
  8
RECESS_FOR_SCREWS
 10
70.2
 20
42.3125
 30
0.0
 42
0.4142135623730951
  0
VERTEX
  5
26C
  8
RECESS_FOR_SCREWS
 10
70.0
 20
42.5125
 30
0.0
 42
0.4142135623730951
  0
VERTEX
  5
26D
  8
RECESS_FOR_SCREWS
 10
69.80000000000001
 20
42.3125
 30
0.0
 42
0.4142135623730951
  0
SEQEND
  5
26E
  8
RECESS_FOR_SCREWS
  0
POLYLINE
  5
5E
  8
RECESS_FOR_SCREWS
 66
     1
 10
0.0
 20
0.0
 30
0.0
 70
     1
  0
VERTEX
  5
26F
  8
RECESS_FOR_SCREWS
 10
48.0
 20
41.83125
 30
0.0
 42
0.4142135623730951
  0
VERTEX
  5
270
  8
RECESS_FOR_SCREWS
 10
48.20000000000001
 20
42.03125
 30
0.0
 42
0.4142135623730951
  0
VERTEX
  5
271
  8
RECESS_FOR_SCREWS
 10
48.0
 20
42.23125
 30
0.0
 42
0.4142135623730951
  0
VERTEX
  5
272
  8
RECESS_FOR_SCREWS
 10
47.8
 20
42.03125
 30
0.0
 42
0.4142135623730951
  0
SEQEND
  5
273
  8
RECESS_FOR_SCREWS
  0
POLYLINE
  5
5F
  8
RECESS_FOR_SCREWS
 66
     1
 10
0.0
 20
0.0
 30
0.0
 70
     1
  0
VERTEX
  5
274
  8
RECESS_FOR_SCREWS
 10
48.0
 20
34.14375
 30
0.0
 42
0.4142135623730951
  0
VERTEX
  5
275
  8
RECESS_FOR_SCREWS
 10
48.20000000000001
 20
34.34375
 30
0.0
 42
0.4142135623730951
  0
VERTEX
  5
276
  8
RECESS_FOR_SCREWS
 10
48.0
 20
34.54375
 30
0.0
 42
0.4142135623730951
  0
VERTEX
  5
277
  8
RECESS_FOR_SCREWS
 10
47.8
 20
34.34375
 30
0.0
 42
0.4142135623730951
  0
SEQEND
  5
278
  8
RECESS_FOR_SCREWS
  0
POLYLINE
  5
60
  8
RECESS_FOR_SCREWS
 66
     1
 10
0.0
 20
0.0
 30
0.0
 70
     1
  0
VERTEX
  5
279
  8
RECESS_FOR_SCREWS
 10
47.99999999999999
 20
23.45625
 30
0.0
 42
0.4142135623730951
  0
VERTEX
  5
27A
  8
RECESS_FOR_SCREWS
 10
48.2
 20
23.65625
 30
0.0
 42
0.4142135623730951
  0
VERTEX
  5
27B
  8
RECESS_FOR_SCREWS
 10
47.99999999999999
 20
23.85625
 30
0.0
 42
0.4142135623730951
  0
VERTEX
  5
27C
  8
RECESS_FOR_SCREWS
 10
47.79999999999999
 20
23.65625
 30
0.0
 42
0.4142135623730951
  0
SEQEND
  5
27D
  8
RECESS_FOR_SCREWS
  0
POLYLINE
  5
61
  8
RECESS_FOR_SCREWS
 66
     1
 10
0.0
 20
0.0
 30
0.0
 70
     1
  0
VERTEX
  5
27E
  8
RECESS_FOR_SCREWS
 10
47.99999999999999
 20
15.76875
 30
0.0
 42
0.4142135623730951
  0
VERTEX
  5
27F
  8
RECESS_FOR_SCREWS
 10
48.2
 20
15.96875
 30
0.0
 42
0.4142135623730951
  0
VERTEX
  5
280
  8
RECESS_FOR_SCREWS
 10
47.99999999999999
 20
16.16875
 30
0.0
 42
0.4142135623730951
  0
VERTEX
  5
281
  8
RECESS_FOR_SCREWS
 10
47.79999999999999
 20
15.96875
 30
0.0
 42
0.4142135623730951
  0
SEQEND
  5
282
  8
RECESS_FOR_SCREWS
  0
POLYLINE
  5
62
  8
RECESS_FOR_SCREWS
 66
     1
 10
0.0
 20
0.0
 30
0.0
 70
     1
  0
VERTEX
  5
283
  8
RECESS_FOR_SCREWS
 10
26.00000000000001
 20
15.4875
 30
0.0
 42
0.4142135623730951
  0
VERTEX
  5
284
  8
RECESS_FOR_SCREWS
 10
26.20000000000001
 20
15.6875
 30
0.0
 42
0.4142135623730951
  0
VERTEX
  5
285
  8
RECESS_FOR_SCREWS
 10
26.00000000000001
 20
15.8875
 30
0.0
 42
0.4142135623730951
  0
VERTEX
  5
286
  8
RECESS_FOR_SCREWS
 10
25.8
 20
15.6875
 30
0.0
 42
0.4142135623730951
  0
SEQEND
  5
287
  8
RECESS_FOR_SCREWS
  0
POLYLINE
  5
63
  8
RECESS_FOR_SCREWS
 66
     1
 10
0.0
 20
0.0
 30
0.0
 70
     1
  0
VERTEX
  5
288
  8
RECESS_FOR_SCREWS
 10
26.00000000000001
 20
23.3625
 30
0.0
 42
0.4142135623730951
  0
VERTEX
  5
289
  8
RECESS_FOR_SCREWS
 10
26.20000000000001
 20
23.5625
 30
0.0
 42
0.4142135623730951
  0
VERTEX
  5
28A
  8
RECESS_FOR_SCREWS
 10
26.00000000000001
 20
23.7625
 30
0.0
 42
0.4142135623730951
  0
VERTEX
  5
28B
  8
RECESS_FOR_SCREWS
 10
25.8
 20
23.5625
 30
0.0
 42
0.4142135623730951
  0
SEQEND
  5
28C
  8
RECESS_FOR_SCREWS
  0
POLYLINE
  5
64
  8
RECESS_FOR_SCREWS
 66
     1
 10
0.0
 20
0.0
 30
0.0
 70
     1
  0
VERTEX
  5
28D
  8
RECESS_FOR_SCREWS
 10
26.00000000000001
 20
34.2375
 30
0.0
 42
0.4142135623730951
  0
VERTEX
  5
28E
  8
RECESS_FOR_SCREWS
 10
26.20000000000001
 20
34.4375
 30
0.0
 42
0.4142135623730951
  0
VERTEX
  5
28F
  8
RECESS_FOR_SCREWS
 10
26.00000000000001
 20
34.6375
 30
0.0
 42
0.4142135623730951
  0
VERTEX
  5
290
  8
RECESS_FOR_SCREWS
 10
25.8
 20
34.4375
 30
0.0
 42
0.4142135623730951
  0
SEQEND
  5
291
  8
RECESS_FOR_SCREWS
  0
POLYLINE
  5
65
  8
RECESS_FOR_SCREWS
 66
     1
 10
0.0
 20
0.0
 30
0.0
 70
     1
  0
VERTEX
  5
292
  8
RECESS_FOR_SCREWS
 10
26.00000000000001
 20
42.1125
 30
0.0
 42
0.4142135623730951
  0
VERTEX
  5
293
  8
RECESS_FOR_SCREWS
 10
26.20000000000001
 20
42.3125
 30
0.0
 42
0.4142135623730951
  0
VERTEX
  5
294
  8
RECESS_FOR_SCREWS
 10
26.00000000000001
 20
42.5125
 30
0.0
 42
0.4142135623730951
  0
VERTEX
  5
295
  8
RECESS_FOR_SCREWS
 10
25.8
 20
42.3125
 30
0.0
 42
0.4142135623730951
  0
SEQEND
  5
296
  8
RECESS_FOR_SCREWS
  0
POLYLINE
  5
66
  8
RECESS_FOR_SCREWS
 66
     1
 10
0.0
 20
0.0
 30
0.0
 70
     1
  0
VERTEX
  5
297
  8
RECESS_FOR_SCREWS
 10
75.5
 20
46.05
 30
0.0
 42
0.4142135623730951
  0
VERTEX
  5
298
  8
RECESS_FOR_SCREWS
 10
75.7
 20
46.24999999999999
 30
0.0
 42
0.4142135623730951
  0
VERTEX
  5
299
  8
RECESS_FOR_SCREWS
 10
75.5
 20
46.45
 30
0.0
 42
0.4142135623730951
  0
VERTEX
  5
29A
  8
RECESS_FOR_SCREWS
 10
75.30000000000001
 20
46.24999999999999
 30
0.0
 42
0.4142135623730951
  0
SEQEND
  5
29B
  8
RECESS_FOR_SCREWS
  0
POLYLINE
  5
67
  8
RECESS_FOR_SCREWS
 66
     1
 10
0.0
 20
0.0
 30
0.0
  0
VERTEX
  5
29C
  8
RECESS_FOR_SCREWS
 10
87.32645541635962
 20
40.37926537195373
 30
0.0
  0
VERTEX
  5
29D
  8
RECESS_FOR_SCREWS
 10
83.32645541635962
 20
40.37926537195374
 30
0.0
  0
VERTEX
  5
29E
  8
RECESS_FOR_SCREWS
 10
83.32645541635962
 20
41.94726537195373
 30
0.0
  0
VERTEX
  5
29F
  8
RECESS_FOR_SCREWS
 10
83.32679962412328
 20
41.97318001428772
 30
0.0
  0
VERTEX
  5
2A0
  8
RECESS_FOR_SCREWS
 10
83.327826265969
 20
41.99891844812561
 30
0.0
  0
VERTEX
  5
2A1
  8
RECESS_FOR_SCREWS
 10
83.32952636972877
 20
42.02447243372131
 30
0.0
  0
VERTEX
  5
2A2
  8
RECESS_FOR_SCREWS
 10
83.33189096323463
 20
42.04983373132873
 30
0.0
  0
VERTEX
  5
2A3
  8
RECESS_FOR_SCREWS
 10
83.33491107431863
 20
42.07499410120178
 30
0.0
  0
VERTEX
  5
2A4
  8
RECESS_FOR_SCREWS
 10
83.33857773081276
 20
42.09994530359437
 30
0.0
  0
VERTEX
  5
2A5
  8
RECESS_FOR_SCREWS
 10
83.34288196054908
 20
42.12467909876038
 30
0.0
  0
VERTEX
  5
2A6
  8
RECESS_FOR_SCREWS
 10
83.34781479135962
 20
42.14918724695374
 30
0.0
  0
VERTEX
  5
2A7
  8
RECESS_FOR_SCREWS
 10
83.35336725107642
 20
42.17346150842834
 30
0.0
  0
VERTEX
  5
2A8
  8
RECESS_FOR_SCREWS
 10
83.3595303675315
 20
42.19749364343811
 30
0.0
  0
VERTEX
  5
2A9
  8
RECESS_FOR_SCREWS
 10
83.36629516855689
 20
42.22127541223693
 30
0.0
  0
VERTEX
  5
2AA
  8
RECESS_FOR_SCREWS
 10
83.37365268198462
 20
42.24479857507873
 30
0.0
  0
VERTEX
  5
2AB
  8
RECESS_FOR_SCREWS
 10
83.38159393564673
 20
42.26805489221741
 30
0.0
  0
VERTEX
  5
2AC
  8
RECESS_FOR_SCREWS
 10
83.39010995737524
 20
42.29103612390686
 30
0.0
  0
VERTEX
  5
2AD
  8
RECESS_FOR_SCREWS
 10
83.39919177500221
 20
42.313734030401
 30
0.0
  0
VERTEX
  5
2AE
  8
RECESS_FOR_SCREWS
 10
83.40883041635962
 20
42.33614037195373
 30
0.0
  0
VERTEX
  5
2AF
  8
RECESS_FOR_SCREWS
 10
83.41901690927955
 20
42.35824690881897
 30
0.0
  0
VERTEX
  5
2B0
  8
RECESS_FOR_SCREWS
 10
83.429742281594
 20
42.38004540125061
 30
0.0
  0
VERTEX
  5
2B1
  8
RECESS_FOR_SCREWS
 10
83.440997561135
 20
42.40152760950256
 30
0.0
  0
VERTEX
  5
2B2
  8
RECESS_FOR_SCREWS
 10
83.45277377573463
 20
42.42268529382874
 30
0.0
  0
VERTEX
  5
2B3
  8
RECESS_FOR_SCREWS
 10
83.46506195322488
 20
42.44351021448303
 30
0.0
  0
VERTEX
  5
2B4
  8
RECESS_FOR_SCREWS
 10
83.47785312143776
 20
42.46399413171936
 30
0.0
  0
VERTEX
  5
2B5
  8
RECESS_FOR_SCREWS
 10
83.49113830820535
 20
42.48412880579162
 30
0.0
  0
VERTEX
  5
2B6
  8
RECESS_FOR_SCREWS
 10
83.50490854135964
 20
42.50390599695373
 30
0.0
  0
VERTEX
  5
2B7
  8
RECESS_FOR_SCREWS
 10
83.51915484873268
 20
42.52331746545958
 30
0.0
  0
VERTEX
  5
2B8
  8
RECESS_FOR_SCREWS
 10
83.53386825815652
 20
42.5423549715631
 30
0.0
  0
VERTEX
  5
2B9
  8
RECESS_FOR_SCREWS
 10
83.54903979746314
 20
42.56101027551819
 30
0.0
  0
VERTEX
  5
2BA
  8
RECESS_FOR_SCREWS
 10
83.56466049448463
 20
42.57927513757873
 30
0.0
  0
VERTEX
  5
2BB
  8
RECESS_FOR_SCREWS
 10
83.580721377053
 20
42.59714131799866
 30
0.0
  0
VERTEX
  5
2BC
  8
RECESS_FOR_SCREWS
 10
83.59721347300025
 20
42.61460057703186
 30
0.0
  0
VERTEX
  5
2BD
  8
RECESS_FOR_SCREWS
 10
83.61412781015846
 20
42.63164467493225
 30
0.0
  0
VERTEX
  5
2BE
  8
RECESS_FOR_SCREWS
 10
83.63145541635963
 20
42.64826537195373
 30
0.0
  0
VERTEX
  5
2BF
  8
RECESS_FOR_SCREWS
 10
83.64918731943581
 20
42.66445442835021
 30
0.0
  0
VERTEX
  5
2C0
  8
RECESS_FOR_SCREWS
 10
83.66731454721901
 20
42.68020360437561
 30
0.0
  0
VERTEX
  5
2C1
  8
RECESS_FOR_SCREWS
 10
83.68582812754127
 20
42.6955046602838
 30
0.0
  0
VERTEX
  5
2C2
  8
RECESS_FOR_SCREWS
 10
83.70471908823461
 20
42.71034935632872
 30
0.0
  0
VERTEX
  5
2C3
  8
RECESS_FOR_SCREWS
 10
83.7239784571311
 20
42.72472945276427
 30
0.0
  0
VERTEX
  5
2C4
  8
RECESS_FOR_SCREWS
 10
83.74359726206274
 20
42.73863670984435
 30
0.0
  0
VERTEX
  5
2C5
  8
RECESS_FOR_SCREWS
 10
83.76356653086157
 20
42.75206288782287
 30
0.0
  0
VERTEX
  5
2C6
  8
RECESS_FOR_SCREWS
 10
83.78387729135962
 20
42.76499974695372
 30
0.0
  0
VERTEX
  5
2C7
  8
RECESS_FOR_SCREWS
 10
83.8045205713889
 20
42.77743904749083
 30
0.0
  0
VERTEX
  5
2C8
  8
RECESS_FOR_SCREWS
 10
83.82548739878149
 20
42.7893725496881
 30
0.0
  0
VERTEX
  5
2C9
  8
RECESS_FOR_SCREWS
 10
83.8467688013694
 20
42.80079201379942
 30
0.0
  0
VERTEX
  5
2CA
  8
RECESS_FOR_SCREWS
 10
83.86835580698461
 20
42.81168920007872
 30
0.0
  0
VERTEX
  5
2CB
  8
RECESS_FOR_SCREWS
 10
83.89023944345922
 20
42.8220558687799
 30
0.0
  0
VERTEX
  5
2CC
  8
RECESS_FOR_SCREWS
 10
83.91241073862524
 20
42.83188378015685
 30
0.0
  0
VERTEX
  5
2CD
  8
RECESS_FOR_SCREWS
 10
83.9348607203147
 20
42.84116469446349
 30
0.0
  0
VERTEX
  5
2CE
  8
RECESS_FOR_SCREWS
 10
83.95758041635962
 20
42.84989037195373
 30
0.0
  0
VERTEX
  5
2CF
  8
RECESS_FOR_SCREWS
 10
83.98056085459203
 20
42.85805257288146
 30
0.0
  0
VERTEX
  5
2D0
  8
RECESS_FOR_SCREWS
 10
84.003793062844
 20
42.86564305750061
 30
0.0
  0
VERTEX
  5
2D1
  8
RECESS_FOR_SCREWS
 10
84.0272680689475
 20
42.87265358606506
 30
0.0
  0
VERTEX
  5
2D2
  8
RECESS_FOR_SCREWS
 10
84.05097690073463
 20
42.87907591882873
 30
0.0
  0
VERTEX
  5
2D3
  8
RECESS_FOR_SCREWS
 10
84.07491058603736
 20
42.88490181604552
 30
0.0
  0
VERTEX
  5
2D4
  8
RECESS_FOR_SCREWS
 10
84.09906015268774
 20
42.89012303796935
 30
0.0
  0
VERTEX
  5
2D5
  8
RECESS_FOR_SCREWS
 10
84.12341662851782
 20
42.89473134485412
 30
0.0
  0
VERTEX
  5
2D6
  8
RECESS_FOR_SCREWS
 10
84.14797104135963
 20
42.89871849695373
 30
0.0
  0
VERTEX
  5
2D7
  8
RECESS_FOR_SCREWS
 10
84.17271441904518
 20
42.90207625452209
 30
0.0
  0
VERTEX
  5
2D8
  8
RECESS_FOR_SCREWS
 10
84.1976377894065
 20
42.9047963778131
 30
0.0
  0
VERTEX
  5
2D9
  8
RECESS_FOR_SCREWS
 10
84.22273218027564
 20
42.90687062708068
 30
0.0
  0
VERTEX
  5
2DA
  8
RECESS_FOR_SCREWS
 10
84.24798861948463
 20
42.90829076257873
 30
0.0
  0
VERTEX
  5
2DB
  8
RECESS_FOR_SCREWS
 10
84.27339813486549
 20
42.90904854456115
 30
0.0
  0
VERTEX
  5
2DC
  8
RECESS_FOR_SCREWS
 10
84.29895175425025
 20
42.90913573328186
 30
0.0
  0
VERTEX
  5
2DD
  8
RECESS_FOR_SCREWS
 10
84.32464050547094
 20
42.90854408899474
 30
0.0
  0
VERTEX
  5
2DE
  8
RECESS_FOR_SCREWS
 10
84.35045541635962
 20
42.90726537195373
 30
0.0
  0
VERTEX
  5
2DF
  8
RECESS_FOR_SCREWS
 10
84.37313592783423
 20
42.90685634485412
 30
0.0
  0
VERTEX
  5
2E0
  8
RECESS_FOR_SCREWS
 10
84.39567294565651
 20
42.90588378015686
 30
0.0
  0
VERTEX
  5
2E1
  8
RECESS_FOR_SCREWS
 10
84.4180596949241
 20
42.90435445276427
 30
0.0
  0
VERTEX
  5
2E2
  8
RECESS_FOR_SCREWS
 10
84.44028940073463
 20
42.90227513757873
 30
0.0
  0
VERTEX
  5
2E3
  8
RECESS_FOR_SCREWS
 10
84.46235528818582
 20
42.89965260950256
 30
0.0
  0
VERTEX
  5
2E4
  8
RECESS_FOR_SCREWS
 10
84.48425058237527
 20
42.89649364343811
 30
0.0
  0
VERTEX
  5
2E5
  8
RECESS_FOR_SCREWS
 10
84.50596850840066
 20
42.89280501428771
 30
0.0
  0
VERTEX
  5
2E6
  8
RECESS_FOR_SCREWS
 10
84.52750229135964
 20
42.88859349695373
 30
0.0
  0
VERTEX
  5
2E7
  8
RECESS_FOR_SCREWS
 10
84.54884515634987
 20
42.8838658663385
 30
0.0
  0
VERTEX
  5
2E8
  8
RECESS_FOR_SCREWS
 10
84.569990328469
 20
42.87862889734436
 30
0.0
  0
VERTEX
  5
2E9
  8
RECESS_FOR_SCREWS
 10
84.5909310328147
 20
42.87288936487366
 30
0.0
  0
VERTEX
  5
2EA
  8
RECESS_FOR_SCREWS
 10
84.61166049448462
 20
42.86665404382873
 30
0.0
  0
VERTEX
  5
2EB
  8
RECESS_FOR_SCREWS
 10
84.63217193857642
 20
42.85992970911194
 30
0.0
  0
VERTEX
  5
2EC
  8
RECESS_FOR_SCREWS
 10
84.65245859018773
 20
42.85272313562561
 30
0.0
  0
VERTEX
  5
2ED
  8
RECESS_FOR_SCREWS
 10
84.67251367441625
 20
42.84504109827209
 30
0.0
  0
VERTEX
  5
2EE
  8
RECESS_FOR_SCREWS
 10
84.69233041635962
 20
42.83689037195373
 30
0.0
  0
VERTEX
  5
2EF
  8
RECESS_FOR_SCREWS
 10
84.71190204111548
 20
42.82827773157287
 30
0.0
  0
VERTEX
  5
2F0
  8
RECESS_FOR_SCREWS
 10
84.7312217737815
 20
42.81920995203185
 30
0.0
  0
VERTEX
  5
2F1
  8
RECESS_FOR_SCREWS
 10
84.75028283945534
 20
42.80969380823302
 30
0.0
  0
VERTEX
  5
2F2
  8
RECESS_FOR_SCREWS
 10
84.76907846323462
 20
42.79973607507873
 30
0.0
  0
VERTEX
  5
2F3
  8
RECESS_FOR_SCREWS
 10
84.78760187021703
 20
42.7893435274713
 30
0.0
  0
VERTEX
  5
2F4
  8
RECESS_FOR_SCREWS
 10
84.80584628550025
 20
42.7785229403131
 30
0.0
  0
VERTEX
  5
2F5
  8
RECESS_FOR_SCREWS
 10
84.8238049341819
 20
42.76728108850646
 30
0.0
  0
VERTEX
  5
2F6
  8
RECESS_FOR_SCREWS
 10
84.84147104135963
 20
42.75562474695372
 30
0.0
  0
VERTEX
  5
2F7
  8
RECESS_FOR_SCREWS
 10
84.85883783213112
 20
42.74356069055725
 30
0.0
  0
VERTEX
  5
2F8
  8
RECESS_FOR_SCREWS
 10
84.875898531594
 20
42.73109569421935
 30
0.0
  0
VERTEX
  5
2F9
  8
RECESS_FOR_SCREWS
 10
84.89264636484594
 20
42.7182365328424
 30
0.0
  0
VERTEX
  5
2FA
  8
RECESS_FOR_SCREWS
 10
84.90907455698462
 20
42.70498998132872
 30
0.0
  0
VERTEX
  5
2FB
  8
RECESS_FOR_SCREWS
 10
84.92517633310766
 20
42.69136281458068
 30
0.0
  0
VERTEX
  5
2FC
  8
RECESS_FOR_SCREWS
 10
84.94094491831274
 20
42.6773618075006
 30
0.0
  0
VERTEX
  5
2FD
  8
RECESS_FOR_SCREWS
 10
84.9563735376975
 20
42.66299373499083
 30
0.0
  0
VERTEX
  5
2FE
  8
RECESS_FOR_SCREWS
 10
84.97145541635962
 20
42.64826537195373
 30
0.0
  0
VERTEX
  5
2FF
  8
RECESS_FOR_SCREWS
 10
84.98618377939674
 20
42.63318349329162
 30
0.0
  0
VERTEX
  5
300
  8
RECESS_FOR_SCREWS
 10
85.0005518519065
 20
42.61775487390685
 30
0.0
  0
VERTEX
  5
301
  8
RECESS_FOR_SCREWS
 10
85.01455285898658
 20
42.60198628870177
 30
0.0
  0
VERTEX
  5
302
  8
RECESS_FOR_SCREWS
 10
85.02818002573461
 20
42.58588451257873
 30
0.0
  0
VERTEX
  5
303
  8
RECESS_FOR_SCREWS
 10
85.04142657724827
 20
42.56945632044005
 30
0.0
  0
VERTEX
  5
304
  8
RECESS_FOR_SCREWS
 10
85.05428573862523
 20
42.5527084871881
 30
0.0
  0
VERTEX
  5
305
  8
RECESS_FOR_SCREWS
 10
85.06675073496312
 20
42.5356477877252
 30
0.0
  0
VERTEX
  5
306
  8
RECESS_FOR_SCREWS
 10
85.0788147913596
 20
42.51828099695372
 30
0.0
  0
VERTEX
  5
307
  8
RECESS_FOR_SCREWS
 10
85.09047113291234
 20
42.50061488977599
 30
0.0
  0
VERTEX
  5
308
  8
RECESS_FOR_SCREWS
 10
85.101712984719
 20
42.48265624109435
 30
0.0
  0
VERTEX
  5
309
  8
RECESS_FOR_SCREWS
 10
85.11253357187721
 20
42.46441182581114
 30
0.0
  0
VERTEX
  5
30A
  8
RECESS_FOR_SCREWS
 10
85.12292611948462
 20
42.44588841882872
 30
0.0
  0
VERTEX
  5
30B
  8
RECESS_FOR_SCREWS
 10
85.13288385263891
 20
42.42709279504942
 30
0.0
  0
VERTEX
  5
30C
  8
RECESS_FOR_SCREWS
 10
85.14239999643775
 20
42.40803172937559
 30
0.0
  0
VERTEX
  5
30D
  8
RECESS_FOR_SCREWS
 10
85.15146777597876
 20
42.38871199670957
 30
0.0
  0
VERTEX
  5
30E
  8
RECESS_FOR_SCREWS
 10
85.16008041635962
 20
42.36914037195372
 30
0.0
  0
VERTEX
  5
30F
  8
RECESS_FOR_SCREWS
 10
85.16823114267798
 20
42.34932363001035
 30
0.0
  0
VERTEX
  5
310
  8
RECESS_FOR_SCREWS
 10
85.1759131800315
 20
42.32926854578184
 30
0.0
  0
VERTEX
  5
311
  8
RECESS_FOR_SCREWS
 10
85.18311975351783
 20
42.30898189417051
 30
0.0
  0
VERTEX
  5
312
  8
RECESS_FOR_SCREWS
 10
85.18984408823462
 20
42.28847045007872
 30
0.0
  0
VERTEX
  5
313
  8
RECESS_FOR_SCREWS
 10
85.19607940927953
 20
42.2677409884088
 30
0.0
  0
VERTEX
  5
314
  8
RECESS_FOR_SCREWS
 10
85.20181894175023
 20
42.24680028406309
 30
0.0
  0
VERTEX
  5
315
  8
RECESS_FOR_SCREWS
 10
85.20705591074437
 20
42.22565511194395
 30
0.0
  0
VERTEX
  5
316
  8
RECESS_FOR_SCREWS
 10
85.21178354135962
 20
42.20431224695372
 30
0.0
  0
VERTEX
  5
317
  8
RECESS_FOR_SCREWS
 10
85.21599505869361
 20
42.18277846399474
 30
0.0
  0
VERTEX
  5
318
  8
RECESS_FOR_SCREWS
 10
85.219683687844
 20
42.16106053796935
 30
0.0
  0
VERTEX
  5
319
  8
RECESS_FOR_SCREWS
 10
85.22284265390844
 20
42.1391652437799
 30
0.0
  0
VERTEX
  5
31A
  8
RECESS_FOR_SCREWS
 10
85.22546518198462
 20
42.11709935632872
 30
0.0
  0
VERTEX
  5
31B
  8
RECESS_FOR_SCREWS
 10
85.22754449717017
 20
42.09486965051818
 30
0.0
  0
VERTEX
  5
31C
  8
RECESS_FOR_SCREWS
 10
85.22907382456275
 20
42.0724829012506
 30
0.0
  0
VERTEX
  5
31D
  8
RECESS_FOR_SCREWS
 10
85.23004638926002
 20
42.04994588342834
 30
0.0
  0
VERTEX
  5
31E
  8
RECESS_FOR_SCREWS
 10
85.23045541635962
 20
42.02726537195372
 30
0.0
  0
VERTEX
  5
31F
  8
RECESS_FOR_SCREWS
 10
85.23045541635962
 20
40.41126537195372
 30
0.0
  0
VERTEX
  5
320
  8
RECESS_FOR_SCREWS
 10
85.23045541635962
 20
41.99526537195373
 30
0.0
  0
VERTEX
  5
321
  8
RECESS_FOR_SCREWS
 10
85.23083075205298
 20
42.0236720797174
 30
0.0
  0
VERTEX
  5
322
  8
RECESS_FOR_SCREWS
 10
85.23195028940648
 20
42.05188622156311
 30
0.0
  0
VERTEX
  5
323
  8
RECESS_FOR_SCREWS
 10
85.23380432383031
 20
42.07989882532287
 30
0.0
  0
VERTEX
  5
324
  8
RECESS_FOR_SCREWS
 10
85.23638315073461
 20
42.10770091882873
 30
0.0
  0
VERTEX
  5
325
  8
RECESS_FOR_SCREWS
 10
85.23967706552953
 20
42.13528352991271
 30
0.0
  0
VERTEX
  5
326
  8
RECESS_FOR_SCREWS
 10
85.24367636362524
 20
42.16263768640685
 30
0.0
  0
VERTEX
  5
327
  8
RECESS_FOR_SCREWS
 10
85.24837134043187
 20
42.18975441614317
 30
0.0
  0
VERTEX
  5
328
  8
RECESS_FOR_SCREWS
 10
85.25375229135962
 20
42.21662474695372
 30
0.0
  0
VERTEX
  5
329
  8
RECESS_FOR_SCREWS
 10
85.25980951181862
 20
42.24323970667052
 30
0.0
  0
VERTEX
  5
32A
  8
RECESS_FOR_SCREWS
 10
85.266533297219
 20
42.2695903231256
 30
0.0
  0
VERTEX
  5
32B
  8
RECESS_FOR_SCREWS
 10
85.27391394297095
 20
42.29566762415099
 30
0.0
  0
VERTEX
  5
32C
  8
RECESS_FOR_SCREWS
 10
85.28194174448461
 20
42.32146263757872
 30
0.0
  0
VERTEX
  5
32D
  8
RECESS_FOR_SCREWS
 10
85.29060699717016
 20
42.34696639124083
 30
0.0
  0
VERTEX
  5
32E
  8
RECESS_FOR_SCREWS
 10
85.29989999643774
 20
42.37216991296935
 30
0.0
  0
VERTEX
  5
32F
  8
RECESS_FOR_SCREWS
 10
85.3098110376975
 20
42.3970642305963
 30
0.0
  0
VERTEX
  5
330
  8
RECESS_FOR_SCREWS
 10
85.32033041635961
 20
42.42164037195372
 30
0.0
  0
VERTEX
  5
331
  8
RECESS_FOR_SCREWS
 10
85.33144842783422
 20
42.44588936487364
 30
0.0
  0
VERTEX
  5
332
  8
RECESS_FOR_SCREWS
 10
85.3431553675315
 20
42.4698022371881
 30
0.0
  0
VERTEX
  5
333
  8
RECESS_FOR_SCREWS
 10
85.35544153086157
 20
42.49337001672912
 30
0.0
  0
VERTEX
  5
334
  8
RECESS_FOR_SCREWS
 10
85.36829721323461
 20
42.51658373132872
 30
0.0
  0
VERTEX
  5
335
  8
RECESS_FOR_SCREWS
 10
85.38171271006078
 20
42.53943440881896
 30
0.0
  0
VERTEX
  5
336
  8
RECESS_FOR_SCREWS
 10
85.39567831675024
 20
42.56191307703185
 30
0.0
  0
VERTEX
  5
337
  8
RECESS_FOR_SCREWS
 10
85.41018432871311
 20
42.58401076379943
 30
0.0
  0
VERTEX
  5
338
  8
RECESS_FOR_SCREWS
 10
85.4252210413596
 20
42.60571849695373
 30
0.0
  0
VERTEX
  5
339
  8
RECESS_FOR_SCREWS
 10
85.44077875009985
 20
42.62702730432677
 30
0.0
  0
VERTEX
  5
33A
  8
RECESS_FOR_SCREWS
 10
85.456847750344
 20
42.6479282137506
 30
0.0
  0
VERTEX
  5
33B
  8
RECESS_FOR_SCREWS
 10
85.4734183375022
 20
42.66841225305724
 30
0.0
  0
VERTEX
  5
33C
  8
RECESS_FOR_SCREWS
 10
85.49048080698462
 20
42.68847045007873
 30
0.0
  0
VERTEX
  5
33D
  8
RECESS_FOR_SCREWS
 10
85.50802545420143
 20
42.70809383264708
 30
0.0
  0
VERTEX
  5
33E
  8
RECESS_FOR_SCREWS
 10
85.52604257456275
 20
42.72727342859435
 30
0.0
  0
VERTEX
  5
33F
  8
RECESS_FOR_SCREWS
 10
85.54452246347876
 20
42.74600026575256
 30
0.0
  0
VERTEX
  5
340
  8
RECESS_FOR_SCREWS
 10
85.56345541635962
 20
42.76426537195373
 30
0.0
  0
VERTEX
  5
341
  8
RECESS_FOR_SCREWS
 10
85.58283172861547
 20
42.78205977502989
 30
0.0
  0
VERTEX
  5
342
  8
RECESS_FOR_SCREWS
 10
85.60264169565647
 20
42.7993745028131
 30
0.0
  0
VERTEX
  5
343
  8
RECESS_FOR_SCREWS
 10
85.62287561289281
 20
42.81620058313537
 30
0.0
  0
VERTEX
  5
344
  8
RECESS_FOR_SCREWS
 10
85.64352377573461
 20
42.83252904382873
 30
0.0
  0
VERTEX
  5
345
  8
RECESS_FOR_SCREWS
 10
85.66457647959203
 20
42.84835091272521
 30
0.0
  0
VERTEX
  5
346
  8
RECESS_FOR_SCREWS
 10
85.68602401987523
 20
42.86365721765685
 30
0.0
  0
VERTEX
  5
347
  8
RECESS_FOR_SCREWS
 10
85.70785669199438
 20
42.87843898645568
 30
0.0
  0
VERTEX
  5
348
  8
RECESS_FOR_SCREWS
 10
85.73006479135961
 20
42.89268724695373
 30
0.0
  0
VERTEX
  5
349
  8
RECESS_FOR_SCREWS
 10
85.7526386133811
 20
42.90639302698303
 30
0.0
  0
VERTEX
  5
34A
  8
RECESS_FOR_SCREWS
 10
85.77556845346899
 20
42.9195473543756
 30
0.0
  0
VERTEX
  5
34B
  8
RECESS_FOR_SCREWS
 10
85.79884460703344
 20
42.9321412569635
 30
0.0
  0
VERTEX
  5
34C
  8
RECESS_FOR_SCREWS
 10
85.82245736948461
 20
42.94416576257873
 30
0.0
  0
VERTEX
  5
34D
  8
RECESS_FOR_SCREWS
 10
85.84639703623264
 20
42.95561189905334
 30
0.0
  0
VERTEX
  5
34E
  8
RECESS_FOR_SCREWS
 10
85.87065390268774
 20
42.96647069421935
 30
0.0
  0
VERTEX
  5
34F
  8
RECESS_FOR_SCREWS
 10
85.89521826426
 20
42.97673317590881
 30
0.0
  0
VERTEX
  5
350
  8
RECESS_FOR_SCREWS
 10
85.92008041635961
 20
42.98639037195372
 30
0.0
  0
VERTEX
  5
351
  8
RECESS_FOR_SCREWS
 10
85.94523065439671
 20
42.99543331018614
 30
0.0
  0
VERTEX
  5
352
  8
RECESS_FOR_SCREWS
 10
85.97065927378148
 20
43.0038530184381
 30
0.0
  0
VERTEX
  5
353
  8
RECESS_FOR_SCREWS
 10
85.99635656992406
 20
43.01164052454161
 30
0.0
  0
VERTEX
  5
354
  8
RECESS_FOR_SCREWS
 10
86.02231283823461
 20
43.01878685632872
 30
0.0
  0
VERTEX
  5
355
  8
RECESS_FOR_SCREWS
 10
86.04851837412329
 20
43.02528304163145
 30
0.0
  0
VERTEX
  5
356
  8
RECESS_FOR_SCREWS
 10
86.07496347300024
 20
43.03112010828185
 30
0.0
  0
VERTEX
  5
357
  8
RECESS_FOR_SCREWS
 10
86.10163843027563
 20
43.03628908411193
 30
0.0
  0
VERTEX
  5
358
  8
RECESS_FOR_SCREWS
 10
86.12853354135962
 20
43.04078099695373
 30
0.0
  0
VERTEX
  5
359
  8
RECESS_FOR_SCREWS
 10
86.15563910166236
 20
43.04458687463926
 30
0.0
  0
VERTEX
  5
35A
  8
RECESS_FOR_SCREWS
 10
86.182945406594
 20
43.04769774500059
 30
0.0
  0
VERTEX
  5
35B
  8
RECESS_FOR_SCREWS
 10
86.2104427515647
 20
43.05010463586974
 30
0.0
  0
VERTEX
  5
35C
  8
RECESS_FOR_SCREWS
 10
86.23812143198462
 20
43.05179857507872
 30
0.0
  0
VERTEX
  5
35D
  8
RECESS_FOR_SCREWS
 10
86.26597174326392
 20
43.05277059045957
 30
0.0
  0
VERTEX
  5
35E
  8
RECESS_FOR_SCREWS
 10
86.29398398081275
 20
43.05301170984434
 30
0.0
  0
VERTEX
  5
35F
  8
RECESS_FOR_SCREWS
 10
86.32214844004126
 20
43.05251296106506
 30
0.0
  0
VERTEX
  5
360
  8
RECESS_FOR_SCREWS
 10
86.35045541635962
 20
43.05126537195373
 30
0.0
  0
VERTEX
  5
361
  8
RECESS_FOR_SCREWS
 10
86.37562991587134
 20
43.05094634119201
 30
0.0
  0
VERTEX
  5
362
  8
RECESS_FOR_SCREWS
 10
86.40064828745338
 20
43.04999437585998
 30
0.0
  0
VERTEX
  5
363
  8
RECESS_FOR_SCREWS
 10
86.42550284067602
 20
43.04841716638732
 30
0.0
  0
VERTEX
  5
364
  8
RECESS_FOR_SCREWS
 10
86.45018588510962
 20
43.04622240320372
 30
0.0
  0
VERTEX
  5
365
  8
RECESS_FOR_SCREWS
 10
86.47468973032446
 20
43.04341777673888
 30
0.0
  0
VERTEX
  5
366
  8
RECESS_FOR_SCREWS
 10
86.49900668589086
 20
43.04001097742247
 30
0.0
  0
VERTEX
  5
367
  8
RECESS_FOR_SCREWS
 10
86.52312906137915
 20
43.03600969568419
 30
0.0
  0
VERTEX
  5
368
  8
RECESS_FOR_SCREWS
 10
86.54704916635961
 20
43.03142162195372
 30
0.0
  0
VERTEX
  5
369
  8
RECESS_FOR_SCREWS
 10
86.57075931040258
 20
43.02625444666075
 30
0.0
  0
VERTEX
  5
36A
  8
RECESS_FOR_SCREWS
 10
86.59425180307836
 20
43.02051586023497
 30
0.0
  0
VERTEX
  5
36B
  8
RECESS_FOR_SCREWS
 10
86.61751895395727
 20
43.01421355310607
 30
0.0
  0
VERTEX
  5
36C
  8
RECESS_FOR_SCREWS
 10
86.64055307260962
 20
43.00735521570372
 30
0.0
  0
VERTEX
  5
36D
  8
RECESS_FOR_SCREWS
 10
86.66334646860571
 20
42.99994853845762
 30
0.0
  0
VERTEX
  5
36E
  8
RECESS_FOR_SCREWS
 10
86.68589145151587
 20
42.99200121179747
 30
0.0
  0
VERTEX
  5
36F
  8
RECESS_FOR_SCREWS
 10
86.70818033091041
 20
42.98352092615294
 30
0.0
  0
VERTEX
  5
370
  8
RECESS_FOR_SCREWS
 10
86.73020541635962
 20
42.97451537195372
 30
0.0
  0
VERTEX
  5
371
  8
RECESS_FOR_SCREWS
 10
86.75195901743385
 20
42.9649922396295
 30
0.0
  0
VERTEX
  5
372
  8
RECESS_FOR_SCREWS
 10
86.77343344370337
 20
42.95495921960998
 30
0.0
  0
VERTEX
  5
373
  8
RECESS_FOR_SCREWS
 10
86.79462100473853
 20
42.94442400232482
 30
0.0
  0
VERTEX
  5
374
  8
RECESS_FOR_SCREWS
 10
86.81551401010961
 20
42.93339427820373
 30
0.0
  0
VERTEX
  5
375
  8
RECESS_FOR_SCREWS
 10
86.83610476938696
 20
42.92187773767638
 30
0.0
  0
VERTEX
  5
376
  8
RECESS_FOR_SCREWS
 10
86.85638559214087
 20
42.90988207117248
 30
0.0
  0
VERTEX
  5
377
  8
RECESS_FOR_SCREWS
 10
86.87634878794165
 20
42.8974149691217
 30
0.0
  0
VERTEX
  5
378
  8
RECESS_FOR_SCREWS
 10
86.89598666635962
 20
42.88448412195373
 30
0.0
  0
VERTEX
  5
379
  8
RECESS_FOR_SCREWS
 10
86.91529153696509
 20
42.87109722009826
 30
0.0
  0
VERTEX
  5
37A
  8
RECESS_FOR_SCREWS
 10
86.93425570932837
 20
42.85726195398499
 30
0.0
  0
VERTEX
  5
37B
  8
RECESS_FOR_SCREWS
 10
86.95287149301979
 20
42.84298601404357
 30
0.0
  0
VERTEX
  5
37C
  8
RECESS_FOR_SCREWS
 10
86.97113119760962
 20
42.82827709070374
 30
0.0
  0
VERTEX
  5
37D
  8
RECESS_FOR_SCREWS
 10
86.98902713266821
 20
42.81314287439514
 30
0.0
  0
VERTEX
  5
37E
  8
RECESS_FOR_SCREWS
 10
87.00655160776589
 20
42.79759105554749
 30
0.0
  0
VERTEX
  5
37F
  8
RECESS_FOR_SCREWS
 10
87.02369693247292
 20
42.78162932459045
 30
0.0
  0
VERTEX
  5
380
  8
RECESS_FOR_SCREWS
 10
87.04045541635962
 20
42.76526537195373
 30
0.0
  0
VERTEX
  5
381
  8
RECESS_FOR_SCREWS
 10
87.05681936899634
 20
42.74850688806701
 30
0.0
  0
VERTEX
  5
382
  8
RECESS_FOR_SCREWS
 10
87.07278109995337
 20
42.73136156335998
 30
0.0
  0
VERTEX
  5
383
  8
RECESS_FOR_SCREWS
 10
87.08833291880103
 20
42.71383708826232
 30
0.0
  0
VERTEX
  5
384
  8
RECESS_FOR_SCREWS
 10
87.10346713510963
 20
42.69594115320373
 30
0.0
  0
VERTEX
  5
385
  8
RECESS_FOR_SCREWS
 10
87.11817605844948
 20
42.67768144861389
 30
0.0
  0
VERTEX
  5
386
  8
RECESS_FOR_SCREWS
 10
87.13245199839088
 20
42.65906566492248
 30
0.0
  0
VERTEX
  5
387
  8
RECESS_FOR_SCREWS
 10
87.14628726450417
 20
42.6401014925592
 30
0.0
  0
VERTEX
  5
388
  8
RECESS_FOR_SCREWS
 10
87.15967416635962
 20
42.62079662195373
 30
0.0
  0
VERTEX
  5
389
  8
RECESS_FOR_SCREWS
 10
87.1726050135276
 20
42.60115874353576
 30
0.0
  0
VERTEX
  5
38A
  8
RECESS_FOR_SCREWS
 10
87.18507211557836
 20
42.58119554773498
 30
0.0
  0
VERTEX
  5
38B
  8
RECESS_FOR_SCREWS
 10
87.19706778208227
 20
42.56091472498107
 30
0.0
  0
VERTEX
  5
38C
  8
RECESS_FOR_SCREWS
 10
87.20858432260961
 20
42.54032396570373
 30
0.0
  0
VERTEX
  5
38D
  8
RECESS_FOR_SCREWS
 10
87.21961404673071
 20
42.51943096033263
 30
0.0
  0
VERTEX
  5
38E
  8
RECESS_FOR_SCREWS
 10
87.23014926401586
 20
42.49824339929748
 30
0.0
  0
VERTEX
  5
38F
  8
RECESS_FOR_SCREWS
 10
87.24018228403537
 20
42.47676897302794
 30
0.0
  0
VERTEX
  5
390
  8
RECESS_FOR_SCREWS
 10
87.2497054163596
 20
42.45501537195373
 30
0.0
  0
VERTEX
  5
391
  8
RECESS_FOR_SCREWS
 10
87.25871097055884
 20
42.43299028650451
 30
0.0
  0
VERTEX
  5
392
  8
RECESS_FOR_SCREWS
 10
87.26719125620335
 20
42.41070140710998
 30
0.0
  0
VERTEX
  5
393
  8
RECESS_FOR_SCREWS
 10
87.2751385828635
 20
42.38815642419982
 30
0.0
  0
VERTEX
  5
394
  8
RECESS_FOR_SCREWS
 10
87.2825452601096
 20
42.36536302820372
 30
0.0
  0
VERTEX
  5
395
  8
RECESS_FOR_SCREWS
 10
87.28940359751194
 20
42.34232890955138
 30
0.0
  0
VERTEX
  5
396
  8
RECESS_FOR_SCREWS
 10
87.29570590464084
 20
42.31906175867248
 30
0.0
  0
VERTEX
  5
397
  8
RECESS_FOR_SCREWS
 10
87.30144449106663
 20
42.29556926599669
 30
0.0
  0
VERTEX
  5
398
  8
RECESS_FOR_SCREWS
 10
87.3066116663596
 20
42.27185912195372
 30
0.0
  0
VERTEX
  5
399
  8
RECESS_FOR_SCREWS
 10
87.31119974009007
 20
42.24793901697326
 30
0.0
  0
VERTEX
  5
39A
  8
RECESS_FOR_SCREWS
 10
87.31520102182836
 20
42.22381664148497
 30
0.0
  0
VERTEX
  5
39B
  8
RECESS_FOR_SCREWS
 10
87.31860782114478
 20
42.19949968591857
 30
0.0
  0
VERTEX
  5
39C
  8
RECESS_FOR_SCREWS
 10
87.32141244760962
 20
42.17499584070373
 30
0.0
  0
VERTEX
  5
39D
  8
RECESS_FOR_SCREWS
 10
87.32360721079323
 20
42.15031279627014
 30
0.0
  0
VERTEX
  5
39E
  8
RECESS_FOR_SCREWS
 10
87.32518442026588
 20
42.12545824304748
 30
0.0
  0
VERTEX
  5
39F
  8
RECESS_FOR_SCREWS
 10
87.3261363855979
 20
42.10043987146544
 30
0.0
  0
VERTEX
  5
3A0
  8
RECESS_FOR_SCREWS
 10
87.32645541635962
 20
42.07526537195373
 30
0.0
  0
VERTEX
  5
3A1
  8
RECESS_FOR_SCREWS
 10
87.32645541635962
 20
40.41126537195372
 30
0.0
  0
SEQEND
  5
3A2
  8
RECESS_FOR_SCREWS
  0
POLYLINE
  5
69
  8
MARKS_IN_POCKET
 66
     1
 10
0.0
 20
0.0
 30
0.0
 70
     1
  0
VERTEX
  5
3A3
  8
MARKS_IN_POCKET
 10
85.27962097563992
 20
6.374998500000004
 30
0.0
 42
0.4142135623730951
  0
VERTEX
  5
3A4
  8
MARKS_IN_POCKET
 10
84.52962097563992
 20
5.624998500000004
 30
0.0
 42
0.4142135623730951
  0
VERTEX
  5
3A5
  8
MARKS_IN_POCKET
 10
85.27962097563992
 20
4.874998500000004
 30
0.0
 42
0.4142135623730951
  0
VERTEX
  5
3A6
  8
MARKS_IN_POCKET
 10
86.02962097563992
 20
5.624998500000004
 30
0.0
 42
0.4142135623730951
  0
SEQEND
  5
3A7
  8
MARKS_IN_POCKET
  0
ENDSEC
  0
EOF
