  0
SECTION
  2
HEADER
  9
$ACADVER
  1
AC1009
  9
$DWGCODEPAGE
  3
ansi_1252
  9
$INSBASE
 10
0.0
 20
0.0
 30
0.0
  9
$EXTMIN
 10
3.99974297564
 20
2.124998
 30
0.0
  9
$EXTMAX
 10
93.7883003142539
 20
46.11417692006265
 30
0.0
  9
$LIMMIN
 10
0.0
 20
0.0
  9
$LIMMAX
 10
12.0
 20
9.0
  9
$ORTHOMODE
 70
     0
  9
$REGENMODE
 70
     1
  9
$FILLMODE
 70
     1
  9
$QTEXTMODE
 70
     0
  9
$MIRRTEXT
 70
     1
  9
$DRAGMODE
 70
     2
  9
$LTSCALE
 40
1.0
  9
$OSMODE
 70
    37
  9
$ATTMODE
 70
     1
  9
$TEXTSIZE
 40
0.2
  9
$TRACEWID
 40
0.05
  9
$TEXTSTYLE
  7
STANDARD
  9
$CLAYER
  8
0
  9
$CELTYPE
  6
BYLAYER
  9
$CECOLOR
 62
   256
  9
$DIMSCALE
 40
1.0
  9
$DIMASZ
 40
0.18
  9
$DIMEXO
 40
0.0625
  9
$DIMDLI
 40
0.38
  9
$DIMRND
 40
0.0
  9
$DIMDLE
 40
0.0
  9
$DIMEXE
 40
0.18
  9
$DIMTP
 40
0.0
  9
$DIMTM
 40
0.0
  9
$DIMTXT
 40
0.18
  9
$DIMCEN
 40
0.09
  9
$DIMTSZ
 40
0.0
  9
$DIMTOL
 70
     0
  9
$DIMLIM
 70
     0
  9
$DIMTIH
 70
     1
  9
$DIMTOH
 70
     1
  9
$DIMSE1
 70
     0
  9
$DIMSE2
 70
     0
  9
$DIMTAD
 70
     0
  9
$DIMZIN
 70
     0
  9
$DIMBLK
  1

  9
$DIMASO
 70
     1
  9
$DIMSHO
 70
     1
  9
$DIMPOST
  1

  9
$DIMAPOST
  1

  9
$DIMALT
 70
     0
  9
$DIMALTD
 70
     2
  9
$DIMALTF
 40
25.4
  9
$DIMLFAC
 40
1.0
  9
$DIMTOFL
 70
     0
  9
$DIMTVP
 40
0.0
  9
$DIMTIX
 70
     0
  9
$DIMSOXD
 70
     0
  9
$DIMSAH
 70
     0
  9
$DIMBLK1
  1

  9
$DIMBLK2
  1

  9
$DIMSTYLE
  2
STANDARD
  9
$DIMCLRD
 70
     0
  9
$DIMCLRE
 70
     0
  9
$DIMCLRT
 70
     0
  9
$DIMTFAC
 40
1.0
  9
$DIMGAP
 40
0.09
  9
$LUNITS
 70
     2
  9
$LUPREC
 70
     4
  9
$SKETCHINC
 40
0.1
  9
$FILLETRAD
 40
0.5
  9
$AUNITS
 70
     0
  9
$AUPREC
 70
     0
  9
$MENU
  1
.
  9
$ELEVATION
 40
0.0
  9
$PELEVATION
 40
0.0
  9
$THICKNESS
 40
0.0
  9
$LIMCHECK
 70
     0
  9
$CHAMFERA
 40
0.5
  9
$CHAMFERB
 40
0.5
  9
$SKPOLY
 70
     0
  9
$TDCREATE
 40
2454910.5
  9
$TDUPDATE
 40
2455901.445461562
  9
$TDINDWG
 40
0.0000000116
  9
$TDUSRTIMER
 40
0.0000000116
  9
$USRTIMER
 70
     1
  9
$ANGBASE
 50
0.0
  9
$ANGDIR
 70
     0
  9
$PDMODE
 70
     0
  9
$PDSIZE
 40
0.0
  9
$PLINEWID
 40
0.0
  9
$COORDS
 70
     1
  9
$SPLFRAME
 70
     0
  9
$SPLINETYPE
 70
     6
  9
$SPLINESEGS
 70
     8
  9
$ATTDIA
 70
     0
  9
$ATTREQ
 70
     1
  9
$HANDLING
 70
     1
  9
$HANDSEED
  5
37E
  9
$SURFTAB1
 70
     6
  9
$SURFTAB2
 70
     6
  9
$SURFTYPE
 70
     6
  9
$SURFU
 70
     6
  9
$SURFV
 70
     6
  9
$UCSNAME
  2

  9
$UCSORG
 10
0.0
 20
0.0
 30
0.0
  9
$UCSXDIR
 10
1.0
 20
0.0
 30
0.0
  9
$UCSYDIR
 10
0.0
 20
1.0
 30
0.0
  9
$PUCSNAME
  2

  9
$PUCSORG
 10
0.0
 20
0.0
 30
0.0
  9
$PUCSXDIR
 10
1.0
 20
0.0
 30
0.0
  9
$PUCSYDIR
 10
0.0
 20
1.0
 30
0.0
  9
$USERI1
 70
     0
  9
$USERI2
 70
     0
  9
$USERI3
 70
     0
  9
$USERI4
 70
     0
  9
$USERI5
 70
     0
  9
$USERR1
 40
0.0
  9
$USERR2
 40
0.0
  9
$USERR3
 40
0.0
  9
$USERR4
 40
0.0
  9
$USERR5
 40
0.0
  9
$WORLDVIEW
 70
     1
  9
$SHADEDGE
 70
     3
  9
$SHADEDIF
 70
    70
  9
$TILEMODE
 70
     1
  9
$MAXACTVP
 70
    64
  9
$PLIMCHECK
 70
     0
  9
$PEXTMIN
 10
1.000000000000000E+20
 20
1.000000000000000E+20
 30
1.000000000000000E+20
  9
$PEXTMAX
 10
-1.000000000000000E+20
 20
-1.000000000000000E+20
 30
-1.000000000000000E+20
  9
$PLIMMIN
 10
0.0
 20
0.0
  9
$PLIMMAX
 10
12.0
 20
9.0
  9
$UNITMODE
 70
     0
  9
$VISRETAIN
 70
     1
  9
$PLINEGEN
 70
     0
  9
$PSLTSCALE
 70
     1
  0
ENDSEC
  0
SECTION
  2
TABLES
  0
TABLE
  2
VPORT
 70
     1
  0
VPORT
  2
*ACTIVE
 70
     0
 10
0.0
 20
0.0
 11
1.0
 21
1.0
 12
10.42990654205607
 22
4.5
 13
0.0
 23
0.0
 14
0.5
 24
0.5
 15
0.5
 25
0.5
 16
0.0
 26
0.0
 36
1.0
 17
0.0
 27
0.0
 37
0.0
 40
9.0
 41
1.972972972850329
 42
50.0
 43
0.0
 44
0.0
 50
0.0
 51
0.0
 71
     0
 72
   100
 73
     1
 74
     3
 75
     0
 76
     0
 77
     0
 78
     0
  0
ENDTAB
  0
TABLE
  2
LTYPE
 70
     2
  0
LTYPE
  2
CONTINUOUS
 70
     0
  3
Solid line
 72
    65
 73
     0
 40
0.0
  0
LTYPE
  2
CONTINUOUS2
 70
     0
  3
Solid Line
 72
    65
 73
     0
 40
0.0
  0
ENDTAB
  0
TABLE
  2
LAYER
 70
     5
  0
LAYER
  2
0
 70
     0
 62
     7
  6
CONTINUOUS
  0
LAYER
  2
THROUGH_CUT
 70
     0
 62
    18
  6
CONTINUOUS
  0
LAYER
  2
CUT_HALFWAY_THROUGH
 70
     0
 62
     1
  6
CONTINUOUS
  0
LAYER
  2
RECESS_FOR_SCREWS
 70
     0
 62
     5
  6
CONTINUOUS
  0
LAYER
  2
MARK_IN_POCKET
 70
     0
 62
     3
  6
CONTINUOUS
  0
ENDTAB
  0
TABLE
  2
STYLE
 70
     1
  0
STYLE
  2
STANDARD
 70
     0
 40
0.0
 41
1.0
 50
0.0
 71
     0
 42
0.2
  3
txt
  4

  0
ENDTAB
  0
TABLE
  2
VIEW
 70
     0
  0
ENDTAB
  0
TABLE
  2
UCS
 70
     0
  0
ENDTAB
  0
TABLE
  2
APPID
 70
     1
  0
APPID
  2
ACAD
 70
     0
  0
ENDTAB
  0
TABLE
  2
DIMSTYLE
 70
     1
  0
DIMSTYLE
  2
STANDARD
 70
     0
  3

  4

  5

  6

  7

 40
1.0
 41
0.18
 42
0.0625
 43
0.38
 44
0.18
 45
0.0
 46
0.0
 47
0.0
 48
0.0
140
0.18
141
0.09
142
0.0
143
25.4
144
1.0
145
0.0
146
1.0
147
0.09
 71
     0
 72
     0
 73
     1
 74
     1
 75
     0
 76
     0
 77
     0
 78
     0
170
     0
171
     2
172
     0
173
     0
174
     0
175
     0
176
     0
177
     0
178
     0
  0
ENDTAB
  0
ENDSEC
  0
SECTION
  2
BLOCKS
  0
BLOCK
  8
0
  2
$MODEL_SPACE
 70
     0
 10
0.0
 20
0.0
 30
0.0
  3
$MODEL_SPACE
  1

  0
ENDBLK
  5
21
  8
0
  0
BLOCK
 67
     1
  8
0
  2
$PAPER_SPACE
 70
     0
 10
0.0
 20
0.0
 30
0.0
  3
$PAPER_SPACE
  1

  0
ENDBLK
  5
1D
 67
     1
  8
0
  0
ENDSEC
  0
SECTION
  2
ENTITIES
  0
POLYLINE
  5
41
  8
THROUGH_CUT
 66
     1
 10
0.0
 20
0.0
 30
0.0
 70
     1
  0
VERTEX
  5
6D
  8
THROUGH_CUT
 10
79.27962297564
 20
5.824955
 30
0.0
 42
0.414213562372987
  0
VERTEX
  5
6E
  8
THROUGH_CUT
 10
79.07962297564
 20
5.624955
 30
0.0
 42
0.414213562372987
  0
VERTEX
  5
6F
  8
THROUGH_CUT
 10
79.27962297564
 20
5.424955
 30
0.0
 42
0.414213562372995
  0
VERTEX
  5
70
  8
THROUGH_CUT
 10
79.47962297564
 20
5.624955
 30
0.0
 42
0.414213562372995
  0
SEQEND
  5
71
  8
THROUGH_CUT
  0
POLYLINE
  5
42
  8
THROUGH_CUT
 66
     1
 10
0.0
 20
0.0
 30
0.0
 70
     1
  0
VERTEX
  5
72
  8
THROUGH_CUT
 10
91.27962297564
 20
5.824955
 30
0.0
 42
0.414213562372987
  0
VERTEX
  5
73
  8
THROUGH_CUT
 10
91.07962297564
 20
5.624955
 30
0.0
 42
0.414213562372987
  0
VERTEX
  5
74
  8
THROUGH_CUT
 10
91.27962297564
 20
5.424955
 30
0.0
 42
0.414213562372995
  0
VERTEX
  5
75
  8
THROUGH_CUT
 10
91.47962297564
 20
5.624955
 30
0.0
 42
0.414213562372995
  0
SEQEND
  5
76
  8
THROUGH_CUT
  0
POLYLINE
  5
43
  8
THROUGH_CUT
 66
     1
 10
0.0
 20
0.0
 30
0.0
 70
     1
  0
VERTEX
  5
77
  8
THROUGH_CUT
 10
4.95283397564
 20
5.495418
 30
0.0
 42
0.9614812579399954
  0
VERTEX
  5
78
  8
THROUGH_CUT
 10
5.040919490576851
 20
4.751201678935888
 30
0.0
 42
0.9614804590530841
  0
VERTEX
  5
79
  8
THROUGH_CUT
 10
5.01149697564
 20
5.500035
 30
0.0
 42
0.0196379937251413
  0
VERTEX
  5
7A
  8
THROUGH_CUT
 10
4.982075083382964
 20
5.498878980309032
 30
0.0
 42
0.0196375784393063
  0
SEQEND
  5
7B
  8
THROUGH_CUT
  0
POLYLINE
  5
44
  8
THROUGH_CUT
 66
     1
 10
0.0
 20
0.0
 30
0.0
 70
     1
  0
VERTEX
  5
7C
  8
THROUGH_CUT
 10
27.0383003142539
 20
29.98917692006264
 30
0.0
  0
VERTEX
  5
7D
  8
THROUGH_CUT
 10
27.78830031425389
 20
29.98917692006264
 30
0.0
 42
-1.0
  0
VERTEX
  5
7E
  8
THROUGH_CUT
 10
27.78830031425389
 20
29.60917692006265
 30
0.0
  0
VERTEX
  5
7F
  8
THROUGH_CUT
 10
27.78830031425389
 20
27.36917692006264
 30
0.0
 42
-1.0
  0
VERTEX
  5
80
  8
THROUGH_CUT
 10
27.78830031425389
 20
26.98917692006264
 30
0.0
  0
VERTEX
  5
81
  8
THROUGH_CUT
 10
27.0383003142539
 20
26.98917692006264
 30
0.0
 42
-1.0
  0
VERTEX
  5
82
  8
THROUGH_CUT
 10
27.0383003142539
 20
27.36917692006264
 30
0.0
  0
VERTEX
  5
83
  8
THROUGH_CUT
 10
27.0383003142539
 20
29.60917692006265
 30
0.0
 42
-1.0
  0
SEQEND
  5
84
  8
THROUGH_CUT
  0
POLYLINE
  5
45
  8
THROUGH_CUT
 66
     1
 10
0.0
 20
0.0
 30
0.0
 70
     1
  0
VERTEX
  5
85
  8
THROUGH_CUT
 10
49.0383003142539
 20
29.98917692006264
 30
0.0
  0
VERTEX
  5
86
  8
THROUGH_CUT
 10
49.7883003142539
 20
29.98917692006264
 30
0.0
 42
-1.0
  0
VERTEX
  5
87
  8
THROUGH_CUT
 10
49.7883003142539
 20
29.60917692006265
 30
0.0
  0
VERTEX
  5
88
  8
THROUGH_CUT
 10
49.7883003142539
 20
27.36917692006264
 30
0.0
 42
-1.0
  0
VERTEX
  5
89
  8
THROUGH_CUT
 10
49.7883003142539
 20
26.98917692006264
 30
0.0
  0
VERTEX
  5
8A
  8
THROUGH_CUT
 10
49.0383003142539
 20
26.98917692006264
 30
0.0
 42
-1.0
  0
VERTEX
  5
8B
  8
THROUGH_CUT
 10
49.0383003142539
 20
27.36917692006264
 30
0.0
  0
VERTEX
  5
8C
  8
THROUGH_CUT
 10
49.0383003142539
 20
29.60917692006265
 30
0.0
 42
-1.0
  0
SEQEND
  5
8D
  8
THROUGH_CUT
  0
POLYLINE
  5
46
  8
THROUGH_CUT
 66
     1
 10
0.0
 20
0.0
 30
0.0
 70
     1
  0
VERTEX
  5
8E
  8
THROUGH_CUT
 10
71.0383003142539
 20
29.98917692006264
 30
0.0
  0
VERTEX
  5
8F
  8
THROUGH_CUT
 10
71.7883003142539
 20
29.98917692006264
 30
0.0
 42
-1.0
  0
VERTEX
  5
90
  8
THROUGH_CUT
 10
71.7883003142539
 20
29.60917692006265
 30
0.0
  0
VERTEX
  5
91
  8
THROUGH_CUT
 10
71.7883003142539
 20
27.36917692006264
 30
0.0
 42
-1.0
  0
VERTEX
  5
92
  8
THROUGH_CUT
 10
71.7883003142539
 20
26.98917692006264
 30
0.0
  0
VERTEX
  5
93
  8
THROUGH_CUT
 10
71.0383003142539
 20
26.98917692006264
 30
0.0
 42
-1.0
  0
VERTEX
  5
94
  8
THROUGH_CUT
 10
71.0383003142539
 20
27.36917692006264
 30
0.0
  0
VERTEX
  5
95
  8
THROUGH_CUT
 10
71.0383003142539
 20
29.60917692006265
 30
0.0
 42
-1.0
  0
SEQEND
  5
96
  8
THROUGH_CUT
  0
POLYLINE
  5
47
  8
THROUGH_CUT
 66
     1
 10
0.0
 20
0.0
 30
0.0
 70
     1
  0
VERTEX
  5
97
  8
THROUGH_CUT
 10
73.90462097564
 20
9.124999
 30
0.0
  0
VERTEX
  5
98
  8
THROUGH_CUT
 10
52.65462097564
 20
9.124999
 30
0.0
  0
VERTEX
  5
99
  8
THROUGH_CUT
 10
52.65462097564
 20
5.524999
 30
0.0
  0
VERTEX
  5
9A
  8
THROUGH_CUT
 10
52.68753997564
 20
5.522271
 30
0.0
  0
VERTEX
  5
9B
  8
THROUGH_CUT
 10
52.71956097564
 20
5.514162
 30
0.0
  0
VERTEX
  5
9C
  8
THROUGH_CUT
 10
52.74980997564
 20
5.500894
 30
0.0
  0
VERTEX
  5
9D
  8
THROUGH_CUT
 10
52.77746297564
 20
5.482827
 30
0.0
  0
VERTEX
  5
9E
  8
THROUGH_CUT
 10
52.80176597564
 20
5.460455
 30
0.0
  0
VERTEX
  5
9F
  8
THROUGH_CUT
 10
52.82205397564
 20
5.434388
 30
0.0
  0
VERTEX
  5
A0
  8
THROUGH_CUT
 10
52.83777597564
 20
5.405338
 30
0.0
  0
VERTEX
  5
A1
  8
THROUGH_CUT
 10
52.84850097564
 20
5.374096
 30
0.0
  0
VERTEX
  5
A2
  8
THROUGH_CUT
 10
52.85393797564
 20
5.341515
 30
0.0
  0
VERTEX
  5
A3
  8
THROUGH_CUT
 10
52.85393797564
 20
5.308483
 30
0.0
  0
VERTEX
  5
A4
  8
THROUGH_CUT
 10
52.84850097564
 20
5.275902
 30
0.0
  0
VERTEX
  5
A5
  8
THROUGH_CUT
 10
52.83777597564
 20
5.24466
 30
0.0
  0
VERTEX
  5
A6
  8
THROUGH_CUT
 10
52.82205397564
 20
5.215609
 30
0.0
  0
VERTEX
  5
A7
  8
THROUGH_CUT
 10
52.80176597564
 20
5.189542
 30
0.0
  0
VERTEX
  5
A8
  8
THROUGH_CUT
 10
52.77746297564
 20
5.167171
 30
0.0
  0
VERTEX
  5
A9
  8
THROUGH_CUT
 10
52.74980997564
 20
5.149104
 30
0.0
  0
VERTEX
  5
AA
  8
THROUGH_CUT
 10
52.71956097564
 20
5.135835
 30
0.0
  0
VERTEX
  5
AB
  8
THROUGH_CUT
 10
52.68753997564
 20
5.127727
 30
0.0
  0
VERTEX
  5
AC
  8
THROUGH_CUT
 10
52.65462097564
 20
5.124999
 30
0.0
  0
VERTEX
  5
AD
  8
THROUGH_CUT
 10
51.90462097564
 20
5.124999
 30
0.0
  0
VERTEX
  5
AE
  8
THROUGH_CUT
 10
51.87170197564
 20
5.127727
 30
0.0
  0
VERTEX
  5
AF
  8
THROUGH_CUT
 10
51.83968097564
 20
5.135835
 30
0.0
  0
VERTEX
  5
B0
  8
THROUGH_CUT
 10
51.80943097564
 20
5.149104
 30
0.0
  0
VERTEX
  5
B1
  8
THROUGH_CUT
 10
51.78177797564
 20
5.167171
 30
0.0
  0
VERTEX
  5
B2
  8
THROUGH_CUT
 10
51.75747597564
 20
5.189542
 30
0.0
  0
VERTEX
  5
B3
  8
THROUGH_CUT
 10
51.73718797564
 20
5.215609
 30
0.0
  0
VERTEX
  5
B4
  8
THROUGH_CUT
 10
51.72146597564
 20
5.24466
 30
0.0
  0
VERTEX
  5
B5
  8
THROUGH_CUT
 10
51.71074097564
 20
5.275902
 30
0.0
  0
VERTEX
  5
B6
  8
THROUGH_CUT
 10
51.70530397564
 20
5.308483
 30
0.0
  0
VERTEX
  5
B7
  8
THROUGH_CUT
 10
51.70530397564
 20
5.341515
 30
0.0
  0
VERTEX
  5
B8
  8
THROUGH_CUT
 10
51.71074097564
 20
5.374096
 30
0.0
  0
VERTEX
  5
B9
  8
THROUGH_CUT
 10
51.72146597564
 20
5.405338
 30
0.0
  0
VERTEX
  5
BA
  8
THROUGH_CUT
 10
51.73718797564
 20
5.434388
 30
0.0
  0
VERTEX
  5
BB
  8
THROUGH_CUT
 10
51.75747597564
 20
5.460455
 30
0.0
  0
VERTEX
  5
BC
  8
THROUGH_CUT
 10
51.78177797564
 20
5.482827
 30
0.0
  0
VERTEX
  5
BD
  8
THROUGH_CUT
 10
51.80943097564
 20
5.500894
 30
0.0
  0
VERTEX
  5
BE
  8
THROUGH_CUT
 10
51.83968097564
 20
5.514162
 30
0.0
  0
VERTEX
  5
BF
  8
THROUGH_CUT
 10
51.87170197564
 20
5.522271
 30
0.0
  0
VERTEX
  5
C0
  8
THROUGH_CUT
 10
51.90462097564
 20
5.524999
 30
0.0
  0
VERTEX
  5
C1
  8
THROUGH_CUT
 10
51.90462097564
 20
9.124999
 30
0.0
  0
VERTEX
  5
C2
  8
THROUGH_CUT
 10
30.65462097564
 20
9.124999
 30
0.0
  0
VERTEX
  5
C3
  8
THROUGH_CUT
 10
30.65462097564
 20
5.524999
 30
0.0
  0
VERTEX
  5
C4
  8
THROUGH_CUT
 10
30.68753997564
 20
5.522271
 30
0.0
  0
VERTEX
  5
C5
  8
THROUGH_CUT
 10
30.71956097564
 20
5.514162
 30
0.0
  0
VERTEX
  5
C6
  8
THROUGH_CUT
 10
30.74980997564
 20
5.500894
 30
0.0
  0
VERTEX
  5
C7
  8
THROUGH_CUT
 10
30.77746297564
 20
5.482827
 30
0.0
  0
VERTEX
  5
C8
  8
THROUGH_CUT
 10
30.80176597564
 20
5.460455
 30
0.0
  0
VERTEX
  5
C9
  8
THROUGH_CUT
 10
30.82205397564
 20
5.434388
 30
0.0
  0
VERTEX
  5
CA
  8
THROUGH_CUT
 10
30.83777597564
 20
5.405338
 30
0.0
  0
VERTEX
  5
CB
  8
THROUGH_CUT
 10
30.84850097564
 20
5.374096
 30
0.0
  0
VERTEX
  5
CC
  8
THROUGH_CUT
 10
30.85393797564
 20
5.341515
 30
0.0
  0
VERTEX
  5
CD
  8
THROUGH_CUT
 10
30.85393797564
 20
5.308483
 30
0.0
  0
VERTEX
  5
CE
  8
THROUGH_CUT
 10
30.84850097564
 20
5.275902
 30
0.0
  0
VERTEX
  5
CF
  8
THROUGH_CUT
 10
30.83777597564
 20
5.24466
 30
0.0
  0
VERTEX
  5
D0
  8
THROUGH_CUT
 10
30.82205397564
 20
5.215609
 30
0.0
  0
VERTEX
  5
D1
  8
THROUGH_CUT
 10
30.80176597564
 20
5.189542
 30
0.0
  0
VERTEX
  5
D2
  8
THROUGH_CUT
 10
30.77746297564
 20
5.167171
 30
0.0
  0
VERTEX
  5
D3
  8
THROUGH_CUT
 10
30.74980997564
 20
5.149104
 30
0.0
  0
VERTEX
  5
D4
  8
THROUGH_CUT
 10
30.71956097564
 20
5.135835
 30
0.0
  0
VERTEX
  5
D5
  8
THROUGH_CUT
 10
30.68753997564
 20
5.127727
 30
0.0
  0
VERTEX
  5
D6
  8
THROUGH_CUT
 10
30.65462097564
 20
5.124999
 30
0.0
  0
VERTEX
  5
D7
  8
THROUGH_CUT
 10
29.90462097564
 20
5.124999
 30
0.0
  0
VERTEX
  5
D8
  8
THROUGH_CUT
 10
29.87170197564
 20
5.127727
 30
0.0
  0
VERTEX
  5
D9
  8
THROUGH_CUT
 10
29.83968097564
 20
5.135835
 30
0.0
  0
VERTEX
  5
DA
  8
THROUGH_CUT
 10
29.80943097564
 20
5.149104
 30
0.0
  0
VERTEX
  5
DB
  8
THROUGH_CUT
 10
29.78177797564
 20
5.167171
 30
0.0
  0
VERTEX
  5
DC
  8
THROUGH_CUT
 10
29.75747597564
 20
5.189542
 30
0.0
  0
VERTEX
  5
DD
  8
THROUGH_CUT
 10
29.73718797564
 20
5.215609
 30
0.0
  0
VERTEX
  5
DE
  8
THROUGH_CUT
 10
29.72146597564
 20
5.24466
 30
0.0
  0
VERTEX
  5
DF
  8
THROUGH_CUT
 10
29.71074097564
 20
5.275902
 30
0.0
  0
VERTEX
  5
E0
  8
THROUGH_CUT
 10
29.70530397564
 20
5.308483
 30
0.0
  0
VERTEX
  5
E1
  8
THROUGH_CUT
 10
29.70530397564
 20
5.341515
 30
0.0
  0
VERTEX
  5
E2
  8
THROUGH_CUT
 10
29.71074097564
 20
5.374096
 30
0.0
  0
VERTEX
  5
E3
  8
THROUGH_CUT
 10
29.72146597564
 20
5.405338
 30
0.0
  0
VERTEX
  5
E4
  8
THROUGH_CUT
 10
29.73718797564
 20
5.434388
 30
0.0
  0
VERTEX
  5
E5
  8
THROUGH_CUT
 10
29.75747597564
 20
5.460455
 30
0.0
  0
VERTEX
  5
E6
  8
THROUGH_CUT
 10
29.78177797564
 20
5.482827
 30
0.0
  0
VERTEX
  5
E7
  8
THROUGH_CUT
 10
29.80943097564
 20
5.500894
 30
0.0
  0
VERTEX
  5
E8
  8
THROUGH_CUT
 10
29.83968097564
 20
5.514162
 30
0.0
  0
VERTEX
  5
E9
  8
THROUGH_CUT
 10
29.87170197564
 20
5.522271
 30
0.0
  0
VERTEX
  5
EA
  8
THROUGH_CUT
 10
29.90462097564
 20
5.524999
 30
0.0
  0
VERTEX
  5
EB
  8
THROUGH_CUT
 10
29.90462097564
 20
9.124999
 30
0.0
  0
VERTEX
  5
EC
  8
THROUGH_CUT
 10
8.65462097564
 20
9.124999
 30
0.0
  0
VERTEX
  5
ED
  8
THROUGH_CUT
 10
8.65462097564
 20
5.524999
 30
0.0
  0
VERTEX
  5
EE
  8
THROUGH_CUT
 10
8.68753997564
 20
5.522271
 30
0.0
  0
VERTEX
  5
EF
  8
THROUGH_CUT
 10
8.71956097564
 20
5.514162
 30
0.0
  0
VERTEX
  5
F0
  8
THROUGH_CUT
 10
8.74980997564
 20
5.500894
 30
0.0
  0
VERTEX
  5
F1
  8
THROUGH_CUT
 10
8.77746297564
 20
5.482827
 30
0.0
  0
VERTEX
  5
F2
  8
THROUGH_CUT
 10
8.80176597564
 20
5.460455
 30
0.0
  0
VERTEX
  5
F3
  8
THROUGH_CUT
 10
8.82205397564
 20
5.434388
 30
0.0
  0
VERTEX
  5
F4
  8
THROUGH_CUT
 10
8.83777597564
 20
5.405338
 30
0.0
  0
VERTEX
  5
F5
  8
THROUGH_CUT
 10
8.84850097564
 20
5.374096
 30
0.0
  0
VERTEX
  5
F6
  8
THROUGH_CUT
 10
8.85393797564
 20
5.341515
 30
0.0
  0
VERTEX
  5
F7
  8
THROUGH_CUT
 10
8.85393797564
 20
5.308483
 30
0.0
  0
VERTEX
  5
F8
  8
THROUGH_CUT
 10
8.84850097564
 20
5.275902
 30
0.0
  0
VERTEX
  5
F9
  8
THROUGH_CUT
 10
8.83777597564
 20
5.24466
 30
0.0
  0
VERTEX
  5
FA
  8
THROUGH_CUT
 10
8.82205397564
 20
5.215609
 30
0.0
  0
VERTEX
  5
FB
  8
THROUGH_CUT
 10
8.80176597564
 20
5.189542
 30
0.0
  0
VERTEX
  5
FC
  8
THROUGH_CUT
 10
8.77746297564
 20
5.167171
 30
0.0
  0
VERTEX
  5
FD
  8
THROUGH_CUT
 10
8.74980997564
 20
5.149104
 30
0.0
  0
VERTEX
  5
FE
  8
THROUGH_CUT
 10
8.71956097564
 20
5.135835
 30
0.0
  0
VERTEX
  5
FF
  8
THROUGH_CUT
 10
8.68753997564
 20
5.127727
 30
0.0
  0
VERTEX
  5
100
  8
THROUGH_CUT
 10
8.65462097564
 20
5.124999
 30
0.0
  0
VERTEX
  5
101
  8
THROUGH_CUT
 10
7.90462097564
 20
5.124999
 30
0.0
  0
VERTEX
  5
102
  8
THROUGH_CUT
 10
7.87170197564
 20
5.127727
 30
0.0
  0
VERTEX
  5
103
  8
THROUGH_CUT
 10
7.83968097564
 20
5.135835
 30
0.0
  0
VERTEX
  5
104
  8
THROUGH_CUT
 10
7.80943097564
 20
5.149104
 30
0.0
  0
VERTEX
  5
105
  8
THROUGH_CUT
 10
7.78177797564
 20
5.167171
 30
0.0
  0
VERTEX
  5
106
  8
THROUGH_CUT
 10
7.75747597564
 20
5.189542
 30
0.0
  0
VERTEX
  5
107
  8
THROUGH_CUT
 10
7.73718797564
 20
5.215609
 30
0.0
  0
VERTEX
  5
108
  8
THROUGH_CUT
 10
7.72146597564
 20
5.24466
 30
0.0
  0
VERTEX
  5
109
  8
THROUGH_CUT
 10
7.71074097564
 20
5.275902
 30
0.0
  0
VERTEX
  5
10A
  8
THROUGH_CUT
 10
7.70530397564
 20
5.308483
 30
0.0
  0
VERTEX
  5
10B
  8
THROUGH_CUT
 10
7.70530397564
 20
5.341515
 30
0.0
  0
VERTEX
  5
10C
  8
THROUGH_CUT
 10
7.71074097564
 20
5.374096
 30
0.0
  0
VERTEX
  5
10D
  8
THROUGH_CUT
 10
7.72146597564
 20
5.405338
 30
0.0
  0
VERTEX
  5
10E
  8
THROUGH_CUT
 10
7.73718797564
 20
5.434388
 30
0.0
  0
VERTEX
  5
10F
  8
THROUGH_CUT
 10
7.75747597564
 20
5.460455
 30
0.0
  0
VERTEX
  5
110
  8
THROUGH_CUT
 10
7.78177797564
 20
5.482827
 30
0.0
  0
VERTEX
  5
111
  8
THROUGH_CUT
 10
7.80943097564
 20
5.500894
 30
0.0
  0
VERTEX
  5
112
  8
THROUGH_CUT
 10
7.83968097564
 20
5.514162
 30
0.0
  0
VERTEX
  5
113
  8
THROUGH_CUT
 10
7.87170197564
 20
5.522271
 30
0.0
  0
VERTEX
  5
114
  8
THROUGH_CUT
 10
7.90462097564
 20
5.524999
 30
0.0
  0
VERTEX
  5
115
  8
THROUGH_CUT
 10
7.90462097564
 20
9.124999
 30
0.0
  0
VERTEX
  5
116
  8
THROUGH_CUT
 10
5.76153897564
 20
9.124999
 30
0.0
  0
VERTEX
  5
117
  8
THROUGH_CUT
 10
5.76153897564
 20
7.407842
 30
0.0
  0
VERTEX
  5
118
  8
THROUGH_CUT
 10
5.78394797564
 20
7.381136
 30
0.0
  0
VERTEX
  5
119
  8
THROUGH_CUT
 10
5.80137997564
 20
7.350944
 30
0.0
  0
VERTEX
  5
11A
  8
THROUGH_CUT
 10
5.81330297564
 20
7.318184
 30
0.0
  0
VERTEX
  5
11B
  8
THROUGH_CUT
 10
5.81935697564
 20
7.283852
 30
0.0
  0
VERTEX
  5
11C
  8
THROUGH_CUT
 10
5.81935697564
 20
7.24899
 30
0.0
  0
VERTEX
  5
11D
  8
THROUGH_CUT
 10
5.81330297564
 20
7.214657
 30
0.0
  0
VERTEX
  5
11E
  8
THROUGH_CUT
 10
5.80137997564
 20
7.181897
 30
0.0
  0
VERTEX
  5
11F
  8
THROUGH_CUT
 10
5.78394897564
 20
7.151705
 30
0.0
  0
VERTEX
  5
120
  8
THROUGH_CUT
 10
5.76153997564
 20
7.124999
 30
0.0
  0
VERTEX
  5
121
  8
THROUGH_CUT
 10
5.73483397564
 20
7.10259
 30
0.0
  0
VERTEX
  5
122
  8
THROUGH_CUT
 10
5.70464197564
 20
7.085159
 30
0.0
  0
VERTEX
  5
123
  8
THROUGH_CUT
 10
5.67188197564
 20
7.073235
 30
0.0
  0
VERTEX
  5
124
  8
THROUGH_CUT
 10
5.63754997564
 20
7.067182
 30
0.0
  0
VERTEX
  5
125
  8
THROUGH_CUT
 10
5.60268697564
 20
7.067181
 30
0.0
  0
VERTEX
  5
126
  8
THROUGH_CUT
 10
5.56835497564
 20
7.073235
 30
0.0
  0
VERTEX
  5
127
  8
THROUGH_CUT
 10
5.53559497564
 20
7.085159
 30
0.0
  0
VERTEX
  5
128
  8
THROUGH_CUT
 10
5.50540297564
 20
7.10259
 30
0.0
  0
VERTEX
  5
129
  8
THROUGH_CUT
 10
5.47869697564
 20
7.124999
 30
0.0
  0
VERTEX
  5
12A
  8
THROUGH_CUT
 10
4.49974297564
 20
7.124999
 30
0.0
 42
0.4142135623729997
  0
VERTEX
  5
12B
  8
THROUGH_CUT
 10
3.99974297564
 20
6.624999
 30
0.0
  0
VERTEX
  5
12C
  8
THROUGH_CUT
 10
3.99974297564
 20
3.624999
 30
0.0
 42
0.4142135623730001
  0
VERTEX
  5
12D
  8
THROUGH_CUT
 10
4.49974297564
 20
3.124999
 30
0.0
  0
VERTEX
  5
12E
  8
THROUGH_CUT
 10
5.47869697564
 20
3.124999
 30
0.0
  0
VERTEX
  5
12F
  8
THROUGH_CUT
 10
5.50390297564
 20
3.146347
 30
0.0
  0
VERTEX
  5
130
  8
THROUGH_CUT
 10
5.53227897564
 20
3.163256
 30
0.0
  0
VERTEX
  5
131
  8
THROUGH_CUT
 10
5.56305097564
 20
3.175263
 30
0.0
  0
VERTEX
  5
132
  8
THROUGH_CUT
 10
5.59537997564
 20
3.182041
 30
0.0
  0
VERTEX
  5
133
  8
THROUGH_CUT
 10
5.62838397564
 20
3.183406
 30
0.0
  0
VERTEX
  5
134
  8
THROUGH_CUT
 10
5.66116197564
 20
3.17932
 30
0.0
  0
VERTEX
  5
135
  8
THROUGH_CUT
 10
5.69281997564
 20
3.169895
 30
0.0
  0
VERTEX
  5
136
  8
THROUGH_CUT
 10
5.72249597564
 20
3.155388
 30
0.0
  0
VERTEX
  5
137
  8
THROUGH_CUT
 10
5.74937797564
 20
3.136194
 30
0.0
  0
VERTEX
  5
138
  8
THROUGH_CUT
 10
5.77273497564
 20
3.112837
 30
0.0
  0
VERTEX
  5
139
  8
THROUGH_CUT
 10
5.79192897564
 20
3.085954
 30
0.0
  0
VERTEX
  5
13A
  8
THROUGH_CUT
 10
5.80643597564
 20
3.056278
 30
0.0
  0
VERTEX
  5
13B
  8
THROUGH_CUT
 10
5.81586197564
 20
3.02462
 30
0.0
  0
VERTEX
  5
13C
  8
THROUGH_CUT
 10
5.81994697564
 20
2.991842
 30
0.0
  0
VERTEX
  5
13D
  8
THROUGH_CUT
 10
5.81858197564
 20
2.958838
 30
0.0
  0
VERTEX
  5
13E
  8
THROUGH_CUT
 10
5.81180397564
 20
2.92651
 30
0.0
  0
VERTEX
  5
13F
  8
THROUGH_CUT
 10
5.79979597564
 20
2.895738
 30
0.0
  0
VERTEX
  5
140
  8
THROUGH_CUT
 10
5.78288797564
 20
2.867362
 30
0.0
  0
VERTEX
  5
141
  8
THROUGH_CUT
 10
5.76153897564
 20
2.842156
 30
0.0
  0
VERTEX
  5
142
  8
THROUGH_CUT
 10
5.76153897564
 20
2.124999
 30
0.0
  0
VERTEX
  5
143
  8
THROUGH_CUT
 10
85.27962097564
 20
2.124998
 30
0.0
  0
VERTEX
  5
144
  8
THROUGH_CUT
 10
91.944629114889
 20
4.192289122274
 30
0.0
 42
0.7368231252249993
  0
VERTEX
  5
145
  8
THROUGH_CUT
 10
91.94464599146
 20
7.057615779504
 30
0.0
  0
VERTEX
  5
146
  8
THROUGH_CUT
 10
85.27962097564
 20
9.124999
 30
0.0
  0
VERTEX
  5
147
  8
THROUGH_CUT
 10
74.65462097564
 20
9.124999
 30
0.0
  0
VERTEX
  5
148
  8
THROUGH_CUT
 10
74.65462097564
 20
5.524999
 30
0.0
  0
VERTEX
  5
149
  8
THROUGH_CUT
 10
74.68753997564
 20
5.522271
 30
0.0
  0
VERTEX
  5
14A
  8
THROUGH_CUT
 10
74.71956097564
 20
5.514162
 30
0.0
  0
VERTEX
  5
14B
  8
THROUGH_CUT
 10
74.74980997564
 20
5.500894
 30
0.0
  0
VERTEX
  5
14C
  8
THROUGH_CUT
 10
74.77746297564
 20
5.482827
 30
0.0
  0
VERTEX
  5
14D
  8
THROUGH_CUT
 10
74.80176597564
 20
5.460455
 30
0.0
  0
VERTEX
  5
14E
  8
THROUGH_CUT
 10
74.82205397564
 20
5.434388
 30
0.0
  0
VERTEX
  5
14F
  8
THROUGH_CUT
 10
74.83777597564
 20
5.405338
 30
0.0
  0
VERTEX
  5
150
  8
THROUGH_CUT
 10
74.84850097564
 20
5.374096
 30
0.0
  0
VERTEX
  5
151
  8
THROUGH_CUT
 10
74.85393797564
 20
5.341515
 30
0.0
  0
VERTEX
  5
152
  8
THROUGH_CUT
 10
74.85393797564
 20
5.308483
 30
0.0
  0
VERTEX
  5
153
  8
THROUGH_CUT
 10
74.84850097564
 20
5.275902
 30
0.0
  0
VERTEX
  5
154
  8
THROUGH_CUT
 10
74.83777597564
 20
5.24466
 30
0.0
  0
VERTEX
  5
155
  8
THROUGH_CUT
 10
74.82205397564
 20
5.215609
 30
0.0
  0
VERTEX
  5
156
  8
THROUGH_CUT
 10
74.80176597564
 20
5.189542
 30
0.0
  0
VERTEX
  5
157
  8
THROUGH_CUT
 10
74.77746297564
 20
5.167171
 30
0.0
  0
VERTEX
  5
158
  8
THROUGH_CUT
 10
74.74980997564
 20
5.149104
 30
0.0
  0
VERTEX
  5
159
  8
THROUGH_CUT
 10
74.71956097564
 20
5.135835
 30
0.0
  0
VERTEX
  5
15A
  8
THROUGH_CUT
 10
74.68753997564
 20
5.127727
 30
0.0
  0
VERTEX
  5
15B
  8
THROUGH_CUT
 10
74.65462097564
 20
5.124999
 30
0.0
  0
VERTEX
  5
15C
  8
THROUGH_CUT
 10
73.90462097564
 20
5.124999
 30
0.0
  0
VERTEX
  5
15D
  8
THROUGH_CUT
 10
73.87170197564
 20
5.127727
 30
0.0
  0
VERTEX
  5
15E
  8
THROUGH_CUT
 10
73.83968097564
 20
5.135835
 30
0.0
  0
VERTEX
  5
15F
  8
THROUGH_CUT
 10
73.80943097564
 20
5.149104
 30
0.0
  0
VERTEX
  5
160
  8
THROUGH_CUT
 10
73.78177797564
 20
5.167171
 30
0.0
  0
VERTEX
  5
161
  8
THROUGH_CUT
 10
73.75747597564
 20
5.189542
 30
0.0
  0
VERTEX
  5
162
  8
THROUGH_CUT
 10
73.73718797564
 20
5.215609
 30
0.0
  0
VERTEX
  5
163
  8
THROUGH_CUT
 10
73.72146597564
 20
5.24466
 30
0.0
  0
VERTEX
  5
164
  8
THROUGH_CUT
 10
73.71074097564
 20
5.275902
 30
0.0
  0
VERTEX
  5
165
  8
THROUGH_CUT
 10
73.70530397564
 20
5.308483
 30
0.0
  0
VERTEX
  5
166
  8
THROUGH_CUT
 10
73.70530397564
 20
5.341515
 30
0.0
  0
VERTEX
  5
167
  8
THROUGH_CUT
 10
73.71074097564
 20
5.374096
 30
0.0
  0
VERTEX
  5
168
  8
THROUGH_CUT
 10
73.72146597564
 20
5.405338
 30
0.0
  0
VERTEX
  5
169
  8
THROUGH_CUT
 10
73.73718797564
 20
5.434388
 30
0.0
  0
VERTEX
  5
16A
  8
THROUGH_CUT
 10
73.75747597564
 20
5.460455
 30
0.0
  0
VERTEX
  5
16B
  8
THROUGH_CUT
 10
73.78177797564
 20
5.482827
 30
0.0
  0
VERTEX
  5
16C
  8
THROUGH_CUT
 10
73.80943097564
 20
5.500894
 30
0.0
  0
VERTEX
  5
16D
  8
THROUGH_CUT
 10
73.83968097564
 20
5.514162
 30
0.0
  0
VERTEX
  5
16E
  8
THROUGH_CUT
 10
73.87170197564
 20
5.522271
 30
0.0
  0
VERTEX
  5
16F
  8
THROUGH_CUT
 10
73.90462097564
 20
5.524999
 30
0.0
  0
SEQEND
  5
170
  8
THROUGH_CUT
  0
POLYLINE
  5
48
  8
THROUGH_CUT
 66
     1
 10
0.0
 20
0.0
 30
0.0
 70
     1
  0
VERTEX
  5
171
  8
THROUGH_CUT
 10
5.038300314253902
 20
11.48917692006265
 30
0.0
  0
VERTEX
  5
172
  8
THROUGH_CUT
 10
5.038300314253902
 20
26.98917692006264
 30
0.0
  0
VERTEX
  5
173
  8
THROUGH_CUT
 10
5.788300314253888
 20
26.98917692006264
 30
0.0
 42
1.0
  0
VERTEX
  5
174
  8
THROUGH_CUT
 10
5.788300314253888
 20
27.36917692006264
 30
0.0
  0
VERTEX
  5
175
  8
THROUGH_CUT
 10
5.788300314253888
 20
29.60917692006265
 30
0.0
 42
1.0
  0
VERTEX
  5
176
  8
THROUGH_CUT
 10
5.788300314253888
 20
29.98917692006264
 30
0.0
  0
VERTEX
  5
177
  8
THROUGH_CUT
 10
5.038300314253902
 20
29.98917692006264
 30
0.0
  0
VERTEX
  5
178
  8
THROUGH_CUT
 10
5.038300314253902
 20
45.36417692006265
 30
0.0
  0
VERTEX
  5
179
  8
THROUGH_CUT
 10
16.03330031425389
 20
45.36417692006265
 30
0.0
 42
1.0
  0
VERTEX
  5
17A
  8
THROUGH_CUT
 10
16.41330031425389
 20
45.36417692006265
 30
0.0
  0
VERTEX
  5
17B
  8
THROUGH_CUT
 10
16.41330031425389
 20
46.11417692006265
 30
0.0
  0
VERTEX
  5
17C
  8
THROUGH_CUT
 10
27.41330031425389
 20
46.11417692006265
 30
0.0
  0
VERTEX
  5
17D
  8
THROUGH_CUT
 10
38.4133003142539
 20
46.11417692006265
 30
0.0
  0
VERTEX
  5
17E
  8
THROUGH_CUT
 10
38.4133003142539
 20
45.36417692006265
 30
0.0
 42
1.0
  0
VERTEX
  5
17F
  8
THROUGH_CUT
 10
38.7933003142539
 20
45.36417692006265
 30
0.0
  0
VERTEX
  5
180
  8
THROUGH_CUT
 10
49.4133003142539
 20
45.36417692006265
 30
0.0
  0
VERTEX
  5
181
  8
THROUGH_CUT
 10
60.03330031425391
 20
45.36417692006265
 30
0.0
 42
1.0
  0
VERTEX
  5
182
  8
THROUGH_CUT
 10
60.4133003142539
 20
45.36417692006265
 30
0.0
  0
VERTEX
  5
183
  8
THROUGH_CUT
 10
60.4133003142539
 20
46.11417692006265
 30
0.0
  0
VERTEX
  5
184
  8
THROUGH_CUT
 10
74.38830031425391
 20
46.11417692006265
 30
0.0
  0
VERTEX
  5
185
  8
THROUGH_CUT
 10
82.4133003142539
 20
46.11417692006265
 30
0.0
  0
VERTEX
  5
186
  8
THROUGH_CUT
 10
82.4133003142539
 20
45.36417692006265
 30
0.0
 42
1.0
  0
VERTEX
  5
187
  8
THROUGH_CUT
 10
82.79330031425391
 20
45.36417692006265
 30
0.0
  0
VERTEX
  5
188
  8
THROUGH_CUT
 10
93.78830031425389
 20
45.36417692006265
 30
0.0
  0
VERTEX
  5
189
  8
THROUGH_CUT
 10
93.7883003142539
 20
38.80167692006265
 30
0.0
  0
VERTEX
  5
18A
  8
THROUGH_CUT
 10
93.0383003142539
 20
38.80167692006265
 30
0.0
 42
1.0
  0
VERTEX
  5
18B
  8
THROUGH_CUT
 10
93.0383003142539
 20
38.42167692006265
 30
0.0
  0
VERTEX
  5
18C
  8
THROUGH_CUT
 10
93.0383003142539
 20
32.36917692006264
 30
0.0
 42
1.0
  0
VERTEX
  5
18D
  8
THROUGH_CUT
 10
93.0383003142539
 20
31.98917692006264
 30
0.0
  0
VERTEX
  5
18E
  8
THROUGH_CUT
 10
93.4133003142539
 20
31.98917692006264
 30
0.0
  0
VERTEX
  5
18F
  8
THROUGH_CUT
 10
93.4133003142539
 20
29.98917692006264
 30
0.0
  0
VERTEX
  5
190
  8
THROUGH_CUT
 10
93.0383003142539
 20
29.98917692006264
 30
0.0
 42
1.0
  0
VERTEX
  5
191
  8
THROUGH_CUT
 10
93.0383003142539
 20
29.60917692006265
 30
0.0
  0
VERTEX
  5
192
  8
THROUGH_CUT
 10
93.0383003142539
 20
27.36917692006264
 30
0.0
 42
1.0
  0
VERTEX
  5
193
  8
THROUGH_CUT
 10
93.0383003142539
 20
26.98917692006264
 30
0.0
  0
VERTEX
  5
194
  8
THROUGH_CUT
 10
93.4133003142539
 20
26.98917692006264
 30
0.0
  0
VERTEX
  5
195
  8
THROUGH_CUT
 10
93.4133003142539
 20
24.98917692006265
 30
0.0
  0
VERTEX
  5
196
  8
THROUGH_CUT
 10
93.0383003142539
 20
24.98917692006265
 30
0.0
 42
1.0
  0
VERTEX
  5
197
  8
THROUGH_CUT
 10
93.0383003142539
 20
24.60917692006265
 30
0.0
  0
VERTEX
  5
198
  8
THROUGH_CUT
 10
93.0383003142539
 20
18.55667692006264
 30
0.0
 42
1.0
  0
VERTEX
  5
199
  8
THROUGH_CUT
 10
93.0383003142539
 20
18.17667692006265
 30
0.0
  0
VERTEX
  5
19A
  8
THROUGH_CUT
 10
93.7883003142539
 20
18.17667692006265
 30
0.0
  0
VERTEX
  5
19B
  8
THROUGH_CUT
 10
93.7883003142539
 20
11.48917692006265
 30
0.0
  0
SEQEND
  5
19C
  8
THROUGH_CUT
  0
POLYLINE
  5
4A
  8
CUT_HALFWAY_THROUGH
 66
     1
 10
0.0
 20
0.0
 30
0.0
  0
VERTEX
  5
19D
  8
CUT_HALFWAY_THROUGH
 10
85.42288697564
 20
8.973125
 30
0.0
  0
VERTEX
  5
19E
  8
CUT_HALFWAY_THROUGH
 10
78.670148027486
 20
6.878533895459
 30
0.0
 42
0.7368230982960051
  0
VERTEX
  5
19F
  8
CUT_HALFWAY_THROUGH
 10
78.670162922628
 20
4.371371810735
 30
0.0
  0
VERTEX
  5
1A0
  8
CUT_HALFWAY_THROUGH
 10
85.42288797564
 20
2.276873
 30
0.0
  0
VERTEX
  5
1A1
  8
CUT_HALFWAY_THROUGH
 10
85.32737597564
 20
2.336122
 30
0.0
  0
VERTEX
  5
1A2
  8
CUT_HALFWAY_THROUGH
 10
91.889082891467
 20
4.371372791684
 30
0.0
 42
0.7368231252250029
  0
VERTEX
  5
1A3
  8
CUT_HALFWAY_THROUGH
 10
91.889097720966
 20
6.878532934872
 30
0.0
  0
VERTEX
  5
1A4
  8
CUT_HALFWAY_THROUGH
 10
85.32737597564
 20
8.913873
 30
0.0
  0
VERTEX
  5
1A5
  8
CUT_HALFWAY_THROUGH
 10
85.32737597564
 20
8.599772
 30
0.0
  0
VERTEX
  5
1A6
  8
CUT_HALFWAY_THROUGH
 10
91.800219888176
 20
6.59200078346
 30
0.0
 42
-0.7368231252250046
  0
VERTEX
  5
1A7
  8
CUT_HALFWAY_THROUGH
 10
91.800208233993
 20
4.65790596274
 30
0.0
  0
VERTEX
  5
1A8
  8
CUT_HALFWAY_THROUGH
 10
85.27962097564
 20
2.635409
 30
0.0
  0
VERTEX
  5
1A9
  8
CUT_HALFWAY_THROUGH
 10
78.759037077602
 20
4.657904982567
 30
0.0
 42
-0.7368230982959912
  0
VERTEX
  5
1AA
  8
CUT_HALFWAY_THROUGH
 10
78.759025872779
 20
6.592001747926
 30
0.0
  0
VERTEX
  5
1AB
  8
CUT_HALFWAY_THROUGH
 10
85.27962097564
 20
8.614585
 30
0.0
  0
VERTEX
  5
1AC
  8
CUT_HALFWAY_THROUGH
 10
85.27962097564
 20
8.300484
 30
0.0
  0
VERTEX
  5
1AD
  8
CUT_HALFWAY_THROUGH
 10
78.847903218071
 20
6.305469100392
 30
0.0
 42
0.7368230982960071
  0
VERTEX
  5
1AE
  8
CUT_HALFWAY_THROUGH
 10
78.847911489513
 20
4.944438308798
 30
0.0
  0
VERTEX
  5
1AF
  8
CUT_HALFWAY_THROUGH
 10
85.27962097564
 20
2.949509
 30
0.0
  0
VERTEX
  5
1B0
  8
CUT_HALFWAY_THROUGH
 10
91.711334076518
 20
4.944439633797
 30
0.0
 42
0.7368231252249986
  0
VERTEX
  5
1B1
  8
CUT_HALFWAY_THROUGH
 10
91.711342135133
 20
6.305468264097
 30
0.0
  0
VERTEX
  5
1B2
  8
CUT_HALFWAY_THROUGH
 10
85.32737597564
 20
8.285671
 30
0.0
  0
VERTEX
  5
1B3
  8
CUT_HALFWAY_THROUGH
 10
85.32737597564
 20
7.971571
 30
0.0
  0
VERTEX
  5
1B4
  8
CUT_HALFWAY_THROUGH
 10
91.622464222597
 20
6.018935980637
 30
0.0
 42
-0.7368231252250123
  0
VERTEX
  5
1B5
  8
CUT_HALFWAY_THROUGH
 10
91.622459919044
 20
5.230972804853
 30
0.0
  0
VERTEX
  5
1B6
  8
CUT_HALFWAY_THROUGH
 10
85.27962097564
 20
3.263609
 30
0.0
  0
VERTEX
  5
1B7
  8
CUT_HALFWAY_THROUGH
 10
78.93678588755
 20
5.230971826231
 30
0.0
 42
-0.736823098295968
  0
VERTEX
  5
1B8
  8
CUT_HALFWAY_THROUGH
 10
78.936781063363
 20
6.018936952859
 30
0.0
  0
VERTEX
  5
1B9
  8
CUT_HALFWAY_THROUGH
 10
85.27962097564
 20
7.986384
 30
0.0
  0
VERTEX
  5
1BA
  8
CUT_HALFWAY_THROUGH
 10
85.27962097564
 20
7.672283
 30
0.0
  0
VERTEX
  5
1BB
  8
CUT_HALFWAY_THROUGH
 10
79.025658908655
 20
5.732404805325
 30
0.0
 42
0.7368230982959841
  0
VERTEX
  5
1BC
  8
CUT_HALFWAY_THROUGH
 10
79.025660042525
 20
5.517504998063
 30
0.0
  0
VERTEX
  5
1BD
  8
CUT_HALFWAY_THROUGH
 10
85.27962097564
 20
3.577708
 30
0.0
  0
VERTEX
  5
1BE
  8
CUT_HALFWAY_THROUGH
 10
91.533585261569
 20
5.517505975909
 30
0.0
 42
0.7368231252247275
  0
VERTEX
  5
1BF
  8
CUT_HALFWAY_THROUGH
 10
91.533586889807
 20
5.732403829225
 30
0.0
  0
VERTEX
  5
1C0
  8
CUT_HALFWAY_THROUGH
 10
85.32737597564
 20
7.65747
 30
0.0
  0
VERTEX
  5
1C1
  8
CUT_HALFWAY_THROUGH
 10
85.32737597564
 20
7.343369
 30
0.0
  0
VERTEX
  5
1C2
  8
CUT_HALFWAY_THROUGH
 10
90.86734997564
 20
5.624959
 30
0.0
  0
VERTEX
  5
1C3
  8
CUT_HALFWAY_THROUGH
 10
85.27962097564
 20
3.891808
 30
0.0
  0
VERTEX
  5
1C4
  8
CUT_HALFWAY_THROUGH
 10
79.69189197564
 20
5.624959
 30
0.0
  0
VERTEX
  5
1C5
  8
CUT_HALFWAY_THROUGH
 10
85.27962097564
 20
7.358182
 30
0.0
  0
VERTEX
  5
1C6
  8
CUT_HALFWAY_THROUGH
 10
85.27962097564
 20
7.044082
 30
0.0
  0
VERTEX
  5
1C7
  8
CUT_HALFWAY_THROUGH
 10
80.70453897564
 20
5.624965
 30
0.0
  0
VERTEX
  5
1C8
  8
CUT_HALFWAY_THROUGH
 10
85.27962097564
 20
4.205907
 30
0.0
  0
VERTEX
  5
1C9
  8
CUT_HALFWAY_THROUGH
 10
89.85470297564
 20
5.624965
 30
0.0
  0
VERTEX
  5
1CA
  8
CUT_HALFWAY_THROUGH
 10
85.32737597564
 20
7.029269
 30
0.0
  0
VERTEX
  5
1CB
  8
CUT_HALFWAY_THROUGH
 10
85.32737597564
 20
6.715168
 30
0.0
  0
VERTEX
  5
1CC
  8
CUT_HALFWAY_THROUGH
 10
88.84205697564
 20
5.624971
 30
0.0
  0
VERTEX
  5
1CD
  8
CUT_HALFWAY_THROUGH
 10
85.27962097564
 20
4.520007
 30
0.0
  0
VERTEX
  5
1CE
  8
CUT_HALFWAY_THROUGH
 10
81.71718597564
 20
5.624971
 30
0.0
  0
VERTEX
  5
1CF
  8
CUT_HALFWAY_THROUGH
 10
85.27962097564
 20
6.729981
 30
0.0
  0
VERTEX
  5
1D0
  8
CUT_HALFWAY_THROUGH
 10
85.27962097564
 20
6.41588
 30
0.0
  0
VERTEX
  5
1D1
  8
CUT_HALFWAY_THROUGH
 10
82.72983197564
 20
5.624977
 30
0.0
  0
VERTEX
  5
1D2
  8
CUT_HALFWAY_THROUGH
 10
85.27962097564
 20
4.834106
 30
0.0
  0
VERTEX
  5
1D3
  8
CUT_HALFWAY_THROUGH
 10
87.82940997564
 20
5.624977
 30
0.0
  0
VERTEX
  5
1D4
  8
CUT_HALFWAY_THROUGH
 10
85.32737597564
 20
6.401067
 30
0.0
  0
VERTEX
  5
1D5
  8
CUT_HALFWAY_THROUGH
 10
85.32737597564
 20
6.086966
 30
0.0
  0
VERTEX
  5
1D6
  8
CUT_HALFWAY_THROUGH
 10
86.81676297564
 20
5.624983
 30
0.0
  0
VERTEX
  5
1D7
  8
CUT_HALFWAY_THROUGH
 10
85.27962097564
 20
5.148206
 30
0.0
  0
VERTEX
  5
1D8
  8
CUT_HALFWAY_THROUGH
 10
83.74247897564
 20
5.624983
 30
0.0
  0
VERTEX
  5
1D9
  8
CUT_HALFWAY_THROUGH
 10
85.27962097564
 20
6.101779
 30
0.0
  0
VERTEX
  5
1DA
  8
CUT_HALFWAY_THROUGH
 10
85.27962097564
 20
5.787679
 30
0.0
  0
VERTEX
  5
1DB
  8
CUT_HALFWAY_THROUGH
 10
84.75512597564
 20
5.624989
 30
0.0
  0
VERTEX
  5
1DC
  8
CUT_HALFWAY_THROUGH
 10
85.27962097564
 20
5.462306
 30
0.0
  0
VERTEX
  5
1DD
  8
CUT_HALFWAY_THROUGH
 10
85.80411597564
 20
5.624989
 30
0.0
  0
VERTEX
  5
1DE
  8
CUT_HALFWAY_THROUGH
 10
85.32737597564
 20
5.772866
 30
0.0
  0
VERTEX
  5
1DF
  8
CUT_HALFWAY_THROUGH
 10
91.50025797564
 20
5.624955
 30
0.0
  0
VERTEX
  5
1E0
  8
CUT_HALFWAY_THROUGH
 10
79.05898797564
 20
5.624955
 30
0.0
  0
SEQEND
  5
1E1
  8
CUT_HALFWAY_THROUGH
  0
POLYLINE
  5
4C
  8
RECESS_FOR_SCREWS
 66
     1
 10
0.0
 20
0.0
 30
0.0
 70
     1
  0
VERTEX
  5
1E2
  8
RECESS_FOR_SCREWS
 10
27.41330031425389
 20
22.91417692006263
 30
0.0
 42
-0.4142135623730689
  0
VERTEX
  5
1E3
  8
RECESS_FOR_SCREWS
 10
27.2133003142539
 20
23.11417692006265
 30
0.0
 42
-0.4142135623730898
  0
VERTEX
  5
1E4
  8
RECESS_FOR_SCREWS
 10
27.41330031425389
 20
23.31417692006264
 30
0.0
 42
-0.4142135623730898
  0
VERTEX
  5
1E5
  8
RECESS_FOR_SCREWS
 10
27.61330031425389
 20
23.11417692006265
 30
0.0
 42
-0.4142135623730689
  0
SEQEND
  5
1E6
  8
RECESS_FOR_SCREWS
  0
POLYLINE
  5
4D
  8
RECESS_FOR_SCREWS
 66
     1
 10
0.0
 20
0.0
 30
0.0
 70
     1
  0
VERTEX
  5
1E7
  8
RECESS_FOR_SCREWS
 10
27.41330031425389
 20
15.16417692006263
 30
0.0
 42
-0.4142135623730689
  0
VERTEX
  5
1E8
  8
RECESS_FOR_SCREWS
 10
27.2133003142539
 20
15.36417692006265
 30
0.0
 42
-0.4142135623730898
  0
VERTEX
  5
1E9
  8
RECESS_FOR_SCREWS
 10
27.41330031425389
 20
15.56417692006264
 30
0.0
 42
-0.4142135623730898
  0
VERTEX
  5
1EA
  8
RECESS_FOR_SCREWS
 10
27.61330031425389
 20
15.36417692006265
 30
0.0
 42
-0.4142135623730689
  0
SEQEND
  5
1EB
  8
RECESS_FOR_SCREWS
  0
POLYLINE
  5
4E
  8
RECESS_FOR_SCREWS
 66
     1
 10
0.0
 20
0.0
 30
0.0
 70
     1
  0
VERTEX
  5
1EC
  8
RECESS_FOR_SCREWS
 10
49.4133003142539
 20
15.16417692006263
 30
0.0
 42
-0.4142135623731054
  0
VERTEX
  5
1ED
  8
RECESS_FOR_SCREWS
 10
49.2133003142539
 20
15.36417692006265
 30
0.0
 42
-0.4142135623730951
  0
VERTEX
  5
1EE
  8
RECESS_FOR_SCREWS
 10
49.4133003142539
 20
15.56417692006264
 30
0.0
 42
-0.4142135623731054
  0
VERTEX
  5
1EF
  8
RECESS_FOR_SCREWS
 10
49.61330031425391
 20
15.36417692006265
 30
0.0
 42
-0.4142135623730951
  0
SEQEND
  5
1F0
  8
RECESS_FOR_SCREWS
  0
POLYLINE
  5
4F
  8
RECESS_FOR_SCREWS
 66
     1
 10
0.0
 20
0.0
 30
0.0
 70
     1
  0
VERTEX
  5
1F1
  8
RECESS_FOR_SCREWS
 10
49.4133003142539
 20
22.91417692006263
 30
0.0
 42
-0.4142135623731054
  0
VERTEX
  5
1F2
  8
RECESS_FOR_SCREWS
 10
49.2133003142539
 20
23.11417692006265
 30
0.0
 42
-0.4142135623730951
  0
VERTEX
  5
1F3
  8
RECESS_FOR_SCREWS
 10
49.4133003142539
 20
23.31417692006264
 30
0.0
 42
-0.4142135623731054
  0
VERTEX
  5
1F4
  8
RECESS_FOR_SCREWS
 10
49.61330031425391
 20
23.11417692006265
 30
0.0
 42
-0.4142135623730951
  0
SEQEND
  5
1F5
  8
RECESS_FOR_SCREWS
  0
POLYLINE
  5
50
  8
RECESS_FOR_SCREWS
 66
     1
 10
0.0
 20
0.0
 30
0.0
 70
     1
  0
VERTEX
  5
1F6
  8
RECESS_FOR_SCREWS
 10
71.4133003142539
 20
15.16417692006263
 30
0.0
 42
-0.4142135623731054
  0
VERTEX
  5
1F7
  8
RECESS_FOR_SCREWS
 10
71.2133003142539
 20
15.36417692006265
 30
0.0
 42
-0.4142135623730951
  0
VERTEX
  5
1F8
  8
RECESS_FOR_SCREWS
 10
71.4133003142539
 20
15.56417692006264
 30
0.0
 42
-0.4142135623731054
  0
VERTEX
  5
1F9
  8
RECESS_FOR_SCREWS
 10
71.61330031425392
 20
15.36417692006265
 30
0.0
 42
-0.4142135623730951
  0
SEQEND
  5
1FA
  8
RECESS_FOR_SCREWS
  0
POLYLINE
  5
51
  8
RECESS_FOR_SCREWS
 66
     1
 10
0.0
 20
0.0
 30
0.0
 70
     1
  0
VERTEX
  5
1FB
  8
RECESS_FOR_SCREWS
 10
71.4133003142539
 20
22.91417692006263
 30
0.0
 42
-0.4142135623731054
  0
VERTEX
  5
1FC
  8
RECESS_FOR_SCREWS
 10
71.2133003142539
 20
23.11417692006265
 30
0.0
 42
-0.4142135623730951
  0
VERTEX
  5
1FD
  8
RECESS_FOR_SCREWS
 10
71.4133003142539
 20
23.31417692006264
 30
0.0
 42
-0.4142135623731054
  0
VERTEX
  5
1FE
  8
RECESS_FOR_SCREWS
 10
71.61330031425392
 20
23.11417692006265
 30
0.0
 42
-0.4142135623730951
  0
SEQEND
  5
1FF
  8
RECESS_FOR_SCREWS
  0
POLYLINE
  5
52
  8
RECESS_FOR_SCREWS
 66
     1
 10
0.0
 20
0.0
 30
0.0
 70
     1
  0
VERTEX
  5
200
  8
RECESS_FOR_SCREWS
 10
5.413300314253888
 20
33.63292692006266
 30
0.0
 42
-0.4142135623730872
  0
VERTEX
  5
201
  8
RECESS_FOR_SCREWS
 10
5.2133003142539
 20
33.83292692006265
 30
0.0
 42
-0.4142135623730872
  0
VERTEX
  5
202
  8
RECESS_FOR_SCREWS
 10
5.413300314253888
 20
34.03292692006264
 30
0.0
 42
-0.414213562373086
  0
VERTEX
  5
203
  8
RECESS_FOR_SCREWS
 10
5.613300314253891
 20
33.83292692006265
 30
0.0
 42
-0.414213562373086
  0
SEQEND
  5
204
  8
RECESS_FOR_SCREWS
  0
POLYLINE
  5
53
  8
RECESS_FOR_SCREWS
 66
     1
 10
0.0
 20
0.0
 30
0.0
 70
     1
  0
VERTEX
  5
205
  8
RECESS_FOR_SCREWS
 10
5.413300314253888
 20
41.32042692006266
 30
0.0
 42
-0.4142135623730951
  0
VERTEX
  5
206
  8
RECESS_FOR_SCREWS
 10
5.2133003142539
 20
41.52042692006265
 30
0.0
 42
-0.4142135623730976
  0
VERTEX
  5
207
  8
RECESS_FOR_SCREWS
 10
5.413300314253888
 20
41.72042692006264
 30
0.0
 42
-0.4142135623730963
  0
VERTEX
  5
208
  8
RECESS_FOR_SCREWS
 10
5.613300314253891
 20
41.52042692006265
 30
0.0
 42
-0.4142135623730938
  0
SEQEND
  5
209
  8
RECESS_FOR_SCREWS
  0
POLYLINE
  5
54
  8
RECESS_FOR_SCREWS
 66
     1
 10
0.0
 20
0.0
 30
0.0
 70
     1
  0
VERTEX
  5
20A
  8
RECESS_FOR_SCREWS
 10
21.91330031425389
 20
45.53917692006266
 30
0.0
 42
-0.4142135623730872
  0
VERTEX
  5
20B
  8
RECESS_FOR_SCREWS
 10
21.7133003142539
 20
45.73917692006265
 30
0.0
 42
-0.4142135623730951
  0
VERTEX
  5
20C
  8
RECESS_FOR_SCREWS
 10
21.91330031425389
 20
45.93917692006264
 30
0.0
 42
-0.4142135623730951
  0
VERTEX
  5
20D
  8
RECESS_FOR_SCREWS
 10
22.11330031425389
 20
45.73917692006265
 30
0.0
 42
-0.4142135623730872
  0
SEQEND
  5
20E
  8
RECESS_FOR_SCREWS
  0
POLYLINE
  5
55
  8
RECESS_FOR_SCREWS
 66
     1
 10
0.0
 20
0.0
 30
0.0
 70
     1
  0
VERTEX
  5
20F
  8
RECESS_FOR_SCREWS
 10
32.9133003142539
 20
45.53917692006266
 30
0.0
 42
-0.4142135623730976
  0
VERTEX
  5
210
  8
RECESS_FOR_SCREWS
 10
32.7133003142539
 20
45.73917692006265
 30
0.0
 42
-0.4142135623730951
  0
VERTEX
  5
211
  8
RECESS_FOR_SCREWS
 10
32.9133003142539
 20
45.93917692006264
 30
0.0
 42
-0.4142135623730951
  0
VERTEX
  5
212
  8
RECESS_FOR_SCREWS
 10
33.11330031425391
 20
45.73917692006265
 30
0.0
 42
-0.4142135623730976
  0
SEQEND
  5
213
  8
RECESS_FOR_SCREWS
  0
POLYLINE
  5
56
  8
RECESS_FOR_SCREWS
 66
     1
 10
0.0
 20
0.0
 30
0.0
 70
     1
  0
VERTEX
  5
214
  8
RECESS_FOR_SCREWS
 10
27.41330031425389
 20
41.88292692006266
 30
0.0
 42
-0.4142135623730872
  0
VERTEX
  5
215
  8
RECESS_FOR_SCREWS
 10
27.2133003142539
 20
42.08292692006265
 30
0.0
 42
-0.4142135623730951
  0
VERTEX
  5
216
  8
RECESS_FOR_SCREWS
 10
27.41330031425389
 20
42.28292692006264
 30
0.0
 42
-0.4142135623730951
  0
VERTEX
  5
217
  8
RECESS_FOR_SCREWS
 10
27.61330031425389
 20
42.08292692006265
 30
0.0
 42
-0.4142135623730872
  0
SEQEND
  5
218
  8
RECESS_FOR_SCREWS
  0
POLYLINE
  5
57
  8
RECESS_FOR_SCREWS
 66
     1
 10
0.0
 20
0.0
 30
0.0
 70
     1
  0
VERTEX
  5
219
  8
RECESS_FOR_SCREWS
 10
27.41330031425389
 20
33.82042692006266
 30
0.0
 42
-0.4142135623730951
  0
VERTEX
  5
21A
  8
RECESS_FOR_SCREWS
 10
27.2133003142539
 20
34.02042692006265
 30
0.0
 42
-0.4142135623730951
  0
VERTEX
  5
21B
  8
RECESS_FOR_SCREWS
 10
27.41330031425389
 20
34.22042692006264
 30
0.0
 42
-0.4142135623730951
  0
VERTEX
  5
21C
  8
RECESS_FOR_SCREWS
 10
27.61330031425389
 20
34.02042692006265
 30
0.0
 42
-0.4142135623730951
  0
SEQEND
  5
21D
  8
RECESS_FOR_SCREWS
  0
POLYLINE
  5
58
  8
RECESS_FOR_SCREWS
 66
     1
 10
0.0
 20
0.0
 30
0.0
 70
     1
  0
VERTEX
  5
21E
  8
RECESS_FOR_SCREWS
 10
49.4133003142539
 20
33.63292692006266
 30
0.0
 42
-0.4142135623730898
  0
VERTEX
  5
21F
  8
RECESS_FOR_SCREWS
 10
49.2133003142539
 20
33.83292692006265
 30
0.0
 42
-0.4142135623730898
  0
VERTEX
  5
220
  8
RECESS_FOR_SCREWS
 10
49.4133003142539
 20
34.03292692006264
 30
0.0
 42
-0.4142135623730689
  0
VERTEX
  5
221
  8
RECESS_FOR_SCREWS
 10
49.61330031425391
 20
33.83292692006265
 30
0.0
 42
-0.4142135623730689
  0
SEQEND
  5
222
  8
RECESS_FOR_SCREWS
  0
POLYLINE
  5
59
  8
RECESS_FOR_SCREWS
 66
     1
 10
0.0
 20
0.0
 30
0.0
 70
     1
  0
VERTEX
  5
223
  8
RECESS_FOR_SCREWS
 10
49.4133003142539
 20
41.32042692006266
 30
0.0
 42
-0.4142135623730976
  0
VERTEX
  5
224
  8
RECESS_FOR_SCREWS
 10
49.2133003142539
 20
41.52042692006265
 30
0.0
 42
-0.4142135623730951
  0
VERTEX
  5
225
  8
RECESS_FOR_SCREWS
 10
49.4133003142539
 20
41.72042692006264
 30
0.0
 42
-0.4142135623730951
  0
VERTEX
  5
226
  8
RECESS_FOR_SCREWS
 10
49.61330031425391
 20
41.52042692006265
 30
0.0
 42
-0.4142135623730976
  0
SEQEND
  5
227
  8
RECESS_FOR_SCREWS
  0
POLYLINE
  5
5A
  8
RECESS_FOR_SCREWS
 66
     1
 10
0.0
 20
0.0
 30
0.0
 70
     1
  0
VERTEX
  5
228
  8
RECESS_FOR_SCREWS
 10
63.2570503142539
 20
45.53917692006266
 30
0.0
 42
-0.4142135623730976
  0
VERTEX
  5
229
  8
RECESS_FOR_SCREWS
 10
63.0570503142539
 20
45.73917692006265
 30
0.0
 42
-0.4142135623730951
  0
VERTEX
  5
22A
  8
RECESS_FOR_SCREWS
 10
63.2570503142539
 20
45.93917692006264
 30
0.0
 42
-0.4142135623730951
  0
VERTEX
  5
22B
  8
RECESS_FOR_SCREWS
 10
63.45705031425392
 20
45.73917692006265
 30
0.0
 42
-0.4142135623730976
  0
SEQEND
  5
22C
  8
RECESS_FOR_SCREWS
  0
POLYLINE
  5
5B
  8
RECESS_FOR_SCREWS
 66
     1
 10
0.0
 20
0.0
 30
0.0
 70
     1
  0
VERTEX
  5
22D
  8
RECESS_FOR_SCREWS
 10
71.3445503142539
 20
45.53917692006266
 30
0.0
 42
-0.4142135623730976
  0
VERTEX
  5
22E
  8
RECESS_FOR_SCREWS
 10
71.14455031425389
 20
45.73917692006265
 30
0.0
 42
-0.4142135623730951
  0
VERTEX
  5
22F
  8
RECESS_FOR_SCREWS
 10
71.3445503142539
 20
45.93917692006264
 30
0.0
 42
-0.4142135623730951
  0
VERTEX
  5
230
  8
RECESS_FOR_SCREWS
 10
71.5445503142539
 20
45.73917692006265
 30
0.0
 42
-0.4142135623730976
  0
SEQEND
  5
231
  8
RECESS_FOR_SCREWS
  0
POLYLINE
  5
5C
  8
RECESS_FOR_SCREWS
 66
     1
 10
0.0
 20
0.0
 30
0.0
 70
     1
  0
VERTEX
  5
232
  8
RECESS_FOR_SCREWS
 10
93.4133003142539
 20
42.25792692006266
 30
0.0
 42
-0.4142135623730976
  0
VERTEX
  5
233
  8
RECESS_FOR_SCREWS
 10
93.2133003142539
 20
42.45792692006265
 30
0.0
 42
-0.4142135623730951
  0
VERTEX
  5
234
  8
RECESS_FOR_SCREWS
 10
93.4133003142539
 20
42.65792692006264
 30
0.0
 42
-0.4142135623730951
  0
VERTEX
  5
235
  8
RECESS_FOR_SCREWS
 10
93.6133003142539
 20
42.45792692006265
 30
0.0
 42
-0.4142135623730976
  0
SEQEND
  5
236
  8
RECESS_FOR_SCREWS
  0
POLYLINE
  5
5D
  8
RECESS_FOR_SCREWS
 66
     1
 10
0.0
 20
0.0
 30
0.0
 70
     1
  0
VERTEX
  5
237
  8
RECESS_FOR_SCREWS
 10
93.4133003142539
 20
33.83282692006264
 30
0.0
 42
-0.4142135623730951
  0
VERTEX
  5
238
  8
RECESS_FOR_SCREWS
 10
93.4132003142539
 20
33.83292692006265
 30
0.0
 42
-0.4142135623730951
  0
VERTEX
  5
239
  8
RECESS_FOR_SCREWS
 10
93.4133003142539
 20
33.83302692006265
 30
0.0
 42
-0.4142135623730951
  0
VERTEX
  5
23A
  8
RECESS_FOR_SCREWS
 10
93.41340031425389
 20
33.83292692006265
 30
0.0
 42
-0.4142135623730951
  0
SEQEND
  5
23B
  8
RECESS_FOR_SCREWS
  0
POLYLINE
  5
5E
  8
RECESS_FOR_SCREWS
 66
     1
 10
0.0
 20
0.0
 30
0.0
 70
     1
  0
VERTEX
  5
23C
  8
RECESS_FOR_SCREWS
 10
93.4133003142539
 20
41.52032692006264
 30
0.0
 42
-0.4142135623730951
  0
VERTEX
  5
23D
  8
RECESS_FOR_SCREWS
 10
93.4132003142539
 20
41.52042692006265
 30
0.0
 42
-0.4142135623730951
  0
VERTEX
  5
23E
  8
RECESS_FOR_SCREWS
 10
93.4133003142539
 20
41.52052692006265
 30
0.0
 42
-0.4142135623730951
  0
VERTEX
  5
23F
  8
RECESS_FOR_SCREWS
 10
93.41340031425389
 20
41.52042692006265
 30
0.0
 42
-0.4142135623730951
  0
SEQEND
  5
240
  8
RECESS_FOR_SCREWS
  0
POLYLINE
  5
5F
  8
RECESS_FOR_SCREWS
 66
     1
 10
0.0
 20
0.0
 30
0.0
 70
     1
  0
VERTEX
  5
241
  8
RECESS_FOR_SCREWS
 10
71.4133003142539
 20
33.63292692006266
 30
0.0
 42
-0.4142135623730898
  0
VERTEX
  5
242
  8
RECESS_FOR_SCREWS
 10
71.2133003142539
 20
33.83292692006265
 30
0.0
 42
-0.4142135623730898
  0
VERTEX
  5
243
  8
RECESS_FOR_SCREWS
 10
71.4133003142539
 20
34.03292692006264
 30
0.0
 42
-0.4142135623730689
  0
VERTEX
  5
244
  8
RECESS_FOR_SCREWS
 10
71.61330031425392
 20
33.83292692006265
 30
0.0
 42
-0.4142135623730689
  0
SEQEND
  5
245
  8
RECESS_FOR_SCREWS
  0
POLYLINE
  5
60
  8
RECESS_FOR_SCREWS
 66
     1
 10
0.0
 20
0.0
 30
0.0
 70
     1
  0
VERTEX
  5
246
  8
RECESS_FOR_SCREWS
 10
71.4133003142539
 20
41.32042692006266
 30
0.0
 42
-0.4142135623730976
  0
VERTEX
  5
247
  8
RECESS_FOR_SCREWS
 10
71.2133003142539
 20
41.52042692006265
 30
0.0
 42
-0.4142135623730951
  0
VERTEX
  5
248
  8
RECESS_FOR_SCREWS
 10
71.4133003142539
 20
41.72042692006264
 30
0.0
 42
-0.4142135623730951
  0
VERTEX
  5
249
  8
RECESS_FOR_SCREWS
 10
71.61330031425392
 20
41.52042692006265
 30
0.0
 42
-0.4142135623730976
  0
SEQEND
  5
24A
  8
RECESS_FOR_SCREWS
  0
POLYLINE
  5
61
  8
RECESS_FOR_SCREWS
 66
     1
 10
0.0
 20
0.0
 30
0.0
 70
     1
  0
VERTEX
  5
24B
  8
RECESS_FOR_SCREWS
 10
79.8445503142539
 20
45.53917692006266
 30
0.0
 42
-0.4142135623730976
  0
VERTEX
  5
24C
  8
RECESS_FOR_SCREWS
 10
79.64455031425389
 20
45.73917692006265
 30
0.0
 42
-0.4142135623730951
  0
VERTEX
  5
24D
  8
RECESS_FOR_SCREWS
 10
79.8445503142539
 20
45.93917692006264
 30
0.0
 42
-0.4142135623730951
  0
VERTEX
  5
24E
  8
RECESS_FOR_SCREWS
 10
80.0445503142539
 20
45.73917692006265
 30
0.0
 42
-0.4142135623730976
  0
SEQEND
  5
24F
  8
RECESS_FOR_SCREWS
  0
POLYLINE
  5
62
  8
RECESS_FOR_SCREWS
 66
     1
 10
0.0
 20
0.0
 30
0.0
 70
     1
  0
VERTEX
  5
250
  8
RECESS_FOR_SCREWS
 10
5.413300314253888
 20
15.16417692006263
 30
0.0
 42
-0.4142135623730951
  0
VERTEX
  5
251
  8
RECESS_FOR_SCREWS
 10
5.2133003142539
 20
15.36417692006265
 30
0.0
 42
-0.4142135623730951
  0
VERTEX
  5
252
  8
RECESS_FOR_SCREWS
 10
5.413300314253888
 20
15.56417692006264
 30
0.0
 42
-0.4142135623730938
  0
VERTEX
  5
253
  8
RECESS_FOR_SCREWS
 10
5.613300314253891
 20
15.36417692006265
 30
0.0
 42
-0.4142135623730938
  0
SEQEND
  5
254
  8
RECESS_FOR_SCREWS
  0
POLYLINE
  5
63
  8
RECESS_FOR_SCREWS
 66
     1
 10
0.0
 20
0.0
 30
0.0
 70
     1
  0
VERTEX
  5
255
  8
RECESS_FOR_SCREWS
 10
5.413300314253888
 20
22.91417692006263
 30
0.0
 42
-0.4142135623730951
  0
VERTEX
  5
256
  8
RECESS_FOR_SCREWS
 10
5.2133003142539
 20
23.11417692006265
 30
0.0
 42
-0.4142135623730951
  0
VERTEX
  5
257
  8
RECESS_FOR_SCREWS
 10
5.413300314253888
 20
23.31417692006264
 30
0.0
 42
-0.4142135623730938
  0
VERTEX
  5
258
  8
RECESS_FOR_SCREWS
 10
5.613300314253891
 20
23.11417692006265
 30
0.0
 42
-0.4142135623730938
  0
SEQEND
  5
259
  8
RECESS_FOR_SCREWS
  0
POLYLINE
  5
64
  8
RECESS_FOR_SCREWS
 66
     1
 10
0.0
 20
0.0
 30
0.0
 70
     1
  0
VERTEX
  5
25A
  8
RECESS_FOR_SCREWS
 10
93.4133003142539
 20
14.63266821123864
 30
0.0
 42
-0.4142135623730951
  0
VERTEX
  5
25B
  8
RECESS_FOR_SCREWS
 10
93.21304160542991
 20
14.83292692006265
 30
0.0
 42
-0.4142135623730223
  0
VERTEX
  5
25C
  8
RECESS_FOR_SCREWS
 10
93.4133003142539
 20
15.03318562888663
 30
0.0
 42
-0.4142135623730223
  0
VERTEX
  5
25D
  8
RECESS_FOR_SCREWS
 10
93.6135590230779
 20
14.83292692006265
 30
0.0
 42
-0.4142135623730951
  0
SEQEND
  5
25E
  8
RECESS_FOR_SCREWS
  0
POLYLINE
  5
66
  8
MARK_IN_POCKET
 66
     1
 10
0.0
 20
0.0
 30
0.0
 70
     1
  0
VERTEX
  5
25F
  8
MARK_IN_POCKET
 10
85.27962097564
 20
6.3749985
 30
0.0
 42
0.4142135623730951
  0
VERTEX
  5
260
  8
MARK_IN_POCKET
 10
84.52962097564
 20
5.6249985
 30
0.0
 42
0.4142135623730951
  0
VERTEX
  5
261
  8
MARK_IN_POCKET
 10
85.27962097564
 20
4.8749985
 30
0.0
 42
0.4142135623730951
  0
VERTEX
  5
262
  8
MARK_IN_POCKET
 10
86.02962097564
 20
5.6249985
 30
0.0
 42
0.4142135623730951
  0
SEQEND
  5
263
  8
MARK_IN_POCKET
  0
POLYLINE
  5
67
  8
MARK_IN_POCKET
 66
     1
 10
0.0
 20
0.0
 30
0.0
  0
VERTEX
  5
264
  8
MARK_IN_POCKET
 10
10.023290957923
 20
14.42821605490899
 30
0.0
  0
VERTEX
  5
265
  8
MARK_IN_POCKET
 10
9.98781992487168
 20
14.43717353334233
 30
0.0
  0
VERTEX
  5
266
  8
MARK_IN_POCKET
 10
9.952684868801418
 20
14.44652984901652
 30
0.0
  0
VERTEX
  5
267
  8
MARK_IN_POCKET
 10
9.917892913764671
 20
14.45628048961482
 30
0.0
  0
VERTEX
  5
268
  8
MARK_IN_POCKET
 10
9.883451183813897
 20
14.46642094282052
 30
0.0
  0
VERTEX
  5
269
  8
MARK_IN_POCKET
 10
9.849366803001546
 20
14.47694669631688
 30
0.0
  0
VERTEX
  5
26A
  8
MARK_IN_POCKET
 10
9.815646895380073
 20
14.4878532377872
 30
0.0
  0
VERTEX
  5
26B
  8
MARK_IN_POCKET
 10
9.782298585001934
 20
14.49913605491474
 30
0.0
  0
VERTEX
  5
26C
  8
MARK_IN_POCKET
 10
9.749328995919583
 20
14.51079063538279
 30
0.0
  0
VERTEX
  5
26D
  8
MARK_IN_POCKET
 10
9.716745252185476
 20
14.52281246687461
 30
0.0
  0
VERTEX
  5
26E
  8
MARK_IN_POCKET
 10
9.684554477852064
 20
14.5351970370735
 30
0.0
  0
VERTEX
  5
26F
  8
MARK_IN_POCKET
 10
9.652763796971804
 20
14.54793983366272
 30
0.0
  0
VERTEX
  5
270
  8
MARK_IN_POCKET
 10
9.621380333597152
 20
14.56103634432555
 30
0.0
  0
VERTEX
  5
271
  8
MARK_IN_POCKET
 10
9.59041121178056
 20
14.57448205674527
 30
0.0
  0
VERTEX
  5
272
  8
MARK_IN_POCKET
 10
9.559863555574484
 20
14.58827245860516
 30
0.0
  0
VERTEX
  5
273
  8
MARK_IN_POCKET
 10
9.529744489031378
 20
14.6024030375885
 30
0.0
  0
VERTEX
  5
274
  8
MARK_IN_POCKET
 10
9.500061136203694
 20
14.61686928137855
 30
0.0
  0
VERTEX
  5
275
  8
MARK_IN_POCKET
 10
9.47082062114389
 20
14.63166667765861
 30
0.0
  0
VERTEX
  5
276
  8
MARK_IN_POCKET
 10
9.442030067904419
 20
14.64679071411194
 30
0.0
  0
VERTEX
  5
277
  8
MARK_IN_POCKET
 10
9.413696600537737
 20
14.66223687842183
 30
0.0
  0
VERTEX
  5
278
  8
MARK_IN_POCKET
 10
9.385827343096299
 20
14.67800065827155
 30
0.0
  0
VERTEX
  5
279
  8
MARK_IN_POCKET
 10
9.358429419632554
 20
14.69407754134437
 30
0.0
  0
VERTEX
  5
27A
  8
MARK_IN_POCKET
 10
9.331509954198964
 20
14.71046301532359
 30
0.0
  0
VERTEX
  5
27B
  8
MARK_IN_POCKET
 10
9.305076070847978
 20
14.72715256789246
 30
0.0
  0
VERTEX
  5
27C
  8
MARK_IN_POCKET
 10
9.279134893632055
 20
14.74414168673428
 30
0.0
  0
VERTEX
  5
27D
  8
MARK_IN_POCKET
 10
9.253693546603646
 20
14.76142585953232
 30
0.0
  0
VERTEX
  5
27E
  8
MARK_IN_POCKET
 10
9.228759153815208
 20
14.77900057396985
 30
0.0
  0
VERTEX
  5
27F
  8
MARK_IN_POCKET
 10
9.204338839319192
 20
14.79686131773015
 30
0.0
  0
VERTEX
  5
280
  8
MARK_IN_POCKET
 10
9.180439727168057
 20
14.81500357849651
 30
0.0
  0
VERTEX
  5
281
  8
MARK_IN_POCKET
 10
9.157068941414256
 20
14.83342284395219
 30
0.0
  0
VERTEX
  5
282
  8
MARK_IN_POCKET
 10
9.134233606110243
 20
14.85211460178048
 30
0.0
  0
VERTEX
  5
283
  8
MARK_IN_POCKET
 10
9.11194084530847
 20
14.87107433966464
 30
0.0
  0
VERTEX
  5
284
  8
MARK_IN_POCKET
 10
9.090197783061395
 20
14.89029754528797
 30
0.0
  0
VERTEX
  5
285
  8
MARK_IN_POCKET
 10
9.069011543421475
 20
14.90977970633374
 30
0.0
  0
VERTEX
  5
286
  8
MARK_IN_POCKET
 10
9.048389250441156
 20
14.92951631048522
 30
0.0
  0
VERTEX
  5
287
  8
MARK_IN_POCKET
 10
9.028338028172898
 20
14.94950284542569
 30
0.0
  0
VERTEX
  5
288
  8
MARK_IN_POCKET
 10
9.008865000669157
 20
14.96973479883843
 30
0.0
  0
VERTEX
  5
289
  8
MARK_IN_POCKET
 10
8.989977291982386
 20
14.99020765840671
 30
0.0
  0
VERTEX
  5
28A
  8
MARK_IN_POCKET
 10
8.97168202616504
 20
15.01091691181382
 30
0.0
  0
VERTEX
  5
28B
  8
MARK_IN_POCKET
 10
8.953986327269572
 20
15.03185804674303
 30
0.0
  0
VERTEX
  5
28C
  8
MARK_IN_POCKET
 10
8.936897319348436
 20
15.05302655087762
 30
0.0
  0
VERTEX
  5
28D
  8
MARK_IN_POCKET
 10
8.920422126454088
 20
15.07441791190087
 30
0.0
  0
VERTEX
  5
28E
  8
MARK_IN_POCKET
 10
8.904567872638983
 20
15.09602761749604
 30
0.0
  0
VERTEX
  5
28F
  8
MARK_IN_POCKET
 10
8.889341681955575
 20
15.11785115534643
 30
0.0
  0
VERTEX
  5
290
  8
MARK_IN_POCKET
 10
8.87475067845632
 20
15.13988401313531
 30
0.0
  0
VERTEX
  5
291
  8
MARK_IN_POCKET
 10
8.860801986193668
 20
15.16212167854595
 30
0.0
  0
VERTEX
  5
292
  8
MARK_IN_POCKET
 10
8.847502729220079
 20
15.18455963926163
 30
0.0
  0
VERTEX
  5
293
  8
MARK_IN_POCKET
 10
8.834860031588004
 20
15.20719338296563
 30
0.0
  0
VERTEX
  5
294
  8
MARK_IN_POCKET
 10
8.8228810173499
 20
15.23001839734123
 30
0.0
  0
VERTEX
  5
295
  8
MARK_IN_POCKET
 10
8.811572810558221
 20
15.25303017007171
 30
0.0
  0
VERTEX
  5
296
  8
MARK_IN_POCKET
 10
8.800942535265419
 20
15.27622418884033
 30
0.0
  0
VERTEX
  5
297
  8
MARK_IN_POCKET
 10
8.790997315523951
 20
15.29959594133038
 30
0.0
  0
VERTEX
  5
298
  8
MARK_IN_POCKET
 10
8.78174427538627
 20
15.32314091522515
 30
0.0
  0
VERTEX
  5
299
  8
MARK_IN_POCKET
 10
8.773190538904831
 20
15.34685459820789
 30
0.0
  0
VERTEX
  5
29A
  8
MARK_IN_POCKET
 10
8.765343230132089
 20
15.37073247796189
 30
0.0
  0
VERTEX
  5
29B
  8
MARK_IN_POCKET
 10
8.758209473120498
 20
15.39477004217044
 30
0.0
  0
VERTEX
  5
29C
  8
MARK_IN_POCKET
 10
8.751796391922515
 20
15.4189627785168
 30
0.0
  0
VERTEX
  5
29D
  8
MARK_IN_POCKET
 10
8.746111110590592
 20
15.44330617468425
 30
0.0
  0
VERTEX
  5
29E
  8
MARK_IN_POCKET
 10
8.741160753177184
 20
15.46779571835607
 30
0.0
  0
VERTEX
  5
29F
  8
MARK_IN_POCKET
 10
8.736952443734745
 20
15.49242689721554
 30
0.0
  0
VERTEX
  5
2A0
  8
MARK_IN_POCKET
 10
8.73349330631573
 20
15.51719519894594
 30
0.0
  0
VERTEX
  5
2A1
  8
MARK_IN_POCKET
 10
8.730790464972593
 20
15.54209611123054
 30
0.0
  0
VERTEX
  5
2A2
  8
MARK_IN_POCKET
 10
8.728851043757789
 20
15.56712512175261
 30
0.0
  0
VERTEX
  5
2A3
  8
MARK_IN_POCKET
 10
8.727682166723774
 20
15.59227771819545
 30
0.0
  0
VERTEX
  5
2A4
  8
MARK_IN_POCKET
 10
8.727290957923003
 20
15.61754938824232
 30
0.0
  0
VERTEX
  5
2A5
  8
MARK_IN_POCKET
 10
8.727458516038546
 20
15.63616119089358
 30
0.0
  0
VERTEX
  5
2A6
  8
MARK_IN_POCKET
 10
8.72795984997208
 20
15.65471643575582
 30
0.0
  0
VERTEX
  5
2A7
  8
MARK_IN_POCKET
 10
8.72879294910398
 20
15.67321370911212
 30
0.0
  0
VERTEX
  5
2A8
  8
MARK_IN_POCKET
 10
8.729955802814612
 20
15.69165159724554
 30
0.0
  0
VERTEX
  5
2A9
  8
MARK_IN_POCKET
 10
8.73144640048434
 20
15.71002868643916
 30
0.0
  0
VERTEX
  5
2AA
  8
MARK_IN_POCKET
 10
8.73326273149354
 20
15.72834356297606
 30
0.0
  0
VERTEX
  5
2AB
  8
MARK_IN_POCKET
 10
8.735402785222572
 20
15.74659481313929
 30
0.0
  0
VERTEX
  5
2AC
  8
MARK_IN_POCKET
 10
8.73786455105181
 20
15.76478102321193
 30
0.0
  0
VERTEX
  5
2AD
  8
MARK_IN_POCKET
 10
8.74064601836162
 20
15.78290077947706
 30
0.0
  0
VERTEX
  5
2AE
  8
MARK_IN_POCKET
 10
8.743745176532368
 20
15.80095266821775
 30
0.0
  0
VERTEX
  5
2AF
  8
MARK_IN_POCKET
 10
8.747160014944425
 20
15.81893527571706
 30
0.0
  0
VERTEX
  5
2B0
  8
MARK_IN_POCKET
 10
8.750888522978158
 20
15.83684718825806
 30
0.0
  0
VERTEX
  5
2B1
  8
MARK_IN_POCKET
 10
8.754928690013937
 20
15.85468699212384
 30
0.0
  0
VERTEX
  5
2B2
  8
MARK_IN_POCKET
 10
8.759278505432126
 20
15.87245327359745
 30
0.0
  0
VERTEX
  5
2B3
  8
MARK_IN_POCKET
 10
8.763935958613096
 20
15.89014461896198
 30
0.0
  0
VERTEX
  5
2B4
  8
MARK_IN_POCKET
 10
8.768899038937215
 20
15.90775961450049
 30
0.0
  0
VERTEX
  5
2B5
  8
MARK_IN_POCKET
 10
8.774165735784852
 20
15.92529684649605
 30
0.0
  0
VERTEX
  5
2B6
  8
MARK_IN_POCKET
 10
8.779734038536372
 20
15.94275490123174
 30
0.0
  0
VERTEX
  5
2B7
  8
MARK_IN_POCKET
 10
8.785601936572146
 20
15.96013236499063
 30
0.0
  0
VERTEX
  5
2B8
  8
MARK_IN_POCKET
 10
8.791767419272542
 20
15.97742782405579
 30
0.0
  0
VERTEX
  5
2B9
  8
MARK_IN_POCKET
 10
8.798228476017927
 20
15.99463986471028
 30
0.0
  0
VERTEX
  5
2BA
  8
MARK_IN_POCKET
 10
8.80498309618867
 20
16.01176707323719
 30
0.0
  0
VERTEX
  5
2BB
  8
MARK_IN_POCKET
 10
8.812029269165137
 20
16.02880803591957
 30
0.0
  0
VERTEX
  5
2BC
  8
MARK_IN_POCKET
 10
8.819364984327699
 20
16.04576133904052
 30
0.0
  0
VERTEX
  5
2BD
  8
MARK_IN_POCKET
 10
8.834896998732575
 20
16.07939931173035
 30
0.0
  0
VERTEX
  5
2BE
  8
MARK_IN_POCKET
 10
8.851563054446242
 20
16.11266968157124
 30
0.0
  0
VERTEX
  5
2BF
  8
MARK_IN_POCKET
 10
8.869347066511647
 20
16.14556113882778
 30
0.0
  0
VERTEX
  5
2C0
  8
MARK_IN_POCKET
 10
8.888232949971734
 20
16.17806237376453
 30
0.0
  0
VERTEX
  5
2C1
  8
MARK_IN_POCKET
 10
8.908204619869448
 20
16.21016207664606
 30
0.0
  0
VERTEX
  5
2C2
  8
MARK_IN_POCKET
 10
8.929245991247733
 20
16.24184893773695
 30
0.0
  0
VERTEX
  5
2C3
  8
MARK_IN_POCKET
 10
8.951340979149535
 20
16.27311164730176
 30
0.0
  0
VERTEX
  5
2C4
  8
MARK_IN_POCKET
 10
8.9744734986178
 20
16.30393889560506
 30
0.0
  0
VERTEX
  5
2C5
  8
MARK_IN_POCKET
 10
8.99862746469547
 20
16.33431937291143
 30
0.0
  0
VERTEX
  5
2C6
  8
MARK_IN_POCKET
 10
9.023786792425494
 20
16.36424176948543
 30
0.0
  0
VERTEX
  5
2C7
  8
MARK_IN_POCKET
 10
9.049935396850813
 20
16.39369477559164
 30
0.0
  0
VERTEX
  5
2C8
  8
MARK_IN_POCKET
 10
9.07705719301437
 20
16.42266708149463
 30
0.0
  0
VERTEX
  5
2C9
  8
MARK_IN_POCKET
 10
9.105136095959118
 20
16.45114737745896
 30
0.0
  0
VERTEX
  5
2CA
  8
MARK_IN_POCKET
 10
9.134156020727996
 20
16.47912435374921
 30
0.0
  0
VERTEX
  5
2CB
  8
MARK_IN_POCKET
 10
9.16410088236395
 20
16.50658670062995
 30
0.0
  0
VERTEX
  5
2CC
  8
MARK_IN_POCKET
 10
9.194954595909927
 20
16.53352310836575
 30
0.0
  0
VERTEX
  5
2CD
  8
MARK_IN_POCKET
 10
9.22670107640887
 20
16.55992226722118
 30
0.0
  0
VERTEX
  5
2CE
  8
MARK_IN_POCKET
 10
9.259324238903726
 20
16.58577286746081
 30
0.0
  0
VERTEX
  5
2CF
  8
MARK_IN_POCKET
 10
9.292807998437436
 20
16.61106359934921
 30
0.0
  0
VERTEX
  5
2D0
  8
MARK_IN_POCKET
 10
9.327136270052948
 20
16.63578315315095
 30
0.0
  0
VERTEX
  5
2D1
  8
MARK_IN_POCKET
 10
9.362292968793206
 20
16.65992021913061
 30
0.0
  0
VERTEX
  5
2D2
  8
MARK_IN_POCKET
 10
9.398262009701156
 20
16.68346348755275
 30
0.0
  0
VERTEX
  5
2D3
  8
MARK_IN_POCKET
 10
9.435027307819741
 20
16.70640164868195
 30
0.0
  0
VERTEX
  5
2D4
  8
MARK_IN_POCKET
 10
9.472572778191907
 20
16.72872339278276
 30
0.0
  0
VERTEX
  5
2D5
  8
MARK_IN_POCKET
 10
9.5108823358606
 20
16.75041741011978
 30
0.0
  0
VERTEX
  5
2D6
  8
MARK_IN_POCKET
 10
9.549939895868762
 20
16.77147239095756
 30
0.0
  0
VERTEX
  5
2D7
  8
MARK_IN_POCKET
 10
9.589729373259342
 20
16.79187702556068
 30
0.0
  0
VERTEX
  5
2D8
  8
MARK_IN_POCKET
 10
9.630234683075283
 20
16.8116200041937
 30
0.0
  0
VERTEX
  5
2D9
  8
MARK_IN_POCKET
 10
9.671439740359528
 20
16.83069001712121
 30
0.0
  0
VERTEX
  5
2DA
  8
MARK_IN_POCKET
 10
9.713328460155026
 20
16.84907575460776
 30
0.0
  0
VERTEX
  5
2DB
  8
MARK_IN_POCKET
 10
9.75588475750472
 20
16.86676590691793
 30
0.0
  0
VERTEX
  5
2DC
  8
MARK_IN_POCKET
 10
9.799092547451552
 20
16.88374916431629
 30
0.0
  0
VERTEX
  5
2DD
  8
MARK_IN_POCKET
 10
9.84293574503847
 20
16.90001421706742
 30
0.0
  0
VERTEX
  5
2DE
  8
MARK_IN_POCKET
 10
9.88739826530842
 20
16.91554975543587
 30
0.0
  0
VERTEX
  5
2DF
  8
MARK_IN_POCKET
 10
9.932464023304345
 20
16.93034446968623
 30
0.0
  0
VERTEX
  5
2E0
  8
MARK_IN_POCKET
 10
9.978116934069192
 20
16.94438705008306
 30
0.0
  0
VERTEX
  5
2E1
  8
MARK_IN_POCKET
 10
10.0243409126459
 20
16.95766618689093
 30
0.0
  0
VERTEX
  5
2E2
  8
MARK_IN_POCKET
 10
10.07111987407743
 20
16.97017057037442
 30
0.0
  0
VERTEX
  5
2E3
  8
MARK_IN_POCKET
 10
10.1184377334067
 20
16.9818888907981
 30
0.0
  0
VERTEX
  5
2E4
  8
MARK_IN_POCKET
 10
10.16627840567668
 20
16.99280983842652
 30
0.0
  0
VERTEX
  5
2E5
  8
MARK_IN_POCKET
 10
10.2146258059303
 20
17.00292210352428
 30
0.0
  0
VERTEX
  5
2E6
  8
MARK_IN_POCKET
 10
10.26346384921052
 20
17.01221437635593
 30
0.0
  0
VERTEX
  5
2E7
  8
MARK_IN_POCKET
 10
10.31277645056027
 20
17.02067534718605
 30
0.0
  0
VERTEX
  5
2E8
  8
MARK_IN_POCKET
 10
10.36254752502249
 20
17.0282937062792
 30
0.0
  0
VERTEX
  5
2E9
  8
MARK_IN_POCKET
 10
10.41276098764015
 20
17.03505814389997
 30
0.0
  0
VERTEX
  5
2EA
  8
MARK_IN_POCKET
 10
10.46340075345617
 20
17.04095735031292
 30
0.0
  0
VERTEX
  5
2EB
  8
MARK_IN_POCKET
 10
10.51445073751351
 20
17.04598001578261
 30
0.0
  0
VERTEX
  5
2EC
  8
MARK_IN_POCKET
 10
10.56589485485511
 20
17.05011483057363
 30
0.0
  0
VERTEX
  5
2ED
  8
MARK_IN_POCKET
 10
10.61771702052391
 20
17.05335048495053
 30
0.0
  0
VERTEX
  5
2EE
  8
MARK_IN_POCKET
 10
10.66990114956287
 20
17.05567566917791
 30
0.0
  0
VERTEX
  5
2EF
  8
MARK_IN_POCKET
 10
10.72243115701492
 20
17.05707907352031
 30
0.0
  0
VERTEX
  5
2F0
  8
MARK_IN_POCKET
 10
10.775290957923
 20
17.05754938824232
 30
0.0
  0
VERTEX
  5
2F1
  8
MARK_IN_POCKET
 10
10.82815075883109
 20
17.05707907352031
 30
0.0
  0
VERTEX
  5
2F2
  8
MARK_IN_POCKET
 10
10.88068076628314
 20
17.05567566917791
 30
0.0
  0
VERTEX
  5
2F3
  8
MARK_IN_POCKET
 10
10.93286489532209
 20
17.05335048495053
 30
0.0
  0
VERTEX
  5
2F4
  8
MARK_IN_POCKET
 10
10.9846870609909
 20
17.05011483057363
 30
0.0
  0
VERTEX
  5
2F5
  8
MARK_IN_POCKET
 10
11.0361311783325
 20
17.04598001578261
 30
0.0
  0
VERTEX
  5
2F6
  8
MARK_IN_POCKET
 10
11.08718116238984
 20
17.04095735031292
 30
0.0
  0
VERTEX
  5
2F7
  8
MARK_IN_POCKET
 10
11.13782092820586
 20
17.03505814389997
 30
0.0
  0
VERTEX
  5
2F8
  8
MARK_IN_POCKET
 10
11.18803439082351
 20
17.0282937062792
 30
0.0
  0
VERTEX
  5
2F9
  8
MARK_IN_POCKET
 10
11.23780546528574
 20
17.02067534718605
 30
0.0
  0
VERTEX
  5
2FA
  8
MARK_IN_POCKET
 10
11.28711806663549
 20
17.01221437635593
 30
0.0
  0
VERTEX
  5
2FB
  8
MARK_IN_POCKET
 10
11.33595610991571
 20
17.00292210352428
 30
0.0
  0
VERTEX
  5
2FC
  8
MARK_IN_POCKET
 10
11.38430351016933
 20
16.99280983842652
 30
0.0
  0
VERTEX
  5
2FD
  8
MARK_IN_POCKET
 10
11.43214418243931
 20
16.9818888907981
 30
0.0
  0
VERTEX
  5
2FE
  8
MARK_IN_POCKET
 10
11.47946204176858
 20
16.97017057037442
 30
0.0
  0
VERTEX
  5
2FF
  8
MARK_IN_POCKET
 10
11.5262410032001
 20
16.95766618689093
 30
0.0
  0
VERTEX
  5
300
  8
MARK_IN_POCKET
 10
11.57246498177681
 20
16.94438705008306
 30
0.0
  0
VERTEX
  5
301
  8
MARK_IN_POCKET
 10
11.61811789254166
 20
16.93034446968623
 30
0.0
  0
VERTEX
  5
302
  8
MARK_IN_POCKET
 10
11.66318365053759
 20
16.91554975543587
 30
0.0
  0
VERTEX
  5
303
  8
MARK_IN_POCKET
 10
11.70764617080754
 20
16.90001421706742
 30
0.0
  0
VERTEX
  5
304
  8
MARK_IN_POCKET
 10
11.75148936839445
 20
16.88374916431629
 30
0.0
  0
VERTEX
  5
305
  8
MARK_IN_POCKET
 10
11.79469715834129
 20
16.86676590691793
 30
0.0
  0
VERTEX
  5
306
  8
MARK_IN_POCKET
 10
11.83725345569098
 20
16.84907575460776
 30
0.0
  0
VERTEX
  5
307
  8
MARK_IN_POCKET
 10
11.87914217548648
 20
16.83069001712121
 30
0.0
  0
VERTEX
  5
308
  8
MARK_IN_POCKET
 10
11.92034723277072
 20
16.8116200041937
 30
0.0
  0
VERTEX
  5
309
  8
MARK_IN_POCKET
 10
11.96085254258666
 20
16.79187702556068
 30
0.0
  0
VERTEX
  5
30A
  8
MARK_IN_POCKET
 10
12.00064201997724
 20
16.77147239095756
 30
0.0
  0
VERTEX
  5
30B
  8
MARK_IN_POCKET
 10
12.03969957998541
 20
16.75041741011978
 30
0.0
  0
VERTEX
  5
30C
  8
MARK_IN_POCKET
 10
12.0780091376541
 20
16.72872339278276
 30
0.0
  0
VERTEX
  5
30D
  8
MARK_IN_POCKET
 10
12.11555460802627
 20
16.70640164868194
 30
0.0
  0
VERTEX
  5
30E
  8
MARK_IN_POCKET
 10
12.15231990614485
 20
16.68346348755275
 30
0.0
  0
VERTEX
  5
30F
  8
MARK_IN_POCKET
 10
12.1882889470528
 20
16.65992021913061
 30
0.0
  0
VERTEX
  5
310
  8
MARK_IN_POCKET
 10
12.22344564579306
 20
16.63578315315095
 30
0.0
  0
VERTEX
  5
311
  8
MARK_IN_POCKET
 10
12.25777391740857
 20
16.61106359934921
 30
0.0
  0
VERTEX
  5
312
  8
MARK_IN_POCKET
 10
12.29125767694228
 20
16.58577286746081
 30
0.0
  0
VERTEX
  5
313
  8
MARK_IN_POCKET
 10
12.32388083943714
 20
16.55992226722118
 30
0.0
  0
VERTEX
  5
314
  8
MARK_IN_POCKET
 10
12.35562731993608
 20
16.53352310836575
 30
0.0
  0
VERTEX
  5
315
  8
MARK_IN_POCKET
 10
12.38648103348206
 20
16.50658670062995
 30
0.0
  0
VERTEX
  5
316
  8
MARK_IN_POCKET
 10
12.41642589511801
 20
16.47912435374921
 30
0.0
  0
VERTEX
  5
317
  8
MARK_IN_POCKET
 10
12.44544581988689
 20
16.45114737745896
 30
0.0
  0
VERTEX
  5
318
  8
MARK_IN_POCKET
 10
12.47352472283164
 20
16.42266708149462
 30
0.0
  0
VERTEX
  5
319
  8
MARK_IN_POCKET
 10
12.50064651899519
 20
16.39369477559164
 30
0.0
  0
VERTEX
  5
31A
  8
MARK_IN_POCKET
 10
12.52679512342051
 20
16.36424176948543
 30
0.0
  0
VERTEX
  5
31B
  8
MARK_IN_POCKET
 10
12.55195445115054
 20
16.33431937291143
 30
0.0
  0
VERTEX
  5
31C
  8
MARK_IN_POCKET
 10
12.57610841722821
 20
16.30393889560506
 30
0.0
  0
VERTEX
  5
31D
  8
MARK_IN_POCKET
 10
12.59924093669647
 20
16.27311164730175
 30
0.0
  0
VERTEX
  5
31E
  8
MARK_IN_POCKET
 10
12.62133592459827
 20
16.24184893773695
 30
0.0
  0
VERTEX
  5
31F
  8
MARK_IN_POCKET
 10
12.64237729597656
 20
16.21016207664606
 30
0.0
  0
VERTEX
  5
320
  8
MARK_IN_POCKET
 10
12.66234896587427
 20
16.17806237376453
 30
0.0
  0
VERTEX
  5
321
  8
MARK_IN_POCKET
 10
12.68123484933436
 20
16.14556113882778
 30
0.0
  0
VERTEX
  5
322
  8
MARK_IN_POCKET
 10
12.69901886139976
 20
16.11266968157124
 30
0.0
  0
VERTEX
  5
323
  8
MARK_IN_POCKET
 10
12.71568491711343
 20
16.07939931173034
 30
0.0
  0
VERTEX
  5
324
  8
MARK_IN_POCKET
 10
12.73121693151831
 20
16.04576133904051
 30
0.0
  0
VERTEX
  5
325
  8
MARK_IN_POCKET
 10
12.73855264668087
 20
16.02880803591957
 30
0.0
  0
VERTEX
  5
326
  8
MARK_IN_POCKET
 10
12.74559881965734
 20
16.01176707323719
 30
0.0
  0
VERTEX
  5
327
  8
MARK_IN_POCKET
 10
12.75235343982808
 20
15.99463986471028
 30
0.0
  0
VERTEX
  5
328
  8
MARK_IN_POCKET
 10
12.75881449657346
 20
15.97742782405579
 30
0.0
  0
VERTEX
  5
329
  8
MARK_IN_POCKET
 10
12.76497997927386
 20
15.96013236499063
 30
0.0
  0
VERTEX
  5
32A
  8
MARK_IN_POCKET
 10
12.77084787730963
 20
15.94275490123174
 30
0.0
  0
VERTEX
  5
32B
  8
MARK_IN_POCKET
 10
12.77641618006115
 20
15.92529684649605
 30
0.0
  0
VERTEX
  5
32C
  8
MARK_IN_POCKET
 10
12.78168287690879
 20
15.90775961450049
 30
0.0
  0
VERTEX
  5
32D
  8
MARK_IN_POCKET
 10
12.78664595723291
 20
15.89014461896198
 30
0.0
  0
VERTEX
  5
32E
  8
MARK_IN_POCKET
 10
12.79130341041388
 20
15.87245327359745
 30
0.0
  0
VERTEX
  5
32F
  8
MARK_IN_POCKET
 10
12.79565322583207
 20
15.85468699212384
 30
0.0
  0
VERTEX
  5
330
  8
MARK_IN_POCKET
 10
12.79969339286785
 20
15.83684718825806
 30
0.0
  0
VERTEX
  5
331
  8
MARK_IN_POCKET
 10
12.80342190090158
 20
15.81893527571706
 30
0.0
  0
VERTEX
  5
332
  8
MARK_IN_POCKET
 10
12.80683673931364
 20
15.80095266821775
 30
0.0
  0
VERTEX
  5
333
  8
MARK_IN_POCKET
 10
12.80993589748439
 20
15.78290077947706
 30
0.0
  0
VERTEX
  5
334
  8
MARK_IN_POCKET
 10
12.8127173647942
 20
15.76478102321193
 30
0.0
  0
VERTEX
  5
335
  8
MARK_IN_POCKET
 10
12.81517913062343
 20
15.74659481313929
 30
0.0
  0
VERTEX
  5
336
  8
MARK_IN_POCKET
 10
12.81731918435247
 20
15.72834356297606
 30
0.0
  0
VERTEX
  5
337
  8
MARK_IN_POCKET
 10
12.81913551536167
 20
15.71002868643916
 30
0.0
  0
VERTEX
  5
338
  8
MARK_IN_POCKET
 10
12.82062611303139
 20
15.69165159724554
 30
0.0
  0
VERTEX
  5
339
  8
MARK_IN_POCKET
 10
12.82178896674203
 20
15.67321370911212
 30
0.0
  0
VERTEX
  5
33A
  8
MARK_IN_POCKET
 10
12.82262206587393
 20
15.65471643575582
 30
0.0
  0
VERTEX
  5
33B
  8
MARK_IN_POCKET
 10
12.82312339980746
 20
15.63616119089358
 30
0.0
  0
VERTEX
  5
33C
  8
MARK_IN_POCKET
 10
12.823290957923
 20
15.61754938824232
 30
0.0
  0
VERTEX
  5
33D
  8
MARK_IN_POCKET
 10
12.82293712576797
 20
15.59291319255119
 30
0.0
  0
VERTEX
  5
33E
  8
MARK_IN_POCKET
 10
12.82187974166191
 20
15.56838715695264
 30
0.0
  0
VERTEX
  5
33F
  8
MARK_IN_POCKET
 10
12.8201249741434
 20
15.54397524891123
 30
0.0
  0
VERTEX
  5
340
  8
MARK_IN_POCKET
 10
12.81767899175102
 20
15.51968143589155
 30
0.0
  0
VERTEX
  5
341
  8
MARK_IN_POCKET
 10
12.81454796302335
 20
15.49550968535818
 30
0.0
  0
VERTEX
  5
342
  8
MARK_IN_POCKET
 10
12.81073805649895
 20
15.4714639647757
 30
0.0
  0
VERTEX
  5
343
  8
MARK_IN_POCKET
 10
12.8062554407164
 20
15.44754824160869
 30
0.0
  0
VERTEX
  5
344
  8
MARK_IN_POCKET
 10
12.80110628421428
 20
15.42376648332173
 30
0.0
  0
VERTEX
  5
345
  8
MARK_IN_POCKET
 10
12.79529675553116
 20
15.4001226573794
 30
0.0
  0
VERTEX
  5
346
  8
MARK_IN_POCKET
 10
12.78883302320562
 20
15.37662073124629
 30
0.0
  0
VERTEX
  5
347
  8
MARK_IN_POCKET
 10
12.78172125577622
 20
15.35326467238697
 30
0.0
  0
VERTEX
  5
348
  8
MARK_IN_POCKET
 10
12.77396762178156
 20
15.33005844826602
 30
0.0
  0
VERTEX
  5
349
  8
MARK_IN_POCKET
 10
12.7655782897602
 20
15.30700602634802
 30
0.0
  0
VERTEX
  5
34A
  8
MARK_IN_POCKET
 10
12.75655942825071
 20
15.28411137409756
 30
0.0
  0
VERTEX
  5
34B
  8
MARK_IN_POCKET
 10
12.74691720579167
 20
15.26137845897922
 30
0.0
  0
VERTEX
  5
34C
  8
MARK_IN_POCKET
 10
12.73665779092166
 20
15.23881124845757
 30
0.0
  0
VERTEX
  5
34D
  8
MARK_IN_POCKET
 10
12.72578735217925
 20
15.21641370999719
 30
0.0
  0
VERTEX
  5
34E
  8
MARK_IN_POCKET
 10
12.71431205810301
 20
15.19418981106267
 30
0.0
  0
VERTEX
  5
34F
  8
MARK_IN_POCKET
 10
12.70223807723153
 20
15.17214351911859
 30
0.0
  0
VERTEX
  5
350
  8
MARK_IN_POCKET
 10
12.68957157810337
 20
15.15027880162952
 30
0.0
  0
VERTEX
  5
351
  8
MARK_IN_POCKET
 10
12.67631872925711
 20
15.12859962606005
 30
0.0
  0
VERTEX
  5
352
  8
MARK_IN_POCKET
 10
12.66248569923133
 20
15.10710995987476
 30
0.0
  0
VERTEX
  5
353
  8
MARK_IN_POCKET
 10
12.64807865656459
 20
15.08581377053823
 30
0.0
  0
VERTEX
  5
354
  8
MARK_IN_POCKET
 10
12.63310376979548
 20
15.06471502551504
 30
0.0
  0
VERTEX
  5
355
  8
MARK_IN_POCKET
 10
12.61756720746257
 20
15.04381769226977
 30
0.0
  0
VERTEX
  5
356
  8
MARK_IN_POCKET
 10
12.60147513810444
 20
15.02312573826699
 30
0.0
  0
VERTEX
  5
357
  8
MARK_IN_POCKET
 10
12.58483373025965
 20
15.0026431309713
 30
0.0
  0
VERTEX
  5
358
  8
MARK_IN_POCKET
 10
12.56764915246679
 20
14.98237383784726
 30
0.0
  0
VERTEX
  5
359
  8
MARK_IN_POCKET
 10
12.54992757326443
 20
14.96232182635947
 30
0.0
  0
VERTEX
  5
35A
  8
MARK_IN_POCKET
 10
12.53167516119114
 20
14.9424910639725
 30
0.0
  0
VERTEX
  5
35B
  8
MARK_IN_POCKET
 10
12.5128980847855
 20
14.92288551815093
 30
0.0
  0
VERTEX
  5
35C
  8
MARK_IN_POCKET
 10
12.49360251258608
 20
14.90350915635935
 30
0.0
  0
VERTEX
  5
35D
  8
MARK_IN_POCKET
 10
12.47379461313147
 20
14.88436594606233
 30
0.0
  0
VERTEX
  5
35E
  8
MARK_IN_POCKET
 10
12.45348055496022
 20
14.86545985472445
 30
0.0
  0
VERTEX
  5
35F
  8
MARK_IN_POCKET
 10
12.43266650661093
 20
14.84679484981029
 30
0.0
  0
VERTEX
  5
360
  8
MARK_IN_POCKET
 10
12.41135863662216
 20
14.82837489878444
 30
0.0
  0
VERTEX
  5
361
  8
MARK_IN_POCKET
 10
12.38956311353249
 20
14.81020396911148
 30
0.0
  0
VERTEX
  5
362
  8
MARK_IN_POCKET
 10
12.36728610588048
 20
14.79228602825598
 30
0.0
  0
VERTEX
  5
363
  8
MARK_IN_POCKET
 10
12.34453378220473
 20
14.77462504368252
 30
0.0
  0
VERTEX
  5
364
  8
MARK_IN_POCKET
 10
12.3213123110438
 20
14.7572249828557
 30
0.0
  0
VERTEX
  5
365
  8
MARK_IN_POCKET
 10
12.29762786093627
 20
14.74008981324008
 30
0.0
  0
VERTEX
  5
366
  8
MARK_IN_POCKET
 10
12.27348660042071
 20
14.72322350230024
 30
0.0
  0
VERTEX
  5
367
  8
MARK_IN_POCKET
 10
12.2488946980357
 20
14.70663001750078
 30
0.0
  0
VERTEX
  5
368
  8
MARK_IN_POCKET
 10
12.22385832231981
 20
14.69031332630626
 30
0.0
  0
VERTEX
  5
369
  8
MARK_IN_POCKET
 10
12.19838364181161
 20
14.67427739618127
 30
0.0
  0
VERTEX
  5
36A
  8
MARK_IN_POCKET
 10
12.17247682504969
 20
14.65852619459039
 30
0.0
  0
VERTEX
  5
36B
  8
MARK_IN_POCKET
 10
12.14614404057262
 20
14.6430636889982
 30
0.0
  0
VERTEX
  5
36C
  8
MARK_IN_POCKET
 10
12.11939145691897
 20
14.62789384686928
 30
0.0
  0
VERTEX
  5
36D
  8
MARK_IN_POCKET
 10
12.09222524262731
 20
14.61302063566821
 30
0.0
  0
VERTEX
  5
36E
  8
MARK_IN_POCKET
 10
12.06465156623623
 20
14.59844802285958
 30
0.0
  0
VERTEX
  5
36F
  8
MARK_IN_POCKET
 10
12.03667659628429
 20
14.58417997590795
 30
0.0
  0
VERTEX
  5
370
  8
MARK_IN_POCKET
 10
12.00830650131008
 20
14.57022046227792
 30
0.0
  0
VERTEX
  5
371
  8
MARK_IN_POCKET
 10
11.97954744985216
 20
14.55657344943405
 30
0.0
  0
VERTEX
  5
372
  8
MARK_IN_POCKET
 10
11.95040561044911
 20
14.54324290484095
 30
0.0
  0
VERTEX
  5
373
  8
MARK_IN_POCKET
 10
11.9208871516395
 20
14.53023279596317
 30
0.0
  0
VERTEX
  5
374
  8
MARK_IN_POCKET
 10
11.89099824196192
 20
14.51754709026531
 30
0.0
  0
VERTEX
  5
375
  8
MARK_IN_POCKET
 10
11.86074504995494
 20
14.50518975521195
 30
0.0
  0
VERTEX
  5
376
  8
MARK_IN_POCKET
 10
11.83013374415712
 20
14.49316475826766
 30
0.0
  0
VERTEX
  5
377
  8
MARK_IN_POCKET
 10
11.79917049310705
 20
14.48147606689702
 30
0.0
  0
VERTEX
  5
378
  8
MARK_IN_POCKET
 10
11.7678614653433
 20
14.47012764856462
 30
0.0
  0
VERTEX
  5
379
  8
MARK_IN_POCKET
 10
11.73621282940445
 20
14.45912347073504
 30
0.0
  0
VERTEX
  5
37A
  8
MARK_IN_POCKET
 10
11.70423075382906
 20
14.44846750087285
 30
0.0
  0
VERTEX
  5
37B
  8
MARK_IN_POCKET
 10
11.67192140715572
 20
14.43816370644264
 30
0.0
  0
VERTEX
  5
37C
  8
MARK_IN_POCKET
 10
11.639290957923
 20
14.42821605490899
 30
0.0
  0
SEQEND
  5
37D
  8
MARK_IN_POCKET
  0
ENDSEC
  0
EOF
