  0
SECTION
  2
HEADER
  9
$ACADVER
  1
AC1009
  9
$DWGCODEPAGE
  3
ansi_1252
  9
$INSBASE
 10
0.0
 20
0.0
 30
0.0
  9
$EXTMIN
 10
3.99974297564
 20
2.124998
 30
0.0
  9
$EXTMAX
 10
93.7883003142539
 20
46.11417692006265
 30
0.0
  9
$LIMMIN
 10
0.0
 20
0.0
  9
$LIMMAX
 10
12.0
 20
9.0
  9
$ORTHOMODE
 70
     0
  9
$REGENMODE
 70
     1
  9
$FILLMODE
 70
     1
  9
$QTEXTMODE
 70
     0
  9
$MIRRTEXT
 70
     1
  9
$DRAGMODE
 70
     2
  9
$LTSCALE
 40
1.0
  9
$OSMODE
 70
    37
  9
$ATTMODE
 70
     1
  9
$TEXTSIZE
 40
0.2
  9
$TRACEWID
 40
0.05
  9
$TEXTSTYLE
  7
STANDARD
  9
$CLAYER
  8
0
  9
$CELTYPE
  6
BYLAYER
  9
$CECOLOR
 62
   256
  9
$DIMSCALE
 40
1.0
  9
$DIMASZ
 40
0.18
  9
$DIMEXO
 40
0.0625
  9
$DIMDLI
 40
0.38
  9
$DIMRND
 40
0.0
  9
$DIMDLE
 40
0.0
  9
$DIMEXE
 40
0.18
  9
$DIMTP
 40
0.0
  9
$DIMTM
 40
0.0
  9
$DIMTXT
 40
0.18
  9
$DIMCEN
 40
0.09
  9
$DIMTSZ
 40
0.0
  9
$DIMTOL
 70
     0
  9
$DIMLIM
 70
     0
  9
$DIMTIH
 70
     1
  9
$DIMTOH
 70
     1
  9
$DIMSE1
 70
     0
  9
$DIMSE2
 70
     0
  9
$DIMTAD
 70
     0
  9
$DIMZIN
 70
     0
  9
$DIMBLK
  1

  9
$DIMASO
 70
     1
  9
$DIMSHO
 70
     1
  9
$DIMPOST
  1

  9
$DIMAPOST
  1

  9
$DIMALT
 70
     0
  9
$DIMALTD
 70
     2
  9
$DIMALTF
 40
25.4
  9
$DIMLFAC
 40
1.0
  9
$DIMTOFL
 70
     0
  9
$DIMTVP
 40
0.0
  9
$DIMTIX
 70
     0
  9
$DIMSOXD
 70
     0
  9
$DIMSAH
 70
     0
  9
$DIMBLK1
  1

  9
$DIMBLK2
  1

  9
$DIMSTYLE
  2
STANDARD
  9
$DIMCLRD
 70
     0
  9
$DIMCLRE
 70
     0
  9
$DIMCLRT
 70
     0
  9
$DIMTFAC
 40
1.0
  9
$DIMGAP
 40
0.09
  9
$LUNITS
 70
     2
  9
$LUPREC
 70
     4
  9
$SKETCHINC
 40
0.1
  9
$FILLETRAD
 40
0.5
  9
$AUNITS
 70
     0
  9
$AUPREC
 70
     0
  9
$MENU
  1
.
  9
$ELEVATION
 40
0.0
  9
$PELEVATION
 40
0.0
  9
$THICKNESS
 40
0.0
  9
$LIMCHECK
 70
     0
  9
$CHAMFERA
 40
0.5
  9
$CHAMFERB
 40
0.5
  9
$SKPOLY
 70
     0
  9
$TDCREATE
 40
2454910.5
  9
$TDUPDATE
 40
2455901.445240139
  9
$TDINDWG
 40
0.0000000116
  9
$TDUSRTIMER
 40
0.0000000116
  9
$USRTIMER
 70
     1
  9
$ANGBASE
 50
0.0
  9
$ANGDIR
 70
     0
  9
$PDMODE
 70
     0
  9
$PDSIZE
 40
0.0
  9
$PLINEWID
 40
0.0
  9
$COORDS
 70
     1
  9
$SPLFRAME
 70
     0
  9
$SPLINETYPE
 70
     6
  9
$SPLINESEGS
 70
     8
  9
$ATTDIA
 70
     0
  9
$ATTREQ
 70
     1
  9
$HANDLING
 70
     1
  9
$HANDSEED
  5
26C
  9
$SURFTAB1
 70
     6
  9
$SURFTAB2
 70
     6
  9
$SURFTYPE
 70
     6
  9
$SURFU
 70
     6
  9
$SURFV
 70
     6
  9
$UCSNAME
  2

  9
$UCSORG
 10
0.0
 20
0.0
 30
0.0
  9
$UCSXDIR
 10
1.0
 20
0.0
 30
0.0
  9
$UCSYDIR
 10
0.0
 20
1.0
 30
0.0
  9
$PUCSNAME
  2

  9
$PUCSORG
 10
0.0
 20
0.0
 30
0.0
  9
$PUCSXDIR
 10
1.0
 20
0.0
 30
0.0
  9
$PUCSYDIR
 10
0.0
 20
1.0
 30
0.0
  9
$USERI1
 70
     0
  9
$USERI2
 70
     0
  9
$USERI3
 70
     0
  9
$USERI4
 70
     0
  9
$USERI5
 70
     0
  9
$USERR1
 40
0.0
  9
$USERR2
 40
0.0
  9
$USERR3
 40
0.0
  9
$USERR4
 40
0.0
  9
$USERR5
 40
0.0
  9
$WORLDVIEW
 70
     1
  9
$SHADEDGE
 70
     3
  9
$SHADEDIF
 70
    70
  9
$TILEMODE
 70
     1
  9
$MAXACTVP
 70
    64
  9
$PLIMCHECK
 70
     0
  9
$PEXTMIN
 10
1.000000000000000E+20
 20
1.000000000000000E+20
 30
1.000000000000000E+20
  9
$PEXTMAX
 10
-1.000000000000000E+20
 20
-1.000000000000000E+20
 30
-1.000000000000000E+20
  9
$PLIMMIN
 10
0.0
 20
0.0
  9
$PLIMMAX
 10
12.0
 20
9.0
  9
$UNITMODE
 70
     0
  9
$VISRETAIN
 70
     1
  9
$PLINEGEN
 70
     0
  9
$PSLTSCALE
 70
     1
  0
ENDSEC
  0
SECTION
  2
TABLES
  0
TABLE
  2
VPORT
 70
     1
  0
VPORT
  2
*ACTIVE
 70
     0
 10
0.0
 20
0.0
 11
1.0
 21
1.0
 12
10.42990654205607
 22
4.5
 13
0.0
 23
0.0
 14
0.5
 24
0.5
 15
0.5
 25
0.5
 16
0.0
 26
0.0
 36
1.0
 17
0.0
 27
0.0
 37
0.0
 40
9.0
 41
1.972972972850329
 42
50.0
 43
0.0
 44
0.0
 50
0.0
 51
0.0
 71
     0
 72
   100
 73
     1
 74
     3
 75
     0
 76
     0
 77
     0
 78
     0
  0
ENDTAB
  0
TABLE
  2
LTYPE
 70
     2
  0
LTYPE
  2
CONTINUOUS
 70
     0
  3
Solid line
 72
    65
 73
     0
 40
0.0
  0
LTYPE
  2
CONTINUOUS2
 70
     0
  3
Solid Line
 72
    65
 73
     0
 40
0.0
  0
ENDTAB
  0
TABLE
  2
LAYER
 70
     5
  0
LAYER
  2
0
 70
     0
 62
     7
  6
CONTINUOUS
  0
LAYER
  2
THROUGH_CUT
 70
     0
 62
    18
  6
CONTINUOUS
  0
LAYER
  2
CUT_HALFWAY_THROUGH
 70
     0
 62
     1
  6
CONTINUOUS
  0
LAYER
  2
RECESS_FOR_SCREWS
 70
     0
 62
     5
  6
CONTINUOUS
  0
LAYER
  2
MARK_IN_POCKET
 70
     0
 62
     3
  6
CONTINUOUS
  0
ENDTAB
  0
TABLE
  2
STYLE
 70
     1
  0
STYLE
  2
STANDARD
 70
     0
 40
0.0
 41
1.0
 50
0.0
 71
     0
 42
0.2
  3
txt
  4

  0
ENDTAB
  0
TABLE
  2
VIEW
 70
     0
  0
ENDTAB
  0
TABLE
  2
UCS
 70
     0
  0
ENDTAB
  0
TABLE
  2
APPID
 70
     1
  0
APPID
  2
ACAD
 70
     0
  0
ENDTAB
  0
TABLE
  2
DIMSTYLE
 70
     1
  0
DIMSTYLE
  2
STANDARD
 70
     0
  3

  4

  5

  6

  7

 40
1.0
 41
0.18
 42
0.0625
 43
0.38
 44
0.18
 45
0.0
 46
0.0
 47
0.0
 48
0.0
140
0.18
141
0.09
142
0.0
143
25.4
144
1.0
145
0.0
146
1.0
147
0.09
 71
     0
 72
     0
 73
     1
 74
     1
 75
     0
 76
     0
 77
     0
 78
     0
170
     0
171
     2
172
     0
173
     0
174
     0
175
     0
176
     0
177
     0
178
     0
  0
ENDTAB
  0
ENDSEC
  0
SECTION
  2
BLOCKS
  0
BLOCK
  8
0
  2
$MODEL_SPACE
 70
     0
 10
0.0
 20
0.0
 30
0.0
  3
$MODEL_SPACE
  1

  0
ENDBLK
  5
21
  8
0
  0
BLOCK
 67
     1
  8
0
  2
$PAPER_SPACE
 70
     0
 10
0.0
 20
0.0
 30
0.0
  3
$PAPER_SPACE
  1

  0
ENDBLK
  5
1D
 67
     1
  8
0
  0
ENDSEC
  0
SECTION
  2
ENTITIES
  0
POLYLINE
  5
41
  8
THROUGH_CUT
 66
     1
 10
0.0
 20
0.0
 30
0.0
 70
     1
  0
VERTEX
  5
6D
  8
THROUGH_CUT
 10
79.27962297564
 20
5.824955
 30
0.0
 42
0.414213562372987
  0
VERTEX
  5
6E
  8
THROUGH_CUT
 10
79.07962297564
 20
5.624955
 30
0.0
 42
0.414213562372987
  0
VERTEX
  5
6F
  8
THROUGH_CUT
 10
79.27962297564
 20
5.424955
 30
0.0
 42
0.414213562372995
  0
VERTEX
  5
70
  8
THROUGH_CUT
 10
79.47962297564
 20
5.624955
 30
0.0
 42
0.414213562372995
  0
SEQEND
  5
71
  8
THROUGH_CUT
  0
POLYLINE
  5
42
  8
THROUGH_CUT
 66
     1
 10
0.0
 20
0.0
 30
0.0
 70
     1
  0
VERTEX
  5
72
  8
THROUGH_CUT
 10
91.27962297564
 20
5.824955
 30
0.0
 42
0.414213562372987
  0
VERTEX
  5
73
  8
THROUGH_CUT
 10
91.07962297564
 20
5.624955
 30
0.0
 42
0.414213562372987
  0
VERTEX
  5
74
  8
THROUGH_CUT
 10
91.27962297564
 20
5.424955
 30
0.0
 42
0.414213562372995
  0
VERTEX
  5
75
  8
THROUGH_CUT
 10
91.47962297564
 20
5.624955
 30
0.0
 42
0.414213562372995
  0
SEQEND
  5
76
  8
THROUGH_CUT
  0
POLYLINE
  5
43
  8
THROUGH_CUT
 66
     1
 10
0.0
 20
0.0
 30
0.0
 70
     1
  0
VERTEX
  5
77
  8
THROUGH_CUT
 10
4.95283397564
 20
5.495418
 30
0.0
 42
0.9614812579399954
  0
VERTEX
  5
78
  8
THROUGH_CUT
 10
5.040919490576851
 20
4.751201678935888
 30
0.0
 42
0.9614804590530841
  0
VERTEX
  5
79
  8
THROUGH_CUT
 10
5.01149697564
 20
5.500035
 30
0.0
 42
0.0196379937251413
  0
VERTEX
  5
7A
  8
THROUGH_CUT
 10
4.982075083382964
 20
5.498878980309032
 30
0.0
 42
0.0196375784393063
  0
SEQEND
  5
7B
  8
THROUGH_CUT
  0
POLYLINE
  5
44
  8
THROUGH_CUT
 66
     1
 10
0.0
 20
0.0
 30
0.0
 70
     1
  0
VERTEX
  5
7C
  8
THROUGH_CUT
 10
27.0383003142539
 20
27.61417692006265
 30
0.0
  0
VERTEX
  5
7D
  8
THROUGH_CUT
 10
27.78830031425389
 20
27.61417692006265
 30
0.0
 42
1.0
  0
VERTEX
  5
7E
  8
THROUGH_CUT
 10
27.78830031425389
 20
27.99417692006265
 30
0.0
  0
VERTEX
  5
7F
  8
THROUGH_CUT
 10
27.78830031425389
 20
30.23417692006266
 30
0.0
 42
1.0
  0
VERTEX
  5
80
  8
THROUGH_CUT
 10
27.78830031425389
 20
30.61417692006265
 30
0.0
  0
VERTEX
  5
81
  8
THROUGH_CUT
 10
27.0383003142539
 20
30.61417692006265
 30
0.0
 42
1.0
  0
VERTEX
  5
82
  8
THROUGH_CUT
 10
27.0383003142539
 20
30.23417692006266
 30
0.0
  0
VERTEX
  5
83
  8
THROUGH_CUT
 10
27.0383003142539
 20
27.99417692006265
 30
0.0
 42
1.0
  0
SEQEND
  5
84
  8
THROUGH_CUT
  0
POLYLINE
  5
45
  8
THROUGH_CUT
 66
     1
 10
0.0
 20
0.0
 30
0.0
 70
     1
  0
VERTEX
  5
85
  8
THROUGH_CUT
 10
49.0383003142539
 20
27.61417692006265
 30
0.0
  0
VERTEX
  5
86
  8
THROUGH_CUT
 10
49.7883003142539
 20
27.61417692006265
 30
0.0
 42
1.0
  0
VERTEX
  5
87
  8
THROUGH_CUT
 10
49.7883003142539
 20
27.99417692006265
 30
0.0
  0
VERTEX
  5
88
  8
THROUGH_CUT
 10
49.7883003142539
 20
30.23417692006266
 30
0.0
 42
1.0
  0
VERTEX
  5
89
  8
THROUGH_CUT
 10
49.7883003142539
 20
30.61417692006265
 30
0.0
  0
VERTEX
  5
8A
  8
THROUGH_CUT
 10
49.0383003142539
 20
30.61417692006265
 30
0.0
 42
1.0
  0
VERTEX
  5
8B
  8
THROUGH_CUT
 10
49.0383003142539
 20
30.23417692006266
 30
0.0
  0
VERTEX
  5
8C
  8
THROUGH_CUT
 10
49.0383003142539
 20
27.99417692006265
 30
0.0
 42
1.0
  0
SEQEND
  5
8D
  8
THROUGH_CUT
  0
POLYLINE
  5
46
  8
THROUGH_CUT
 66
     1
 10
0.0
 20
0.0
 30
0.0
 70
     1
  0
VERTEX
  5
8E
  8
THROUGH_CUT
 10
71.0383003142539
 20
27.61417692006265
 30
0.0
  0
VERTEX
  5
8F
  8
THROUGH_CUT
 10
71.7883003142539
 20
27.61417692006265
 30
0.0
 42
1.0
  0
VERTEX
  5
90
  8
THROUGH_CUT
 10
71.7883003142539
 20
27.99417692006265
 30
0.0
  0
VERTEX
  5
91
  8
THROUGH_CUT
 10
71.7883003142539
 20
30.23417692006266
 30
0.0
 42
1.0
  0
VERTEX
  5
92
  8
THROUGH_CUT
 10
71.7883003142539
 20
30.61417692006265
 30
0.0
  0
VERTEX
  5
93
  8
THROUGH_CUT
 10
71.0383003142539
 20
30.61417692006265
 30
0.0
 42
1.0
  0
VERTEX
  5
94
  8
THROUGH_CUT
 10
71.0383003142539
 20
30.23417692006266
 30
0.0
  0
VERTEX
  5
95
  8
THROUGH_CUT
 10
71.0383003142539
 20
27.99417692006265
 30
0.0
 42
1.0
  0
SEQEND
  5
96
  8
THROUGH_CUT
  0
POLYLINE
  5
47
  8
THROUGH_CUT
 66
     1
 10
0.0
 20
0.0
 30
0.0
 70
     1
  0
VERTEX
  5
97
  8
THROUGH_CUT
 10
73.90462097564
 20
9.124999
 30
0.0
  0
VERTEX
  5
98
  8
THROUGH_CUT
 10
52.65462097564
 20
9.124999
 30
0.0
  0
VERTEX
  5
99
  8
THROUGH_CUT
 10
52.65462097564
 20
5.524999
 30
0.0
  0
VERTEX
  5
9A
  8
THROUGH_CUT
 10
52.68753997564
 20
5.522271
 30
0.0
  0
VERTEX
  5
9B
  8
THROUGH_CUT
 10
52.71956097564
 20
5.514162
 30
0.0
  0
VERTEX
  5
9C
  8
THROUGH_CUT
 10
52.74980997564
 20
5.500894
 30
0.0
  0
VERTEX
  5
9D
  8
THROUGH_CUT
 10
52.77746297564
 20
5.482827
 30
0.0
  0
VERTEX
  5
9E
  8
THROUGH_CUT
 10
52.80176597564
 20
5.460455
 30
0.0
  0
VERTEX
  5
9F
  8
THROUGH_CUT
 10
52.82205397564
 20
5.434388
 30
0.0
  0
VERTEX
  5
A0
  8
THROUGH_CUT
 10
52.83777597564
 20
5.405338
 30
0.0
  0
VERTEX
  5
A1
  8
THROUGH_CUT
 10
52.84850097564
 20
5.374096
 30
0.0
  0
VERTEX
  5
A2
  8
THROUGH_CUT
 10
52.85393797564
 20
5.341515
 30
0.0
  0
VERTEX
  5
A3
  8
THROUGH_CUT
 10
52.85393797564
 20
5.308483
 30
0.0
  0
VERTEX
  5
A4
  8
THROUGH_CUT
 10
52.84850097564
 20
5.275902
 30
0.0
  0
VERTEX
  5
A5
  8
THROUGH_CUT
 10
52.83777597564
 20
5.24466
 30
0.0
  0
VERTEX
  5
A6
  8
THROUGH_CUT
 10
52.82205397564
 20
5.215609
 30
0.0
  0
VERTEX
  5
A7
  8
THROUGH_CUT
 10
52.80176597564
 20
5.189542
 30
0.0
  0
VERTEX
  5
A8
  8
THROUGH_CUT
 10
52.77746297564
 20
5.167171
 30
0.0
  0
VERTEX
  5
A9
  8
THROUGH_CUT
 10
52.74980997564
 20
5.149104
 30
0.0
  0
VERTEX
  5
AA
  8
THROUGH_CUT
 10
52.71956097564
 20
5.135835
 30
0.0
  0
VERTEX
  5
AB
  8
THROUGH_CUT
 10
52.68753997564
 20
5.127727
 30
0.0
  0
VERTEX
  5
AC
  8
THROUGH_CUT
 10
52.65462097564
 20
5.124999
 30
0.0
  0
VERTEX
  5
AD
  8
THROUGH_CUT
 10
51.90462097564
 20
5.124999
 30
0.0
  0
VERTEX
  5
AE
  8
THROUGH_CUT
 10
51.87170197564
 20
5.127727
 30
0.0
  0
VERTEX
  5
AF
  8
THROUGH_CUT
 10
51.83968097564
 20
5.135835
 30
0.0
  0
VERTEX
  5
B0
  8
THROUGH_CUT
 10
51.80943097564
 20
5.149104
 30
0.0
  0
VERTEX
  5
B1
  8
THROUGH_CUT
 10
51.78177797564
 20
5.167171
 30
0.0
  0
VERTEX
  5
B2
  8
THROUGH_CUT
 10
51.75747597564
 20
5.189542
 30
0.0
  0
VERTEX
  5
B3
  8
THROUGH_CUT
 10
51.73718797564
 20
5.215609
 30
0.0
  0
VERTEX
  5
B4
  8
THROUGH_CUT
 10
51.72146597564
 20
5.24466
 30
0.0
  0
VERTEX
  5
B5
  8
THROUGH_CUT
 10
51.71074097564
 20
5.275902
 30
0.0
  0
VERTEX
  5
B6
  8
THROUGH_CUT
 10
51.70530397564
 20
5.308483
 30
0.0
  0
VERTEX
  5
B7
  8
THROUGH_CUT
 10
51.70530397564
 20
5.341515
 30
0.0
  0
VERTEX
  5
B8
  8
THROUGH_CUT
 10
51.71074097564
 20
5.374096
 30
0.0
  0
VERTEX
  5
B9
  8
THROUGH_CUT
 10
51.72146597564
 20
5.405338
 30
0.0
  0
VERTEX
  5
BA
  8
THROUGH_CUT
 10
51.73718797564
 20
5.434388
 30
0.0
  0
VERTEX
  5
BB
  8
THROUGH_CUT
 10
51.75747597564
 20
5.460455
 30
0.0
  0
VERTEX
  5
BC
  8
THROUGH_CUT
 10
51.78177797564
 20
5.482827
 30
0.0
  0
VERTEX
  5
BD
  8
THROUGH_CUT
 10
51.80943097564
 20
5.500894
 30
0.0
  0
VERTEX
  5
BE
  8
THROUGH_CUT
 10
51.83968097564
 20
5.514162
 30
0.0
  0
VERTEX
  5
BF
  8
THROUGH_CUT
 10
51.87170197564
 20
5.522271
 30
0.0
  0
VERTEX
  5
C0
  8
THROUGH_CUT
 10
51.90462097564
 20
5.524999
 30
0.0
  0
VERTEX
  5
C1
  8
THROUGH_CUT
 10
51.90462097564
 20
9.124999
 30
0.0
  0
VERTEX
  5
C2
  8
THROUGH_CUT
 10
30.65462097564
 20
9.124999
 30
0.0
  0
VERTEX
  5
C3
  8
THROUGH_CUT
 10
30.65462097564
 20
5.524999
 30
0.0
  0
VERTEX
  5
C4
  8
THROUGH_CUT
 10
30.68753997564
 20
5.522271
 30
0.0
  0
VERTEX
  5
C5
  8
THROUGH_CUT
 10
30.71956097564
 20
5.514162
 30
0.0
  0
VERTEX
  5
C6
  8
THROUGH_CUT
 10
30.74980997564
 20
5.500894
 30
0.0
  0
VERTEX
  5
C7
  8
THROUGH_CUT
 10
30.77746297564
 20
5.482827
 30
0.0
  0
VERTEX
  5
C8
  8
THROUGH_CUT
 10
30.80176597564
 20
5.460455
 30
0.0
  0
VERTEX
  5
C9
  8
THROUGH_CUT
 10
30.82205397564
 20
5.434388
 30
0.0
  0
VERTEX
  5
CA
  8
THROUGH_CUT
 10
30.83777597564
 20
5.405338
 30
0.0
  0
VERTEX
  5
CB
  8
THROUGH_CUT
 10
30.84850097564
 20
5.374096
 30
0.0
  0
VERTEX
  5
CC
  8
THROUGH_CUT
 10
30.85393797564
 20
5.341515
 30
0.0
  0
VERTEX
  5
CD
  8
THROUGH_CUT
 10
30.85393797564
 20
5.308483
 30
0.0
  0
VERTEX
  5
CE
  8
THROUGH_CUT
 10
30.84850097564
 20
5.275902
 30
0.0
  0
VERTEX
  5
CF
  8
THROUGH_CUT
 10
30.83777597564
 20
5.24466
 30
0.0
  0
VERTEX
  5
D0
  8
THROUGH_CUT
 10
30.82205397564
 20
5.215609
 30
0.0
  0
VERTEX
  5
D1
  8
THROUGH_CUT
 10
30.80176597564
 20
5.189542
 30
0.0
  0
VERTEX
  5
D2
  8
THROUGH_CUT
 10
30.77746297564
 20
5.167171
 30
0.0
  0
VERTEX
  5
D3
  8
THROUGH_CUT
 10
30.74980997564
 20
5.149104
 30
0.0
  0
VERTEX
  5
D4
  8
THROUGH_CUT
 10
30.71956097564
 20
5.135835
 30
0.0
  0
VERTEX
  5
D5
  8
THROUGH_CUT
 10
30.68753997564
 20
5.127727
 30
0.0
  0
VERTEX
  5
D6
  8
THROUGH_CUT
 10
30.65462097564
 20
5.124999
 30
0.0
  0
VERTEX
  5
D7
  8
THROUGH_CUT
 10
29.90462097564
 20
5.124999
 30
0.0
  0
VERTEX
  5
D8
  8
THROUGH_CUT
 10
29.87170197564
 20
5.127727
 30
0.0
  0
VERTEX
  5
D9
  8
THROUGH_CUT
 10
29.83968097564
 20
5.135835
 30
0.0
  0
VERTEX
  5
DA
  8
THROUGH_CUT
 10
29.80943097564
 20
5.149104
 30
0.0
  0
VERTEX
  5
DB
  8
THROUGH_CUT
 10
29.78177797564
 20
5.167171
 30
0.0
  0
VERTEX
  5
DC
  8
THROUGH_CUT
 10
29.75747597564
 20
5.189542
 30
0.0
  0
VERTEX
  5
DD
  8
THROUGH_CUT
 10
29.73718797564
 20
5.215609
 30
0.0
  0
VERTEX
  5
DE
  8
THROUGH_CUT
 10
29.72146597564
 20
5.24466
 30
0.0
  0
VERTEX
  5
DF
  8
THROUGH_CUT
 10
29.71074097564
 20
5.275902
 30
0.0
  0
VERTEX
  5
E0
  8
THROUGH_CUT
 10
29.70530397564
 20
5.308483
 30
0.0
  0
VERTEX
  5
E1
  8
THROUGH_CUT
 10
29.70530397564
 20
5.341515
 30
0.0
  0
VERTEX
  5
E2
  8
THROUGH_CUT
 10
29.71074097564
 20
5.374096
 30
0.0
  0
VERTEX
  5
E3
  8
THROUGH_CUT
 10
29.72146597564
 20
5.405338
 30
0.0
  0
VERTEX
  5
E4
  8
THROUGH_CUT
 10
29.73718797564
 20
5.434388
 30
0.0
  0
VERTEX
  5
E5
  8
THROUGH_CUT
 10
29.75747597564
 20
5.460455
 30
0.0
  0
VERTEX
  5
E6
  8
THROUGH_CUT
 10
29.78177797564
 20
5.482827
 30
0.0
  0
VERTEX
  5
E7
  8
THROUGH_CUT
 10
29.80943097564
 20
5.500894
 30
0.0
  0
VERTEX
  5
E8
  8
THROUGH_CUT
 10
29.83968097564
 20
5.514162
 30
0.0
  0
VERTEX
  5
E9
  8
THROUGH_CUT
 10
29.87170197564
 20
5.522271
 30
0.0
  0
VERTEX
  5
EA
  8
THROUGH_CUT
 10
29.90462097564
 20
5.524999
 30
0.0
  0
VERTEX
  5
EB
  8
THROUGH_CUT
 10
29.90462097564
 20
9.124999
 30
0.0
  0
VERTEX
  5
EC
  8
THROUGH_CUT
 10
8.65462097564
 20
9.124999
 30
0.0
  0
VERTEX
  5
ED
  8
THROUGH_CUT
 10
8.65462097564
 20
5.524999
 30
0.0
  0
VERTEX
  5
EE
  8
THROUGH_CUT
 10
8.68753997564
 20
5.522271
 30
0.0
  0
VERTEX
  5
EF
  8
THROUGH_CUT
 10
8.71956097564
 20
5.514162
 30
0.0
  0
VERTEX
  5
F0
  8
THROUGH_CUT
 10
8.74980997564
 20
5.500894
 30
0.0
  0
VERTEX
  5
F1
  8
THROUGH_CUT
 10
8.77746297564
 20
5.482827
 30
0.0
  0
VERTEX
  5
F2
  8
THROUGH_CUT
 10
8.80176597564
 20
5.460455
 30
0.0
  0
VERTEX
  5
F3
  8
THROUGH_CUT
 10
8.82205397564
 20
5.434388
 30
0.0
  0
VERTEX
  5
F4
  8
THROUGH_CUT
 10
8.83777597564
 20
5.405338
 30
0.0
  0
VERTEX
  5
F5
  8
THROUGH_CUT
 10
8.84850097564
 20
5.374096
 30
0.0
  0
VERTEX
  5
F6
  8
THROUGH_CUT
 10
8.85393797564
 20
5.341515
 30
0.0
  0
VERTEX
  5
F7
  8
THROUGH_CUT
 10
8.85393797564
 20
5.308483
 30
0.0
  0
VERTEX
  5
F8
  8
THROUGH_CUT
 10
8.84850097564
 20
5.275902
 30
0.0
  0
VERTEX
  5
F9
  8
THROUGH_CUT
 10
8.83777597564
 20
5.24466
 30
0.0
  0
VERTEX
  5
FA
  8
THROUGH_CUT
 10
8.82205397564
 20
5.215609
 30
0.0
  0
VERTEX
  5
FB
  8
THROUGH_CUT
 10
8.80176597564
 20
5.189542
 30
0.0
  0
VERTEX
  5
FC
  8
THROUGH_CUT
 10
8.77746297564
 20
5.167171
 30
0.0
  0
VERTEX
  5
FD
  8
THROUGH_CUT
 10
8.74980997564
 20
5.149104
 30
0.0
  0
VERTEX
  5
FE
  8
THROUGH_CUT
 10
8.71956097564
 20
5.135835
 30
0.0
  0
VERTEX
  5
FF
  8
THROUGH_CUT
 10
8.68753997564
 20
5.127727
 30
0.0
  0
VERTEX
  5
100
  8
THROUGH_CUT
 10
8.65462097564
 20
5.124999
 30
0.0
  0
VERTEX
  5
101
  8
THROUGH_CUT
 10
7.90462097564
 20
5.124999
 30
0.0
  0
VERTEX
  5
102
  8
THROUGH_CUT
 10
7.87170197564
 20
5.127727
 30
0.0
  0
VERTEX
  5
103
  8
THROUGH_CUT
 10
7.83968097564
 20
5.135835
 30
0.0
  0
VERTEX
  5
104
  8
THROUGH_CUT
 10
7.80943097564
 20
5.149104
 30
0.0
  0
VERTEX
  5
105
  8
THROUGH_CUT
 10
7.78177797564
 20
5.167171
 30
0.0
  0
VERTEX
  5
106
  8
THROUGH_CUT
 10
7.75747597564
 20
5.189542
 30
0.0
  0
VERTEX
  5
107
  8
THROUGH_CUT
 10
7.73718797564
 20
5.215609
 30
0.0
  0
VERTEX
  5
108
  8
THROUGH_CUT
 10
7.72146597564
 20
5.24466
 30
0.0
  0
VERTEX
  5
109
  8
THROUGH_CUT
 10
7.71074097564
 20
5.275902
 30
0.0
  0
VERTEX
  5
10A
  8
THROUGH_CUT
 10
7.70530397564
 20
5.308483
 30
0.0
  0
VERTEX
  5
10B
  8
THROUGH_CUT
 10
7.70530397564
 20
5.341515
 30
0.0
  0
VERTEX
  5
10C
  8
THROUGH_CUT
 10
7.71074097564
 20
5.374096
 30
0.0
  0
VERTEX
  5
10D
  8
THROUGH_CUT
 10
7.72146597564
 20
5.405338
 30
0.0
  0
VERTEX
  5
10E
  8
THROUGH_CUT
 10
7.73718797564
 20
5.434388
 30
0.0
  0
VERTEX
  5
10F
  8
THROUGH_CUT
 10
7.75747597564
 20
5.460455
 30
0.0
  0
VERTEX
  5
110
  8
THROUGH_CUT
 10
7.78177797564
 20
5.482827
 30
0.0
  0
VERTEX
  5
111
  8
THROUGH_CUT
 10
7.80943097564
 20
5.500894
 30
0.0
  0
VERTEX
  5
112
  8
THROUGH_CUT
 10
7.83968097564
 20
5.514162
 30
0.0
  0
VERTEX
  5
113
  8
THROUGH_CUT
 10
7.87170197564
 20
5.522271
 30
0.0
  0
VERTEX
  5
114
  8
THROUGH_CUT
 10
7.90462097564
 20
5.524999
 30
0.0
  0
VERTEX
  5
115
  8
THROUGH_CUT
 10
7.90462097564
 20
9.124999
 30
0.0
  0
VERTEX
  5
116
  8
THROUGH_CUT
 10
5.76153897564
 20
9.124999
 30
0.0
  0
VERTEX
  5
117
  8
THROUGH_CUT
 10
5.76153897564
 20
7.407842
 30
0.0
  0
VERTEX
  5
118
  8
THROUGH_CUT
 10
5.78394797564
 20
7.381136
 30
0.0
  0
VERTEX
  5
119
  8
THROUGH_CUT
 10
5.80137997564
 20
7.350944
 30
0.0
  0
VERTEX
  5
11A
  8
THROUGH_CUT
 10
5.81330297564
 20
7.318184
 30
0.0
  0
VERTEX
  5
11B
  8
THROUGH_CUT
 10
5.81935697564
 20
7.283852
 30
0.0
  0
VERTEX
  5
11C
  8
THROUGH_CUT
 10
5.81935697564
 20
7.24899
 30
0.0
  0
VERTEX
  5
11D
  8
THROUGH_CUT
 10
5.81330297564
 20
7.214657
 30
0.0
  0
VERTEX
  5
11E
  8
THROUGH_CUT
 10
5.80137997564
 20
7.181897
 30
0.0
  0
VERTEX
  5
11F
  8
THROUGH_CUT
 10
5.78394897564
 20
7.151705
 30
0.0
  0
VERTEX
  5
120
  8
THROUGH_CUT
 10
5.76153997564
 20
7.124999
 30
0.0
  0
VERTEX
  5
121
  8
THROUGH_CUT
 10
5.73483397564
 20
7.10259
 30
0.0
  0
VERTEX
  5
122
  8
THROUGH_CUT
 10
5.70464197564
 20
7.085159
 30
0.0
  0
VERTEX
  5
123
  8
THROUGH_CUT
 10
5.67188197564
 20
7.073235
 30
0.0
  0
VERTEX
  5
124
  8
THROUGH_CUT
 10
5.63754997564
 20
7.067182
 30
0.0
  0
VERTEX
  5
125
  8
THROUGH_CUT
 10
5.60268697564
 20
7.067181
 30
0.0
  0
VERTEX
  5
126
  8
THROUGH_CUT
 10
5.56835497564
 20
7.073235
 30
0.0
  0
VERTEX
  5
127
  8
THROUGH_CUT
 10
5.53559497564
 20
7.085159
 30
0.0
  0
VERTEX
  5
128
  8
THROUGH_CUT
 10
5.50540297564
 20
7.10259
 30
0.0
  0
VERTEX
  5
129
  8
THROUGH_CUT
 10
5.47869697564
 20
7.124999
 30
0.0
  0
VERTEX
  5
12A
  8
THROUGH_CUT
 10
4.49974297564
 20
7.124999
 30
0.0
 42
0.4142135623729997
  0
VERTEX
  5
12B
  8
THROUGH_CUT
 10
3.99974297564
 20
6.624999
 30
0.0
  0
VERTEX
  5
12C
  8
THROUGH_CUT
 10
3.99974297564
 20
3.624999
 30
0.0
 42
0.4142135623730001
  0
VERTEX
  5
12D
  8
THROUGH_CUT
 10
4.49974297564
 20
3.124999
 30
0.0
  0
VERTEX
  5
12E
  8
THROUGH_CUT
 10
5.47869697564
 20
3.124999
 30
0.0
  0
VERTEX
  5
12F
  8
THROUGH_CUT
 10
5.50390297564
 20
3.146347
 30
0.0
  0
VERTEX
  5
130
  8
THROUGH_CUT
 10
5.53227897564
 20
3.163256
 30
0.0
  0
VERTEX
  5
131
  8
THROUGH_CUT
 10
5.56305097564
 20
3.175263
 30
0.0
  0
VERTEX
  5
132
  8
THROUGH_CUT
 10
5.59537997564
 20
3.182041
 30
0.0
  0
VERTEX
  5
133
  8
THROUGH_CUT
 10
5.62838397564
 20
3.183406
 30
0.0
  0
VERTEX
  5
134
  8
THROUGH_CUT
 10
5.66116197564
 20
3.17932
 30
0.0
  0
VERTEX
  5
135
  8
THROUGH_CUT
 10
5.69281997564
 20
3.169895
 30
0.0
  0
VERTEX
  5
136
  8
THROUGH_CUT
 10
5.72249597564
 20
3.155388
 30
0.0
  0
VERTEX
  5
137
  8
THROUGH_CUT
 10
5.74937797564
 20
3.136194
 30
0.0
  0
VERTEX
  5
138
  8
THROUGH_CUT
 10
5.77273497564
 20
3.112837
 30
0.0
  0
VERTEX
  5
139
  8
THROUGH_CUT
 10
5.79192897564
 20
3.085954
 30
0.0
  0
VERTEX
  5
13A
  8
THROUGH_CUT
 10
5.80643597564
 20
3.056278
 30
0.0
  0
VERTEX
  5
13B
  8
THROUGH_CUT
 10
5.81586197564
 20
3.02462
 30
0.0
  0
VERTEX
  5
13C
  8
THROUGH_CUT
 10
5.81994697564
 20
2.991842
 30
0.0
  0
VERTEX
  5
13D
  8
THROUGH_CUT
 10
5.81858197564
 20
2.958838
 30
0.0
  0
VERTEX
  5
13E
  8
THROUGH_CUT
 10
5.81180397564
 20
2.92651
 30
0.0
  0
VERTEX
  5
13F
  8
THROUGH_CUT
 10
5.79979597564
 20
2.895738
 30
0.0
  0
VERTEX
  5
140
  8
THROUGH_CUT
 10
5.78288797564
 20
2.867362
 30
0.0
  0
VERTEX
  5
141
  8
THROUGH_CUT
 10
5.76153897564
 20
2.842156
 30
0.0
  0
VERTEX
  5
142
  8
THROUGH_CUT
 10
5.76153897564
 20
2.124999
 30
0.0
  0
VERTEX
  5
143
  8
THROUGH_CUT
 10
85.27962097564
 20
2.124998
 30
0.0
  0
VERTEX
  5
144
  8
THROUGH_CUT
 10
91.944629114889
 20
4.192289122274
 30
0.0
 42
0.7368231252249993
  0
VERTEX
  5
145
  8
THROUGH_CUT
 10
91.94464599146
 20
7.057615779504
 30
0.0
  0
VERTEX
  5
146
  8
THROUGH_CUT
 10
85.27962097564
 20
9.124999
 30
0.0
  0
VERTEX
  5
147
  8
THROUGH_CUT
 10
74.65462097564
 20
9.124999
 30
0.0
  0
VERTEX
  5
148
  8
THROUGH_CUT
 10
74.65462097564
 20
5.524999
 30
0.0
  0
VERTEX
  5
149
  8
THROUGH_CUT
 10
74.68753997564
 20
5.522271
 30
0.0
  0
VERTEX
  5
14A
  8
THROUGH_CUT
 10
74.71956097564
 20
5.514162
 30
0.0
  0
VERTEX
  5
14B
  8
THROUGH_CUT
 10
74.74980997564
 20
5.500894
 30
0.0
  0
VERTEX
  5
14C
  8
THROUGH_CUT
 10
74.77746297564
 20
5.482827
 30
0.0
  0
VERTEX
  5
14D
  8
THROUGH_CUT
 10
74.80176597564
 20
5.460455
 30
0.0
  0
VERTEX
  5
14E
  8
THROUGH_CUT
 10
74.82205397564
 20
5.434388
 30
0.0
  0
VERTEX
  5
14F
  8
THROUGH_CUT
 10
74.83777597564
 20
5.405338
 30
0.0
  0
VERTEX
  5
150
  8
THROUGH_CUT
 10
74.84850097564
 20
5.374096
 30
0.0
  0
VERTEX
  5
151
  8
THROUGH_CUT
 10
74.85393797564
 20
5.341515
 30
0.0
  0
VERTEX
  5
152
  8
THROUGH_CUT
 10
74.85393797564
 20
5.308483
 30
0.0
  0
VERTEX
  5
153
  8
THROUGH_CUT
 10
74.84850097564
 20
5.275902
 30
0.0
  0
VERTEX
  5
154
  8
THROUGH_CUT
 10
74.83777597564
 20
5.24466
 30
0.0
  0
VERTEX
  5
155
  8
THROUGH_CUT
 10
74.82205397564
 20
5.215609
 30
0.0
  0
VERTEX
  5
156
  8
THROUGH_CUT
 10
74.80176597564
 20
5.189542
 30
0.0
  0
VERTEX
  5
157
  8
THROUGH_CUT
 10
74.77746297564
 20
5.167171
 30
0.0
  0
VERTEX
  5
158
  8
THROUGH_CUT
 10
74.74980997564
 20
5.149104
 30
0.0
  0
VERTEX
  5
159
  8
THROUGH_CUT
 10
74.71956097564
 20
5.135835
 30
0.0
  0
VERTEX
  5
15A
  8
THROUGH_CUT
 10
74.68753997564
 20
5.127727
 30
0.0
  0
VERTEX
  5
15B
  8
THROUGH_CUT
 10
74.65462097564
 20
5.124999
 30
0.0
  0
VERTEX
  5
15C
  8
THROUGH_CUT
 10
73.90462097564
 20
5.124999
 30
0.0
  0
VERTEX
  5
15D
  8
THROUGH_CUT
 10
73.87170197564
 20
5.127727
 30
0.0
  0
VERTEX
  5
15E
  8
THROUGH_CUT
 10
73.83968097564
 20
5.135835
 30
0.0
  0
VERTEX
  5
15F
  8
THROUGH_CUT
 10
73.80943097564
 20
5.149104
 30
0.0
  0
VERTEX
  5
160
  8
THROUGH_CUT
 10
73.78177797564
 20
5.167171
 30
0.0
  0
VERTEX
  5
161
  8
THROUGH_CUT
 10
73.75747597564
 20
5.189542
 30
0.0
  0
VERTEX
  5
162
  8
THROUGH_CUT
 10
73.73718797564
 20
5.215609
 30
0.0
  0
VERTEX
  5
163
  8
THROUGH_CUT
 10
73.72146597564
 20
5.24466
 30
0.0
  0
VERTEX
  5
164
  8
THROUGH_CUT
 10
73.71074097564
 20
5.275902
 30
0.0
  0
VERTEX
  5
165
  8
THROUGH_CUT
 10
73.70530397564
 20
5.308483
 30
0.0
  0
VERTEX
  5
166
  8
THROUGH_CUT
 10
73.70530397564
 20
5.341515
 30
0.0
  0
VERTEX
  5
167
  8
THROUGH_CUT
 10
73.71074097564
 20
5.374096
 30
0.0
  0
VERTEX
  5
168
  8
THROUGH_CUT
 10
73.72146597564
 20
5.405338
 30
0.0
  0
VERTEX
  5
169
  8
THROUGH_CUT
 10
73.73718797564
 20
5.434388
 30
0.0
  0
VERTEX
  5
16A
  8
THROUGH_CUT
 10
73.75747597564
 20
5.460455
 30
0.0
  0
VERTEX
  5
16B
  8
THROUGH_CUT
 10
73.78177797564
 20
5.482827
 30
0.0
  0
VERTEX
  5
16C
  8
THROUGH_CUT
 10
73.80943097564
 20
5.500894
 30
0.0
  0
VERTEX
  5
16D
  8
THROUGH_CUT
 10
73.83968097564
 20
5.514162
 30
0.0
  0
VERTEX
  5
16E
  8
THROUGH_CUT
 10
73.87170197564
 20
5.522271
 30
0.0
  0
VERTEX
  5
16F
  8
THROUGH_CUT
 10
73.90462097564
 20
5.524999
 30
0.0
  0
SEQEND
  5
170
  8
THROUGH_CUT
  0
POLYLINE
  5
48
  8
THROUGH_CUT
 66
     1
 10
0.0
 20
0.0
 30
0.0
 70
     1
  0
VERTEX
  5
171
  8
THROUGH_CUT
 10
5.038300314253902
 20
46.11417692006265
 30
0.0
  0
VERTEX
  5
172
  8
THROUGH_CUT
 10
5.038300314253902
 20
30.61417692006265
 30
0.0
  0
VERTEX
  5
173
  8
THROUGH_CUT
 10
5.788300314253888
 20
30.61417692006265
 30
0.0
 42
-1.0
  0
VERTEX
  5
174
  8
THROUGH_CUT
 10
5.788300314253888
 20
30.23417692006266
 30
0.0
  0
VERTEX
  5
175
  8
THROUGH_CUT
 10
5.788300314253888
 20
27.99417692006265
 30
0.0
 42
-1.0
  0
VERTEX
  5
176
  8
THROUGH_CUT
 10
5.788300314253888
 20
27.61417692006265
 30
0.0
  0
VERTEX
  5
177
  8
THROUGH_CUT
 10
5.038300314253902
 20
27.61417692006265
 30
0.0
  0
VERTEX
  5
178
  8
THROUGH_CUT
 10
5.038300314253902
 20
12.23917692006265
 30
0.0
  0
VERTEX
  5
179
  8
THROUGH_CUT
 10
16.03330031425389
 20
12.23917692006265
 30
0.0
 42
-1.0
  0
VERTEX
  5
17A
  8
THROUGH_CUT
 10
16.41330031425389
 20
12.23917692006265
 30
0.0
  0
VERTEX
  5
17B
  8
THROUGH_CUT
 10
16.41330031425389
 20
11.48917692006265
 30
0.0
  0
VERTEX
  5
17C
  8
THROUGH_CUT
 10
27.41330031425389
 20
11.48917692006265
 30
0.0
  0
VERTEX
  5
17D
  8
THROUGH_CUT
 10
38.4133003142539
 20
11.48917692006265
 30
0.0
  0
VERTEX
  5
17E
  8
THROUGH_CUT
 10
38.4133003142539
 20
12.23917692006265
 30
0.0
 42
-1.0
  0
VERTEX
  5
17F
  8
THROUGH_CUT
 10
38.7933003142539
 20
12.23917692006265
 30
0.0
  0
VERTEX
  5
180
  8
THROUGH_CUT
 10
49.4133003142539
 20
12.23917692006265
 30
0.0
  0
VERTEX
  5
181
  8
THROUGH_CUT
 10
60.03330031425391
 20
12.23917692006265
 30
0.0
 42
-1.0
  0
VERTEX
  5
182
  8
THROUGH_CUT
 10
60.4133003142539
 20
12.23917692006265
 30
0.0
  0
VERTEX
  5
183
  8
THROUGH_CUT
 10
60.4133003142539
 20
11.48917692006265
 30
0.0
  0
VERTEX
  5
184
  8
THROUGH_CUT
 10
74.38830031425391
 20
11.48917692006265
 30
0.0
  0
VERTEX
  5
185
  8
THROUGH_CUT
 10
82.4133003142539
 20
11.48917692006265
 30
0.0
  0
VERTEX
  5
186
  8
THROUGH_CUT
 10
82.4133003142539
 20
12.23917692006265
 30
0.0
 42
-1.0
  0
VERTEX
  5
187
  8
THROUGH_CUT
 10
82.79330031425391
 20
12.23917692006265
 30
0.0
  0
VERTEX
  5
188
  8
THROUGH_CUT
 10
93.78830031425389
 20
12.23917692006265
 30
0.0
  0
VERTEX
  5
189
  8
THROUGH_CUT
 10
93.7883003142539
 20
18.80167692006265
 30
0.0
  0
VERTEX
  5
18A
  8
THROUGH_CUT
 10
93.0383003142539
 20
18.80167692006265
 30
0.0
 42
-1.0
  0
VERTEX
  5
18B
  8
THROUGH_CUT
 10
93.0383003142539
 20
19.18167692006265
 30
0.0
  0
VERTEX
  5
18C
  8
THROUGH_CUT
 10
93.0383003142539
 20
25.23417692006266
 30
0.0
 42
-1.0
  0
VERTEX
  5
18D
  8
THROUGH_CUT
 10
93.0383003142539
 20
25.61417692006265
 30
0.0
  0
VERTEX
  5
18E
  8
THROUGH_CUT
 10
93.4133003142539
 20
25.61417692006265
 30
0.0
  0
VERTEX
  5
18F
  8
THROUGH_CUT
 10
93.4133003142539
 20
27.61417692006265
 30
0.0
  0
VERTEX
  5
190
  8
THROUGH_CUT
 10
93.0383003142539
 20
27.61417692006265
 30
0.0
 42
-1.0
  0
VERTEX
  5
191
  8
THROUGH_CUT
 10
93.0383003142539
 20
27.99417692006265
 30
0.0
  0
VERTEX
  5
192
  8
THROUGH_CUT
 10
93.0383003142539
 20
30.23417692006266
 30
0.0
 42
-1.0
  0
VERTEX
  5
193
  8
THROUGH_CUT
 10
93.0383003142539
 20
30.61417692006265
 30
0.0
  0
VERTEX
  5
194
  8
THROUGH_CUT
 10
93.4133003142539
 20
30.61417692006265
 30
0.0
  0
VERTEX
  5
195
  8
THROUGH_CUT
 10
93.4133003142539
 20
32.61417692006265
 30
0.0
  0
VERTEX
  5
196
  8
THROUGH_CUT
 10
93.0383003142539
 20
32.61417692006265
 30
0.0
 42
-1.0
  0
VERTEX
  5
197
  8
THROUGH_CUT
 10
93.0383003142539
 20
32.99417692006264
 30
0.0
  0
VERTEX
  5
198
  8
THROUGH_CUT
 10
93.0383003142539
 20
39.04667692006265
 30
0.0
 42
-1.0
  0
VERTEX
  5
199
  8
THROUGH_CUT
 10
93.0383003142539
 20
39.42667692006265
 30
0.0
  0
VERTEX
  5
19A
  8
THROUGH_CUT
 10
93.7883003142539
 20
39.42667692006265
 30
0.0
  0
VERTEX
  5
19B
  8
THROUGH_CUT
 10
93.7883003142539
 20
46.11417692006265
 30
0.0
  0
SEQEND
  5
19C
  8
THROUGH_CUT
  0
POLYLINE
  5
4A
  8
CUT_HALFWAY_THROUGH
 66
     1
 10
0.0
 20
0.0
 30
0.0
  0
VERTEX
  5
19D
  8
CUT_HALFWAY_THROUGH
 10
85.42288697564
 20
8.973125
 30
0.0
  0
VERTEX
  5
19E
  8
CUT_HALFWAY_THROUGH
 10
78.670148027486
 20
6.878533895459
 30
0.0
 42
0.7368230982960051
  0
VERTEX
  5
19F
  8
CUT_HALFWAY_THROUGH
 10
78.670162922628
 20
4.371371810735
 30
0.0
  0
VERTEX
  5
1A0
  8
CUT_HALFWAY_THROUGH
 10
85.42288797564
 20
2.276873
 30
0.0
  0
VERTEX
  5
1A1
  8
CUT_HALFWAY_THROUGH
 10
85.32737597564
 20
2.336122
 30
0.0
  0
VERTEX
  5
1A2
  8
CUT_HALFWAY_THROUGH
 10
91.889082891467
 20
4.371372791684
 30
0.0
 42
0.7368231252250029
  0
VERTEX
  5
1A3
  8
CUT_HALFWAY_THROUGH
 10
91.889097720966
 20
6.878532934872
 30
0.0
  0
VERTEX
  5
1A4
  8
CUT_HALFWAY_THROUGH
 10
85.32737597564
 20
8.913873
 30
0.0
  0
VERTEX
  5
1A5
  8
CUT_HALFWAY_THROUGH
 10
85.32737597564
 20
8.599772
 30
0.0
  0
VERTEX
  5
1A6
  8
CUT_HALFWAY_THROUGH
 10
91.800219888176
 20
6.59200078346
 30
0.0
 42
-0.7368231252250046
  0
VERTEX
  5
1A7
  8
CUT_HALFWAY_THROUGH
 10
91.800208233993
 20
4.65790596274
 30
0.0
  0
VERTEX
  5
1A8
  8
CUT_HALFWAY_THROUGH
 10
85.27962097564
 20
2.635409
 30
0.0
  0
VERTEX
  5
1A9
  8
CUT_HALFWAY_THROUGH
 10
78.759037077602
 20
4.657904982567
 30
0.0
 42
-0.7368230982959912
  0
VERTEX
  5
1AA
  8
CUT_HALFWAY_THROUGH
 10
78.759025872779
 20
6.592001747926
 30
0.0
  0
VERTEX
  5
1AB
  8
CUT_HALFWAY_THROUGH
 10
85.27962097564
 20
8.614585
 30
0.0
  0
VERTEX
  5
1AC
  8
CUT_HALFWAY_THROUGH
 10
85.27962097564
 20
8.300484
 30
0.0
  0
VERTEX
  5
1AD
  8
CUT_HALFWAY_THROUGH
 10
78.847903218071
 20
6.305469100392
 30
0.0
 42
0.7368230982960071
  0
VERTEX
  5
1AE
  8
CUT_HALFWAY_THROUGH
 10
78.847911489513
 20
4.944438308798
 30
0.0
  0
VERTEX
  5
1AF
  8
CUT_HALFWAY_THROUGH
 10
85.27962097564
 20
2.949509
 30
0.0
  0
VERTEX
  5
1B0
  8
CUT_HALFWAY_THROUGH
 10
91.711334076518
 20
4.944439633797
 30
0.0
 42
0.7368231252249986
  0
VERTEX
  5
1B1
  8
CUT_HALFWAY_THROUGH
 10
91.711342135133
 20
6.305468264097
 30
0.0
  0
VERTEX
  5
1B2
  8
CUT_HALFWAY_THROUGH
 10
85.32737597564
 20
8.285671
 30
0.0
  0
VERTEX
  5
1B3
  8
CUT_HALFWAY_THROUGH
 10
85.32737597564
 20
7.971571
 30
0.0
  0
VERTEX
  5
1B4
  8
CUT_HALFWAY_THROUGH
 10
91.622464222597
 20
6.018935980637
 30
0.0
 42
-0.7368231252250123
  0
VERTEX
  5
1B5
  8
CUT_HALFWAY_THROUGH
 10
91.622459919044
 20
5.230972804853
 30
0.0
  0
VERTEX
  5
1B6
  8
CUT_HALFWAY_THROUGH
 10
85.27962097564
 20
3.263609
 30
0.0
  0
VERTEX
  5
1B7
  8
CUT_HALFWAY_THROUGH
 10
78.93678588755
 20
5.230971826231
 30
0.0
 42
-0.736823098295968
  0
VERTEX
  5
1B8
  8
CUT_HALFWAY_THROUGH
 10
78.936781063363
 20
6.018936952859
 30
0.0
  0
VERTEX
  5
1B9
  8
CUT_HALFWAY_THROUGH
 10
85.27962097564
 20
7.986384
 30
0.0
  0
VERTEX
  5
1BA
  8
CUT_HALFWAY_THROUGH
 10
85.27962097564
 20
7.672283
 30
0.0
  0
VERTEX
  5
1BB
  8
CUT_HALFWAY_THROUGH
 10
79.025658908655
 20
5.732404805325
 30
0.0
 42
0.7368230982959841
  0
VERTEX
  5
1BC
  8
CUT_HALFWAY_THROUGH
 10
79.025660042525
 20
5.517504998063
 30
0.0
  0
VERTEX
  5
1BD
  8
CUT_HALFWAY_THROUGH
 10
85.27962097564
 20
3.577708
 30
0.0
  0
VERTEX
  5
1BE
  8
CUT_HALFWAY_THROUGH
 10
91.533585261569
 20
5.517505975909
 30
0.0
 42
0.7368231252247275
  0
VERTEX
  5
1BF
  8
CUT_HALFWAY_THROUGH
 10
91.533586889807
 20
5.732403829225
 30
0.0
  0
VERTEX
  5
1C0
  8
CUT_HALFWAY_THROUGH
 10
85.32737597564
 20
7.65747
 30
0.0
  0
VERTEX
  5
1C1
  8
CUT_HALFWAY_THROUGH
 10
85.32737597564
 20
7.343369
 30
0.0
  0
VERTEX
  5
1C2
  8
CUT_HALFWAY_THROUGH
 10
90.86734997564
 20
5.624959
 30
0.0
  0
VERTEX
  5
1C3
  8
CUT_HALFWAY_THROUGH
 10
85.27962097564
 20
3.891808
 30
0.0
  0
VERTEX
  5
1C4
  8
CUT_HALFWAY_THROUGH
 10
79.69189197564
 20
5.624959
 30
0.0
  0
VERTEX
  5
1C5
  8
CUT_HALFWAY_THROUGH
 10
85.27962097564
 20
7.358182
 30
0.0
  0
VERTEX
  5
1C6
  8
CUT_HALFWAY_THROUGH
 10
85.27962097564
 20
7.044082
 30
0.0
  0
VERTEX
  5
1C7
  8
CUT_HALFWAY_THROUGH
 10
80.70453897564
 20
5.624965
 30
0.0
  0
VERTEX
  5
1C8
  8
CUT_HALFWAY_THROUGH
 10
85.27962097564
 20
4.205907
 30
0.0
  0
VERTEX
  5
1C9
  8
CUT_HALFWAY_THROUGH
 10
89.85470297564
 20
5.624965
 30
0.0
  0
VERTEX
  5
1CA
  8
CUT_HALFWAY_THROUGH
 10
85.32737597564
 20
7.029269
 30
0.0
  0
VERTEX
  5
1CB
  8
CUT_HALFWAY_THROUGH
 10
85.32737597564
 20
6.715168
 30
0.0
  0
VERTEX
  5
1CC
  8
CUT_HALFWAY_THROUGH
 10
88.84205697564
 20
5.624971
 30
0.0
  0
VERTEX
  5
1CD
  8
CUT_HALFWAY_THROUGH
 10
85.27962097564
 20
4.520007
 30
0.0
  0
VERTEX
  5
1CE
  8
CUT_HALFWAY_THROUGH
 10
81.71718597564
 20
5.624971
 30
0.0
  0
VERTEX
  5
1CF
  8
CUT_HALFWAY_THROUGH
 10
85.27962097564
 20
6.729981
 30
0.0
  0
VERTEX
  5
1D0
  8
CUT_HALFWAY_THROUGH
 10
85.27962097564
 20
6.41588
 30
0.0
  0
VERTEX
  5
1D1
  8
CUT_HALFWAY_THROUGH
 10
82.72983197564
 20
5.624977
 30
0.0
  0
VERTEX
  5
1D2
  8
CUT_HALFWAY_THROUGH
 10
85.27962097564
 20
4.834106
 30
0.0
  0
VERTEX
  5
1D3
  8
CUT_HALFWAY_THROUGH
 10
87.82940997564
 20
5.624977
 30
0.0
  0
VERTEX
  5
1D4
  8
CUT_HALFWAY_THROUGH
 10
85.32737597564
 20
6.401067
 30
0.0
  0
VERTEX
  5
1D5
  8
CUT_HALFWAY_THROUGH
 10
85.32737597564
 20
6.086966
 30
0.0
  0
VERTEX
  5
1D6
  8
CUT_HALFWAY_THROUGH
 10
86.81676297564
 20
5.624983
 30
0.0
  0
VERTEX
  5
1D7
  8
CUT_HALFWAY_THROUGH
 10
85.27962097564
 20
5.148206
 30
0.0
  0
VERTEX
  5
1D8
  8
CUT_HALFWAY_THROUGH
 10
83.74247897564
 20
5.624983
 30
0.0
  0
VERTEX
  5
1D9
  8
CUT_HALFWAY_THROUGH
 10
85.27962097564
 20
6.101779
 30
0.0
  0
VERTEX
  5
1DA
  8
CUT_HALFWAY_THROUGH
 10
85.27962097564
 20
5.787679
 30
0.0
  0
VERTEX
  5
1DB
  8
CUT_HALFWAY_THROUGH
 10
84.75512597564
 20
5.624989
 30
0.0
  0
VERTEX
  5
1DC
  8
CUT_HALFWAY_THROUGH
 10
85.27962097564
 20
5.462306
 30
0.0
  0
VERTEX
  5
1DD
  8
CUT_HALFWAY_THROUGH
 10
85.80411597564
 20
5.624989
 30
0.0
  0
VERTEX
  5
1DE
  8
CUT_HALFWAY_THROUGH
 10
85.32737597564
 20
5.772866
 30
0.0
  0
VERTEX
  5
1DF
  8
CUT_HALFWAY_THROUGH
 10
91.50025797564
 20
5.624955
 30
0.0
  0
VERTEX
  5
1E0
  8
CUT_HALFWAY_THROUGH
 10
79.05898797564
 20
5.624955
 30
0.0
  0
SEQEND
  5
1E1
  8
CUT_HALFWAY_THROUGH
  0
POLYLINE
  5
4C
  8
RECESS_FOR_SCREWS
 66
     1
 10
0.0
 20
0.0
 30
0.0
 70
     1
  0
VERTEX
  5
1E2
  8
RECESS_FOR_SCREWS
 10
27.41330031425389
 20
34.68917692006266
 30
0.0
 42
0.4142135623730689
  0
VERTEX
  5
1E3
  8
RECESS_FOR_SCREWS
 10
27.2133003142539
 20
34.48917692006265
 30
0.0
 42
0.4142135623730898
  0
VERTEX
  5
1E4
  8
RECESS_FOR_SCREWS
 10
27.41330031425389
 20
34.28917692006266
 30
0.0
 42
0.4142135623730898
  0
VERTEX
  5
1E5
  8
RECESS_FOR_SCREWS
 10
27.61330031425389
 20
34.48917692006265
 30
0.0
 42
0.4142135623730689
  0
SEQEND
  5
1E6
  8
RECESS_FOR_SCREWS
  0
POLYLINE
  5
4D
  8
RECESS_FOR_SCREWS
 66
     1
 10
0.0
 20
0.0
 30
0.0
 70
     1
  0
VERTEX
  5
1E7
  8
RECESS_FOR_SCREWS
 10
27.41330031425389
 20
42.43917692006266
 30
0.0
 42
0.4142135623730689
  0
VERTEX
  5
1E8
  8
RECESS_FOR_SCREWS
 10
27.2133003142539
 20
42.23917692006265
 30
0.0
 42
0.4142135623730898
  0
VERTEX
  5
1E9
  8
RECESS_FOR_SCREWS
 10
27.41330031425389
 20
42.03917692006266
 30
0.0
 42
0.4142135623730898
  0
VERTEX
  5
1EA
  8
RECESS_FOR_SCREWS
 10
27.61330031425389
 20
42.23917692006265
 30
0.0
 42
0.4142135623730689
  0
SEQEND
  5
1EB
  8
RECESS_FOR_SCREWS
  0
POLYLINE
  5
4E
  8
RECESS_FOR_SCREWS
 66
     1
 10
0.0
 20
0.0
 30
0.0
 70
     1
  0
VERTEX
  5
1EC
  8
RECESS_FOR_SCREWS
 10
49.4133003142539
 20
42.43917692006266
 30
0.0
 42
0.4142135623731054
  0
VERTEX
  5
1ED
  8
RECESS_FOR_SCREWS
 10
49.2133003142539
 20
42.23917692006265
 30
0.0
 42
0.4142135623730951
  0
VERTEX
  5
1EE
  8
RECESS_FOR_SCREWS
 10
49.4133003142539
 20
42.03917692006266
 30
0.0
 42
0.4142135623731054
  0
VERTEX
  5
1EF
  8
RECESS_FOR_SCREWS
 10
49.61330031425391
 20
42.23917692006265
 30
0.0
 42
0.4142135623730951
  0
SEQEND
  5
1F0
  8
RECESS_FOR_SCREWS
  0
POLYLINE
  5
4F
  8
RECESS_FOR_SCREWS
 66
     1
 10
0.0
 20
0.0
 30
0.0
 70
     1
  0
VERTEX
  5
1F1
  8
RECESS_FOR_SCREWS
 10
49.4133003142539
 20
34.68917692006266
 30
0.0
 42
0.4142135623731054
  0
VERTEX
  5
1F2
  8
RECESS_FOR_SCREWS
 10
49.2133003142539
 20
34.48917692006265
 30
0.0
 42
0.4142135623730951
  0
VERTEX
  5
1F3
  8
RECESS_FOR_SCREWS
 10
49.4133003142539
 20
34.28917692006266
 30
0.0
 42
0.4142135623731054
  0
VERTEX
  5
1F4
  8
RECESS_FOR_SCREWS
 10
49.61330031425391
 20
34.48917692006265
 30
0.0
 42
0.4142135623730951
  0
SEQEND
  5
1F5
  8
RECESS_FOR_SCREWS
  0
POLYLINE
  5
50
  8
RECESS_FOR_SCREWS
 66
     1
 10
0.0
 20
0.0
 30
0.0
 70
     1
  0
VERTEX
  5
1F6
  8
RECESS_FOR_SCREWS
 10
71.4133003142539
 20
42.43917692006266
 30
0.0
 42
0.4142135623731054
  0
VERTEX
  5
1F7
  8
RECESS_FOR_SCREWS
 10
71.2133003142539
 20
42.23917692006265
 30
0.0
 42
0.4142135623730951
  0
VERTEX
  5
1F8
  8
RECESS_FOR_SCREWS
 10
71.4133003142539
 20
42.03917692006266
 30
0.0
 42
0.4142135623731054
  0
VERTEX
  5
1F9
  8
RECESS_FOR_SCREWS
 10
71.61330031425392
 20
42.23917692006265
 30
0.0
 42
0.4142135623730951
  0
SEQEND
  5
1FA
  8
RECESS_FOR_SCREWS
  0
POLYLINE
  5
51
  8
RECESS_FOR_SCREWS
 66
     1
 10
0.0
 20
0.0
 30
0.0
 70
     1
  0
VERTEX
  5
1FB
  8
RECESS_FOR_SCREWS
 10
71.4133003142539
 20
34.68917692006266
 30
0.0
 42
0.4142135623731054
  0
VERTEX
  5
1FC
  8
RECESS_FOR_SCREWS
 10
71.2133003142539
 20
34.48917692006265
 30
0.0
 42
0.4142135623730951
  0
VERTEX
  5
1FD
  8
RECESS_FOR_SCREWS
 10
71.4133003142539
 20
34.28917692006266
 30
0.0
 42
0.4142135623731054
  0
VERTEX
  5
1FE
  8
RECESS_FOR_SCREWS
 10
71.61330031425392
 20
34.48917692006265
 30
0.0
 42
0.4142135623730951
  0
SEQEND
  5
1FF
  8
RECESS_FOR_SCREWS
  0
POLYLINE
  5
52
  8
RECESS_FOR_SCREWS
 66
     1
 10
0.0
 20
0.0
 30
0.0
 70
     1
  0
VERTEX
  5
200
  8
RECESS_FOR_SCREWS
 10
5.413300314253888
 20
23.97042692006264
 30
0.0
 42
0.4142135623730872
  0
VERTEX
  5
201
  8
RECESS_FOR_SCREWS
 10
5.2133003142539
 20
23.77042692006265
 30
0.0
 42
0.4142135623730872
  0
VERTEX
  5
202
  8
RECESS_FOR_SCREWS
 10
5.413300314253888
 20
23.57042692006266
 30
0.0
 42
0.414213562373086
  0
VERTEX
  5
203
  8
RECESS_FOR_SCREWS
 10
5.613300314253891
 20
23.77042692006265
 30
0.0
 42
0.414213562373086
  0
SEQEND
  5
204
  8
RECESS_FOR_SCREWS
  0
POLYLINE
  5
53
  8
RECESS_FOR_SCREWS
 66
     1
 10
0.0
 20
0.0
 30
0.0
 70
     1
  0
VERTEX
  5
205
  8
RECESS_FOR_SCREWS
 10
5.413300314253888
 20
16.28292692006264
 30
0.0
 42
0.4142135623730951
  0
VERTEX
  5
206
  8
RECESS_FOR_SCREWS
 10
5.2133003142539
 20
16.08292692006265
 30
0.0
 42
0.4142135623730976
  0
VERTEX
  5
207
  8
RECESS_FOR_SCREWS
 10
5.413300314253888
 20
15.88292692006266
 30
0.0
 42
0.4142135623730963
  0
VERTEX
  5
208
  8
RECESS_FOR_SCREWS
 10
5.613300314253891
 20
16.08292692006265
 30
0.0
 42
0.4142135623730938
  0
SEQEND
  5
209
  8
RECESS_FOR_SCREWS
  0
POLYLINE
  5
54
  8
RECESS_FOR_SCREWS
 66
     1
 10
0.0
 20
0.0
 30
0.0
 70
     1
  0
VERTEX
  5
20A
  8
RECESS_FOR_SCREWS
 10
21.91330031425389
 20
12.06417692006264
 30
0.0
 42
0.4142135623730872
  0
VERTEX
  5
20B
  8
RECESS_FOR_SCREWS
 10
21.7133003142539
 20
11.86417692006265
 30
0.0
 42
0.4142135623730951
  0
VERTEX
  5
20C
  8
RECESS_FOR_SCREWS
 10
21.91330031425389
 20
11.66417692006266
 30
0.0
 42
0.4142135623730951
  0
VERTEX
  5
20D
  8
RECESS_FOR_SCREWS
 10
22.11330031425389
 20
11.86417692006265
 30
0.0
 42
0.4142135623730872
  0
SEQEND
  5
20E
  8
RECESS_FOR_SCREWS
  0
POLYLINE
  5
55
  8
RECESS_FOR_SCREWS
 66
     1
 10
0.0
 20
0.0
 30
0.0
 70
     1
  0
VERTEX
  5
20F
  8
RECESS_FOR_SCREWS
 10
32.9133003142539
 20
12.06417692006264
 30
0.0
 42
0.4142135623730976
  0
VERTEX
  5
210
  8
RECESS_FOR_SCREWS
 10
32.7133003142539
 20
11.86417692006265
 30
0.0
 42
0.4142135623730951
  0
VERTEX
  5
211
  8
RECESS_FOR_SCREWS
 10
32.9133003142539
 20
11.66417692006266
 30
0.0
 42
0.4142135623730951
  0
VERTEX
  5
212
  8
RECESS_FOR_SCREWS
 10
33.11330031425391
 20
11.86417692006265
 30
0.0
 42
0.4142135623730976
  0
SEQEND
  5
213
  8
RECESS_FOR_SCREWS
  0
POLYLINE
  5
56
  8
RECESS_FOR_SCREWS
 66
     1
 10
0.0
 20
0.0
 30
0.0
 70
     1
  0
VERTEX
  5
214
  8
RECESS_FOR_SCREWS
 10
27.41330031425389
 20
15.72042692006264
 30
0.0
 42
0.4142135623730872
  0
VERTEX
  5
215
  8
RECESS_FOR_SCREWS
 10
27.2133003142539
 20
15.52042692006265
 30
0.0
 42
0.4142135623730951
  0
VERTEX
  5
216
  8
RECESS_FOR_SCREWS
 10
27.41330031425389
 20
15.32042692006266
 30
0.0
 42
0.4142135623730951
  0
VERTEX
  5
217
  8
RECESS_FOR_SCREWS
 10
27.61330031425389
 20
15.52042692006265
 30
0.0
 42
0.4142135623730872
  0
SEQEND
  5
218
  8
RECESS_FOR_SCREWS
  0
POLYLINE
  5
57
  8
RECESS_FOR_SCREWS
 66
     1
 10
0.0
 20
0.0
 30
0.0
 70
     1
  0
VERTEX
  5
219
  8
RECESS_FOR_SCREWS
 10
27.41330031425389
 20
23.78292692006264
 30
0.0
 42
0.4142135623730951
  0
VERTEX
  5
21A
  8
RECESS_FOR_SCREWS
 10
27.2133003142539
 20
23.58292692006265
 30
0.0
 42
0.4142135623730951
  0
VERTEX
  5
21B
  8
RECESS_FOR_SCREWS
 10
27.41330031425389
 20
23.38292692006266
 30
0.0
 42
0.4142135623730951
  0
VERTEX
  5
21C
  8
RECESS_FOR_SCREWS
 10
27.61330031425389
 20
23.58292692006265
 30
0.0
 42
0.4142135623730951
  0
SEQEND
  5
21D
  8
RECESS_FOR_SCREWS
  0
POLYLINE
  5
58
  8
RECESS_FOR_SCREWS
 66
     1
 10
0.0
 20
0.0
 30
0.0
 70
     1
  0
VERTEX
  5
21E
  8
RECESS_FOR_SCREWS
 10
49.4133003142539
 20
23.97042692006264
 30
0.0
 42
0.4142135623730898
  0
VERTEX
  5
21F
  8
RECESS_FOR_SCREWS
 10
49.2133003142539
 20
23.77042692006265
 30
0.0
 42
0.4142135623730898
  0
VERTEX
  5
220
  8
RECESS_FOR_SCREWS
 10
49.4133003142539
 20
23.57042692006266
 30
0.0
 42
0.4142135623730689
  0
VERTEX
  5
221
  8
RECESS_FOR_SCREWS
 10
49.61330031425391
 20
23.77042692006265
 30
0.0
 42
0.4142135623730689
  0
SEQEND
  5
222
  8
RECESS_FOR_SCREWS
  0
POLYLINE
  5
59
  8
RECESS_FOR_SCREWS
 66
     1
 10
0.0
 20
0.0
 30
0.0
 70
     1
  0
VERTEX
  5
223
  8
RECESS_FOR_SCREWS
 10
49.4133003142539
 20
16.28292692006264
 30
0.0
 42
0.4142135623730976
  0
VERTEX
  5
224
  8
RECESS_FOR_SCREWS
 10
49.2133003142539
 20
16.08292692006265
 30
0.0
 42
0.4142135623730951
  0
VERTEX
  5
225
  8
RECESS_FOR_SCREWS
 10
49.4133003142539
 20
15.88292692006266
 30
0.0
 42
0.4142135623730951
  0
VERTEX
  5
226
  8
RECESS_FOR_SCREWS
 10
49.61330031425391
 20
16.08292692006265
 30
0.0
 42
0.4142135623730976
  0
SEQEND
  5
227
  8
RECESS_FOR_SCREWS
  0
POLYLINE
  5
5A
  8
RECESS_FOR_SCREWS
 66
     1
 10
0.0
 20
0.0
 30
0.0
 70
     1
  0
VERTEX
  5
228
  8
RECESS_FOR_SCREWS
 10
63.2570503142539
 20
12.06417692006264
 30
0.0
 42
0.4142135623730976
  0
VERTEX
  5
229
  8
RECESS_FOR_SCREWS
 10
63.0570503142539
 20
11.86417692006265
 30
0.0
 42
0.4142135623730951
  0
VERTEX
  5
22A
  8
RECESS_FOR_SCREWS
 10
63.2570503142539
 20
11.66417692006266
 30
0.0
 42
0.4142135623730951
  0
VERTEX
  5
22B
  8
RECESS_FOR_SCREWS
 10
63.45705031425392
 20
11.86417692006265
 30
0.0
 42
0.4142135623730976
  0
SEQEND
  5
22C
  8
RECESS_FOR_SCREWS
  0
POLYLINE
  5
5B
  8
RECESS_FOR_SCREWS
 66
     1
 10
0.0
 20
0.0
 30
0.0
 70
     1
  0
VERTEX
  5
22D
  8
RECESS_FOR_SCREWS
 10
71.3445503142539
 20
12.06417692006264
 30
0.0
 42
0.4142135623730976
  0
VERTEX
  5
22E
  8
RECESS_FOR_SCREWS
 10
71.14455031425389
 20
11.86417692006265
 30
0.0
 42
0.4142135623730951
  0
VERTEX
  5
22F
  8
RECESS_FOR_SCREWS
 10
71.3445503142539
 20
11.66417692006266
 30
0.0
 42
0.4142135623730951
  0
VERTEX
  5
230
  8
RECESS_FOR_SCREWS
 10
71.5445503142539
 20
11.86417692006265
 30
0.0
 42
0.4142135623730976
  0
SEQEND
  5
231
  8
RECESS_FOR_SCREWS
  0
POLYLINE
  5
5C
  8
RECESS_FOR_SCREWS
 66
     1
 10
0.0
 20
0.0
 30
0.0
 70
     1
  0
VERTEX
  5
232
  8
RECESS_FOR_SCREWS
 10
93.4133003142539
 20
15.34542692006264
 30
0.0
 42
0.4142135623730976
  0
VERTEX
  5
233
  8
RECESS_FOR_SCREWS
 10
93.2133003142539
 20
15.14542692006265
 30
0.0
 42
0.4142135623730951
  0
VERTEX
  5
234
  8
RECESS_FOR_SCREWS
 10
93.4133003142539
 20
14.94542692006266
 30
0.0
 42
0.4142135623730951
  0
VERTEX
  5
235
  8
RECESS_FOR_SCREWS
 10
93.6133003142539
 20
15.14542692006265
 30
0.0
 42
0.4142135623730976
  0
SEQEND
  5
236
  8
RECESS_FOR_SCREWS
  0
POLYLINE
  5
5D
  8
RECESS_FOR_SCREWS
 66
     1
 10
0.0
 20
0.0
 30
0.0
 70
     1
  0
VERTEX
  5
237
  8
RECESS_FOR_SCREWS
 10
93.4133003142539
 20
23.77052692006265
 30
0.0
 42
0.4142135623730951
  0
VERTEX
  5
238
  8
RECESS_FOR_SCREWS
 10
93.4132003142539
 20
23.77042692006265
 30
0.0
 42
0.4142135623730951
  0
VERTEX
  5
239
  8
RECESS_FOR_SCREWS
 10
93.4133003142539
 20
23.77032692006265
 30
0.0
 42
0.4142135623730951
  0
VERTEX
  5
23A
  8
RECESS_FOR_SCREWS
 10
93.41340031425389
 20
23.77042692006265
 30
0.0
 42
0.4142135623730951
  0
SEQEND
  5
23B
  8
RECESS_FOR_SCREWS
  0
POLYLINE
  5
5E
  8
RECESS_FOR_SCREWS
 66
     1
 10
0.0
 20
0.0
 30
0.0
 70
     1
  0
VERTEX
  5
23C
  8
RECESS_FOR_SCREWS
 10
93.4133003142539
 20
16.08302692006265
 30
0.0
 42
0.4142135623730951
  0
VERTEX
  5
23D
  8
RECESS_FOR_SCREWS
 10
93.4132003142539
 20
16.08292692006265
 30
0.0
 42
0.4142135623730951
  0
VERTEX
  5
23E
  8
RECESS_FOR_SCREWS
 10
93.4133003142539
 20
16.08282692006265
 30
0.0
 42
0.4142135623730951
  0
VERTEX
  5
23F
  8
RECESS_FOR_SCREWS
 10
93.41340031425389
 20
16.08292692006265
 30
0.0
 42
0.4142135623730951
  0
SEQEND
  5
240
  8
RECESS_FOR_SCREWS
  0
POLYLINE
  5
5F
  8
RECESS_FOR_SCREWS
 66
     1
 10
0.0
 20
0.0
 30
0.0
 70
     1
  0
VERTEX
  5
241
  8
RECESS_FOR_SCREWS
 10
71.4133003142539
 20
23.97042692006264
 30
0.0
 42
0.4142135623730898
  0
VERTEX
  5
242
  8
RECESS_FOR_SCREWS
 10
71.2133003142539
 20
23.77042692006265
 30
0.0
 42
0.4142135623730898
  0
VERTEX
  5
243
  8
RECESS_FOR_SCREWS
 10
71.4133003142539
 20
23.57042692006266
 30
0.0
 42
0.4142135623730689
  0
VERTEX
  5
244
  8
RECESS_FOR_SCREWS
 10
71.61330031425392
 20
23.77042692006265
 30
0.0
 42
0.4142135623730689
  0
SEQEND
  5
245
  8
RECESS_FOR_SCREWS
  0
POLYLINE
  5
60
  8
RECESS_FOR_SCREWS
 66
     1
 10
0.0
 20
0.0
 30
0.0
 70
     1
  0
VERTEX
  5
246
  8
RECESS_FOR_SCREWS
 10
71.4133003142539
 20
16.28292692006264
 30
0.0
 42
0.4142135623730976
  0
VERTEX
  5
247
  8
RECESS_FOR_SCREWS
 10
71.2133003142539
 20
16.08292692006265
 30
0.0
 42
0.4142135623730951
  0
VERTEX
  5
248
  8
RECESS_FOR_SCREWS
 10
71.4133003142539
 20
15.88292692006266
 30
0.0
 42
0.4142135623730951
  0
VERTEX
  5
249
  8
RECESS_FOR_SCREWS
 10
71.61330031425392
 20
16.08292692006265
 30
0.0
 42
0.4142135623730976
  0
SEQEND
  5
24A
  8
RECESS_FOR_SCREWS
  0
POLYLINE
  5
61
  8
RECESS_FOR_SCREWS
 66
     1
 10
0.0
 20
0.0
 30
0.0
 70
     1
  0
VERTEX
  5
24B
  8
RECESS_FOR_SCREWS
 10
79.8445503142539
 20
12.06417692006264
 30
0.0
 42
0.4142135623730976
  0
VERTEX
  5
24C
  8
RECESS_FOR_SCREWS
 10
79.64455031425389
 20
11.86417692006265
 30
0.0
 42
0.4142135623730951
  0
VERTEX
  5
24D
  8
RECESS_FOR_SCREWS
 10
79.8445503142539
 20
11.66417692006266
 30
0.0
 42
0.4142135623730951
  0
VERTEX
  5
24E
  8
RECESS_FOR_SCREWS
 10
80.0445503142539
 20
11.86417692006265
 30
0.0
 42
0.4142135623730976
  0
SEQEND
  5
24F
  8
RECESS_FOR_SCREWS
  0
POLYLINE
  5
62
  8
RECESS_FOR_SCREWS
 66
     1
 10
0.0
 20
0.0
 30
0.0
 70
     1
  0
VERTEX
  5
250
  8
RECESS_FOR_SCREWS
 10
5.413300314253888
 20
42.43917692006266
 30
0.0
 42
0.4142135623730951
  0
VERTEX
  5
251
  8
RECESS_FOR_SCREWS
 10
5.2133003142539
 20
42.23917692006265
 30
0.0
 42
0.4142135623730951
  0
VERTEX
  5
252
  8
RECESS_FOR_SCREWS
 10
5.413300314253888
 20
42.03917692006266
 30
0.0
 42
0.4142135623730938
  0
VERTEX
  5
253
  8
RECESS_FOR_SCREWS
 10
5.613300314253891
 20
42.23917692006265
 30
0.0
 42
0.4142135623730938
  0
SEQEND
  5
254
  8
RECESS_FOR_SCREWS
  0
POLYLINE
  5
63
  8
RECESS_FOR_SCREWS
 66
     1
 10
0.0
 20
0.0
 30
0.0
 70
     1
  0
VERTEX
  5
255
  8
RECESS_FOR_SCREWS
 10
5.413300314253888
 20
34.68917692006266
 30
0.0
 42
0.4142135623730951
  0
VERTEX
  5
256
  8
RECESS_FOR_SCREWS
 10
5.2133003142539
 20
34.48917692006265
 30
0.0
 42
0.4142135623730951
  0
VERTEX
  5
257
  8
RECESS_FOR_SCREWS
 10
5.413300314253888
 20
34.28917692006266
 30
0.0
 42
0.4142135623730938
  0
VERTEX
  5
258
  8
RECESS_FOR_SCREWS
 10
5.613300314253891
 20
34.48917692006265
 30
0.0
 42
0.4142135623730938
  0
SEQEND
  5
259
  8
RECESS_FOR_SCREWS
  0
POLYLINE
  5
64
  8
RECESS_FOR_SCREWS
 66
     1
 10
0.0
 20
0.0
 30
0.0
 70
     1
  0
VERTEX
  5
25A
  8
RECESS_FOR_SCREWS
 10
93.4133003142539
 20
42.97068562888666
 30
0.0
 42
0.4142135623730951
  0
VERTEX
  5
25B
  8
RECESS_FOR_SCREWS
 10
93.21304160542991
 20
42.77042692006265
 30
0.0
 42
0.4142135623730223
  0
VERTEX
  5
25C
  8
RECESS_FOR_SCREWS
 10
93.4133003142539
 20
42.57016821123867
 30
0.0
 42
0.4142135623730223
  0
VERTEX
  5
25D
  8
RECESS_FOR_SCREWS
 10
93.6135590230779
 20
42.77042692006265
 30
0.0
 42
0.4142135623730951
  0
SEQEND
  5
25E
  8
RECESS_FOR_SCREWS
  0
POLYLINE
  5
66
  8
MARK_IN_POCKET
 66
     1
 10
0.0
 20
0.0
 30
0.0
 70
     1
  0
VERTEX
  5
25F
  8
MARK_IN_POCKET
 10
85.27962097564
 20
6.3749985
 30
0.0
 42
0.4142135623730951
  0
VERTEX
  5
260
  8
MARK_IN_POCKET
 10
84.52962097564
 20
5.6249985
 30
0.0
 42
0.4142135623730951
  0
VERTEX
  5
261
  8
MARK_IN_POCKET
 10
85.27962097564
 20
4.8749985
 30
0.0
 42
0.4142135623730951
  0
VERTEX
  5
262
  8
MARK_IN_POCKET
 10
86.02962097564
 20
5.6249985
 30
0.0
 42
0.4142135623730951
  0
SEQEND
  5
263
  8
MARK_IN_POCKET
  0
POLYLINE
  5
67
  8
MARK_IN_POCKET
 66
     1
 10
0.0
 20
0.0
 30
0.0
  0
VERTEX
  5
264
  8
MARK_IN_POCKET
 10
7.782632050134286
 20
17.66384959713519
 30
0.0
  0
VERTEX
  5
265
  8
MARK_IN_POCKET
 10
11.78263205013429
 20
16.15984959713519
 30
0.0
  0
VERTEX
  5
266
  8
MARK_IN_POCKET
 10
11.78263205013429
 20
16.04784959713519
 30
0.0
  0
VERTEX
  5
267
  8
MARK_IN_POCKET
 10
8.790632050134285
 20
14.92784959713519
 30
0.0
  0
VERTEX
  5
268
  8
MARK_IN_POCKET
 10
8.790632050134287
 20
17.26384959713519
 30
0.0
  0
VERTEX
  5
269
  8
MARK_IN_POCKET
 10
8.790632050134285
 20
14.92784959713519
 30
0.0
  0
VERTEX
  5
26A
  8
MARK_IN_POCKET
 10
7.782632050134286
 20
14.54384959713519
 30
0.0
  0
SEQEND
  5
26B
  8
MARK_IN_POCKET
  0
ENDSEC
  0
EOF
