  0
SECTION
  2
HEADER
  9
$ACADVER
  1
AC1009
  9
$DWGCODEPAGE
  3
ansi_1252
  9
$INSBASE
 10
0.0
 20
0.0
 30
0.0
  9
$EXTMIN
 10
3.382856
 20
1.059403
 30
0.0
  9
$EXTMAX
 10
92.5002570243601
 20
46.87500299999999
 30
0.0
  9
$LIMMIN
 10
0.0
 20
0.0
  9
$LIMMAX
 10
12.0
 20
9.0
  9
$ORTHOMODE
 70
     0
  9
$REGENMODE
 70
     1
  9
$FILLMODE
 70
     1
  9
$QTEXTMODE
 70
     0
  9
$MIRRTEXT
 70
     1
  9
$DRAGMODE
 70
     2
  9
$LTSCALE
 40
1.0
  9
$OSMODE
 70
    37
  9
$ATTMODE
 70
     1
  9
$TEXTSIZE
 40
0.2
  9
$TRACEWID
 40
0.05
  9
$TEXTSTYLE
  7
STANDARD
  9
$CLAYER
  8
0
  9
$CELTYPE
  6
BYLAYER
  9
$CECOLOR
 62
   256
  9
$DIMSCALE
 40
1.0
  9
$DIMASZ
 40
0.18
  9
$DIMEXO
 40
0.0625
  9
$DIMDLI
 40
0.38
  9
$DIMRND
 40
0.0
  9
$DIMDLE
 40
0.0
  9
$DIMEXE
 40
0.18
  9
$DIMTP
 40
0.0
  9
$DIMTM
 40
0.0
  9
$DIMTXT
 40
0.18
  9
$DIMCEN
 40
0.09
  9
$DIMTSZ
 40
0.0
  9
$DIMTOL
 70
     0
  9
$DIMLIM
 70
     0
  9
$DIMTIH
 70
     1
  9
$DIMTOH
 70
     1
  9
$DIMSE1
 70
     0
  9
$DIMSE2
 70
     0
  9
$DIMTAD
 70
     0
  9
$DIMZIN
 70
     0
  9
$DIMBLK
  1

  9
$DIMASO
 70
     1
  9
$DIMSHO
 70
     1
  9
$DIMPOST
  1

  9
$DIMAPOST
  1

  9
$DIMALT
 70
     0
  9
$DIMALTD
 70
     2
  9
$DIMALTF
 40
25.4
  9
$DIMLFAC
 40
1.0
  9
$DIMTOFL
 70
     0
  9
$DIMTVP
 40
0.0
  9
$DIMTIX
 70
     0
  9
$DIMSOXD
 70
     0
  9
$DIMSAH
 70
     0
  9
$DIMBLK1
  1

  9
$DIMBLK2
  1

  9
$DIMSTYLE
  2
STANDARD
  9
$DIMCLRD
 70
     0
  9
$DIMCLRE
 70
     0
  9
$DIMCLRT
 70
     0
  9
$DIMTFAC
 40
1.0
  9
$DIMGAP
 40
0.09
  9
$LUNITS
 70
     2
  9
$LUPREC
 70
     4
  9
$SKETCHINC
 40
0.1
  9
$FILLETRAD
 40
0.5
  9
$AUNITS
 70
     0
  9
$AUPREC
 70
     0
  9
$MENU
  1
.
  9
$ELEVATION
 40
0.0
  9
$PELEVATION
 40
0.0
  9
$THICKNESS
 40
0.0
  9
$LIMCHECK
 70
     0
  9
$CHAMFERA
 40
0.5
  9
$CHAMFERB
 40
0.5
  9
$SKPOLY
 70
     0
  9
$TDCREATE
 40
2454910.5
  9
$TDUPDATE
 40
2455901.446123507
  9
$TDINDWG
 40
0.0000000116
  9
$TDUSRTIMER
 40
0.0000000116
  9
$USRTIMER
 70
     1
  9
$ANGBASE
 50
0.0
  9
$ANGDIR
 70
     0
  9
$PDMODE
 70
     0
  9
$PDSIZE
 40
0.0
  9
$PLINEWID
 40
0.0
  9
$COORDS
 70
     1
  9
$SPLFRAME
 70
     0
  9
$SPLINETYPE
 70
     6
  9
$SPLINESEGS
 70
     8
  9
$ATTDIA
 70
     0
  9
$ATTREQ
 70
     1
  9
$HANDLING
 70
     1
  9
$HANDSEED
  5
4B2
  9
$SURFTAB1
 70
     6
  9
$SURFTAB2
 70
     6
  9
$SURFTYPE
 70
     6
  9
$SURFU
 70
     6
  9
$SURFV
 70
     6
  9
$UCSNAME
  2

  9
$UCSORG
 10
0.0
 20
0.0
 30
0.0
  9
$UCSXDIR
 10
1.0
 20
0.0
 30
0.0
  9
$UCSYDIR
 10
0.0
 20
1.0
 30
0.0
  9
$PUCSNAME
  2

  9
$PUCSORG
 10
0.0
 20
0.0
 30
0.0
  9
$PUCSXDIR
 10
1.0
 20
0.0
 30
0.0
  9
$PUCSYDIR
 10
0.0
 20
1.0
 30
0.0
  9
$USERI1
 70
     0
  9
$USERI2
 70
     0
  9
$USERI3
 70
     0
  9
$USERI4
 70
     0
  9
$USERI5
 70
     0
  9
$USERR1
 40
0.0
  9
$USERR2
 40
0.0
  9
$USERR3
 40
0.0
  9
$USERR4
 40
0.0
  9
$USERR5
 40
0.0
  9
$WORLDVIEW
 70
     1
  9
$SHADEDGE
 70
     3
  9
$SHADEDIF
 70
    70
  9
$TILEMODE
 70
     1
  9
$MAXACTVP
 70
    64
  9
$PLIMCHECK
 70
     0
  9
$PEXTMIN
 10
1.000000000000000E+20
 20
1.000000000000000E+20
 30
1.000000000000000E+20
  9
$PEXTMAX
 10
-1.000000000000000E+20
 20
-1.000000000000000E+20
 30
-1.000000000000000E+20
  9
$PLIMMIN
 10
0.0
 20
0.0
  9
$PLIMMAX
 10
12.0
 20
9.0
  9
$UNITMODE
 70
     0
  9
$VISRETAIN
 70
     1
  9
$PLINEGEN
 70
     0
  9
$PSLTSCALE
 70
     1
  0
ENDSEC
  0
SECTION
  2
TABLES
  0
TABLE
  2
VPORT
 70
     1
  0
VPORT
  2
*ACTIVE
 70
     0
 10
0.0
 20
0.0
 11
1.0
 21
1.0
 12
10.42990654205607
 22
4.5
 13
0.0
 23
0.0
 14
0.5
 24
0.5
 15
0.5
 25
0.5
 16
0.0
 26
0.0
 36
1.0
 17
0.0
 27
0.0
 37
0.0
 40
9.0
 41
1.972972972850329
 42
50.0
 43
0.0
 44
0.0
 50
0.0
 51
0.0
 71
     0
 72
   100
 73
     1
 74
     3
 75
     0
 76
     0
 77
     0
 78
     0
  0
ENDTAB
  0
TABLE
  2
LTYPE
 70
     2
  0
LTYPE
  2
CONTINUOUS
 70
     0
  3
Solid line
 72
    65
 73
     0
 40
0.0
  0
LTYPE
  2
CONTINUOUS2
 70
     0
  3
Solid Line
 72
    65
 73
     0
 40
0.0
  0
ENDTAB
  0
TABLE
  2
LAYER
 70
     4
  0
LAYER
  2
0
 70
     0
 62
     7
  6
CONTINUOUS
  0
LAYER
  2
THROUGH_CUT
 70
     0
 62
    18
  6
CONTINUOUS
  0
LAYER
  2
CUT_HALFWAY_THROUGH
 70
     0
 62
     1
  6
CONTINUOUS
  0
LAYER
  2
MARKS_IN_POCKET
 70
     0
 62
     3
  6
CONTINUOUS
  0
ENDTAB
  0
TABLE
  2
STYLE
 70
     1
  0
STYLE
  2
STANDARD
 70
     0
 40
0.0
 41
1.0
 50
0.0
 71
     0
 42
0.2
  3
txt
  4

  0
ENDTAB
  0
TABLE
  2
VIEW
 70
     0
  0
ENDTAB
  0
TABLE
  2
UCS
 70
     0
  0
ENDTAB
  0
TABLE
  2
APPID
 70
     1
  0
APPID
  2
ACAD
 70
     0
  0
ENDTAB
  0
TABLE
  2
DIMSTYLE
 70
     1
  0
DIMSTYLE
  2
STANDARD
 70
     0
  3

  4

  5

  6

  7

 40
1.0
 41
0.18
 42
0.0625
 43
0.38
 44
0.18
 45
0.0
 46
0.0
 47
0.0
 48
0.0
140
0.18
141
0.09
142
0.0
143
25.4
144
1.0
145
0.0
146
1.0
147
0.09
 71
     0
 72
     0
 73
     1
 74
     1
 75
     0
 76
     0
 77
     0
 78
     0
170
     0
171
     2
172
     0
173
     0
174
     0
175
     0
176
     0
177
     0
178
     0
  0
ENDTAB
  0
ENDSEC
  0
SECTION
  2
BLOCKS
  0
BLOCK
  8
0
  2
$MODEL_SPACE
 70
     0
 10
0.0
 20
0.0
 30
0.0
  3
$MODEL_SPACE
  1

  0
ENDBLK
  5
21
  8
0
  0
BLOCK
 67
     1
  8
0
  2
$PAPER_SPACE
 70
     0
 10
0.0
 20
0.0
 30
0.0
  3
$PAPER_SPACE
  1

  0
ENDBLK
  5
1D
 67
     1
  8
0
  0
ENDSEC
  0
SECTION
  2
ENTITIES
  0
POLYLINE
  5
41
  8
THROUGH_CUT
 66
     1
 10
0.0
 20
0.0
 30
0.0
 70
     1
  0
VERTEX
  5
68
  8
THROUGH_CUT
 10
77.65093974019369
 20
4.759360352197369
 30
0.0
 42
0.4142135623731782
  0
VERTEX
  5
69
  8
THROUGH_CUT
 10
77.45093974019369
 20
4.559360352197366
 30
0.0
 42
0.4142135623731782
  0
VERTEX
  5
6A
  8
THROUGH_CUT
 10
77.65093974019369
 20
4.359360352197363
 30
0.0
 42
0.4142135623731782
  0
VERTEX
  5
6B
  8
THROUGH_CUT
 10
77.8509397401937
 20
4.559360352197366
 30
0.0
 42
0.4142135623731782
  0
SEQEND
  5
6C
  8
THROUGH_CUT
  0
POLYLINE
  5
42
  8
THROUGH_CUT
 66
     1
 10
0.0
 20
0.0
 30
0.0
 70
     1
  0
VERTEX
  5
6D
  8
THROUGH_CUT
 10
89.65093974019369
 20
4.759360352197369
 30
0.0
 42
0.4142135623731782
  0
VERTEX
  5
6E
  8
THROUGH_CUT
 10
89.45093974019369
 20
4.559360352197366
 30
0.0
 42
0.4142135623731782
  0
VERTEX
  5
6F
  8
THROUGH_CUT
 10
89.65093974019369
 20
4.359360352197363
 30
0.0
 42
0.4142135623731782
  0
VERTEX
  5
70
  8
THROUGH_CUT
 10
89.8509397401937
 20
4.559360352197366
 30
0.0
 42
0.4142135623731782
  0
SEQEND
  5
71
  8
THROUGH_CUT
  0
POLYLINE
  5
43
  8
THROUGH_CUT
 66
     1
 10
0.0
 20
0.0
 30
0.0
 70
     1
  0
VERTEX
  5
72
  8
THROUGH_CUT
 10
77.65093974019369
 20
12.50936135219737
 30
0.0
 42
0.4142135623731054
  0
VERTEX
  5
73
  8
THROUGH_CUT
 10
77.45093974019369
 20
12.30936135219736
 30
0.0
 42
0.4142135623730951
  0
VERTEX
  5
74
  8
THROUGH_CUT
 10
77.65093974019369
 20
12.10936135219736
 30
0.0
 42
0.4142135623730951
  0
VERTEX
  5
75
  8
THROUGH_CUT
 10
77.8509397401937
 20
12.30936135219736
 30
0.0
 42
0.4142135623731054
  0
SEQEND
  5
76
  8
THROUGH_CUT
  0
POLYLINE
  5
44
  8
THROUGH_CUT
 66
     1
 10
0.0
 20
0.0
 30
0.0
 70
     1
  0
VERTEX
  5
77
  8
THROUGH_CUT
 10
89.65093974019369
 20
12.50936135219737
 30
0.0
 42
0.4142135623731054
  0
VERTEX
  5
78
  8
THROUGH_CUT
 10
89.45093974019369
 20
12.30936135219736
 30
0.0
 42
0.4142135623730951
  0
VERTEX
  5
79
  8
THROUGH_CUT
 10
89.65093974019369
 20
12.10936135219736
 30
0.0
 42
0.4142135623730951
  0
VERTEX
  5
7A
  8
THROUGH_CUT
 10
89.8509397401937
 20
12.30936135219736
 30
0.0
 42
0.4142135623731054
  0
SEQEND
  5
7B
  8
THROUGH_CUT
  0
POLYLINE
  5
45
  8
THROUGH_CUT
 66
     1
 10
0.0
 20
0.0
 30
0.0
 70
     1
  0
VERTEX
  5
7C
  8
THROUGH_CUT
 10
77.65093974019369
 20
20.25936235219736
 30
0.0
 42
0.4142135623731211
  0
VERTEX
  5
7D
  8
THROUGH_CUT
 10
77.45093974019369
 20
20.05936235219736
 30
0.0
 42
0.4142135623731782
  0
VERTEX
  5
7E
  8
THROUGH_CUT
 10
77.65093974019369
 20
19.85936235219736
 30
0.0
 42
0.4142135623731782
  0
VERTEX
  5
7F
  8
THROUGH_CUT
 10
77.8509397401937
 20
20.05936235219736
 30
0.0
 42
0.4142135623731211
  0
SEQEND
  5
80
  8
THROUGH_CUT
  0
POLYLINE
  5
46
  8
THROUGH_CUT
 66
     1
 10
0.0
 20
0.0
 30
0.0
 70
     1
  0
VERTEX
  5
81
  8
THROUGH_CUT
 10
89.65093974019369
 20
20.25936235219736
 30
0.0
 42
0.4142135623731211
  0
VERTEX
  5
82
  8
THROUGH_CUT
 10
89.45093974019369
 20
20.05936235219736
 30
0.0
 42
0.4142135623731782
  0
VERTEX
  5
83
  8
THROUGH_CUT
 10
89.65093974019369
 20
19.85936235219736
 30
0.0
 42
0.4142135623731782
  0
VERTEX
  5
84
  8
THROUGH_CUT
 10
89.8509397401937
 20
20.05936235219736
 30
0.0
 42
0.4142135623731211
  0
SEQEND
  5
85
  8
THROUGH_CUT
  0
POLYLINE
  5
47
  8
THROUGH_CUT
 66
     1
 10
0.0
 20
0.0
 30
0.0
 70
     1
  0
VERTEX
  5
86
  8
THROUGH_CUT
 10
77.65093974019369
 20
28.00936335219736
 30
0.0
 42
0.4142135623731782
  0
VERTEX
  5
87
  8
THROUGH_CUT
 10
77.45093974019369
 20
27.80936335219736
 30
0.0
 42
0.4142135623731211
  0
VERTEX
  5
88
  8
THROUGH_CUT
 10
77.65093974019369
 20
27.60936335219736
 30
0.0
 42
0.4142135623731211
  0
VERTEX
  5
89
  8
THROUGH_CUT
 10
77.8509397401937
 20
27.80936335219736
 30
0.0
 42
0.4142135623731782
  0
SEQEND
  5
8A
  8
THROUGH_CUT
  0
POLYLINE
  5
48
  8
THROUGH_CUT
 66
     1
 10
0.0
 20
0.0
 30
0.0
 70
     1
  0
VERTEX
  5
8B
  8
THROUGH_CUT
 10
89.65093974019369
 20
28.00936335219736
 30
0.0
 42
0.4142135623731782
  0
VERTEX
  5
8C
  8
THROUGH_CUT
 10
89.45093974019369
 20
27.80936335219736
 30
0.0
 42
0.4142135623731211
  0
VERTEX
  5
8D
  8
THROUGH_CUT
 10
89.65093974019369
 20
27.60936335219736
 30
0.0
 42
0.4142135623731211
  0
VERTEX
  5
8E
  8
THROUGH_CUT
 10
89.8509397401937
 20
27.80936335219736
 30
0.0
 42
0.4142135623731782
  0
SEQEND
  5
8F
  8
THROUGH_CUT
  0
POLYLINE
  5
49
  8
THROUGH_CUT
 66
     1
 10
0.0
 20
0.0
 30
0.0
 70
     1
  0
VERTEX
  5
90
  8
THROUGH_CUT
 10
4.382855991273354
 20
1.059404
 30
0.0
  0
VERTEX
  5
91
  8
THROUGH_CUT
 10
83.650938
 20
1.059403
 30
0.0
  0
VERTEX
  5
92
  8
THROUGH_CUT
 10
90.31594611424437
 20
3.126694114517906
 30
0.0
 42
0.7368231252251547
  0
VERTEX
  5
93
  8
THROUGH_CUT
 10
90.31596304082461
 20
5.992020771747801
 30
0.0
  0
VERTEX
  5
94
  8
THROUGH_CUT
 10
83.650938
 20
8.059404
 30
0.0
  0
VERTEX
  5
95
  8
THROUGH_CUT
 10
73.025938
 20
8.059404
 30
0.0
  0
VERTEX
  5
96
  8
THROUGH_CUT
 10
73.025938
 20
4.459404
 30
0.0
 42
-0.4142135623730683
  0
VERTEX
  5
97
  8
THROUGH_CUT
 10
73.225938
 20
4.259404
 30
0.0
 42
-0.4142135623730682
  0
VERTEX
  5
98
  8
THROUGH_CUT
 10
73.025938
 20
4.059404
 30
0.0
  0
VERTEX
  5
99
  8
THROUGH_CUT
 10
72.275938
 20
4.059404
 30
0.0
 42
-0.4142135623730683
  0
VERTEX
  5
9A
  8
THROUGH_CUT
 10
72.075938
 20
4.259404
 30
0.0
 42
-0.4142135623730682
  0
VERTEX
  5
9B
  8
THROUGH_CUT
 10
72.275938
 20
4.459404
 30
0.0
  0
VERTEX
  5
9C
  8
THROUGH_CUT
 10
72.275938
 20
8.059404
 30
0.0
  0
VERTEX
  5
9D
  8
THROUGH_CUT
 10
51.025938
 20
8.059404
 30
0.0
  0
VERTEX
  5
9E
  8
THROUGH_CUT
 10
51.025938
 20
4.459404
 30
0.0
 42
-0.4142135623730771
  0
VERTEX
  5
9F
  8
THROUGH_CUT
 10
51.225938
 20
4.259404
 30
0.0
 42
-0.4142135623730772
  0
VERTEX
  5
A0
  8
THROUGH_CUT
 10
51.025938
 20
4.059404
 30
0.0
  0
VERTEX
  5
A1
  8
THROUGH_CUT
 10
50.275938
 20
4.059404
 30
0.0
 42
-0.4142135623730771
  0
VERTEX
  5
A2
  8
THROUGH_CUT
 10
50.07593799999999
 20
4.259404
 30
0.0
 42
-0.4142135623730772
  0
VERTEX
  5
A3
  8
THROUGH_CUT
 10
50.275938
 20
4.459404
 30
0.0
  0
VERTEX
  5
A4
  8
THROUGH_CUT
 10
50.275938
 20
8.059404
 30
0.0
  0
VERTEX
  5
A5
  8
THROUGH_CUT
 10
29.025938
 20
8.059404
 30
0.0
  0
VERTEX
  5
A6
  8
THROUGH_CUT
 10
29.025938
 20
4.459404
 30
0.0
 42
-0.9999999999999957
  0
VERTEX
  5
A7
  8
THROUGH_CUT
 10
29.025938
 20
4.059404
 30
0.0
  0
VERTEX
  5
A8
  8
THROUGH_CUT
 10
28.275938
 20
4.059404
 30
0.0
 42
-0.9999999999999957
  0
VERTEX
  5
A9
  8
THROUGH_CUT
 10
28.275938
 20
4.459404
 30
0.0
  0
VERTEX
  5
AA
  8
THROUGH_CUT
 10
28.275938
 20
8.059404
 30
0.0
  0
VERTEX
  5
AB
  8
THROUGH_CUT
 10
7.025938
 20
8.059404
 30
0.0
  0
VERTEX
  5
AC
  8
THROUGH_CUT
 10
7.025937811215472
 20
4.459403940161248
 30
0.0
 42
-0.9999999999999978
  0
VERTEX
  5
AD
  8
THROUGH_CUT
 10
7.008264188784529
 20
4.059404059838752
 30
0.0
  0
VERTEX
  5
AE
  8
THROUGH_CUT
 10
5.525938
 20
4.059404
 30
0.0
 42
-1.0
  0
VERTEX
  5
AF
  8
THROUGH_CUT
 10
5.525938
 20
4.4925455
 30
0.0
  0
VERTEX
  5
B0
  8
THROUGH_CUT
 10
5.525938
 20
8.059404
 30
0.0
  0
VERTEX
  5
B1
  8
THROUGH_CUT
 10
4.382856
 20
8.059404
 30
0.0
 42
0.4142135623730948
  0
VERTEX
  5
B2
  8
THROUGH_CUT
 10
3.382856
 20
7.059404
 30
0.0
  0
VERTEX
  5
B3
  8
THROUGH_CUT
 10
3.382856
 20
2.059404
 30
0.0
 42
0.4142135572611439
  0
SEQEND
  5
B4
  8
THROUGH_CUT
  0
POLYLINE
  5
4A
  8
THROUGH_CUT
 66
     1
 10
0.0
 20
0.0
 30
0.0
 70
     1
  0
VERTEX
  5
B5
  8
THROUGH_CUT
 10
4.382855991273354
 20
8.809405000000002
 30
0.0
  0
VERTEX
  5
B6
  8
THROUGH_CUT
 10
83.650938
 20
8.809404
 30
0.0
  0
VERTEX
  5
B7
  8
THROUGH_CUT
 10
90.31594611424437
 20
10.87669511451791
 30
0.0
 42
0.7368231252251547
  0
VERTEX
  5
B8
  8
THROUGH_CUT
 10
90.31596304082461
 20
13.7420217717478
 30
0.0
  0
VERTEX
  5
B9
  8
THROUGH_CUT
 10
83.650938
 20
15.809405
 30
0.0
  0
VERTEX
  5
BA
  8
THROUGH_CUT
 10
73.025938
 20
15.809405
 30
0.0
  0
VERTEX
  5
BB
  8
THROUGH_CUT
 10
73.025938
 20
12.209405
 30
0.0
 42
-0.4142135623730683
  0
VERTEX
  5
BC
  8
THROUGH_CUT
 10
73.225938
 20
12.009405
 30
0.0
 42
-0.4142135623730682
  0
VERTEX
  5
BD
  8
THROUGH_CUT
 10
73.025938
 20
11.809405
 30
0.0
  0
VERTEX
  5
BE
  8
THROUGH_CUT
 10
72.275938
 20
11.809405
 30
0.0
 42
-0.4142135623730683
  0
VERTEX
  5
BF
  8
THROUGH_CUT
 10
72.075938
 20
12.009405
 30
0.0
 42
-0.4142135623730682
  0
VERTEX
  5
C0
  8
THROUGH_CUT
 10
72.275938
 20
12.209405
 30
0.0
  0
VERTEX
  5
C1
  8
THROUGH_CUT
 10
72.275938
 20
15.809405
 30
0.0
  0
VERTEX
  5
C2
  8
THROUGH_CUT
 10
51.025938
 20
15.809405
 30
0.0
  0
VERTEX
  5
C3
  8
THROUGH_CUT
 10
51.025938
 20
12.209405
 30
0.0
 42
-0.4142135623730771
  0
VERTEX
  5
C4
  8
THROUGH_CUT
 10
51.225938
 20
12.009405
 30
0.0
 42
-0.4142135623730772
  0
VERTEX
  5
C5
  8
THROUGH_CUT
 10
51.025938
 20
11.809405
 30
0.0
  0
VERTEX
  5
C6
  8
THROUGH_CUT
 10
50.275938
 20
11.809405
 30
0.0
 42
-0.4142135623730771
  0
VERTEX
  5
C7
  8
THROUGH_CUT
 10
50.07593799999999
 20
12.009405
 30
0.0
 42
-0.4142135623730772
  0
VERTEX
  5
C8
  8
THROUGH_CUT
 10
50.275938
 20
12.209405
 30
0.0
  0
VERTEX
  5
C9
  8
THROUGH_CUT
 10
50.275938
 20
15.809405
 30
0.0
  0
VERTEX
  5
CA
  8
THROUGH_CUT
 10
29.025938
 20
15.809405
 30
0.0
  0
VERTEX
  5
CB
  8
THROUGH_CUT
 10
29.025938
 20
12.209405
 30
0.0
 42
-0.9999999999999957
  0
VERTEX
  5
CC
  8
THROUGH_CUT
 10
29.025938
 20
11.809405
 30
0.0
  0
VERTEX
  5
CD
  8
THROUGH_CUT
 10
28.275938
 20
11.809405
 30
0.0
 42
-0.9999999999999957
  0
VERTEX
  5
CE
  8
THROUGH_CUT
 10
28.275938
 20
12.209405
 30
0.0
  0
VERTEX
  5
CF
  8
THROUGH_CUT
 10
28.275938
 20
15.809405
 30
0.0
  0
VERTEX
  5
D0
  8
THROUGH_CUT
 10
7.025938
 20
15.809405
 30
0.0
  0
VERTEX
  5
D1
  8
THROUGH_CUT
 10
7.025937811215472
 20
12.20940494016125
 30
0.0
 42
-0.9999999999999978
  0
VERTEX
  5
D2
  8
THROUGH_CUT
 10
7.008264188784529
 20
11.80940505983875
 30
0.0
  0
VERTEX
  5
D3
  8
THROUGH_CUT
 10
5.525938
 20
11.809405
 30
0.0
 42
-1.0
  0
VERTEX
  5
D4
  8
THROUGH_CUT
 10
5.525938
 20
12.2425465
 30
0.0
  0
VERTEX
  5
D5
  8
THROUGH_CUT
 10
5.525938
 20
15.809405
 30
0.0
  0
VERTEX
  5
D6
  8
THROUGH_CUT
 10
4.382856
 20
15.809405
 30
0.0
 42
0.4142135623730948
  0
VERTEX
  5
D7
  8
THROUGH_CUT
 10
3.382856
 20
14.809405
 30
0.0
  0
VERTEX
  5
D8
  8
THROUGH_CUT
 10
3.382856
 20
9.809405000000002
 30
0.0
 42
0.4142135572611439
  0
SEQEND
  5
D9
  8
THROUGH_CUT
  0
POLYLINE
  5
4B
  8
THROUGH_CUT
 66
     1
 10
0.0
 20
0.0
 30
0.0
 70
     1
  0
VERTEX
  5
DA
  8
THROUGH_CUT
 10
4.382855991273354
 20
16.559406
 30
0.0
  0
VERTEX
  5
DB
  8
THROUGH_CUT
 10
83.650938
 20
16.559405
 30
0.0
  0
VERTEX
  5
DC
  8
THROUGH_CUT
 10
90.31594611424437
 20
18.62669611451791
 30
0.0
 42
0.7368231252251547
  0
VERTEX
  5
DD
  8
THROUGH_CUT
 10
90.31596304082461
 20
21.4920227717478
 30
0.0
  0
VERTEX
  5
DE
  8
THROUGH_CUT
 10
83.650938
 20
23.559406
 30
0.0
  0
VERTEX
  5
DF
  8
THROUGH_CUT
 10
73.025938
 20
23.559406
 30
0.0
  0
VERTEX
  5
E0
  8
THROUGH_CUT
 10
73.025938
 20
19.959406
 30
0.0
 42
-0.4142135623730683
  0
VERTEX
  5
E1
  8
THROUGH_CUT
 10
73.225938
 20
19.759406
 30
0.0
 42
-0.4142135623730682
  0
VERTEX
  5
E2
  8
THROUGH_CUT
 10
73.025938
 20
19.559406
 30
0.0
  0
VERTEX
  5
E3
  8
THROUGH_CUT
 10
72.275938
 20
19.559406
 30
0.0
 42
-0.4142135623730683
  0
VERTEX
  5
E4
  8
THROUGH_CUT
 10
72.075938
 20
19.759406
 30
0.0
 42
-0.4142135623730682
  0
VERTEX
  5
E5
  8
THROUGH_CUT
 10
72.275938
 20
19.959406
 30
0.0
  0
VERTEX
  5
E6
  8
THROUGH_CUT
 10
72.275938
 20
23.559406
 30
0.0
  0
VERTEX
  5
E7
  8
THROUGH_CUT
 10
51.025938
 20
23.559406
 30
0.0
  0
VERTEX
  5
E8
  8
THROUGH_CUT
 10
51.025938
 20
19.959406
 30
0.0
 42
-0.4142135623730771
  0
VERTEX
  5
E9
  8
THROUGH_CUT
 10
51.225938
 20
19.759406
 30
0.0
 42
-0.4142135623730772
  0
VERTEX
  5
EA
  8
THROUGH_CUT
 10
51.025938
 20
19.559406
 30
0.0
  0
VERTEX
  5
EB
  8
THROUGH_CUT
 10
50.275938
 20
19.559406
 30
0.0
 42
-0.4142135623730771
  0
VERTEX
  5
EC
  8
THROUGH_CUT
 10
50.07593799999999
 20
19.759406
 30
0.0
 42
-0.4142135623730772
  0
VERTEX
  5
ED
  8
THROUGH_CUT
 10
50.275938
 20
19.959406
 30
0.0
  0
VERTEX
  5
EE
  8
THROUGH_CUT
 10
50.275938
 20
23.559406
 30
0.0
  0
VERTEX
  5
EF
  8
THROUGH_CUT
 10
29.025938
 20
23.559406
 30
0.0
  0
VERTEX
  5
F0
  8
THROUGH_CUT
 10
29.025938
 20
19.959406
 30
0.0
 42
-0.9999999999999957
  0
VERTEX
  5
F1
  8
THROUGH_CUT
 10
29.025938
 20
19.559406
 30
0.0
  0
VERTEX
  5
F2
  8
THROUGH_CUT
 10
28.275938
 20
19.559406
 30
0.0
 42
-0.9999999999999957
  0
VERTEX
  5
F3
  8
THROUGH_CUT
 10
28.275938
 20
19.959406
 30
0.0
  0
VERTEX
  5
F4
  8
THROUGH_CUT
 10
28.275938
 20
23.559406
 30
0.0
  0
VERTEX
  5
F5
  8
THROUGH_CUT
 10
7.025938
 20
23.559406
 30
0.0
  0
VERTEX
  5
F6
  8
THROUGH_CUT
 10
7.025937811215472
 20
19.95940594016125
 30
0.0
 42
-0.9999999999999978
  0
VERTEX
  5
F7
  8
THROUGH_CUT
 10
7.008264188784529
 20
19.55940605983875
 30
0.0
  0
VERTEX
  5
F8
  8
THROUGH_CUT
 10
5.525938
 20
19.559406
 30
0.0
 42
-1.0
  0
VERTEX
  5
F9
  8
THROUGH_CUT
 10
5.525938
 20
19.9925475
 30
0.0
  0
VERTEX
  5
FA
  8
THROUGH_CUT
 10
5.525938
 20
23.559406
 30
0.0
  0
VERTEX
  5
FB
  8
THROUGH_CUT
 10
4.382856
 20
23.559406
 30
0.0
 42
0.4142135623730948
  0
VERTEX
  5
FC
  8
THROUGH_CUT
 10
3.382856
 20
22.559406
 30
0.0
  0
VERTEX
  5
FD
  8
THROUGH_CUT
 10
3.382856
 20
17.559406
 30
0.0
 42
0.4142135572611439
  0
SEQEND
  5
FE
  8
THROUGH_CUT
  0
POLYLINE
  5
4C
  8
THROUGH_CUT
 66
     1
 10
0.0
 20
0.0
 30
0.0
 70
     1
  0
VERTEX
  5
FF
  8
THROUGH_CUT
 10
4.382855991273354
 20
24.309407
 30
0.0
  0
VERTEX
  5
100
  8
THROUGH_CUT
 10
83.650938
 20
24.309406
 30
0.0
  0
VERTEX
  5
101
  8
THROUGH_CUT
 10
90.31594611424437
 20
26.37669711451791
 30
0.0
 42
0.7368231252251547
  0
VERTEX
  5
102
  8
THROUGH_CUT
 10
90.31596304082461
 20
29.2420237717478
 30
0.0
  0
VERTEX
  5
103
  8
THROUGH_CUT
 10
83.650938
 20
31.309407
 30
0.0
  0
VERTEX
  5
104
  8
THROUGH_CUT
 10
73.025938
 20
31.309407
 30
0.0
  0
VERTEX
  5
105
  8
THROUGH_CUT
 10
73.025938
 20
27.709407
 30
0.0
 42
-0.4142135623730683
  0
VERTEX
  5
106
  8
THROUGH_CUT
 10
73.225938
 20
27.509407
 30
0.0
 42
-0.4142135623730682
  0
VERTEX
  5
107
  8
THROUGH_CUT
 10
73.025938
 20
27.309407
 30
0.0
  0
VERTEX
  5
108
  8
THROUGH_CUT
 10
72.275938
 20
27.309407
 30
0.0
 42
-0.4142135623730683
  0
VERTEX
  5
109
  8
THROUGH_CUT
 10
72.075938
 20
27.509407
 30
0.0
 42
-0.4142135623730682
  0
VERTEX
  5
10A
  8
THROUGH_CUT
 10
72.275938
 20
27.709407
 30
0.0
  0
VERTEX
  5
10B
  8
THROUGH_CUT
 10
72.275938
 20
31.309407
 30
0.0
  0
VERTEX
  5
10C
  8
THROUGH_CUT
 10
51.025938
 20
31.309407
 30
0.0
  0
VERTEX
  5
10D
  8
THROUGH_CUT
 10
51.025938
 20
27.709407
 30
0.0
 42
-0.4142135623730771
  0
VERTEX
  5
10E
  8
THROUGH_CUT
 10
51.225938
 20
27.509407
 30
0.0
 42
-0.4142135623730772
  0
VERTEX
  5
10F
  8
THROUGH_CUT
 10
51.025938
 20
27.309407
 30
0.0
  0
VERTEX
  5
110
  8
THROUGH_CUT
 10
50.275938
 20
27.309407
 30
0.0
 42
-0.4142135623730771
  0
VERTEX
  5
111
  8
THROUGH_CUT
 10
50.07593799999999
 20
27.509407
 30
0.0
 42
-0.4142135623730772
  0
VERTEX
  5
112
  8
THROUGH_CUT
 10
50.275938
 20
27.709407
 30
0.0
  0
VERTEX
  5
113
  8
THROUGH_CUT
 10
50.275938
 20
31.309407
 30
0.0
  0
VERTEX
  5
114
  8
THROUGH_CUT
 10
29.025938
 20
31.309407
 30
0.0
  0
VERTEX
  5
115
  8
THROUGH_CUT
 10
29.025938
 20
27.709407
 30
0.0
 42
-0.9999999999999957
  0
VERTEX
  5
116
  8
THROUGH_CUT
 10
29.025938
 20
27.309407
 30
0.0
  0
VERTEX
  5
117
  8
THROUGH_CUT
 10
28.275938
 20
27.309407
 30
0.0
 42
-0.9999999999999957
  0
VERTEX
  5
118
  8
THROUGH_CUT
 10
28.275938
 20
27.709407
 30
0.0
  0
VERTEX
  5
119
  8
THROUGH_CUT
 10
28.275938
 20
31.309407
 30
0.0
  0
VERTEX
  5
11A
  8
THROUGH_CUT
 10
7.025938
 20
31.309407
 30
0.0
  0
VERTEX
  5
11B
  8
THROUGH_CUT
 10
7.025937811215472
 20
27.70940694016125
 30
0.0
 42
-0.9999999999999978
  0
VERTEX
  5
11C
  8
THROUGH_CUT
 10
7.008264188784529
 20
27.30940705983875
 30
0.0
  0
VERTEX
  5
11D
  8
THROUGH_CUT
 10
5.525938
 20
27.309407
 30
0.0
 42
-1.0
  0
VERTEX
  5
11E
  8
THROUGH_CUT
 10
5.525938
 20
27.74254850000001
 30
0.0
  0
VERTEX
  5
11F
  8
THROUGH_CUT
 10
5.525938
 20
31.309407
 30
0.0
  0
VERTEX
  5
120
  8
THROUGH_CUT
 10
4.382856
 20
31.309407
 30
0.0
 42
0.4142135623730948
  0
VERTEX
  5
121
  8
THROUGH_CUT
 10
3.382856
 20
30.309407
 30
0.0
  0
VERTEX
  5
122
  8
THROUGH_CUT
 10
3.382856
 20
25.309407
 30
0.0
 42
0.4142135572611439
  0
SEQEND
  5
123
  8
THROUGH_CUT
  0
POLYLINE
  5
4D
  8
THROUGH_CUT
 66
     1
 10
0.0
 20
0.0
 30
0.0
 70
     1
  0
VERTEX
  5
124
  8
THROUGH_CUT
 10
78.77962297563991
 20
43.57495899999999
 30
0.0
 42
0.4142135623730951
  0
VERTEX
  5
125
  8
THROUGH_CUT
 10
78.57962297563991
 20
43.37495899999999
 30
0.0
 42
0.4142135623730951
  0
VERTEX
  5
126
  8
THROUGH_CUT
 10
78.77962297563991
 20
43.17495899999999
 30
0.0
 42
0.4142135623730951
  0
VERTEX
  5
127
  8
THROUGH_CUT
 10
78.97962297563991
 20
43.37495899999999
 30
0.0
 42
0.4142135623730951
  0
SEQEND
  5
128
  8
THROUGH_CUT
  0
POLYLINE
  5
4E
  8
THROUGH_CUT
 66
     1
 10
0.0
 20
0.0
 30
0.0
 70
     1
  0
VERTEX
  5
129
  8
THROUGH_CUT
 10
90.77962297563991
 20
43.57495899999999
 30
0.0
 42
0.4142135623730951
  0
VERTEX
  5
12A
  8
THROUGH_CUT
 10
90.57962297563991
 20
43.37495899999999
 30
0.0
 42
0.4142135623730951
  0
VERTEX
  5
12B
  8
THROUGH_CUT
 10
90.77962297563991
 20
43.17495899999999
 30
0.0
 42
0.4142135623730951
  0
VERTEX
  5
12C
  8
THROUGH_CUT
 10
90.97962297563991
 20
43.37495899999999
 30
0.0
 42
0.4142135623730951
  0
SEQEND
  5
12D
  8
THROUGH_CUT
  0
POLYLINE
  5
4F
  8
THROUGH_CUT
 66
     1
 10
0.0
 20
0.0
 30
0.0
 70
     1
  0
VERTEX
  5
12E
  8
THROUGH_CUT
 10
78.77962297563991
 20
35.824958
 30
0.0
 42
0.4142135623730223
  0
VERTEX
  5
12F
  8
THROUGH_CUT
 10
78.57962297563991
 20
35.62495799999999
 30
0.0
 42
0.4142135623730951
  0
VERTEX
  5
130
  8
THROUGH_CUT
 10
78.77962297563991
 20
35.42495799999999
 30
0.0
 42
0.4142135623730951
  0
VERTEX
  5
131
  8
THROUGH_CUT
 10
78.97962297563991
 20
35.62495799999999
 30
0.0
 42
0.4142135623730223
  0
SEQEND
  5
132
  8
THROUGH_CUT
  0
POLYLINE
  5
50
  8
THROUGH_CUT
 66
     1
 10
0.0
 20
0.0
 30
0.0
 70
     1
  0
VERTEX
  5
133
  8
THROUGH_CUT
 10
90.77962297563991
 20
35.824958
 30
0.0
 42
0.4142135623730223
  0
VERTEX
  5
134
  8
THROUGH_CUT
 10
90.57962297563991
 20
35.62495799999999
 30
0.0
 42
0.4142135623730951
  0
VERTEX
  5
135
  8
THROUGH_CUT
 10
90.77962297563991
 20
35.42495799999999
 30
0.0
 42
0.4142135623730951
  0
VERTEX
  5
136
  8
THROUGH_CUT
 10
90.97962297563991
 20
35.62495799999999
 30
0.0
 42
0.4142135623730223
  0
SEQEND
  5
137
  8
THROUGH_CUT
  0
POLYLINE
  5
51
  8
THROUGH_CUT
 66
     1
 10
0.0
 20
0.0
 30
0.0
 70
     1
  0
VERTEX
  5
138
  8
THROUGH_CUT
 10
73.40462097563992
 20
39.12500199999999
 30
0.0
  0
VERTEX
  5
139
  8
THROUGH_CUT
 10
52.1546209756399
 20
39.12500199999999
 30
0.0
  0
VERTEX
  5
13A
  8
THROUGH_CUT
 10
52.1546209756399
 20
35.525002
 30
0.0
  0
VERTEX
  5
13B
  8
THROUGH_CUT
 10
52.18753997563991
 20
35.522274
 30
0.0
  0
VERTEX
  5
13C
  8
THROUGH_CUT
 10
52.21956097563991
 20
35.51416499999999
 30
0.0
  0
VERTEX
  5
13D
  8
THROUGH_CUT
 10
52.24980997563991
 20
35.50089699999999
 30
0.0
  0
VERTEX
  5
13E
  8
THROUGH_CUT
 10
52.27746297563991
 20
35.48282999999999
 30
0.0
  0
VERTEX
  5
13F
  8
THROUGH_CUT
 10
52.30176597563991
 20
35.460458
 30
0.0
  0
VERTEX
  5
140
  8
THROUGH_CUT
 10
52.32205397563992
 20
35.43439099999999
 30
0.0
  0
VERTEX
  5
141
  8
THROUGH_CUT
 10
52.3377759756399
 20
35.40534099999999
 30
0.0
  0
VERTEX
  5
142
  8
THROUGH_CUT
 10
52.34850097563991
 20
35.374099
 30
0.0
  0
VERTEX
  5
143
  8
THROUGH_CUT
 10
52.35393797563991
 20
35.34151799999999
 30
0.0
  0
VERTEX
  5
144
  8
THROUGH_CUT
 10
52.35393797563991
 20
35.308486
 30
0.0
  0
VERTEX
  5
145
  8
THROUGH_CUT
 10
52.34850097563991
 20
35.27590499999999
 30
0.0
  0
VERTEX
  5
146
  8
THROUGH_CUT
 10
52.3377759756399
 20
35.244663
 30
0.0
  0
VERTEX
  5
147
  8
THROUGH_CUT
 10
52.32205397563992
 20
35.21561199999999
 30
0.0
  0
VERTEX
  5
148
  8
THROUGH_CUT
 10
52.30176597563991
 20
35.189545
 30
0.0
  0
VERTEX
  5
149
  8
THROUGH_CUT
 10
52.27746297563991
 20
35.167174
 30
0.0
  0
VERTEX
  5
14A
  8
THROUGH_CUT
 10
52.24980997563991
 20
35.149107
 30
0.0
  0
VERTEX
  5
14B
  8
THROUGH_CUT
 10
52.21956097563991
 20
35.13583799999999
 30
0.0
  0
VERTEX
  5
14C
  8
THROUGH_CUT
 10
52.18753997563991
 20
35.12773
 30
0.0
  0
VERTEX
  5
14D
  8
THROUGH_CUT
 10
52.1546209756399
 20
35.12500199999999
 30
0.0
  0
VERTEX
  5
14E
  8
THROUGH_CUT
 10
51.4046209756399
 20
35.12500199999999
 30
0.0
  0
VERTEX
  5
14F
  8
THROUGH_CUT
 10
51.37170197563991
 20
35.12773
 30
0.0
  0
VERTEX
  5
150
  8
THROUGH_CUT
 10
51.33968097563991
 20
35.13583799999999
 30
0.0
  0
VERTEX
  5
151
  8
THROUGH_CUT
 10
51.3094309756399
 20
35.149107
 30
0.0
  0
VERTEX
  5
152
  8
THROUGH_CUT
 10
51.28177797563991
 20
35.167174
 30
0.0
  0
VERTEX
  5
153
  8
THROUGH_CUT
 10
51.25747597563991
 20
35.189545
 30
0.0
  0
VERTEX
  5
154
  8
THROUGH_CUT
 10
51.23718797563991
 20
35.21561199999999
 30
0.0
  0
VERTEX
  5
155
  8
THROUGH_CUT
 10
51.2214659756399
 20
35.244663
 30
0.0
  0
VERTEX
  5
156
  8
THROUGH_CUT
 10
51.21074097563991
 20
35.27590499999999
 30
0.0
  0
VERTEX
  5
157
  8
THROUGH_CUT
 10
51.20530397563991
 20
35.308486
 30
0.0
  0
VERTEX
  5
158
  8
THROUGH_CUT
 10
51.20530397563991
 20
35.34151799999999
 30
0.0
  0
VERTEX
  5
159
  8
THROUGH_CUT
 10
51.21074097563991
 20
35.374099
 30
0.0
  0
VERTEX
  5
15A
  8
THROUGH_CUT
 10
51.2214659756399
 20
35.40534099999999
 30
0.0
  0
VERTEX
  5
15B
  8
THROUGH_CUT
 10
51.23718797563991
 20
35.43439099999999
 30
0.0
  0
VERTEX
  5
15C
  8
THROUGH_CUT
 10
51.25747597563991
 20
35.460458
 30
0.0
  0
VERTEX
  5
15D
  8
THROUGH_CUT
 10
51.28177797563991
 20
35.48282999999999
 30
0.0
  0
VERTEX
  5
15E
  8
THROUGH_CUT
 10
51.3094309756399
 20
35.50089699999999
 30
0.0
  0
VERTEX
  5
15F
  8
THROUGH_CUT
 10
51.33968097563991
 20
35.51416499999999
 30
0.0
  0
VERTEX
  5
160
  8
THROUGH_CUT
 10
51.37170197563991
 20
35.522274
 30
0.0
  0
VERTEX
  5
161
  8
THROUGH_CUT
 10
51.4046209756399
 20
35.525002
 30
0.0
  0
VERTEX
  5
162
  8
THROUGH_CUT
 10
51.4046209756399
 20
39.12500199999999
 30
0.0
  0
VERTEX
  5
163
  8
THROUGH_CUT
 10
30.1546209756399
 20
39.12500199999999
 30
0.0
  0
VERTEX
  5
164
  8
THROUGH_CUT
 10
30.1546209756399
 20
35.525002
 30
0.0
  0
VERTEX
  5
165
  8
THROUGH_CUT
 10
30.18753997563989
 20
35.522274
 30
0.0
  0
VERTEX
  5
166
  8
THROUGH_CUT
 10
30.21956097563991
 20
35.51416499999999
 30
0.0
  0
VERTEX
  5
167
  8
THROUGH_CUT
 10
30.24980997563991
 20
35.50089699999999
 30
0.0
  0
VERTEX
  5
168
  8
THROUGH_CUT
 10
30.27746297563992
 20
35.48282999999999
 30
0.0
  0
VERTEX
  5
169
  8
THROUGH_CUT
 10
30.30176597563992
 20
35.460458
 30
0.0
  0
VERTEX
  5
16A
  8
THROUGH_CUT
 10
30.32205397563992
 20
35.43439099999999
 30
0.0
  0
VERTEX
  5
16B
  8
THROUGH_CUT
 10
30.3377759756399
 20
35.40534099999999
 30
0.0
  0
VERTEX
  5
16C
  8
THROUGH_CUT
 10
30.34850097563991
 20
35.374099
 30
0.0
  0
VERTEX
  5
16D
  8
THROUGH_CUT
 10
30.35393797563991
 20
35.34151799999999
 30
0.0
  0
VERTEX
  5
16E
  8
THROUGH_CUT
 10
30.35393797563991
 20
35.308486
 30
0.0
  0
VERTEX
  5
16F
  8
THROUGH_CUT
 10
30.34850097563991
 20
35.27590499999999
 30
0.0
  0
VERTEX
  5
170
  8
THROUGH_CUT
 10
30.3377759756399
 20
35.244663
 30
0.0
  0
VERTEX
  5
171
  8
THROUGH_CUT
 10
30.32205397563992
 20
35.21561199999999
 30
0.0
  0
VERTEX
  5
172
  8
THROUGH_CUT
 10
30.30176597563992
 20
35.189545
 30
0.0
  0
VERTEX
  5
173
  8
THROUGH_CUT
 10
30.27746297563992
 20
35.167174
 30
0.0
  0
VERTEX
  5
174
  8
THROUGH_CUT
 10
30.24980997563991
 20
35.149107
 30
0.0
  0
VERTEX
  5
175
  8
THROUGH_CUT
 10
30.21956097563991
 20
35.13583799999999
 30
0.0
  0
VERTEX
  5
176
  8
THROUGH_CUT
 10
30.18753997563989
 20
35.12773
 30
0.0
  0
VERTEX
  5
177
  8
THROUGH_CUT
 10
30.1546209756399
 20
35.12500199999999
 30
0.0
  0
VERTEX
  5
178
  8
THROUGH_CUT
 10
29.4046209756399
 20
35.12500199999999
 30
0.0
  0
VERTEX
  5
179
  8
THROUGH_CUT
 10
29.37170197563991
 20
35.12773
 30
0.0
  0
VERTEX
  5
17A
  8
THROUGH_CUT
 10
29.33968097563992
 20
35.13583799999999
 30
0.0
  0
VERTEX
  5
17B
  8
THROUGH_CUT
 10
29.3094309756399
 20
35.149107
 30
0.0
  0
VERTEX
  5
17C
  8
THROUGH_CUT
 10
29.28177797563991
 20
35.167174
 30
0.0
  0
VERTEX
  5
17D
  8
THROUGH_CUT
 10
29.25747597563991
 20
35.189545
 30
0.0
  0
VERTEX
  5
17E
  8
THROUGH_CUT
 10
29.23718797563991
 20
35.21561199999999
 30
0.0
  0
VERTEX
  5
17F
  8
THROUGH_CUT
 10
29.2214659756399
 20
35.244663
 30
0.0
  0
VERTEX
  5
180
  8
THROUGH_CUT
 10
29.21074097563992
 20
35.27590499999999
 30
0.0
  0
VERTEX
  5
181
  8
THROUGH_CUT
 10
29.20530397563989
 20
35.308486
 30
0.0
  0
VERTEX
  5
182
  8
THROUGH_CUT
 10
29.20530397563989
 20
35.34151799999999
 30
0.0
  0
VERTEX
  5
183
  8
THROUGH_CUT
 10
29.21074097563992
 20
35.374099
 30
0.0
  0
VERTEX
  5
184
  8
THROUGH_CUT
 10
29.2214659756399
 20
35.40534099999999
 30
0.0
  0
VERTEX
  5
185
  8
THROUGH_CUT
 10
29.23718797563991
 20
35.43439099999999
 30
0.0
  0
VERTEX
  5
186
  8
THROUGH_CUT
 10
29.25747597563991
 20
35.460458
 30
0.0
  0
VERTEX
  5
187
  8
THROUGH_CUT
 10
29.28177797563991
 20
35.48282999999999
 30
0.0
  0
VERTEX
  5
188
  8
THROUGH_CUT
 10
29.3094309756399
 20
35.50089699999999
 30
0.0
  0
VERTEX
  5
189
  8
THROUGH_CUT
 10
29.33968097563992
 20
35.51416499999999
 30
0.0
  0
VERTEX
  5
18A
  8
THROUGH_CUT
 10
29.37170197563991
 20
35.522274
 30
0.0
  0
VERTEX
  5
18B
  8
THROUGH_CUT
 10
29.4046209756399
 20
35.525002
 30
0.0
  0
VERTEX
  5
18C
  8
THROUGH_CUT
 10
29.4046209756399
 20
39.12500199999999
 30
0.0
  0
VERTEX
  5
18D
  8
THROUGH_CUT
 10
8.1546209756399
 20
39.12500199999999
 30
0.0
  0
VERTEX
  5
18E
  8
THROUGH_CUT
 10
8.1546209756399
 20
35.525002
 30
0.0
  0
VERTEX
  5
18F
  8
THROUGH_CUT
 10
8.187539975639922
 20
35.522274
 30
0.0
  0
VERTEX
  5
190
  8
THROUGH_CUT
 10
8.219560975639908
 20
35.51416499999999
 30
0.0
  0
VERTEX
  5
191
  8
THROUGH_CUT
 10
8.249809975639906
 20
35.50089699999999
 30
0.0
  0
VERTEX
  5
192
  8
THROUGH_CUT
 10
8.27746297563992
 20
35.48282999999999
 30
0.0
  0
VERTEX
  5
193
  8
THROUGH_CUT
 10
8.301765975639924
 20
35.460458
 30
0.0
  0
VERTEX
  5
194
  8
THROUGH_CUT
 10
8.322053975639918
 20
35.43439099999999
 30
0.0
  0
VERTEX
  5
195
  8
THROUGH_CUT
 10
8.3377759756399
 20
35.40534099999999
 30
0.0
  0
VERTEX
  5
196
  8
THROUGH_CUT
 10
8.348500975639908
 20
35.374099
 30
0.0
  0
VERTEX
  5
197
  8
THROUGH_CUT
 10
8.353937975639909
 20
35.34151799999999
 30
0.0
  0
VERTEX
  5
198
  8
THROUGH_CUT
 10
8.353937975639909
 20
35.308486
 30
0.0
  0
VERTEX
  5
199
  8
THROUGH_CUT
 10
8.348500975639908
 20
35.27590499999999
 30
0.0
  0
VERTEX
  5
19A
  8
THROUGH_CUT
 10
8.3377759756399
 20
35.244663
 30
0.0
  0
VERTEX
  5
19B
  8
THROUGH_CUT
 10
8.322053975639918
 20
35.21561199999999
 30
0.0
  0
VERTEX
  5
19C
  8
THROUGH_CUT
 10
8.301765975639924
 20
35.189545
 30
0.0
  0
VERTEX
  5
19D
  8
THROUGH_CUT
 10
8.27746297563992
 20
35.167174
 30
0.0
  0
VERTEX
  5
19E
  8
THROUGH_CUT
 10
8.249809975639906
 20
35.149107
 30
0.0
  0
VERTEX
  5
19F
  8
THROUGH_CUT
 10
8.219560975639908
 20
35.13583799999999
 30
0.0
  0
VERTEX
  5
1A0
  8
THROUGH_CUT
 10
8.187539975639922
 20
35.12773
 30
0.0
  0
VERTEX
  5
1A1
  8
THROUGH_CUT
 10
8.1546209756399
 20
35.12500199999999
 30
0.0
  0
VERTEX
  5
1A2
  8
THROUGH_CUT
 10
7.404620975639901
 20
35.12500199999999
 30
0.0
  0
VERTEX
  5
1A3
  8
THROUGH_CUT
 10
7.371701975639908
 20
35.12773
 30
0.0
  0
VERTEX
  5
1A4
  8
THROUGH_CUT
 10
7.339680975639922
 20
35.13583799999999
 30
0.0
  0
VERTEX
  5
1A5
  8
THROUGH_CUT
 10
7.309430975639899
 20
35.149107
 30
0.0
  0
VERTEX
  5
1A6
  8
THROUGH_CUT
 10
7.281777975639912
 20
35.167174
 30
0.0
  0
VERTEX
  5
1A7
  8
THROUGH_CUT
 10
7.257475975639906
 20
35.189545
 30
0.0
  0
VERTEX
  5
1A8
  8
THROUGH_CUT
 10
7.237187975639912
 20
35.21561199999999
 30
0.0
  0
VERTEX
  5
1A9
  8
THROUGH_CUT
 10
7.221465975639902
 20
35.244663
 30
0.0
  0
VERTEX
  5
1AA
  8
THROUGH_CUT
 10
7.210740975639922
 20
35.27590499999999
 30
0.0
  0
VERTEX
  5
1AB
  8
THROUGH_CUT
 10
7.205303975639922
 20
35.308486
 30
0.0
  0
VERTEX
  5
1AC
  8
THROUGH_CUT
 10
7.205303975639922
 20
35.34151799999999
 30
0.0
  0
VERTEX
  5
1AD
  8
THROUGH_CUT
 10
7.210740975639922
 20
35.374099
 30
0.0
  0
VERTEX
  5
1AE
  8
THROUGH_CUT
 10
7.221465975639902
 20
35.40534099999999
 30
0.0
  0
VERTEX
  5
1AF
  8
THROUGH_CUT
 10
7.237187975639912
 20
35.43439099999999
 30
0.0
  0
VERTEX
  5
1B0
  8
THROUGH_CUT
 10
7.257475975639906
 20
35.460458
 30
0.0
  0
VERTEX
  5
1B1
  8
THROUGH_CUT
 10
7.281777975639912
 20
35.48282999999999
 30
0.0
  0
VERTEX
  5
1B2
  8
THROUGH_CUT
 10
7.309430975639899
 20
35.50089699999999
 30
0.0
  0
VERTEX
  5
1B3
  8
THROUGH_CUT
 10
7.339680975639922
 20
35.51416499999999
 30
0.0
  0
VERTEX
  5
1B4
  8
THROUGH_CUT
 10
7.371701975639908
 20
35.522274
 30
0.0
  0
VERTEX
  5
1B5
  8
THROUGH_CUT
 10
7.404620975639901
 20
35.525002
 30
0.0
  0
VERTEX
  5
1B6
  8
THROUGH_CUT
 10
7.404620975639901
 20
39.12500199999999
 30
0.0
  0
VERTEX
  5
1B7
  8
THROUGH_CUT
 10
5.261538975639908
 20
39.12500199999999
 30
0.0
  0
VERTEX
  5
1B8
  8
THROUGH_CUT
 10
5.261538975639908
 20
37.40784499999999
 30
0.0
  0
VERTEX
  5
1B9
  8
THROUGH_CUT
 10
5.283947975639919
 20
37.38113899999999
 30
0.0
  0
VERTEX
  5
1BA
  8
THROUGH_CUT
 10
5.301379975639904
 20
37.35094699999999
 30
0.0
  0
VERTEX
  5
1BB
  8
THROUGH_CUT
 10
5.3133029756399
 20
37.31818699999999
 30
0.0
  0
VERTEX
  5
1BC
  8
THROUGH_CUT
 10
5.319356975639906
 20
37.283855
 30
0.0
  0
VERTEX
  5
1BD
  8
THROUGH_CUT
 10
5.319356975639906
 20
37.248993
 30
0.0
  0
VERTEX
  5
1BE
  8
THROUGH_CUT
 10
5.3133029756399
 20
37.21465999999999
 30
0.0
  0
VERTEX
  5
1BF
  8
THROUGH_CUT
 10
5.301379975639904
 20
37.1819
 30
0.0
  0
VERTEX
  5
1C0
  8
THROUGH_CUT
 10
5.283948975639916
 20
37.151708
 30
0.0
  0
VERTEX
  5
1C1
  8
THROUGH_CUT
 10
5.261539975639906
 20
37.12500199999999
 30
0.0
  0
VERTEX
  5
1C2
  8
THROUGH_CUT
 10
5.234833975639916
 20
37.102593
 30
0.0
  0
VERTEX
  5
1C3
  8
THROUGH_CUT
 10
5.204641975639916
 20
37.085162
 30
0.0
  0
VERTEX
  5
1C4
  8
THROUGH_CUT
 10
5.17188197563992
 20
37.073238
 30
0.0
  0
VERTEX
  5
1C5
  8
THROUGH_CUT
 10
5.137549975639914
 20
37.06718499999999
 30
0.0
  0
VERTEX
  5
1C6
  8
THROUGH_CUT
 10
5.102686975639912
 20
37.067184
 30
0.0
  0
VERTEX
  5
1C7
  8
THROUGH_CUT
 10
5.068354975639906
 20
37.073238
 30
0.0
  0
VERTEX
  5
1C8
  8
THROUGH_CUT
 10
5.03559497563991
 20
37.085162
 30
0.0
  0
VERTEX
  5
1C9
  8
THROUGH_CUT
 10
5.00540297563991
 20
37.102593
 30
0.0
  0
VERTEX
  5
1CA
  8
THROUGH_CUT
 10
4.97869697563992
 20
37.12500199999999
 30
0.0
  0
VERTEX
  5
1CB
  8
THROUGH_CUT
 10
3.999742975639904
 20
37.12500199999999
 30
0.0
 42
0.4142135623731007
  0
VERTEX
  5
1CC
  8
THROUGH_CUT
 10
3.499742975639904
 20
36.62500199999999
 30
0.0
  0
VERTEX
  5
1CD
  8
THROUGH_CUT
 10
3.499742975639904
 20
33.62500199999999
 30
0.0
 42
0.4142135623731007
  0
VERTEX
  5
1CE
  8
THROUGH_CUT
 10
3.999742975639904
 20
33.12500199999999
 30
0.0
  0
VERTEX
  5
1CF
  8
THROUGH_CUT
 10
4.97869697563992
 20
33.12500199999999
 30
0.0
  0
VERTEX
  5
1D0
  8
THROUGH_CUT
 10
5.003902975639917
 20
33.14635
 30
0.0
  0
VERTEX
  5
1D1
  8
THROUGH_CUT
 10
5.032278975639898
 20
33.163259
 30
0.0
  0
VERTEX
  5
1D2
  8
THROUGH_CUT
 10
5.063050975639911
 20
33.17526599999999
 30
0.0
  0
VERTEX
  5
1D3
  8
THROUGH_CUT
 10
5.095379975639915
 20
33.18204399999999
 30
0.0
  0
VERTEX
  5
1D4
  8
THROUGH_CUT
 10
5.12838397563992
 20
33.183409
 30
0.0
  0
VERTEX
  5
1D5
  8
THROUGH_CUT
 10
5.161161975639899
 20
33.179323
 30
0.0
  0
VERTEX
  5
1D6
  8
THROUGH_CUT
 10
5.192819975639921
 20
33.169898
 30
0.0
  0
VERTEX
  5
1D7
  8
THROUGH_CUT
 10
5.222495975639916
 20
33.15539099999999
 30
0.0
  0
VERTEX
  5
1D8
  8
THROUGH_CUT
 10
5.249377975639916
 20
33.136197
 30
0.0
  0
VERTEX
  5
1D9
  8
THROUGH_CUT
 10
5.272734975639921
 20
33.11283999999999
 30
0.0
  0
VERTEX
  5
1DA
  8
THROUGH_CUT
 10
5.291928975639919
 20
33.08595699999999
 30
0.0
  0
VERTEX
  5
1DB
  8
THROUGH_CUT
 10
5.3064359756399
 20
33.056281
 30
0.0
  0
VERTEX
  5
1DC
  8
THROUGH_CUT
 10
5.315861975639919
 20
33.02462299999999
 30
0.0
  0
VERTEX
  5
1DD
  8
THROUGH_CUT
 10
5.319946975639922
 20
32.991845
 30
0.0
  0
VERTEX
  5
1DE
  8
THROUGH_CUT
 10
5.318581975639901
 20
32.95884099999999
 30
0.0
  0
VERTEX
  5
1DF
  8
THROUGH_CUT
 10
5.311803975639904
 20
32.926513
 30
0.0
  0
VERTEX
  5
1E0
  8
THROUGH_CUT
 10
5.299795975639896
 20
32.895741
 30
0.0
  0
VERTEX
  5
1E1
  8
THROUGH_CUT
 10
5.282887975639895
 20
32.86736499999999
 30
0.0
  0
VERTEX
  5
1E2
  8
THROUGH_CUT
 10
5.261538975639908
 20
32.842159
 30
0.0
  0
VERTEX
  5
1E3
  8
THROUGH_CUT
 10
5.261538975639908
 20
32.12500199999999
 30
0.0
  0
VERTEX
  5
1E4
  8
THROUGH_CUT
 10
84.77962097563992
 20
32.125001
 30
0.0
  0
VERTEX
  5
1E5
  8
THROUGH_CUT
 10
91.44462911488901
 20
34.19229212227364
 30
0.0
 42
0.73682312522516
  0
VERTEX
  5
1E6
  8
THROUGH_CUT
 10
91.44464599145988
 20
37.05761877950383
 30
0.0
  0
VERTEX
  5
1E7
  8
THROUGH_CUT
 10
84.77962097563992
 20
39.12500199999999
 30
0.0
  0
VERTEX
  5
1E8
  8
THROUGH_CUT
 10
74.15462097563992
 20
39.12500199999999
 30
0.0
  0
VERTEX
  5
1E9
  8
THROUGH_CUT
 10
74.15462097563992
 20
35.525002
 30
0.0
  0
VERTEX
  5
1EA
  8
THROUGH_CUT
 10
74.18753997563991
 20
35.522274
 30
0.0
  0
VERTEX
  5
1EB
  8
THROUGH_CUT
 10
74.21956097563991
 20
35.51416499999999
 30
0.0
  0
VERTEX
  5
1EC
  8
THROUGH_CUT
 10
74.2498099756399
 20
35.50089699999999
 30
0.0
  0
VERTEX
  5
1ED
  8
THROUGH_CUT
 10
74.2774629756399
 20
35.48282999999999
 30
0.0
  0
VERTEX
  5
1EE
  8
THROUGH_CUT
 10
74.30176597563991
 20
35.460458
 30
0.0
  0
VERTEX
  5
1EF
  8
THROUGH_CUT
 10
74.3220539756399
 20
35.43439099999999
 30
0.0
  0
VERTEX
  5
1F0
  8
THROUGH_CUT
 10
74.33777597563991
 20
35.40534099999999
 30
0.0
  0
VERTEX
  5
1F1
  8
THROUGH_CUT
 10
74.34850097563991
 20
35.374099
 30
0.0
  0
VERTEX
  5
1F2
  8
THROUGH_CUT
 10
74.35393797563991
 20
35.34151799999999
 30
0.0
  0
VERTEX
  5
1F3
  8
THROUGH_CUT
 10
74.35393797563991
 20
35.308486
 30
0.0
  0
VERTEX
  5
1F4
  8
THROUGH_CUT
 10
74.34850097563991
 20
35.27590499999999
 30
0.0
  0
VERTEX
  5
1F5
  8
THROUGH_CUT
 10
74.33777597563991
 20
35.244663
 30
0.0
  0
VERTEX
  5
1F6
  8
THROUGH_CUT
 10
74.3220539756399
 20
35.21561199999999
 30
0.0
  0
VERTEX
  5
1F7
  8
THROUGH_CUT
 10
74.30176597563991
 20
35.189545
 30
0.0
  0
VERTEX
  5
1F8
  8
THROUGH_CUT
 10
74.2774629756399
 20
35.167174
 30
0.0
  0
VERTEX
  5
1F9
  8
THROUGH_CUT
 10
74.2498099756399
 20
35.149107
 30
0.0
  0
VERTEX
  5
1FA
  8
THROUGH_CUT
 10
74.21956097563991
 20
35.13583799999999
 30
0.0
  0
VERTEX
  5
1FB
  8
THROUGH_CUT
 10
74.18753997563991
 20
35.12773
 30
0.0
  0
VERTEX
  5
1FC
  8
THROUGH_CUT
 10
74.15462097563992
 20
35.12500199999999
 30
0.0
  0
VERTEX
  5
1FD
  8
THROUGH_CUT
 10
73.40462097563992
 20
35.12500199999999
 30
0.0
  0
VERTEX
  5
1FE
  8
THROUGH_CUT
 10
73.37170197563991
 20
35.12773
 30
0.0
  0
VERTEX
  5
1FF
  8
THROUGH_CUT
 10
73.33968097563991
 20
35.13583799999999
 30
0.0
  0
VERTEX
  5
200
  8
THROUGH_CUT
 10
73.30943097563991
 20
35.149107
 30
0.0
  0
VERTEX
  5
201
  8
THROUGH_CUT
 10
73.28177797563991
 20
35.167174
 30
0.0
  0
VERTEX
  5
202
  8
THROUGH_CUT
 10
73.2574759756399
 20
35.189545
 30
0.0
  0
VERTEX
  5
203
  8
THROUGH_CUT
 10
73.23718797563991
 20
35.21561199999999
 30
0.0
  0
VERTEX
  5
204
  8
THROUGH_CUT
 10
73.22146597563992
 20
35.244663
 30
0.0
  0
VERTEX
  5
205
  8
THROUGH_CUT
 10
73.21074097563991
 20
35.27590499999999
 30
0.0
  0
VERTEX
  5
206
  8
THROUGH_CUT
 10
73.20530397563991
 20
35.308486
 30
0.0
  0
VERTEX
  5
207
  8
THROUGH_CUT
 10
73.20530397563991
 20
35.34151799999999
 30
0.0
  0
VERTEX
  5
208
  8
THROUGH_CUT
 10
73.21074097563991
 20
35.374099
 30
0.0
  0
VERTEX
  5
209
  8
THROUGH_CUT
 10
73.22146597563992
 20
35.40534099999999
 30
0.0
  0
VERTEX
  5
20A
  8
THROUGH_CUT
 10
73.23718797563991
 20
35.43439099999999
 30
0.0
  0
VERTEX
  5
20B
  8
THROUGH_CUT
 10
73.2574759756399
 20
35.460458
 30
0.0
  0
VERTEX
  5
20C
  8
THROUGH_CUT
 10
73.28177797563991
 20
35.48282999999999
 30
0.0
  0
VERTEX
  5
20D
  8
THROUGH_CUT
 10
73.30943097563991
 20
35.50089699999999
 30
0.0
  0
VERTEX
  5
20E
  8
THROUGH_CUT
 10
73.33968097563991
 20
35.51416499999999
 30
0.0
  0
VERTEX
  5
20F
  8
THROUGH_CUT
 10
73.37170197563991
 20
35.522274
 30
0.0
  0
VERTEX
  5
210
  8
THROUGH_CUT
 10
73.40462097563992
 20
35.525002
 30
0.0
  0
SEQEND
  5
211
  8
THROUGH_CUT
  0
POLYLINE
  5
52
  8
THROUGH_CUT
 66
     1
 10
0.0
 20
0.0
 30
0.0
 70
     1
  0
VERTEX
  5
212
  8
THROUGH_CUT
 10
73.40462097563992
 20
46.87500299999999
 30
0.0
  0
VERTEX
  5
213
  8
THROUGH_CUT
 10
52.1546209756399
 20
46.87500299999999
 30
0.0
  0
VERTEX
  5
214
  8
THROUGH_CUT
 10
52.1546209756399
 20
43.275003
 30
0.0
  0
VERTEX
  5
215
  8
THROUGH_CUT
 10
52.18753997563991
 20
43.27227499999999
 30
0.0
  0
VERTEX
  5
216
  8
THROUGH_CUT
 10
52.21956097563991
 20
43.26416599999999
 30
0.0
  0
VERTEX
  5
217
  8
THROUGH_CUT
 10
52.24980997563991
 20
43.25089799999999
 30
0.0
  0
VERTEX
  5
218
  8
THROUGH_CUT
 10
52.27746297563991
 20
43.23283099999999
 30
0.0
  0
VERTEX
  5
219
  8
THROUGH_CUT
 10
52.30176597563991
 20
43.210459
 30
0.0
  0
VERTEX
  5
21A
  8
THROUGH_CUT
 10
52.32205397563992
 20
43.18439199999999
 30
0.0
  0
VERTEX
  5
21B
  8
THROUGH_CUT
 10
52.3377759756399
 20
43.15534199999999
 30
0.0
  0
VERTEX
  5
21C
  8
THROUGH_CUT
 10
52.34850097563991
 20
43.1241
 30
0.0
  0
VERTEX
  5
21D
  8
THROUGH_CUT
 10
52.35393797563991
 20
43.09151899999999
 30
0.0
  0
VERTEX
  5
21E
  8
THROUGH_CUT
 10
52.35393797563991
 20
43.058487
 30
0.0
  0
VERTEX
  5
21F
  8
THROUGH_CUT
 10
52.34850097563991
 20
43.02590599999999
 30
0.0
  0
VERTEX
  5
220
  8
THROUGH_CUT
 10
52.3377759756399
 20
42.994664
 30
0.0
  0
VERTEX
  5
221
  8
THROUGH_CUT
 10
52.32205397563992
 20
42.96561299999999
 30
0.0
  0
VERTEX
  5
222
  8
THROUGH_CUT
 10
52.30176597563991
 20
42.93954599999999
 30
0.0
  0
VERTEX
  5
223
  8
THROUGH_CUT
 10
52.27746297563991
 20
42.917175
 30
0.0
  0
VERTEX
  5
224
  8
THROUGH_CUT
 10
52.24980997563991
 20
42.899108
 30
0.0
  0
VERTEX
  5
225
  8
THROUGH_CUT
 10
52.21956097563991
 20
42.88583899999999
 30
0.0
  0
VERTEX
  5
226
  8
THROUGH_CUT
 10
52.18753997563991
 20
42.877731
 30
0.0
  0
VERTEX
  5
227
  8
THROUGH_CUT
 10
52.1546209756399
 20
42.87500299999999
 30
0.0
  0
VERTEX
  5
228
  8
THROUGH_CUT
 10
51.4046209756399
 20
42.87500299999999
 30
0.0
  0
VERTEX
  5
229
  8
THROUGH_CUT
 10
51.37170197563991
 20
42.877731
 30
0.0
  0
VERTEX
  5
22A
  8
THROUGH_CUT
 10
51.33968097563991
 20
42.88583899999999
 30
0.0
  0
VERTEX
  5
22B
  8
THROUGH_CUT
 10
51.3094309756399
 20
42.899108
 30
0.0
  0
VERTEX
  5
22C
  8
THROUGH_CUT
 10
51.28177797563991
 20
42.917175
 30
0.0
  0
VERTEX
  5
22D
  8
THROUGH_CUT
 10
51.25747597563991
 20
42.93954599999999
 30
0.0
  0
VERTEX
  5
22E
  8
THROUGH_CUT
 10
51.23718797563991
 20
42.96561299999999
 30
0.0
  0
VERTEX
  5
22F
  8
THROUGH_CUT
 10
51.2214659756399
 20
42.994664
 30
0.0
  0
VERTEX
  5
230
  8
THROUGH_CUT
 10
51.21074097563991
 20
43.02590599999999
 30
0.0
  0
VERTEX
  5
231
  8
THROUGH_CUT
 10
51.20530397563991
 20
43.058487
 30
0.0
  0
VERTEX
  5
232
  8
THROUGH_CUT
 10
51.20530397563991
 20
43.09151899999999
 30
0.0
  0
VERTEX
  5
233
  8
THROUGH_CUT
 10
51.21074097563991
 20
43.1241
 30
0.0
  0
VERTEX
  5
234
  8
THROUGH_CUT
 10
51.2214659756399
 20
43.15534199999999
 30
0.0
  0
VERTEX
  5
235
  8
THROUGH_CUT
 10
51.23718797563991
 20
43.18439199999999
 30
0.0
  0
VERTEX
  5
236
  8
THROUGH_CUT
 10
51.25747597563991
 20
43.210459
 30
0.0
  0
VERTEX
  5
237
  8
THROUGH_CUT
 10
51.28177797563991
 20
43.23283099999999
 30
0.0
  0
VERTEX
  5
238
  8
THROUGH_CUT
 10
51.3094309756399
 20
43.25089799999999
 30
0.0
  0
VERTEX
  5
239
  8
THROUGH_CUT
 10
51.33968097563991
 20
43.26416599999999
 30
0.0
  0
VERTEX
  5
23A
  8
THROUGH_CUT
 10
51.37170197563991
 20
43.27227499999999
 30
0.0
  0
VERTEX
  5
23B
  8
THROUGH_CUT
 10
51.4046209756399
 20
43.275003
 30
0.0
  0
VERTEX
  5
23C
  8
THROUGH_CUT
 10
51.4046209756399
 20
46.87500299999999
 30
0.0
  0
VERTEX
  5
23D
  8
THROUGH_CUT
 10
30.1546209756399
 20
46.87500299999999
 30
0.0
  0
VERTEX
  5
23E
  8
THROUGH_CUT
 10
30.1546209756399
 20
43.275003
 30
0.0
  0
VERTEX
  5
23F
  8
THROUGH_CUT
 10
30.18753997563989
 20
43.27227499999999
 30
0.0
  0
VERTEX
  5
240
  8
THROUGH_CUT
 10
30.21956097563991
 20
43.26416599999999
 30
0.0
  0
VERTEX
  5
241
  8
THROUGH_CUT
 10
30.24980997563991
 20
43.25089799999999
 30
0.0
  0
VERTEX
  5
242
  8
THROUGH_CUT
 10
30.27746297563992
 20
43.23283099999999
 30
0.0
  0
VERTEX
  5
243
  8
THROUGH_CUT
 10
30.30176597563992
 20
43.210459
 30
0.0
  0
VERTEX
  5
244
  8
THROUGH_CUT
 10
30.32205397563992
 20
43.18439199999999
 30
0.0
  0
VERTEX
  5
245
  8
THROUGH_CUT
 10
30.3377759756399
 20
43.15534199999999
 30
0.0
  0
VERTEX
  5
246
  8
THROUGH_CUT
 10
30.34850097563991
 20
43.1241
 30
0.0
  0
VERTEX
  5
247
  8
THROUGH_CUT
 10
30.35393797563991
 20
43.09151899999999
 30
0.0
  0
VERTEX
  5
248
  8
THROUGH_CUT
 10
30.35393797563991
 20
43.058487
 30
0.0
  0
VERTEX
  5
249
  8
THROUGH_CUT
 10
30.34850097563991
 20
43.02590599999999
 30
0.0
  0
VERTEX
  5
24A
  8
THROUGH_CUT
 10
30.3377759756399
 20
42.994664
 30
0.0
  0
VERTEX
  5
24B
  8
THROUGH_CUT
 10
30.32205397563992
 20
42.96561299999999
 30
0.0
  0
VERTEX
  5
24C
  8
THROUGH_CUT
 10
30.30176597563992
 20
42.93954599999999
 30
0.0
  0
VERTEX
  5
24D
  8
THROUGH_CUT
 10
30.27746297563992
 20
42.917175
 30
0.0
  0
VERTEX
  5
24E
  8
THROUGH_CUT
 10
30.24980997563991
 20
42.899108
 30
0.0
  0
VERTEX
  5
24F
  8
THROUGH_CUT
 10
30.21956097563991
 20
42.88583899999999
 30
0.0
  0
VERTEX
  5
250
  8
THROUGH_CUT
 10
30.18753997563989
 20
42.877731
 30
0.0
  0
VERTEX
  5
251
  8
THROUGH_CUT
 10
30.1546209756399
 20
42.87500299999999
 30
0.0
  0
VERTEX
  5
252
  8
THROUGH_CUT
 10
29.4046209756399
 20
42.87500299999999
 30
0.0
  0
VERTEX
  5
253
  8
THROUGH_CUT
 10
29.37170197563991
 20
42.877731
 30
0.0
  0
VERTEX
  5
254
  8
THROUGH_CUT
 10
29.33968097563992
 20
42.88583899999999
 30
0.0
  0
VERTEX
  5
255
  8
THROUGH_CUT
 10
29.3094309756399
 20
42.899108
 30
0.0
  0
VERTEX
  5
256
  8
THROUGH_CUT
 10
29.28177797563991
 20
42.917175
 30
0.0
  0
VERTEX
  5
257
  8
THROUGH_CUT
 10
29.25747597563991
 20
42.93954599999999
 30
0.0
  0
VERTEX
  5
258
  8
THROUGH_CUT
 10
29.23718797563991
 20
42.96561299999999
 30
0.0
  0
VERTEX
  5
259
  8
THROUGH_CUT
 10
29.2214659756399
 20
42.994664
 30
0.0
  0
VERTEX
  5
25A
  8
THROUGH_CUT
 10
29.21074097563992
 20
43.02590599999999
 30
0.0
  0
VERTEX
  5
25B
  8
THROUGH_CUT
 10
29.20530397563989
 20
43.058487
 30
0.0
  0
VERTEX
  5
25C
  8
THROUGH_CUT
 10
29.20530397563989
 20
43.09151899999999
 30
0.0
  0
VERTEX
  5
25D
  8
THROUGH_CUT
 10
29.21074097563992
 20
43.1241
 30
0.0
  0
VERTEX
  5
25E
  8
THROUGH_CUT
 10
29.2214659756399
 20
43.15534199999999
 30
0.0
  0
VERTEX
  5
25F
  8
THROUGH_CUT
 10
29.23718797563991
 20
43.18439199999999
 30
0.0
  0
VERTEX
  5
260
  8
THROUGH_CUT
 10
29.25747597563991
 20
43.210459
 30
0.0
  0
VERTEX
  5
261
  8
THROUGH_CUT
 10
29.28177797563991
 20
43.23283099999999
 30
0.0
  0
VERTEX
  5
262
  8
THROUGH_CUT
 10
29.3094309756399
 20
43.25089799999999
 30
0.0
  0
VERTEX
  5
263
  8
THROUGH_CUT
 10
29.33968097563992
 20
43.26416599999999
 30
0.0
  0
VERTEX
  5
264
  8
THROUGH_CUT
 10
29.37170197563991
 20
43.27227499999999
 30
0.0
  0
VERTEX
  5
265
  8
THROUGH_CUT
 10
29.4046209756399
 20
43.275003
 30
0.0
  0
VERTEX
  5
266
  8
THROUGH_CUT
 10
29.4046209756399
 20
46.87500299999999
 30
0.0
  0
VERTEX
  5
267
  8
THROUGH_CUT
 10
8.1546209756399
 20
46.87500299999999
 30
0.0
  0
VERTEX
  5
268
  8
THROUGH_CUT
 10
8.1546209756399
 20
43.275003
 30
0.0
  0
VERTEX
  5
269
  8
THROUGH_CUT
 10
8.187539975639922
 20
43.27227499999999
 30
0.0
  0
VERTEX
  5
26A
  8
THROUGH_CUT
 10
8.219560975639908
 20
43.26416599999999
 30
0.0
  0
VERTEX
  5
26B
  8
THROUGH_CUT
 10
8.249809975639906
 20
43.25089799999999
 30
0.0
  0
VERTEX
  5
26C
  8
THROUGH_CUT
 10
8.27746297563992
 20
43.23283099999999
 30
0.0
  0
VERTEX
  5
26D
  8
THROUGH_CUT
 10
8.301765975639924
 20
43.210459
 30
0.0
  0
VERTEX
  5
26E
  8
THROUGH_CUT
 10
8.322053975639918
 20
43.18439199999999
 30
0.0
  0
VERTEX
  5
26F
  8
THROUGH_CUT
 10
8.3377759756399
 20
43.15534199999999
 30
0.0
  0
VERTEX
  5
270
  8
THROUGH_CUT
 10
8.348500975639908
 20
43.1241
 30
0.0
  0
VERTEX
  5
271
  8
THROUGH_CUT
 10
8.353937975639909
 20
43.09151899999999
 30
0.0
  0
VERTEX
  5
272
  8
THROUGH_CUT
 10
8.353937975639909
 20
43.058487
 30
0.0
  0
VERTEX
  5
273
  8
THROUGH_CUT
 10
8.348500975639908
 20
43.02590599999999
 30
0.0
  0
VERTEX
  5
274
  8
THROUGH_CUT
 10
8.3377759756399
 20
42.994664
 30
0.0
  0
VERTEX
  5
275
  8
THROUGH_CUT
 10
8.322053975639918
 20
42.96561299999999
 30
0.0
  0
VERTEX
  5
276
  8
THROUGH_CUT
 10
8.301765975639924
 20
42.93954599999999
 30
0.0
  0
VERTEX
  5
277
  8
THROUGH_CUT
 10
8.27746297563992
 20
42.917175
 30
0.0
  0
VERTEX
  5
278
  8
THROUGH_CUT
 10
8.249809975639906
 20
42.899108
 30
0.0
  0
VERTEX
  5
279
  8
THROUGH_CUT
 10
8.219560975639908
 20
42.88583899999999
 30
0.0
  0
VERTEX
  5
27A
  8
THROUGH_CUT
 10
8.187539975639922
 20
42.877731
 30
0.0
  0
VERTEX
  5
27B
  8
THROUGH_CUT
 10
8.1546209756399
 20
42.87500299999999
 30
0.0
  0
VERTEX
  5
27C
  8
THROUGH_CUT
 10
7.404620975639901
 20
42.87500299999999
 30
0.0
  0
VERTEX
  5
27D
  8
THROUGH_CUT
 10
7.371701975639908
 20
42.877731
 30
0.0
  0
VERTEX
  5
27E
  8
THROUGH_CUT
 10
7.339680975639922
 20
42.88583899999999
 30
0.0
  0
VERTEX
  5
27F
  8
THROUGH_CUT
 10
7.309430975639899
 20
42.899108
 30
0.0
  0
VERTEX
  5
280
  8
THROUGH_CUT
 10
7.281777975639912
 20
42.917175
 30
0.0
  0
VERTEX
  5
281
  8
THROUGH_CUT
 10
7.257475975639906
 20
42.93954599999999
 30
0.0
  0
VERTEX
  5
282
  8
THROUGH_CUT
 10
7.237187975639912
 20
42.96561299999999
 30
0.0
  0
VERTEX
  5
283
  8
THROUGH_CUT
 10
7.221465975639902
 20
42.994664
 30
0.0
  0
VERTEX
  5
284
  8
THROUGH_CUT
 10
7.210740975639922
 20
43.02590599999999
 30
0.0
  0
VERTEX
  5
285
  8
THROUGH_CUT
 10
7.205303975639922
 20
43.058487
 30
0.0
  0
VERTEX
  5
286
  8
THROUGH_CUT
 10
7.205303975639922
 20
43.09151899999999
 30
0.0
  0
VERTEX
  5
287
  8
THROUGH_CUT
 10
7.210740975639922
 20
43.1241
 30
0.0
  0
VERTEX
  5
288
  8
THROUGH_CUT
 10
7.221465975639902
 20
43.15534199999999
 30
0.0
  0
VERTEX
  5
289
  8
THROUGH_CUT
 10
7.237187975639912
 20
43.18439199999999
 30
0.0
  0
VERTEX
  5
28A
  8
THROUGH_CUT
 10
7.257475975639906
 20
43.210459
 30
0.0
  0
VERTEX
  5
28B
  8
THROUGH_CUT
 10
7.281777975639912
 20
43.23283099999999
 30
0.0
  0
VERTEX
  5
28C
  8
THROUGH_CUT
 10
7.309430975639899
 20
43.25089799999999
 30
0.0
  0
VERTEX
  5
28D
  8
THROUGH_CUT
 10
7.339680975639922
 20
43.26416599999999
 30
0.0
  0
VERTEX
  5
28E
  8
THROUGH_CUT
 10
7.371701975639908
 20
43.27227499999999
 30
0.0
  0
VERTEX
  5
28F
  8
THROUGH_CUT
 10
7.404620975639901
 20
43.275003
 30
0.0
  0
VERTEX
  5
290
  8
THROUGH_CUT
 10
7.404620975639901
 20
46.87500299999999
 30
0.0
  0
VERTEX
  5
291
  8
THROUGH_CUT
 10
5.261538975639908
 20
46.87500299999999
 30
0.0
  0
VERTEX
  5
292
  8
THROUGH_CUT
 10
5.261538975639908
 20
45.15784599999999
 30
0.0
  0
VERTEX
  5
293
  8
THROUGH_CUT
 10
5.283947975639919
 20
45.13113999999999
 30
0.0
  0
VERTEX
  5
294
  8
THROUGH_CUT
 10
5.301379975639904
 20
45.10094799999999
 30
0.0
  0
VERTEX
  5
295
  8
THROUGH_CUT
 10
5.3133029756399
 20
45.06818799999999
 30
0.0
  0
VERTEX
  5
296
  8
THROUGH_CUT
 10
5.319356975639906
 20
45.033856
 30
0.0
  0
VERTEX
  5
297
  8
THROUGH_CUT
 10
5.319356975639906
 20
44.998994
 30
0.0
  0
VERTEX
  5
298
  8
THROUGH_CUT
 10
5.3133029756399
 20
44.96466099999999
 30
0.0
  0
VERTEX
  5
299
  8
THROUGH_CUT
 10
5.301379975639904
 20
44.931901
 30
0.0
  0
VERTEX
  5
29A
  8
THROUGH_CUT
 10
5.283948975639916
 20
44.901709
 30
0.0
  0
VERTEX
  5
29B
  8
THROUGH_CUT
 10
5.261539975639906
 20
44.87500299999999
 30
0.0
  0
VERTEX
  5
29C
  8
THROUGH_CUT
 10
5.234833975639916
 20
44.852594
 30
0.0
  0
VERTEX
  5
29D
  8
THROUGH_CUT
 10
5.204641975639916
 20
44.83516299999999
 30
0.0
  0
VERTEX
  5
29E
  8
THROUGH_CUT
 10
5.17188197563992
 20
44.823239
 30
0.0
  0
VERTEX
  5
29F
  8
THROUGH_CUT
 10
5.137549975639914
 20
44.81718599999999
 30
0.0
  0
VERTEX
  5
2A0
  8
THROUGH_CUT
 10
5.102686975639912
 20
44.81718499999999
 30
0.0
  0
VERTEX
  5
2A1
  8
THROUGH_CUT
 10
5.068354975639906
 20
44.823239
 30
0.0
  0
VERTEX
  5
2A2
  8
THROUGH_CUT
 10
5.03559497563991
 20
44.83516299999999
 30
0.0
  0
VERTEX
  5
2A3
  8
THROUGH_CUT
 10
5.00540297563991
 20
44.852594
 30
0.0
  0
VERTEX
  5
2A4
  8
THROUGH_CUT
 10
4.97869697563992
 20
44.87500299999999
 30
0.0
  0
VERTEX
  5
2A5
  8
THROUGH_CUT
 10
3.999742975639904
 20
44.87500299999999
 30
0.0
 42
0.4142135623731007
  0
VERTEX
  5
2A6
  8
THROUGH_CUT
 10
3.499742975639904
 20
44.37500299999999
 30
0.0
  0
VERTEX
  5
2A7
  8
THROUGH_CUT
 10
3.499742975639904
 20
41.37500299999999
 30
0.0
 42
0.4142135623731007
  0
VERTEX
  5
2A8
  8
THROUGH_CUT
 10
3.999742975639904
 20
40.87500299999999
 30
0.0
  0
VERTEX
  5
2A9
  8
THROUGH_CUT
 10
4.97869697563992
 20
40.87500299999999
 30
0.0
  0
VERTEX
  5
2AA
  8
THROUGH_CUT
 10
5.003902975639917
 20
40.896351
 30
0.0
  0
VERTEX
  5
2AB
  8
THROUGH_CUT
 10
5.032278975639898
 20
40.91325999999999
 30
0.0
  0
VERTEX
  5
2AC
  8
THROUGH_CUT
 10
5.063050975639911
 20
40.92526699999999
 30
0.0
  0
VERTEX
  5
2AD
  8
THROUGH_CUT
 10
5.095379975639915
 20
40.93204499999999
 30
0.0
  0
VERTEX
  5
2AE
  8
THROUGH_CUT
 10
5.12838397563992
 20
40.93340999999999
 30
0.0
  0
VERTEX
  5
2AF
  8
THROUGH_CUT
 10
5.161161975639899
 20
40.92932399999999
 30
0.0
  0
VERTEX
  5
2B0
  8
THROUGH_CUT
 10
5.192819975639921
 20
40.919899
 30
0.0
  0
VERTEX
  5
2B1
  8
THROUGH_CUT
 10
5.222495975639916
 20
40.90539199999999
 30
0.0
  0
VERTEX
  5
2B2
  8
THROUGH_CUT
 10
5.249377975639916
 20
40.88619799999999
 30
0.0
  0
VERTEX
  5
2B3
  8
THROUGH_CUT
 10
5.272734975639921
 20
40.86284099999999
 30
0.0
  0
VERTEX
  5
2B4
  8
THROUGH_CUT
 10
5.291928975639919
 20
40.83595799999999
 30
0.0
  0
VERTEX
  5
2B5
  8
THROUGH_CUT
 10
5.3064359756399
 20
40.806282
 30
0.0
  0
VERTEX
  5
2B6
  8
THROUGH_CUT
 10
5.315861975639919
 20
40.77462399999999
 30
0.0
  0
VERTEX
  5
2B7
  8
THROUGH_CUT
 10
5.319946975639922
 20
40.741846
 30
0.0
  0
VERTEX
  5
2B8
  8
THROUGH_CUT
 10
5.318581975639901
 20
40.70884199999999
 30
0.0
  0
VERTEX
  5
2B9
  8
THROUGH_CUT
 10
5.311803975639904
 20
40.676514
 30
0.0
  0
VERTEX
  5
2BA
  8
THROUGH_CUT
 10
5.299795975639896
 20
40.645742
 30
0.0
  0
VERTEX
  5
2BB
  8
THROUGH_CUT
 10
5.282887975639895
 20
40.61736599999999
 30
0.0
  0
VERTEX
  5
2BC
  8
THROUGH_CUT
 10
5.261538975639908
 20
40.59215999999999
 30
0.0
  0
VERTEX
  5
2BD
  8
THROUGH_CUT
 10
5.261538975639908
 20
39.87500299999999
 30
0.0
  0
VERTEX
  5
2BE
  8
THROUGH_CUT
 10
84.77962097563992
 20
39.87500199999999
 30
0.0
  0
VERTEX
  5
2BF
  8
THROUGH_CUT
 10
91.44462911488901
 20
41.94229312227364
 30
0.0
 42
0.7368231252251604
  0
VERTEX
  5
2C0
  8
THROUGH_CUT
 10
91.44464599145988
 20
44.80761977950383
 30
0.0
  0
VERTEX
  5
2C1
  8
THROUGH_CUT
 10
84.77962097563992
 20
46.87500299999999
 30
0.0
  0
VERTEX
  5
2C2
  8
THROUGH_CUT
 10
74.15462097563992
 20
46.87500299999999
 30
0.0
  0
VERTEX
  5
2C3
  8
THROUGH_CUT
 10
74.15462097563992
 20
43.275003
 30
0.0
  0
VERTEX
  5
2C4
  8
THROUGH_CUT
 10
74.18753997563991
 20
43.27227499999999
 30
0.0
  0
VERTEX
  5
2C5
  8
THROUGH_CUT
 10
74.21956097563991
 20
43.26416599999999
 30
0.0
  0
VERTEX
  5
2C6
  8
THROUGH_CUT
 10
74.2498099756399
 20
43.25089799999999
 30
0.0
  0
VERTEX
  5
2C7
  8
THROUGH_CUT
 10
74.2774629756399
 20
43.23283099999999
 30
0.0
  0
VERTEX
  5
2C8
  8
THROUGH_CUT
 10
74.30176597563991
 20
43.210459
 30
0.0
  0
VERTEX
  5
2C9
  8
THROUGH_CUT
 10
74.3220539756399
 20
43.18439199999999
 30
0.0
  0
VERTEX
  5
2CA
  8
THROUGH_CUT
 10
74.33777597563991
 20
43.15534199999999
 30
0.0
  0
VERTEX
  5
2CB
  8
THROUGH_CUT
 10
74.34850097563991
 20
43.1241
 30
0.0
  0
VERTEX
  5
2CC
  8
THROUGH_CUT
 10
74.35393797563991
 20
43.09151899999999
 30
0.0
  0
VERTEX
  5
2CD
  8
THROUGH_CUT
 10
74.35393797563991
 20
43.058487
 30
0.0
  0
VERTEX
  5
2CE
  8
THROUGH_CUT
 10
74.34850097563991
 20
43.02590599999999
 30
0.0
  0
VERTEX
  5
2CF
  8
THROUGH_CUT
 10
74.33777597563991
 20
42.994664
 30
0.0
  0
VERTEX
  5
2D0
  8
THROUGH_CUT
 10
74.3220539756399
 20
42.96561299999999
 30
0.0
  0
VERTEX
  5
2D1
  8
THROUGH_CUT
 10
74.30176597563991
 20
42.93954599999999
 30
0.0
  0
VERTEX
  5
2D2
  8
THROUGH_CUT
 10
74.2774629756399
 20
42.917175
 30
0.0
  0
VERTEX
  5
2D3
  8
THROUGH_CUT
 10
74.2498099756399
 20
42.899108
 30
0.0
  0
VERTEX
  5
2D4
  8
THROUGH_CUT
 10
74.21956097563991
 20
42.88583899999999
 30
0.0
  0
VERTEX
  5
2D5
  8
THROUGH_CUT
 10
74.18753997563991
 20
42.877731
 30
0.0
  0
VERTEX
  5
2D6
  8
THROUGH_CUT
 10
74.15462097563992
 20
42.87500299999999
 30
0.0
  0
VERTEX
  5
2D7
  8
THROUGH_CUT
 10
73.40462097563992
 20
42.87500299999999
 30
0.0
  0
VERTEX
  5
2D8
  8
THROUGH_CUT
 10
73.37170197563991
 20
42.877731
 30
0.0
  0
VERTEX
  5
2D9
  8
THROUGH_CUT
 10
73.33968097563991
 20
42.88583899999999
 30
0.0
  0
VERTEX
  5
2DA
  8
THROUGH_CUT
 10
73.30943097563991
 20
42.899108
 30
0.0
  0
VERTEX
  5
2DB
  8
THROUGH_CUT
 10
73.28177797563991
 20
42.917175
 30
0.0
  0
VERTEX
  5
2DC
  8
THROUGH_CUT
 10
73.2574759756399
 20
42.93954599999999
 30
0.0
  0
VERTEX
  5
2DD
  8
THROUGH_CUT
 10
73.23718797563991
 20
42.96561299999999
 30
0.0
  0
VERTEX
  5
2DE
  8
THROUGH_CUT
 10
73.22146597563992
 20
42.994664
 30
0.0
  0
VERTEX
  5
2DF
  8
THROUGH_CUT
 10
73.21074097563991
 20
43.02590599999999
 30
0.0
  0
VERTEX
  5
2E0
  8
THROUGH_CUT
 10
73.20530397563991
 20
43.058487
 30
0.0
  0
VERTEX
  5
2E1
  8
THROUGH_CUT
 10
73.20530397563991
 20
43.09151899999999
 30
0.0
  0
VERTEX
  5
2E2
  8
THROUGH_CUT
 10
73.21074097563991
 20
43.1241
 30
0.0
  0
VERTEX
  5
2E3
  8
THROUGH_CUT
 10
73.22146597563992
 20
43.15534199999999
 30
0.0
  0
VERTEX
  5
2E4
  8
THROUGH_CUT
 10
73.23718797563991
 20
43.18439199999999
 30
0.0
  0
VERTEX
  5
2E5
  8
THROUGH_CUT
 10
73.2574759756399
 20
43.210459
 30
0.0
  0
VERTEX
  5
2E6
  8
THROUGH_CUT
 10
73.28177797563991
 20
43.23283099999999
 30
0.0
  0
VERTEX
  5
2E7
  8
THROUGH_CUT
 10
73.30943097563991
 20
43.25089799999999
 30
0.0
  0
VERTEX
  5
2E8
  8
THROUGH_CUT
 10
73.33968097563991
 20
43.26416599999999
 30
0.0
  0
VERTEX
  5
2E9
  8
THROUGH_CUT
 10
73.37170197563991
 20
43.27227499999999
 30
0.0
  0
VERTEX
  5
2EA
  8
THROUGH_CUT
 10
73.40462097563992
 20
43.275003
 30
0.0
  0
SEQEND
  5
2EB
  8
THROUGH_CUT
  0
POLYLINE
  5
53
  8
THROUGH_CUT
 66
     1
 10
0.0
 20
0.0
 30
0.0
 70
     1
  0
VERTEX
  5
2EC
  8
THROUGH_CUT
 10
4.452833975639905
 20
35.49542099999999
 30
0.0
 42
0.9614812579400831
  0
VERTEX
  5
2ED
  8
THROUGH_CUT
 10
4.540919490576817
 20
34.75120467893601
 30
0.0
 42
0.9614804590529975
  0
VERTEX
  5
2EE
  8
THROUGH_CUT
 10
4.511496975639901
 20
35.500038
 30
0.0
 42
0.0196379937250947
  0
VERTEX
  5
2EF
  8
THROUGH_CUT
 10
4.482075083382933
 20
35.49888198030904
 30
0.0
 42
0.019637578439169
  0
SEQEND
  5
2F0
  8
THROUGH_CUT
  0
POLYLINE
  5
54
  8
THROUGH_CUT
 66
     1
 10
0.0
 20
0.0
 30
0.0
 70
     1
  0
VERTEX
  5
2F1
  8
THROUGH_CUT
 10
4.452833975639905
 20
43.24542199999999
 30
0.0
 42
0.9614812579400831
  0
VERTEX
  5
2F2
  8
THROUGH_CUT
 10
4.540919490576817
 20
42.501205678936
 30
0.0
 42
0.9614804590529975
  0
VERTEX
  5
2F3
  8
THROUGH_CUT
 10
4.511496975639901
 20
43.250039
 30
0.0
 42
0.0196379937250947
  0
VERTEX
  5
2F4
  8
THROUGH_CUT
 10
4.482075083382933
 20
43.24888298030903
 30
0.0
 42
0.019637578439169
  0
SEQEND
  5
2F5
  8
THROUGH_CUT
  0
POLYLINE
  5
56
  8
CUT_HALFWAY_THROUGH
 66
     1
 10
0.0
 20
0.0
 30
0.0
  0
VERTEX
  5
2F6
  8
CUT_HALFWAY_THROUGH
 10
83.7942037401937
 20
31.15753335219737
 30
0.0
  0
VERTEX
  5
2F7
  8
CUT_HALFWAY_THROUGH
 10
77.04146479204026
 20
29.06294224765649
 30
0.0
 42
0.73682309829632
  0
VERTEX
  5
2F8
  8
CUT_HALFWAY_THROUGH
 10
77.04147968718192
 20
26.55578016293254
 30
0.0
  0
VERTEX
  5
2F9
  8
CUT_HALFWAY_THROUGH
 10
83.79420474019369
 20
24.46128135219737
 30
0.0
  0
VERTEX
  5
2FA
  8
CUT_HALFWAY_THROUGH
 10
83.69869274019369
 20
24.52053035219736
 30
0.0
  0
VERTEX
  5
2FB
  8
CUT_HALFWAY_THROUGH
 10
90.26039965602118
 20
26.55578114388125
 30
0.0
 42
0.7368231252251478
  0
VERTEX
  5
2FC
  8
CUT_HALFWAY_THROUGH
 10
90.26041448551999
 20
29.06294128706899
 30
0.0
  0
VERTEX
  5
2FD
  8
CUT_HALFWAY_THROUGH
 10
83.69869274019369
 20
31.09828135219737
 30
0.0
  0
VERTEX
  5
2FE
  8
CUT_HALFWAY_THROUGH
 10
83.69869274019369
 20
30.78418035219736
 30
0.0
  0
VERTEX
  5
2FF
  8
CUT_HALFWAY_THROUGH
 10
90.17153665273011
 20
28.77640913565745
 30
0.0
 42
-0.7368231252251591
  0
VERTEX
  5
300
  8
CUT_HALFWAY_THROUGH
 10
90.17152499854657
 20
26.84231431493764
 30
0.0
  0
VERTEX
  5
301
  8
CUT_HALFWAY_THROUGH
 10
83.6509377401937
 20
24.81981735219737
 30
0.0
  0
VERTEX
  5
302
  8
CUT_HALFWAY_THROUGH
 10
77.13035384215604
 20
26.8423133347645
 30
0.0
 42
-0.7368230982963447
  0
VERTEX
  5
303
  8
CUT_HALFWAY_THROUGH
 10
77.13034263733248
 20
28.77641010012297
 30
0.0
  0
VERTEX
  5
304
  8
CUT_HALFWAY_THROUGH
 10
83.6509377401937
 20
30.79899335219736
 30
0.0
  0
VERTEX
  5
305
  8
CUT_HALFWAY_THROUGH
 10
83.6509377401937
 20
30.48489235219737
 30
0.0
  0
VERTEX
  5
306
  8
CUT_HALFWAY_THROUGH
 10
77.21921998262468
 20
28.48987745258945
 30
0.0
 42
0.7368230982963202
  0
VERTEX
  5
307
  8
CUT_HALFWAY_THROUGH
 10
77.21922825406664
 20
27.12884666099556
 30
0.0
  0
VERTEX
  5
308
  8
CUT_HALFWAY_THROUGH
 10
83.6509377401937
 20
25.13391735219736
 30
0.0
  0
VERTEX
  5
309
  8
CUT_HALFWAY_THROUGH
 10
90.082650841072
 20
27.12884798599401
 30
0.0
 42
0.7368231252251531
  0
VERTEX
  5
30A
  8
CUT_HALFWAY_THROUGH
 10
90.08265889968675
 20
28.48987661629447
 30
0.0
  0
VERTEX
  5
30B
  8
CUT_HALFWAY_THROUGH
 10
83.69869274019369
 20
30.47007935219737
 30
0.0
  0
VERTEX
  5
30C
  8
CUT_HALFWAY_THROUGH
 10
83.69869274019369
 20
30.15597935219737
 30
0.0
  0
VERTEX
  5
30D
  8
CUT_HALFWAY_THROUGH
 10
89.99378098715033
 20
28.20334433283438
 30
0.0
 42
-0.736823125225146
  0
VERTEX
  5
30E
  8
CUT_HALFWAY_THROUGH
 10
89.9937766835974
 20
27.4153811570504
 30
0.0
  0
VERTEX
  5
30F
  8
CUT_HALFWAY_THROUGH
 10
83.6509377401937
 20
25.44801735219736
 30
0.0
  0
VERTEX
  5
310
  8
CUT_HALFWAY_THROUGH
 10
77.30810265210428
 20
27.41538017842842
 30
0.0
 42
-0.7368230982963327
  0
VERTEX
  5
311
  8
CUT_HALFWAY_THROUGH
 10
77.3080978279169
 20
28.20334530505595
 30
0.0
  0
VERTEX
  5
312
  8
CUT_HALFWAY_THROUGH
 10
83.6509377401937
 20
30.17079235219736
 30
0.0
  0
VERTEX
  5
313
  8
CUT_HALFWAY_THROUGH
 10
83.6509377401937
 20
29.85669135219737
 30
0.0
  0
VERTEX
  5
314
  8
CUT_HALFWAY_THROUGH
 10
77.39697567320911
 20
27.91681315752243
 30
0.0
 42
0.736823098296221
  0
VERTEX
  5
315
  8
CUT_HALFWAY_THROUGH
 10
77.3969768070784
 20
27.70191335026038
 30
0.0
  0
VERTEX
  5
316
  8
CUT_HALFWAY_THROUGH
 10
83.6509377401937
 20
25.76211635219736
 30
0.0
  0
VERTEX
  5
317
  8
CUT_HALFWAY_THROUGH
 10
89.90490202612281
 20
27.70191432810679
 30
0.0
 42
0.7368231252252069
  0
VERTEX
  5
318
  8
CUT_HALFWAY_THROUGH
 10
89.90490365436045
 20
27.91681218142285
 30
0.0
  0
VERTEX
  5
319
  8
CUT_HALFWAY_THROUGH
 10
83.69869274019369
 20
29.84187835219736
 30
0.0
  0
VERTEX
  5
31A
  8
CUT_HALFWAY_THROUGH
 10
83.69869274019369
 20
29.52777735219737
 30
0.0
  0
VERTEX
  5
31B
  8
CUT_HALFWAY_THROUGH
 10
89.2386667401937
 20
27.80936735219736
 30
0.0
  0
VERTEX
  5
31C
  8
CUT_HALFWAY_THROUGH
 10
83.6509377401937
 20
26.07621635219737
 30
0.0
  0
VERTEX
  5
31D
  8
CUT_HALFWAY_THROUGH
 10
78.06320874019369
 20
27.80936735219736
 30
0.0
  0
VERTEX
  5
31E
  8
CUT_HALFWAY_THROUGH
 10
83.6509377401937
 20
29.54259035219736
 30
0.0
  0
VERTEX
  5
31F
  8
CUT_HALFWAY_THROUGH
 10
83.6509377401937
 20
29.22849035219736
 30
0.0
  0
VERTEX
  5
320
  8
CUT_HALFWAY_THROUGH
 10
79.07585574019369
 20
27.80937335219736
 30
0.0
  0
VERTEX
  5
321
  8
CUT_HALFWAY_THROUGH
 10
83.6509377401937
 20
26.39031535219737
 30
0.0
  0
VERTEX
  5
322
  8
CUT_HALFWAY_THROUGH
 10
88.22601974019369
 20
27.80937335219736
 30
0.0
  0
VERTEX
  5
323
  8
CUT_HALFWAY_THROUGH
 10
83.69869274019369
 20
29.21367735219736
 30
0.0
  0
VERTEX
  5
324
  8
CUT_HALFWAY_THROUGH
 10
83.69869274019369
 20
28.89957635219736
 30
0.0
  0
VERTEX
  5
325
  8
CUT_HALFWAY_THROUGH
 10
87.21337374019369
 20
27.80937935219736
 30
0.0
  0
VERTEX
  5
326
  8
CUT_HALFWAY_THROUGH
 10
83.6509377401937
 20
26.70441535219737
 30
0.0
  0
VERTEX
  5
327
  8
CUT_HALFWAY_THROUGH
 10
80.08850274019369
 20
27.80937935219736
 30
0.0
  0
VERTEX
  5
328
  8
CUT_HALFWAY_THROUGH
 10
83.6509377401937
 20
28.91438935219737
 30
0.0
  0
VERTEX
  5
329
  8
CUT_HALFWAY_THROUGH
 10
83.6509377401937
 20
28.60028835219736
 30
0.0
  0
VERTEX
  5
32A
  8
CUT_HALFWAY_THROUGH
 10
81.1011487401937
 20
27.80938535219736
 30
0.0
  0
VERTEX
  5
32B
  8
CUT_HALFWAY_THROUGH
 10
83.6509377401937
 20
27.01851435219736
 30
0.0
  0
VERTEX
  5
32C
  8
CUT_HALFWAY_THROUGH
 10
86.20072674019369
 20
27.80938535219736
 30
0.0
  0
VERTEX
  5
32D
  8
CUT_HALFWAY_THROUGH
 10
83.69869274019369
 20
28.58547535219737
 30
0.0
  0
VERTEX
  5
32E
  8
CUT_HALFWAY_THROUGH
 10
83.69869274019369
 20
28.27137435219736
 30
0.0
  0
VERTEX
  5
32F
  8
CUT_HALFWAY_THROUGH
 10
85.18807974019369
 20
27.80939135219736
 30
0.0
  0
VERTEX
  5
330
  8
CUT_HALFWAY_THROUGH
 10
83.6509377401937
 20
27.33261435219736
 30
0.0
  0
VERTEX
  5
331
  8
CUT_HALFWAY_THROUGH
 10
82.1137957401937
 20
27.80939135219736
 30
0.0
  0
VERTEX
  5
332
  8
CUT_HALFWAY_THROUGH
 10
83.6509377401937
 20
28.28618735219737
 30
0.0
  0
VERTEX
  5
333
  8
CUT_HALFWAY_THROUGH
 10
83.6509377401937
 20
27.97208735219737
 30
0.0
  0
VERTEX
  5
334
  8
CUT_HALFWAY_THROUGH
 10
83.1264427401937
 20
27.80939735219736
 30
0.0
  0
VERTEX
  5
335
  8
CUT_HALFWAY_THROUGH
 10
83.6509377401937
 20
27.64671435219736
 30
0.0
  0
VERTEX
  5
336
  8
CUT_HALFWAY_THROUGH
 10
84.17543274019368
 20
27.80939735219736
 30
0.0
  0
VERTEX
  5
337
  8
CUT_HALFWAY_THROUGH
 10
83.69869274019369
 20
27.95727435219737
 30
0.0
  0
VERTEX
  5
338
  8
CUT_HALFWAY_THROUGH
 10
89.8715747401937
 20
27.80936335219736
 30
0.0
  0
VERTEX
  5
339
  8
CUT_HALFWAY_THROUGH
 10
77.43030474019369
 20
27.80936335219736
 30
0.0
  0
SEQEND
  5
33A
  8
CUT_HALFWAY_THROUGH
  0
POLYLINE
  5
57
  8
CUT_HALFWAY_THROUGH
 66
     1
 10
0.0
 20
0.0
 30
0.0
  0
VERTEX
  5
33B
  8
CUT_HALFWAY_THROUGH
 10
83.7942037401937
 20
23.40753235219737
 30
0.0
  0
VERTEX
  5
33C
  8
CUT_HALFWAY_THROUGH
 10
77.04146479204026
 20
21.31294124765649
 30
0.0
 42
0.7368230982963191
  0
VERTEX
  5
33D
  8
CUT_HALFWAY_THROUGH
 10
77.04147968718192
 20
18.80577916293255
 30
0.0
  0
VERTEX
  5
33E
  8
CUT_HALFWAY_THROUGH
 10
83.79420474019369
 20
16.71128035219737
 30
0.0
  0
VERTEX
  5
33F
  8
CUT_HALFWAY_THROUGH
 10
83.69869274019369
 20
16.77052935219736
 30
0.0
  0
VERTEX
  5
340
  8
CUT_HALFWAY_THROUGH
 10
90.26039965602118
 20
18.80578014388125
 30
0.0
 42
0.7368231252251478
  0
VERTEX
  5
341
  8
CUT_HALFWAY_THROUGH
 10
90.26041448551999
 20
21.31294028706899
 30
0.0
  0
VERTEX
  5
342
  8
CUT_HALFWAY_THROUGH
 10
83.69869274019369
 20
23.34828035219737
 30
0.0
  0
VERTEX
  5
343
  8
CUT_HALFWAY_THROUGH
 10
83.69869274019369
 20
23.03417935219736
 30
0.0
  0
VERTEX
  5
344
  8
CUT_HALFWAY_THROUGH
 10
90.17153665273011
 20
21.02640813565746
 30
0.0
 42
-0.73682312522516
  0
VERTEX
  5
345
  8
CUT_HALFWAY_THROUGH
 10
90.17152499854657
 20
19.09231331493764
 30
0.0
  0
VERTEX
  5
346
  8
CUT_HALFWAY_THROUGH
 10
83.6509377401937
 20
17.06981635219737
 30
0.0
  0
VERTEX
  5
347
  8
CUT_HALFWAY_THROUGH
 10
77.13035384215604
 20
19.0923123347645
 30
0.0
 42
-0.7368230982963355
  0
VERTEX
  5
348
  8
CUT_HALFWAY_THROUGH
 10
77.13034263733248
 20
21.02640910012298
 30
0.0
  0
VERTEX
  5
349
  8
CUT_HALFWAY_THROUGH
 10
83.6509377401937
 20
23.04899235219737
 30
0.0
  0
VERTEX
  5
34A
  8
CUT_HALFWAY_THROUGH
 10
83.6509377401937
 20
22.73489135219737
 30
0.0
  0
VERTEX
  5
34B
  8
CUT_HALFWAY_THROUGH
 10
77.21921998262468
 20
20.73987645258946
 30
0.0
 42
0.736823098296322
  0
VERTEX
  5
34C
  8
CUT_HALFWAY_THROUGH
 10
77.21922825406664
 20
19.37884566099556
 30
0.0
  0
VERTEX
  5
34D
  8
CUT_HALFWAY_THROUGH
 10
83.6509377401937
 20
17.38391635219737
 30
0.0
  0
VERTEX
  5
34E
  8
CUT_HALFWAY_THROUGH
 10
90.082650841072
 20
19.37884698599402
 30
0.0
 42
0.7368231252251531
  0
VERTEX
  5
34F
  8
CUT_HALFWAY_THROUGH
 10
90.08265889968675
 20
20.73987561629448
 30
0.0
  0
VERTEX
  5
350
  8
CUT_HALFWAY_THROUGH
 10
83.69869274019369
 20
22.72007835219737
 30
0.0
  0
VERTEX
  5
351
  8
CUT_HALFWAY_THROUGH
 10
83.69869274019369
 20
22.40597835219737
 30
0.0
  0
VERTEX
  5
352
  8
CUT_HALFWAY_THROUGH
 10
89.99378098715033
 20
20.45334333283439
 30
0.0
 42
-0.736823125225146
  0
VERTEX
  5
353
  8
CUT_HALFWAY_THROUGH
 10
89.9937766835974
 20
19.66538015705041
 30
0.0
  0
VERTEX
  5
354
  8
CUT_HALFWAY_THROUGH
 10
83.6509377401937
 20
17.69801635219736
 30
0.0
  0
VERTEX
  5
355
  8
CUT_HALFWAY_THROUGH
 10
77.30810265210428
 20
19.66537917842842
 30
0.0
 42
-0.7368230982963327
  0
VERTEX
  5
356
  8
CUT_HALFWAY_THROUGH
 10
77.3080978279169
 20
20.45334430505595
 30
0.0
  0
VERTEX
  5
357
  8
CUT_HALFWAY_THROUGH
 10
83.6509377401937
 20
22.42079135219736
 30
0.0
  0
VERTEX
  5
358
  8
CUT_HALFWAY_THROUGH
 10
83.6509377401937
 20
22.10669035219737
 30
0.0
  0
VERTEX
  5
359
  8
CUT_HALFWAY_THROUGH
 10
77.39697567320911
 20
20.16681215752243
 30
0.0
 42
0.736823098296221
  0
VERTEX
  5
35A
  8
CUT_HALFWAY_THROUGH
 10
77.3969768070784
 20
19.95191235026038
 30
0.0
  0
VERTEX
  5
35B
  8
CUT_HALFWAY_THROUGH
 10
83.6509377401937
 20
18.01211535219736
 30
0.0
  0
VERTEX
  5
35C
  8
CUT_HALFWAY_THROUGH
 10
89.90490202612281
 20
19.95191332810679
 30
0.0
 42
0.7368231252252069
  0
VERTEX
  5
35D
  8
CUT_HALFWAY_THROUGH
 10
89.90490365436045
 20
20.16681118142285
 30
0.0
  0
VERTEX
  5
35E
  8
CUT_HALFWAY_THROUGH
 10
83.69869274019369
 20
22.09187735219736
 30
0.0
  0
VERTEX
  5
35F
  8
CUT_HALFWAY_THROUGH
 10
83.69869274019369
 20
21.77777635219737
 30
0.0
  0
VERTEX
  5
360
  8
CUT_HALFWAY_THROUGH
 10
89.2386667401937
 20
20.05936635219737
 30
0.0
  0
VERTEX
  5
361
  8
CUT_HALFWAY_THROUGH
 10
83.6509377401937
 20
18.32621535219737
 30
0.0
  0
VERTEX
  5
362
  8
CUT_HALFWAY_THROUGH
 10
78.06320874019369
 20
20.05936635219737
 30
0.0
  0
VERTEX
  5
363
  8
CUT_HALFWAY_THROUGH
 10
83.6509377401937
 20
21.79258935219736
 30
0.0
  0
VERTEX
  5
364
  8
CUT_HALFWAY_THROUGH
 10
83.6509377401937
 20
21.47848935219736
 30
0.0
  0
VERTEX
  5
365
  8
CUT_HALFWAY_THROUGH
 10
79.07585574019369
 20
20.05937235219736
 30
0.0
  0
VERTEX
  5
366
  8
CUT_HALFWAY_THROUGH
 10
83.6509377401937
 20
18.64031435219737
 30
0.0
  0
VERTEX
  5
367
  8
CUT_HALFWAY_THROUGH
 10
88.22601974019369
 20
20.05937235219736
 30
0.0
  0
VERTEX
  5
368
  8
CUT_HALFWAY_THROUGH
 10
83.69869274019369
 20
21.46367635219736
 30
0.0
  0
VERTEX
  5
369
  8
CUT_HALFWAY_THROUGH
 10
83.69869274019369
 20
21.14957535219737
 30
0.0
  0
VERTEX
  5
36A
  8
CUT_HALFWAY_THROUGH
 10
87.21337374019369
 20
20.05937835219736
 30
0.0
  0
VERTEX
  5
36B
  8
CUT_HALFWAY_THROUGH
 10
83.6509377401937
 20
18.95441435219737
 30
0.0
  0
VERTEX
  5
36C
  8
CUT_HALFWAY_THROUGH
 10
80.08850274019369
 20
20.05937835219736
 30
0.0
  0
VERTEX
  5
36D
  8
CUT_HALFWAY_THROUGH
 10
83.6509377401937
 20
21.16438835219737
 30
0.0
  0
VERTEX
  5
36E
  8
CUT_HALFWAY_THROUGH
 10
83.6509377401937
 20
20.85028735219736
 30
0.0
  0
VERTEX
  5
36F
  8
CUT_HALFWAY_THROUGH
 10
81.1011487401937
 20
20.05938435219736
 30
0.0
  0
VERTEX
  5
370
  8
CUT_HALFWAY_THROUGH
 10
83.6509377401937
 20
19.26851335219737
 30
0.0
  0
VERTEX
  5
371
  8
CUT_HALFWAY_THROUGH
 10
86.20072674019369
 20
20.05938435219736
 30
0.0
  0
VERTEX
  5
372
  8
CUT_HALFWAY_THROUGH
 10
83.69869274019369
 20
20.83547435219737
 30
0.0
  0
VERTEX
  5
373
  8
CUT_HALFWAY_THROUGH
 10
83.69869274019369
 20
20.52137335219737
 30
0.0
  0
VERTEX
  5
374
  8
CUT_HALFWAY_THROUGH
 10
85.18807974019369
 20
20.05939035219736
 30
0.0
  0
VERTEX
  5
375
  8
CUT_HALFWAY_THROUGH
 10
83.6509377401937
 20
19.58261335219736
 30
0.0
  0
VERTEX
  5
376
  8
CUT_HALFWAY_THROUGH
 10
82.1137957401937
 20
20.05939035219736
 30
0.0
  0
VERTEX
  5
377
  8
CUT_HALFWAY_THROUGH
 10
83.6509377401937
 20
20.53618635219737
 30
0.0
  0
VERTEX
  5
378
  8
CUT_HALFWAY_THROUGH
 10
83.6509377401937
 20
20.22208635219737
 30
0.0
  0
VERTEX
  5
379
  8
CUT_HALFWAY_THROUGH
 10
83.1264427401937
 20
20.05939635219736
 30
0.0
  0
VERTEX
  5
37A
  8
CUT_HALFWAY_THROUGH
 10
83.6509377401937
 20
19.89671335219736
 30
0.0
  0
VERTEX
  5
37B
  8
CUT_HALFWAY_THROUGH
 10
84.17543274019368
 20
20.05939635219736
 30
0.0
  0
VERTEX
  5
37C
  8
CUT_HALFWAY_THROUGH
 10
83.69869274019369
 20
20.20727335219737
 30
0.0
  0
VERTEX
  5
37D
  8
CUT_HALFWAY_THROUGH
 10
89.8715747401937
 20
20.05936235219736
 30
0.0
  0
VERTEX
  5
37E
  8
CUT_HALFWAY_THROUGH
 10
77.43030474019369
 20
20.05936235219736
 30
0.0
  0
SEQEND
  5
37F
  8
CUT_HALFWAY_THROUGH
  0
POLYLINE
  5
58
  8
CUT_HALFWAY_THROUGH
 66
     1
 10
0.0
 20
0.0
 30
0.0
  0
VERTEX
  5
380
  8
CUT_HALFWAY_THROUGH
 10
83.7942037401937
 20
15.65753135219737
 30
0.0
  0
VERTEX
  5
381
  8
CUT_HALFWAY_THROUGH
 10
77.04146479204026
 20
13.56294024765649
 30
0.0
 42
0.7368230982963191
  0
VERTEX
  5
382
  8
CUT_HALFWAY_THROUGH
 10
77.04147968718192
 20
11.05577816293255
 30
0.0
  0
VERTEX
  5
383
  8
CUT_HALFWAY_THROUGH
 10
83.79420474019369
 20
8.961279352197373
 30
0.0
  0
VERTEX
  5
384
  8
CUT_HALFWAY_THROUGH
 10
83.69869274019369
 20
9.020528352197367
 30
0.0
  0
VERTEX
  5
385
  8
CUT_HALFWAY_THROUGH
 10
90.26039965602118
 20
11.05577914388125
 30
0.0
 42
0.736823125225148
  0
VERTEX
  5
386
  8
CUT_HALFWAY_THROUGH
 10
90.26041448551999
 20
13.56293928706899
 30
0.0
  0
VERTEX
  5
387
  8
CUT_HALFWAY_THROUGH
 10
83.69869274019369
 20
15.59827935219737
 30
0.0
  0
VERTEX
  5
388
  8
CUT_HALFWAY_THROUGH
 10
83.69869274019369
 20
15.28417835219737
 30
0.0
  0
VERTEX
  5
389
  8
CUT_HALFWAY_THROUGH
 10
90.17153665273011
 20
13.27640713565746
 30
0.0
 42
-0.73682312522516
  0
VERTEX
  5
38A
  8
CUT_HALFWAY_THROUGH
 10
90.17152499854657
 20
11.34231231493764
 30
0.0
  0
VERTEX
  5
38B
  8
CUT_HALFWAY_THROUGH
 10
83.6509377401937
 20
9.319815352197374
 30
0.0
  0
VERTEX
  5
38C
  8
CUT_HALFWAY_THROUGH
 10
77.13035384215604
 20
11.3423113347645
 30
0.0
 42
-0.7368230982963357
  0
VERTEX
  5
38D
  8
CUT_HALFWAY_THROUGH
 10
77.13034263733248
 20
13.27640810012298
 30
0.0
  0
VERTEX
  5
38E
  8
CUT_HALFWAY_THROUGH
 10
83.6509377401937
 20
15.29899135219737
 30
0.0
  0
VERTEX
  5
38F
  8
CUT_HALFWAY_THROUGH
 10
83.6509377401937
 20
14.98489035219738
 30
0.0
  0
VERTEX
  5
390
  8
CUT_HALFWAY_THROUGH
 10
77.21921998262468
 20
12.98987545258946
 30
0.0
 42
0.736823098296322
  0
VERTEX
  5
391
  8
CUT_HALFWAY_THROUGH
 10
77.21922825406664
 20
11.62884466099556
 30
0.0
  0
VERTEX
  5
392
  8
CUT_HALFWAY_THROUGH
 10
83.6509377401937
 20
9.63391535219737
 30
0.0
  0
VERTEX
  5
393
  8
CUT_HALFWAY_THROUGH
 10
90.082650841072
 20
11.62884598599402
 30
0.0
 42
0.7368231252251531
  0
VERTEX
  5
394
  8
CUT_HALFWAY_THROUGH
 10
90.08265889968675
 20
12.98987461629448
 30
0.0
  0
VERTEX
  5
395
  8
CUT_HALFWAY_THROUGH
 10
83.69869274019369
 20
14.97007735219737
 30
0.0
  0
VERTEX
  5
396
  8
CUT_HALFWAY_THROUGH
 10
83.69869274019369
 20
14.65597735219738
 30
0.0
  0
VERTEX
  5
397
  8
CUT_HALFWAY_THROUGH
 10
89.99378098715033
 20
12.70334233283439
 30
0.0
 42
-0.7368231252251212
  0
VERTEX
  5
398
  8
CUT_HALFWAY_THROUGH
 10
89.9937766835974
 20
11.91537915705041
 30
0.0
  0
VERTEX
  5
399
  8
CUT_HALFWAY_THROUGH
 10
83.6509377401937
 20
9.948015352197366
 30
0.0
  0
VERTEX
  5
39A
  8
CUT_HALFWAY_THROUGH
 10
77.30810265210428
 20
11.91537817842843
 30
0.0
 42
-0.7368230982963302
  0
VERTEX
  5
39B
  8
CUT_HALFWAY_THROUGH
 10
77.3080978279169
 20
12.70334330505595
 30
0.0
  0
VERTEX
  5
39C
  8
CUT_HALFWAY_THROUGH
 10
83.6509377401937
 20
14.67079035219736
 30
0.0
  0
VERTEX
  5
39D
  8
CUT_HALFWAY_THROUGH
 10
83.6509377401937
 20
14.35668935219737
 30
0.0
  0
VERTEX
  5
39E
  8
CUT_HALFWAY_THROUGH
 10
77.39697567320911
 20
12.41681115752243
 30
0.0
 42
0.736823098296221
  0
VERTEX
  5
39F
  8
CUT_HALFWAY_THROUGH
 10
77.3969768070784
 20
12.20191135026038
 30
0.0
  0
VERTEX
  5
3A0
  8
CUT_HALFWAY_THROUGH
 10
83.6509377401937
 20
10.26211435219737
 30
0.0
  0
VERTEX
  5
3A1
  8
CUT_HALFWAY_THROUGH
 10
89.90490202612281
 20
12.20191232810679
 30
0.0
 42
0.7368231252252069
  0
VERTEX
  5
3A2
  8
CUT_HALFWAY_THROUGH
 10
89.90490365436045
 20
12.41681018142285
 30
0.0
  0
VERTEX
  5
3A3
  8
CUT_HALFWAY_THROUGH
 10
83.69869274019369
 20
14.34187635219737
 30
0.0
  0
VERTEX
  5
3A4
  8
CUT_HALFWAY_THROUGH
 10
83.69869274019369
 20
14.02777535219737
 30
0.0
  0
VERTEX
  5
3A5
  8
CUT_HALFWAY_THROUGH
 10
89.2386667401937
 20
12.30936535219737
 30
0.0
  0
VERTEX
  5
3A6
  8
CUT_HALFWAY_THROUGH
 10
83.6509377401937
 20
10.57621435219738
 30
0.0
  0
VERTEX
  5
3A7
  8
CUT_HALFWAY_THROUGH
 10
78.06320874019369
 20
12.30936535219737
 30
0.0
  0
VERTEX
  5
3A8
  8
CUT_HALFWAY_THROUGH
 10
83.6509377401937
 20
14.04258835219736
 30
0.0
  0
VERTEX
  5
3A9
  8
CUT_HALFWAY_THROUGH
 10
83.6509377401937
 20
13.72848835219737
 30
0.0
  0
VERTEX
  5
3AA
  8
CUT_HALFWAY_THROUGH
 10
79.07585574019369
 20
12.30937135219737
 30
0.0
  0
VERTEX
  5
3AB
  8
CUT_HALFWAY_THROUGH
 10
83.6509377401937
 20
10.89031335219737
 30
0.0
  0
VERTEX
  5
3AC
  8
CUT_HALFWAY_THROUGH
 10
88.22601974019369
 20
12.30937135219737
 30
0.0
  0
VERTEX
  5
3AD
  8
CUT_HALFWAY_THROUGH
 10
83.69869274019369
 20
13.71367535219736
 30
0.0
  0
VERTEX
  5
3AE
  8
CUT_HALFWAY_THROUGH
 10
83.69869274019369
 20
13.39957435219737
 30
0.0
  0
VERTEX
  5
3AF
  8
CUT_HALFWAY_THROUGH
 10
87.21337374019369
 20
12.30937735219737
 30
0.0
  0
VERTEX
  5
3B0
  8
CUT_HALFWAY_THROUGH
 10
83.6509377401937
 20
11.20441335219737
 30
0.0
  0
VERTEX
  5
3B1
  8
CUT_HALFWAY_THROUGH
 10
80.08850274019369
 20
12.30937735219737
 30
0.0
  0
VERTEX
  5
3B2
  8
CUT_HALFWAY_THROUGH
 10
83.6509377401937
 20
13.41438735219737
 30
0.0
  0
VERTEX
  5
3B3
  8
CUT_HALFWAY_THROUGH
 10
83.6509377401937
 20
13.10028635219737
 30
0.0
  0
VERTEX
  5
3B4
  8
CUT_HALFWAY_THROUGH
 10
81.1011487401937
 20
12.30938335219737
 30
0.0
  0
VERTEX
  5
3B5
  8
CUT_HALFWAY_THROUGH
 10
83.6509377401937
 20
11.51851235219737
 30
0.0
  0
VERTEX
  5
3B6
  8
CUT_HALFWAY_THROUGH
 10
86.20072674019369
 20
12.30938335219737
 30
0.0
  0
VERTEX
  5
3B7
  8
CUT_HALFWAY_THROUGH
 10
83.69869274019369
 20
13.08547335219738
 30
0.0
  0
VERTEX
  5
3B8
  8
CUT_HALFWAY_THROUGH
 10
83.69869274019369
 20
12.77137235219737
 30
0.0
  0
VERTEX
  5
3B9
  8
CUT_HALFWAY_THROUGH
 10
85.18807974019369
 20
12.30938935219736
 30
0.0
  0
VERTEX
  5
3BA
  8
CUT_HALFWAY_THROUGH
 10
83.6509377401937
 20
11.83261235219737
 30
0.0
  0
VERTEX
  5
3BB
  8
CUT_HALFWAY_THROUGH
 10
82.1137957401937
 20
12.30938935219736
 30
0.0
  0
VERTEX
  5
3BC
  8
CUT_HALFWAY_THROUGH
 10
83.6509377401937
 20
12.78618535219737
 30
0.0
  0
VERTEX
  5
3BD
  8
CUT_HALFWAY_THROUGH
 10
83.6509377401937
 20
12.47208535219738
 30
0.0
  0
VERTEX
  5
3BE
  8
CUT_HALFWAY_THROUGH
 10
83.1264427401937
 20
12.30939535219736
 30
0.0
  0
VERTEX
  5
3BF
  8
CUT_HALFWAY_THROUGH
 10
83.6509377401937
 20
12.14671235219736
 30
0.0
  0
VERTEX
  5
3C0
  8
CUT_HALFWAY_THROUGH
 10
84.17543274019368
 20
12.30939535219736
 30
0.0
  0
VERTEX
  5
3C1
  8
CUT_HALFWAY_THROUGH
 10
83.69869274019369
 20
12.45727235219737
 30
0.0
  0
VERTEX
  5
3C2
  8
CUT_HALFWAY_THROUGH
 10
89.8715747401937
 20
12.30936135219736
 30
0.0
  0
VERTEX
  5
3C3
  8
CUT_HALFWAY_THROUGH
 10
77.43030474019369
 20
12.30936135219736
 30
0.0
  0
SEQEND
  5
3C4
  8
CUT_HALFWAY_THROUGH
  0
POLYLINE
  5
59
  8
CUT_HALFWAY_THROUGH
 66
     1
 10
0.0
 20
0.0
 30
0.0
  0
VERTEX
  5
3C5
  8
CUT_HALFWAY_THROUGH
 10
83.7942037401937
 20
7.907530352197377
 30
0.0
  0
VERTEX
  5
3C6
  8
CUT_HALFWAY_THROUGH
 10
77.04146479204026
 20
5.812939247656495
 30
0.0
 42
0.7368230982963033
  0
VERTEX
  5
3C7
  8
CUT_HALFWAY_THROUGH
 10
77.04147968718192
 20
3.30577716293255
 30
0.0
  0
VERTEX
  5
3C8
  8
CUT_HALFWAY_THROUGH
 10
83.79420474019369
 20
1.211278352197375
 30
0.0
  0
VERTEX
  5
3C9
  8
CUT_HALFWAY_THROUGH
 10
83.69869274019369
 20
1.270527352197369
 30
0.0
  0
VERTEX
  5
3CA
  8
CUT_HALFWAY_THROUGH
 10
90.26039965602118
 20
3.305778143881255
 30
0.0
 42
0.7368231252251478
  0
VERTEX
  5
3CB
  8
CUT_HALFWAY_THROUGH
 10
90.26041448551999
 20
5.812938287068995
 30
0.0
  0
VERTEX
  5
3CC
  8
CUT_HALFWAY_THROUGH
 10
83.69869274019369
 20
7.848278352197376
 30
0.0
  0
VERTEX
  5
3CD
  8
CUT_HALFWAY_THROUGH
 10
83.69869274019369
 20
7.534177352197368
 30
0.0
  0
VERTEX
  5
3CE
  8
CUT_HALFWAY_THROUGH
 10
90.17153665273011
 20
5.52640613565746
 30
0.0
 42
-0.7368231252251594
  0
VERTEX
  5
3CF
  8
CUT_HALFWAY_THROUGH
 10
90.17152499854657
 20
3.592311314937646
 30
0.0
  0
VERTEX
  5
3D0
  8
CUT_HALFWAY_THROUGH
 10
83.6509377401937
 20
1.569814352197376
 30
0.0
  0
VERTEX
  5
3D1
  8
CUT_HALFWAY_THROUGH
 10
77.13035384215604
 20
3.592310334764505
 30
0.0
 42
-0.736823098296356
  0
VERTEX
  5
3D2
  8
CUT_HALFWAY_THROUGH
 10
77.13034263733248
 20
5.526407100122981
 30
0.0
  0
VERTEX
  5
3D3
  8
CUT_HALFWAY_THROUGH
 10
83.6509377401937
 20
7.548990352197372
 30
0.0
  0
VERTEX
  5
3D4
  8
CUT_HALFWAY_THROUGH
 10
83.6509377401937
 20
7.234889352197378
 30
0.0
  0
VERTEX
  5
3D5
  8
CUT_HALFWAY_THROUGH
 10
77.21921998262468
 20
5.239874452589461
 30
0.0
 42
0.7368230982963213
  0
VERTEX
  5
3D6
  8
CUT_HALFWAY_THROUGH
 10
77.21922825406664
 20
3.878843660995564
 30
0.0
  0
VERTEX
  5
3D7
  8
CUT_HALFWAY_THROUGH
 10
83.6509377401937
 20
1.883914352197372
 30
0.0
  0
VERTEX
  5
3D8
  8
CUT_HALFWAY_THROUGH
 10
90.082650841072
 20
3.878844985994021
 30
0.0
 42
0.7368231252251531
  0
VERTEX
  5
3D9
  8
CUT_HALFWAY_THROUGH
 10
90.08265889968675
 20
5.239873616294481
 30
0.0
  0
VERTEX
  5
3DA
  8
CUT_HALFWAY_THROUGH
 10
83.69869274019369
 20
7.220076352197374
 30
0.0
  0
VERTEX
  5
3DB
  8
CUT_HALFWAY_THROUGH
 10
83.69869274019369
 20
6.905976352197378
 30
0.0
  0
VERTEX
  5
3DC
  8
CUT_HALFWAY_THROUGH
 10
89.99378098715033
 20
4.953341332834391
 30
0.0
 42
-0.736823125225146
  0
VERTEX
  5
3DD
  8
CUT_HALFWAY_THROUGH
 10
89.9937766835974
 20
4.165378157050412
 30
0.0
  0
VERTEX
  5
3DE
  8
CUT_HALFWAY_THROUGH
 10
83.6509377401937
 20
2.198014352197369
 30
0.0
  0
VERTEX
  5
3DF
  8
CUT_HALFWAY_THROUGH
 10
77.30810265210428
 20
4.165377178428429
 30
0.0
 42
-0.7368230982963317
  0
VERTEX
  5
3E0
  8
CUT_HALFWAY_THROUGH
 10
77.3080978279169
 20
4.953342305055955
 30
0.0
  0
VERTEX
  5
3E1
  8
CUT_HALFWAY_THROUGH
 10
83.6509377401937
 20
6.920789352197367
 30
0.0
  0
VERTEX
  5
3E2
  8
CUT_HALFWAY_THROUGH
 10
83.6509377401937
 20
6.606688352197374
 30
0.0
  0
VERTEX
  5
3E3
  8
CUT_HALFWAY_THROUGH
 10
77.39697567320911
 20
4.666810157522434
 30
0.0
 42
0.736823098296221
  0
VERTEX
  5
3E4
  8
CUT_HALFWAY_THROUGH
 10
77.3969768070784
 20
4.451910350260384
 30
0.0
  0
VERTEX
  5
3E5
  8
CUT_HALFWAY_THROUGH
 10
83.6509377401937
 20
2.512113352197368
 30
0.0
  0
VERTEX
  5
3E6
  8
CUT_HALFWAY_THROUGH
 10
89.90490202612281
 20
4.451911328106796
 30
0.0
 42
0.7368231252252069
  0
VERTEX
  5
3E7
  8
CUT_HALFWAY_THROUGH
 10
89.90490365436045
 20
4.666809181422856
 30
0.0
  0
VERTEX
  5
3E8
  8
CUT_HALFWAY_THROUGH
 10
83.69869274019369
 20
6.59187535219737
 30
0.0
  0
VERTEX
  5
3E9
  8
CUT_HALFWAY_THROUGH
 10
83.69869274019369
 20
6.277774352197376
 30
0.0
  0
VERTEX
  5
3EA
  8
CUT_HALFWAY_THROUGH
 10
89.2386667401937
 20
4.55936435219737
 30
0.0
  0
VERTEX
  5
3EB
  8
CUT_HALFWAY_THROUGH
 10
83.6509377401937
 20
2.826213352197378
 30
0.0
  0
VERTEX
  5
3EC
  8
CUT_HALFWAY_THROUGH
 10
78.06320874019369
 20
4.55936435219737
 30
0.0
  0
VERTEX
  5
3ED
  8
CUT_HALFWAY_THROUGH
 10
83.6509377401937
 20
6.292587352197366
 30
0.0
  0
VERTEX
  5
3EE
  8
CUT_HALFWAY_THROUGH
 10
83.6509377401937
 20
5.978487352197369
 30
0.0
  0
VERTEX
  5
3EF
  8
CUT_HALFWAY_THROUGH
 10
79.07585574019369
 20
4.559370352197369
 30
0.0
  0
VERTEX
  5
3F0
  8
CUT_HALFWAY_THROUGH
 10
83.6509377401937
 20
3.140312352197377
 30
0.0
  0
VERTEX
  5
3F1
  8
CUT_HALFWAY_THROUGH
 10
88.22601974019369
 20
4.559370352197369
 30
0.0
  0
VERTEX
  5
3F2
  8
CUT_HALFWAY_THROUGH
 10
83.69869274019369
 20
5.963674352197366
 30
0.0
  0
VERTEX
  5
3F3
  8
CUT_HALFWAY_THROUGH
 10
83.69869274019369
 20
5.649573352197372
 30
0.0
  0
VERTEX
  5
3F4
  8
CUT_HALFWAY_THROUGH
 10
87.21337374019369
 20
4.559376352197368
 30
0.0
  0
VERTEX
  5
3F5
  8
CUT_HALFWAY_THROUGH
 10
83.6509377401937
 20
3.454412352197373
 30
0.0
  0
VERTEX
  5
3F6
  8
CUT_HALFWAY_THROUGH
 10
80.08850274019369
 20
4.559376352197368
 30
0.0
  0
VERTEX
  5
3F7
  8
CUT_HALFWAY_THROUGH
 10
83.6509377401937
 20
5.664386352197376
 30
0.0
  0
VERTEX
  5
3F8
  8
CUT_HALFWAY_THROUGH
 10
83.6509377401937
 20
5.350285352197368
 30
0.0
  0
VERTEX
  5
3F9
  8
CUT_HALFWAY_THROUGH
 10
81.1011487401937
 20
4.559382352197368
 30
0.0
  0
VERTEX
  5
3FA
  8
CUT_HALFWAY_THROUGH
 10
83.6509377401937
 20
3.768511352197372
 30
0.0
  0
VERTEX
  5
3FB
  8
CUT_HALFWAY_THROUGH
 10
86.20072674019369
 20
4.559382352197368
 30
0.0
  0
VERTEX
  5
3FC
  8
CUT_HALFWAY_THROUGH
 10
83.69869274019369
 20
5.335472352197378
 30
0.0
  0
VERTEX
  5
3FD
  8
CUT_HALFWAY_THROUGH
 10
83.69869274019369
 20
5.02137135219737
 30
0.0
  0
VERTEX
  5
3FE
  8
CUT_HALFWAY_THROUGH
 10
85.18807974019369
 20
4.559388352197367
 30
0.0
  0
VERTEX
  5
3FF
  8
CUT_HALFWAY_THROUGH
 10
83.6509377401937
 20
4.082611352197368
 30
0.0
  0
VERTEX
  5
400
  8
CUT_HALFWAY_THROUGH
 10
82.1137957401937
 20
4.559388352197367
 30
0.0
  0
VERTEX
  5
401
  8
CUT_HALFWAY_THROUGH
 10
83.6509377401937
 20
5.036184352197374
 30
0.0
  0
VERTEX
  5
402
  8
CUT_HALFWAY_THROUGH
 10
83.6509377401937
 20
4.722084352197378
 30
0.0
  0
VERTEX
  5
403
  8
CUT_HALFWAY_THROUGH
 10
83.1264427401937
 20
4.559394352197366
 30
0.0
  0
VERTEX
  5
404
  8
CUT_HALFWAY_THROUGH
 10
83.6509377401937
 20
4.396711352197364
 30
0.0
  0
VERTEX
  5
405
  8
CUT_HALFWAY_THROUGH
 10
84.17543274019368
 20
4.559394352197366
 30
0.0
  0
VERTEX
  5
406
  8
CUT_HALFWAY_THROUGH
 10
83.69869274019369
 20
4.707271352197374
 30
0.0
  0
VERTEX
  5
407
  8
CUT_HALFWAY_THROUGH
 10
89.8715747401937
 20
4.559360352197366
 30
0.0
  0
VERTEX
  5
408
  8
CUT_HALFWAY_THROUGH
 10
77.43030474019369
 20
4.559360352197366
 30
0.0
  0
SEQEND
  5
409
  8
CUT_HALFWAY_THROUGH
  0
POLYLINE
  5
5A
  8
CUT_HALFWAY_THROUGH
 66
     1
 10
0.0
 20
0.0
 30
0.0
  0
VERTEX
  5
40A
  8
CUT_HALFWAY_THROUGH
 10
84.92288697563991
 20
38.973128
 30
0.0
  0
VERTEX
  5
40B
  8
CUT_HALFWAY_THROUGH
 10
78.17014802748648
 20
36.87853689545912
 30
0.0
 42
0.7368230982963228
  0
VERTEX
  5
40C
  8
CUT_HALFWAY_THROUGH
 10
78.17016292262815
 20
34.37137481073518
 30
0.0
  0
VERTEX
  5
40D
  8
CUT_HALFWAY_THROUGH
 10
84.92288797563991
 20
32.276876
 30
0.0
  0
VERTEX
  5
40E
  8
CUT_HALFWAY_THROUGH
 10
84.82737597563991
 20
32.336125
 30
0.0
  0
VERTEX
  5
40F
  8
CUT_HALFWAY_THROUGH
 10
91.3890828914674
 20
34.37137579168388
 30
0.0
 42
0.7368231252251518
  0
VERTEX
  5
410
  8
CUT_HALFWAY_THROUGH
 10
91.38909772096622
 20
36.87853593487162
 30
0.0
  0
VERTEX
  5
411
  8
CUT_HALFWAY_THROUGH
 10
84.82737597563991
 20
38.913876
 30
0.0
  0
VERTEX
  5
412
  8
CUT_HALFWAY_THROUGH
 10
84.82737597563991
 20
38.59977499999999
 30
0.0
  0
VERTEX
  5
413
  8
CUT_HALFWAY_THROUGH
 10
91.30021988817631
 20
36.59200378346009
 30
0.0
 42
-0.7368231252251604
  0
VERTEX
  5
414
  8
CUT_HALFWAY_THROUGH
 10
91.3002082339928
 20
34.65790896274027
 30
0.0
  0
VERTEX
  5
415
  8
CUT_HALFWAY_THROUGH
 10
84.77962097563992
 20
32.635412
 30
0.0
  0
VERTEX
  5
416
  8
CUT_HALFWAY_THROUGH
 10
78.25903707760227
 20
34.65790798256713
 30
0.0
 42
-0.73682309829633
  0
VERTEX
  5
417
  8
CUT_HALFWAY_THROUGH
 10
78.2590258727787
 20
36.59200474792561
 30
0.0
  0
VERTEX
  5
418
  8
CUT_HALFWAY_THROUGH
 10
84.77962097563992
 20
38.614588
 30
0.0
  0
VERTEX
  5
419
  8
CUT_HALFWAY_THROUGH
 10
84.77962097563992
 20
38.300487
 30
0.0
  0
VERTEX
  5
41A
  8
CUT_HALFWAY_THROUGH
 10
78.34790321807091
 20
36.30547210039209
 30
0.0
 42
0.7368230982963286
  0
VERTEX
  5
41B
  8
CUT_HALFWAY_THROUGH
 10
78.34791148951285
 20
34.94444130879819
 30
0.0
  0
VERTEX
  5
41C
  8
CUT_HALFWAY_THROUGH
 10
84.77962097563992
 20
32.949512
 30
0.0
  0
VERTEX
  5
41D
  8
CUT_HALFWAY_THROUGH
 10
91.2113340765182
 20
34.94444263379665
 30
0.0
 42
0.7368231252251459
  0
VERTEX
  5
41E
  8
CUT_HALFWAY_THROUGH
 10
91.21134213513297
 20
36.30547126409711
 30
0.0
  0
VERTEX
  5
41F
  8
CUT_HALFWAY_THROUGH
 10
84.82737597563991
 20
38.285674
 30
0.0
  0
VERTEX
  5
420
  8
CUT_HALFWAY_THROUGH
 10
84.82737597563991
 20
37.971574
 30
0.0
  0
VERTEX
  5
421
  8
CUT_HALFWAY_THROUGH
 10
91.12246422259656
 20
36.01893898063702
 30
0.0
 42
-0.7368231252251587
  0
VERTEX
  5
422
  8
CUT_HALFWAY_THROUGH
 10
91.12245991904362
 20
35.23097580485304
 30
0.0
  0
VERTEX
  5
423
  8
CUT_HALFWAY_THROUGH
 10
84.77962097563992
 20
33.26361199999999
 30
0.0
  0
VERTEX
  5
424
  8
CUT_HALFWAY_THROUGH
 10
78.4367858875505
 20
35.23097482623105
 30
0.0
 42
-0.7368230982963082
  0
VERTEX
  5
425
  8
CUT_HALFWAY_THROUGH
 10
78.43678106336311
 20
36.01893995285858
 30
0.0
  0
VERTEX
  5
426
  8
CUT_HALFWAY_THROUGH
 10
84.77962097563992
 20
37.98638699999999
 30
0.0
  0
VERTEX
  5
427
  8
CUT_HALFWAY_THROUGH
 10
84.77962097563992
 20
37.672286
 30
0.0
  0
VERTEX
  5
428
  8
CUT_HALFWAY_THROUGH
 10
78.52565890865533
 20
35.73240780532506
 30
0.0
 42
0.7368230982960815
  0
VERTEX
  5
429
  8
CUT_HALFWAY_THROUGH
 10
78.5256600425246
 20
35.51750799806301
 30
0.0
  0
VERTEX
  5
42A
  8
CUT_HALFWAY_THROUGH
 10
84.77962097563992
 20
33.57771099999999
 30
0.0
  0
VERTEX
  5
42B
  8
CUT_HALFWAY_THROUGH
 10
91.03358526156902
 20
35.51750897590942
 30
0.0
 42
0.7368231252253463
  0
VERTEX
  5
42C
  8
CUT_HALFWAY_THROUGH
 10
91.03358688980667
 20
35.73240682922548
 30
0.0
  0
VERTEX
  5
42D
  8
CUT_HALFWAY_THROUGH
 10
84.82737597563991
 20
37.657473
 30
0.0
  0
VERTEX
  5
42E
  8
CUT_HALFWAY_THROUGH
 10
84.82737597563991
 20
37.343372
 30
0.0
  0
VERTEX
  5
42F
  8
CUT_HALFWAY_THROUGH
 10
90.36734997563991
 20
35.624962
 30
0.0
  0
VERTEX
  5
430
  8
CUT_HALFWAY_THROUGH
 10
84.77962097563992
 20
33.891811
 30
0.0
  0
VERTEX
  5
431
  8
CUT_HALFWAY_THROUGH
 10
79.1918919756399
 20
35.624962
 30
0.0
  0
VERTEX
  5
432
  8
CUT_HALFWAY_THROUGH
 10
84.77962097563992
 20
37.35818499999999
 30
0.0
  0
VERTEX
  5
433
  8
CUT_HALFWAY_THROUGH
 10
84.77962097563992
 20
37.044085
 30
0.0
  0
VERTEX
  5
434
  8
CUT_HALFWAY_THROUGH
 10
80.2045389756399
 20
35.624968
 30
0.0
  0
VERTEX
  5
435
  8
CUT_HALFWAY_THROUGH
 10
84.77962097563992
 20
34.20591
 30
0.0
  0
VERTEX
  5
436
  8
CUT_HALFWAY_THROUGH
 10
89.35470297563991
 20
35.624968
 30
0.0
  0
VERTEX
  5
437
  8
CUT_HALFWAY_THROUGH
 10
84.82737597563991
 20
37.02927199999999
 30
0.0
  0
VERTEX
  5
438
  8
CUT_HALFWAY_THROUGH
 10
84.82737597563991
 20
36.715171
 30
0.0
  0
VERTEX
  5
439
  8
CUT_HALFWAY_THROUGH
 10
88.3420569756399
 20
35.62497399999999
 30
0.0
  0
VERTEX
  5
43A
  8
CUT_HALFWAY_THROUGH
 10
84.77962097563992
 20
34.52001
 30
0.0
  0
VERTEX
  5
43B
  8
CUT_HALFWAY_THROUGH
 10
81.21718597563991
 20
35.62497399999999
 30
0.0
  0
VERTEX
  5
43C
  8
CUT_HALFWAY_THROUGH
 10
84.77962097563992
 20
36.729984
 30
0.0
  0
VERTEX
  5
43D
  8
CUT_HALFWAY_THROUGH
 10
84.77962097563992
 20
36.41588299999999
 30
0.0
  0
VERTEX
  5
43E
  8
CUT_HALFWAY_THROUGH
 10
82.22983197563991
 20
35.62497999999999
 30
0.0
  0
VERTEX
  5
43F
  8
CUT_HALFWAY_THROUGH
 10
84.77962097563992
 20
34.834109
 30
0.0
  0
VERTEX
  5
440
  8
CUT_HALFWAY_THROUGH
 10
87.3294099756399
 20
35.62497999999999
 30
0.0
  0
VERTEX
  5
441
  8
CUT_HALFWAY_THROUGH
 10
84.82737597563991
 20
36.40107
 30
0.0
  0
VERTEX
  5
442
  8
CUT_HALFWAY_THROUGH
 10
84.82737597563991
 20
36.086969
 30
0.0
  0
VERTEX
  5
443
  8
CUT_HALFWAY_THROUGH
 10
86.3167629756399
 20
35.62498599999999
 30
0.0
  0
VERTEX
  5
444
  8
CUT_HALFWAY_THROUGH
 10
84.77962097563992
 20
35.14820899999999
 30
0.0
  0
VERTEX
  5
445
  8
CUT_HALFWAY_THROUGH
 10
83.24247897563991
 20
35.62498599999999
 30
0.0
  0
VERTEX
  5
446
  8
CUT_HALFWAY_THROUGH
 10
84.77962097563992
 20
36.101782
 30
0.0
  0
VERTEX
  5
447
  8
CUT_HALFWAY_THROUGH
 10
84.77962097563992
 20
35.787682
 30
0.0
  0
VERTEX
  5
448
  8
CUT_HALFWAY_THROUGH
 10
84.25512597563991
 20
35.62499199999999
 30
0.0
  0
VERTEX
  5
449
  8
CUT_HALFWAY_THROUGH
 10
84.77962097563992
 20
35.46230899999999
 30
0.0
  0
VERTEX
  5
44A
  8
CUT_HALFWAY_THROUGH
 10
85.3041159756399
 20
35.62499199999999
 30
0.0
  0
VERTEX
  5
44B
  8
CUT_HALFWAY_THROUGH
 10
84.82737597563991
 20
35.772869
 30
0.0
  0
VERTEX
  5
44C
  8
CUT_HALFWAY_THROUGH
 10
91.00025797563991
 20
35.62495799999999
 30
0.0
  0
VERTEX
  5
44D
  8
CUT_HALFWAY_THROUGH
 10
78.55898797563991
 20
35.62495799999999
 30
0.0
  0
SEQEND
  5
44E
  8
CUT_HALFWAY_THROUGH
  0
POLYLINE
  5
5B
  8
CUT_HALFWAY_THROUGH
 66
     1
 10
0.0
 20
0.0
 30
0.0
  0
VERTEX
  5
44F
  8
CUT_HALFWAY_THROUGH
 10
84.92288697563991
 20
46.723129
 30
0.0
  0
VERTEX
  5
450
  8
CUT_HALFWAY_THROUGH
 10
78.17014802748648
 20
44.62853789545912
 30
0.0
 42
0.7368230982963239
  0
VERTEX
  5
451
  8
CUT_HALFWAY_THROUGH
 10
78.17016292262815
 20
42.12137581073517
 30
0.0
  0
VERTEX
  5
452
  8
CUT_HALFWAY_THROUGH
 10
84.92288797563991
 20
40.026877
 30
0.0
  0
VERTEX
  5
453
  8
CUT_HALFWAY_THROUGH
 10
84.82737597563991
 20
40.08612599999999
 30
0.0
  0
VERTEX
  5
454
  8
CUT_HALFWAY_THROUGH
 10
91.3890828914674
 20
42.12137679168388
 30
0.0
 42
0.7368231252251518
  0
VERTEX
  5
455
  8
CUT_HALFWAY_THROUGH
 10
91.38909772096622
 20
44.62853693487162
 30
0.0
  0
VERTEX
  5
456
  8
CUT_HALFWAY_THROUGH
 10
84.82737597563991
 20
46.663877
 30
0.0
  0
VERTEX
  5
457
  8
CUT_HALFWAY_THROUGH
 10
84.82737597563991
 20
46.34977599999999
 30
0.0
  0
VERTEX
  5
458
  8
CUT_HALFWAY_THROUGH
 10
91.30021988817631
 20
44.34200478346008
 30
0.0
 42
-0.7368231252251587
  0
VERTEX
  5
459
  8
CUT_HALFWAY_THROUGH
 10
91.3002082339928
 20
42.40790996274027
 30
0.0
  0
VERTEX
  5
45A
  8
CUT_HALFWAY_THROUGH
 10
84.77962097563992
 20
40.385413
 30
0.0
  0
VERTEX
  5
45B
  8
CUT_HALFWAY_THROUGH
 10
78.25903707760227
 20
42.40790898256713
 30
0.0
 42
-0.7368230982963291
  0
VERTEX
  5
45C
  8
CUT_HALFWAY_THROUGH
 10
78.2590258727787
 20
44.3420057479256
 30
0.0
  0
VERTEX
  5
45D
  8
CUT_HALFWAY_THROUGH
 10
84.77962097563992
 20
46.364589
 30
0.0
  0
VERTEX
  5
45E
  8
CUT_HALFWAY_THROUGH
 10
84.77962097563992
 20
46.050488
 30
0.0
  0
VERTEX
  5
45F
  8
CUT_HALFWAY_THROUGH
 10
78.34790321807091
 20
44.05547310039208
 30
0.0
 42
0.7368230982963275
  0
VERTEX
  5
460
  8
CUT_HALFWAY_THROUGH
 10
78.34791148951285
 20
42.69444230879819
 30
0.0
  0
VERTEX
  5
461
  8
CUT_HALFWAY_THROUGH
 10
84.77962097563992
 20
40.699513
 30
0.0
  0
VERTEX
  5
462
  8
CUT_HALFWAY_THROUGH
 10
91.2113340765182
 20
42.69444363379665
 30
0.0
 42
0.7368231252251459
  0
VERTEX
  5
463
  8
CUT_HALFWAY_THROUGH
 10
91.21134213513297
 20
44.05547226409711
 30
0.0
  0
VERTEX
  5
464
  8
CUT_HALFWAY_THROUGH
 10
84.82737597563991
 20
46.035675
 30
0.0
  0
VERTEX
  5
465
  8
CUT_HALFWAY_THROUGH
 10
84.82737597563991
 20
45.721575
 30
0.0
  0
VERTEX
  5
466
  8
CUT_HALFWAY_THROUGH
 10
91.12246422259656
 20
43.76893998063701
 30
0.0
 42
-0.7368231252251547
  0
VERTEX
  5
467
  8
CUT_HALFWAY_THROUGH
 10
91.12245991904362
 20
42.98097680485304
 30
0.0
  0
VERTEX
  5
468
  8
CUT_HALFWAY_THROUGH
 10
84.77962097563992
 20
41.01361299999999
 30
0.0
  0
VERTEX
  5
469
  8
CUT_HALFWAY_THROUGH
 10
78.4367858875505
 20
42.98097582623105
 30
0.0
 42
-0.7368230982963317
  0
VERTEX
  5
46A
  8
CUT_HALFWAY_THROUGH
 10
78.43678106336311
 20
43.76894095285858
 30
0.0
  0
VERTEX
  5
46B
  8
CUT_HALFWAY_THROUGH
 10
84.77962097563992
 20
45.73638799999999
 30
0.0
  0
VERTEX
  5
46C
  8
CUT_HALFWAY_THROUGH
 10
84.77962097563992
 20
45.422287
 30
0.0
  0
VERTEX
  5
46D
  8
CUT_HALFWAY_THROUGH
 10
78.52565890865533
 20
43.48240880532506
 30
0.0
 42
0.7368230982960815
  0
VERTEX
  5
46E
  8
CUT_HALFWAY_THROUGH
 10
78.5256600425246
 20
43.26750899806301
 30
0.0
  0
VERTEX
  5
46F
  8
CUT_HALFWAY_THROUGH
 10
84.77962097563992
 20
41.32771199999999
 30
0.0
  0
VERTEX
  5
470
  8
CUT_HALFWAY_THROUGH
 10
91.03358526156902
 20
43.26750997590942
 30
0.0
 42
0.7368231252253463
  0
VERTEX
  5
471
  8
CUT_HALFWAY_THROUGH
 10
91.03358688980667
 20
43.48240782922548
 30
0.0
  0
VERTEX
  5
472
  8
CUT_HALFWAY_THROUGH
 10
84.82737597563991
 20
45.40747399999999
 30
0.0
  0
VERTEX
  5
473
  8
CUT_HALFWAY_THROUGH
 10
84.82737597563991
 20
45.093373
 30
0.0
  0
VERTEX
  5
474
  8
CUT_HALFWAY_THROUGH
 10
90.36734997563991
 20
43.37496299999999
 30
0.0
  0
VERTEX
  5
475
  8
CUT_HALFWAY_THROUGH
 10
84.77962097563992
 20
41.641812
 30
0.0
  0
VERTEX
  5
476
  8
CUT_HALFWAY_THROUGH
 10
79.1918919756399
 20
43.37496299999999
 30
0.0
  0
VERTEX
  5
477
  8
CUT_HALFWAY_THROUGH
 10
84.77962097563992
 20
45.10818599999999
 30
0.0
  0
VERTEX
  5
478
  8
CUT_HALFWAY_THROUGH
 10
84.77962097563992
 20
44.79408599999999
 30
0.0
  0
VERTEX
  5
479
  8
CUT_HALFWAY_THROUGH
 10
80.2045389756399
 20
43.37496899999999
 30
0.0
  0
VERTEX
  5
47A
  8
CUT_HALFWAY_THROUGH
 10
84.77962097563992
 20
41.955911
 30
0.0
  0
VERTEX
  5
47B
  8
CUT_HALFWAY_THROUGH
 10
89.35470297563991
 20
43.37496899999999
 30
0.0
  0
VERTEX
  5
47C
  8
CUT_HALFWAY_THROUGH
 10
84.82737597563991
 20
44.77927299999999
 30
0.0
  0
VERTEX
  5
47D
  8
CUT_HALFWAY_THROUGH
 10
84.82737597563991
 20
44.465172
 30
0.0
  0
VERTEX
  5
47E
  8
CUT_HALFWAY_THROUGH
 10
88.3420569756399
 20
43.37497499999999
 30
0.0
  0
VERTEX
  5
47F
  8
CUT_HALFWAY_THROUGH
 10
84.77962097563992
 20
42.270011
 30
0.0
  0
VERTEX
  5
480
  8
CUT_HALFWAY_THROUGH
 10
81.21718597563991
 20
43.37497499999999
 30
0.0
  0
VERTEX
  5
481
  8
CUT_HALFWAY_THROUGH
 10
84.77962097563992
 20
44.479985
 30
0.0
  0
VERTEX
  5
482
  8
CUT_HALFWAY_THROUGH
 10
84.77962097563992
 20
44.16588399999999
 30
0.0
  0
VERTEX
  5
483
  8
CUT_HALFWAY_THROUGH
 10
82.22983197563991
 20
43.37498099999999
 30
0.0
  0
VERTEX
  5
484
  8
CUT_HALFWAY_THROUGH
 10
84.77962097563992
 20
42.58411
 30
0.0
  0
VERTEX
  5
485
  8
CUT_HALFWAY_THROUGH
 10
87.3294099756399
 20
43.37498099999999
 30
0.0
  0
VERTEX
  5
486
  8
CUT_HALFWAY_THROUGH
 10
84.82737597563991
 20
44.151071
 30
0.0
  0
VERTEX
  5
487
  8
CUT_HALFWAY_THROUGH
 10
84.82737597563991
 20
43.83696999999999
 30
0.0
  0
VERTEX
  5
488
  8
CUT_HALFWAY_THROUGH
 10
86.3167629756399
 20
43.37498699999999
 30
0.0
  0
VERTEX
  5
489
  8
CUT_HALFWAY_THROUGH
 10
84.77962097563992
 20
42.89820999999999
 30
0.0
  0
VERTEX
  5
48A
  8
CUT_HALFWAY_THROUGH
 10
83.24247897563991
 20
43.37498699999999
 30
0.0
  0
VERTEX
  5
48B
  8
CUT_HALFWAY_THROUGH
 10
84.77962097563992
 20
43.851783
 30
0.0
  0
VERTEX
  5
48C
  8
CUT_HALFWAY_THROUGH
 10
84.77962097563992
 20
43.537683
 30
0.0
  0
VERTEX
  5
48D
  8
CUT_HALFWAY_THROUGH
 10
84.25512597563991
 20
43.37499299999999
 30
0.0
  0
VERTEX
  5
48E
  8
CUT_HALFWAY_THROUGH
 10
84.77962097563992
 20
43.21230999999999
 30
0.0
  0
VERTEX
  5
48F
  8
CUT_HALFWAY_THROUGH
 10
85.3041159756399
 20
43.37499299999999
 30
0.0
  0
VERTEX
  5
490
  8
CUT_HALFWAY_THROUGH
 10
84.82737597563991
 20
43.52287
 30
0.0
  0
VERTEX
  5
491
  8
CUT_HALFWAY_THROUGH
 10
91.00025797563991
 20
43.37495899999999
 30
0.0
  0
VERTEX
  5
492
  8
CUT_HALFWAY_THROUGH
 10
78.55898797563991
 20
43.37495899999999
 30
0.0
  0
SEQEND
  5
493
  8
CUT_HALFWAY_THROUGH
  0
POLYLINE
  5
5D
  8
MARKS_IN_POCKET
 66
     1
 10
0.0
 20
0.0
 30
0.0
 70
     1
  0
VERTEX
  5
494
  8
MARKS_IN_POCKET
 10
83.6509377401937
 20
5.30940385219737
 30
0.0
 42
0.4142135623730951
  0
VERTEX
  5
495
  8
MARKS_IN_POCKET
 10
82.9009377401937
 20
4.55940385219737
 30
0.0
 42
0.4142135623730951
  0
VERTEX
  5
496
  8
MARKS_IN_POCKET
 10
83.6509377401937
 20
3.80940385219737
 30
0.0
 42
0.4142135623730951
  0
VERTEX
  5
497
  8
MARKS_IN_POCKET
 10
84.4009377401937
 20
4.55940385219737
 30
0.0
 42
0.4142135623730951
  0
SEQEND
  5
498
  8
MARKS_IN_POCKET
  0
POLYLINE
  5
5E
  8
MARKS_IN_POCKET
 66
     1
 10
0.0
 20
0.0
 30
0.0
 70
     1
  0
VERTEX
  5
499
  8
MARKS_IN_POCKET
 10
83.6509377401937
 20
13.05940485219737
 30
0.0
 42
0.4142135623730951
  0
VERTEX
  5
49A
  8
MARKS_IN_POCKET
 10
82.9009377401937
 20
12.30940485219737
 30
0.0
 42
0.4142135623730951
  0
VERTEX
  5
49B
  8
MARKS_IN_POCKET
 10
83.6509377401937
 20
11.55940485219737
 30
0.0
 42
0.4142135623730951
  0
VERTEX
  5
49C
  8
MARKS_IN_POCKET
 10
84.4009377401937
 20
12.30940485219737
 30
0.0
 42
0.4142135623730951
  0
SEQEND
  5
49D
  8
MARKS_IN_POCKET
  0
POLYLINE
  5
5F
  8
MARKS_IN_POCKET
 66
     1
 10
0.0
 20
0.0
 30
0.0
 70
     1
  0
VERTEX
  5
49E
  8
MARKS_IN_POCKET
 10
83.6509377401937
 20
20.80940585219736
 30
0.0
 42
0.4142135623730951
  0
VERTEX
  5
49F
  8
MARKS_IN_POCKET
 10
82.9009377401937
 20
20.05940585219736
 30
0.0
 42
0.4142135623730951
  0
VERTEX
  5
4A0
  8
MARKS_IN_POCKET
 10
83.6509377401937
 20
19.30940585219736
 30
0.0
 42
0.4142135623730951
  0
VERTEX
  5
4A1
  8
MARKS_IN_POCKET
 10
84.4009377401937
 20
20.05940585219736
 30
0.0
 42
0.4142135623730951
  0
SEQEND
  5
4A2
  8
MARKS_IN_POCKET
  0
POLYLINE
  5
60
  8
MARKS_IN_POCKET
 66
     1
 10
0.0
 20
0.0
 30
0.0
 70
     1
  0
VERTEX
  5
4A3
  8
MARKS_IN_POCKET
 10
83.6509377401937
 20
28.55940685219736
 30
0.0
 42
0.4142135623730951
  0
VERTEX
  5
4A4
  8
MARKS_IN_POCKET
 10
82.9009377401937
 20
27.80940685219736
 30
0.0
 42
0.4142135623730951
  0
VERTEX
  5
4A5
  8
MARKS_IN_POCKET
 10
83.6509377401937
 20
27.05940685219736
 30
0.0
 42
0.4142135623730951
  0
VERTEX
  5
4A6
  8
MARKS_IN_POCKET
 10
84.4009377401937
 20
27.80940685219736
 30
0.0
 42
0.4142135623730951
  0
SEQEND
  5
4A7
  8
MARKS_IN_POCKET
  0
POLYLINE
  5
61
  8
MARKS_IN_POCKET
 66
     1
 10
0.0
 20
0.0
 30
0.0
 70
     1
  0
VERTEX
  5
4A8
  8
MARKS_IN_POCKET
 10
84.77962097563992
 20
36.37500149999999
 30
0.0
 42
0.4142135623730951
  0
VERTEX
  5
4A9
  8
MARKS_IN_POCKET
 10
84.02962097563992
 20
35.62500149999999
 30
0.0
 42
0.4142135623730951
  0
VERTEX
  5
4AA
  8
MARKS_IN_POCKET
 10
84.77962097563992
 20
34.87500149999999
 30
0.0
 42
0.4142135623730951
  0
VERTEX
  5
4AB
  8
MARKS_IN_POCKET
 10
85.52962097563992
 20
35.62500149999999
 30
0.0
 42
0.4142135623730951
  0
SEQEND
  5
4AC
  8
MARKS_IN_POCKET
  0
POLYLINE
  5
62
  8
MARKS_IN_POCKET
 66
     1
 10
0.0
 20
0.0
 30
0.0
 70
     1
  0
VERTEX
  5
4AD
  8
MARKS_IN_POCKET
 10
84.77962097563992
 20
44.12500249999999
 30
0.0
 42
0.4142135623730951
  0
VERTEX
  5
4AE
  8
MARKS_IN_POCKET
 10
84.02962097563992
 20
43.37500249999999
 30
0.0
 42
0.4142135623730951
  0
VERTEX
  5
4AF
  8
MARKS_IN_POCKET
 10
84.77962097563992
 20
42.62500249999999
 30
0.0
 42
0.4142135623730951
  0
VERTEX
  5
4B0
  8
MARKS_IN_POCKET
 10
85.52962097563992
 20
43.37500249999999
 30
0.0
 42
0.4142135623730951
  0
SEQEND
  5
4B1
  8
MARKS_IN_POCKET
  0
ENDSEC
  0
EOF
