  0
SECTION
  2
HEADER
  9
$ACADVER
  1
AC1009
  9
$DWGCODEPAGE
  3
ansi_1252
  9
$INSBASE
 10
0.0
 20
0.0
 30
0.0
  9
$EXTMIN
 10
0.859578
 20
0.464737
 30
0.0
  9
$EXTMAX
 10
95.49224339504278
 20
47.535463
 30
0.0
  9
$LIMMIN
 10
0.0
 20
0.0
  9
$LIMMAX
 10
12.0
 20
9.0
  9
$ORTHOMODE
 70
     0
  9
$REGENMODE
 70
     1
  9
$FILLMODE
 70
     1
  9
$QTEXTMODE
 70
     0
  9
$MIRRTEXT
 70
     1
  9
$DRAGMODE
 70
     2
  9
$LTSCALE
 40
1.0
  9
$OSMODE
 70
    37
  9
$ATTMODE
 70
     1
  9
$TEXTSIZE
 40
0.2
  9
$TRACEWID
 40
0.05
  9
$TEXTSTYLE
  7
STANDARD
  9
$CLAYER
  8
0
  9
$CELTYPE
  6
BYLAYER
  9
$CECOLOR
 62
   256
  9
$DIMSCALE
 40
1.0
  9
$DIMASZ
 40
0.18
  9
$DIMEXO
 40
0.0625
  9
$DIMDLI
 40
0.38
  9
$DIMRND
 40
0.0
  9
$DIMDLE
 40
0.0
  9
$DIMEXE
 40
0.18
  9
$DIMTP
 40
0.0
  9
$DIMTM
 40
0.0
  9
$DIMTXT
 40
0.18
  9
$DIMCEN
 40
0.09
  9
$DIMTSZ
 40
0.0
  9
$DIMTOL
 70
     0
  9
$DIMLIM
 70
     0
  9
$DIMTIH
 70
     1
  9
$DIMTOH
 70
     1
  9
$DIMSE1
 70
     0
  9
$DIMSE2
 70
     0
  9
$DIMTAD
 70
     0
  9
$DIMZIN
 70
     0
  9
$DIMBLK
  1

  9
$DIMASO
 70
     1
  9
$DIMSHO
 70
     1
  9
$DIMPOST
  1

  9
$DIMAPOST
  1

  9
$DIMALT
 70
     0
  9
$DIMALTD
 70
     2
  9
$DIMALTF
 40
25.4
  9
$DIMLFAC
 40
1.0
  9
$DIMTOFL
 70
     0
  9
$DIMTVP
 40
0.0
  9
$DIMTIX
 70
     0
  9
$DIMSOXD
 70
     0
  9
$DIMSAH
 70
     0
  9
$DIMBLK1
  1

  9
$DIMBLK2
  1

  9
$DIMSTYLE
  2
STANDARD
  9
$DIMCLRD
 70
     0
  9
$DIMCLRE
 70
     0
  9
$DIMCLRT
 70
     0
  9
$DIMTFAC
 40
1.0
  9
$DIMGAP
 40
0.09
  9
$LUNITS
 70
     2
  9
$LUPREC
 70
     4
  9
$SKETCHINC
 40
0.1
  9
$FILLETRAD
 40
0.5
  9
$AUNITS
 70
     0
  9
$AUPREC
 70
     0
  9
$MENU
  1
.
  9
$ELEVATION
 40
0.0
  9
$PELEVATION
 40
0.0
  9
$THICKNESS
 40
0.0
  9
$LIMCHECK
 70
     0
  9
$CHAMFERA
 40
0.5
  9
$CHAMFERB
 40
0.5
  9
$SKPOLY
 70
     0
  9
$TDCREATE
 40
2454910.5
  9
$TDUPDATE
 40
2455901.446558368
  9
$TDINDWG
 40
0.0000000116
  9
$TDUSRTIMER
 40
0.0000000116
  9
$USRTIMER
 70
     1
  9
$ANGBASE
 50
0.0
  9
$ANGDIR
 70
     0
  9
$PDMODE
 70
     0
  9
$PDSIZE
 40
0.0
  9
$PLINEWID
 40
0.0
  9
$COORDS
 70
     1
  9
$SPLFRAME
 70
     0
  9
$SPLINETYPE
 70
     6
  9
$SPLINESEGS
 70
     8
  9
$ATTDIA
 70
     0
  9
$ATTREQ
 70
     1
  9
$HANDLING
 70
     1
  9
$HANDSEED
  5
685
  9
$SURFTAB1
 70
     6
  9
$SURFTAB2
 70
     6
  9
$SURFTYPE
 70
     6
  9
$SURFU
 70
     6
  9
$SURFV
 70
     6
  9
$UCSNAME
  2

  9
$UCSORG
 10
0.0
 20
0.0
 30
0.0
  9
$UCSXDIR
 10
1.0
 20
0.0
 30
0.0
  9
$UCSYDIR
 10
0.0
 20
1.0
 30
0.0
  9
$PUCSNAME
  2

  9
$PUCSORG
 10
0.0
 20
0.0
 30
0.0
  9
$PUCSXDIR
 10
1.0
 20
0.0
 30
0.0
  9
$PUCSYDIR
 10
0.0
 20
1.0
 30
0.0
  9
$USERI1
 70
     0
  9
$USERI2
 70
     0
  9
$USERI3
 70
     0
  9
$USERI4
 70
     0
  9
$USERI5
 70
     0
  9
$USERR1
 40
0.0
  9
$USERR2
 40
0.0
  9
$USERR3
 40
0.0
  9
$USERR4
 40
0.0
  9
$USERR5
 40
0.0
  9
$WORLDVIEW
 70
     1
  9
$SHADEDGE
 70
     3
  9
$SHADEDIF
 70
    70
  9
$TILEMODE
 70
     1
  9
$MAXACTVP
 70
    64
  9
$PLIMCHECK
 70
     0
  9
$PEXTMIN
 10
1.000000000000000E+20
 20
1.000000000000000E+20
 30
1.000000000000000E+20
  9
$PEXTMAX
 10
-1.000000000000000E+20
 20
-1.000000000000000E+20
 30
-1.000000000000000E+20
  9
$PLIMMIN
 10
0.0
 20
0.0
  9
$PLIMMAX
 10
12.0
 20
9.0
  9
$UNITMODE
 70
     0
  9
$VISRETAIN
 70
     1
  9
$PLINEGEN
 70
     0
  9
$PSLTSCALE
 70
     1
  0
ENDSEC
  0
SECTION
  2
TABLES
  0
TABLE
  2
VPORT
 70
     1
  0
VPORT
  2
*ACTIVE
 70
     0
 10
0.0
 20
0.0
 11
1.0
 21
1.0
 12
10.42990654205607
 22
4.5
 13
0.0
 23
0.0
 14
0.5
 24
0.5
 15
0.5
 25
0.5
 16
0.0
 26
0.0
 36
1.0
 17
0.0
 27
0.0
 37
0.0
 40
9.0
 41
1.972972972850329
 42
50.0
 43
0.0
 44
0.0
 50
0.0
 51
0.0
 71
     0
 72
   100
 73
     1
 74
     3
 75
     0
 76
     0
 77
     0
 78
     0
  0
ENDTAB
  0
TABLE
  2
LTYPE
 70
     2
  0
LTYPE
  2
CONTINUOUS
 70
     0
  3
Solid line
 72
    65
 73
     0
 40
0.0
  0
LTYPE
  2
CONTINUOUS2
 70
     0
  3
Solid Line
 72
    65
 73
     0
 40
0.0
  0
ENDTAB
  0
TABLE
  2
LAYER
 70
     4
  0
LAYER
  2
0
 70
     0
 62
     7
  6
CONTINUOUS
  0
LAYER
  2
CUT_HALFWAY_THROUGH
 70
     0
 62
     1
  6
CONTINUOUS
  0
LAYER
  2
THROUGH_CUT
 70
     0
 62
    18
  6
CONTINUOUS
  0
LAYER
  2
MARKS_IN_POCKET
 70
     0
 62
     3
  6
CONTINUOUS
  0
ENDTAB
  0
TABLE
  2
STYLE
 70
     1
  0
STYLE
  2
STANDARD
 70
     0
 40
0.0
 41
1.0
 50
0.0
 71
     0
 42
0.2
  3
txt
  4

  0
ENDTAB
  0
TABLE
  2
VIEW
 70
     0
  0
ENDTAB
  0
TABLE
  2
UCS
 70
     0
  0
ENDTAB
  0
TABLE
  2
APPID
 70
     1
  0
APPID
  2
ACAD
 70
     0
  0
ENDTAB
  0
TABLE
  2
DIMSTYLE
 70
     1
  0
DIMSTYLE
  2
STANDARD
 70
     0
  3

  4

  5

  6

  7

 40
1.0
 41
0.18
 42
0.0625
 43
0.38
 44
0.18
 45
0.0
 46
0.0
 47
0.0
 48
0.0
140
0.18
141
0.09
142
0.0
143
25.4
144
1.0
145
0.0
146
1.0
147
0.09
 71
     0
 72
     0
 73
     1
 74
     1
 75
     0
 76
     0
 77
     0
 78
     0
170
     0
171
     2
172
     0
173
     0
174
     0
175
     0
176
     0
177
     0
178
     0
  0
ENDTAB
  0
ENDSEC
  0
SECTION
  2
BLOCKS
  0
BLOCK
  8
0
  2
$MODEL_SPACE
 70
     0
 10
0.0
 20
0.0
 30
0.0
  3
$MODEL_SPACE
  1

  0
ENDBLK
  5
21
  8
0
  0
BLOCK
 67
     1
  8
0
  2
$PAPER_SPACE
 70
     0
 10
0.0
 20
0.0
 30
0.0
  3
$PAPER_SPACE
  1

  0
ENDBLK
  5
1D
 67
     1
  8
0
  0
ENDSEC
  0
SECTION
  2
ENTITIES
  0
POLYLINE
  5
41
  8
CUT_HALFWAY_THROUGH
 66
     1
 10
0.0
 20
0.0
 30
0.0
  0
VERTEX
  5
94
  8
CUT_HALFWAY_THROUGH
 10
8.730942343746436
 20
11.54434480343992
 30
0.0
  0
VERTEX
  5
95
  8
CUT_HALFWAY_THROUGH
 10
6.085003887942493
 20
18.42286864809159
 30
0.0
 42
0.6867687318601294
  0
VERTEX
  5
96
  8
CUT_HALFWAY_THROUGH
 10
3.635011724620627
 20
18.42286055377848
 30
0.0
  0
VERTEX
  5
97
  8
CUT_HALFWAY_THROUGH
 10
0.9891353437464419
 20
11.54436080343993
 30
0.0
  0
VERTEX
  5
98
  8
CUT_HALFWAY_THROUGH
 10
1.078889343746441
 20
11.68436080343993
 30
0.0
  0
VERTEX
  5
99
  8
CUT_HALFWAY_THROUGH
 10
3.634984192064136
 20
5.03918183030944
 30
0.0
 42
0.6867687318601294
  0
VERTEX
  5
9A
  8
CUT_HALFWAY_THROUGH
 10
6.084975500307236
 20
5.039163277777496
 30
0.0
  0
VERTEX
  5
9B
  8
CUT_HALFWAY_THROUGH
 10
8.64118734374644
 20
11.68434480343993
 30
0.0
  0
VERTEX
  5
9C
  8
CUT_HALFWAY_THROUGH
 10
8.31975634374645
 20
11.68434580343993
 30
0.0
  0
VERTEX
  5
9D
  8
CUT_HALFWAY_THROUGH
 10
5.804976711753822
 20
5.14687074171581
 30
0.0
 42
-0.6867687318601319
  0
VERTEX
  5
9E
  8
CUT_HALFWAY_THROUGH
 10
3.914984219115352
 20
5.146884908054753
 30
0.0
  0
VERTEX
  5
9F
  8
CUT_HALFWAY_THROUGH
 10
1.382367343746439
 20
11.73102680343993
 30
0.0
  0
VERTEX
  5
A0
  8
CUT_HALFWAY_THROUGH
 10
3.915010702809456
 20
18.31515496110512
 30
0.0
 42
-0.6867687318601285
  0
VERTEX
  5
A1
  8
CUT_HALFWAY_THROUGH
 10
5.80500494926912
 20
18.31516254074263
 30
0.0
  0
VERTEX
  5
A2
  8
CUT_HALFWAY_THROUGH
 10
8.337708343746444
 20
11.73101180343993
 30
0.0
  0
VERTEX
  5
A3
  8
CUT_HALFWAY_THROUGH
 10
8.016278343746437
 20
11.73101280343993
 30
0.0
  0
VERTEX
  5
A4
  8
CUT_HALFWAY_THROUGH
 10
5.525006510595718
 20
18.20745643339368
 30
0.0
 42
0.6867687318601388
  0
VERTEX
  5
A5
  8
CUT_HALFWAY_THROUGH
 10
4.195010300124126
 20
18.20745061809321
 30
0.0
  0
VERTEX
  5
A6
  8
CUT_HALFWAY_THROUGH
 10
1.703796343746449
 20
11.73102580343993
 30
0.0
  0
VERTEX
  5
A7
  8
CUT_HALFWAY_THROUGH
 10
4.194984246166568
 20
5.254587985800066
 30
0.0
 42
0.6867687318601301
  0
VERTEX
  5
A8
  8
CUT_HALFWAY_THROUGH
 10
5.524978659215178
 20
5.254578082205887
 30
0.0
  0
VERTEX
  5
A9
  8
CUT_HALFWAY_THROUGH
 10
7.998326343746443
 20
11.68434580343993
 30
0.0
  0
VERTEX
  5
AA
  8
CUT_HALFWAY_THROUGH
 10
7.676896343746437
 20
11.68434680343993
 30
0.0
  0
VERTEX
  5
AB
  8
CUT_HALFWAY_THROUGH
 10
5.244980291207808
 20
5.362285643930003
 30
0.0
 42
-0.6867687318601275
  0
VERTEX
  5
AC
  8
CUT_HALFWAY_THROUGH
 10
4.474984273217784
 20
5.36229106354538
 30
0.0
  0
VERTEX
  5
AD
  8
CUT_HALFWAY_THROUGH
 10
2.025225343746444
 20
11.73102480343993
 30
0.0
  0
VERTEX
  5
AE
  8
CUT_HALFWAY_THROUGH
 10
4.475009897438783
 20
18.0997462750813
 30
0.0
 42
-0.6867687318601234
  0
VERTEX
  5
AF
  8
CUT_HALFWAY_THROUGH
 10
5.245007571922345
 20
18.09974982604473
 30
0.0
  0
VERTEX
  5
B0
  8
CUT_HALFWAY_THROUGH
 10
7.694847343746448
 20
11.73101280343993
 30
0.0
  0
VERTEX
  5
B1
  8
CUT_HALFWAY_THROUGH
 10
7.373417343746441
 20
11.73101380343993
 30
0.0
  0
VERTEX
  5
B2
  8
CUT_HALFWAY_THROUGH
 10
4.965008633248972
 20
17.99204371869578
 30
0.0
 42
0.6867687318600889
  0
VERTEX
  5
B3
  8
CUT_HALFWAY_THROUGH
 10
4.755009494753439
 20
17.99204193206939
 30
0.0
  0
VERTEX
  5
B4
  8
CUT_HALFWAY_THROUGH
 10
2.346653343746441
 20
11.73102480343993
 30
0.0
  0
VERTEX
  5
B5
  8
CUT_HALFWAY_THROUGH
 10
4.754984300268999
 20
5.469994641290691
 30
0.0
 42
0.6867687318601865
  0
VERTEX
  5
B6
  8
CUT_HALFWAY_THROUGH
 10
4.964981818123119
 20
5.469992886634278
 30
0.0
  0
VERTEX
  5
B7
  8
CUT_HALFWAY_THROUGH
 10
7.355466343746444
 20
11.68434780343993
 30
0.0
  0
VERTEX
  5
B8
  8
CUT_HALFWAY_THROUGH
 10
7.034036343746438
 20
11.68434780343993
 30
0.0
  0
VERTEX
  5
B9
  8
CUT_HALFWAY_THROUGH
 10
4.859987343746438
 20
6.032644803439927
 30
0.0
  0
VERTEX
  5
BA
  8
CUT_HALFWAY_THROUGH
 10
2.66808234374645
 20
11.73102380343993
 30
0.0
  0
VERTEX
  5
BB
  8
CUT_HALFWAY_THROUGH
 10
4.860011343746438
 20
17.42939380343992
 30
0.0
  0
VERTEX
  5
BC
  8
CUT_HALFWAY_THROUGH
 10
7.051987343746449
 20
11.73101480343993
 30
0.0
  0
VERTEX
  5
BD
  8
CUT_HALFWAY_THROUGH
 10
6.730557343746442
 20
11.73101480343993
 30
0.0
  0
VERTEX
  5
BE
  8
CUT_HALFWAY_THROUGH
 10
4.860014343746444
 20
16.59378080343992
 30
0.0
  0
VERTEX
  5
BF
  8
CUT_HALFWAY_THROUGH
 10
2.989511343746445
 20
11.73102280343993
 30
0.0
  0
VERTEX
  5
C0
  8
CUT_HALFWAY_THROUGH
 10
4.859993343746437
 20
6.868257803439926
 30
0.0
  0
VERTEX
  5
C1
  8
CUT_HALFWAY_THROUGH
 10
6.712606343746446
 20
11.68434880343993
 30
0.0
  0
VERTEX
  5
C2
  8
CUT_HALFWAY_THROUGH
 10
6.391176343746439
 20
11.68434980343993
 30
0.0
  0
VERTEX
  5
C3
  8
CUT_HALFWAY_THROUGH
 10
4.859999343746436
 20
7.703871803439927
 30
0.0
  0
VERTEX
  5
C4
  8
CUT_HALFWAY_THROUGH
 10
3.31094034374644
 20
11.73102280343993
 30
0.0
  0
VERTEX
  5
C5
  8
CUT_HALFWAY_THROUGH
 10
4.860017343746437
 20
15.75816680343993
 30
0.0
  0
VERTEX
  5
C6
  8
CUT_HALFWAY_THROUGH
 10
6.40912734374645
 20
11.73101580343993
 30
0.0
  0
VERTEX
  5
C7
  8
CUT_HALFWAY_THROUGH
 10
6.087697343746443
 20
11.73101680343993
 30
0.0
  0
VERTEX
  5
C8
  8
CUT_HALFWAY_THROUGH
 10
4.860019343746446
 20
14.92255280343993
 30
0.0
  0
VERTEX
  5
C9
  8
CUT_HALFWAY_THROUGH
 10
3.632368343746437
 20
11.73102180343993
 30
0.0
  0
VERTEX
  5
CA
  8
CUT_HALFWAY_THROUGH
 10
4.86000634374645
 20
8.53948480343993
 30
0.0
  0
VERTEX
  5
CB
  8
CUT_HALFWAY_THROUGH
 10
6.069746343746447
 20
11.68434980343993
 30
0.0
  0
VERTEX
  5
CC
  8
CUT_HALFWAY_THROUGH
 10
5.748315343746443
 20
11.68435080343993
 30
0.0
  0
VERTEX
  5
CD
  8
CUT_HALFWAY_THROUGH
 10
4.860012343746449
 20
9.37509880343993
 30
0.0
  0
VERTEX
  5
CE
  8
CUT_HALFWAY_THROUGH
 10
3.953797343746446
 20
11.73102080343993
 30
0.0
  0
VERTEX
  5
CF
  8
CUT_HALFWAY_THROUGH
 10
4.860022343746438
 20
14.08693980343993
 30
0.0
  0
VERTEX
  5
D0
  8
CUT_HALFWAY_THROUGH
 10
5.766267343746437
 20
11.73101680343993
 30
0.0
  0
VERTEX
  5
D1
  8
CUT_HALFWAY_THROUGH
 10
5.444837343746444
 20
11.73101780343993
 30
0.0
  0
VERTEX
  5
D2
  8
CUT_HALFWAY_THROUGH
 10
4.860025343746445
 20
13.25132580343993
 30
0.0
  0
VERTEX
  5
D3
  8
CUT_HALFWAY_THROUGH
 10
4.275226343746441
 20
11.73102080343993
 30
0.0
  0
VERTEX
  5
D4
  8
CUT_HALFWAY_THROUGH
 10
4.860018343746448
 20
10.21071280343993
 30
0.0
  0
VERTEX
  5
D5
  8
CUT_HALFWAY_THROUGH
 10
5.42688534374645
 20
11.68435180343993
 30
0.0
  0
VERTEX
  5
D6
  8
CUT_HALFWAY_THROUGH
 10
5.105455343746444
 20
11.68435180343993
 30
0.0
  0
VERTEX
  5
D7
  8
CUT_HALFWAY_THROUGH
 10
4.860025343746445
 20
11.04632580343993
 30
0.0
  0
VERTEX
  5
D8
  8
CUT_HALFWAY_THROUGH
 10
4.59665534374645
 20
11.73101980343993
 30
0.0
  0
VERTEX
  5
D9
  8
CUT_HALFWAY_THROUGH
 10
4.860028343746437
 20
12.41571180343993
 30
0.0
  0
VERTEX
  5
DA
  8
CUT_HALFWAY_THROUGH
 10
5.12340634374644
 20
11.73101880343993
 30
0.0
  0
VERTEX
  5
DB
  8
CUT_HALFWAY_THROUGH
 10
4.860009353409199
 20
17.95165351656401
 30
0.0
  0
VERTEX
  5
DC
  8
CUT_HALFWAY_THROUGH
 10
4.859983343746434
 20
5.510382803439926
 30
0.0
  0
SEQEND
  5
DD
  8
CUT_HALFWAY_THROUGH
  0
POLYLINE
  5
42
  8
CUT_HALFWAY_THROUGH
 66
     1
 10
0.0
 20
0.0
 30
0.0
  0
VERTEX
  5
DE
  8
CUT_HALFWAY_THROUGH
 10
23.54619394938587
 20
45.40612625347971
 30
0.0
  0
VERTEX
  5
DF
  8
CUT_HALFWAY_THROUGH
 10
16.66767631123278
 20
42.7601728001074
 30
0.0
 42
0.6867687382814189
  0
VERTEX
  5
E0
  8
CUT_HALFWAY_THROUGH
 10
16.66768950324326
 20
40.31018063268488
 30
0.0
  0
VERTEX
  5
E1
  8
CUT_HALFWAY_THROUGH
 10
23.54619494938587
 20
37.66431925347971
 30
0.0
  0
VERTEX
  5
E2
  8
CUT_HALFWAY_THROUGH
 10
23.40619494938587
 20
37.75407225347971
 30
0.0
  0
VERTEX
  5
E3
  8
CUT_HALFWAY_THROUGH
 10
30.05136821602224
 20
40.31018109935125
 30
0.0
 42
0.6867687382814215
  0
VERTEX
  5
E4
  8
CUT_HALFWAY_THROUGH
 10
30.05138186666937
 20
42.76017241340627
 30
0.0
  0
VERTEX
  5
E5
  8
CUT_HALFWAY_THROUGH
 10
23.40619494938587
 20
45.31637025347971
 30
0.0
  0
VERTEX
  5
E6
  8
CUT_HALFWAY_THROUGH
 10
23.40619494938587
 20
44.99494025347971
 30
0.0
  0
VERTEX
  5
E7
  8
CUT_HALFWAY_THROUGH
 10
29.9436750050212
 20
42.48017400849952
 30
0.0
 42
-0.6867687382814216
  0
VERTEX
  5
E8
  8
CUT_HALFWAY_THROUGH
 10
29.94366434261821
 20
40.59018101267579
 30
0.0
  0
VERTEX
  5
E9
  8
CUT_HALFWAY_THROUGH
 10
23.35952794938587
 20
38.05755025347971
 30
0.0
  0
VERTEX
  5
EA
  8
CUT_HALFWAY_THROUGH
 10
16.7753948039087
 20
40.59017983853911
 30
0.0
 42
-0.6867687382814233
  0
VERTEX
  5
EB
  8
CUT_HALFWAY_THROUGH
 10
16.7753832142392
 20
42.48017447516393
 30
0.0
  0
VERTEX
  5
EC
  8
CUT_HALFWAY_THROUGH
 10
23.35952794938587
 20
45.01289125347971
 30
0.0
  0
VERTEX
  5
ED
  8
CUT_HALFWAY_THROUGH
 10
23.35952794938587
 20
44.69146125347971
 30
0.0
  0
VERTEX
  5
EE
  8
CUT_HALFWAY_THROUGH
 10
16.88308961724562
 20
42.20017565022046
 30
0.0
 42
0.6867687382814235
  0
VERTEX
  5
EF
  8
CUT_HALFWAY_THROUGH
 10
16.88309855071675
 20
40.87017966518818
 30
0.0
  0
VERTEX
  5
F0
  8
CUT_HALFWAY_THROUGH
 10
23.35952794938587
 20
38.37897925347971
 30
0.0
  0
VERTEX
  5
F1
  8
CUT_HALFWAY_THROUGH
 10
29.83596096921419
 20
40.87018092600032
 30
0.0
 42
0.6867687382814129
  0
VERTEX
  5
F2
  8
CUT_HALFWAY_THROUGH
 10
29.83596825464369
 20
42.20017511363238
 30
0.0
  0
VERTEX
  5
F3
  8
CUT_HALFWAY_THROUGH
 10
23.40619494938587
 20
44.67351025347971
 30
0.0
  0
VERTEX
  5
F4
  8
CUT_HALFWAY_THROUGH
 10
23.40619494938587
 20
44.35208025347971
 30
0.0
  0
VERTEX
  5
F5
  8
CUT_HALFWAY_THROUGH
 10
29.72826119900836
 20
41.92017635861257
 30
0.0
 42
-0.6867687382814162
  0
VERTEX
  5
F6
  8
CUT_HALFWAY_THROUGH
 10
29.72825709581016
 20
41.15018083932485
 30
0.0
  0
VERTEX
  5
F7
  8
CUT_HALFWAY_THROUGH
 10
23.35952794938587
 20
38.70040825347971
 30
0.0
  0
VERTEX
  5
F8
  8
CUT_HALFWAY_THROUGH
 10
16.9908022975248
 20
41.15017949183724
 30
0.0
 42
-0.686768738281418
  0
VERTEX
  5
F9
  8
CUT_HALFWAY_THROUGH
 10
16.99079652025204
 20
41.92017682527698
 30
0.0
  0
VERTEX
  5
FA
  8
CUT_HALFWAY_THROUGH
 10
23.35952794938587
 20
44.37003125347971
 30
0.0
  0
VERTEX
  5
FB
  8
CUT_HALFWAY_THROUGH
 10
23.35952794938587
 20
44.04860125347971
 30
0.0
  0
VERTEX
  5
FC
  8
CUT_HALFWAY_THROUGH
 10
17.09850342325846
 20
41.64017850033351
 30
0.0
 42
0.6867687382814036
  0
VERTEX
  5
FD
  8
CUT_HALFWAY_THROUGH
 10
17.09850604433285
 20
41.43017931848631
 30
0.0
  0
VERTEX
  5
FE
  8
CUT_HALFWAY_THROUGH
 10
23.35952794938587
 20
39.02183725347971
 30
0.0
  0
VERTEX
  5
FF
  8
CUT_HALFWAY_THROUGH
 10
29.62055322240614
 20
41.43018025264939
 30
0.0
 42
0.686768738281428
  0
VERTEX
  5
100
  8
CUT_HALFWAY_THROUGH
 10
29.620554642618
 20
41.64017781385849
 30
0.0
  0
VERTEX
  5
101
  8
CUT_HALFWAY_THROUGH
 10
23.40619494938587
 20
44.03064925347971
 30
0.0
  0
VERTEX
  5
102
  8
CUT_HALFWAY_THROUGH
 10
23.40619494938587
 20
43.70921925347971
 30
0.0
  0
VERTEX
  5
103
  8
CUT_HALFWAY_THROUGH
 10
29.05790294938587
 20
41.53518225347971
 30
0.0
  0
VERTEX
  5
104
  8
CUT_HALFWAY_THROUGH
 10
23.35952794938587
 20
39.34326525347971
 30
0.0
  0
VERTEX
  5
105
  8
CUT_HALFWAY_THROUGH
 10
17.66115294938587
 20
41.53518225347971
 30
0.0
  0
VERTEX
  5
106
  8
CUT_HALFWAY_THROUGH
 10
23.35952794938587
 20
43.72717025347971
 30
0.0
  0
VERTEX
  5
107
  8
CUT_HALFWAY_THROUGH
 10
23.35952794938587
 20
43.40574025347971
 30
0.0
  0
VERTEX
  5
108
  8
CUT_HALFWAY_THROUGH
 10
18.49676694938587
 20
41.53518725347971
 30
0.0
  0
VERTEX
  5
109
  8
CUT_HALFWAY_THROUGH
 10
23.35952794938587
 20
39.66469425347971
 30
0.0
  0
VERTEX
  5
10A
  8
CUT_HALFWAY_THROUGH
 10
28.22228894938587
 20
41.53518725347971
 30
0.0
  0
VERTEX
  5
10B
  8
CUT_HALFWAY_THROUGH
 10
23.40619494938587
 20
43.38778925347971
 30
0.0
  0
VERTEX
  5
10C
  8
CUT_HALFWAY_THROUGH
 10
23.40619494938587
 20
43.06635925347971
 30
0.0
  0
VERTEX
  5
10D
  8
CUT_HALFWAY_THROUGH
 10
27.38667594938587
 20
41.53519125347971
 30
0.0
  0
VERTEX
  5
10E
  8
CUT_HALFWAY_THROUGH
 10
23.35952794938587
 20
39.98612325347971
 30
0.0
  0
VERTEX
  5
10F
  8
CUT_HALFWAY_THROUGH
 10
19.33238094938587
 20
41.53519125347971
 30
0.0
  0
VERTEX
  5
110
  8
CUT_HALFWAY_THROUGH
 10
23.35952794938587
 20
43.08431025347971
 30
0.0
  0
VERTEX
  5
111
  8
CUT_HALFWAY_THROUGH
 10
23.35952794938587
 20
42.76288025347971
 30
0.0
  0
VERTEX
  5
112
  8
CUT_HALFWAY_THROUGH
 10
20.16799394938587
 20
41.53519625347971
 30
0.0
  0
VERTEX
  5
113
  8
CUT_HALFWAY_THROUGH
 10
23.35952794938587
 20
40.30755225347971
 30
0.0
  0
VERTEX
  5
114
  8
CUT_HALFWAY_THROUGH
 10
26.55106194938587
 20
41.53519625347971
 30
0.0
  0
VERTEX
  5
115
  8
CUT_HALFWAY_THROUGH
 10
23.40619494938587
 20
42.74492925347971
 30
0.0
  0
VERTEX
  5
116
  8
CUT_HALFWAY_THROUGH
 10
23.40619494938587
 20
42.42349925347971
 30
0.0
  0
VERTEX
  5
117
  8
CUT_HALFWAY_THROUGH
 10
25.71544794938587
 20
41.53520025347971
 30
0.0
  0
VERTEX
  5
118
  8
CUT_HALFWAY_THROUGH
 10
23.35952794938587
 20
40.62898025347971
 30
0.0
  0
VERTEX
  5
119
  8
CUT_HALFWAY_THROUGH
 10
21.00360794938587
 20
41.53520025347971
 30
0.0
  0
VERTEX
  5
11A
  8
CUT_HALFWAY_THROUGH
 10
23.35952794938587
 20
42.44145025347971
 30
0.0
  0
VERTEX
  5
11B
  8
CUT_HALFWAY_THROUGH
 10
23.35952794938587
 20
42.12002025347971
 30
0.0
  0
VERTEX
  5
11C
  8
CUT_HALFWAY_THROUGH
 10
21.83922194938587
 20
41.53520525347971
 30
0.0
  0
VERTEX
  5
11D
  8
CUT_HALFWAY_THROUGH
 10
23.35952794938587
 20
40.95040925347971
 30
0.0
  0
VERTEX
  5
11E
  8
CUT_HALFWAY_THROUGH
 10
24.87983494938587
 20
41.53520525347971
 30
0.0
  0
VERTEX
  5
11F
  8
CUT_HALFWAY_THROUGH
 10
23.40619494938587
 20
42.10206925347971
 30
0.0
  0
VERTEX
  5
120
  8
CUT_HALFWAY_THROUGH
 10
23.40619494938587
 20
41.78063925347971
 30
0.0
  0
VERTEX
  5
121
  8
CUT_HALFWAY_THROUGH
 10
24.04422094938587
 20
41.53521025347971
 30
0.0
  0
VERTEX
  5
122
  8
CUT_HALFWAY_THROUGH
 10
23.35952794938587
 20
41.27183825347971
 30
0.0
  0
VERTEX
  5
123
  8
CUT_HALFWAY_THROUGH
 10
22.67483494938587
 20
41.53521025347971
 30
0.0
  0
VERTEX
  5
124
  8
CUT_HALFWAY_THROUGH
 10
23.35952794938587
 20
41.79859025347971
 30
0.0
  0
VERTEX
  5
125
  8
CUT_HALFWAY_THROUGH
 10
17.13889494938587
 20
41.53517925347971
 30
0.0
  0
VERTEX
  5
126
  8
CUT_HALFWAY_THROUGH
 10
29.58016494938587
 20
41.53517925347971
 30
0.0
  0
SEQEND
  5
127
  8
CUT_HALFWAY_THROUGH
  0
POLYLINE
  5
43
  8
CUT_HALFWAY_THROUGH
 66
     1
 10
0.0
 20
0.0
 30
0.0
  0
VERTEX
  5
128
  8
CUT_HALFWAY_THROUGH
 10
33.806704
 20
32.355174
 30
0.0
  0
VERTEX
  5
129
  8
CUT_HALFWAY_THROUGH
 10
38.40440643006986
 20
38.11505295593005
 30
0.0
 42
0.6867687318601245
  0
VERTEX
  5
12A
  8
CUT_HALFWAY_THROUGH
 10
37.1660207050399
 20
40.22902161771255
 30
0.0
  0
VERTEX
  5
12B
  8
CUT_HALFWAY_THROUGH
 10
29.893526
 20
39.03519
 30
0.0
  0
VERTEX
  5
12C
  8
CUT_HALFWAY_THROUGH
 10
30.059691
 20
39.028511
 30
0.0
  0
VERTEX
  5
12D
  8
CUT_HALFWAY_THROUGH
 10
25.61791693375803
 20
33.46409983580688
 30
0.0
 42
0.6867687318601298
  0
VERTEX
  5
12E
  8
CUT_HALFWAY_THROUGH
 10
26.85627927726331
 20
31.35011842851401
 30
0.0
  0
VERTEX
  5
12F
  8
CUT_HALFWAY_THROUGH
 10
33.882134
 20
32.503384
 30
0.0
  0
VERTEX
  5
130
  8
CUT_HALFWAY_THROUGH
 10
33.719664
 20
32.78073
 30
0.0
  0
VERTEX
  5
131
  8
CUT_HALFWAY_THROUGH
 10
26.80768590271833
 20
31.64615686377476
 30
0.0
 42
-0.6867687318601294
  0
VERTEX
  5
132
  8
CUT_HALFWAY_THROUGH
 10
25.85237793821754
 20
33.27694194489568
 30
0.0
  0
VERTEX
  5
133
  8
CUT_HALFWAY_THROUGH
 10
30.253354
 20
38.790243
 30
0.0
  0
VERTEX
  5
134
  8
CUT_HALFWAY_THROUGH
 10
37.21461611634727
 20
39.93298346732794
 30
0.0
 42
-0.6867687318601268
  0
VERTEX
  5
135
  8
CUT_HALFWAY_THROUGH
 10
38.16994340319675
 20
38.30220856600318
 30
0.0
  0
VERTEX
  5
136
  8
CUT_HALFWAY_THROUGH
 10
33.769004
 20
32.788829
 30
0.0
  0
VERTEX
  5
137
  8
CUT_HALFWAY_THROUGH
 10
33.606533
 20
33.066175
 30
0.0
  0
VERTEX
  5
138
  8
CUT_HALFWAY_THROUGH
 10
37.93548037632364
 20
38.48936367607631
 30
0.0
 42
0.6867687318601285
  0
VERTEX
  5
139
  8
CUT_HALFWAY_THROUGH
 10
37.26321282261475
 20
39.63694569923077
 30
0.0
  0
VERTEX
  5
13A
  8
CUT_HALFWAY_THROUGH
 10
30.415823
 20
38.512898
 30
0.0
  0
VERTEX
  5
13B
  8
CUT_HALFWAY_THROUGH
 10
26.08683894267703
 20
33.08978405398447
 30
0.0
 42
0.6867687318601279
  0
VERTEX
  5
13C
  8
CUT_HALFWAY_THROUGH
 10
26.75909233361003
 20
31.94219502658501
 30
0.0
  0
VERTEX
  5
13D
  8
CUT_HALFWAY_THROUGH
 10
33.557194
 20
33.058076
 30
0.0
  0
VERTEX
  5
13E
  8
CUT_HALFWAY_THROUGH
 10
33.394724
 20
33.335422
 30
0.0
  0
VERTEX
  5
13F
  8
CUT_HALFWAY_THROUGH
 10
26.7104989308917
 20
32.23823366281026
 30
0.0
 42
-0.6867687318601229
  0
VERTEX
  5
140
  8
CUT_HALFWAY_THROUGH
 10
26.32129994713653
 20
32.90262666307327
 30
0.0
  0
VERTEX
  5
141
  8
CUT_HALFWAY_THROUGH
 10
30.578293
 20
38.235553
 30
0.0
  0
VERTEX
  5
142
  8
CUT_HALFWAY_THROUGH
 10
37.31180952888222
 20
39.34090793113361
 30
0.0
 42
-0.6867687318600926
  0
VERTEX
  5
143
  8
CUT_HALFWAY_THROUGH
 10
37.70101734945052
 20
38.67651878614944
 30
0.0
  0
VERTEX
  5
144
  8
CUT_HALFWAY_THROUGH
 10
33.444063
 20
33.343521
 30
0.0
  0
VERTEX
  5
145
  8
CUT_HALFWAY_THROUGH
 10
33.281593
 20
33.620867
 30
0.0
  0
VERTEX
  5
146
  8
CUT_HALFWAY_THROUGH
 10
37.46655432257742
 20
38.86367389622258
 30
0.0
 42
0.6867687318601217
  0
VERTEX
  5
147
  8
CUT_HALFWAY_THROUGH
 10
37.3604062351497
 20
39.04487016303644
 30
0.0
  0
VERTEX
  5
148
  8
CUT_HALFWAY_THROUGH
 10
30.740762
 20
37.958209
 30
0.0
  0
VERTEX
  5
149
  8
CUT_HALFWAY_THROUGH
 10
26.55576095159604
 20
32.71546877216207
 30
0.0
 42
0.6867687318601379
  0
VERTEX
  5
14A
  8
CUT_HALFWAY_THROUGH
 10
26.66190538995675
 20
32.53427162465601
 30
0.0
  0
VERTEX
  5
14B
  8
CUT_HALFWAY_THROUGH
 10
33.232253
 20
33.612768
 30
0.0
  0
VERTEX
  5
14C
  8
CUT_HALFWAY_THROUGH
 10
33.069783
 20
33.890114
 30
0.0
  0
VERTEX
  5
14D
  8
CUT_HALFWAY_THROUGH
 10
27.094318
 20
32.909266
 30
0.0
  0
VERTEX
  5
14E
  8
CUT_HALFWAY_THROUGH
 10
30.903232
 20
37.680864
 30
0.0
  0
VERTEX
  5
14F
  8
CUT_HALFWAY_THROUGH
 10
36.928
 20
38.669873
 30
0.0
  0
VERTEX
  5
150
  8
CUT_HALFWAY_THROUGH
 10
33.119123
 20
33.898213
 30
0.0
  0
VERTEX
  5
151
  8
CUT_HALFWAY_THROUGH
 10
32.956653
 20
34.175558
 30
0.0
  0
VERTEX
  5
152
  8
CUT_HALFWAY_THROUGH
 10
36.206994
 20
38.247499
 30
0.0
  0
VERTEX
  5
153
  8
CUT_HALFWAY_THROUGH
 10
31.065701
 20
37.403519
 30
0.0
  0
VERTEX
  5
154
  8
CUT_HALFWAY_THROUGH
 10
27.815329
 20
33.331631
 30
0.0
  0
VERTEX
  5
155
  8
CUT_HALFWAY_THROUGH
 10
32.907313
 20
34.16746
 30
0.0
  0
VERTEX
  5
156
  8
CUT_HALFWAY_THROUGH
 10
32.744843
 20
34.444805
 30
0.0
  0
VERTEX
  5
157
  8
CUT_HALFWAY_THROUGH
 10
28.536341
 20
33.753997
 30
0.0
  0
VERTEX
  5
158
  8
CUT_HALFWAY_THROUGH
 10
31.228171
 20
37.126174
 30
0.0
  0
VERTEX
  5
159
  8
CUT_HALFWAY_THROUGH
 10
35.485987
 20
37.825125
 30
0.0
  0
VERTEX
  5
15A
  8
CUT_HALFWAY_THROUGH
 10
32.794182
 20
34.452904
 30
0.0
  0
VERTEX
  5
15B
  8
CUT_HALFWAY_THROUGH
 10
32.631712
 20
34.73025
 30
0.0
  0
VERTEX
  5
15C
  8
CUT_HALFWAY_THROUGH
 10
34.76498
 20
37.402752
 30
0.0
  0
VERTEX
  5
15D
  8
CUT_HALFWAY_THROUGH
 10
31.39064
 20
36.84883
 30
0.0
  0
VERTEX
  5
15E
  8
CUT_HALFWAY_THROUGH
 10
29.257352
 20
34.176363
 30
0.0
  0
VERTEX
  5
15F
  8
CUT_HALFWAY_THROUGH
 10
32.582372
 20
34.722151
 30
0.0
  0
VERTEX
  5
160
  8
CUT_HALFWAY_THROUGH
 10
32.419902
 20
34.999497
 30
0.0
  0
VERTEX
  5
161
  8
CUT_HALFWAY_THROUGH
 10
29.978363
 20
34.598729
 30
0.0
  0
VERTEX
  5
162
  8
CUT_HALFWAY_THROUGH
 10
31.55311
 20
36.571485
 30
0.0
  0
VERTEX
  5
163
  8
CUT_HALFWAY_THROUGH
 10
34.043974
 20
36.980378
 30
0.0
  0
VERTEX
  5
164
  8
CUT_HALFWAY_THROUGH
 10
32.469242
 20
35.007596
 30
0.0
  0
VERTEX
  5
165
  8
CUT_HALFWAY_THROUGH
 10
32.306772
 20
35.284942
 30
0.0
  0
VERTEX
  5
166
  8
CUT_HALFWAY_THROUGH
 10
33.322967
 20
36.558004
 30
0.0
  0
VERTEX
  5
167
  8
CUT_HALFWAY_THROUGH
 10
31.71558
 20
36.29414
 30
0.0
  0
VERTEX
  5
168
  8
CUT_HALFWAY_THROUGH
 10
30.699375
 20
35.021094
 30
0.0
  0
VERTEX
  5
169
  8
CUT_HALFWAY_THROUGH
 10
32.257432
 20
35.276843
 30
0.0
  0
VERTEX
  5
16A
  8
CUT_HALFWAY_THROUGH
 10
32.094962
 20
35.554189
 30
0.0
  0
VERTEX
  5
16B
  8
CUT_HALFWAY_THROUGH
 10
31.420386
 20
35.44346
 30
0.0
  0
VERTEX
  5
16C
  8
CUT_HALFWAY_THROUGH
 10
31.878049
 20
36.016796
 30
0.0
  0
VERTEX
  5
16D
  8
CUT_HALFWAY_THROUGH
 10
32.60196
 20
36.135631
 30
0.0
  0
VERTEX
  5
16E
  8
CUT_HALFWAY_THROUGH
 10
32.144301
 20
35.562288
 30
0.0
  0
VERTEX
  5
16F
  8
CUT_HALFWAY_THROUGH
 10
37.37863052986333
 20
38.93385642631236
 30
0.0
  0
VERTEX
  5
170
  8
CUT_HALFWAY_THROUGH
 10
26.643683
 20
32.645285
 30
0.0
  0
SEQEND
  5
171
  8
CUT_HALFWAY_THROUGH
  0
POLYLINE
  5
44
  8
CUT_HALFWAY_THROUGH
 66
     1
 10
0.0
 20
0.0
 30
0.0
  0
VERTEX
  5
172
  8
CUT_HALFWAY_THROUGH
 10
85.621333
 20
23.151385
 30
0.0
  0
VERTEX
  5
173
  8
CUT_HALFWAY_THROUGH
 10
88.26727145580395
 20
16.27286115534834
 30
0.0
 42
0.6867687318601294
  0
VERTEX
  5
174
  8
CUT_HALFWAY_THROUGH
 10
90.71726361912582
 20
16.27286924966145
 30
0.0
  0
VERTEX
  5
175
  8
CUT_HALFWAY_THROUGH
 10
93.36314
 20
23.151369
 30
0.0
  0
VERTEX
  5
176
  8
CUT_HALFWAY_THROUGH
 10
93.273386
 20
23.011369
 30
0.0
  0
VERTEX
  5
177
  8
CUT_HALFWAY_THROUGH
 10
90.7172911516823
 20
29.65654797313049
 30
0.0
 42
0.6867687318601285
  0
VERTEX
  5
178
  8
CUT_HALFWAY_THROUGH
 10
88.2672998434392
 20
29.65656652566243
 30
0.0
  0
VERTEX
  5
179
  8
CUT_HALFWAY_THROUGH
 10
85.711088
 20
23.011385
 30
0.0
  0
VERTEX
  5
17A
  8
CUT_HALFWAY_THROUGH
 10
86.032519
 20
23.011384
 30
0.0
  0
VERTEX
  5
17B
  8
CUT_HALFWAY_THROUGH
 10
88.54729863199262
 20
29.54885906172412
 30
0.0
 42
-0.686768731860133
  0
VERTEX
  5
17C
  8
CUT_HALFWAY_THROUGH
 10
90.43729112463109
 20
29.54884489538517
 30
0.0
  0
VERTEX
  5
17D
  8
CUT_HALFWAY_THROUGH
 10
92.969908
 20
22.964703
 30
0.0
  0
VERTEX
  5
17E
  8
CUT_HALFWAY_THROUGH
 10
90.43726464093699
 20
16.3805748423348
 30
0.0
 42
-0.6867687318601251
  0
VERTEX
  5
17F
  8
CUT_HALFWAY_THROUGH
 10
88.54727039447732
 20
16.38056726269729
 30
0.0
  0
VERTEX
  5
180
  8
CUT_HALFWAY_THROUGH
 10
86.014567
 20
22.964718
 30
0.0
  0
VERTEX
  5
181
  8
CUT_HALFWAY_THROUGH
 10
86.335997
 20
22.964717
 30
0.0
  0
VERTEX
  5
182
  8
CUT_HALFWAY_THROUGH
 10
88.82726883315073
 20
16.48827337004624
 30
0.0
 42
0.6867687318601337
  0
VERTEX
  5
183
  8
CUT_HALFWAY_THROUGH
 10
90.15726504362232
 20
16.48827918534671
 30
0.0
  0
VERTEX
  5
184
  8
CUT_HALFWAY_THROUGH
 10
92.648479
 20
22.964704
 30
0.0
  0
VERTEX
  5
185
  8
CUT_HALFWAY_THROUGH
 10
90.15729109757987
 20
29.44114181763986
 30
0.0
 42
0.6867687318601283
  0
VERTEX
  5
186
  8
CUT_HALFWAY_THROUGH
 10
88.82729668453126
 20
29.44115172123404
 30
0.0
  0
VERTEX
  5
187
  8
CUT_HALFWAY_THROUGH
 10
86.353949
 20
23.011384
 30
0.0
  0
VERTEX
  5
188
  8
CUT_HALFWAY_THROUGH
 10
86.675379
 20
23.011383
 30
0.0
  0
VERTEX
  5
189
  8
CUT_HALFWAY_THROUGH
 10
89.10729505253863
 20
29.33344415950992
 30
0.0
 42
-0.6867687318601268
  0
VERTEX
  5
18A
  8
CUT_HALFWAY_THROUGH
 10
89.87729107052866
 20
29.33343873989455
 30
0.0
  0
VERTEX
  5
18B
  8
CUT_HALFWAY_THROUGH
 10
92.32705
 20
22.964705
 30
0.0
  0
VERTEX
  5
18C
  8
CUT_HALFWAY_THROUGH
 10
89.87726544630766
 20
16.59598352835862
 30
0.0
 42
-0.6867687318601262
  0
VERTEX
  5
18D
  8
CUT_HALFWAY_THROUGH
 10
89.1072677718241
 20
16.59597997739519
 30
0.0
  0
VERTEX
  5
18E
  8
CUT_HALFWAY_THROUGH
 10
86.657428
 20
22.964717
 30
0.0
  0
VERTEX
  5
18F
  8
CUT_HALFWAY_THROUGH
 10
86.978858
 20
22.964716
 30
0.0
  0
VERTEX
  5
190
  8
CUT_HALFWAY_THROUGH
 10
89.38726671049747
 20
16.70368608474414
 30
0.0
 42
0.6867687318601114
  0
VERTEX
  5
191
  8
CUT_HALFWAY_THROUGH
 10
89.597265848993
 20
16.70368787137053
 30
0.0
  0
VERTEX
  5
192
  8
CUT_HALFWAY_THROUGH
 10
92.005622
 20
22.964705
 30
0.0
  0
VERTEX
  5
193
  8
CUT_HALFWAY_THROUGH
 10
89.59729104347744
 20
29.22573516214923
 30
0.0
 42
0.686768731860157
  0
VERTEX
  5
194
  8
CUT_HALFWAY_THROUGH
 10
89.38729352562332
 20
29.22573691680565
 30
0.0
  0
VERTEX
  5
195
  8
CUT_HALFWAY_THROUGH
 10
86.996809
 20
23.011382
 30
0.0
  0
VERTEX
  5
196
  8
CUT_HALFWAY_THROUGH
 10
87.318239
 20
23.011382
 30
0.0
  0
VERTEX
  5
197
  8
CUT_HALFWAY_THROUGH
 10
89.492288
 20
28.663085
 30
0.0
  0
VERTEX
  5
198
  8
CUT_HALFWAY_THROUGH
 10
91.684193
 20
22.964706
 30
0.0
  0
VERTEX
  5
199
  8
CUT_HALFWAY_THROUGH
 10
89.492264
 20
17.266336
 30
0.0
  0
VERTEX
  5
19A
  8
CUT_HALFWAY_THROUGH
 10
87.300288
 20
22.964715
 30
0.0
  0
VERTEX
  5
19B
  8
CUT_HALFWAY_THROUGH
 10
87.621718
 20
22.964715
 30
0.0
  0
VERTEX
  5
19C
  8
CUT_HALFWAY_THROUGH
 10
89.492261
 20
18.101949
 30
0.0
  0
VERTEX
  5
19D
  8
CUT_HALFWAY_THROUGH
 10
91.362764
 20
22.964707
 30
0.0
  0
VERTEX
  5
19E
  8
CUT_HALFWAY_THROUGH
 10
89.492282
 20
27.827472
 30
0.0
  0
VERTEX
  5
19F
  8
CUT_HALFWAY_THROUGH
 10
87.639669
 20
23.011381
 30
0.0
  0
VERTEX
  5
1A0
  8
CUT_HALFWAY_THROUGH
 10
87.961099
 20
23.01138
 30
0.0
  0
VERTEX
  5
1A1
  8
CUT_HALFWAY_THROUGH
 10
89.492276
 20
26.991858
 30
0.0
  0
VERTEX
  5
1A2
  8
CUT_HALFWAY_THROUGH
 10
91.041335
 20
22.964707
 30
0.0
  0
VERTEX
  5
1A3
  8
CUT_HALFWAY_THROUGH
 10
89.492258
 20
18.937563
 30
0.0
  0
VERTEX
  5
1A4
  8
CUT_HALFWAY_THROUGH
 10
87.943148
 20
22.964714
 30
0.0
  0
VERTEX
  5
1A5
  8
CUT_HALFWAY_THROUGH
 10
88.264578
 20
22.964713
 30
0.0
  0
VERTEX
  5
1A6
  8
CUT_HALFWAY_THROUGH
 10
89.492256
 20
19.773177
 30
0.0
  0
VERTEX
  5
1A7
  8
CUT_HALFWAY_THROUGH
 10
90.719907
 20
22.964708
 30
0.0
  0
VERTEX
  5
1A8
  8
CUT_HALFWAY_THROUGH
 10
89.492269
 20
26.156245
 30
0.0
  0
VERTEX
  5
1A9
  8
CUT_HALFWAY_THROUGH
 10
88.282529
 20
23.01138
 30
0.0
  0
VERTEX
  5
1AA
  8
CUT_HALFWAY_THROUGH
 10
88.60396
 20
23.011379
 30
0.0
  0
VERTEX
  5
1AB
  8
CUT_HALFWAY_THROUGH
 10
89.492263
 20
25.320631
 30
0.0
  0
VERTEX
  5
1AC
  8
CUT_HALFWAY_THROUGH
 10
90.398478
 20
22.964709
 30
0.0
  0
VERTEX
  5
1AD
  8
CUT_HALFWAY_THROUGH
 10
89.492253
 20
20.60879
 30
0.0
  0
VERTEX
  5
1AE
  8
CUT_HALFWAY_THROUGH
 10
88.586008
 20
22.964713
 30
0.0
  0
VERTEX
  5
1AF
  8
CUT_HALFWAY_THROUGH
 10
88.907438
 20
22.964712
 30
0.0
  0
VERTEX
  5
1B0
  8
CUT_HALFWAY_THROUGH
 10
89.49225
 20
21.444404
 30
0.0
  0
VERTEX
  5
1B1
  8
CUT_HALFWAY_THROUGH
 10
90.077049
 20
22.964709
 30
0.0
  0
VERTEX
  5
1B2
  8
CUT_HALFWAY_THROUGH
 10
89.492257
 20
24.485017
 30
0.0
  0
VERTEX
  5
1B3
  8
CUT_HALFWAY_THROUGH
 10
88.92539
 20
23.011378
 30
0.0
  0
VERTEX
  5
1B4
  8
CUT_HALFWAY_THROUGH
 10
89.24682
 20
23.011378
 30
0.0
  0
VERTEX
  5
1B5
  8
CUT_HALFWAY_THROUGH
 10
89.49225
 20
23.649404
 30
0.0
  0
VERTEX
  5
1B6
  8
CUT_HALFWAY_THROUGH
 10
89.75562
 20
22.96471
 30
0.0
  0
VERTEX
  5
1B7
  8
CUT_HALFWAY_THROUGH
 10
89.492247
 20
22.280018
 30
0.0
  0
VERTEX
  5
1B8
  8
CUT_HALFWAY_THROUGH
 10
89.228869
 20
22.964711
 30
0.0
  0
VERTEX
  5
1B9
  8
CUT_HALFWAY_THROUGH
 10
89.49226599033724
 20
16.74407628687591
 30
0.0
  0
VERTEX
  5
1BA
  8
CUT_HALFWAY_THROUGH
 10
89.492292
 20
29.185347
 30
0.0
  0
SEQEND
  5
1BB
  8
CUT_HALFWAY_THROUGH
  0
POLYLINE
  5
45
  8
CUT_HALFWAY_THROUGH
 66
     1
 10
0.0
 20
0.0
 30
0.0
  0
VERTEX
  5
1BC
  8
CUT_HALFWAY_THROUGH
 10
70.08497048200869
 20
16.94436584433662
 30
0.0
  0
VERTEX
  5
1BD
  8
CUT_HALFWAY_THROUGH
 10
62.7204939011765
 20
17.22641857068078
 30
0.0
 42
0.6867687318601265
  0
VERTEX
  5
1BE
  8
CUT_HALFWAY_THROUGH
 10
61.75403533811503
 20
14.97510353444158
 30
0.0
  0
VERTEX
  5
1BF
  8
CUT_HALFWAY_THROUGH
 10
67.03098948200869
 20
9.830380844336615
 30
0.0
  0
VERTEX
  5
1C0
  8
CUT_HALFWAY_THROUGH
 10
66.93774848200869
 20
9.968082844336616
 30
0.0
  0
VERTEX
  5
1C1
  8
CUT_HALFWAY_THROUGH
 10
74.05236291720547
 20
9.695520892070146
 30
0.0
 42
0.6867687318601324
  0
VERTEX
  5
1C2
  8
CUT_HALFWAY_THROUGH
 10
75.01884633944059
 20
11.94682473756578
 30
0.0
  0
VERTEX
  5
1C3
  8
CUT_HALFWAY_THROUGH
 10
69.92091748200869
 20
16.91711484433662
 30
0.0
  0
VERTEX
  5
1C4
  8
CUT_HALFWAY_THROUGH
 10
69.7941204820087
 20
16.62175184433661
 30
0.0
  0
VERTEX
  5
1C5
  8
CUT_HALFWAY_THROUGH
 10
74.8094199329511
 20
11.73202077846633
 30
0.0
 42
-0.6867687318601143
  0
VERTEX
  5
1C6
  8
CUT_HALFWAY_THROUGH
 10
74.06384772210701
 20
9.995301438218707
 30
0.0
  0
VERTEX
  5
1C7
  8
CUT_HALFWAY_THROUGH
 10
67.01458248200869
 20
10.26535984433661
 30
0.0
  0
VERTEX
  5
1C8
  8
CUT_HALFWAY_THROUGH
 10
61.96345980285847
 20
15.18990853764141
 30
0.0
 42
-0.6867687318601357
  0
VERTEX
  5
1C9
  8
CUT_HALFWAY_THROUGH
 10
62.70901273393815
 20
16.92663846180211
 30
0.0
  0
VERTEX
  5
1CA
  8
CUT_HALFWAY_THROUGH
 10
69.75831948200869
 20
16.65665584433662
 30
0.0
  0
VERTEX
  5
1CB
  8
CUT_HALFWAY_THROUGH
 10
69.63152248200869
 20
16.36129184433662
 30
0.0
  0
VERTEX
  5
1CC
  8
CUT_HALFWAY_THROUGH
 10
62.69753106669979
 20
16.62685835292345
 30
0.0
 42
0.6867687318601263
  0
VERTEX
  5
1CD
  8
CUT_HALFWAY_THROUGH
 10
62.17288341149557
 20
15.40471485073629
 30
0.0
  0
VERTEX
  5
1CE
  8
CUT_HALFWAY_THROUGH
 10
67.14137948200869
 20
10.56072184433662
 30
0.0
  0
VERTEX
  5
1CF
  8
CUT_HALFWAY_THROUGH
 10
74.07533252700856
 20
10.29508148436727
 30
0.0
 42
0.6867687318601317
  0
VERTEX
  5
1D0
  8
CUT_HALFWAY_THROUGH
 10
74.59999442834646
 20
11.51721668762631
 30
0.0
  0
VERTEX
  5
1D1
  8
CUT_HALFWAY_THROUGH
 10
69.66732248200869
 20
16.32638784433662
 30
0.0
  0
VERTEX
  5
1D2
  8
CUT_HALFWAY_THROUGH
 10
69.54052548200869
 20
16.03102384433662
 30
0.0
  0
VERTEX
  5
1D3
  8
CUT_HALFWAY_THROUGH
 10
74.39056797740403
 20
11.3024127534966
 30
0.0
 42
-0.6867687318601308
  0
VERTEX
  5
1D4
  8
CUT_HALFWAY_THROUGH
 10
74.08681683191008
 20
10.59486153051583
 30
0.0
  0
VERTEX
  5
1D5
  8
CUT_HALFWAY_THROUGH
 10
67.26817648200868
 20
10.85608484433662
 30
0.0
  0
VERTEX
  5
1D6
  8
CUT_HALFWAY_THROUGH
 10
62.38230702013267
 20
15.61952116383116
 30
0.0
 42
-0.6867687318601345
  0
VERTEX
  5
1D7
  8
CUT_HALFWAY_THROUGH
 10
62.68604989946143
 20
16.32707774404478
 30
0.0
  0
VERTEX
  5
1D8
  8
CUT_HALFWAY_THROUGH
 10
69.50472448200868
 20
16.06592884433661
 30
0.0
  0
VERTEX
  5
1D9
  8
CUT_HALFWAY_THROUGH
 10
69.37792748200869
 20
15.77056484433662
 30
0.0
  0
VERTEX
  5
1DA
  8
CUT_HALFWAY_THROUGH
 10
62.67456873222308
 20
16.02729763516611
 30
0.0
 42
0.6867687318601599
  0
VERTEX
  5
1DB
  8
CUT_HALFWAY_THROUGH
 10
62.59173062876977
 20
15.83432747692604
 30
0.0
  0
VERTEX
  5
1DC
  8
CUT_HALFWAY_THROUGH
 10
67.3949734820087
 20
11.15144684433661
 30
0.0
  0
VERTEX
  5
1DD
  8
CUT_HALFWAY_THROUGH
 10
74.09830163681164
 20
10.89464157666439
 30
0.0
 42
0.6867687318601718
  0
VERTEX
  5
1DE
  8
CUT_HALFWAY_THROUGH
 10
74.18114251725233
 20
11.08760863768685
 30
0.0
  0
VERTEX
  5
1DF
  8
CUT_HALFWAY_THROUGH
 10
69.4137274820087
 20
15.73566084433662
 30
0.0
  0
VERTEX
  5
1E0
  8
CUT_HALFWAY_THROUGH
 10
69.28693048200869
 20
15.44029684433661
 30
0.0
  0
VERTEX
  5
1E1
  8
CUT_HALFWAY_THROUGH
 10
73.62270048200868
 20
11.21308184433662
 30
0.0
  0
VERTEX
  5
1E2
  8
CUT_HALFWAY_THROUGH
 10
67.52177048200869
 20
11.44680984433661
 30
0.0
  0
VERTEX
  5
1E3
  8
CUT_HALFWAY_THROUGH
 10
63.15017148200869
 20
15.70886284433661
 30
0.0
  0
VERTEX
  5
1E4
  8
CUT_HALFWAY_THROUGH
 10
69.2511294820087
 20
15.47520084433662
 30
0.0
  0
VERTEX
  5
1E5
  8
CUT_HALFWAY_THROUGH
 10
69.12433248200868
 20
15.17983784433662
 30
0.0
  0
VERTEX
  5
1E6
  8
CUT_HALFWAY_THROUGH
 10
63.91802248200869
 20
15.37923484433662
 30
0.0
  0
VERTEX
  5
1E7
  8
CUT_HALFWAY_THROUGH
 10
67.64856748200869
 20
11.74217184433662
 30
0.0
  0
VERTEX
  5
1E8
  8
CUT_HALFWAY_THROUGH
 10
72.8548524820087
 20
11.54271884433662
 30
0.0
  0
VERTEX
  5
1E9
  8
CUT_HALFWAY_THROUGH
 10
69.16013248200869
 20
15.14493284433662
 30
0.0
  0
VERTEX
  5
1EA
  8
CUT_HALFWAY_THROUGH
 10
69.0333354820087
 20
14.84956984433662
 30
0.0
  0
VERTEX
  5
1EB
  8
CUT_HALFWAY_THROUGH
 10
72.08700548200869
 20
11.87235484433661
 30
0.0
  0
VERTEX
  5
1EC
  8
CUT_HALFWAY_THROUGH
 10
67.77536448200868
 20
12.03753384433661
 30
0.0
  0
VERTEX
  5
1ED
  8
CUT_HALFWAY_THROUGH
 10
64.68587448200869
 20
15.04960684433662
 30
0.0
  0
VERTEX
  5
1EE
  8
CUT_HALFWAY_THROUGH
 10
68.99753448200869
 20
14.88447384433661
 30
0.0
  0
VERTEX
  5
1EF
  8
CUT_HALFWAY_THROUGH
 10
68.87073748200869
 20
14.58910984433662
 30
0.0
  0
VERTEX
  5
1F0
  8
CUT_HALFWAY_THROUGH
 10
65.45372548200869
 20
14.71997884433661
 30
0.0
  0
VERTEX
  5
1F1
  8
CUT_HALFWAY_THROUGH
 10
67.9021614820087
 20
12.33289684433661
 30
0.0
  0
VERTEX
  5
1F2
  8
CUT_HALFWAY_THROUGH
 10
71.31915748200869
 20
12.20199084433662
 30
0.0
  0
VERTEX
  5
1F3
  8
CUT_HALFWAY_THROUGH
 10
68.90653848200868
 20
14.55420584433661
 30
0.0
  0
VERTEX
  5
1F4
  8
CUT_HALFWAY_THROUGH
 10
68.77974048200869
 20
14.25884184433662
 30
0.0
  0
VERTEX
  5
1F5
  8
CUT_HALFWAY_THROUGH
 10
70.55130948200869
 20
12.53162784433662
 30
0.0
  0
VERTEX
  5
1F6
  8
CUT_HALFWAY_THROUGH
 10
68.02895848200869
 20
12.62825884433662
 30
0.0
  0
VERTEX
  5
1F7
  8
CUT_HALFWAY_THROUGH
 10
66.22157648200869
 20
14.39035084433661
 30
0.0
  0
VERTEX
  5
1F8
  8
CUT_HALFWAY_THROUGH
 10
68.74393948200868
 20
14.29374584433661
 30
0.0
  0
VERTEX
  5
1F9
  8
CUT_HALFWAY_THROUGH
 10
68.61714248200869
 20
13.99838284433661
 30
0.0
  0
VERTEX
  5
1FA
  8
CUT_HALFWAY_THROUGH
 10
66.9894274820087
 20
14.06072284433662
 30
0.0
  0
VERTEX
  5
1FB
  8
CUT_HALFWAY_THROUGH
 10
68.15575548200869
 20
12.92362184433662
 30
0.0
  0
VERTEX
  5
1FC
  8
CUT_HALFWAY_THROUGH
 10
69.78346248200869
 20
12.86126384433662
 30
0.0
  0
VERTEX
  5
1FD
  8
CUT_HALFWAY_THROUGH
 10
68.6529434820087
 20
13.96347784433662
 30
0.0
  0
VERTEX
  5
1FE
  8
CUT_HALFWAY_THROUGH
 10
68.52614548200869
 20
13.66811484433662
 30
0.0
  0
VERTEX
  5
1FF
  8
CUT_HALFWAY_THROUGH
 10
69.01561448200869
 20
13.19090084433662
 30
0.0
  0
VERTEX
  5
200
  8
CUT_HALFWAY_THROUGH
 10
68.28255248200868
 20
13.21898384433661
 30
0.0
  0
VERTEX
  5
201
  8
CUT_HALFWAY_THROUGH
 10
67.75727948200868
 20
13.73109484433662
 30
0.0
  0
VERTEX
  5
202
  8
CUT_HALFWAY_THROUGH
 10
68.4903444820087
 20
13.70301884433661
 30
0.0
  0
VERTEX
  5
203
  8
CUT_HALFWAY_THROUGH
 10
62.67026381353949
 20
15.91488029437153
 30
0.0
  0
VERTEX
  5
204
  8
CUT_HALFWAY_THROUGH
 10
74.10260848200869
 20
11.00705784433661
 30
0.0
  0
SEQEND
  5
205
  8
CUT_HALFWAY_THROUGH
  0
POLYLINE
  5
46
  8
CUT_HALFWAY_THROUGH
 66
     1
 10
0.0
 20
0.0
 30
0.0
  0
VERTEX
  5
206
  8
CUT_HALFWAY_THROUGH
 10
31.815572
 20
2.682424
 30
0.0
  0
VERTEX
  5
207
  8
CUT_HALFWAY_THROUGH
 10
39.1446024082735
 20
3.457268077095838
 30
0.0
 42
0.6867687318601314
  0
VERTEX
  5
208
  8
CUT_HALFWAY_THROUGH
 10
39.7789067764547
 20
5.823725218269916
 30
0.0
  0
VERTEX
  5
209
  8
CUT_HALFWAY_THROUGH
 10
33.819971
 20
10.160255
 30
0.0
  0
VERTEX
  5
20A
  8
CUT_HALFWAY_THROUGH
 10
33.931959
 20
10.037316
 30
0.0
  0
VERTEX
  5
20B
  8
CUT_HALFWAY_THROUGH
 10
26.85157777458639
 20
9.288838179468556
 30
0.0
 42
0.6867687318601289
  0
VERTEX
  5
20C
  8
CUT_HALFWAY_THROUGH
 10
26.21724744078987
 20
6.922388810002776
 30
0.0
  0
VERTEX
  5
20D
  8
CUT_HALFWAY_THROUGH
 10
31.974036
 20
2.732873
 30
0.0
  0
VERTEX
  5
20E
  8
CUT_HALFWAY_THROUGH
 10
32.057256
 20
3.043343
 30
0.0
  0
VERTEX
  5
20F
  8
CUT_HALFWAY_THROUGH
 10
26.39377500869612
 20
7.164954147692685
 30
0.0
 42
-0.6867687318601254
  0
VERTEX
  5
210
  8
CUT_HALFWAY_THROUGH
 10
26.88311513812387
 20
8.990500339080436
 30
0.0
  0
VERTEX
  5
211
  8
CUT_HALFWAY_THROUGH
 10
33.898462
 20
9.732103
 30
0.0
  0
VERTEX
  5
212
  8
CUT_HALFWAY_THROUGH
 10
39.6023806265301
 20
5.581159022473584
 30
0.0
 42
-0.6867687318601305
  0
VERTEX
  5
213
  8
CUT_HALFWAY_THROUGH
 10
39.11306141495385
 20
3.755605745188218
 30
0.0
  0
VERTEX
  5
214
  8
CUT_HALFWAY_THROUGH
 10
32.097684
 20
3.013922
 30
0.0
  0
VERTEX
  5
215
  8
CUT_HALFWAY_THROUGH
 10
32.180904
 20
3.324392
 30
0.0
  0
VERTEX
  5
216
  8
CUT_HALFWAY_THROUGH
 10
39.08152042163418
 20
4.053942913280598
 30
0.0
 42
0.6867687318601361
  0
VERTEX
  5
217
  8
CUT_HALFWAY_THROUGH
 10
39.42585570015081
 20
5.338591608407337
 30
0.0
  0
VERTEX
  5
218
  8
CUT_HALFWAY_THROUGH
 10
33.815243
 20
9.421634
 30
0.0
  0
VERTEX
  5
219
  8
CUT_HALFWAY_THROUGH
 10
26.91465300166136
 20
8.692162498692316
 30
0.0
 42
0.686768731860134
  0
VERTEX
  5
21A
  8
CUT_HALFWAY_THROUGH
 10
26.57030259399462
 20
7.407519780767961
 30
0.0
  0
VERTEX
  5
21B
  8
CUT_HALFWAY_THROUGH
 10
32.140476
 20
3.353813
 30
0.0
  0
VERTEX
  5
21C
  8
CUT_HALFWAY_THROUGH
 10
32.223697
 20
3.664283
 30
0.0
  0
VERTEX
  5
21D
  8
CUT_HALFWAY_THROUGH
 10
26.74683008529849
 20
7.650085133075276
 30
0.0
 42
-0.6867687318601352
  0
VERTEX
  5
21E
  8
CUT_HALFWAY_THROUGH
 10
26.94619086519884
 20
8.393825158304196
 30
0.0
  0
VERTEX
  5
21F
  8
CUT_HALFWAY_THROUGH
 10
33.732023
 20
9.111165
 30
0.0
  0
VERTEX
  5
220
  8
CUT_HALFWAY_THROUGH
 10
39.24933077377152
 20
5.09602419434109
 30
0.0
 42
-0.6867687318601434
  0
VERTEX
  5
221
  8
CUT_HALFWAY_THROUGH
 10
39.04997942831453
 20
4.352280081372978
 30
0.0
  0
VERTEX
  5
222
  8
CUT_HALFWAY_THROUGH
 10
32.264124
 20
3.634862
 30
0.0
  0
VERTEX
  5
223
  8
CUT_HALFWAY_THROUGH
 10
32.347344
 20
3.945332
 30
0.0
  0
VERTEX
  5
224
  8
CUT_HALFWAY_THROUGH
 10
39.01843843499487
 20
4.650617749465358
 30
0.0
 42
0.6867687318600744
  0
VERTEX
  5
225
  8
CUT_HALFWAY_THROUGH
 10
39.07280584739223
 20
4.853456780274843
 30
0.0
  0
VERTEX
  5
226
  8
CUT_HALFWAY_THROUGH
 10
33.648803
 20
8.800696
 30
0.0
  0
VERTEX
  5
227
  8
CUT_HALFWAY_THROUGH
 10
26.97772872873632
 20
8.095487317916078
 30
0.0
 42
0.6867687318600808
  0
VERTEX
  5
228
  8
CUT_HALFWAY_THROUGH
 10
26.92335774719936
 20
7.892650751533146
 30
0.0
  0
VERTEX
  5
229
  8
CUT_HALFWAY_THROUGH
 10
32.306917
 20
3.974753
 30
0.0
  0
VERTEX
  5
22A
  8
CUT_HALFWAY_THROUGH
 10
32.390137
 20
4.285224
 30
0.0
  0
VERTEX
  5
22B
  8
CUT_HALFWAY_THROUGH
 10
27.494008
 20
7.848392
 30
0.0
  0
VERTEX
  5
22C
  8
CUT_HALFWAY_THROUGH
 10
33.565583
 20
8.490228
 30
0.0
  0
VERTEX
  5
22D
  8
CUT_HALFWAY_THROUGH
 10
38.502158
 20
4.897707
 30
0.0
  0
VERTEX
  5
22E
  8
CUT_HALFWAY_THROUGH
 10
32.430564
 20
4.255802
 30
0.0
  0
VERTEX
  5
22F
  8
CUT_HALFWAY_THROUGH
 10
32.513785
 20
4.566273
 30
0.0
  0
VERTEX
  5
230
  8
CUT_HALFWAY_THROUGH
 10
37.695035
 20
5.114048
 30
0.0
  0
VERTEX
  5
231
  8
CUT_HALFWAY_THROUGH
 10
33.482363
 20
8.179759
 30
0.0
  0
VERTEX
  5
232
  8
CUT_HALFWAY_THROUGH
 10
28.301128
 20
7.632043
 30
0.0
  0
VERTEX
  5
233
  8
CUT_HALFWAY_THROUGH
 10
32.473357
 20
4.595694
 30
0.0
  0
VERTEX
  5
234
  8
CUT_HALFWAY_THROUGH
 10
32.556577
 20
4.906164
 30
0.0
  0
VERTEX
  5
235
  8
CUT_HALFWAY_THROUGH
 10
29.108249
 20
7.415693
 30
0.0
  0
VERTEX
  5
236
  8
CUT_HALFWAY_THROUGH
 10
33.399144
 20
7.86929
 30
0.0
  0
VERTEX
  5
237
  8
CUT_HALFWAY_THROUGH
 10
36.887913
 20
5.330389
 30
0.0
  0
VERTEX
  5
238
  8
CUT_HALFWAY_THROUGH
 10
32.597005
 20
4.876743
 30
0.0
  0
VERTEX
  5
239
  8
CUT_HALFWAY_THROUGH
 10
32.680225
 20
5.187213
 30
0.0
  0
VERTEX
  5
23A
  8
CUT_HALFWAY_THROUGH
 10
36.08079
 20
5.546729
 30
0.0
  0
VERTEX
  5
23B
  8
CUT_HALFWAY_THROUGH
 10
33.315924
 20
7.558821
 30
0.0
  0
VERTEX
  5
23C
  8
CUT_HALFWAY_THROUGH
 10
29.915369
 20
7.199343
 30
0.0
  0
VERTEX
  5
23D
  8
CUT_HALFWAY_THROUGH
 10
32.639797
 20
5.216634
 30
0.0
  0
VERTEX
  5
23E
  8
CUT_HALFWAY_THROUGH
 10
32.723017
 20
5.527104
 30
0.0
  0
VERTEX
  5
23F
  8
CUT_HALFWAY_THROUGH
 10
30.722489
 20
6.982993
 30
0.0
  0
VERTEX
  5
240
  8
CUT_HALFWAY_THROUGH
 10
33.232704
 20
7.248352
 30
0.0
  0
VERTEX
  5
241
  8
CUT_HALFWAY_THROUGH
 10
35.273668
 20
5.76307
 30
0.0
  0
VERTEX
  5
242
  8
CUT_HALFWAY_THROUGH
 10
32.763445
 20
5.497683
 30
0.0
  0
VERTEX
  5
243
  8
CUT_HALFWAY_THROUGH
 10
32.846665
 20
5.808153
 30
0.0
  0
VERTEX
  5
244
  8
CUT_HALFWAY_THROUGH
 10
34.466545
 20
5.979411
 30
0.0
  0
VERTEX
  5
245
  8
CUT_HALFWAY_THROUGH
 10
33.149484
 20
6.937883
 30
0.0
  0
VERTEX
  5
246
  8
CUT_HALFWAY_THROUGH
 10
31.529609
 20
6.766644
 30
0.0
  0
VERTEX
  5
247
  8
CUT_HALFWAY_THROUGH
 10
32.806238
 20
5.837575
 30
0.0
  0
VERTEX
  5
248
  8
CUT_HALFWAY_THROUGH
 10
32.889458
 20
6.148045
 30
0.0
  0
VERTEX
  5
249
  8
CUT_HALFWAY_THROUGH
 10
32.336729
 20
6.550294
 30
0.0
  0
VERTEX
  5
24A
  8
CUT_HALFWAY_THROUGH
 10
33.066264
 20
6.627414
 30
0.0
  0
VERTEX
  5
24B
  8
CUT_HALFWAY_THROUGH
 10
33.659423
 20
6.195752
 30
0.0
  0
VERTEX
  5
24C
  8
CUT_HALFWAY_THROUGH
 10
32.929885
 20
6.118623
 30
0.0
  0
VERTEX
  5
24D
  8
CUT_HALFWAY_THROUGH
 10
39.006609
 20
4.762494
 30
0.0
  0
VERTEX
  5
24E
  8
CUT_HALFWAY_THROUGH
 10
26.989555
 20
7.983612
 30
0.0
  0
SEQEND
  5
24F
  8
CUT_HALFWAY_THROUGH
  0
POLYLINE
  5
47
  8
CUT_HALFWAY_THROUGH
 66
     1
 10
0.0
 20
0.0
 30
0.0
  0
VERTEX
  5
250
  8
CUT_HALFWAY_THROUGH
 10
14.94432688100377
 20
3.647292004110367
 30
0.0
  0
VERTEX
  5
251
  8
CUT_HALFWAY_THROUGH
 10
18.87045076419669
 20
9.884328608959331
 30
0.0
 42
0.6867687318601334
  0
VERTEX
  5
252
  8
CUT_HALFWAY_THROUGH
 10
17.40386435194446
 20
11.84687456560328
 30
0.0
  0
VERTEX
  5
253
  8
CUT_HALFWAY_THROUGH
 10
10.31004888100377
 20
9.848827004110367
 30
0.0
  0
VERTEX
  5
254
  8
CUT_HALFWAY_THROUGH
 10
10.47592188100377
 20
9.860736004110368
 30
0.0
  0
VERTEX
  5
255
  8
CUT_HALFWAY_THROUGH
 10
6.682935740646331
 20
3.835349200782639
 30
0.0
 42
0.6867687318601297
  0
VERTEX
  5
256
  8
CUT_HALFWAY_THROUGH
 10
8.149499865003909
 20
1.87278795599289
 30
0.0
  0
VERTEX
  5
257
  8
CUT_HALFWAY_THROUGH
 10
15.00274388100377
 20
3.802995004110367
 30
0.0
  0
VERTEX
  5
258
  8
CUT_HALFWAY_THROUGH
 10
14.81033488100377
 20
4.060475004110367
 30
0.0
  0
VERTEX
  5
259
  8
CUT_HALFWAY_THROUGH
 10
8.068169700992264
 20
2.161553109842297
 30
0.0
 42
-0.6867687318601317
  0
VERTEX
  5
25A
  8
CUT_HALFWAY_THROUGH
 10
6.936820540874547
 20
3.675528923516385
 30
0.0
  0
VERTEX
  5
25B
  8
CUT_HALFWAY_THROUGH
 10
10.69496688100377
 20
9.645571004110367
 30
0.0
  0
VERTEX
  5
25C
  8
CUT_HALFWAY_THROUGH
 10
17.4851963218837
 20
11.55810975612801
 30
0.0
 42
-0.6867687318601283
  0
VERTEX
  5
25D
  8
CUT_HALFWAY_THROUGH
 10
18.61656409089545
 20
10.04414649927957
 30
0.0
  0
VERTEX
  5
25E
  8
CUT_HALFWAY_THROUGH
 10
14.85846288100377
 20
4.074030004110368
 30
0.0
  0
VERTEX
  5
25F
  8
CUT_HALFWAY_THROUGH
 10
14.66605288100377
 20
4.331510004110367
 30
0.0
  0
VERTEX
  5
260
  8
CUT_HALFWAY_THROUGH
 10
18.36267791759422
 20
10.2039643895998
 30
0.0
 42
0.6867687318601361
  0
VERTEX
  5
261
  8
CUT_HALFWAY_THROUGH
 10
17.56652982088224
 20
11.26934538515982
 30
0.0
  0
VERTEX
  5
262
  8
CUT_HALFWAY_THROUGH
 10
10.88737588100377
 20
9.388092004110367
 30
0.0
  0
VERTEX
  5
263
  8
CUT_HALFWAY_THROUGH
 10
7.190704841102763
 20
3.51570814625013
 30
0.0
 42
0.6867687318601301
  0
VERTEX
  5
264
  8
CUT_HALFWAY_THROUGH
 10
7.986839176957607
 20
2.450318475155561
 30
0.0
  0
VERTEX
  5
265
  8
CUT_HALFWAY_THROUGH
 10
14.61792588100377
 20
4.317955004110367
 30
0.0
  0
VERTEX
  5
266
  8
CUT_HALFWAY_THROUGH
 10
14.42551588100377
 20
4.575435004110368
 30
0.0
  0
VERTEX
  5
267
  8
CUT_HALFWAY_THROUGH
 10
7.905508856969115
 20
2.739083869423632
 30
0.0
 42
-0.6867687318601295
  0
VERTEX
  5
268
  8
CUT_HALFWAY_THROUGH
 10
7.444589641330977
 20
3.355887868983876
 30
0.0
  0
VERTEX
  5
269
  8
CUT_HALFWAY_THROUGH
 10
11.07978388100377
 20
9.130613004110367
 30
0.0
  0
VERTEX
  5
26A
  8
CUT_HALFWAY_THROUGH
 10
17.64786331988078
 20
10.98058101419163
 30
0.0
 42
-0.6867687318601272
  0
VERTEX
  5
26B
  8
CUT_HALFWAY_THROUGH
 10
18.10879174429298
 20
10.36378177992004
 30
0.0
  0
VERTEX
  5
26C
  8
CUT_HALFWAY_THROUGH
 10
14.47364388100377
 20
4.588990004110368
 30
0.0
  0
VERTEX
  5
26D
  8
CUT_HALFWAY_THROUGH
 10
14.28123388100377
 20
4.846470004110367
 30
0.0
  0
VERTEX
  5
26E
  8
CUT_HALFWAY_THROUGH
 10
17.85490507099174
 20
10.52359967024028
 30
0.0
 42
0.6867687318601436
  0
VERTEX
  5
26F
  8
CUT_HALFWAY_THROUGH
 10
17.72919681887932
 20
10.69181664322344
 30
0.0
  0
VERTEX
  5
270
  8
CUT_HALFWAY_THROUGH
 10
11.27219288100377
 20
8.873134004110367
 30
0.0
  0
VERTEX
  5
271
  8
CUT_HALFWAY_THROUGH
 10
7.698473941559192
 20
3.196067091717622
 30
0.0
 42
0.6867687318601212
  0
VERTEX
  5
272
  8
CUT_HALFWAY_THROUGH
 10
7.824178488911308
 20
3.027848994318231
 30
0.0
  0
VERTEX
  5
273
  8
CUT_HALFWAY_THROUGH
 10
14.23310688100377
 20
4.832915004110367
 30
0.0
  0
VERTEX
  5
274
  8
CUT_HALFWAY_THROUGH
 10
14.04069688100377
 20
5.090395004110366
 30
0.0
  0
VERTEX
  5
275
  8
CUT_HALFWAY_THROUGH
 10
8.212036881003772
 20
3.448761004110367
 30
0.0
  0
VERTEX
  5
276
  8
CUT_HALFWAY_THROUGH
 10
11.46460088100377
 20
8.615655004110367
 30
0.0
  0
VERTEX
  5
277
  8
CUT_HALFWAY_THROUGH
 10
17.34134588100377
 20
10.27090200411037
 30
0.0
  0
VERTEX
  5
278
  8
CUT_HALFWAY_THROUGH
 10
14.08882488100377
 20
5.103950004110366
 30
0.0
  0
VERTEX
  5
279
  8
CUT_HALFWAY_THROUGH
 10
13.89641588100377
 20
5.361430004110368
 30
0.0
  0
VERTEX
  5
27A
  8
CUT_HALFWAY_THROUGH
 10
16.67198488100377
 20
9.770696004110368
 30
0.0
  0
VERTEX
  5
27B
  8
CUT_HALFWAY_THROUGH
 10
11.65700988100377
 20
8.358176004110367
 30
0.0
  0
VERTEX
  5
27C
  8
CUT_HALFWAY_THROUGH
 10
8.881403881003774
 20
3.948959004110367
 30
0.0
  0
VERTEX
  5
27D
  8
CUT_HALFWAY_THROUGH
 10
13.84828788100377
 20
5.347875004110367
 30
0.0
  0
VERTEX
  5
27E
  8
CUT_HALFWAY_THROUGH
 10
13.65587888100377
 20
5.605355004110367
 30
0.0
  0
VERTEX
  5
27F
  8
CUT_HALFWAY_THROUGH
 10
9.550770881003773
 20
4.449157004110367
 30
0.0
  0
VERTEX
  5
280
  8
CUT_HALFWAY_THROUGH
 10
11.84941788100377
 20
8.100697004110367
 30
0.0
  0
VERTEX
  5
281
  8
CUT_HALFWAY_THROUGH
 10
16.00262388100378
 20
9.270491004110367
 30
0.0
  0
VERTEX
  5
282
  8
CUT_HALFWAY_THROUGH
 10
13.70400588100377
 20
5.618910004110367
 30
0.0
  0
VERTEX
  5
283
  8
CUT_HALFWAY_THROUGH
 10
13.51159688100377
 20
5.876390004110368
 30
0.0
  0
VERTEX
  5
284
  8
CUT_HALFWAY_THROUGH
 10
15.33326188100377
 20
8.770286004110368
 30
0.0
  0
VERTEX
  5
285
  8
CUT_HALFWAY_THROUGH
 10
12.04182688100377
 20
7.843219004110367
 30
0.0
  0
VERTEX
  5
286
  8
CUT_HALFWAY_THROUGH
 10
10.22013788100377
 20
4.949355004110368
 30
0.0
  0
VERTEX
  5
287
  8
CUT_HALFWAY_THROUGH
 10
13.46346888100377
 20
5.862835004110368
 30
0.0
  0
VERTEX
  5
288
  8
CUT_HALFWAY_THROUGH
 10
13.27105988100377
 20
6.120315004110367
 30
0.0
  0
VERTEX
  5
289
  8
CUT_HALFWAY_THROUGH
 10
10.88950488100377
 20
5.449553004110367
 30
0.0
  0
VERTEX
  5
28A
  8
CUT_HALFWAY_THROUGH
 10
12.23423588100377
 20
7.585740004110367
 30
0.0
  0
VERTEX
  5
28B
  8
CUT_HALFWAY_THROUGH
 10
14.66390088100377
 20
8.270080004110367
 30
0.0
  0
VERTEX
  5
28C
  8
CUT_HALFWAY_THROUGH
 10
13.31918688100377
 20
6.133870004110367
 30
0.0
  0
VERTEX
  5
28D
  8
CUT_HALFWAY_THROUGH
 10
13.12677788100377
 20
6.391350004110366
 30
0.0
  0
VERTEX
  5
28E
  8
CUT_HALFWAY_THROUGH
 10
13.99453888100377
 20
7.769875004110368
 30
0.0
  0
VERTEX
  5
28F
  8
CUT_HALFWAY_THROUGH
 10
12.42664388100377
 20
7.328261004110367
 30
0.0
  0
VERTEX
  5
290
  8
CUT_HALFWAY_THROUGH
 10
11.55887088100377
 20
5.949751004110366
 30
0.0
  0
VERTEX
  5
291
  8
CUT_HALFWAY_THROUGH
 10
13.07864988100377
 20
6.377795004110368
 30
0.0
  0
VERTEX
  5
292
  8
CUT_HALFWAY_THROUGH
 10
12.88624088100377
 20
6.635275004110367
 30
0.0
  0
VERTEX
  5
293
  8
CUT_HALFWAY_THROUGH
 10
12.22823788100377
 20
6.449949004110367
 30
0.0
  0
VERTEX
  5
294
  8
CUT_HALFWAY_THROUGH
 10
12.61905288100377
 20
7.070782004110367
 30
0.0
  0
VERTEX
  5
295
  8
CUT_HALFWAY_THROUGH
 10
13.32517788100377
 20
7.269669004110368
 30
0.0
  0
VERTEX
  5
296
  8
CUT_HALFWAY_THROUGH
 10
12.93436888100377
 20
6.648830004110367
 30
0.0
  0
VERTEX
  5
297
  8
CUT_HALFWAY_THROUGH
 10
17.75969688100377
 20
10.58353000411037
 30
0.0
  0
VERTEX
  5
298
  8
CUT_HALFWAY_THROUGH
 10
7.793679881003772
 20
3.136135004110367
 30
0.0
  0
SEQEND
  5
299
  8
CUT_HALFWAY_THROUGH
  0
POLYLINE
  5
48
  8
CUT_HALFWAY_THROUGH
 66
     1
 10
0.0
 20
0.0
 30
0.0
  0
VERTEX
  5
29A
  8
CUT_HALFWAY_THROUGH
 10
24.35373123341929
 20
21.51073524778925
 30
0.0
  0
VERTEX
  5
29B
  8
CUT_HALFWAY_THROUGH
 10
30.47543191524548
 20
25.61437440664609
 30
0.0
 42
0.6867687318601335
  0
VERTEX
  5
29C
  8
CUT_HALFWAY_THROUGH
 10
29.93281596781031
 20
28.00352265224597
 30
0.0
  0
VERTEX
  5
29D
  8
CUT_HALFWAY_THROUGH
 10
22.63914323341929
 20
29.06028924778925
 30
0.0
  0
VERTEX
  5
29E
  8
CUT_HALFWAY_THROUGH
 10
22.79554423341929
 20
29.00377024778925
 30
0.0
  0
VERTEX
  5
29F
  8
CUT_HALFWAY_THROUGH
 10
16.88149528571827
 20
25.03942316594021
 30
0.0
 42
0.6867687318601283
  0
VERTEX
  5
2A0
  8
CUT_HALFWAY_THROUGH
 10
17.42408471617685
 20
22.65026948485128
 30
0.0
  0
VERTEX
  5
2A1
  8
CUT_HALFWAY_THROUGH
 10
24.47037523341929
 20
21.62926824778925
 30
0.0
  0
VERTEX
  5
2A2
  8
CUT_HALFWAY_THROUGH
 10
24.39918823341929
 20
21.94271624778925
 30
0.0
  0
VERTEX
  5
2A3
  8
CUT_HALFWAY_THROUGH
 10
17.46710522172882
 20
22.94716905233198
 30
0.0
 42
-0.6867687318601295
  0
VERTEX
  5
2A4
  8
CUT_HALFWAY_THROUGH
 10
17.04853629454175
 20
24.79023001828921
 30
0.0
  0
VERTEX
  5
2A5
  8
CUT_HALFWAY_THROUGH
 10
22.90826423341929
 20
28.71816424778925
 30
0.0
  0
VERTEX
  5
2A6
  8
CUT_HALFWAY_THROUGH
 10
29.889797452194
 20
27.70662321466533
 30
0.0
 42
-0.6867687318601281
  0
VERTEX
  5
2A7
  8
CUT_HALFWAY_THROUGH
 10
30.30838804511378
 20
25.86356564176453
 30
0.0
  0
VERTEX
  5
2A8
  8
CUT_HALFWAY_THROUGH
 10
24.44867123341929
 20
21.93554624778925
 30
0.0
  0
VERTEX
  5
2A9
  8
CUT_HALFWAY_THROUGH
 10
24.37748323341929
 20
22.24899424778925
 30
0.0
  0
VERTEX
  5
2AA
  8
CUT_HALFWAY_THROUGH
 10
30.14134417498208
 20
26.11275737688296
 30
0.0
 42
0.6867687318601299
  0
VERTEX
  5
2AB
  8
CUT_HALFWAY_THROUGH
 10
29.84678020218668
 20
27.40972337262797
 30
0.0
  0
VERTEX
  5
2AC
  8
CUT_HALFWAY_THROUGH
 10
22.97945123341929
 20
28.40471724778925
 30
0.0
  0
VERTEX
  5
2AD
  8
CUT_HALFWAY_THROUGH
 10
17.21557730336523
 20
24.54103687063822
 30
0.0
 42
0.6867687318601323
  0
VERTEX
  5
2AE
  8
CUT_HALFWAY_THROUGH
 10
17.51012570389986
 20
23.24406822889816
 30
0.0
  0
VERTEX
  5
2AF
  8
CUT_HALFWAY_THROUGH
 10
24.32800023341929
 20
22.25616424778925
 30
0.0
  0
VERTEX
  5
2B0
  8
CUT_HALFWAY_THROUGH
 10
24.25681323341929
 20
22.56961224778925
 30
0.0
  0
VERTEX
  5
2B1
  8
CUT_HALFWAY_THROUGH
 10
17.55314621559033
 20
23.54096792435542
 30
0.0
 42
-0.6867687318601446
  0
VERTEX
  5
2B2
  8
CUT_HALFWAY_THROUGH
 10
17.3826183121887
 20
24.29184322298721
 30
0.0
  0
VERTEX
  5
2B3
  8
CUT_HALFWAY_THROUGH
 10
23.05063823341929
 20
28.09127024778925
 30
0.0
  0
VERTEX
  5
2B4
  8
CUT_HALFWAY_THROUGH
 10
29.80376295217936
 20
27.11282353059061
 30
0.0
 42
-0.6867687318601337
  0
VERTEX
  5
2B5
  8
CUT_HALFWAY_THROUGH
 10
29.97430030485038
 20
26.3619486120014
 30
0.0
  0
VERTEX
  5
2B6
  8
CUT_HALFWAY_THROUGH
 10
24.30629623341929
 20
22.56244224778925
 30
0.0
  0
VERTEX
  5
2B7
  8
CUT_HALFWAY_THROUGH
 10
24.23510823341929
 20
22.87589024778925
 30
0.0
  0
VERTEX
  5
2B8
  8
CUT_HALFWAY_THROUGH
 10
29.80725693471868
 20
26.61114034711984
 30
0.0
 42
0.6867687318601378
  0
VERTEX
  5
2B9
  8
CUT_HALFWAY_THROUGH
 10
29.76074570217203
 20
26.81592368855326
 30
0.0
  0
VERTEX
  5
2BA
  8
CUT_HALFWAY_THROUGH
 10
23.12182523341929
 20
27.77782424778925
 30
0.0
  0
VERTEX
  5
2BB
  8
CUT_HALFWAY_THROUGH
 10
17.54965932101218
 20
24.04265007533621
 30
0.0
 42
0.6867687318601117
  0
VERTEX
  5
2BC
  8
CUT_HALFWAY_THROUGH
 10
17.59616669162287
 20
23.83786697294503
 30
0.0
  0
VERTEX
  5
2BD
  8
CUT_HALFWAY_THROUGH
 10
24.18562523341929
 20
22.88306024778925
 30
0.0
  0
VERTEX
  5
2BE
  8
CUT_HALFWAY_THROUGH
 10
24.11443823341929
 20
23.19650824778925
 30
0.0
  0
VERTEX
  5
2BF
  8
CUT_HALFWAY_THROUGH
 10
18.12159223341929
 20
24.06486624778925
 30
0.0
  0
VERTEX
  5
2C0
  8
CUT_HALFWAY_THROUGH
 10
23.19301223341929
 20
27.46437724778925
 30
0.0
  0
VERTEX
  5
2C1
  8
CUT_HALFWAY_THROUGH
 10
29.23532523341929
 20
26.58891824778925
 30
0.0
  0
VERTEX
  5
2C2
  8
CUT_HALFWAY_THROUGH
 10
24.16392123341929
 20
23.18933824778925
 30
0.0
  0
VERTEX
  5
2C3
  8
CUT_HALFWAY_THROUGH
 10
24.09273323341929
 20
23.50278624778925
 30
0.0
  0
VERTEX
  5
2C4
  8
CUT_HALFWAY_THROUGH
 10
28.42046423341929
 20
26.40384924778925
 30
0.0
  0
VERTEX
  5
2C5
  8
CUT_HALFWAY_THROUGH
 10
23.26420023341929
 20
27.15093024778925
 30
0.0
  0
VERTEX
  5
2C6
  8
CUT_HALFWAY_THROUGH
 10
18.93645623341929
 20
24.24992624778925
 30
0.0
  0
VERTEX
  5
2C7
  8
CUT_HALFWAY_THROUGH
 10
24.04325023341929
 20
23.50995624778925
 30
0.0
  0
VERTEX
  5
2C8
  8
CUT_HALFWAY_THROUGH
 10
23.97206323341929
 20
23.82340424778925
 30
0.0
  0
VERTEX
  5
2C9
  8
CUT_HALFWAY_THROUGH
 10
19.75132023341929
 20
24.43498624778925
 30
0.0
  0
VERTEX
  5
2CA
  8
CUT_HALFWAY_THROUGH
 10
23.33538723341929
 20
26.83748324778925
 30
0.0
  0
VERTEX
  5
2CB
  8
CUT_HALFWAY_THROUGH
 10
27.60560223341929
 20
26.21878024778925
 30
0.0
  0
VERTEX
  5
2CC
  8
CUT_HALFWAY_THROUGH
 10
24.02154623341929
 20
23.81623424778925
 30
0.0
  0
VERTEX
  5
2CD
  8
CUT_HALFWAY_THROUGH
 10
23.95035823341929
 20
24.12968224778925
 30
0.0
  0
VERTEX
  5
2CE
  8
CUT_HALFWAY_THROUGH
 10
26.79074023341929
 20
26.03371124778925
 30
0.0
  0
VERTEX
  5
2CF
  8
CUT_HALFWAY_THROUGH
 10
23.40657423341929
 20
26.52403724778925
 30
0.0
  0
VERTEX
  5
2D0
  8
CUT_HALFWAY_THROUGH
 10
20.56618323341929
 20
24.62004624778925
 30
0.0
  0
VERTEX
  5
2D1
  8
CUT_HALFWAY_THROUGH
 10
23.90087523341929
 20
24.13685224778925
 30
0.0
  0
VERTEX
  5
2D2
  8
CUT_HALFWAY_THROUGH
 10
23.82968823341929
 20
24.45030024778925
 30
0.0
  0
VERTEX
  5
2D3
  8
CUT_HALFWAY_THROUGH
 10
21.38104723341929
 20
24.80510624778925
 30
0.0
  0
VERTEX
  5
2D4
  8
CUT_HALFWAY_THROUGH
 10
23.47776123341929
 20
26.21059024778925
 30
0.0
  0
VERTEX
  5
2D5
  8
CUT_HALFWAY_THROUGH
 10
25.97587823341929
 20
25.84864324778925
 30
0.0
  0
VERTEX
  5
2D6
  8
CUT_HALFWAY_THROUGH
 10
23.87917123341929
 20
24.44313024778925
 30
0.0
  0
VERTEX
  5
2D7
  8
CUT_HALFWAY_THROUGH
 10
23.80798323341929
 20
24.75657824778925
 30
0.0
  0
VERTEX
  5
2D8
  8
CUT_HALFWAY_THROUGH
 10
25.16101623341929
 20
25.66357424778925
 30
0.0
  0
VERTEX
  5
2D9
  8
CUT_HALFWAY_THROUGH
 10
23.54894823341929
 20
25.89714324778925
 30
0.0
  0
VERTEX
  5
2DA
  8
CUT_HALFWAY_THROUGH
 10
22.19591123341929
 20
24.99016624778925
 30
0.0
  0
VERTEX
  5
2DB
  8
CUT_HALFWAY_THROUGH
 10
23.75850023341929
 20
24.76374824778925
 30
0.0
  0
VERTEX
  5
2DC
  8
CUT_HALFWAY_THROUGH
 10
23.68731323341929
 20
25.07719624778925
 30
0.0
  0
VERTEX
  5
2DD
  8
CUT_HALFWAY_THROUGH
 10
23.01077523341929
 20
25.17522624778925
 30
0.0
  0
VERTEX
  5
2DE
  8
CUT_HALFWAY_THROUGH
 10
23.62013623341929
 20
25.58369724778925
 30
0.0
  0
VERTEX
  5
2DF
  8
CUT_HALFWAY_THROUGH
 10
24.34615523341929
 20
25.47850524778925
 30
0.0
  0
VERTEX
  5
2E0
  8
CUT_HALFWAY_THROUGH
 10
23.73679623341929
 20
25.07002624778925
 30
0.0
  0
VERTEX
  5
2E1
  8
CUT_HALFWAY_THROUGH
 10
29.74461423341929
 20
26.70458624778925
 30
0.0
  0
VERTEX
  5
2E2
  8
CUT_HALFWAY_THROUGH
 10
17.61229923341929
 20
23.94920324778925
 30
0.0
  0
SEQEND
  5
2E3
  8
CUT_HALFWAY_THROUGH
  0
POLYLINE
  5
49
  8
CUT_HALFWAY_THROUGH
 66
     1
 10
0.0
 20
0.0
 30
0.0
  0
VERTEX
  5
2E4
  8
CUT_HALFWAY_THROUGH
 10
83.08508527647767
 20
17.48859812812931
 30
0.0
  0
VERTEX
  5
2E5
  8
CUT_HALFWAY_THROUGH
 10
72.55777127647767
 20
24.11889612812931
 30
0.0
  0
VERTEX
  5
2E6
  8
CUT_HALFWAY_THROUGH
 10
77.96180627647767
 20
21.02663612812931
 30
0.0
  0
VERTEX
  5
2E7
  8
CUT_HALFWAY_THROUGH
 10
77.24208327647767
 20
21.16866612812931
 30
0.0
  0
VERTEX
  5
2E8
  8
CUT_HALFWAY_THROUGH
 10
77.68108527647767
 20
20.58091912812931
 30
0.0
  0
VERTEX
  5
2E9
  8
CUT_HALFWAY_THROUGH
 10
78.40080327647767
 20
20.43888212812931
 30
0.0
  0
VERTEX
  5
2EA
  8
CUT_HALFWAY_THROUGH
 10
77.99172627647768
 20
20.98657612812931
 30
0.0
  0
VERTEX
  5
2EB
  8
CUT_HALFWAY_THROUGH
 10
78.16302527647767
 20
21.25855812812931
 30
0.0
  0
VERTEX
  5
2EC
  8
CUT_HALFWAY_THROUGH
 10
79.10786427647767
 20
19.99355612812931
 30
0.0
  0
VERTEX
  5
2ED
  8
CUT_HALFWAY_THROUGH
 10
77.50978727647767
 20
20.30893912812931
 30
0.0
  0
VERTEX
  5
2EE
  8
CUT_HALFWAY_THROUGH
 10
76.53501727647767
 20
21.61398312812931
 30
0.0
  0
VERTEX
  5
2EF
  8
CUT_HALFWAY_THROUGH
 10
78.13310527647766
 20
21.29861712812931
 30
0.0
  0
VERTEX
  5
2F0
  8
CUT_HALFWAY_THROUGH
 10
78.30440427647767
 20
21.57059912812931
 30
0.0
  0
VERTEX
  5
2F1
  8
CUT_HALFWAY_THROUGH
 10
75.82795127647768
 20
22.05930112812931
 30
0.0
  0
VERTEX
  5
2F2
  8
CUT_HALFWAY_THROUGH
 10
77.33848827647768
 20
20.03695812812931
 30
0.0
  0
VERTEX
  5
2F3
  8
CUT_HALFWAY_THROUGH
 10
79.81492527647767
 20
19.54823112812931
 30
0.0
  0
VERTEX
  5
2F4
  8
CUT_HALFWAY_THROUGH
 10
78.33432427647767
 20
21.53053912812931
 30
0.0
  0
VERTEX
  5
2F5
  8
CUT_HALFWAY_THROUGH
 10
78.50562327647768
 20
21.80252112812931
 30
0.0
  0
VERTEX
  5
2F6
  8
CUT_HALFWAY_THROUGH
 10
80.52198627647768
 20
19.10290512812931
 30
0.0
  0
VERTEX
  5
2F7
  8
CUT_HALFWAY_THROUGH
 10
77.16719027647767
 20
19.76497812812931
 30
0.0
  0
VERTEX
  5
2F8
  8
CUT_HALFWAY_THROUGH
 10
75.12088527647767
 20
22.50461912812931
 30
0.0
  0
VERTEX
  5
2F9
  8
CUT_HALFWAY_THROUGH
 10
78.47570327647767
 20
21.84258012812931
 30
0.0
  0
VERTEX
  5
2FA
  8
CUT_HALFWAY_THROUGH
 10
78.64700227647766
 20
22.11456212812931
 30
0.0
  0
VERTEX
  5
2FB
  8
CUT_HALFWAY_THROUGH
 10
74.41381927647767
 20
22.94993712812931
 30
0.0
  0
VERTEX
  5
2FC
  8
CUT_HALFWAY_THROUGH
 10
76.99589227647768
 20
19.49299712812931
 30
0.0
  0
VERTEX
  5
2FD
  8
CUT_HALFWAY_THROUGH
 10
81.22904727647767
 20
18.65757912812931
 30
0.0
  0
VERTEX
  5
2FE
  8
CUT_HALFWAY_THROUGH
 10
78.67692227647767
 20
22.07450212812931
 30
0.0
  0
VERTEX
  5
2FF
  8
CUT_HALFWAY_THROUGH
 10
78.84822127647767
 20
22.34648412812931
 30
0.0
  0
VERTEX
  5
300
  8
CUT_HALFWAY_THROUGH
 10
81.93610827647767
 20
18.21225412812931
 30
0.0
  0
VERTEX
  5
301
  8
CUT_HALFWAY_THROUGH
 10
76.82459327647767
 20
19.22101712812931
 30
0.0
  0
VERTEX
  5
302
  8
CUT_HALFWAY_THROUGH
 10
73.70675327647767
 20
23.39525512812931
 30
0.0
  0
VERTEX
  5
303
  8
CUT_HALFWAY_THROUGH
 10
78.81830127647767
 20
22.38654312812931
 30
0.0
  0
VERTEX
  5
304
  8
CUT_HALFWAY_THROUGH
 10
78.98960027647767
 20
22.65852512812931
 30
0.0
  0
VERTEX
  5
305
  8
CUT_HALFWAY_THROUGH
 10
72.99968727647767
 20
23.84057312812931
 30
0.0
  0
VERTEX
  5
306
  8
CUT_HALFWAY_THROUGH
 10
76.65329527647768
 20
18.94903712812931
 30
0.0
  0
VERTEX
  5
307
  8
CUT_HALFWAY_THROUGH
 10
82.64316927647766
 20
17.76692812812931
 30
0.0
  0
VERTEX
  5
308
  8
CUT_HALFWAY_THROUGH
 10
79.01952027647768
 20
22.61846612812931
 30
0.0
  0
VERTEX
  5
309
  8
CUT_HALFWAY_THROUGH
 10
79.19082027647767
 20
22.89044712812931
 30
0.0
  0
VERTEX
  5
30A
  8
CUT_HALFWAY_THROUGH
 10
83.17521809801032
 20
17.5559189977283
 30
0.0
 42
-0.686768731860067
  0
VERTEX
  5
30B
  8
CUT_HALFWAY_THROUGH
 10
83.06330393620215
 20
17.37822802281688
 30
0.0
  0
VERTEX
  5
30C
  8
CUT_HALFWAY_THROUGH
 10
76.59987527647768
 20
18.65379312812931
 30
0.0
  0
VERTEX
  5
30D
  8
CUT_HALFWAY_THROUGH
 10
75.89108619048453
 20
17.52840819397511
 30
0.0
  0
VERTEX
  5
30E
  8
CUT_HALFWAY_THROUGH
 10
75.70069462553704
 20
17.64831722048477
 30
0.0
  0
VERTEX
  5
30F
  8
CUT_HALFWAY_THROUGH
 10
76.40963027647767
 20
18.77394212812931
 30
0.0
  0
VERTEX
  5
310
  8
CUT_HALFWAY_THROUGH
 10
72.46763838930092
 20
24.05157367534285
 30
0.0
 42
-0.6867687318601285
  0
VERTEX
  5
311
  8
CUT_HALFWAY_THROUGH
 10
72.57955061061622
 20
24.22926784296885
 30
0.0
  0
VERTEX
  5
312
  8
CUT_HALFWAY_THROUGH
 10
79.16089927647766
 20
22.93050612812931
 30
0.0
  0
VERTEX
  5
313
  8
CUT_HALFWAY_THROUGH
 10
79.33219827647767
 20
23.20248812812931
 30
0.0
  0
VERTEX
  5
314
  8
CUT_HALFWAY_THROUGH
 10
72.63763250165238
 20
24.52359174920761
 30
0.0
 42
0.6867687318601219
  0
VERTEX
  5
315
  8
CUT_HALFWAY_THROUGH
 10
72.22728402349627
 20
23.87204713457899
 30
0.0
  0
VERTEX
  5
316
  8
CUT_HALFWAY_THROUGH
 10
76.04598227647767
 20
18.75948412812931
 30
0.0
  0
VERTEX
  5
317
  8
CUT_HALFWAY_THROUGH
 10
75.39274575272128
 20
17.72229757282366
 30
0.0
  0
VERTEX
  5
318
  8
CUT_HALFWAY_THROUGH
 10
75.56792233670038
 20
17.61341709391507
 30
0.0
  0
VERTEX
  5
319
  8
CUT_HALFWAY_THROUGH
 10
75.7426610039384
 20
17.50383999662656
 30
0.0
  0
VERTEX
  5
31A
  8
CUT_HALFWAY_THROUGH
 10
75.9169562179541
 20
17.39356230266366
 30
0.0
  0
VERTEX
  5
31B
  8
CUT_HALFWAY_THROUGH
 10
76.09080244226622
 20
17.28258003373195
 30
0.0
  0
VERTEX
  5
31C
  8
CUT_HALFWAY_THROUGH
 10
76.74392327647767
 20
18.31957812812931
 30
0.0
  0
VERTEX
  5
31D
  8
CUT_HALFWAY_THROUGH
 10
83.00521893731192
 20
17.08390493388075
 30
0.0
 42
0.6867687318601212
  0
VERTEX
  5
31E
  8
CUT_HALFWAY_THROUGH
 10
83.4155743508712
 20
17.73544302027819
 30
0.0
  0
VERTEX
  5
31F
  8
CUT_HALFWAY_THROUGH
 10
79.36211927647767
 20
23.16242912812931
 30
0.0
  0
VERTEX
  5
320
  8
CUT_HALFWAY_THROUGH
 10
79.53341827647768
 20
23.43441012812931
 30
0.0
  0
VERTEX
  5
321
  8
CUT_HALFWAY_THROUGH
 10
83.65593075251914
 20
17.91496682712584
 30
0.0
 42
-0.6867687318601339
  0
VERTEX
  5
322
  8
CUT_HALFWAY_THROUGH
 10
82.94713393842167
 20
16.7895818449446
 30
0.0
  0
VERTEX
  5
323
  8
CUT_HALFWAY_THROUGH
 10
76.88797127647767
 20
17.98536412812931
 30
0.0
  0
VERTEX
  5
324
  8
CUT_HALFWAY_THROUGH
 10
76.28966590716327
 20
17.03539639511816
 30
0.0
  0
VERTEX
  5
325
  8
CUT_HALFWAY_THROUGH
 10
76.14008196057802
 20
17.13212854905601
 30
0.0
  0
VERTEX
  5
326
  8
CUT_HALFWAY_THROUGH
 10
75.99016953093695
 20
17.22834645730134
 30
0.0
  0
VERTEX
  5
327
  8
CUT_HALFWAY_THROUGH
 10
75.8399299716122
 20
17.32404927936264
 30
0.0
  0
VERTEX
  5
328
  8
CUT_HALFWAY_THROUGH
 10
75.6893646359758
 20
17.41923617474836
 30
0.0
  0
VERTEX
  5
329
  8
CUT_HALFWAY_THROUGH
 10
75.53847487739995
 20
17.51390630296699
 30
0.0
  0
VERTEX
  5
32A
  8
CUT_HALFWAY_THROUGH
 10
75.38726204925669
 20
17.60805882352701
 30
0.0
  0
VERTEX
  5
32B
  8
CUT_HALFWAY_THROUGH
 10
75.23572750491816
 20
17.70169289593688
 30
0.0
  0
VERTEX
  5
32C
  8
CUT_HALFWAY_THROUGH
 10
75.08387259775645
 20
17.79480767970509
 30
0.0
  0
VERTEX
  5
32D
  8
CUT_HALFWAY_THROUGH
 10
75.68233427647768
 20
18.74502612812931
 30
0.0
  0
VERTEX
  5
32E
  8
CUT_HALFWAY_THROUGH
 10
71.9869296576916
 20
23.69252059381512
 30
0.0
 42
-0.6867687318601061
  0
VERTEX
  5
32F
  8
CUT_HALFWAY_THROUGH
 10
72.69571439268852
 20
24.81791565544637
 30
0.0
  0
VERTEX
  5
330
  8
CUT_HALFWAY_THROUGH
 10
79.50349727647767
 20
23.47447012812931
 30
0.0
  0
VERTEX
  5
331
  8
CUT_HALFWAY_THROUGH
 10
79.67479627647766
 20
23.74645112812931
 30
0.0
  0
VERTEX
  5
332
  8
CUT_HALFWAY_THROUGH
 10
72.75379578372466
 20
25.11223956168514
 30
0.0
 42
0.6867687318601298
  0
VERTEX
  5
333
  8
CUT_HALFWAY_THROUGH
 10
71.74657529188696
 20
23.51299405305125
 30
0.0
  0
VERTEX
  5
334
  8
CUT_HALFWAY_THROUGH
 10
75.31868627647768
 20
18.73056812812931
 30
0.0
  0
VERTEX
  5
335
  8
CUT_HALFWAY_THROUGH
 10
74.77406532892607
 20
17.86584130609218
 30
0.0
  0
VERTEX
  5
336
  8
CUT_HALFWAY_THROUGH
 10
74.88238558618764
 20
17.80035671752663
 30
0.0
  0
VERTEX
  5
337
  8
CUT_HALFWAY_THROUGH
 10
74.99054450847822
 20
17.73460896290324
 30
0.0
  0
VERTEX
  5
338
  8
CUT_HALFWAY_THROUGH
 10
75.09854161546943
 20
17.668598347
 30
0.0
  0
VERTEX
  5
339
  8
CUT_HALFWAY_THROUGH
 10
75.20637642683283
 20
17.60232517459488
 30
0.0
  0
VERTEX
  5
33A
  8
CUT_HALFWAY_THROUGH
 10
75.31404846224007
 20
17.53578975046587
 30
0.0
  0
VERTEX
  5
33B
  8
CUT_HALFWAY_THROUGH
 10
75.42155724136272
 20
17.46899237939098
 30
0.0
  0
VERTEX
  5
33C
  8
CUT_HALFWAY_THROUGH
 10
75.52890228387238
 20
17.40193336614817
 30
0.0
  0
VERTEX
  5
33D
  8
CUT_HALFWAY_THROUGH
 10
75.63608310944068
 20
17.33461301551545
 30
0.0
  0
VERTEX
  5
33E
  8
CUT_HALFWAY_THROUGH
 10
75.74309923773919
 20
17.26703163227079
 30
0.0
  0
VERTEX
  5
33F
  8
CUT_HALFWAY_THROUGH
 10
75.84995018843952
 20
17.19918952119219
 30
0.0
  0
VERTEX
  5
340
  8
CUT_HALFWAY_THROUGH
 10
75.95663548121327
 20
17.13108698705763
 30
0.0
  0
VERTEX
  5
341
  8
CUT_HALFWAY_THROUGH
 10
76.06315463573205
 20
17.0627243346451
 30
0.0
  0
VERTEX
  5
342
  8
CUT_HALFWAY_THROUGH
 10
76.16950717166743
 20
16.99410186873259
 30
0.0
  0
VERTEX
  5
343
  8
CUT_HALFWAY_THROUGH
 10
76.27569260869106
 20
16.9252198940981
 30
0.0
  0
VERTEX
  5
344
  8
CUT_HALFWAY_THROUGH
 10
76.38171046647449
 20
16.85607871551959
 30
0.0
  0
VERTEX
  5
345
  8
CUT_HALFWAY_THROUGH
 10
76.48756026468935
 20
16.78667863777506
 30
0.0
  0
VERTEX
  5
346
  8
CUT_HALFWAY_THROUGH
 10
77.03201927647767
 20
17.65115012812931
 30
0.0
  0
VERTEX
  5
347
  8
CUT_HALFWAY_THROUGH
 10
82.88904893953142
 20
16.49525875600846
 30
0.0
 42
0.6867687318601354
  0
VERTEX
  5
348
  8
CUT_HALFWAY_THROUGH
 10
83.8962871781256
 20
18.09449093497696
 30
0.0
  0
VERTEX
  5
349
  8
CUT_HALFWAY_THROUGH
 10
79.70471727647767
 20
23.70639212812931
 30
0.0
  0
VERTEX
  5
34A
  8
CUT_HALFWAY_THROUGH
 10
79.87601627647767
 20
23.97837312812931
 30
0.0
  0
VERTEX
  5
34B
  8
CUT_HALFWAY_THROUGH
 10
84.13664340702795
 20
18.27401465652338
 30
0.0
 42
-0.6867687318601328
  0
VERTEX
  5
34C
  8
CUT_HALFWAY_THROUGH
 10
82.83096394064117
 20
16.20093516707232
 30
0.0
  0
VERTEX
  5
34D
  8
CUT_HALFWAY_THROUGH
 10
77.17606727647767
 20
17.31693512812931
 30
0.0
  0
VERTEX
  5
34E
  8
CUT_HALFWAY_THROUGH
 10
76.68329254001276
 20
16.53728930328433
 30
0.0
  0
VERTEX
  5
34F
  8
CUT_HALFWAY_THROUGH
 10
76.54663689169766
 20
16.62795290013689
 30
0.0
  0
VERTEX
  5
350
  8
CUT_HALFWAY_THROUGH
 10
76.40969672560735
 20
16.71818107770844
 30
0.0
  0
VERTEX
  5
351
  8
CUT_HALFWAY_THROUGH
 10
76.27247284717762
 20
16.80797277211799
 30
0.0
  0
VERTEX
  5
352
  8
CUT_HALFWAY_THROUGH
 10
76.13496606184438
 20
16.89732691948452
 30
0.0
  0
VERTEX
  5
353
  8
CUT_HALFWAY_THROUGH
 10
75.99717717504345
 20
16.98624245592705
 30
0.0
  0
VERTEX
  5
354
  8
CUT_HALFWAY_THROUGH
 10
75.85910699221066
 20
17.07471831756456
 30
0.0
  0
VERTEX
  5
355
  8
CUT_HALFWAY_THROUGH
 10
75.72075631878187
 20
17.16275344051606
 30
0.0
  0
VERTEX
  5
356
  8
CUT_HALFWAY_THROUGH
 10
75.58212596019297
 20
17.25034676090054
 30
0.0
  0
VERTEX
  5
357
  8
CUT_HALFWAY_THROUGH
 10
75.44321672187976
 20
17.337497214837
 30
0.0
  0
VERTEX
  5
358
  8
CUT_HALFWAY_THROUGH
 10
75.30402940927813
 20
17.42420373844445
 30
0.0
  0
VERTEX
  5
359
  8
CUT_HALFWAY_THROUGH
 10
75.1645648278239
 20
17.51046526784188
 30
0.0
  0
VERTEX
  5
35A
  8
CUT_HALFWAY_THROUGH
 10
75.02482378295292
 20
17.59628073914828
 30
0.0
  0
VERTEX
  5
35B
  8
CUT_HALFWAY_THROUGH
 10
74.88480708010107
 20
17.68164908848266
 30
0.0
  0
VERTEX
  5
35C
  8
CUT_HALFWAY_THROUGH
 10
74.74451552470418
 20
17.76656925196403
 30
0.0
  0
VERTEX
  5
35D
  8
CUT_HALFWAY_THROUGH
 10
74.6039499221981
 20
17.85104016571136
 30
0.0
  0
VERTEX
  5
35E
  8
CUT_HALFWAY_THROUGH
 10
74.46311107801866
 20
17.93506076584366
 30
0.0
  0
VERTEX
  5
35F
  8
CUT_HALFWAY_THROUGH
 10
74.81778917460171
 20
18.49818935163306
 30
0.0
 42
0.3103182357145993
  0
VERTEX
  5
360
  8
CUT_HALFWAY_THROUGH
 10
74.80092132692805
 20
18.92244456089701
 30
0.0
  0
VERTEX
  5
361
  8
CUT_HALFWAY_THROUGH
 10
71.50622010127998
 20
23.33346882020834
 30
0.0
 42
-0.6867687318601277
  0
VERTEX
  5
362
  8
CUT_HALFWAY_THROUGH
 10
72.81187767476081
 20
25.4065634679239
 30
0.0
  0
VERTEX
  5
363
  8
CUT_HALFWAY_THROUGH
 10
80.04231127647768
 20
23.97971212812931
 30
0.0
  0
SEQEND
  5
364
  8
CUT_HALFWAY_THROUGH
  0
POLYLINE
  5
4A
  8
CUT_HALFWAY_THROUGH
 66
     1
 10
0.0
 20
0.0
 30
0.0
  0
VERTEX
  5
365
  8
CUT_HALFWAY_THROUGH
 10
75.6777639873468
 20
17.18970449424521
 30
0.0
  0
VERTEX
  5
366
  8
CUT_HALFWAY_THROUGH
 10
75.67268281864385
 20
17.18163683318031
 30
0.0
  0
SEQEND
  5
367
  8
CUT_HALFWAY_THROUGH
  0
POLYLINE
  5
4B
  8
CUT_HALFWAY_THROUGH
 66
     1
 10
0.0
 20
0.0
 30
0.0
  0
VERTEX
  5
368
  8
CUT_HALFWAY_THROUGH
 10
76.43420990689835
 20
16.70197388865068
 30
0.0
  0
VERTEX
  5
369
  8
CUT_HALFWAY_THROUGH
 10
76.4310549304146
 20
16.6969645514491
 30
0.0
  0
SEQEND
  5
36A
  8
CUT_HALFWAY_THROUGH
  0
POLYLINE
  5
4C
  8
CUT_HALFWAY_THROUGH
 66
     1
 10
0.0
 20
0.0
 30
0.0
  0
VERTEX
  5
36B
  8
CUT_HALFWAY_THROUGH
 10
90.086439
 20
39.416871
 30
0.0
  0
VERTEX
  5
36C
  8
CUT_HALFWAY_THROUGH
 10
82.7993647176157
 20
40.51851394726
 30
0.0
 42
0.6867687318601196
  0
VERTEX
  5
36D
  8
CUT_HALFWAY_THROUGH
 10
81.5878499092282
 20
38.38903202196273
 30
0.0
  0
VERTEX
  5
36E
  8
CUT_HALFWAY_THROUGH
 10
85.07677096992408
 20
34.12996912465255
 30
0.0
 42
-0.3103182451034863
  0
VERTEX
  5
36F
  8
CUT_HALFWAY_THROUGH
 10
85.1126199811339
 20
33.70689482355173
 30
0.0
  0
VERTEX
  5
370
  8
CUT_HALFWAY_THROUGH
 10
84.83312953591036
 20
33.21564559912311
 30
0.0
  0
VERTEX
  5
371
  8
CUT_HALFWAY_THROUGH
 10
84.97765357465445
 20
33.13794095815185
 30
0.0
  0
VERTEX
  5
372
  8
CUT_HALFWAY_THROUGH
 10
85.12192681311934
 20
33.05977802488805
 30
0.0
  0
VERTEX
  5
373
  8
CUT_HALFWAY_THROUGH
 10
85.26594829862974
 20
32.98115762423041
 30
0.0
  0
VERTEX
  5
374
  8
CUT_HALFWAY_THROUGH
 10
85.40971707851031
 20
32.90208058107764
 30
0.0
  0
VERTEX
  5
375
  8
CUT_HALFWAY_THROUGH
 10
85.55323220008574
 20
32.82254772032847
 30
0.0
  0
VERTEX
  5
376
  8
CUT_HALFWAY_THROUGH
 10
85.6964927106807
 20
32.74255986688161
 30
0.0
  0
VERTEX
  5
377
  8
CUT_HALFWAY_THROUGH
 10
85.83949765761987
 20
32.66211784563576
 30
0.0
  0
VERTEX
  5
378
  8
CUT_HALFWAY_THROUGH
 10
85.98224608822795
 20
32.58122248148965
 30
0.0
  0
VERTEX
  5
379
  8
CUT_HALFWAY_THROUGH
 10
86.1247370498296
 20
32.49987459934199
 30
0.0
  0
VERTEX
  5
37A
  8
CUT_HALFWAY_THROUGH
 10
86.2669695897495
 20
32.41807502409149
 30
0.0
  0
VERTEX
  5
37B
  8
CUT_HALFWAY_THROUGH
 10
86.40894275531232
 20
32.33582458063687
 30
0.0
  0
VERTEX
  5
37C
  8
CUT_HALFWAY_THROUGH
 10
86.55065559384275
 20
32.25312409387684
 30
0.0
  0
VERTEX
  5
37D
  8
CUT_HALFWAY_THROUGH
 10
86.69210715266547
 20
32.16997438871012
 30
0.0
  0
VERTEX
  5
37E
  8
CUT_HALFWAY_THROUGH
 10
86.83329647910516
 20
32.08637629003542
 30
0.0
  0
VERTEX
  5
37F
  8
CUT_HALFWAY_THROUGH
 10
86.97422262048649
 20
32.00233062275144
 30
0.0
  0
VERTEX
  5
380
  8
CUT_HALFWAY_THROUGH
 10
87.11488462413416
 20
31.91783821175692
 30
0.0
  0
VERTEX
  5
381
  8
CUT_HALFWAY_THROUGH
 10
87.521429
 20
32.632428
 30
0.0
  0
VERTEX
  5
382
  8
CUT_HALFWAY_THROUGH
 10
93.22062676766063
 20
31.77077311893072
 30
0.0
 42
0.6867687318601248
  0
VERTEX
  5
383
  8
CUT_HALFWAY_THROUGH
 10
94.43216449516763
 20
33.90024122914563
 30
0.0
  0
VERTEX
  5
384
  8
CUT_HALFWAY_THROUGH
 10
89.920371
 20
39.408087
 30
0.0
  0
VERTEX
  5
385
  8
CUT_HALFWAY_THROUGH
 10
89.761423
 20
39.128708
 30
0.0
  0
VERTEX
  5
386
  8
CUT_HALFWAY_THROUGH
 10
94.2000886597261
 20
33.71013414453448
 30
0.0
 42
-0.6867687318601408
  0
VERTEX
  5
387
  8
CUT_HALFWAY_THROUGH
 10
93.26547376642277
 20
32.06740210474807
 30
0.0
  0
VERTEX
  5
388
  8
CUT_HALFWAY_THROUGH
 10
87.362559
 20
32.959857
 30
0.0
  0
VERTEX
  5
389
  8
CUT_HALFWAY_THROUGH
 10
86.90684350250848
 20
32.15885171834061
 30
0.0
  0
VERTEX
  5
38A
  8
CUT_HALFWAY_THROUGH
 10
86.79799623298526
 20
32.22345239604905
 30
0.0
  0
VERTEX
  5
38B
  8
CUT_HALFWAY_THROUGH
 10
86.68899184516377
 20
32.28778508731552
 30
0.0
  0
VERTEX
  5
38C
  8
CUT_HALFWAY_THROUGH
 10
86.57983091869178
 20
32.3518496592892
 30
0.0
  0
VERTEX
  5
38D
  8
CUT_HALFWAY_THROUGH
 10
86.47051403321703
 20
32.41564597911926
 30
0.0
  0
VERTEX
  5
38E
  8
CUT_HALFWAY_THROUGH
 10
86.36104176838722
 20
32.47917391395487
 30
0.0
  0
VERTEX
  5
38F
  8
CUT_HALFWAY_THROUGH
 10
86.25141470385012
 20
32.54243333094519
 30
0.0
  0
VERTEX
  5
390
  8
CUT_HALFWAY_THROUGH
 10
86.1416334192534
 20
32.60542409723938
 30
0.0
  0
VERTEX
  5
391
  8
CUT_HALFWAY_THROUGH
 10
86.03169849424484
 20
32.66814607998663
 30
0.0
  0
VERTEX
  5
392
  8
CUT_HALFWAY_THROUGH
 10
85.92161050847217
 20
32.73059914633609
 30
0.0
  0
VERTEX
  5
393
  8
CUT_HALFWAY_THROUGH
 10
85.8113700415831
 20
32.79278316343695
 30
0.0
  0
VERTEX
  5
394
  8
CUT_HALFWAY_THROUGH
 10
85.70097767322537
 20
32.85469799843835
 30
0.0
  0
VERTEX
  5
395
  8
CUT_HALFWAY_THROUGH
 10
85.59043398304672
 20
32.9163435184895
 30
0.0
  0
VERTEX
  5
396
  8
CUT_HALFWAY_THROUGH
 10
85.47973955069489
 20
32.97771959073953
 30
0.0
  0
VERTEX
  5
397
  8
CUT_HALFWAY_THROUGH
 10
85.36889495581758
 20
33.03882608233764
 30
0.0
  0
VERTEX
  5
398
  8
CUT_HALFWAY_THROUGH
 10
85.25790077806255
 20
33.09966286043296
 30
0.0
  0
VERTEX
  5
399
  8
CUT_HALFWAY_THROUGH
 10
85.14675759707752
 20
33.1602297921747
 30
0.0
  0
VERTEX
  5
39A
  8
CUT_HALFWAY_THROUGH
 10
85.602609
 20
33.96147
 30
0.0
  0
VERTEX
  5
39B
  8
CUT_HALFWAY_THROUGH
 10
81.81992491709494
 20
38.57914051959964
 30
0.0
 42
-0.6867687318601379
  0
VERTEX
  5
39C
  8
CUT_HALFWAY_THROUGH
 10
82.75452133930354
 20
40.22188471645772
 30
0.0
  0
VERTEX
  5
39D
  8
CUT_HALFWAY_THROUGH
 10
89.729739
 20
39.167387
 30
0.0
  0
VERTEX
  5
39E
  8
CUT_HALFWAY_THROUGH
 10
89.570791
 20
38.888008
 30
0.0
  0
VERTEX
  5
39F
  8
CUT_HALFWAY_THROUGH
 10
82.70967746099137
 20
39.92525498565543
 30
0.0
 42
0.68676873186011
  0
VERTEX
  5
3A0
  8
CUT_HALFWAY_THROUGH
 10
82.05199901573347
 20
38.76924999527382
 30
0.0
  0
VERTEX
  5
3A1
  8
CUT_HALFWAY_THROUGH
 10
85.965245
 20
33.992197
 30
0.0
  0
VERTEX
  5
3A2
  8
CUT_HALFWAY_THROUGH
 10
85.45943616098384
 20
33.10314336577601
 30
0.0
  0
VERTEX
  5
3A3
  8
CUT_HALFWAY_THROUGH
 10
85.61531045460386
 20
33.01692477136346
 30
0.0
  0
VERTEX
  5
3A4
  8
CUT_HALFWAY_THROUGH
 10
85.77088846683597
 20
32.93017412406991
 30
0.0
  0
VERTEX
  5
3A5
  8
CUT_HALFWAY_THROUGH
 10
85.92616880488211
 20
32.84289220604584
 30
0.0
  0
VERTEX
  5
3A6
  8
CUT_HALFWAY_THROUGH
 10
86.08115007594427
 20
32.75507979944171
 30
0.0
  0
VERTEX
  5
3A7
  8
CUT_HALFWAY_THROUGH
 10
86.23583088722434
 20
32.666737686408
 30
0.0
  0
VERTEX
  5
3A8
  8
CUT_HALFWAY_THROUGH
 10
86.39020984592426
 20
32.5778666490952
 30
0.0
  0
VERTEX
  5
3A9
  8
CUT_HALFWAY_THROUGH
 10
86.54428555924599
 20
32.48846746965377
 30
0.0
  0
VERTEX
  5
3AA
  8
CUT_HALFWAY_THROUGH
 10
86.69805663439146
 20
32.3985409302342
 30
0.0
  0
VERTEX
  5
3AB
  8
CUT_HALFWAY_THROUGH
 10
87.20369
 20
33.287286
 30
0.0
  0
VERTEX
  5
3AC
  8
CUT_HALFWAY_THROUGH
 10
93.31032076518491
 20
32.36403109056542
 30
0.0
 42
0.6867687318601285
  0
VERTEX
  5
3AD
  8
CUT_HALFWAY_THROUGH
 10
93.96801214373681
 20
33.52002734899229
 30
0.0
  0
VERTEX
  5
3AE
  8
CUT_HALFWAY_THROUGH
 10
89.602475
 20
38.849329
 30
0.0
  0
VERTEX
  5
3AF
  8
CUT_HALFWAY_THROUGH
 10
89.443527
 20
38.569949
 30
0.0
  0
VERTEX
  5
3B0
  8
CUT_HALFWAY_THROUGH
 10
93.73593598401071
 20
33.32992020445781
 30
0.0
 42
-0.6867687318601844
  0
VERTEX
  5
3B1
  8
CUT_HALFWAY_THROUGH
 10
93.35516776394707
 20
32.66066007638277
 30
0.0
  0
VERTEX
  5
3B2
  8
CUT_HALFWAY_THROUGH
 10
87.04482
 20
33.614714
 30
0.0
  0
VERTEX
  5
3B3
  8
CUT_HALFWAY_THROUGH
 10
86.48834779066956
 20
32.6366139066028
 30
0.0
  0
VERTEX
  5
3B4
  8
CUT_HALFWAY_THROUGH
 10
86.30967837127034
 20
32.73965819780037
 30
0.0
  0
VERTEX
  5
3B5
  8
CUT_HALFWAY_THROUGH
 10
86.13060410925928
 20
32.84199526803484
 30
0.0
  0
VERTEX
  5
3B6
  8
CUT_HALFWAY_THROUGH
 10
85.95112710494513
 20
32.94362392543907
 30
0.0
  0
VERTEX
  5
3B7
  8
CUT_HALFWAY_THROUGH
 10
85.7712494586366
 20
33.0445429781459
 30
0.0
  0
VERTEX
  5
3B8
  8
CUT_HALFWAY_THROUGH
 10
86.32788
 20
34.022925
 30
0.0
  0
VERTEX
  5
3B9
  8
CUT_HALFWAY_THROUGH
 10
82.284073114372
 20
38.959359470948
 30
0.0
 42
-0.6867687318601332
  0
VERTEX
  5
3BA
  8
CUT_HALFWAY_THROUGH
 10
82.66483358267922
 20
39.62862575485315
 30
0.0
  0
VERTEX
  5
3BB
  8
CUT_HALFWAY_THROUGH
 10
89.411843
 20
38.608628
 30
0.0
  0
VERTEX
  5
3BC
  8
CUT_HALFWAY_THROUGH
 10
89.252895
 20
38.329249
 30
0.0
  0
VERTEX
  5
3BD
  8
CUT_HALFWAY_THROUGH
 10
82.61998970436706
 20
39.33199602405085
 30
0.0
 42
0.6867687318600428
  0
VERTEX
  5
3BE
  8
CUT_HALFWAY_THROUGH
 10
82.51614721301054
 20
39.14946894662218
 30
0.0
  0
VERTEX
  5
3BF
  8
CUT_HALFWAY_THROUGH
 10
86.690516
 20
34.053653
 30
0.0
  0
VERTEX
  5
3C0
  8
CUT_HALFWAY_THROUGH
 10
86.08220716584573
 20
32.98443512558881
 30
0.0
  0
VERTEX
  5
3C1
  8
CUT_HALFWAY_THROUGH
 10
86.27778293785498
 20
32.87317972398887
 30
0.0
  0
VERTEX
  5
3C2
  8
CUT_HALFWAY_THROUGH
 10
86.885951
 20
33.942143
 30
0.0
  0
VERTEX
  5
3C3
  8
CUT_HALFWAY_THROUGH
 10
93.40001476270919
 20
32.95728906220012
 30
0.0
 42
0.6867687318599947
  0
VERTEX
  5
3C4
  8
CUT_HALFWAY_THROUGH
 10
93.50385979230602
 20
33.13981346883894
 30
0.0
  0
VERTEX
  5
3C5
  8
CUT_HALFWAY_THROUGH
 10
89.284579
 20
38.29057
 30
0.0
  0
VERTEX
  5
3C6
  8
CUT_HALFWAY_THROUGH
 10
89.125631
 20
38.01119
 30
0.0
  0
VERTEX
  5
3C7
  8
CUT_HALFWAY_THROUGH
 10
92.962896
 20
33.326786
 30
0.0
  0
VERTEX
  5
3C8
  8
CUT_HALFWAY_THROUGH
 10
86.926096
 20
34.239483
 30
0.0
  0
VERTEX
  5
3C9
  8
CUT_HALFWAY_THROUGH
 10
83.057111
 20
38.962504
 30
0.0
  0
VERTEX
  5
3CA
  8
CUT_HALFWAY_THROUGH
 10
89.093947
 20
38.04987
 30
0.0
  0
VERTEX
  5
3CB
  8
CUT_HALFWAY_THROUGH
 10
88.934999
 20
37.77049
 30
0.0
  0
VERTEX
  5
3CC
  8
CUT_HALFWAY_THROUGH
 10
83.783409
 20
38.549296
 30
0.0
  0
VERTEX
  5
3CD
  8
CUT_HALFWAY_THROUGH
 10
87.085043
 20
34.518861
 30
0.0
  0
VERTEX
  5
3CE
  8
CUT_HALFWAY_THROUGH
 10
92.236603
 20
33.740003
 30
0.0
  0
VERTEX
  5
3CF
  8
CUT_HALFWAY_THROUGH
 10
88.966683
 20
37.731811
 30
0.0
  0
VERTEX
  5
3D0
  8
CUT_HALFWAY_THROUGH
 10
88.807735
 20
37.452431
 30
0.0
  0
VERTEX
  5
3D1
  8
CUT_HALFWAY_THROUGH
 10
91.510309
 20
34.15322
 30
0.0
  0
VERTEX
  5
3D2
  8
CUT_HALFWAY_THROUGH
 10
87.24399
 20
34.798239
 30
0.0
  0
VERTEX
  5
3D3
  8
CUT_HALFWAY_THROUGH
 10
84.509707
 20
38.136087
 30
0.0
  0
VERTEX
  5
3D4
  8
CUT_HALFWAY_THROUGH
 10
88.776051
 20
37.491111
 30
0.0
  0
VERTEX
  5
3D5
  8
CUT_HALFWAY_THROUGH
 10
88.617103
 20
37.211731
 30
0.0
  0
VERTEX
  5
3D6
  8
CUT_HALFWAY_THROUGH
 10
85.236005
 20
37.722878
 30
0.0
  0
VERTEX
  5
3D7
  8
CUT_HALFWAY_THROUGH
 10
87.402938
 20
35.077618
 30
0.0
  0
VERTEX
  5
3D8
  8
CUT_HALFWAY_THROUGH
 10
90.784016
 20
34.566436
 30
0.0
  0
VERTEX
  5
3D9
  8
CUT_HALFWAY_THROUGH
 10
88.648788
 20
37.173052
 30
0.0
  0
VERTEX
  5
3DA
  8
CUT_HALFWAY_THROUGH
 10
88.48984
 20
36.893672
 30
0.0
  0
VERTEX
  5
3DB
  8
CUT_HALFWAY_THROUGH
 10
90.057723
 20
34.979653
 30
0.0
  0
VERTEX
  5
3DC
  8
CUT_HALFWAY_THROUGH
 10
87.561885
 20
35.356996
 30
0.0
  0
VERTEX
  5
3DD
  8
CUT_HALFWAY_THROUGH
 10
85.962303
 20
37.309669
 30
0.0
  0
VERTEX
  5
3DE
  8
CUT_HALFWAY_THROUGH
 10
88.458155
 20
36.932352
 30
0.0
  0
VERTEX
  5
3DF
  8
CUT_HALFWAY_THROUGH
 10
88.299207
 20
36.652972
 30
0.0
  0
VERTEX
  5
3E0
  8
CUT_HALFWAY_THROUGH
 10
86.6886
 20
36.89646
 30
0.0
  0
VERTEX
  5
3E1
  8
CUT_HALFWAY_THROUGH
 10
87.720832
 20
35.636374
 30
0.0
  0
VERTEX
  5
3E2
  8
CUT_HALFWAY_THROUGH
 10
89.331429
 20
35.39287
 30
0.0
  0
VERTEX
  5
3E3
  8
CUT_HALFWAY_THROUGH
 10
88.330892
 20
36.614293
 30
0.0
  0
VERTEX
  5
3E4
  8
CUT_HALFWAY_THROUGH
 10
88.171944
 20
36.334913
 30
0.0
  0
VERTEX
  5
3E5
  8
CUT_HALFWAY_THROUGH
 10
88.605136
 20
35.806087
 30
0.0
  0
VERTEX
  5
3E6
  8
CUT_HALFWAY_THROUGH
 10
87.879779
 20
35.915753
 30
0.0
  0
VERTEX
  5
3E7
  8
CUT_HALFWAY_THROUGH
 10
87.414898
 20
36.483251
 30
0.0
  0
VERTEX
  5
3E8
  8
CUT_HALFWAY_THROUGH
 10
88.140259
 20
36.373593
 30
0.0
  0
VERTEX
  5
3E9
  8
CUT_HALFWAY_THROUGH
 10
82.60317425430718
 20
39.22076033543345
 30
0.0
  0
VERTEX
  5
3EA
  8
CUT_HALFWAY_THROUGH
 10
93.416832
 20
33.068524
 30
0.0
  0
SEQEND
  5
3EB
  8
CUT_HALFWAY_THROUGH
  0
POLYLINE
  5
4E
  8
THROUGH_CUT
 66
     1
 10
0.0
 20
0.0
 30
0.0
 70
     1
  0
VERTEX
  5
3EC
  8
THROUGH_CUT
 10
29.35957768297088
 20
41.73525350000001
 30
0.0
 42
0.4142135623730951
  0
VERTEX
  5
3ED
  8
THROUGH_CUT
 10
29.15957468297087
 20
41.5352505
 30
0.0
 42
0.4142135623731054
  0
VERTEX
  5
3EE
  8
THROUGH_CUT
 10
29.35957768297088
 20
41.33524750000001
 30
0.0
 42
0.4142135623731054
  0
VERTEX
  5
3EF
  8
THROUGH_CUT
 10
29.55958068297089
 20
41.5352505
 30
0.0
 42
0.4142135623730951
  0
SEQEND
  5
3F0
  8
THROUGH_CUT
  0
POLYLINE
  5
4F
  8
THROUGH_CUT
 66
     1
 10
0.0
 20
0.0
 30
0.0
 70
     1
  0
VERTEX
  5
3F1
  8
THROUGH_CUT
 10
17.35957768297088
 20
41.73525350000001
 30
0.0
 42
0.4142135623730951
  0
VERTEX
  5
3F2
  8
THROUGH_CUT
 10
17.15957468297087
 20
41.5352505
 30
0.0
 42
0.4142135623731054
  0
VERTEX
  5
3F3
  8
THROUGH_CUT
 10
17.35957768297088
 20
41.33524750000001
 30
0.0
 42
0.4142135623731054
  0
VERTEX
  5
3F4
  8
THROUGH_CUT
 10
17.55958068297089
 20
41.5352505
 30
0.0
 42
0.4142135623730951
  0
SEQEND
  5
3F5
  8
THROUGH_CUT
  0
POLYLINE
  5
50
  8
THROUGH_CUT
 66
     1
 10
0.0
 20
0.0
 30
0.0
 70
     1
  0
VERTEX
  5
3F6
  8
THROUGH_CUT
 10
26.83403486771299
 20
32.9564875
 30
0.0
 42
0.4142135623730847
  0
VERTEX
  5
3F7
  8
THROUGH_CUT
 10
26.63403186771298
 20
32.75648450000001
 30
0.0
 42
0.4142135623730951
  0
VERTEX
  5
3F8
  8
THROUGH_CUT
 10
26.83403486771299
 20
32.5564815
 30
0.0
 42
0.4142135623730951
  0
VERTEX
  5
3F9
  8
THROUGH_CUT
 10
27.034037867713
 20
32.75648450000001
 30
0.0
 42
0.4142135623730847
  0
SEQEND
  5
3FA
  8
THROUGH_CUT
  0
POLYLINE
  5
51
  8
THROUGH_CUT
 66
     1
 10
0.0
 20
0.0
 30
0.0
 70
     1
  0
VERTEX
  5
3FB
  8
THROUGH_CUT
 10
37.18799786771298
 20
39.0224125
 30
0.0
 42
0.4142135623731054
  0
VERTEX
  5
3FC
  8
THROUGH_CUT
 10
36.98799486771297
 20
38.82240950000001
 30
0.0
 42
0.4142135623731054
  0
VERTEX
  5
3FD
  8
THROUGH_CUT
 10
37.18799786771298
 20
38.6224065
 30
0.0
 42
0.4142135623731054
  0
VERTEX
  5
3FE
  8
THROUGH_CUT
 10
37.38800086771299
 20
38.82240950000001
 30
0.0
 42
0.4142135623731054
  0
SEQEND
  5
3FF
  8
THROUGH_CUT
  0
POLYLINE
  5
52
  8
THROUGH_CUT
 66
     1
 10
0.0
 20
0.0
 30
0.0
 70
     1
  0
VERTEX
  5
400
  8
THROUGH_CUT
 10
17.8274219834193
 20
24.19802449778925
 30
0.0
 42
0.4142135623731107
  0
VERTEX
  5
401
  8
THROUGH_CUT
 10
17.62741898341927
 20
23.99802149778925
 30
0.0
 42
0.4142135623731003
  0
VERTEX
  5
402
  8
THROUGH_CUT
 10
17.82742198341931
 20
23.79801849778924
 30
0.0
 42
0.4142135623730951
  0
VERTEX
  5
403
  8
THROUGH_CUT
 10
18.02742498341929
 20
23.99802149778925
 30
0.0
 42
0.4142135623731054
  0
SEQEND
  5
404
  8
THROUGH_CUT
  0
POLYLINE
  5
53
  8
THROUGH_CUT
 66
     1
 10
0.0
 20
0.0
 30
0.0
 70
     1
  0
VERTEX
  5
405
  8
THROUGH_CUT
 10
29.5294319834193
 20
26.85564649778924
 30
0.0
 42
0.4142135623730951
  0
VERTEX
  5
406
  8
THROUGH_CUT
 10
29.32942898341929
 20
26.65564349778924
 30
0.0
 42
0.4142135623730951
  0
VERTEX
  5
407
  8
THROUGH_CUT
 10
29.5294319834193
 20
26.45564049778925
 30
0.0
 42
0.4142135623731003
  0
VERTEX
  5
408
  8
THROUGH_CUT
 10
29.72943498341932
 20
26.65564349778924
 30
0.0
 42
0.4142135623731003
  0
SEQEND
  5
409
  8
THROUGH_CUT
  0
POLYLINE
  5
54
  8
THROUGH_CUT
 66
     1
 10
0.0
 20
0.0
 30
0.0
 70
     1
  0
VERTEX
  5
40A
  8
THROUGH_CUT
 10
7.970388473470888
 20
3.468207513264561
 30
0.0
 42
0.4142135623730945
  0
VERTEX
  5
40B
  8
THROUGH_CUT
 10
7.770385473470879
 20
3.268204513264559
 30
0.0
 42
0.4142135623730951
  0
VERTEX
  5
40C
  8
THROUGH_CUT
 10
7.970388473470888
 20
3.068201513264556
 30
0.0
 42
0.4142135623730951
  0
VERTEX
  5
40D
  8
THROUGH_CUT
 10
8.170391473470897
 20
3.268204513264559
 30
0.0
 42
0.4142135623730945
  0
SEQEND
  5
40E
  8
THROUGH_CUT
  0
POLYLINE
  5
55
  8
THROUGH_CUT
 66
     1
 10
0.0
 20
0.0
 30
0.0
 70
     1
  0
VERTEX
  5
40F
  8
THROUGH_CUT
 10
17.58297847347087
 20
10.65139051326456
 30
0.0
 42
0.4142135623730976
  0
VERTEX
  5
410
  8
THROUGH_CUT
 10
17.38297547347086
 20
10.45138751326456
 30
0.0
 42
0.4142135623730976
  0
VERTEX
  5
411
  8
THROUGH_CUT
 10
17.58297847347087
 20
10.25138451326456
 30
0.0
 42
0.4142135623730976
  0
VERTEX
  5
412
  8
THROUGH_CUT
 10
17.78298147347088
 20
10.45138751326456
 30
0.0
 42
0.4142135623730976
  0
SEQEND
  5
413
  8
THROUGH_CUT
  0
POLYLINE
  5
56
  8
THROUGH_CUT
 66
     1
 10
0.0
 20
0.0
 30
0.0
 70
     1
  0
VERTEX
  5
414
  8
THROUGH_CUT
 10
27.20282449999999
 20
8.125820500000003
 30
0.0
 42
0.4142135623730951
  0
VERTEX
  5
415
  8
THROUGH_CUT
 10
27.00282149999998
 20
7.925817500000004
 30
0.0
 42
0.4142135623730951
  0
VERTEX
  5
416
  8
THROUGH_CUT
 10
27.20282449999999
 20
7.725814500000006
 30
0.0
 42
0.4142135623730951
  0
VERTEX
  5
417
  8
THROUGH_CUT
 10
27.4028275
 20
7.925817500000004
 30
0.0
 42
0.4142135623730951
  0
SEQEND
  5
418
  8
THROUGH_CUT
  0
POLYLINE
  5
57
  8
THROUGH_CUT
 66
     1
 10
0.0
 20
0.0
 30
0.0
 70
     1
  0
VERTEX
  5
419
  8
THROUGH_CUT
 10
38.79394349999998
 20
5.020026500000004
 30
0.0
 42
0.4142135623730951
  0
VERTEX
  5
41A
  8
THROUGH_CUT
 10
38.59394049999997
 20
4.820023500000005
 30
0.0
 42
0.4142135623730951
  0
VERTEX
  5
41B
  8
THROUGH_CUT
 10
38.79394349999998
 20
4.620020500000006
 30
0.0
 42
0.4142135623730951
  0
VERTEX
  5
41C
  8
THROUGH_CUT
 10
38.99394649999999
 20
4.820023500000005
 30
0.0
 42
0.4142135623730951
  0
SEQEND
  5
41D
  8
THROUGH_CUT
  0
POLYLINE
  5
58
  8
THROUGH_CUT
 66
     1
 10
0.0
 20
0.0
 30
0.0
 70
     1
  0
VERTEX
  5
41E
  8
THROUGH_CUT
 10
73.89990747347086
 20
11.29473151326456
 30
0.0
 42
0.4142135623731444
  0
VERTEX
  5
41F
  8
THROUGH_CUT
 10
73.69990447347087
 20
11.09472851326456
 30
0.0
 42
0.4142135623731418
  0
VERTEX
  5
420
  8
THROUGH_CUT
 10
73.89990747347086
 20
10.89472551326456
 30
0.0
 42
0.4142135623731418
  0
VERTEX
  5
421
  8
THROUGH_CUT
 10
74.09991047347086
 20
11.09472851326456
 30
0.0
 42
0.4142135623731444
  0
SEQEND
  5
422
  8
THROUGH_CUT
  0
POLYLINE
  5
59
  8
THROUGH_CUT
 66
     1
 10
0.0
 20
0.0
 30
0.0
 70
     1
  0
VERTEX
  5
423
  8
THROUGH_CUT
 10
62.87267847347088
 20
16.02761851326456
 30
0.0
 42
0.414213562373134
  0
VERTEX
  5
424
  8
THROUGH_CUT
 10
62.67267547347089
 20
15.82761551326456
 30
0.0
 42
0.4142135623731316
  0
VERTEX
  5
425
  8
THROUGH_CUT
 10
62.87267847347088
 20
15.62761251326456
 30
0.0
 42
0.4142135623730951
  0
VERTEX
  5
426
  8
THROUGH_CUT
 10
63.07268147347088
 20
15.82761551326456
 30
0.0
 42
0.4142135623730925
  0
SEQEND
  5
427
  8
THROUGH_CUT
  0
POLYLINE
  5
5A
  8
THROUGH_CUT
 66
     1
 10
0.0
 20
0.0
 30
0.0
 70
     1
  0
VERTEX
  5
428
  8
THROUGH_CUT
 10
89.49217249999998
 20
29.1647995
 30
0.0
 42
0.4142135623730898
  0
VERTEX
  5
429
  8
THROUGH_CUT
 10
89.29216949999999
 20
28.96479650000001
 30
0.0
 42
0.4142135623730325
  0
VERTEX
  5
42A
  8
THROUGH_CUT
 10
89.49217249999998
 20
28.7647935
 30
0.0
 42
0.4142135623730325
  0
VERTEX
  5
42B
  8
THROUGH_CUT
 10
89.69217549999998
 20
28.96479650000001
 30
0.0
 42
0.4142135623730898
  0
SEQEND
  5
42C
  8
THROUGH_CUT
  0
POLYLINE
  5
5B
  8
THROUGH_CUT
 66
     1
 10
0.0
 20
0.0
 30
0.0
 70
     1
  0
VERTEX
  5
42D
  8
THROUGH_CUT
 10
89.49231449999999
 20
17.1648005
 30
0.0
 42
0.414213562373017
  0
VERTEX
  5
42E
  8
THROUGH_CUT
 10
89.2923115
 20
16.9647975
 30
0.0
 42
0.414213562373017
  0
VERTEX
  5
42F
  8
THROUGH_CUT
 10
89.49231449999999
 20
16.7647945
 30
0.0
 42
0.414213562373017
  0
VERTEX
  5
430
  8
THROUGH_CUT
 10
89.69231749999999
 20
16.9647975
 30
0.0
 42
0.414213562373017
  0
SEQEND
  5
431
  8
THROUGH_CUT
  0
POLYLINE
  5
5C
  8
THROUGH_CUT
 66
     1
 10
0.0
 20
0.0
 30
0.0
 70
     1
  0
VERTEX
  5
432
  8
THROUGH_CUT
 10
93.22491586771298
 20
33.3778555
 30
0.0
 42
0.4142135623730951
  0
VERTEX
  5
433
  8
THROUGH_CUT
 10
93.02491286771298
 20
33.17785250000001
 30
0.0
 42
0.4142135623730325
  0
VERTEX
  5
434
  8
THROUGH_CUT
 10
93.22491586771298
 20
32.9778495
 30
0.0
 42
0.4142135623730325
  0
VERTEX
  5
435
  8
THROUGH_CUT
 10
93.42491886771298
 20
33.17785250000001
 30
0.0
 42
0.4142135623730951
  0
SEQEND
  5
436
  8
THROUGH_CUT
  0
POLYLINE
  5
5D
  8
THROUGH_CUT
 66
     1
 10
0.0
 20
0.0
 30
0.0
 70
     1
  0
VERTEX
  5
437
  8
THROUGH_CUT
 10
82.79482186771298
 20
39.31192050000001
 30
0.0
 42
0.4142135623730325
  0
VERTEX
  5
438
  8
THROUGH_CUT
 10
82.59481886771299
 20
39.1119175
 30
0.0
 42
0.4142135623730951
  0
VERTEX
  5
439
  8
THROUGH_CUT
 10
82.79482186771298
 20
38.9119145
 30
0.0
 42
0.4142135623730951
  0
VERTEX
  5
43A
  8
THROUGH_CUT
 10
82.99482486771298
 20
39.1119175
 30
0.0
 42
0.4142135623730325
  0
SEQEND
  5
43B
  8
THROUGH_CUT
  0
POLYLINE
  5
5E
  8
THROUGH_CUT
 66
     1
 10
0.0
 20
0.0
 30
0.0
 70
     1
  0
VERTEX
  5
43C
  8
THROUGH_CUT
 10
82.89807798341928
 20
17.80625549778925
 30
0.0
 42
0.4142135623731003
  0
VERTEX
  5
43D
  8
THROUGH_CUT
 10
82.69807498341933
 20
17.60625249778924
 30
0.0
 42
0.4142135623731054
  0
VERTEX
  5
43E
  8
THROUGH_CUT
 10
82.89807798341931
 20
17.40624949778925
 30
0.0
 42
0.4142135623730951
  0
VERTEX
  5
43F
  8
THROUGH_CUT
 10
83.09808098341932
 20
17.60625249778923
 30
0.0
 42
0.4142135623730898
  0
SEQEND
  5
440
  8
THROUGH_CUT
  0
POLYLINE
  5
5F
  8
THROUGH_CUT
 66
     1
 10
0.0
 20
0.0
 30
0.0
 70
     1
  0
VERTEX
  5
441
  8
THROUGH_CUT
 10
72.74412298341932
 20
24.20134749778925
 30
0.0
 42
0.4142135623730951
  0
VERTEX
  5
442
  8
THROUGH_CUT
 10
72.54411998341934
 20
24.00134449778924
 30
0.0
 42
0.4142135623731107
  0
VERTEX
  5
443
  8
THROUGH_CUT
 10
72.74412298341932
 20
23.80134149778925
 30
0.0
 42
0.4142135623730847
  0
VERTEX
  5
444
  8
THROUGH_CUT
 10
72.9441259834193
 20
24.00134449778925
 30
0.0
 42
0.4142135623730794
  0
SEQEND
  5
445
  8
THROUGH_CUT
  0
POLYLINE
  5
60
  8
THROUGH_CUT
 66
     1
 10
0.0
 20
0.0
 30
0.0
 70
     1
  0
VERTEX
  5
446
  8
THROUGH_CUT
 10
4.860102843746459
 20
5.530930303439922
 30
0.0
 42
0.4142135623730951
  0
VERTEX
  5
447
  8
THROUGH_CUT
 10
5.060105843746454
 20
5.730933303439921
 30
0.0
 42
0.4142135623730951
  0
VERTEX
  5
448
  8
THROUGH_CUT
 10
4.860102843746459
 20
5.930936303439923
 30
0.0
 42
0.4142135623730951
  0
VERTEX
  5
449
  8
THROUGH_CUT
 10
4.660099843746464
 20
5.730933303439921
 30
0.0
 42
0.4142135623730951
  0
SEQEND
  5
44A
  8
THROUGH_CUT
  0
POLYLINE
  5
61
  8
THROUGH_CUT
 66
     1
 10
0.0
 20
0.0
 30
0.0
 70
     1
  0
VERTEX
  5
44B
  8
THROUGH_CUT
 10
4.859960843746451
 20
17.53092930343992
 30
0.0
 42
0.4142135623730951
  0
VERTEX
  5
44C
  8
THROUGH_CUT
 10
5.059963843746447
 20
17.73093230343992
 30
0.0
 42
0.4142135623730951
  0
VERTEX
  5
44D
  8
THROUGH_CUT
 10
4.859960843746451
 20
17.93093530343992
 30
0.0
 42
0.4142135623730951
  0
VERTEX
  5
44E
  8
THROUGH_CUT
 10
4.659957843746456
 20
17.73093230343992
 30
0.0
 42
0.4142135623730951
  0
SEQEND
  5
44F
  8
THROUGH_CUT
  0
POLYLINE
  5
62
  8
THROUGH_CUT
 66
     1
 10
0.0
 20
0.0
 30
0.0
 70
     1
  0
VERTEX
  5
450
  8
THROUGH_CUT
 10
53.981359
 20
43.632745
 30
0.0
 42
0.4142135623731054
  0
VERTEX
  5
451
  8
THROUGH_CUT
 10
53.78135899999999
 20
43.432745
 30
0.0
 42
0.4142135623731158
  0
VERTEX
  5
452
  8
THROUGH_CUT
 10
53.981359
 20
43.23274499999999
 30
0.0
 42
0.4142135623731054
  0
VERTEX
  5
453
  8
THROUGH_CUT
 10
54.181359
 20
43.432745
 30
0.0
 42
0.4142135623730951
  0
SEQEND
  5
454
  8
THROUGH_CUT
  0
POLYLINE
  5
63
  8
THROUGH_CUT
 66
     1
 10
0.0
 20
0.0
 30
0.0
 70
     1
  0
VERTEX
  5
455
  8
THROUGH_CUT
 10
65.981138
 20
43.705587
 30
0.0
 42
0.4142135623731782
  0
VERTEX
  5
456
  8
THROUGH_CUT
 10
65.781138
 20
43.505587
 30
0.0
 42
0.4142135623731054
  0
VERTEX
  5
457
  8
THROUGH_CUT
 10
65.981138
 20
43.305587
 30
0.0
 42
0.4142135623731054
  0
VERTEX
  5
458
  8
THROUGH_CUT
 10
66.181138
 20
43.505587
 30
0.0
 42
0.4142135623731782
  0
SEQEND
  5
459
  8
THROUGH_CUT
  0
POLYLINE
  5
64
  8
THROUGH_CUT
 66
     1
 10
0.0
 20
0.0
 30
0.0
 70
     1
  0
VERTEX
  5
45A
  8
THROUGH_CUT
 10
44.11654
 20
29.808179
 30
0.0
 42
0.4142135623731107
  0
VERTEX
  5
45B
  8
THROUGH_CUT
 10
43.91654
 20
29.608179
 30
0.0
 42
0.4142135623731107
  0
VERTEX
  5
45C
  8
THROUGH_CUT
 10
44.11654
 20
29.408179
 30
0.0
 42
0.4142135623731107
  0
VERTEX
  5
45D
  8
THROUGH_CUT
 10
44.31654
 20
29.608179
 30
0.0
 42
0.4142135623731107
  0
SEQEND
  5
45E
  8
THROUGH_CUT
  0
POLYLINE
  5
65
  8
THROUGH_CUT
 66
     1
 10
0.0
 20
0.0
 30
0.0
 70
     1
  0
VERTEX
  5
45F
  8
THROUGH_CUT
 10
56.107717
 20
29.348115
 30
0.0
 42
0.4142135623730898
  0
VERTEX
  5
460
  8
THROUGH_CUT
 10
55.907717
 20
29.148115
 30
0.0
 42
0.4142135623730898
  0
VERTEX
  5
461
  8
THROUGH_CUT
 10
56.107717
 20
28.948115
 30
0.0
 42
0.4142135623731211
  0
VERTEX
  5
462
  8
THROUGH_CUT
 10
56.307717
 20
29.148115
 30
0.0
 42
0.4142135623731211
  0
SEQEND
  5
463
  8
THROUGH_CUT
  0
POLYLINE
  5
66
  8
THROUGH_CUT
 66
     1
 10
0.0
 20
0.0
 30
0.0
 70
     1
  0
VERTEX
  5
464
  8
THROUGH_CUT
 10
33.757273
 20
17.107503
 30
0.0
 42
0.4142135623730847
  0
VERTEX
  5
465
  8
THROUGH_CUT
 10
33.557273
 20
16.907503
 30
0.0
 42
0.4142135623730587
  0
VERTEX
  5
466
  8
THROUGH_CUT
 10
33.757273
 20
16.707503
 30
0.0
 42
0.4142135623731107
  0
VERTEX
  5
467
  8
THROUGH_CUT
 10
33.957273
 20
16.907503
 30
0.0
 42
0.4142135623730951
  0
SEQEND
  5
468
  8
THROUGH_CUT
  0
POLYLINE
  5
67
  8
THROUGH_CUT
 66
     1
 10
0.0
 20
0.0
 30
0.0
 70
     1
  0
VERTEX
  5
469
  8
THROUGH_CUT
 10
45.674012
 20
18.518644
 30
0.0
 42
0.4142135623731107
  0
VERTEX
  5
46A
  8
THROUGH_CUT
 10
45.47401199999999
 20
18.318644
 30
0.0
 42
0.4142135623731107
  0
VERTEX
  5
46B
  8
THROUGH_CUT
 10
45.674012
 20
18.118644
 30
0.0
 42
0.4142135623731107
  0
VERTEX
  5
46C
  8
THROUGH_CUT
 10
45.874012
 20
18.318644
 30
0.0
 42
0.4142135623731107
  0
SEQEND
  5
46D
  8
THROUGH_CUT
  0
POLYLINE
  5
68
  8
THROUGH_CUT
 66
     1
 10
0.0
 20
0.0
 30
0.0
 70
     1
  0
VERTEX
  5
46E
  8
THROUGH_CUT
 10
53.672375
 20
4.665743
 30
0.0
 42
0.4142135623730938
  0
VERTEX
  5
46F
  8
THROUGH_CUT
 10
53.472375
 20
4.465743
 30
0.0
 42
0.4142135623730938
  0
VERTEX
  5
470
  8
THROUGH_CUT
 10
53.672375
 20
4.265743
 30
0.0
 42
0.4142135623730938
  0
VERTEX
  5
471
  8
THROUGH_CUT
 10
53.87237500000001
 20
4.465743
 30
0.0
 42
0.4142135623730938
  0
SEQEND
  5
472
  8
THROUGH_CUT
  0
POLYLINE
  5
69
  8
THROUGH_CUT
 66
     1
 10
0.0
 20
0.0
 30
0.0
 70
     1
  0
VERTEX
  5
473
  8
THROUGH_CUT
 10
65.672375
 20
4.663488
 30
0.0
 42
0.4142135623730938
  0
VERTEX
  5
474
  8
THROUGH_CUT
 10
65.472375
 20
4.463488
 30
0.0
 42
0.4142135623730938
  0
VERTEX
  5
475
  8
THROUGH_CUT
 10
65.672375
 20
4.263488
 30
0.0
 42
0.4142135623730938
  0
VERTEX
  5
476
  8
THROUGH_CUT
 10
65.872375
 20
4.463488
 30
0.0
 42
0.4142135623730938
  0
SEQEND
  5
477
  8
THROUGH_CUT
  0
POLYLINE
  5
6A
  8
THROUGH_CUT
 66
     1
 10
0.0
 20
0.0
 30
0.0
 70
     1
  0
VERTEX
  5
478
  8
THROUGH_CUT
 10
8.859577682970873
 20
20.54347833863014
 30
0.0
  0
VERTEX
  5
479
  8
THROUGH_CUT
 10
8.859577682970873
 20
37.26654950000001
 30
0.0
 42
0.0710228079641892
  0
VERTEX
  5
47A
  8
THROUGH_CUT
 10
8.83289576242708
 20
37.31646764044929
 30
0.0
 42
-0.181956217396629
  0
VERTEX
  5
47B
  8
THROUGH_CUT
 10
8.80465068297088
 20
37.41745950000001
 30
0.0
 42
-0.2679499004137695
  0
VERTEX
  5
47C
  8
THROUGH_CUT
 10
8.913630546959626
 20
37.57309883585757
 30
0.0
 42
-0.2679504775665501
  0
VERTEX
  5
47D
  8
THROUGH_CUT
 10
9.102907682970873
 20
37.5565385
 30
0.0
 42
-0.0765050138784468
  0
VERTEX
  5
47E
  8
THROUGH_CUT
 10
9.1148950223599
 20
37.54506306211479
 30
0.0
 42
0.1427658813591488
  0
VERTEX
  5
47F
  8
THROUGH_CUT
 10
9.128277682970868
 20
37.5352505
 30
0.0
  0
VERTEX
  5
480
  8
THROUGH_CUT
 10
23.3595455831951
 20
37.53525725
 30
0.0
  0
VERTEX
  5
481
  8
THROUGH_CUT
 10
30.11871667093319
 20
40.13521690004372
 30
0.0
 42
0.1282682737583928
  0
VERTEX
  5
482
  8
THROUGH_CUT
 10
30.76433241796413
 20
40.62877259483376
 30
0.0
 42
0.2558295285415825
  0
VERTEX
  5
483
  8
THROUGH_CUT
 10
30.99429753432942
 20
42.035534700518
 30
0.0
 42
0.1086601803481101
  0
VERTEX
  5
484
  8
THROUGH_CUT
 10
30.66862614564265
 20
42.56039761598117
 30
0.0
 42
0.1006906755019466
  0
VERTEX
  5
485
  8
THROUGH_CUT
 10
30.11873181894007
 20
42.93520715805295
 30
0.0
  0
VERTEX
  5
486
  8
THROUGH_CUT
 10
23.35956158319509
 20
45.53525025
 30
0.0
  0
VERTEX
  5
487
  8
THROUGH_CUT
 10
22.12827768297087
 20
45.5352505
 30
0.0
 42
0.0597508282057169
  0
VERTEX
  5
488
  8
THROUGH_CUT
 10
22.0712135156306
 20
45.50621145896763
 30
0.0
 42
-0.2018735707494358
  0
VERTEX
  5
489
  8
THROUGH_CUT
 10
21.95493668297088
 20
45.48364450000001
 30
0.0
 42
-0.2532310404646353
  0
VERTEX
  5
48A
  8
THROUGH_CUT
 10
21.81692595164696
 20
45.60053514134928
 30
0.0
 42
-0.253234049576367
  0
VERTEX
  5
48B
  8
THROUGH_CUT
 10
21.83929668297088
 20
45.7800045
 30
0.0
 42
-0.0750613763016063
  0
VERTEX
  5
48C
  8
THROUGH_CUT
 10
21.85024265238356
 20
45.79129530985725
 30
0.0
 42
0.1430575863769885
  0
VERTEX
  5
48D
  8
THROUGH_CUT
 10
21.85957768297088
 20
45.80395050000001
 30
0.0
  0
VERTEX
  5
48E
  8
THROUGH_CUT
 10
21.85957768297088
 20
47.5352505
 30
0.0
  0
VERTEX
  5
48F
  8
THROUGH_CUT
 10
0.859578
 20
47.535463
 30
0.0
  0
VERTEX
  5
490
  8
THROUGH_CUT
 10
0.859578
 20
43.53525
 30
0.0
  0
VERTEX
  5
491
  8
THROUGH_CUT
 10
4.459577682970869
 20
43.5352505
 30
0.0
 42
-0.3665708800271937
  0
VERTEX
  5
492
  8
THROUGH_CUT
 10
4.651965081977607
 20
43.72763647512959
 30
0.0
 42
-0.3901994148118065
  0
VERTEX
  5
493
  8
THROUGH_CUT
 10
4.85684968297087
 20
43.56816950000001
 30
0.0
 42
-0.0371224399400232
  0
VERTEX
  5
494
  8
THROUGH_CUT
 10
4.867686089238868
 20
43.44960392154359
 30
0.0
 42
-0.01456914188623
  0
VERTEX
  5
495
  8
THROUGH_CUT
 10
4.859577682970874
 20
42.7852505
 30
0.0
 42
-0.3783398070327861
  0
VERTEX
  5
496
  8
THROUGH_CUT
 10
4.67165182090232
 20
42.58939199547337
 30
0.0
 42
-0.3901994148117056
  0
VERTEX
  5
497
  8
THROUGH_CUT
 10
4.462305682970873
 20
42.75233150000001
 30
0.0
 42
-0.031012057909704
  0
VERTEX
  5
498
  8
THROUGH_CUT
 10
4.460601448241913
 20
42.76876280472248
 30
0.0
 42
0.0103344084538179
  0
VERTEX
  5
499
  8
THROUGH_CUT
 10
4.459577682970869
 20
42.7852505
 30
0.0
  0
VERTEX
  5
49A
  8
THROUGH_CUT
 10
0.859578
 20
42.78525
 30
0.0
  0
VERTEX
  5
49B
  8
THROUGH_CUT
 10
0.859578
 20
24.28525
 30
0.0
  0
VERTEX
  5
49C
  8
THROUGH_CUT
 10
4.459577682970869
 20
24.2852505
 30
0.0
 42
-0.3665708800272056
  0
VERTEX
  5
49D
  8
THROUGH_CUT
 10
4.651965081977608
 20
24.47763647512958
 30
0.0
 42
-0.3901994148117829
  0
VERTEX
  5
49E
  8
THROUGH_CUT
 10
4.85684968297087
 20
24.3181695
 30
0.0
 42
-0.0371224399400184
  0
VERTEX
  5
49F
  8
THROUGH_CUT
 10
4.867686089238864
 20
24.19960392154363
 30
0.0
 42
-0.0145691418862237
  0
VERTEX
  5
4A0
  8
THROUGH_CUT
 10
4.859577682970874
 20
23.5352505
 30
0.0
 42
-0.378339807032775
  0
VERTEX
  5
4A1
  8
THROUGH_CUT
 10
4.67165182090232
 20
23.33939199547337
 30
0.0
 42
-0.3901994148117208
  0
VERTEX
  5
4A2
  8
THROUGH_CUT
 10
4.462305682970873
 20
23.5023315
 30
0.0
 42
-0.0310120579097533
  0
VERTEX
  5
4A3
  8
THROUGH_CUT
 10
4.460601448241913
 20
23.51876280472248
 30
0.0
 42
0.0103344084538134
  0
VERTEX
  5
4A4
  8
THROUGH_CUT
 10
4.459577682970869
 20
23.5352505
 30
0.0
  0
VERTEX
  5
4A5
  8
THROUGH_CUT
 10
0.859578
 20
23.535251
 30
0.0
  0
VERTEX
  5
4A6
  8
THROUGH_CUT
 10
0.859578
 20
11.728598
 30
0.0
  0
VERTEX
  5
4A7
  8
THROUGH_CUT
 10
3.463764286129856
 20
4.971026438058139
 30
0.0
 42
0.1282682968915216
  0
VERTEX
  5
4A8
  8
THROUGH_CUT
 10
3.957722806617006
 20
4.325718973683998
 30
0.0
 42
0.2558295285415851
  0
VERTEX
  5
4A9
  8
THROUGH_CUT
 10
5.364628127211287
 20
4.096632062646521
 30
0.0
 42
0.1086601803480981
  0
VERTEX
  5
4AA
  8
THROUGH_CUT
 10
5.889287562700275
 20
4.422630974625509
 30
0.0
 42
0.1006906614660117
  0
VERTEX
  5
4AB
  8
THROUGH_CUT
 10
6.263753776191465
 20
4.97275914197669
 30
0.0
  0
VERTEX
  5
4AC
  8
THROUGH_CUT
 10
8.859577682970873
 20
11.7335505
 30
0.0
  0
SEQEND
  5
4AD
  8
THROUGH_CUT
  0
POLYLINE
  5
6B
  8
THROUGH_CUT
 66
     1
 10
0.0
 20
0.0
 30
0.0
  0
VERTEX
  5
4AE
  8
THROUGH_CUT
 10
69.964026
 20
17.136783
 30
0.0
  0
VERTEX
  5
4AF
  8
THROUGH_CUT
 10
70.208382
 20
16.898545
 30
0.0
  0
SEQEND
  5
4B0
  8
THROUGH_CUT
  0
POLYLINE
  5
6C
  8
THROUGH_CUT
 66
     1
 10
0.0
 20
0.0
 30
0.0
 70
     1
  0
VERTEX
  5
4B1
  8
THROUGH_CUT
 10
54.51607943698842
 20
21.43581298775632
 30
0.0
  0
VERTEX
  5
4B2
  8
THROUGH_CUT
 10
54.00088393316807
 20
17.87396800929193
 30
0.0
 42
0.3639670730940621
  0
VERTEX
  5
4B3
  8
THROUGH_CUT
 10
53.78337366703083
 20
17.71142611715771
 30
0.0
 42
0.3888845272024531
  0
VERTEX
  5
4B4
  8
THROUGH_CUT
 10
53.90968693316808
 20
17.48606600929193
 30
0.0
 42
0.0393363389317366
  0
VERTEX
  5
4B5
  8
THROUGH_CUT
 10
54.02142640796311
 20
17.45877786692973
 30
0.0
 42
0.0146673729191854
  0
VERTEX
  5
4B6
  8
THROUGH_CUT
 10
54.68594093316807
 20
17.37084700929193
 30
0.0
 42
0.378317576985788
  0
VERTEX
  5
4B7
  8
THROUGH_CUT
 10
54.90667782544671
 20
17.52880845630115
 30
0.0
 42
0.3901967186157184
  0
VERTEX
  5
4B8
  8
THROUGH_CUT
 10
54.77539093316807
 20
17.75931500929193
 30
0.0
 42
0.0310067404063425
  0
VERTEX
  5
4B9
  8
THROUGH_CUT
 10
54.75937303718811
 20
17.76335414207234
 30
0.0
 42
-0.0103326374664565
  0
VERTEX
  5
4BA
  8
THROUGH_CUT
 10
54.74320193316807
 20
17.76672800929193
 30
0.0
  0
VERTEX
  5
4BB
  8
THROUGH_CUT
 10
55.25837949464731
 20
21.32844451123866
 30
0.0
 42
-0.0639754771647543
  0
VERTEX
  5
4BC
  8
THROUGH_CUT
 10
69.96402635577407
 20
17.13678358130344
 30
0.0
  0
VERTEX
  5
4BD
  8
THROUGH_CUT
 10
75.14968601329528
 20
12.08095771768218
 30
0.0
 42
-0.1282682858040478
  0
VERTEX
  5
4BE
  8
THROUGH_CUT
 10
75.54824036550926
 20
11.37274063194533
 30
0.0
 42
-0.2558295265017611
  0
VERTEX
  5
4BF
  8
THROUGH_CUT
 10
75.20460297915926
 20
9.989347189633474
 30
0.0
 42
-0.1086601796307627
  0
VERTEX
  5
4C0
  8
THROUGH_CUT
 10
74.69828487124359
 20
9.635520172569759
 30
0.0
 42
-0.1006928091529787
  0
VERTEX
  5
4C1
  8
THROUGH_CUT
 10
74.04513396810421
 20
9.508038782155236
 30
0.0
  0
VERTEX
  5
4C2
  8
THROUGH_CUT
 10
66.80853748200869
 20
9.785395844336614
 30
0.0
  0
VERTEX
  5
4C3
  8
THROUGH_CUT
 10
65.4989310230051
 20
10.32650829697678
 30
0.0
 42
0.110497222914157
  0
VERTEX
  5
4C4
  8
THROUGH_CUT
 10
43.07385234614542
 20
13.90117781848957
 30
0.0
 42
0.0051172889201303
  0
VERTEX
  5
4C5
  8
THROUGH_CUT
 10
42.3672002321424
 20
13.85002537139772
 30
0.0
 42
-0.001705749738539
  0
VERTEX
  5
4C6
  8
THROUGH_CUT
 10
42.03951965562087
 20
13.82657959661595
 30
0.0
 42
0.4142136901718725
  0
VERTEX
  5
4C7
  8
THROUGH_CUT
 10
41.83395332078518
 20
13.99961864852452
 30
0.0
 42
0.4142136901718782
  0
VERTEX
  5
4C8
  8
THROUGH_CUT
 10
41.66091435857187
 20
13.79405223818632
 30
0.0
 42
-0.0018343581170136
  0
VERTEX
  5
4C9
  8
THROUGH_CUT
 10
41.67875050209839
 20
13.59484921652911
 30
0.0
 42
0.0144262516440052
  0
VERTEX
  5
4CA
  8
THROUGH_CUT
 10
38.71112302079244
 20
13.2425817495968
 30
0.0
 42
0.0015415427664397
  0
VERTEX
  5
4CB
  8
THROUGH_CUT
 10
38.6818296455734
 20
13.44041758500573
 30
0.0
 42
0.4142140786802426
  0
VERTEX
  5
4CC
  8
THROUGH_CUT
 10
38.46547208384037
 20
13.5997775953363
 30
0.0
 42
0.4142140786802505
  0
VERTEX
  5
4CD
  8
THROUGH_CUT
 10
38.30611245490139
 20
13.38341975268656
 30
0.0
 42
0.0053045841855544
  0
VERTEX
  5
4CE
  8
THROUGH_CUT
 10
36.54044125634414
 20
13.07010466486454
 30
0.0
 42
0.0117912148551288
  0
VERTEX
  5
4CF
  8
THROUGH_CUT
 10
34.49460930249996
 20
12.6438193135655
 30
0.0
 42
0.0482224373158819
  0
VERTEX
  5
4D0
  8
THROUGH_CUT
 10
25.01207086038371
 20
9.444687246567614
 30
0.0
 42
0.0482211893624423
  0
VERTEX
  5
4D1
  8
THROUGH_CUT
 10
16.31767589662276
 20
4.488313835613738
 30
0.0
  0
VERTEX
  5
4D2
  8
THROUGH_CUT
 10
15.17112788100377
 20
3.655625004110367
 30
0.0
  0
VERTEX
  5
4D3
  8
THROUGH_CUT
 10
8.200331697978193
 20
1.692309845586649
 30
0.0
 42
-0.1282682603550582
  0
VERTEX
  5
4D4
  8
THROUGH_CUT
 10
7.38771999190193
 20
1.70121068945857
 30
0.0
 42
-0.2558295265017644
  0
VERTEX
  5
4D5
  8
THROUGH_CUT
 10
6.361424603029722
 20
2.690443448856744
 30
0.0
 42
-0.1086601796307732
  0
VERTEX
  5
4D6
  8
THROUGH_CUT
 10
6.308123547110968
 20
3.305831161347301
 30
0.0
 42
-0.1006906924963424
  0
VERTEX
  5
4D7
  8
THROUGH_CUT
 10
6.524257895470816
 20
3.935237133228235
 30
0.0
  0
VERTEX
  5
4D8
  8
THROUGH_CUT
 10
10.38232254946954
 20
10.0640061344756
 30
0.0
 42
-0.0639750171406993
  0
VERTEX
  5
4D9
  8
THROUGH_CUT
 10
23.6978478730462
 20
17.58195273075524
 30
0.0
  0
VERTEX
  5
4DA
  8
THROUGH_CUT
 10
25.03255793316808
 20
14.23977600929193
 30
0.0
 42
0.363971019839467
  0
VERTEX
  5
4DB
  8
THROUGH_CUT
 10
24.92545746848261
 20
13.99025931850261
 30
0.0
 42
0.3888791636231135
  0
VERTEX
  5
4DC
  8
THROUGH_CUT
 10
25.14752793316808
 20
13.85824400929193
 30
0.0
 42
0.0392849933042688
  0
VERTEX
  5
4DD
  8
THROUGH_CUT
 10
25.25824344984212
 20
13.89055455835024
 30
0.0
 42
0.0147019781706541
  0
VERTEX
  5
4DE
  8
THROUGH_CUT
 10
25.87747393316808
 20
14.14645400929193
 30
0.0
 42
0.3783467240614742
  0
VERTEX
  5
4DF
  8
THROUGH_CUT
 10
25.98966810163374
 20
14.3936195502746
 30
0.0
 42
0.3902034222542485
  0
VERTEX
  5
4E0
  8
THROUGH_CUT
 10
25.76070093316807
 20
14.52760300929193
 30
0.0
 42
0.0310225557909784
  0
VERTEX
  5
4E1
  8
THROUGH_CUT
 10
25.7448098825711
 20
14.52309103589663
 30
0.0
 42
-0.0103379047577333
  0
VERTEX
  5
4E2
  8
THROUGH_CUT
 10
25.72911893316807
 20
14.51792600929193
 30
0.0
  0
VERTEX
  5
4E3
  8
THROUGH_CUT
 10
24.39433656465503
 20
17.86010487122687
 30
0.0
 42
-0.1284759626588368
  0
SEQEND
  5
4E4
  8
THROUGH_CUT
  0
POLYLINE
  5
6D
  8
THROUGH_CUT
 66
     1
 10
0.0
 20
0.0
 30
0.0
 70
     1
  0
VERTEX
  5
4E5
  8
THROUGH_CUT
 10
75.11598422140135
 20
45.61679012362811
 30
0.0
  0
VERTEX
  5
4E6
  8
THROUGH_CUT
 10
74.20676997423266
 20
42.13530291369337
 30
0.0
 42
0.3665669964421272
  0
VERTEX
  5
4E7
  8
THROUGH_CUT
 10
73.97201548628057
 20
41.99776880245213
 30
0.0
 42
0.3901999696594547
  0
VERTEX
  5
4E8
  8
THROUGH_CUT
 10
74.07453697423266
 20
41.75924091369336
 30
0.0
 42
0.0370982003140381
  0
VERTEX
  5
4E9
  8
THROUGH_CUT
 10
74.18661784426855
 20
41.71875475283065
 30
0.0
 42
0.0145763253625347
  0
VERTEX
  5
4EA
  8
THROUGH_CUT
 10
74.83141597423266
 20
41.55868791369336
 30
0.0
 42
0.3783600705741763
  0
VERTEX
  5
4EB
  8
THROUGH_CUT
 10
75.068405963043
 20
41.69101781490603
 30
0.0
 42
0.3901986062300131
  0
VERTEX
  5
4EC
  8
THROUGH_CUT
 10
74.96364697423265
 20
41.93474991369337
 30
0.0
 42
0.0310034263518755
  0
VERTEX
  5
4ED
  8
THROUGH_CUT
 10
74.94817969926491
 20
41.94055088898359
 30
0.0
 42
-0.0103315337246618
  0
VERTEX
  5
4EE
  8
THROUGH_CUT
 10
74.93248597423265
 20
41.94570791369337
 30
0.0
  0
VERTEX
  5
4EF
  8
THROUGH_CUT
 10
75.84168415190359
 20
45.42728105381426
 30
0.0
 42
-0.0640132956155406
  0
VERTEX
  5
4F0
  8
THROUGH_CUT
 10
89.99681530736308
 20
39.61639779524935
 30
0.0
  0
VERTEX
  5
4F1
  8
THROUGH_CUT
 10
94.57721205249487
 20
34.01905803334678
 30
0.0
 42
-0.1282682763855123
  0
VERTEX
  5
4F2
  8
THROUGH_CUT
 10
94.89429346697452
 20
33.27080913428738
 30
0.0
 42
-0.2558295265017744
  0
VERTEX
  5
4F3
  8
THROUGH_CUT
 10
94.39851206838716
 20
31.93437177609836
 30
0.0
 42
-0.1086601796307772
  0
VERTEX
  5
4F4
  8
THROUGH_CUT
 10
93.85589700501804
 20
31.63922443876227
 30
0.0
 42
-0.100690686648636
  0
VERTEX
  5
4F5
  8
THROUGH_CUT
 10
93.19259708093429
 20
31.58538006529488
 30
0.0
  0
VERTEX
  5
4F6
  8
THROUGH_CUT
 10
87.80318480504783
 20
32.40019964036281
 30
0.0
 42
-0.0950892996621419
  0
VERTEX
  5
4F7
  8
THROUGH_CUT
 10
87.77919337842383
 20
32.42479714467321
 30
0.0
 42
0.2676985004364099
  0
VERTEX
  5
4F8
  8
THROUGH_CUT
 10
87.65766840160215
 20
32.4856661607276
 30
0.0
 42
0.2363537304903469
  0
VERTEX
  5
4F9
  8
THROUGH_CUT
 10
87.53957441732511
 20
32.41758334448304
 30
0.0
 42
0.2361128185904448
  0
VERTEX
  5
4FA
  8
THROUGH_CUT
 10
87.52325415302381
 20
32.28212474777088
 30
0.0
 42
0.0781832071735431
  0
VERTEX
  5
4FB
  8
THROUGH_CUT
 10
87.52710587249017
 20
32.27507217600995
 30
0.0
 42
-0.1806731151703067
  0
VERTEX
  5
4FC
  8
THROUGH_CUT
 10
87.52946862105496
 20
32.26739155555909
 30
0.0
  0
VERTEX
  5
4FD
  8
THROUGH_CUT
 10
87.21088289314883
 20
31.74286710144243
 30
0.0
 42
0.0143682248743329
  0
VERTEX
  5
4FE
  8
THROUGH_CUT
 10
84.62336308031685
 20
33.21441551197892
 30
0.0
 42
0.0013347856833971
  0
VERTEX
  5
4FF
  8
THROUGH_CUT
 10
84.71719816788323
 20
33.39103704907217
 30
0.0
 42
0.4142141885872433
  0
VERTEX
  5
500
  8
THROUGH_CUT
 10
84.6376545915247
 20
33.6476943572201
 30
0.0
 42
0.4142141885872364
  0
VERTEX
  5
501
  8
THROUGH_CUT
 10
84.38099745344377
 20
33.56815023212117
 30
0.0
 42
0.0051554715670266
  0
VERTEX
  5
502
  8
THROUGH_CUT
 10
82.83111118938189
 20
34.33690182425526
 30
0.0
 42
0.0114525094233339
  0
VERTEX
  5
503
  8
THROUGH_CUT
 10
80.98746481701404
 20
35.1860730870996
 30
0.0
 42
0.0778516982810781
  0
VERTEX
  5
504
  8
THROUGH_CUT
 10
65.40328316800381
 20
39.22076676426976
 30
0.0
 42
0.0778506027132726
  0
VERTEX
  5
505
  8
THROUGH_CUT
 10
49.33161618525819
 20
38.29653894912278
 30
0.0
 42
0.0049653277385805
  0
VERTEX
  5
506
  8
THROUGH_CUT
 10
48.66158777753554
 20
38.144763391988
 30
0.0
 42
-0.0016550971557514
  0
VERTEX
  5
507
  8
THROUGH_CUT
 10
48.3616527685482
 20
38.07694643574665
 30
0.0
 42
0.9999783930572853
  0
VERTEX
  5
508
  8
THROUGH_CUT
 10
47.99262260732547
 20
37.98837571121123
 30
0.0
 42
0.0016008956584964
  0
VERTEX
  5
509
  8
THROUGH_CUT
 10
48.04003957494309
 20
37.79401533397643
 30
0.0
 42
0.014418911007889
  0
VERTEX
  5
50A
  8
THROUGH_CUT
 10
45.15958318033036
 20
37.00263419139235
 30
0.0
 42
-0.000507112529152
  0
VERTEX
  5
50B
  8
THROUGH_CUT
 10
45.10106006063693
 20
37.19387977974852
 30
0.0
 42
0.3375860203350982
  0
VERTEX
  5
50C
  8
THROUGH_CUT
 10
44.91743908420769
 20
37.3324880428298
 30
0.0
 42
0.5131514385611831
  0
VERTEX
  5
50D
  8
THROUGH_CUT
 10
44.7387638280051
 20
37.08116425451761
 30
0.0
 42
0.0058272451271557
  0
VERTEX
  5
50E
  8
THROUGH_CUT
 10
43.05883250197309
 20
36.51380365901133
 30
0.0
 42
0.016822944166454
  0
VERTEX
  5
50F
  8
THROUGH_CUT
 10
40.04416147686766
 20
35.35542987809714
 30
0.0
 42
0.0129483601743145
  0
VERTEX
  5
510
  8
THROUGH_CUT
 10
37.5923702952047
 20
34.24168314347102
 30
0.0
 42
0.0129467369917869
  0
VERTEX
  5
511
  8
THROUGH_CUT
 10
35.20121864744428
 20
33.00235936032692
 30
0.0
  0
VERTEX
  5
512
  8
THROUGH_CUT
 10
34.03301792685042
 20
32.33814195711277
 30
0.0
  0
VERTEX
  5
513
  8
THROUGH_CUT
 10
26.88665009857748
 20
31.16509474580841
 30
0.0
 42
-0.128268293605727
  0
VERTEX
  5
514
  8
THROUGH_CUT
 10
26.0801088673962
 20
31.26463469103405
 30
0.0
 42
-0.2558295265017655
  0
VERTEX
  5
515
  8
THROUGH_CUT
 10
25.17063275565494
 20
32.36223080247034
 30
0.0
 42
-0.1086601796307701
  0
VERTEX
  5
516
  8
THROUGH_CUT
 10
25.18634751100723
 20
32.97972250103013
 30
0.0
 42
-0.1006906648503966
  0
VERTEX
  5
517
  8
THROUGH_CUT
 10
25.47137886847084
 20
33.58107364262639
 30
0.0
  0
VERTEX
  5
518
  8
THROUGH_CUT
 10
29.98936286994967
 20
39.2409568406438
 30
0.0
 42
-0.063968874726849
  0
VERTEX
  5
519
  8
THROUGH_CUT
 10
44.06045502719529
 20
45.22562740353221
 30
0.0
  0
VERTEX
  5
51A
  8
THROUGH_CUT
 10
45.01383797423267
 20
41.75577691369337
 30
0.0
 42
0.3639729846781165
  0
VERTEX
  5
51B
  8
THROUGH_CUT
 10
44.87956567404643
 20
41.51976799739464
 30
0.0
 42
0.3888807870026057
  0
VERTEX
  5
51C
  8
THROUGH_CUT
 10
45.08552097423267
 20
41.36379991369337
 30
0.0
 42
0.0392911754001235
  0
VERTEX
  5
51D
  8
THROUGH_CUT
 10
45.19911703475172
 20
41.38355207920793
 30
0.0
 42
0.0147008724353237
  0
VERTEX
  5
51E
  8
THROUGH_CUT
 10
45.84296897423268
 20
41.56876491369336
 30
0.0
 42
0.3783352728171132
  0
VERTEX
  5
51F
  8
THROUGH_CUT
 10
45.98203863440202
 20
41.801870265597
 30
0.0
 42
0.3902028013441318
  0
VERTEX
  5
520
  8
THROUGH_CUT
 10
45.76945697423267
 20
41.96056391369336
 30
0.0
 42
0.0310223809793936
  0
VERTEX
  5
521
  8
THROUGH_CUT
 10
45.7531624893403
 20
41.95785354707499
 30
0.0
 42
-0.0103378465365891
  0
VERTEX
  5
522
  8
THROUGH_CUT
 10
45.73699397423267
 20
41.95447191369337
 30
0.0
  0
VERTEX
  5
523
  8
THROUGH_CUT
 10
44.78363508572853
 20
45.42431487294629
 30
0.0
 42
-0.1284651892218129
  0
SEQEND
  5
524
  8
THROUGH_CUT
  0
POLYLINE
  5
6E
  8
THROUGH_CUT
 66
     1
 10
0.0
 20
0.0
 30
0.0
 70
     1
  0
VERTEX
  5
525
  8
THROUGH_CUT
 10
46.00571926455235
 20
8.936191182237579
 30
0.0
 42
0.0072107587634131
  0
VERTEX
  5
526
  8
THROUGH_CUT
 10
47.49234824610439
 20
8.914724501071936
 30
0.0
  0
VERTEX
  5
527
  8
THROUGH_CUT
 10
48.99211175045566
 20
8.914713999993872
 30
0.0
 42
-0.0034227606007967
  0
VERTEX
  5
528
  8
THROUGH_CUT
 10
48.99211000000012
 20
8.464713784451838
 30
0.0
 42
0.4142135623731126
  0
VERTEX
  5
529
  8
THROUGH_CUT
 10
49.18211021554816
 20
8.274714000000124
 30
0.0
 42
0.4142135623731033
  0
VERTEX
  5
52A
  8
THROUGH_CUT
 10
49.37210999999988
 20
8.464714215548163
 30
0.0
  0
VERTEX
  5
52B
  8
THROUGH_CUT
 10
82.83319547500636
 20
8.464747748365426
 30
0.0
  0
VERTEX
  5
52C
  8
THROUGH_CUT
 10
85.20940039504279
 20
8.464750129664305
 30
0.0
 42
-0.1427670625808183
  0
VERTEX
  5
52D
  8
THROUGH_CUT
 10
85.22348776561478
 20
8.454420818226728
 30
0.0
 42
0.0765086804423283
  0
VERTEX
  5
52E
  8
THROUGH_CUT
 10
85.23610639504278
 20
8.442341129664303
 30
0.0
 42
0.2679475768046021
  0
VERTEX
  5
52F
  8
THROUGH_CUT
 10
85.43534567643201
 20
8.424910230390955
 30
0.0
 42
0.26794833292037
  0
VERTEX
  5
530
  8
THROUGH_CUT
 10
85.55006139504277
 20
8.588740129664304
 30
0.0
 42
0.1819589123993691
  0
VERTEX
  5
531
  8
THROUGH_CUT
 10
85.5203297496378
 20
8.695047623262742
 30
0.0
 42
-0.0710244882053251
  0
VERTEX
  5
532
  8
THROUGH_CUT
 10
85.49224339504278
 20
8.747593129664304
 30
0.0
  0
VERTEX
  5
533
  8
THROUGH_CUT
 10
85.49224319752139
 20
22.96471906483215
 30
0.0
  0
VERTEX
  5
534
  8
THROUGH_CUT
 10
88.09230091529898
 20
29.72388382602315
 30
0.0
 42
-0.1006906953649281
  0
VERTEX
  5
535
  8
THROUGH_CUT
 10
88.46711167329144
 20
30.27377724632423
 30
0.0
 42
-0.108660179630768
  0
VERTEX
  5
536
  8
THROUGH_CUT
 10
88.99197539687195
 20
30.59944745372401
 30
0.0
 42
-0.2558295265017491
  0
VERTEX
  5
537
  8
THROUGH_CUT
 10
90.39873666458209
 20
30.36947913853481
 30
0.0
 42
-0.1282681426057039
  0
VERTEX
  5
538
  8
THROUGH_CUT
 10
90.89229116858931
 20
29.72386220922131
 30
0.0
  0
VERTEX
  5
539
  8
THROUGH_CUT
 10
93.49223669752139
 20
22.96470206483215
 30
0.0
  0
VERTEX
  5
53A
  8
THROUGH_CUT
 10
93.49224339504278
 20
21.7334501296643
 30
0.0
 42
-0.143058627175503
  0
VERTEX
  5
53B
  8
THROUGH_CUT
 10
93.48290837263335
 20
21.7207949325953
 30
0.0
 42
0.0750617181916302
  0
VERTEX
  5
53C
  8
THROUGH_CUT
 10
93.4719623950428
 20
21.70950412966431
 30
0.0
 42
0.2532340495763916
  0
VERTEX
  5
53D
  8
THROUGH_CUT
 10
93.44959166371888
 20
21.53003477101358
 30
0.0
 42
0.2532310404645838
  0
VERTEX
  5
53E
  8
THROUGH_CUT
 10
93.58760239504278
 20
21.41314412966431
 30
0.0
 42
0.2018735615043351
  0
VERTEX
  5
53F
  8
THROUGH_CUT
 10
93.7038792284228
 20
21.43571108662814
 30
0.0
 42
-0.0597507938202493
  0
VERTEX
  5
540
  8
THROUGH_CUT
 10
93.76094339504277
 20
21.46475012966431
 30
0.0
  0
VERTEX
  5
541
  8
THROUGH_CUT
 10
95.49224339504278
 20
21.46475012966431
 30
0.0
  0
VERTEX
  5
542
  8
THROUGH_CUT
 10
95.492243
 20
0.46476
 30
0.0
  0
VERTEX
  5
543
  8
THROUGH_CUT
 10
91.492243
 20
0.464758
 30
0.0
  0
VERTEX
  5
544
  8
THROUGH_CUT
 10
91.49224339504278
 20
4.064750129664304
 30
0.0
 42
-0.0103344084537332
  0
VERTEX
  5
545
  8
THROUGH_CUT
 10
91.5087310903203
 20
4.065773894935345
 30
0.0
 42
0.031012057909651
  0
VERTEX
  5
546
  8
THROUGH_CUT
 10
91.52516239504277
 20
4.067478129664304
 30
0.0
 42
0.390199414811795
  0
VERTEX
  5
547
  8
THROUGH_CUT
 10
91.68810189956943
 20
4.27682426759574
 30
0.0
 42
0.3783398070328151
  0
VERTEX
  5
548
  8
THROUGH_CUT
 10
91.49224339504278
 20
4.464750129664304
 30
0.0
 42
0.014569141886197
  0
VERTEX
  5
549
  8
THROUGH_CUT
 10
90.82788997349898
 20
4.472858535932282
 30
0.0
 42
0.0371224399400307
  0
VERTEX
  5
54A
  8
THROUGH_CUT
 10
90.70932439504278
 20
4.462022129664304
 30
0.0
 42
0.3901994148118177
  0
VERTEX
  5
54B
  8
THROUGH_CUT
 10
90.5498574199132
 20
4.257137528671025
 30
0.0
 42
0.3665708800272743
  0
VERTEX
  5
54C
  8
THROUGH_CUT
 10
90.74224339504278
 20
4.064750129664304
 30
0.0
  0
VERTEX
  5
54D
  8
THROUGH_CUT
 10
90.742243
 20
0.464758
 30
0.0
  0
VERTEX
  5
54E
  8
THROUGH_CUT
 10
72.242243
 20
0.464749
 30
0.0
  0
VERTEX
  5
54F
  8
THROUGH_CUT
 10
72.24224339504278
 20
4.064750129664304
 30
0.0
 42
-0.0103344084537332
  0
VERTEX
  5
550
  8
THROUGH_CUT
 10
72.2587310903203
 20
4.065773894935345
 30
0.0
 42
0.031012057909651
  0
VERTEX
  5
551
  8
THROUGH_CUT
 10
72.27516239504277
 20
4.067478129664304
 30
0.0
 42
0.390199414811795
  0
VERTEX
  5
552
  8
THROUGH_CUT
 10
72.43810189956943
 20
4.27682426759574
 30
0.0
 42
0.3783398070328151
  0
VERTEX
  5
553
  8
THROUGH_CUT
 10
72.24224339504278
 20
4.464750129664304
 30
0.0
 42
0.014569141886197
  0
VERTEX
  5
554
  8
THROUGH_CUT
 10
71.57788997349898
 20
4.472858535932282
 30
0.0
 42
0.0371224399400307
  0
VERTEX
  5
555
  8
THROUGH_CUT
 10
71.45932439504278
 20
4.462022129664304
 30
0.0
 42
0.3901994148118177
  0
VERTEX
  5
556
  8
THROUGH_CUT
 10
71.2998574199132
 20
4.257137528671025
 30
0.0
 42
0.3665708800272743
  0
VERTEX
  5
557
  8
THROUGH_CUT
 10
71.49224339504278
 20
4.064750129664304
 30
0.0
  0
VERTEX
  5
558
  8
THROUGH_CUT
 10
71.492243
 20
0.464748
 30
0.0
  0
VERTEX
  5
559
  8
THROUGH_CUT
 10
47.867243
 20
0.464737
 30
0.0
  0
VERTEX
  5
55A
  8
THROUGH_CUT
 10
47.86724339504278
 20
4.064750129664304
 30
0.0
 42
-0.0103344084538091
  0
VERTEX
  5
55B
  8
THROUGH_CUT
 10
47.8837310903203
 20
4.065773894935345
 30
0.0
 42
0.0310120579097848
  0
VERTEX
  5
55C
  8
THROUGH_CUT
 10
47.90016239504279
 20
4.067478129664304
 30
0.0
 42
0.3901994148117822
  0
VERTEX
  5
55D
  8
THROUGH_CUT
 10
48.06310189956944
 20
4.27682426759575
 30
0.0
 42
0.3783398070327842
  0
VERTEX
  5
55E
  8
THROUGH_CUT
 10
47.86724339504278
 20
4.464750129664304
 30
0.0
 42
0.0145691418861874
  0
VERTEX
  5
55F
  8
THROUGH_CUT
 10
47.20288997349889
 20
4.472858535932277
 30
0.0
 42
0.0371224399400465
  0
VERTEX
  5
560
  8
THROUGH_CUT
 10
47.08432439504278
 20
4.462022129664304
 30
0.0
 42
0.3901994148117615
  0
VERTEX
  5
561
  8
THROUGH_CUT
 10
46.9248574199132
 20
4.25713752867102
 30
0.0
 42
0.3665708800272702
  0
VERTEX
  5
562
  8
THROUGH_CUT
 10
47.11724339504278
 20
4.064750129664304
 30
0.0
  0
VERTEX
  5
563
  8
THROUGH_CUT
 10
47.11741381431288
 20
0.4659104301829515
 30
0.0
 42
-0.0639750609525135
  0
VERTEX
  5
564
  8
THROUGH_CUT
 10
31.96309866372315
 20
2.509337045096558
 30
0.0
  0
VERTEX
  5
565
  8
THROUGH_CUT
 10
26.1070775386061
 20
6.770772320260809
 30
0.0
 42
-0.1006906618460011
  0
VERTEX
  5
566
  8
THROUGH_CUT
 10
25.67295881842823
 20
7.275160040249336
 30
0.0
 42
-0.1086601803481042
  0
VERTEX
  5
567
  8
THROUGH_CUT
 10
25.49426479622683
 20
7.866439450013448
 30
0.0
 42
-0.2558295285415836
  0
VERTEX
  5
568
  8
THROUGH_CUT
 10
26.08057146189094
 20
9.165716398280413
 30
0.0
 42
-0.1282701453236829
  0
VERTEX
  5
569
  8
THROUGH_CUT
 10
26.83194699580361
 20
9.475307406320637
 30
0.0
  0
VERTEX
  5
56A
  8
THROUGH_CUT
 10
34.03372378617668
 20
10.23672447670098
 30
0.0
  0
VERTEX
  5
56B
  8
THROUGH_CUT
 10
35.33615221732427
 20
9.905703626494772
 30
0.0
 42
0.0129477554746232
  0
VERTEX
  5
56C
  8
THROUGH_CUT
 10
37.97019956830962
 20
9.344101485635846
 30
0.0
 42
0.0129493790395735
  0
VERTEX
  5
56D
  8
THROUGH_CUT
 10
40.62945479884807
 20
8.919665539134336
 30
0.0
 42
0.0168242663500039
  0
VERTEX
  5
56E
  8
THROUGH_CUT
 10
43.84330532895007
 20
8.601328836646005
 30
0.0
 42
0.0058277037299969
  0
VERTEX
  5
56F
  8
THROUGH_CUT
 10
45.61293589276591
 20
8.498698298083815
 30
0.0
 42
0.4142138179706918
  0
VERTEX
  5
570
  8
THROUGH_CUT
 10
45.79667586763529
 20
8.302637887390109
 30
0.0
 42
0.4142138179706592
  0
VERTEX
  5
571
  8
THROUGH_CUT
 10
45.99273611798555
 20
8.486378033354407
 30
0.0
 42
-0.0001135149948654
  0
SEQEND
  5
572
  8
THROUGH_CUT
  0
POLYLINE
  5
6F
  8
THROUGH_CUT
 66
     1
 10
0.0
 20
0.0
 30
0.0
 70
     1
  0
VERTEX
  5
573
  8
THROUGH_CUT
 10
35.09664313469498
 20
23.35674534784513
 30
0.0
 42
-0.0003116631189965
  0
VERTEX
  5
574
  8
THROUGH_CUT
 10
34.99698068208406
 20
23.79556966592193
 30
0.0
 42
1.0
  0
VERTEX
  5
575
  8
THROUGH_CUT
 10
34.62641731791594
 20
23.71141033407807
 30
0.0
  0
VERTEX
  5
576
  8
THROUGH_CUT
 10
24.56435023341929
 20
21.42619324778925
 30
0.0
  0
VERTEX
  5
577
  8
THROUGH_CUT
 10
17.39719362888824
 20
22.46470187297477
 30
0.0
 42
-0.1282681778720571
  0
VERTEX
  5
578
  8
THROUGH_CUT
 10
16.65830502680783
 20
22.80302282390734
 30
0.0
 42
-0.2558295285415838
  0
VERTEX
  5
579
  8
THROUGH_CUT
 10
16.12250548416267
 20
24.12392500139964
 30
0.0
 42
-0.1086601803480986
  0
VERTEX
  5
57A
  8
THROUGH_CUT
 10
16.32385282948104
 20
24.70787903655799
 30
0.0
 42
-0.1006906730356126
  0
VERTEX
  5
57B
  8
THROUGH_CUT
 10
16.77708663039411
 20
25.19516259186768
 30
0.0
  0
VERTEX
  5
57C
  8
THROUGH_CUT
 10
22.792585
 20
29.22753
 30
0.0
  0
VERTEX
  5
57D
  8
THROUGH_CUT
 10
34.322259
 20
31.846059
 30
0.0
  0
VERTEX
  5
57E
  8
THROUGH_CUT
 10
35.11951998341928
 20
28.33550749778925
 30
0.0
 42
0.3639743525362217
  0
VERTEX
  5
57F
  8
THROUGH_CUT
 10
34.97480518963489
 20
28.10575276544888
 30
0.0
 42
0.38888178964158
  0
VERTEX
  5
580
  8
THROUGH_CUT
 10
35.17356498341928
 20
27.94071149778925
 30
0.0
 42
0.0392974514414429
  0
VERTEX
  5
581
  8
THROUGH_CUT
 10
35.2879173820747
 20
27.95535310914886
 30
0.0
 42
0.0146981460143086
  0
VERTEX
  5
582
  8
THROUGH_CUT
 10
35.93952798341927
 20
28.11156749778926
 30
0.0
 42
0.3783376443641835
  0
VERTEX
  5
583
  8
THROUGH_CUT
 10
36.08889767842089
 20
28.33820710381151
 30
0.0
 42
0.3901998593760212
  0
VERTEX
  5
584
  8
THROUGH_CUT
 10
35.88363798341928
 20
28.50626349778924
 30
0.0
 42
0.0310097798562985
  0
VERTEX
  5
585
  8
THROUGH_CUT
 10
35.86723662317656
 20
28.50428601656677
 30
0.0
 42
-0.0103336497509749
  0
VERTEX
  5
586
  8
THROUGH_CUT
 10
35.85093098341929
 20
28.50163249778925
 30
0.0
  0
VERTEX
  5
587
  8
THROUGH_CUT
 10
35.05623721521058
 20
32.01162050804508
 30
0.0
 42
-0.1285198994250717
  0
VERTEX
  5
588
  8
THROUGH_CUT
 10
65.37880719471234
 20
30.83991378050519
 30
0.0
  0
VERTEX
  5
589
  8
THROUGH_CUT
 10
64.30010898341928
 20
27.40666349778924
 30
0.0
 42
0.3639685190638632
  0
VERTEX
  5
58A
  8
THROUGH_CUT
 10
64.05990704682634
 20
27.28004561907817
 30
0.0
 42
0.3888783519735515
  0
VERTEX
  5
58B
  8
THROUGH_CUT
 10
64.14951498341927
 20
27.03773749778924
 30
0.0
 42
0.0393228657788387
  0
VERTEX
  5
58C
  8
THROUGH_CUT
 10
64.25578248223945
 20
26.99328179318139
 30
0.0
 42
0.0146894653156684
  0
VERTEX
  5
58D
  8
THROUGH_CUT
 10
64.89836498341927
 20
26.80276349778925
 30
0.0
 42
0.3783185274870002
  0
VERTEX
  5
58E
  8
THROUGH_CUT
 10
65.14104156760807
 20
26.92436001298769
 30
0.0
 42
0.3901992936289866
  0
VERTEX
  5
58F
  8
THROUGH_CUT
 10
65.04731598341928
 20
27.17252449778925
 30
0.0
 42
0.0310078577949032
  0
VERTEX
  5
590
  8
THROUGH_CUT
 10
65.03212403737598
 20
27.17901262467732
 30
0.0
 42
-0.0103330096110067
  0
VERTEX
  5
591
  8
THROUGH_CUT
 10
65.01667698341927
 20
27.18486749778924
 30
0.0
  0
VERTEX
  5
592
  8
THROUGH_CUT
 10
66.08546197488218
 20
30.62084939518014
 30
0.0
  0
VERTEX
  5
593
  8
THROUGH_CUT
 10
66.31394166535014
 20
30.54802293298445
 30
0.0
  0
VERTEX
  5
594
  8
THROUGH_CUT
 10
66.54210027152422
 20
30.47429290973071
 30
0.0
  0
VERTEX
  5
595
  8
THROUGH_CUT
 10
66.7699351972089
 20
30.39966053047259
 30
0.0
  0
VERTEX
  5
596
  8
THROUGH_CUT
 10
66.9974438462086
 20
30.32412700026373
 30
0.0
  0
VERTEX
  5
597
  8
THROUGH_CUT
 10
67.22462362232775
 20
30.24769352415778
 30
0.0
  0
VERTEX
  5
598
  8
THROUGH_CUT
 10
67.45147192937084
 20
30.1703613072084
 30
0.0
  0
VERTEX
  5
599
  8
THROUGH_CUT
 10
67.6779861711423
 20
30.09213155446923
 30
0.0
  0
VERTEX
  5
59A
  8
THROUGH_CUT
 10
67.90416375144656
 20
30.01300547099393
 30
0.0
  0
VERTEX
  5
59B
  8
THROUGH_CUT
 10
68.1300020740881
 20
29.93298426183615
 30
0.0
  0
VERTEX
  5
59C
  8
THROUGH_CUT
 10
68.35549854287135
 20
29.85206913204954
 30
0.0
  0
VERTEX
  5
59D
  8
THROUGH_CUT
 10
68.58065056160075
 20
29.77026128668775
 30
0.0
  0
VERTEX
  5
59E
  8
THROUGH_CUT
 10
68.80545553408075
 20
29.68756193080443
 30
0.0
  0
VERTEX
  5
59F
  8
THROUGH_CUT
 10
69.0299108641158
 20
29.60397226945323
 30
0.0
  0
VERTEX
  5
5A0
  8
THROUGH_CUT
 10
69.25401395551039
 20
29.51949350768782
 30
0.0
  0
VERTEX
  5
5A1
  8
THROUGH_CUT
 10
69.47776221206891
 20
29.43412685056182
 30
0.0
  0
VERTEX
  5
5A2
  8
THROUGH_CUT
 10
69.70115303759584
 20
29.34787350312891
 30
0.0
  0
VERTEX
  5
5A3
  8
THROUGH_CUT
 10
69.92418383589562
 20
29.26073467044272
 30
0.0
  0
VERTEX
  5
5A4
  8
THROUGH_CUT
 10
70.14685201077269
 20
29.17271155755692
 30
0.0
  0
VERTEX
  5
5A5
  8
THROUGH_CUT
 10
70.3691549660315
 20
29.08380536952514
 30
0.0
  0
VERTEX
  5
5A6
  8
THROUGH_CUT
 10
70.59109010547651
 20
28.99401731140106
 30
0.0
  0
VERTEX
  5
5A7
  8
THROUGH_CUT
 10
70.81265483291216
 20
28.9033485882383
 30
0.0
  0
VERTEX
  5
5A8
  8
THROUGH_CUT
 10
71.0338465521429
 20
28.81180040509053
 30
0.0
  0
VERTEX
  5
5A9
  8
THROUGH_CUT
 10
71.25466266697316
 20
28.71937396701139
 30
0.0
  0
VERTEX
  5
5AA
  8
THROUGH_CUT
 10
71.47510058120741
 20
28.62607047905454
 30
0.0
  0
VERTEX
  5
5AB
  8
THROUGH_CUT
 10
71.6951576986501
 20
28.53189114627364
 30
0.0
  0
VERTEX
  5
5AC
  8
THROUGH_CUT
 10
71.91483142310565
 20
28.43683717372232
 30
0.0
  0
VERTEX
  5
5AD
  8
THROUGH_CUT
 10
72.13411915837855
 20
28.34090976645425
 30
0.0
  0
VERTEX
  5
5AE
  8
THROUGH_CUT
 10
72.35301830827322
 20
28.24411012952307
 30
0.0
  0
VERTEX
  5
5AF
  8
THROUGH_CUT
 10
72.57152627659411
 20
28.14643946798243
 30
0.0
  0
VERTEX
  5
5B0
  8
THROUGH_CUT
 10
72.78964046714569
 20
28.04789898688598
 30
0.0
  0
VERTEX
  5
5B1
  8
THROUGH_CUT
 10
73.00735828373237
 20
27.94848989128739
 30
0.0
  0
VERTEX
  5
5B2
  8
THROUGH_CUT
 10
73.22467713015863
 20
27.84821338624029
 30
0.0
  0
VERTEX
  5
5B3
  8
THROUGH_CUT
 10
73.4415944102289
 20
27.74707067679835
 30
0.0
  0
VERTEX
  5
5B4
  8
THROUGH_CUT
 10
73.65810752774762
 20
27.6450629680152
 30
0.0
  0
VERTEX
  5
5B5
  8
THROUGH_CUT
 10
73.87421388651924
 20
27.54219146494451
 30
0.0
  0
VERTEX
  5
5B6
  8
THROUGH_CUT
 10
74.08991089034825
 20
27.43845737263992
 30
0.0
  0
VERTEX
  5
5B7
  8
THROUGH_CUT
 10
74.30519594303905
 20
27.33386189615508
 30
0.0
  0
VERTEX
  5
5B8
  8
THROUGH_CUT
 10
74.52006644839612
 20
27.22840624054365
 30
0.0
  0
VERTEX
  5
5B9
  8
THROUGH_CUT
 10
74.73451981022389
 20
27.12209161085928
 30
0.0
  0
VERTEX
  5
5BA
  8
THROUGH_CUT
 10
74.9485534323268
 20
27.01491921215562
 30
0.0
  0
VERTEX
  5
5BB
  8
THROUGH_CUT
 10
75.16216471850932
 20
26.90689024948632
 30
0.0
  0
VERTEX
  5
5BC
  8
THROUGH_CUT
 10
75.37535107257588
 20
26.79800592790502
 30
0.0
  0
VERTEX
  5
5BD
  8
THROUGH_CUT
 10
75.58810989833094
 20
26.68826745246539
 30
0.0
  0
VERTEX
  5
5BE
  8
THROUGH_CUT
 10
75.80043859957895
 20
26.57767602822107
 30
0.0
  0
VERTEX
  5
5BF
  8
THROUGH_CUT
 10
76.01233458012436
 20
26.46623286022572
 30
0.0
  0
VERTEX
  5
5C0
  8
THROUGH_CUT
 10
76.22379524377158
 20
26.35393915353298
 30
0.0
  0
VERTEX
  5
5C1
  8
THROUGH_CUT
 10
76.43481799432509
 20
26.24079611319652
 30
0.0
  0
VERTEX
  5
5C2
  8
THROUGH_CUT
 10
76.64540023558934
 20
26.12680494426997
 30
0.0
  0
VERTEX
  5
5C3
  8
THROUGH_CUT
 10
76.85553937136876
 20
26.01196685180699
 30
0.0
  0
VERTEX
  5
5C4
  8
THROUGH_CUT
 10
77.06523280546783
 20
25.89628304086123
 30
0.0
  0
VERTEX
  5
5C5
  8
THROUGH_CUT
 10
77.27447794169098
 20
25.77975471648635
 30
0.0
  0
VERTEX
  5
5C6
  8
THROUGH_CUT
 10
77.48327218384264
 20
25.66238308373599
 30
0.0
  0
VERTEX
  5
5C7
  8
THROUGH_CUT
 10
77.69161293572728
 20
25.5441693476638
 30
0.0
  0
VERTEX
  5
5C8
  8
THROUGH_CUT
 10
77.89949760114935
 20
25.42511471332345
 30
0.0
  0
VERTEX
  5
5C9
  8
THROUGH_CUT
 10
78.10692358391329
 20
25.30522038576856
 30
0.0
  0
VERTEX
  5
5CA
  8
THROUGH_CUT
 10
78.31388828782354
 20
25.18448757005282
 30
0.0
  0
VERTEX
  5
5CB
  8
THROUGH_CUT
 10
78.52038911668457
 20
25.06291747122985
 30
0.0
  0
VERTEX
  5
5CC
  8
THROUGH_CUT
 10
78.72642347430082
 20
24.94051129435331
 30
0.0
  0
VERTEX
  5
5CD
  8
THROUGH_CUT
 10
78.9319887644767
 20
24.81727024447685
 30
0.0
  0
VERTEX
  5
5CE
  8
THROUGH_CUT
 10
79.13708239101672
 20
24.69319552665413
 30
0.0
  0
VERTEX
  5
5CF
  8
THROUGH_CUT
 10
79.34170175772526
 20
24.5682883459388
 30
0.0
  0
VERTEX
  5
5D0
  8
THROUGH_CUT
 10
79.54584426840684
 20
24.4425499073845
 30
0.0
  0
VERTEX
  5
5D1
  8
THROUGH_CUT
 10
79.74950732686585
 20
24.31598141604488
 30
0.0
  0
VERTEX
  5
5D2
  8
THROUGH_CUT
 10
79.95268833690679
 20
24.18858407697362
 30
0.0
  0
VERTEX
  5
5D3
  8
THROUGH_CUT
 10
84.28645940096146
 20
18.38629698532964
 30
0.0
 42
-0.1282682844375376
  0
VERTEX
  5
5D4
  8
THROUGH_CUT
 10
84.56971629277997
 20
17.62459980179526
 30
0.0
 42
-0.2558295265017703
  0
VERTEX
  5
5D5
  8
THROUGH_CUT
 10
84.01458673629652
 20
16.31170399845735
 30
0.0
 42
-0.1086601796307857
  0
VERTEX
  5
5D6
  8
THROUGH_CUT
 10
83.45929932451219
 20
16.04115094573752
 30
0.0
 42
-0.1006906810230429
  0
VERTEX
  5
5D7
  8
THROUGH_CUT
 10
82.7942535857764
 20
16.01706304364717
 30
0.0
  0
VERTEX
  5
5D8
  8
THROUGH_CUT
 10
77.44713864056556
 20
17.07232240412669
 30
0.0
 42
-0.0950904123613572
  0
VERTEX
  5
5D9
  8
THROUGH_CUT
 10
77.42427315164586
 20
17.09796942039824
 30
0.0
 42
0.2676986973951418
  0
VERTEX
  5
5DA
  8
THROUGH_CUT
 10
77.30559757177338
 20
17.16421944382973
 30
0.0
 42
0.2363537304903981
  0
VERTEX
  5
5DB
  8
THROUGH_CUT
 10
77.18457414917931
 20
17.10149470894444
 30
0.0
 42
0.2361128185903315
  0
VERTEX
  5
5DC
  8
THROUGH_CUT
 10
77.16220369708657
 20
16.96690441661403
 30
0.0
 42
0.0781836694522566
  0
VERTEX
  5
5DD
  8
THROUGH_CUT
 10
77.1657356561541
 20
16.95968649406217
 30
0.0
 42
-0.1806745385754367
  0
VERTEX
  5
5DE
  8
THROUGH_CUT
 10
77.16775201221881
 20
16.95190784064145
 30
0.0
  0
VERTEX
  5
5DF
  8
THROUGH_CUT
 10
76.82586915361442
 20
16.44203067133747
 30
0.0
 42
0.014368268516574
  0
VERTEX
  5
5E0
  8
THROUGH_CUT
 10
74.30692438508001
 20
18.02806664177452
 30
0.0
 42
0.0010756923192652
  0
VERTEX
  5
5E1
  8
THROUGH_CUT
 10
74.4085825984498
 20
18.20030310047636
 30
0.0
 42
0.9999996509342085
  0
VERTEX
  5
5E2
  8
THROUGH_CUT
 10
74.08071546860641
 20
18.39240501397086
 30
0.0
 42
0.0051559074799594
  0
VERTEX
  5
5E3
  8
THROUGH_CUT
 10
72.56678992207618
 20
19.22979267859758
 30
0.0
 42
0.0114534739085759
  0
VERTEX
  5
5E4
  8
THROUGH_CUT
 10
70.76305807569494
 20
20.16077725559729
 30
0.0
 42
0.0778585198223484
  0
VERTEX
  5
5E5
  8
THROUGH_CUT
 10
55.37522900684259
 20
24.88994386872595
 30
0.0
 42
0.0778574239912157
  0
VERTEX
  5
5E6
  8
THROUGH_CUT
 10
39.27814436821266
 20
24.68653889368911
 30
0.0
 42
0.0049657434679951
  0
VERTEX
  5
5E7
  8
THROUGH_CUT
 10
38.60198764566336
 20
24.5649177420065
 30
0.0
 42
-0.0016552357291933
  0
VERTEX
  5
5E8
  8
THROUGH_CUT
 10
38.29975478800035
 20
24.51090001212397
 30
0.0
 42
0.4142135623731009
  0
VERTEX
  5
5E9
  8
THROUGH_CUT
 10
38.07716398787603
 20
24.66141278800036
 30
0.0
 42
0.4142135623730922
  0
VERTEX
  5
5EA
  8
THROUGH_CUT
 10
37.92665121199965
 20
24.43882198787603
 30
0.0
 42
0.001609460733429
  0
VERTEX
  5
5EB
  8
THROUGH_CUT
 10
38.01361085818304
 20
23.99730391684451
 30
0.0
 42
0.0076726310371342
  0
VERTEX
  5
5EC
  8
THROUGH_CUT
 10
36.46602586153526
 20
23.66774973098919
 30
0.0
  0
VERTEX
  5
5ED
  8
THROUGH_CUT
 10
36.46557881055405
 20
23.66764776890744
 30
0.0
  0
SEQEND
  5
5EE
  8
THROUGH_CUT
  0
POLYLINE
  5
71
  8
MARKS_IN_POCKET
 66
     1
 10
0.0
 20
0.0
 30
0.0
 70
     1
  0
VERTEX
  5
5EF
  8
MARKS_IN_POCKET
 10
11.93229432871622
 20
8.19544065860113
 30
0.0
 42
0.4142135623730951
  0
VERTEX
  5
5F0
  8
MARKS_IN_POCKET
 10
11.73229432871622
 20
7.995440658601127
 30
0.0
 42
0.4142135623730951
  0
VERTEX
  5
5F1
  8
MARKS_IN_POCKET
 10
11.93229432871622
 20
7.795440658601124
 30
0.0
 42
0.4142135623730951
  0
VERTEX
  5
5F2
  8
MARKS_IN_POCKET
 10
12.13229432871622
 20
7.995440658601127
 30
0.0
 42
0.4142135623730951
  0
SEQEND
  5
5F3
  8
MARKS_IN_POCKET
  0
POLYLINE
  5
72
  8
MARKS_IN_POCKET
 66
     1
 10
0.0
 20
0.0
 30
0.0
 70
     1
  0
VERTEX
  5
5F4
  8
MARKS_IN_POCKET
 10
13.62398791031898
 20
5.928686850627282
 30
0.0
 42
0.4142135623730951
  0
VERTEX
  5
5F5
  8
MARKS_IN_POCKET
 10
13.42398791031897
 20
5.728686850627275
 30
0.0
 42
0.4142135623730951
  0
VERTEX
  5
5F6
  8
MARKS_IN_POCKET
 10
13.62398791031898
 20
5.528686850627268
 30
0.0
 42
0.4142135623730951
  0
VERTEX
  5
5F7
  8
MARKS_IN_POCKET
 10
13.82398791031899
 20
5.728686850627275
 30
0.0
 42
0.4142135623730951
  0
SEQEND
  5
5F8
  8
MARKS_IN_POCKET
  0
POLYLINE
  5
73
  8
MARKS_IN_POCKET
 66
     1
 10
0.0
 20
0.0
 30
0.0
 70
     1
  0
VERTEX
  5
5F9
  8
MARKS_IN_POCKET
 10
12.7781411195176
 20
7.062063754614212
 30
0.0
 42
0.4142135623730951
  0
VERTEX
  5
5FA
  8
MARKS_IN_POCKET
 10
12.57814111951759
 20
6.862063754614208
 30
0.0
 42
0.4142135623730951
  0
VERTEX
  5
5FB
  8
MARKS_IN_POCKET
 10
12.7781411195176
 20
6.662063754614203
 30
0.0
 42
0.4142135623730951
  0
VERTEX
  5
5FC
  8
MARKS_IN_POCKET
 10
12.9781411195176
 20
6.862063754614208
 30
0.0
 42
0.4142135623730951
  0
SEQEND
  5
5FD
  8
MARKS_IN_POCKET
  0
POLYLINE
  5
74
  8
MARKS_IN_POCKET
 66
     1
 10
0.0
 20
0.0
 30
0.0
 70
     1
  0
VERTEX
  5
5FE
  8
MARKS_IN_POCKET
 10
4.858623409128107
 20
11.93355049999999
 30
0.0
 42
0.4142135623730951
  0
VERTEX
  5
5FF
  8
MARKS_IN_POCKET
 10
4.658623409128102
 20
11.73355049999999
 30
0.0
 42
0.4142135623730951
  0
VERTEX
  5
600
  8
MARKS_IN_POCKET
 10
4.858623409128107
 20
11.53355049999998
 30
0.0
 42
0.4142135623730951
  0
VERTEX
  5
601
  8
MARKS_IN_POCKET
 10
5.058623409128112
 20
11.73355049999999
 30
0.0
 42
0.4142135623730951
  0
SEQEND
  5
602
  8
MARKS_IN_POCKET
  0
POLYLINE
  5
75
  8
MARKS_IN_POCKET
 66
     1
 10
0.0
 20
0.0
 30
0.0
 70
     1
  0
VERTEX
  5
603
  8
MARKS_IN_POCKET
 10
23.6806860214829
 20
25.52834299657178
 30
0.0
 42
0.4142135623730951
  0
VERTEX
  5
604
  8
MARKS_IN_POCKET
 10
23.4806860214829
 20
25.32834299657178
 30
0.0
 42
0.4142135623730951
  0
VERTEX
  5
605
  8
MARKS_IN_POCKET
 10
23.6806860214829
 20
25.12834299657178
 30
0.0
 42
0.4142135623730951
  0
VERTEX
  5
606
  8
MARKS_IN_POCKET
 10
23.8806860214829
 20
25.32834299657178
 30
0.0
 42
0.4142135623730951
  0
SEQEND
  5
607
  8
MARKS_IN_POCKET
  0
POLYLINE
  5
76
  8
MARKS_IN_POCKET
 66
     1
 10
0.0
 20
0.0
 30
0.0
 70
     1
  0
VERTEX
  5
608
  8
MARKS_IN_POCKET
 10
31.29878116249336
 20
37.21232552334386
 30
0.0
 42
0.4142135623730951
  0
VERTEX
  5
609
  8
MARKS_IN_POCKET
 10
31.09878116249335
 20
37.01232552334385
 30
0.0
 42
0.4142135623730951
  0
VERTEX
  5
60A
  8
MARKS_IN_POCKET
 10
31.29878116249336
 20
36.81232552334384
 30
0.0
 42
0.4142135623730951
  0
VERTEX
  5
60B
  8
MARKS_IN_POCKET
 10
31.49878116249337
 20
37.01232552334385
 30
0.0
 42
0.4142135623730951
  0
SEQEND
  5
60C
  8
MARKS_IN_POCKET
  0
POLYLINE
  5
77
  8
MARKS_IN_POCKET
 66
     1
 10
0.0
 20
0.0
 30
0.0
 70
     1
  0
VERTEX
  5
60D
  8
MARKS_IN_POCKET
 10
32.72691592464508
 20
34.77092610884123
 30
0.0
 42
0.4142135623730951
  0
VERTEX
  5
60E
  8
MARKS_IN_POCKET
 10
32.52691592464507
 20
34.57092610884123
 30
0.0
 42
0.4142135623730951
  0
VERTEX
  5
60F
  8
MARKS_IN_POCKET
 10
32.72691592464508
 20
34.37092610884122
 30
0.0
 42
0.4142135623730951
  0
VERTEX
  5
610
  8
MARKS_IN_POCKET
 10
32.92691592464508
 20
34.57092610884123
 30
0.0
 42
0.4142135623730951
  0
SEQEND
  5
611
  8
MARKS_IN_POCKET
  0
POLYLINE
  5
78
  8
MARKS_IN_POCKET
 66
     1
 10
0.0
 20
0.0
 30
0.0
 70
     1
  0
VERTEX
  5
612
  8
MARKS_IN_POCKET
 10
32.01284854356922
 20
35.99162581609254
 30
0.0
 42
0.4142135623730951
  0
VERTEX
  5
613
  8
MARKS_IN_POCKET
 10
31.81284854356922
 20
35.79162581609255
 30
0.0
 42
0.4142135623730951
  0
VERTEX
  5
614
  8
MARKS_IN_POCKET
 10
32.01284854356922
 20
35.59162581609255
 30
0.0
 42
0.4142135623730951
  0
VERTEX
  5
615
  8
MARKS_IN_POCKET
 10
32.21284854356922
 20
35.79162581609255
 30
0.0
 42
0.4142135623730951
  0
SEQEND
  5
616
  8
MARKS_IN_POCKET
  0
POLYLINE
  5
79
  8
MARKS_IN_POCKET
 66
     1
 10
0.0
 20
0.0
 30
0.0
 70
     1
  0
VERTEX
  5
617
  8
MARKS_IN_POCKET
 10
90.90740997174979
 20
23.16132765228174
 30
0.0
 42
0.4142135623730951
  0
VERTEX
  5
618
  8
MARKS_IN_POCKET
 10
90.70740997174977
 20
22.96132765228173
 30
0.0
 42
0.4142135623730951
  0
VERTEX
  5
619
  8
MARKS_IN_POCKET
 10
90.90740997174979
 20
22.76132765228172
 30
0.0
 42
0.4142135623730951
  0
VERTEX
  5
61A
  8
MARKS_IN_POCKET
 10
91.1074099717498
 20
22.96132765228173
 30
0.0
 42
0.4142135623730951
  0
SEQEND
  5
61B
  8
MARKS_IN_POCKET
  0
POLYLINE
  5
7A
  8
MARKS_IN_POCKET
 66
     1
 10
0.0
 20
0.0
 30
0.0
 70
     1
  0
VERTEX
  5
61C
  8
MARKS_IN_POCKET
 10
89.49231099272991
 20
21.74800006124812
 30
0.0
 42
0.4142135623730951
  0
VERTEX
  5
61D
  8
MARKS_IN_POCKET
 10
89.2923109927299
 20
21.54800006124811
 30
0.0
 42
0.4142135623730951
  0
VERTEX
  5
61E
  8
MARKS_IN_POCKET
 10
89.49231099272991
 20
21.3480000612481
 30
0.0
 42
0.4142135623730951
  0
VERTEX
  5
61F
  8
MARKS_IN_POCKET
 10
89.69231099272993
 20
21.54800006124811
 30
0.0
 42
0.4142135623730951
  0
SEQEND
  5
620
  8
MARKS_IN_POCKET
  0
POLYLINE
  5
7B
  8
MARKS_IN_POCKET
 66
     1
 10
0.0
 20
0.0
 30
0.0
 70
     1
  0
VERTEX
  5
621
  8
MARKS_IN_POCKET
 10
88.0789834016963
 20
23.163099040268
 30
0.0
 42
0.4142135623730951
  0
VERTEX
  5
622
  8
MARKS_IN_POCKET
 10
87.8789834016963
 20
22.96309904026799
 30
0.0
 42
0.4142135623730951
  0
VERTEX
  5
623
  8
MARKS_IN_POCKET
 10
88.0789834016963
 20
22.76309904026798
 30
0.0
 42
0.4142135623730951
  0
VERTEX
  5
624
  8
MARKS_IN_POCKET
 10
88.27898340169631
 20
22.96309904026799
 30
0.0
 42
0.4142135623730951
  0
SEQEND
  5
625
  8
MARKS_IN_POCKET
  0
POLYLINE
  5
7C
  8
MARKS_IN_POCKET
 66
     1
 10
0.0
 20
0.0
 30
0.0
 70
     1
  0
VERTEX
  5
626
  8
MARKS_IN_POCKET
 10
89.49408238071616
 20
24.57642663130158
 30
0.0
 42
0.4142135623730951
  0
VERTEX
  5
627
  8
MARKS_IN_POCKET
 10
89.29408238071618
 20
24.37642663130159
 30
0.0
 42
0.4142135623730951
  0
VERTEX
  5
628
  8
MARKS_IN_POCKET
 10
89.49408238071616
 20
24.1764266313016
 30
0.0
 42
0.4142135623730951
  0
VERTEX
  5
629
  8
MARKS_IN_POCKET
 10
89.69408238071615
 20
24.37642663130159
 30
0.0
 42
0.4142135623730951
  0
SEQEND
  5
62A
  8
MARKS_IN_POCKET
  0
POLYLINE
  5
7D
  8
MARKS_IN_POCKET
 66
     1
 10
0.0
 20
0.0
 30
0.0
 70
     1
  0
VERTEX
  5
62B
  8
MARKS_IN_POCKET
 10
89.49319668672305
 20
23.16221334627485
 30
0.0
 42
0.4142135623730951
  0
VERTEX
  5
62C
  8
MARKS_IN_POCKET
 10
89.29319668672305
 20
22.96221334627485
 30
0.0
 42
0.4142135623730951
  0
VERTEX
  5
62D
  8
MARKS_IN_POCKET
 10
89.49319668672305
 20
22.76221334627485
 30
0.0
 42
0.4142135623730951
  0
VERTEX
  5
62E
  8
MARKS_IN_POCKET
 10
89.69319668672306
 20
22.96221334627485
 30
0.0
 42
0.4142135623730951
  0
SEQEND
  5
62F
  8
MARKS_IN_POCKET
  0
POLYLINE
  5
7E
  8
MARKS_IN_POCKET
 66
     1
 10
0.0
 20
0.0
 30
0.0
 70
     1
  0
VERTEX
  5
630
  8
MARKS_IN_POCKET
 10
23.35314607596779
 20
40.32008621410476
 30
0.0
 42
0.4142135623730951
  0
VERTEX
  5
631
  8
MARKS_IN_POCKET
 10
23.15314607596778
 20
40.12008621410475
 30
0.0
 42
0.4142135623730951
  0
VERTEX
  5
632
  8
MARKS_IN_POCKET
 10
23.35314607596779
 20
39.92008621410474
 30
0.0
 42
0.4142135623730951
  0
VERTEX
  5
633
  8
MARKS_IN_POCKET
 10
23.5531460759678
 20
40.12008621410475
 30
0.0
 42
0.4142135623730951
  0
SEQEND
  5
634
  8
MARKS_IN_POCKET
  0
POLYLINE
  5
7F
  8
MARKS_IN_POCKET
 66
     1
 10
0.0
 20
0.0
 30
0.0
 70
     1
  0
VERTEX
  5
635
  8
MARKS_IN_POCKET
 10
21.94060896612024
 20
41.73597424403632
 30
0.0
 42
0.4142135623730951
  0
VERTEX
  5
636
  8
MARKS_IN_POCKET
 10
21.74060896612023
 20
41.53597424403631
 30
0.0
 42
0.4142135623730951
  0
VERTEX
  5
637
  8
MARKS_IN_POCKET
 10
21.94060896612024
 20
41.3359742440363
 30
0.0
 42
0.4142135623730951
  0
VERTEX
  5
638
  8
MARKS_IN_POCKET
 10
22.14060896612025
 20
41.53597424403631
 30
0.0
 42
0.4142135623730951
  0
SEQEND
  5
639
  8
MARKS_IN_POCKET
  0
POLYLINE
  5
80
  8
MARKS_IN_POCKET
 66
     1
 10
0.0
 20
0.0
 30
0.0
 70
     1
  0
VERTEX
  5
63A
  8
MARKS_IN_POCKET
 10
23.3564969960518
 20
43.14851135388386
 30
0.0
 42
0.4142135623730951
  0
VERTEX
  5
63B
  8
MARKS_IN_POCKET
 10
23.1564969960518
 20
42.94851135388386
 30
0.0
 42
0.4142135623730951
  0
VERTEX
  5
63C
  8
MARKS_IN_POCKET
 10
23.3564969960518
 20
42.74851135388386
 30
0.0
 42
0.4142135623730951
  0
VERTEX
  5
63D
  8
MARKS_IN_POCKET
 10
23.5564969960518
 20
42.94851135388386
 30
0.0
 42
0.4142135623730951
  0
SEQEND
  5
63E
  8
MARKS_IN_POCKET
  0
POLYLINE
  5
81
  8
MARKS_IN_POCKET
 66
     1
 10
0.0
 20
0.0
 30
0.0
 70
     1
  0
VERTEX
  5
63F
  8
MARKS_IN_POCKET
 10
24.76903410589937
 20
41.73262332395231
 30
0.0
 42
0.4142135623730951
  0
VERTEX
  5
640
  8
MARKS_IN_POCKET
 10
24.56903410589936
 20
41.53262332395231
 30
0.0
 42
0.4142135623730951
  0
VERTEX
  5
641
  8
MARKS_IN_POCKET
 10
24.76903410589937
 20
41.3326233239523
 30
0.0
 42
0.4142135623730951
  0
VERTEX
  5
642
  8
MARKS_IN_POCKET
 10
24.96903410589938
 20
41.53262332395231
 30
0.0
 42
0.4142135623730951
  0
SEQEND
  5
643
  8
MARKS_IN_POCKET
  0
POLYLINE
  5
82
  8
MARKS_IN_POCKET
 66
     1
 10
0.0
 20
0.0
 30
0.0
 70
     1
  0
VERTEX
  5
644
  8
MARKS_IN_POCKET
 10
23.35482153600979
 20
41.73429878399428
 30
0.0
 42
0.4142135623730951
  0
VERTEX
  5
645
  8
MARKS_IN_POCKET
 10
23.15482153600979
 20
41.53429878399429
 30
0.0
 42
0.4142135623730951
  0
VERTEX
  5
646
  8
MARKS_IN_POCKET
 10
23.35482153600979
 20
41.33429878399429
 30
0.0
 42
0.4142135623730951
  0
VERTEX
  5
647
  8
MARKS_IN_POCKET
 10
23.55482153600979
 20
41.53429878399429
 30
0.0
 42
0.4142135623730951
  0
SEQEND
  5
648
  8
MARKS_IN_POCKET
  0
POLYLINE
  5
83
  8
MARKS_IN_POCKET
 66
     1
 10
0.0
 20
0.0
 30
0.0
 70
     1
  0
VERTEX
  5
649
  8
MARKS_IN_POCKET
 10
32.63498928634048
 20
5.205320793811041
 30
0.0
 42
0.4142135623730951
  0
VERTEX
  5
64A
  8
MARKS_IN_POCKET
 10
32.43498928634047
 20
5.005320793811036
 30
0.0
 42
0.4142135623730951
  0
VERTEX
  5
64B
  8
MARKS_IN_POCKET
 10
32.63498928634048
 20
4.80532079381103
 30
0.0
 42
0.4142135623730951
  0
VERTEX
  5
64C
  8
MARKS_IN_POCKET
 10
32.83498928634048
 20
5.005320793811036
 30
0.0
 42
0.4142135623730951
  0
SEQEND
  5
64D
  8
MARKS_IN_POCKET
  0
POLYLINE
  5
84
  8
MARKS_IN_POCKET
 66
     1
 10
0.0
 20
0.0
 30
0.0
 70
     1
  0
VERTEX
  5
64E
  8
MARKS_IN_POCKET
 10
34.3665018861367
 20
6.206252418222443
 30
0.0
 42
0.4142135623730951
  0
VERTEX
  5
64F
  8
MARKS_IN_POCKET
 10
34.1665018861367
 20
6.006252418222442
 30
0.0
 42
0.4142135623730951
  0
VERTEX
  5
650
  8
MARKS_IN_POCKET
 10
34.3665018861367
 20
5.806252418222442
 30
0.0
 42
0.4142135623730951
  0
VERTEX
  5
651
  8
MARKS_IN_POCKET
 10
34.56650188613671
 20
6.006252418222442
 30
0.0
 42
0.4142135623730951
  0
SEQEND
  5
652
  8
MARKS_IN_POCKET
  0
POLYLINE
  5
85
  8
MARKS_IN_POCKET
 66
     1
 10
0.0
 20
0.0
 30
0.0
 70
     1
  0
VERTEX
  5
653
  8
MARKS_IN_POCKET
 10
33.3655702617253
 20
7.937765018018675
 30
0.0
 42
0.4142135623730951
  0
VERTEX
  5
654
  8
MARKS_IN_POCKET
 10
33.16557026172531
 20
7.737765018018677
 30
0.0
 42
0.4142135623730951
  0
VERTEX
  5
655
  8
MARKS_IN_POCKET
 10
33.3655702617253
 20
7.537765018018678
 30
0.0
 42
0.4142135623730951
  0
VERTEX
  5
656
  8
MARKS_IN_POCKET
 10
33.5655702617253
 20
7.737765018018677
 30
0.0
 42
0.4142135623730951
  0
SEQEND
  5
657
  8
MARKS_IN_POCKET
  0
POLYLINE
  5
86
  8
MARKS_IN_POCKET
 66
     1
 10
0.0
 20
0.0
 30
0.0
 70
     1
  0
VERTEX
  5
658
  8
MARKS_IN_POCKET
 10
31.63405766192906
 20
6.936833393607263
 30
0.0
 42
0.4142135623730951
  0
VERTEX
  5
659
  8
MARKS_IN_POCKET
 10
31.43405766192906
 20
6.736833393607262
 30
0.0
 42
0.4142135623730951
  0
VERTEX
  5
65A
  8
MARKS_IN_POCKET
 10
31.63405766192906
 20
6.536833393607261
 30
0.0
 42
0.4142135623730951
  0
VERTEX
  5
65B
  8
MARKS_IN_POCKET
 10
31.83405766192906
 20
6.736833393607262
 30
0.0
 42
0.4142135623730951
  0
SEQEND
  5
65C
  8
MARKS_IN_POCKET
  0
POLYLINE
  5
87
  8
MARKS_IN_POCKET
 66
     1
 10
0.0
 20
0.0
 30
0.0
 70
     1
  0
VERTEX
  5
65D
  8
MARKS_IN_POCKET
 10
89.24329963471516
 20
35.64735393156538
 30
0.0
 42
0.4142135623730951
  0
VERTEX
  5
65E
  8
MARKS_IN_POCKET
 10
89.04329963471514
 20
35.44735393156537
 30
0.0
 42
0.4142135623730951
  0
VERTEX
  5
65F
  8
MARKS_IN_POCKET
 10
89.24329963471516
 20
35.24735393156535
 30
0.0
 42
0.4142135623730951
  0
VERTEX
  5
660
  8
MARKS_IN_POCKET
 10
89.44329963471517
 20
35.44735393156537
 30
0.0
 42
0.4142135623730951
  0
SEQEND
  5
661
  8
MARKS_IN_POCKET
  0
POLYLINE
  5
88
  8
MARKS_IN_POCKET
 66
     1
 10
0.0
 20
0.0
 30
0.0
 70
     1
  0
VERTEX
  5
662
  8
MARKS_IN_POCKET
 10
86.78603786055525
 20
37.04801969228505
 30
0.0
 42
0.4142135623730951
  0
VERTEX
  5
663
  8
MARKS_IN_POCKET
 10
86.58603786055525
 20
36.84801969228504
 30
0.0
 42
0.4142135623730951
  0
VERTEX
  5
664
  8
MARKS_IN_POCKET
 10
86.78603786055525
 20
36.64801969228504
 30
0.0
 42
0.4142135623730951
  0
VERTEX
  5
665
  8
MARKS_IN_POCKET
 10
86.98603786055526
 20
36.84801969228504
 30
0.0
 42
0.4142135623730951
  0
SEQEND
  5
666
  8
MARKS_IN_POCKET
  0
POLYLINE
  5
89
  8
MARKS_IN_POCKET
 66
     1
 10
0.0
 20
0.0
 30
0.0
 70
     1
  0
VERTEX
  5
667
  8
MARKS_IN_POCKET
 10
79.02590877368826
 20
20.25437028720042
 30
0.0
 42
0.4142135623730951
  0
VERTEX
  5
668
  8
MARKS_IN_POCKET
 10
78.82590877368823
 20
20.05437028720039
 30
0.0
 42
0.4142135623730951
  0
VERTEX
  5
669
  8
MARKS_IN_POCKET
 10
79.02590877368826
 20
19.85437028720036
 30
0.0
 42
0.4142135623730951
  0
VERTEX
  5
66A
  8
MARKS_IN_POCKET
 10
79.22590877368829
 20
20.05437028720039
 30
0.0
 42
0.4142135623730951
  0
SEQEND
  5
66B
  8
MARKS_IN_POCKET
  0
POLYLINE
  5
8A
  8
MARKS_IN_POCKET
 66
     1
 10
0.0
 20
0.0
 30
0.0
 70
     1
  0
VERTEX
  5
66C
  8
MARKS_IN_POCKET
 10
76.63173899430566
 20
21.7603420888922
 30
0.0
 42
0.4142135623730951
  0
VERTEX
  5
66D
  8
MARKS_IN_POCKET
 10
76.43173899430568
 20
21.56034208889221
 30
0.0
 42
0.4142135623730951
  0
VERTEX
  5
66E
  8
MARKS_IN_POCKET
 10
76.63173899430566
 20
21.36034208889222
 30
0.0
 42
0.4142135623730951
  0
VERTEX
  5
66F
  8
MARKS_IN_POCKET
 10
76.83173899430565
 20
21.56034208889221
 30
0.0
 42
0.4142135623730951
  0
SEQEND
  5
670
  8
MARKS_IN_POCKET
  0
POLYLINE
  5
8B
  8
MARKS_IN_POCKET
 66
     1
 10
0.0
 20
0.0
 30
0.0
 70
     1
  0
VERTEX
  5
671
  8
MARKS_IN_POCKET
 10
68.94685949730972
 20
14.96662696156254
 30
0.0
 42
0.4142135623730951
  0
VERTEX
  5
672
  8
MARKS_IN_POCKET
 10
68.74685949730973
 20
14.76662696156255
 30
0.0
 42
0.4142135623730951
  0
VERTEX
  5
673
  8
MARKS_IN_POCKET
 10
68.94685949730972
 20
14.56662696156256
 30
0.0
 42
0.4142135623730951
  0
VERTEX
  5
674
  8
MARKS_IN_POCKET
 10
69.1468594973097
 20
14.76662696156255
 30
0.0
 42
0.4142135623730951
  0
SEQEND
  5
675
  8
MARKS_IN_POCKET
  0
POLYLINE
  5
8C
  8
MARKS_IN_POCKET
 66
     1
 10
0.0
 20
0.0
 30
0.0
 70
     1
  0
VERTEX
  5
676
  8
MARKS_IN_POCKET
 10
69.68802469407856
 20
13.10902793295103
 30
0.0
 42
0.4142135623730951
  0
VERTEX
  5
677
  8
MARKS_IN_POCKET
 10
69.48802469407853
 20
12.909027932951
 30
0.0
 42
0.4142135623730951
  0
VERTEX
  5
678
  8
MARKS_IN_POCKET
 10
69.68802469407856
 20
12.70902793295097
 30
0.0
 42
0.4142135623730951
  0
VERTEX
  5
679
  8
MARKS_IN_POCKET
 10
69.8880246940786
 20
12.909027932951
 30
0.0
 42
0.4142135623730951
  0
SEQEND
  5
67A
  8
MARKS_IN_POCKET
  0
POLYLINE
  5
8D
  8
MARKS_IN_POCKET
 66
     1
 10
0.0
 20
0.0
 30
0.0
 70
     1
  0
VERTEX
  5
67B
  8
MARKS_IN_POCKET
 10
67.83042566546703
 20
12.36786273618214
 30
0.0
 42
0.4142135623730951
  0
VERTEX
  5
67C
  8
MARKS_IN_POCKET
 10
67.63042566546702
 20
12.16786273618212
 30
0.0
 42
0.4142135623730951
  0
VERTEX
  5
67D
  8
MARKS_IN_POCKET
 10
67.83042566546703
 20
11.9678627361821
 30
0.0
 42
0.4142135623730951
  0
VERTEX
  5
67E
  8
MARKS_IN_POCKET
 10
68.03042566546705
 20
12.16786273618212
 30
0.0
 42
0.4142135623730951
  0
SEQEND
  5
67F
  8
MARKS_IN_POCKET
  0
POLYLINE
  5
8E
  8
MARKS_IN_POCKET
 66
     1
 10
0.0
 20
0.0
 30
0.0
 70
     1
  0
VERTEX
  5
680
  8
MARKS_IN_POCKET
 10
67.08926046869819
 20
14.22546176479367
 30
0.0
 42
0.4142135623730951
  0
VERTEX
  5
681
  8
MARKS_IN_POCKET
 10
66.8892604686982
 20
14.02546176479368
 30
0.0
 42
0.4142135623730951
  0
VERTEX
  5
682
  8
MARKS_IN_POCKET
 10
67.08926046869819
 20
13.82546176479369
 30
0.0
 42
0.4142135623730951
  0
VERTEX
  5
683
  8
MARKS_IN_POCKET
 10
67.28926046869817
 20
14.02546176479368
 30
0.0
 42
0.4142135623730951
  0
SEQEND
  5
684
  8
MARKS_IN_POCKET
  0
ENDSEC
  0
EOF
